<svg width="82" height="82" viewBox="0 0 82 82" fill="none" xmlns="http://www.w3.org/2000/svg">
<path d="M18.7051 33.4395C18.7051 39.2386 23.423 43.957 29.2227 43.957C35.0224 43.957 39.7402 39.2386 39.7402 33.4395C39.7402 27.6403 35.0224 22.9219 29.2227 22.9219C23.423 22.9219 18.7051 27.6403 18.7051 33.4395ZM29.2227 25.4219C33.6432 25.4219 37.2402 29.0189 37.2402 33.4395C37.2402 37.86 33.6432 41.457 29.2227 41.457C24.8021 41.457 21.2051 37.86 21.2051 33.4395C21.2051 29.0189 24.8021 25.4219 29.2227 25.4219Z" fill="#618E81" stroke="#618E81" stroke-width="0.5"/>
<path d="M18.8374 24.1543C18.8374 21.4108 16.6064 19.1797 13.8638 19.1797C11.1212 19.1797 8.89014 21.4108 8.89014 24.1543C8.89014 26.8969 11.1212 29.1279 13.8638 29.1279C16.6063 29.1279 18.8374 26.8969 18.8374 24.1543ZM11.3901 24.1543C11.3901 22.7903 12.5 21.6797 13.8638 21.6797C15.2275 21.6797 16.3374 22.7903 16.3374 24.1543C16.3374 25.5182 15.2277 26.6279 13.8638 26.6279C12.4999 26.6279 11.3901 25.5182 11.3901 24.1543Z" fill="#618E81" stroke="#618E81" stroke-width="0.5"/>
<path d="M44.5815 19.1797C41.8389 19.1797 39.6079 21.4108 39.6079 24.1543C39.6079 26.8969 41.839 29.1279 44.5815 29.1279C47.3246 29.1279 49.5557 26.8969 49.5557 24.1543C49.5557 21.4108 47.3246 19.1797 44.5815 19.1797ZM44.5815 26.6279C43.2177 26.6279 42.1079 25.5182 42.1079 24.1543C42.1079 22.7903 43.2178 21.6797 44.5815 21.6797C45.9454 21.6797 47.0557 22.7904 47.0557 24.1543C47.0557 25.5181 45.9455 26.6279 44.5815 26.6279Z" fill="#618E81" stroke="#618E81" stroke-width="0.5"/>
<path d="M23.602 18.3126L23.6029 18.3124C24.248 18.2013 24.7923 17.749 25.1406 17.0718C25.4889 16.3946 25.6315 15.5066 25.4711 14.5718C25.3091 13.6283 24.8712 12.8113 24.2491 12.263L23.602 18.3126ZM23.602 18.3126C23.0143 18.4159 22.3825 18.216 21.8169 17.7179C21.1952 17.1696 20.7569 16.3516 20.5953 15.4082L20.584 15.342M23.602 18.3126L20.584 15.342M20.584 15.342C20.44 14.4219 20.5831 13.5313 20.9774 12.8242L20.584 15.342ZM22.463 11.6685C21.8754 11.7695 21.3437 12.1675 20.9774 12.8241L22.463 11.6685ZM22.463 11.6685C22.5634 11.6513 22.664 11.6428 22.7644 11.6428M22.463 11.6685L22.7644 11.6428M22.7644 11.6428C23.2614 11.6428 23.7793 11.8494 24.249 12.263L22.7644 11.6428ZM18.7936 11.607L18.7936 11.607C18.1072 12.8388 17.875 14.3388 18.1313 15.8305C18.3866 17.3232 19.1058 18.6604 20.1635 19.593C21.0837 20.4043 22.1724 20.8391 23.2908 20.8391C23.5353 20.8391 23.7809 20.8184 24.026 20.7759C26.7673 20.3045 28.4752 17.2964 27.9351 14.1493C27.6793 12.6577 26.9601 11.3205 25.9024 10.3879C24.7807 9.39857 23.4057 8.96601 22.0401 9.20505C20.6731 9.43902 19.522 10.3004 18.7936 11.607Z" fill="#618E81" stroke="#618E81" stroke-width="0.5"/>
<path d="M33.1219 14.2686L33.1219 14.2688C32.8448 15.1763 32.8742 16.0752 33.1344 16.7909C33.3944 17.5064 33.8772 18.0236 34.5033 18.2153C35.1306 18.4043 35.8202 18.2445 36.4354 17.7966C37.0506 17.3487 37.5768 16.6206 37.8536 15.7136C38.1305 14.8061 38.1008 13.9072 37.8406 13.1916C37.5804 12.476 37.0974 11.959 36.4714 11.7679L36.4713 11.7678C36.3009 11.7157 36.1239 11.6899 35.9433 11.6899C35.5161 11.6899 35.0627 11.8354 34.6247 12.1322L33.1219 14.2686ZM33.1219 14.2686C33.4009 13.3533 33.9385 12.5981 34.6246 12.1322L33.1219 14.2686ZM40.245 16.4436L40.245 16.4435C41.1771 13.3883 39.8615 10.1891 37.2015 9.37759C35.8762 8.97122 34.4596 9.2237 33.2215 10.0631L33.2215 10.0631C32.0544 10.8548 31.1725 12.0917 30.7306 13.5388L30.7306 13.5388C29.7979 16.5941 31.1132 19.7933 33.7741 20.6058C34.185 20.7313 34.6032 20.7915 35.0195 20.7915C37.2823 20.7915 39.4553 19.0301 40.245 16.4436Z" fill="#618E81" stroke="#618E81" stroke-width="0.5"/>
<path d="M45.5977 50.2734H13.4023C12.7121 50.2734 12.1523 50.8326 12.1523 51.5234V70.9805C12.1523 71.6714 12.7121 72.2305 13.4023 72.2305H45.5977C46.2879 72.2305 46.8477 71.6714 46.8477 70.9805V51.5234C46.8477 50.8326 46.2879 50.2734 45.5977 50.2734ZM44.3477 69.7305H14.6523V52.7734H44.3477V69.7305Z" fill="#618E81" stroke="#618E81" stroke-width="0.5"/>
<path d="M23.062 59.5469H35.938C36.6282 59.5469 37.188 58.9878 37.188 58.2969C37.188 57.606 36.6282 57.0469 35.938 57.0469H23.062C22.3718 57.0469 21.812 57.606 21.812 58.2969C21.812 58.9878 22.3718 59.5469 23.062 59.5469Z" fill="#618E81" stroke="#618E81" stroke-width="0.5"/>
<path d="M23.062 65.4531H35.938C36.6282 65.4531 37.188 64.894 37.188 64.2031C37.188 63.5122 36.6282 62.9531 35.938 62.9531H23.062C22.3718 62.9531 21.812 63.5122 21.812 64.2031C21.812 64.894 22.3718 65.4531 23.062 65.4531Z" fill="#618E81" stroke="#618E81" stroke-width="0.5"/>
<path d="M80 10.333H58.25V8.95996C58.25 4.43324 54.5673 0.75 50.0405 0.75H2C1.30976 0.75 0.75 1.30911 0.75 2V80C0.75 80.6909 1.30976 81.25 2 81.25H50.0405C54.5673 81.25 58.25 77.5668 58.25 73.04V71.667H80C80.6902 71.667 81.25 71.1079 81.25 70.417V11.583C81.25 10.8921 80.6902 10.333 80 10.333ZM55.75 73.04C55.75 76.1881 53.1886 78.75 50.0405 78.75H3.25V3.25H50.0405C53.1886 3.25 55.75 5.81187 55.75 8.95996V73.04ZM78.75 69.167H58.25V60.3271H69.8354C70.5257 60.3271 71.0854 59.768 71.0854 59.0771C71.0854 58.3863 70.5257 57.8271 69.8354 57.8271H58.25V51.374H69.8354C70.5257 51.374 71.0854 50.8149 71.0854 50.124C71.0854 49.4331 70.5257 48.874 69.8354 48.874H58.25V42.4199H69.8354C70.5257 42.4199 71.0854 41.8608 71.0854 41.1699C71.0854 40.479 70.5257 39.9199 69.8354 39.9199H58.25V33.4668H69.8354C70.5257 33.4668 71.0854 32.9077 71.0854 32.2168C71.0854 31.5259 70.5257 30.9668 69.8354 30.9668H58.25V24.5137H69.8354C70.5257 24.5137 71.0854 23.9546 71.0854 23.2637C71.0854 22.5728 70.5257 22.0137 69.8354 22.0137H58.25V12.833H78.75V69.167Z" fill="#618E81" stroke="#618E81" stroke-width="0.5"/>
</svg>
