<svg width="85" height="80" viewBox="0 0 85 80" fill="none" xmlns="http://www.w3.org/2000/svg">
<path d="M23.3197 41.3782C24.4109 41.3782 25.4776 41.0547 26.3849 40.4484C27.2923 39.8422 27.9994 38.9805 28.417 37.9724C28.8346 36.9642 28.9438 35.8549 28.731 34.7846C28.5181 33.7144 27.9926 32.7313 27.221 31.9597C26.4494 31.1881 25.4663 30.6626 24.3961 30.4498C23.3259 30.2369 22.2165 30.3461 21.2084 30.7637C20.2002 31.1813 19.3386 31.8885 18.7323 32.7958C18.1261 33.7031 17.8025 34.7698 17.8025 35.861C17.8025 37.3243 18.3838 38.7276 19.4185 39.7623C20.4531 40.797 21.8565 41.3782 23.3197 41.3782ZM23.3197 33.1024C23.8653 33.1024 24.3987 33.2642 24.8523 33.5673C25.306 33.8704 25.6596 34.3012 25.8684 34.8053C26.0772 35.3094 26.1318 35.8641 26.0253 36.3992C25.9189 36.9343 25.6562 37.4258 25.2704 37.8116C24.8846 38.1974 24.393 38.4602 23.8579 38.5666C23.3228 38.6731 22.7681 38.6184 22.2641 38.4096C21.76 38.2008 21.3291 37.8473 21.026 37.3936C20.7229 36.94 20.5611 36.4066 20.5611 35.861C20.5611 35.1294 20.8517 34.4277 21.3691 33.9104C21.8864 33.393 22.5881 33.1024 23.3197 33.1024Z" fill="#618E81"/>
<path d="M28.837 0H17.8025C17.4367 0 17.0858 0.14532 16.8272 0.403991C16.5685 0.662662 16.4232 1.01349 16.4232 1.37931V5.46897C10.8379 8.08096 6.25064 12.4342 3.34999 17.8751C0.449338 23.316 -0.608155 29.5511 0.336269 35.6441C1.53604 43.3601 3.48028 50.9417 6.14179 58.2828L8.1473 63.6952V78.6207C8.1473 78.9865 8.29262 79.3373 8.55129 79.596C8.80996 79.8547 9.1608 80 9.52661 80H37.1128C37.4786 80 37.8295 79.8547 38.0881 79.596C38.3468 79.3373 38.4921 78.9865 38.4921 78.6207V64.8276H49.5266C49.8924 64.8276 50.2433 64.6823 50.5019 64.4236C50.7606 64.1649 50.9059 63.8141 50.9059 63.4483V46.8966H59.1818C59.3886 46.8966 59.5928 46.8502 59.7792 46.7606C59.9657 46.6711 60.1296 46.5408 60.2589 46.3793C60.3881 46.2179 60.4795 46.0294 60.526 45.8279C60.5726 45.6264 60.5733 45.417 60.528 45.2152L59.6645 41.3793H62.0618C62.4276 41.3793 62.7784 41.234 63.0371 40.9753C63.2958 40.7167 63.4411 40.3658 63.4411 40V35.8621V33.1034V24.8276C63.4411 24.4618 63.2958 24.1109 63.0371 23.8523C62.7784 23.5936 62.4276 23.4483 62.0618 23.4483H55.579C54.0359 17.7939 50.7593 12.7653 46.2098 9.06995C41.6603 5.37456 36.0669 3.19818 30.2163 2.8469V1.37931C30.2163 1.01349 30.0709 0.662662 29.8123 0.403991C29.5536 0.14532 29.2028 0 28.837 0ZM19.1818 6.33517V2.75862H27.4576V25.64C24.8054 24.5568 21.8341 24.5568 19.1818 25.64V6.33517ZM23.3197 27.5862C24.9565 27.5862 26.5566 28.0716 27.9175 28.9809C29.2785 29.8903 30.3392 31.1828 30.9656 32.695C31.592 34.2072 31.7559 35.8712 31.4366 37.4766C31.1172 39.082 30.329 40.5566 29.1716 41.714C28.0142 42.8714 26.5396 43.6596 24.9343 43.9789C23.3289 44.2982 21.6649 44.1343 20.1527 43.508C18.6405 42.8816 17.348 41.8208 16.4386 40.4599C15.5292 39.0989 15.0439 37.4989 15.0439 35.8621C15.046 33.6678 15.9187 31.5641 17.4702 30.0126C19.0218 28.461 21.1255 27.5884 23.3197 27.5862ZM49.5266 44.1379C49.1608 44.1379 48.81 44.2832 48.5513 44.5419C48.2926 44.8006 48.1473 45.1514 48.1473 45.5172V62.069H37.1128C36.747 62.069 36.3962 62.2143 36.1375 62.473C35.8788 62.7316 35.7335 63.0825 35.7335 63.4483V77.2414H10.9059V63.4483C10.9059 63.2845 10.8769 63.122 10.8204 62.9683L8.73213 57.3324C6.13317 50.1621 4.23466 42.757 3.06317 35.2207C2.95282 34.5159 2.87558 33.8124 2.82592 33.1117C2.80799 32.8745 2.81075 32.64 2.79972 32.4041C2.77903 31.9407 2.75696 31.4772 2.7611 31.0166C2.7611 30.7407 2.78592 30.4648 2.79696 30.1793C2.81489 29.7655 2.83006 29.3517 2.86592 28.9379C2.89351 28.6428 2.93765 28.3517 2.97351 28.0579C3.02179 27.6703 3.07006 27.2828 3.13489 26.8993C3.1873 26.5986 3.25351 26.3034 3.31558 26.0055C3.39282 25.6345 3.47006 25.2635 3.56386 24.9021C3.63972 24.6041 3.72799 24.3103 3.81489 24.0166C3.91972 23.6593 4.0273 23.3021 4.1473 22.9503C4.24799 22.6579 4.35696 22.3683 4.4673 22.08C4.60523 21.7366 4.73489 21.3903 4.8811 21.0552C5.00386 20.771 5.13351 20.4897 5.26592 20.211C5.42454 19.8786 5.58868 19.5503 5.7611 19.2248C5.89903 18.949 6.05351 18.6814 6.20799 18.4138C6.39282 18.0938 6.58454 17.7793 6.78317 17.4676C6.9473 17.2083 7.1142 16.9503 7.28799 16.6966C7.49903 16.3903 7.71834 16.091 7.94179 15.7931C8.12523 15.549 8.31006 15.3048 8.50179 15.0662C8.73903 14.7738 8.9873 14.491 9.23696 14.2083C9.43696 13.9821 9.63558 13.7545 9.84385 13.5338C10.1087 13.2579 10.3873 12.9821 10.6714 12.72C10.8839 12.5145 11.0935 12.3062 11.3142 12.1062C11.6135 11.8386 11.9266 11.5848 12.2383 11.3297C12.459 11.1503 12.6714 10.9655 12.8976 10.7931C13.2425 10.5297 13.6052 10.2841 13.9652 10.0372C14.1763 9.89241 14.379 9.73931 14.597 9.6C15.0466 9.31172 15.5128 9.04828 15.9832 8.78345C16.1211 8.70345 16.259 8.61517 16.4052 8.53793L16.4287 8.52552V27.2621C14.9715 28.4288 13.8341 29.9461 13.1229 31.672C12.4118 33.3979 12.1501 35.2761 12.3623 37.1306C12.5746 38.9852 13.2539 40.7557 14.3367 42.2763C15.4194 43.7969 16.8703 45.0179 18.5534 45.8252C20.2365 46.6324 22.0969 46.9995 23.9605 46.892C25.8242 46.7846 27.63 46.2061 29.2092 45.2107C30.7884 44.2153 32.0892 42.8355 32.99 41.2005C33.8908 39.5656 34.362 37.7288 34.3597 35.8621C34.3575 35.4356 34.3308 35.0096 34.2797 34.5862L49.2687 35.8345L49.648 40.1241C49.6791 40.468 49.838 40.7878 50.0934 41.0202C50.3488 41.2526 50.682 41.3807 51.0273 41.3793H56.8383L57.4576 44.1379H49.5266ZM60.6825 26.2069V38.6207H52.2866L51.1652 26.2069H60.6825ZM52.7197 23.4483H30.3294L30.2245 5.58759C35.3428 5.93299 40.2351 7.82615 44.2526 11.016C48.2701 14.2058 51.2231 18.5416 52.7197 23.4483ZM48.3887 26.2069L49.0094 33.0455L33.5611 31.7572C32.8519 29.9976 31.7026 28.4497 30.2232 27.2621V26.2069H48.3887Z" fill="#618E81"/>
<path d="M63 34.5H72.5" stroke="#618E81" stroke-width="2.6" stroke-linecap="round"/>
<path d="M67.5 25H77" stroke="#618E81" stroke-width="2.6" stroke-linecap="round"/>
<path d="M75.5 40H81.5" stroke="#618E81" stroke-width="2.6" stroke-linecap="round"/>
<path d="M77.5 30H83.5" stroke="#618E81" stroke-width="2.6" stroke-linecap="round"/>
<path d="M70.5 40H71.5" stroke="#618E81" stroke-width="2.6" stroke-linecap="round"/>
<path d="M67.5 30H68.5" stroke="#618E81" stroke-width="2.6" stroke-linecap="round"/>
</svg>
