<svg width="85" height="85" viewBox="0 0 85 85" fill="none" xmlns="http://www.w3.org/2000/svg">
<path d="M65.8838 37.3462H53.3105C53.2895 37.3462 53.279 37.3567 53.2685 37.3567V21.9239C53.2685 19.6005 51.3867 17.7188 49.0633 17.7188H4.20513C1.88179 17.7188 0 19.6005 0 21.9239V76.5905C0 81.2267 3.7741 85.0008 8.41026 85.0008H58.8718C63.5079 85.0008 67.2821 81.2267 67.2821 76.5905V38.7444C67.2821 37.9664 66.6513 37.3462 65.8838 37.3462ZM8.41026 82.1939C5.31949 82.1939 2.80692 79.6813 2.80692 76.5905V21.9239C2.80692 21.1459 3.43769 20.5257 4.20513 20.5257H49.0633C49.8308 20.5257 50.4615 21.1459 50.4615 21.9239V76.5905C50.4615 78.7457 51.271 80.7116 52.6062 82.1939H8.41026ZM64.4751 76.5905C64.4751 79.6813 61.9626 82.1939 58.8718 82.1939C55.781 82.1939 53.2685 79.6813 53.2685 76.5905V40.1321C53.279 40.1321 53.3 40.1426 53.3105 40.1426H64.4751V76.5905Z" fill="#618E81"/>
<path d="M7.0121 51.3558H23.8326C24.6001 51.3558 25.2308 50.725 25.2308 49.9576V27.5232C25.2308 26.7558 24.6001 26.125 23.8326 26.125H7.0121C6.23416 26.125 5.6139 26.7558 5.6139 27.5232V49.9471C5.60339 50.725 6.23416 51.3558 7.0121 51.3558ZM8.41031 28.9319H22.4239V48.5594H8.41031V28.9319Z" fill="#618E81"/>
<path d="M46.2563 31.7344H29.4358C28.6579 31.7344 28.0376 32.3651 28.0376 33.1326C28.0376 33.9 28.6579 34.5413 29.4358 34.5413H46.2563C47.0343 34.5413 47.6545 33.9105 47.6545 33.1431C47.6545 32.3757 47.0343 31.7344 46.2563 31.7344Z" fill="#618E81"/>
<path d="M46.2563 40.1406H29.4358C28.6579 40.1406 28.0376 40.7714 28.0376 41.5388C28.0376 42.3063 28.6579 42.9475 29.4358 42.9475H46.2563C47.0343 42.9475 47.6545 42.3168 47.6545 41.5493C47.6545 40.7819 47.0343 40.1406 46.2563 40.1406Z" fill="#618E81"/>
<path d="M46.2563 48.5547H29.4358C28.6579 48.5547 28.0376 49.1855 28.0376 49.9529C28.0376 50.7203 28.6579 51.3616 29.4358 51.3616H46.2563C47.0343 51.3616 47.6545 50.7308 47.6545 49.9634C47.6545 49.196 47.0343 48.5547 46.2563 48.5547Z" fill="#618E81"/>
<path d="M46.2563 56.9609H7.01197C6.23403 56.9609 5.61377 57.5917 5.61377 58.3591C5.61377 59.1266 6.23403 59.7679 7.01197 59.7679H46.2563C47.0343 59.7679 47.6545 59.1371 47.6545 58.3697C47.6545 57.6022 47.0343 56.9609 46.2563 56.9609Z" fill="#618E81"/>
<path d="M46.2563 65.375H7.01197C6.23403 65.375 5.61377 66.0058 5.61377 66.7732C5.61377 67.5406 6.23403 68.1819 7.01197 68.1819H46.2563C47.0343 68.1819 47.6545 67.5512 47.6545 66.7837C47.6545 66.0163 47.0343 65.375 46.2563 65.375Z" fill="#618E81"/>
<path d="M46.2563 73.7812H7.01197C6.23403 73.7812 5.61377 74.412 5.61377 75.1795C5.61377 75.9469 6.23403 76.5882 7.01197 76.5882H46.2563C47.0343 76.5882 47.6545 75.9574 47.6545 75.19C47.6545 74.4225 47.0343 73.7812 46.2563 73.7812Z" fill="#618E81"/>
<mask id="path-9-outside-1_1348_7567" maskUnits="userSpaceOnUse" x="43.9231" y="1" width="30" height="32" fill="black">
<rect fill="white" x="43.9231" y="1" width="30" height="32"/>
<path d="M59.6411 8.41812C59.6403 8.42512 59.6388 8.43203 59.6366 8.43873L52.6205 29.8237C52.6063 29.8668 52.566 29.896 52.5206 29.896H47.0743C47.001 29.896 46.9502 29.823 46.9758 29.7543L56.5197 4.06851C56.535 4.02733 56.5743 4 56.6183 4H60.0376C60.1005 4 60.1493 4.05483 60.142 4.11729L59.6411 8.41812ZM65.5675 29.896C65.5221 29.896 65.4818 29.8669 65.4676 29.8238L58.4336 8.43816C58.4315 8.43184 58.43 8.42532 58.4292 8.41872L57.8766 4.11853C57.8685 4.05567 57.9174 4 57.9808 4H61.4345C61.4783 4 61.5176 4.02724 61.5329 4.06833L71.1298 29.7541C71.1555 29.8228 71.1047 29.896 71.0313 29.896H65.5675ZM65.0661 20.2562C65.1242 20.2562 65.1713 20.3032 65.1713 20.3613V24.3307C65.1713 24.3887 65.1242 24.4358 65.0661 24.4358H51.5992C51.5411 24.4358 51.494 24.3887 51.494 24.3307V20.3613C51.494 20.3032 51.5411 20.2562 51.5992 20.2562H65.0661Z"/>
</mask>
<path d="M59.6411 8.41812C59.6403 8.42512 59.6388 8.43203 59.6366 8.43873L52.6205 29.8237C52.6063 29.8668 52.566 29.896 52.5206 29.896H47.0743C47.001 29.896 46.9502 29.823 46.9758 29.7543L56.5197 4.06851C56.535 4.02733 56.5743 4 56.6183 4H60.0376C60.1005 4 60.1493 4.05483 60.142 4.11729L59.6411 8.41812ZM65.5675 29.896C65.5221 29.896 65.4818 29.8669 65.4676 29.8238L58.4336 8.43816C58.4315 8.43184 58.43 8.42532 58.4292 8.41872L57.8766 4.11853C57.8685 4.05567 57.9174 4 57.9808 4H61.4345C61.4783 4 61.5176 4.02724 61.5329 4.06833L71.1298 29.7541C71.1555 29.8228 71.1047 29.896 71.0313 29.896H65.5675ZM65.0661 20.2562C65.1242 20.2562 65.1713 20.3032 65.1713 20.3613V24.3307C65.1713 24.3887 65.1242 24.4358 65.0661 24.4358H51.5992C51.5411 24.4358 51.494 24.3887 51.494 24.3307V20.3613C51.494 20.3032 51.5411 20.2562 51.5992 20.2562H65.0661Z" fill="white"/>
<path d="M71.1298 29.7541L68.6943 30.6641L71.1298 29.7541ZM61.5329 4.06833L63.9685 3.15835L61.5329 4.06833ZM57.8766 4.11853L60.4553 3.78712L57.8766 4.11853ZM58.4336 8.43816L60.9034 7.6258L58.4336 8.43816ZM58.4292 8.41872L61.008 8.08731L58.4292 8.41872ZM65.4676 29.8238L62.9978 30.6361L65.4676 29.8238ZM60.142 4.11729L57.5595 3.81651L60.142 4.11729ZM56.5197 4.06851L54.0825 3.16293L56.5197 4.06851ZM46.9758 29.7543L44.5386 28.8487L46.9758 29.7543ZM52.6205 29.8237L55.0909 30.6342L52.6205 29.8237ZM59.6366 8.43873L57.1662 7.62821L59.6366 8.43873ZM59.6411 8.41812L62.2237 8.71889L59.6411 8.41812ZM57.1662 7.62821L50.15 29.0132L55.0909 30.6342L62.107 9.24924L57.1662 7.62821ZM52.5206 27.296H47.0743V32.496H52.5206V27.296ZM49.413 30.6599L58.9569 4.97409L54.0825 3.16293L44.5386 28.8487L49.413 30.6599ZM56.6183 6.6H60.0376V1.4H56.6183V6.6ZM57.5595 3.81651L57.0586 8.11734L62.2237 8.71889L62.7246 4.41807L57.5595 3.81651ZM67.9375 29.0114L60.9034 7.6258L55.9638 9.25053L62.9978 30.6361L67.9375 29.0114ZM61.008 8.08731L60.4553 3.78712L55.2978 4.44994L55.8504 8.75013L61.008 8.08731ZM57.9808 6.6H61.4345V1.4H57.9808V6.6ZM59.0974 4.97832L68.6943 30.6641L73.5654 28.8441L63.9685 3.15835L59.0974 4.97832ZM71.0313 27.296H65.5675V32.496H71.0313V27.296ZM62.5713 20.3613V24.3307H67.7713V20.3613H62.5713ZM65.0661 21.8358H51.5992V27.0358H65.0661V21.8358ZM54.094 24.3307V20.3613H48.894V24.3307H54.094ZM51.5992 22.8562H65.0661V17.6562H51.5992V22.8562ZM54.094 20.3613C54.094 21.7392 52.977 22.8562 51.5992 22.8562V17.6562C50.1052 17.6562 48.894 18.8673 48.894 20.3613H54.094ZM51.5992 21.8358C52.977 21.8358 54.094 22.9528 54.094 24.3307H48.894C48.894 25.8247 50.1052 27.0358 51.5992 27.0358V21.8358ZM62.5713 24.3307C62.5713 22.9528 63.6883 21.8358 65.0661 21.8358V27.0358C66.5601 27.0358 67.7713 25.8247 67.7713 24.3307H62.5713ZM67.7713 20.3613C67.7713 18.8673 66.5601 17.6562 65.0661 17.6562V22.8562C63.6883 22.8562 62.5713 21.7392 62.5713 20.3613H67.7713ZM68.6943 30.6641C68.085 29.0335 69.2907 27.296 71.0313 27.296V32.496C72.9187 32.496 74.2259 30.6121 73.5654 28.8441L68.6943 30.6641ZM61.4345 6.6C60.3934 6.6 59.4618 5.95355 59.0974 4.97832L63.9685 3.15835C63.5734 2.10093 62.5633 1.4 61.4345 1.4V6.6ZM60.4553 3.78712C60.6471 5.27896 59.485 6.6 57.9808 6.6V1.4C56.3499 1.4 55.0899 2.83237 55.2978 4.44994L60.4553 3.78712ZM60.9034 7.6258C60.9528 7.77598 60.9878 7.93051 61.008 8.08731L55.8504 8.75013C55.8723 8.92014 55.9102 9.08769 55.9638 9.25053L60.9034 7.6258ZM62.9978 30.6361C63.3628 31.746 64.3992 32.496 65.5675 32.496V27.296C66.645 27.296 67.6008 27.9878 67.9375 29.0114L62.9978 30.6361ZM60.0376 6.6C58.5453 6.6 57.3869 5.29874 57.5595 3.81651L62.7246 4.41807C62.9117 2.81093 61.6556 1.4 60.0376 1.4V6.6ZM58.9569 4.97409C58.5937 5.95152 57.661 6.6 56.6183 6.6V1.4C55.4877 1.4 54.4763 2.10313 54.0825 3.16293L58.9569 4.97409ZM47.0743 27.296C48.813 27.296 50.0186 29.03 49.413 30.6599L44.5386 28.8487C43.8819 30.6159 45.189 32.496 47.0743 32.496V27.296ZM50.15 29.0132C50.4862 27.9887 51.4424 27.296 52.5206 27.296V32.496C53.6897 32.496 54.7265 31.745 55.0909 30.6342L50.15 29.0132ZM62.107 9.24924C62.1636 9.07682 62.2027 8.89914 62.2237 8.71889L57.0586 8.11734C57.0779 7.9511 57.114 7.78724 57.1662 7.62821L62.107 9.24924Z" fill="#618E81" mask="url(#path-9-outside-1_1348_7567)"/>
<mask id="path-11-outside-2_1348_7567" maskUnits="userSpaceOnUse" x="67" y="0" width="18" height="18" fill="black">
<rect fill="white" x="67" width="18" height="18"/>
<path d="M78.0571 7C78.0256 7 78 6.97442 78 6.94286V3.05714C78 3.02558 77.9744 3 77.9429 3H74.0571C74.0256 3 74 3.02558 74 3.05714V6.94286C74 6.97442 73.9744 7 73.9429 7H70.0571C70.0256 7 70 7.02558 70 7.05714V10.9429C70 10.9744 70.0256 11 70.0571 11H73.9429C73.9744 11 74 11.0256 74 11.0571V14.9429C74 14.9744 74.0256 15 74.0571 15H77.9429C77.9744 15 78 14.9744 78 14.9429V11.0571C78 11.0256 78.0256 11 78.0571 11H81.9429C81.9744 11 82 10.9744 82 10.9429V7.05714C82 7.02558 81.9744 7 81.9429 7H78.0571Z"/>
</mask>
<path d="M75.6 3.05714V6.94286H80.4V3.05714H75.6ZM74.0571 5.4H77.9429V0.6H74.0571V5.4ZM76.4 6.94286V3.05714H71.6V6.94286H76.4ZM70.0571 9.4H73.9429V4.6H70.0571V9.4ZM72.4 10.9429V7.05714H67.6V10.9429H72.4ZM73.9429 8.6H70.0571V13.4H73.9429V8.6ZM76.4 14.9429V11.0571H71.6V14.9429H76.4ZM77.9429 12.6H74.0571V17.4H77.9429V12.6ZM75.6 11.0571V14.9429H80.4V11.0571H75.6ZM81.9429 8.6H78.0571V13.4H81.9429V8.6ZM79.6 7.05714V10.9429H84.4V7.05714H79.6ZM78.0571 9.4H81.9429V4.6H78.0571V9.4ZM84.4 7.05714C84.4 5.70011 83.2999 4.6 81.9429 4.6V9.4C80.6489 9.4 79.6 8.35106 79.6 7.05714H84.4ZM81.9429 13.4C83.2999 13.4 84.4 12.2999 84.4 10.9429H79.6C79.6 9.64893 80.6489 8.6 81.9429 8.6V13.4ZM80.4 11.0571C80.4 12.3511 79.3511 13.4 78.0571 13.4V8.6C76.7001 8.6 75.6 9.70011 75.6 11.0571H80.4ZM77.9429 17.4C79.2999 17.4 80.4 16.2999 80.4 14.9429H75.6C75.6 13.6489 76.6489 12.6 77.9429 12.6V17.4ZM71.6 14.9429C71.6 16.2999 72.7001 17.4 74.0571 17.4V12.6C75.3511 12.6 76.4 13.6489 76.4 14.9429H71.6ZM73.9429 13.4C72.6489 13.4 71.6 12.3511 71.6 11.0571H76.4C76.4 9.70009 75.2999 8.6 73.9429 8.6V13.4ZM67.6 10.9429C67.6 12.2999 68.7001 13.4 70.0571 13.4V8.6C71.3511 8.6 72.4 9.64894 72.4 10.9429H67.6ZM70.0571 4.6C68.7001 4.6 67.6 5.70009 67.6 7.05714H72.4C72.4 8.35107 71.3511 9.4 70.0571 9.4V4.6ZM71.6 6.94286C71.6 5.64894 72.6489 4.6 73.9429 4.6V9.4C75.2999 9.4 76.4 8.29989 76.4 6.94286H71.6ZM74.0571 0.6C72.7001 0.6 71.6 1.70009 71.6 3.05714H76.4C76.4 4.35107 75.3511 5.4 74.0571 5.4V0.6ZM75.6 6.94286C75.6 8.29991 76.7001 9.4 78.0571 9.4V4.6C79.3511 4.6 80.4 5.64893 80.4 6.94286H75.6ZM80.4 3.05714C80.4 1.70011 79.2999 0.6 77.9429 0.6V5.4C76.6489 5.4 75.6 4.35106 75.6 3.05714H80.4Z" fill="#618E81" mask="url(#path-11-outside-2_1348_7567)"/>
</svg>
