<svg width="88" height="67" viewBox="0 0 88 67" fill="none" xmlns="http://www.w3.org/2000/svg">
<rect x="53" y="14" width="25" height="51" rx="5" fill="#EEEEEE"/>
<rect x="51" y="23" width="30" height="39" rx="2" fill="#618E81"/>
<path d="M28 61H20.5L16 60.5L11.5 56.5L10.5 47V29L9.5 28.5L7 28L11 23V18L13.5 11.5L17.5 9.5L22.5 9L29 10.5L33.5 16V23.5L35 24.5L38 27L37 29H34L33.5 56.5L31 59.5L28 61Z" fill="#C4C4C4"/>
<path fill-rule="evenodd" clip-rule="evenodd" d="M28.4299 10L28.1327 13.0268L32.3107 16.7408L32.8307 14.8096L31.1967 11.2628L28.4299 10ZM12.5 16.0003L15.5 15.5003L18 10.5003H16L13 13.0003L12.5 16.0003Z" fill="#DEBD7C"/>
<path fill-rule="evenodd" clip-rule="evenodd" d="M28.4299 10L28.1327 13.0268L32.3107 16.7408L32.8307 14.8096L31.1967 11.2628L28.4299 10ZM12.5 16.0003L15.5 15.5003L18 10.5003H16L13 13.0003L12.5 16.0003Z" fill="#DEBD7C"/>
<path fill-rule="evenodd" clip-rule="evenodd" d="M28.4299 10L28.1327 13.0268L32.3107 16.7408L32.8307 14.8096L31.1967 11.2628L28.4299 10ZM12.5 16.0003L15.5 15.5003L18 10.5003H16L13 13.0003L12.5 16.0003Z" fill="#DEBD7C"/>
<path fill-rule="evenodd" clip-rule="evenodd" d="M28.4299 10L28.1327 13.0268L32.3107 16.7408L32.8307 14.8096L31.1967 11.2628L28.4299 10ZM12.5 16.0003L15.5 15.5003L18 10.5003H16L13 13.0003L12.5 16.0003Z" fill="#DEBD7C"/>
<path d="M14.5 27.5L14 23.5L15 22.5L23.5 20.5L30 22.5V28.5L27.5 29H17L14.5 27.5Z" fill="#C0D6E3"/>
<path d="M16.5 39.5V34H28V39.5H16.5Z" fill="#C0D6E3"/>
<path d="M14 54L14.5 48L17 49H23.5L30 48V55L25.5 56L16.5 55L14 54Z" fill="#C0D6E3"/>
<rect x="1" y="1" width="86" height="5" fill="#C4C4C4"/>
<path d="M10.3529 61.2508L10.3528 61.2508L10.3546 61.254C11.4936 63.268 13.7107 64.5526 16.1554 64.6079L16.1554 64.6079H16.1599H16.1734C16.6389 64.6079 17.0279 64.2453 17.0319 63.7702C17.063 63.292 16.6747 62.8921 16.2025 62.8909C14.347 62.8513 12.6956 61.8915 11.8595 60.4135C11.6285 59.9894 11.1021 59.8554 10.6888 60.0792C10.2634 60.3097 10.1287 60.837 10.3529 61.2508Z" fill="#303838" stroke="#303838" stroke-width="0.4"/>
<path d="M28.6744 62.8804L28.6744 62.8804L28.6708 62.8806C28.2045 62.9152 27.8324 63.3141 27.8679 63.7937L27.868 63.7943C27.9026 64.2446 28.2687 64.5971 28.7259 64.5971H28.726H28.7261H28.7262H28.7262H28.7263H28.7264H28.7265H28.7266H28.7266H28.7267H28.7268H28.7269H28.7269H28.727H28.7271H28.7272H28.7273H28.7273H28.7274H28.7275H28.7276H28.7277H28.7277H28.7278H28.7279H28.728H28.7281H28.7281H28.7282H28.7283H28.7284H28.7284H28.7285H28.7286H28.7287H28.7288H28.7288H28.7289H28.729H28.7291H28.7292H28.7292H28.7293H28.7294H28.7295H28.7295H28.7296H28.7297H28.7298H28.7299H28.7299H28.73H28.7301H28.7302H28.7303H28.7303H28.7304H28.7305H28.7306H28.7307H28.7307H28.7308H28.7309H28.731H28.731H28.7311H28.7312H28.7313H28.7314H28.7314H28.7315H28.7316H28.7317H28.7318H28.7318H28.7319H28.732H28.7321H28.7321H28.7322H28.7323H28.7324H28.7325H28.7325H28.7326H28.7327H28.7328H28.7329H28.7329H28.733H28.7331H28.7332H28.7332H28.7333H28.7334H28.7335H28.7336H28.7336H28.7337H28.7338H28.7339H28.734H28.734H28.7341H28.7342H28.7343H28.7344H28.7344H28.7345H28.7346H28.7347H28.7347H28.7348H28.7349H28.735H28.7351H28.7351H28.7352H28.7353H28.7354H28.7355H28.7355H28.7356H28.7357H28.7358H28.7358H28.7359H28.736H28.7361H28.7362H28.7362H28.7363H28.7364H28.7365H28.7366H28.7366H28.7367H28.7368H28.7369H28.7369H28.737H28.7371H28.7372H28.7373H28.7373H28.7374H28.7375H28.7376H28.7377H28.7377H28.7378H28.7379H28.738H28.7381H28.7381H28.7382H28.7383H28.7384H28.7384H28.7385H28.7386H28.7387H28.7388H28.7388H28.7389H28.739H28.7391H28.7392H28.7392H28.7393H28.7394H28.7395H28.7395H28.7396H28.7397H28.7398H28.7399H28.7399H28.74H28.7401H28.7402H28.7403H28.7403H28.7404H28.7405H28.7406H28.7407H28.7407H28.7408H28.7409H28.741H28.741H28.7411H28.7412H28.7413H28.7414H28.7414H28.7415H28.7416H28.7417H28.7418H28.7418H28.7419H28.742H28.7421H28.7421H28.7422H28.7423H28.7424H28.7425H28.7425H28.7426H28.7427H28.7428H28.7429H28.7429H28.743H28.7431H28.7432H28.7432H28.7433H28.7434H28.7435H28.7436H28.7436H28.7437H28.7438H28.7439H28.744H28.744H28.7441H28.7442H28.7443H28.7444H28.7444H28.7445H28.7446H28.7447H28.7447H28.7448H28.7449H28.745H28.7451H28.7451H28.7452H28.7453H28.7454H28.7455H28.7455H28.7456H28.7457H28.7458H28.7458H28.7459H28.746H28.7461H28.7462H28.7462H28.7463H28.7464H28.7465H28.7466H28.7466H28.7467H28.7468H28.7469H28.747H28.747H28.7471H28.7472H28.7473H28.7473H28.7474H28.7475H28.7476H28.7477H28.7477H28.7478H28.7479H28.748H28.7481H28.7481H28.7482H28.7483H28.7484H28.7484H28.7485H28.7486H28.7487H28.7488H28.7488H28.7489H28.749H28.7491H28.7492H28.7492H28.7493H28.7494H28.7495H28.7495H28.7496H28.7497H28.7498H28.7499H28.7499H28.75H28.7501H28.7502H28.7503H28.7503H28.7504H28.7505H28.7506H28.7507H28.7507H28.7508H28.7509H28.751H28.751H28.7511H28.7512H28.7513H28.7514H28.7514H28.7515H28.7516H28.7517H28.7518H28.7518H28.7519H28.752H28.7521H28.7521H28.7522H28.7523H28.7524H28.7525H28.7525H28.7526H28.7527H28.7528H28.7529H28.7529H28.753H28.7531H28.7532H28.7533H28.7533H28.7534H28.7535H28.7536H28.7536H28.7537H28.7538H28.7539H28.754H28.754H28.7541H28.7542H28.7543H28.7544H28.7544H28.7545H28.7546H28.7547H28.7547H28.7548H28.7549H28.755H28.7551H28.7551H28.7552H28.7553H28.7554H28.7555H28.7555H28.7556H28.7557H28.7558H28.7558H28.7559H28.756H28.7561H28.7562H28.7562H28.7563H28.7564H28.7565H28.7566H28.7566H28.7567H28.7568H28.7569H28.757H28.757H28.7571H28.7572H28.7573H28.7573H28.7574H28.7575H28.7576H28.7577H28.7577H28.7578H28.7579H28.758H28.7581H28.7581H28.7582H28.7583H28.7584H28.7584H28.7585H28.7586H28.7587H28.7588H28.7588H28.7589H28.759H28.7591H28.7592H28.7592H28.7593H28.7594H28.7595H28.7596H28.7596H28.7597H28.7598H28.7599H28.7599H28.76H28.7601H28.7602H28.7603H28.7603H28.7604H28.7605H28.7606H28.7607H28.7607H28.7608H28.7609H28.761H28.761H28.7611H28.7612H28.7613H28.7614H28.7614H28.7615H28.7616H28.7617H28.7618H28.7618H28.7619H28.762H28.7621H28.7621H28.7622H28.7623H28.7624H28.7625H28.7625H28.7626H28.7627H28.7628H28.7629H28.7629H28.763H28.7631H28.7632H28.7633H28.7633H28.7634H28.7635H28.7636H28.7636H28.7637H28.7638H28.7639H28.764H28.764H28.7641H28.7642H28.7643H28.7644H28.7644H28.7645H28.7646H28.7647H28.7647H28.7648H28.7649H28.765H28.7651H28.7651H28.7652H28.7653H28.7654H28.7655H28.7655H28.7656H28.7657H28.7658H28.7659H28.7659H28.766H28.7661H28.7662H28.7662V64.5975L28.7786 64.5968C31.2348 64.445 33.4119 63.0783 34.4415 60.9932C34.6548 60.5814 34.4746 60.0593 34.0568 59.8504C33.6355 59.6397 33.1121 59.8142 32.9015 60.2355C32.1435 61.7514 30.518 62.7765 28.6744 62.8804Z" fill="#303838" stroke="#303838" stroke-width="0.4"/>
<path d="M15.5236 21.1038L15.5236 21.1038L15.5228 21.104C13.795 21.6378 12.6767 23.1848 12.952 24.809C13.1824 26.2047 13.5089 27.3782 13.9615 28.3795L13.9621 28.3808C14.3896 29.3094 15.3957 29.8814 16.4957 29.8814C16.6544 29.8814 16.811 29.867 16.9457 29.8535L16.9457 29.8538L16.9549 29.8524C20.4033 29.3445 23.9322 29.3311 27.448 29.8257L27.4487 29.8258C28.8007 30.0108 30.0997 29.3302 30.5136 28.1624L30.5136 28.1623C30.826 27.2795 31.1101 26.2639 31.3934 25.0499C31.7978 23.3165 30.6666 21.6236 28.8059 21.1158C24.2569 19.8433 19.6755 19.8419 15.5236 21.1038ZM29.7139 24.6489L29.7136 24.65C29.4458 25.8018 29.179 26.7612 28.887 27.5707L28.8866 27.572C28.8287 27.736 28.6783 27.8896 28.4563 27.9933C28.2363 28.096 27.9638 28.1405 27.6941 28.0994L27.6917 28.0991C24.0184 27.5859 20.3307 27.5857 16.7097 28.126C16.1535 28.1996 15.6748 27.9685 15.5366 27.6525L15.5366 27.6525L15.536 27.6512C15.1549 26.7971 14.8634 25.7799 14.6639 24.5163L14.6638 24.5161C14.55 23.7986 15.0844 23.0394 16.0445 22.7359C17.9455 22.1511 19.9412 21.8714 22.0059 21.8714C24.0836 21.8714 26.2288 22.1644 28.348 22.7641C29.3411 23.0536 29.8966 23.8838 29.7139 24.6489Z" fill="#303838" stroke="#303838" stroke-width="0.4"/>
<path d="M31.4662 52.3121C31.4661 52.1364 31.4523 51.3052 31.3628 50.356C31.274 49.4144 31.1079 48.3207 30.7892 47.6466C30.6279 47.2905 30.2399 47.1017 29.8596 47.1709L29.8592 47.1709L29.2015 47.2917L29.2007 47.2919L29.1553 47.3C24.9967 48.0465 21.7053 48.6373 14.8726 47.1723C14.4854 47.085 14.0839 47.2788 13.9098 47.6445L13.9096 47.6449C13.5904 48.3189 13.4241 49.4136 13.3352 50.3525C13.2462 51.2933 13.232 52.114 13.2318 52.2826C13.2112 52.828 13.3204 53.6412 13.7046 54.3797C14.0931 55.1262 14.7662 55.8008 15.8638 56.0303C18.1888 56.517 20.5947 56.7603 22.8261 56.7603C25.0829 56.7603 27.1864 56.5173 28.8902 56.013C29.9322 55.706 30.5826 55.0257 30.9673 54.3023C31.3493 53.5842 31.473 52.8185 31.4662 52.3121ZM31.4662 52.3121C31.4662 52.3125 31.4662 52.313 31.4662 52.3134H31.2662L31.4662 52.3106C31.4662 52.3111 31.4662 52.3116 31.4662 52.3121ZM29.7357 52.3537V52.4761C29.7335 52.5137 29.7298 52.5597 29.7236 52.6125C29.7048 52.7729 29.664 52.9909 29.5799 53.2207C29.4119 53.6794 29.0794 54.1681 28.414 54.366C25.9912 55.0809 21.5096 55.4451 16.2277 54.3486C15.5821 54.2135 15.2674 53.7582 15.1095 53.2969C14.9578 52.8537 14.9616 52.4307 14.9623 52.3499C14.9623 52.347 14.9623 52.3446 14.9623 52.3426C14.9751 51.6816 15.0478 50.0761 15.2757 49.0265C21.9045 50.3457 25.4232 49.7314 29.4227 49.0033C29.6631 50.0415 29.7357 51.6691 29.7357 52.3537Z" fill="#303838" stroke="#303838" stroke-width="0.4"/>
<path d="M26.5234 40.7124V40.7258H26.7234C27.9386 40.7258 28.9528 39.7866 28.9528 38.604V35.0156C28.9528 33.833 27.9386 32.8937 26.7234 32.8937H17.8398C16.6246 32.8937 15.6104 33.833 15.6104 35.0156V38.5905C15.6104 39.7732 16.6246 40.7124 17.8398 40.7124H26.5234ZM17.8398 38.9819V38.9818L17.8327 38.982C17.5396 38.9925 17.3409 38.7854 17.3409 38.604V35.0156C17.3409 34.8343 17.5404 34.6243 17.8398 34.6243H26.7234C27.0336 34.6243 27.2222 34.8321 27.2222 35.0156V38.5905C27.2222 38.7718 27.0228 38.9819 26.7234 38.9819H17.8398Z" fill="#303838" stroke="#303838" stroke-width="0.4"/>
<path d="M8.44555 29.4351H10.4362V54.0043C10.4362 58.1336 14.0479 61.4616 18.4581 61.4616H26.1993C30.6094 61.4616 34.2211 58.1336 34.2211 54.0043V29.4485H36.2118C37.0571 29.4485 37.7873 28.9716 38.1284 28.2005C38.4722 27.4232 38.3167 26.561 37.7049 25.8763L37.6956 25.866L37.6851 25.857L34.2211 22.9199V18.1608C34.2211 12.8889 29.5878 8.62031 23.9414 8.62031H20.7159C15.056 8.62031 10.4362 12.8891 10.4362 18.1608V22.9201L6.91829 25.9109L6.90831 25.9194L6.89953 25.9291C6.33704 26.5508 6.18715 27.4143 6.52894 28.187C6.87002 28.9582 7.60021 29.4351 8.44555 29.4351ZM32.4906 54.0177V54.2177H32.5002C32.3839 57.2663 29.6199 59.758 26.1993 59.758H18.4581C14.9626 59.758 12.1533 57.1697 12.1533 54.0177V18.1608C12.1533 17.69 12.1956 17.2324 12.2886 16.797C15.4891 16.6545 18.3319 13.8161 18.4527 10.6384C21.879 9.97636 25.214 10.4089 26.1909 10.6307C26.3073 13.8101 29.1498 16.652 32.3513 16.7968C32.4382 17.2457 32.4906 17.6936 32.4906 18.1608V54.0177ZM28.0516 11.3185C29.6748 12.1328 30.9774 13.4144 31.7434 14.9667C29.9853 14.5706 28.4534 13.0604 28.0516 11.3185ZM12.9247 14.9673C13.6806 13.4142 14.9842 12.1317 16.6195 11.3171C16.2179 13.0605 14.6843 14.5721 12.9247 14.9673ZM8.44555 27.718C8.2194 27.718 8.13516 27.5623 8.1003 27.4926C8.09007 27.4721 8.06529 27.4074 8.06053 27.3324C8.05623 27.2648 8.06878 27.2057 8.10467 27.1586L10.4362 25.1903V27.718H8.44555ZM36.5509 27.5046C36.5126 27.5787 36.4257 27.718 36.2118 27.718H34.2211V25.1772L36.488 27.0935C36.6284 27.2576 36.5796 27.4188 36.5509 27.5046Z" fill="#303838" stroke="#303838" stroke-width="0.4"/>
<path d="M50.2445 60.0638C50.2445 61.3077 51.2147 62.3377 52.4351 62.4337V63.2893C52.4351 64.7834 53.6529 66.016 55.1618 66.016H76.4635C77.9576 66.016 79.1902 64.7982 79.1902 63.2893V62.4337C80.4106 62.3377 81.3808 61.3077 81.3808 60.0638L81.3808 24.086L81.3808 24.0838C81.3662 22.7652 80.2964 21.7088 78.9902 21.7088H78.7332V16.3448C78.7332 14.6485 77.3535 13.2687 75.6571 13.2687H55.9547C54.2584 13.2687 52.8786 14.6485 52.8786 16.3448V21.7088H52.6217C51.3151 21.7088 50.2445 22.7795 50.2445 24.086V60.0638ZM79.6637 59.8638H79.6369V60.0638C79.6369 60.4197 79.3408 60.7105 78.9767 60.7105H52.6217C52.2576 60.7105 51.9615 60.4197 51.9615 60.0638V24.086C51.9615 23.7261 52.2617 23.4259 52.6217 23.4259H70.6039C71.0772 23.4259 71.4624 23.0407 71.4624 22.5674C71.4624 22.094 71.0772 21.7088 70.6039 21.7088H54.6091V16.3448C54.6091 15.5951 55.2185 14.9858 55.9681 14.9858H75.6571C76.4068 14.9858 77.0161 15.5951 77.0161 16.3448V21.7088H75.0389C74.5656 21.7088 74.1804 22.094 74.1804 22.5674C74.1804 23.0407 74.5656 23.4259 75.0389 23.4259H79.0036C79.3635 23.4259 79.6637 23.7261 79.6637 24.086V59.8638ZM77.4462 63.2893C77.4462 63.8374 76.9982 64.2855 76.4501 64.2855H55.1483C54.6002 64.2855 54.1522 63.8374 54.1522 63.2893V62.4411H77.4462V63.2893Z" fill="#303838" stroke="#303838" stroke-width="0.4"/>
<path d="M60.8598 11.7515C61.3331 11.7515 61.7183 11.3662 61.7183 10.8929C61.7183 10.4196 61.3331 10.0344 60.8598 10.0344H56.3037C55.8304 10.0344 55.4452 10.4196 55.4452 10.8929C55.4452 11.3662 55.8304 11.7515 56.3037 11.7515H60.8598Z" fill="#303838" stroke="#303838" stroke-width="0.4"/>
<path d="M75.2939 11.7515C75.7672 11.7515 76.1524 11.3662 76.1524 10.8929C76.1524 10.4196 75.7672 10.0344 75.2939 10.0344H71.3964C70.9231 10.0344 70.5379 10.4196 70.5379 10.8929C70.5379 11.3662 70.9231 11.7515 71.3964 11.7515H75.2939Z" fill="#303838" stroke="#303838" stroke-width="0.4"/>
<path d="M86.3549 5.69062H1.65854C1.18521 5.69062 0.8 6.07584 0.8 6.54917C0.8 7.02249 1.18521 7.40771 1.65854 7.40771H43.1347V63.0089C43.1347 63.4823 43.52 63.8675 43.9933 63.8675C44.4666 63.8675 44.8518 63.4823 44.8518 63.0089V7.42115H86.328C86.7989 7.42115 87.1826 7.03985 87.1865 6.56984C87.2179 6.07555 86.8259 5.69062 86.3549 5.69062Z" fill="#303838" stroke="#303838" stroke-width="0.4"/>
<path d="M1.65854 2.51752H86.3415C86.8148 2.51752 87.2 2.13231 87.2 1.65898C87.2 1.18566 86.8148 0.800441 86.3415 0.800441H1.662C1.18067 0.784827 0.8 1.1778 0.8 1.65898C0.8 2.13231 1.18521 2.51752 1.65854 2.51752Z" fill="#303838" stroke="#303838" stroke-width="0.4"/>
</svg>
