<svg width="97" height="67" viewBox="0 0 97 67" fill="none" xmlns="http://www.w3.org/2000/svg">
<mask id="path-1-outside-1_1348_7510" maskUnits="userSpaceOnUse" x="0" y="0" width="13" height="13" fill="black">
<rect fill="white" width="13" height="13"/>
<path d="M2.125 12.25C1.82663 12.25 1.54048 12.1315 1.3295 11.9205C1.11853 11.7095 1 11.4234 1 11.125V2.125C1 1.82663 1.11853 1.54048 1.3295 1.3295C1.54048 1.11853 1.82663 1 2.125 1H10.855C11.1534 1 11.4395 1.11853 11.6505 1.3295C11.8615 1.54048 11.98 1.82663 11.98 2.125C11.98 2.42337 11.8615 2.70952 11.6505 2.9205C11.4395 3.13147 11.1534 3.25 10.855 3.25H3.21625V11.125C3.21625 11.4234 3.09772 11.7095 2.88674 11.9205C2.67577 12.1315 2.38962 12.25 2.09125 12.25"/>
</mask>
<path d="M2.125 12.25C1.82663 12.25 1.54048 12.1315 1.3295 11.9205C1.11853 11.7095 1 11.4234 1 11.125V2.125C1 1.82663 1.11853 1.54048 1.3295 1.3295C1.54048 1.11853 1.82663 1 2.125 1H10.855C11.1534 1 11.4395 1.11853 11.6505 1.3295C11.8615 1.54048 11.98 1.82663 11.98 2.125C11.98 2.42337 11.8615 2.70952 11.6505 2.9205C11.4395 3.13147 11.1534 3.25 10.855 3.25H3.21625V11.125C3.21625 11.4234 3.09772 11.7095 2.88674 11.9205C2.67577 12.1315 2.38962 12.25 2.09125 12.25" fill="#618E81"/>
<path d="M1 11.125H0.7H1ZM2.125 1V0.7V1ZM10.855 3.25V3.55V3.25ZM3.21625 3.25V2.95H2.91625V3.25H3.21625ZM3.21625 11.125H3.51625H3.21625ZM2.125 11.95C1.9062 11.95 1.69635 11.8631 1.54164 11.7084L1.11737 12.1326C1.38461 12.3999 1.74707 12.55 2.125 12.55V11.95ZM1.54164 11.7084C1.38692 11.5536 1.3 11.3438 1.3 11.125H0.7C0.7 11.5029 0.850134 11.8654 1.11737 12.1326L1.54164 11.7084ZM1.3 11.125V2.125H0.7V11.125H1.3ZM1.3 2.125C1.3 1.9062 1.38692 1.69635 1.54164 1.54164L1.11737 1.11737C0.850134 1.38461 0.7 1.74707 0.7 2.125H1.3ZM1.54164 1.54164C1.69635 1.38692 1.9062 1.3 2.125 1.3V0.7C1.74707 0.7 1.38461 0.850134 1.11737 1.11737L1.54164 1.54164ZM2.125 1.3H10.855V0.7H2.125V1.3ZM10.855 1.3C11.0738 1.3 11.2836 1.38692 11.4384 1.54164L11.8626 1.11737C11.5954 0.850134 11.2329 0.7 10.855 0.7V1.3ZM11.4384 1.54164C11.5931 1.69635 11.68 1.9062 11.68 2.125H12.28C12.28 1.74707 12.1299 1.38461 11.8626 1.11737L11.4384 1.54164ZM11.68 2.125C11.68 2.3438 11.5931 2.55365 11.4384 2.70836L11.8626 3.13263C12.1299 2.86539 12.28 2.50293 12.28 2.125H11.68ZM11.4384 2.70836C11.2836 2.86308 11.0738 2.95 10.855 2.95V3.55C11.2329 3.55 11.5954 3.39987 11.8626 3.13263L11.4384 2.70836ZM10.855 2.95H3.21625V3.55H10.855V2.95ZM2.91625 3.25V11.125H3.51625V3.25H2.91625ZM2.91625 11.125C2.91625 11.3438 2.82933 11.5536 2.67461 11.7084L3.09888 12.1326C3.36612 11.8654 3.51625 11.5029 3.51625 11.125H2.91625ZM2.67461 11.7084C2.5199 11.8631 2.31005 11.95 2.09125 11.95V12.55C2.46918 12.55 2.83164 12.3999 3.09888 12.1326L2.67461 11.7084Z" fill="#618E81" mask="url(#path-1-outside-1_1348_7510)"/>
<mask id="path-3-outside-2_1348_7510" maskUnits="userSpaceOnUse" x="83.9426" y="2" width="13" height="13" fill="black">
<rect fill="white" x="83.9426" y="2" width="13" height="13"/>
<path d="M94.8156 14C94.5167 14 94.23 13.8841 94.0186 13.6778C93.8073 13.4715 93.6885 13.1917 93.6885 12.9V5.2H86.0697C85.7708 5.2 85.4841 5.08411 85.2727 4.87782C85.0614 4.67153 84.9426 4.39174 84.9426 4.1C84.9426 3.80826 85.0614 3.52847 85.2727 3.32218C85.4841 3.11589 85.7708 3 86.0697 3H94.8156C95.1145 3 95.4012 3.11589 95.6125 3.32218C95.8239 3.52847 95.9426 3.80826 95.9426 4.1V12.9C95.9426 13.1917 95.8239 13.4715 95.6125 13.6778C95.4012 13.8841 95.1145 14 94.8156 14"/>
</mask>
<path d="M94.8156 14C94.5167 14 94.23 13.8841 94.0186 13.6778C93.8073 13.4715 93.6885 13.1917 93.6885 12.9V5.2H86.0697C85.7708 5.2 85.4841 5.08411 85.2727 4.87782C85.0614 4.67153 84.9426 4.39174 84.9426 4.1C84.9426 3.80826 85.0614 3.52847 85.2727 3.32218C85.4841 3.11589 85.7708 3 86.0697 3H94.8156C95.1145 3 95.4012 3.11589 95.6125 3.32218C95.8239 3.52847 95.9426 3.80826 95.9426 4.1V12.9C95.9426 13.1917 95.8239 13.4715 95.6125 13.6778C95.4012 13.8841 95.1145 14 94.8156 14" fill="#618E81"/>
<path d="M93.6885 5.2H93.9885V4.9H93.6885V5.2ZM86.0697 5.2V5.5V5.2ZM86.0697 3V2.7V3ZM94.8156 13.7C94.5939 13.7 94.3827 13.614 94.2282 13.4631L93.8091 13.8925C94.0772 14.1542 94.4394 14.3 94.8156 14.3V13.7ZM94.2282 13.4631C94.0738 13.3125 93.9885 13.1098 93.9885 12.9H93.3885C93.3885 13.2737 93.5407 13.6306 93.8091 13.8925L94.2282 13.4631ZM93.9885 12.9V5.2H93.3885V12.9H93.9885ZM93.6885 4.9H86.0697V5.5H93.6885V4.9ZM86.0697 4.9C85.848 4.9 85.6368 4.81399 85.4823 4.66312L85.0632 5.09251C85.3313 5.35423 85.6935 5.5 86.0697 5.5V4.9ZM85.4823 4.66312C85.3279 4.5125 85.2426 4.30979 85.2426 4.1H84.6426C84.6426 4.47369 84.7948 4.83055 85.0632 5.09251L85.4823 4.66312ZM85.2426 4.1C85.2426 3.89021 85.3279 3.6875 85.4823 3.53688L85.0632 3.10749C84.7948 3.36945 84.6426 3.72631 84.6426 4.1H85.2426ZM85.4823 3.53688C85.6368 3.38601 85.848 3.3 86.0697 3.3V2.7C85.6935 2.7 85.3313 2.84577 85.0632 3.10749L85.4823 3.53688ZM86.0697 3.3H94.8156V2.7H86.0697V3.3ZM94.8156 3.3C95.0372 3.3 95.2484 3.38601 95.403 3.53688L95.8221 3.10749C95.5539 2.84577 95.1917 2.7 94.8156 2.7V3.3ZM95.403 3.53688C95.5573 3.6875 95.6426 3.89021 95.6426 4.1H96.2426C96.2426 3.72631 96.0905 3.36945 95.8221 3.10749L95.403 3.53688ZM95.6426 4.1V12.9H96.2426V4.1H95.6426ZM95.6426 12.9C95.6426 13.1098 95.5573 13.3125 95.403 13.4631L95.8221 13.8925C96.0905 13.6306 96.2426 13.2737 96.2426 12.9H95.6426ZM95.403 13.4631C95.2484 13.614 95.0372 13.7 94.8156 13.7V14.3C95.1917 14.3 95.5539 14.1542 95.8221 13.8925L95.403 13.4631Z" fill="#618E81" mask="url(#path-3-outside-2_1348_7510)"/>
<path d="M2.125 66.15H10.855C11.1932 66.15 11.5175 66.0157 11.7566 65.7766C11.9957 65.5375 12.13 65.2132 12.13 64.875C12.13 64.5368 11.9957 64.2125 11.7566 63.9734C11.5175 63.7343 11.1932 63.6 10.855 63.6H3.4V55.875C3.4 55.5368 3.26567 55.2125 3.02656 54.9734C2.78745 54.7343 2.46315 54.6 2.125 54.6C1.78685 54.6 1.46255 54.7343 1.22344 54.9734C0.98433 55.2125 0.85 55.5368 0.85 55.875V64.875C0.85 65.2132 0.98433 65.5375 1.22344 65.7766C1.46255 66.0157 1.78685 66.15 2.125 66.15Z" fill="#618E81" stroke="#618E81" stroke-width="0.3"/>
<mask id="path-6-outside-3_1348_7510" maskUnits="userSpaceOnUse" x="83.9426" y="54" width="13" height="13" fill="black">
<rect fill="white" x="83.9426" y="54" width="13" height="13"/>
<path d="M94.8156 66H86.0697C85.7708 66 85.4841 65.8869 85.2727 65.6855C85.0614 65.4841 84.9426 65.2109 84.9426 64.9261C84.9426 64.6413 85.0614 64.3681 85.2727 64.1667C85.4841 63.9654 85.7708 63.8522 86.0697 63.8522H93.7223V56.335C93.6807 56.1766 93.6775 56.0113 93.7129 55.8516C93.7484 55.6919 93.8216 55.542 93.927 55.4133C94.0324 55.2846 94.1672 55.1804 94.3212 55.1088C94.4752 55.0372 94.6442 55 94.8156 55C94.9869 55 95.156 55.0372 95.31 55.1088C95.4639 55.1804 95.5987 55.2846 95.7041 55.4133C95.8095 55.542 95.8827 55.6919 95.9182 55.8516C95.9537 56.0113 95.9505 56.1766 95.9088 56.335V64.9261C95.9088 65.2109 95.7901 65.4841 95.5787 65.6855C95.3673 65.8869 95.0807 66 94.7818 66"/>
</mask>
<path d="M94.8156 66H86.0697C85.7708 66 85.4841 65.8869 85.2727 65.6855C85.0614 65.4841 84.9426 65.2109 84.9426 64.9261C84.9426 64.6413 85.0614 64.3681 85.2727 64.1667C85.4841 63.9654 85.7708 63.8522 86.0697 63.8522H93.7223V56.335C93.6807 56.1766 93.6775 56.0113 93.7129 55.8516C93.7484 55.6919 93.8216 55.542 93.927 55.4133C94.0324 55.2846 94.1672 55.1804 94.3212 55.1088C94.4752 55.0372 94.6442 55 94.8156 55C94.9869 55 95.156 55.0372 95.31 55.1088C95.4639 55.1804 95.5987 55.2846 95.7041 55.4133C95.8095 55.542 95.8827 55.6919 95.9182 55.8516C95.9537 56.0113 95.9505 56.1766 95.9088 56.335V64.9261C95.9088 65.2109 95.7901 65.4841 95.5787 65.6855C95.3673 65.8869 95.0807 66 94.7818 66" fill="#618E81"/>
<path d="M93.7223 63.8522V64.1522H94.0223V63.8522H93.7223ZM93.7223 56.335H94.0223V56.2962L94.0125 56.2586L93.7223 56.335ZM95.9088 56.335L95.6187 56.2586L95.6088 56.2962V56.335H95.9088ZM94.8156 65.7H86.0697V66.3H94.8156V65.7ZM86.0697 65.7C85.8458 65.7 85.6338 65.6151 85.4797 65.4683L85.0658 65.9027C85.3344 66.1586 85.6958 66.3 86.0697 66.3V65.7ZM85.4797 65.4683C85.3261 65.3219 85.2426 65.1266 85.2426 64.9261H84.6426C84.6426 65.2953 84.7967 65.6462 85.0658 65.9027L85.4797 65.4683ZM85.2426 64.9261C85.2426 64.7257 85.3261 64.5303 85.4797 64.3839L85.0658 63.9496C84.7967 64.206 84.6426 64.5569 84.6426 64.9261H85.2426ZM85.4797 64.3839C85.6338 64.2371 85.8458 64.1522 86.0697 64.1522V63.5522C85.6958 63.5522 85.3344 63.6936 85.0658 63.9496L85.4797 64.3839ZM86.0697 64.1522H93.7223V63.5522H86.0697V64.1522ZM94.0223 63.8522V56.335H93.4223V63.8522H94.0223ZM94.0125 56.2586C93.983 56.1465 93.9807 56.0296 94.0058 55.9166L93.4201 55.7865C93.3742 55.993 93.3784 56.2067 93.4322 56.4113L94.0125 56.2586ZM94.0058 55.9166C94.0309 55.8036 94.083 55.6963 94.1591 55.6033L93.6949 55.2232C93.5603 55.3876 93.4659 55.5802 93.4201 55.7865L94.0058 55.9166ZM94.1591 55.6033C94.2353 55.5103 94.3338 55.4338 94.4477 55.3808L94.1947 54.8368C94.0007 54.927 93.8295 55.0588 93.6949 55.2232L94.1591 55.6033ZM94.4477 55.3808C94.5617 55.3278 94.6875 55.3 94.8156 55.3V54.7C94.601 54.7 94.3887 54.7466 94.1947 54.8368L94.4477 55.3808ZM94.8156 55.3C94.9436 55.3 95.0695 55.3278 95.1834 55.3808L95.4365 54.8368C95.2425 54.7466 95.0302 54.7 94.8156 54.7V55.3ZM95.1834 55.3808C95.2974 55.4338 95.3958 55.5103 95.472 55.6033L95.9362 55.2232C95.8016 55.0588 95.6305 54.927 95.4365 54.8368L95.1834 55.3808ZM95.472 55.6033C95.5482 55.6963 95.6002 55.8036 95.6253 55.9166L96.2111 55.7865C96.1652 55.5802 96.0709 55.3876 95.9362 55.2232L95.472 55.6033ZM95.6253 55.9166C95.6504 56.0296 95.6482 56.1465 95.6187 56.2586L96.1989 56.4113C96.2527 56.2067 96.2569 55.993 96.2111 55.7865L95.6253 55.9166ZM95.6088 56.335V64.9261H96.2088V56.335H95.6088ZM95.6088 64.9261C95.6088 65.1266 95.5254 65.3219 95.3718 65.4683L95.7857 65.9027C96.0548 65.6462 96.2088 65.2953 96.2088 64.9261H95.6088ZM95.3718 65.4683C95.2177 65.6151 95.0057 65.7 94.7818 65.7V66.3C95.1557 66.3 95.517 66.1586 95.7857 65.9027L95.3718 65.4683Z" fill="#618E81" mask="url(#path-6-outside-3_1348_7510)"/>
<mask id="path-8-outside-4_1348_7510" maskUnits="userSpaceOnUse" x="18.875" y="12.3438" width="11" height="18" fill="black">
<rect fill="white" x="18.875" y="12.3438" width="11" height="18"/>
<path d="M29.1337 15.3154C24.375 19.4329 22.6763 25.9017 22.125 29.8392H19.875C20.4487 25.5979 22.215 18.3417 27.75 13.5829C27.9768 13.4054 28.263 13.3216 28.5498 13.3488C28.8365 13.376 29.1019 13.5121 29.2912 13.7292C29.386 13.8429 29.4573 13.9741 29.5013 14.1154C29.5452 14.2567 29.5608 14.4053 29.5472 14.5527C29.5336 14.7 29.4911 14.8432 29.4221 14.9741C29.3531 15.105 29.2589 15.221 29.145 15.3154"/>
</mask>
<path d="M29.1337 15.3154C24.375 19.4329 22.6763 25.9017 22.125 29.8392H19.875C20.4487 25.5979 22.215 18.3417 27.75 13.5829C27.9768 13.4054 28.263 13.3216 28.5498 13.3488C28.8365 13.376 29.1019 13.5121 29.2912 13.7292C29.386 13.8429 29.4573 13.9741 29.5013 14.1154C29.5452 14.2567 29.5608 14.4053 29.5472 14.5527C29.5336 14.7 29.4911 14.8432 29.4221 14.9741C29.3531 15.105 29.2589 15.221 29.145 15.3154" fill="#618E81"/>
<path d="M22.125 29.8392V30.1392H22.3859L22.4221 29.8808L22.125 29.8392ZM19.875 29.8392L19.5777 29.799L19.5317 30.1392H19.875V29.8392ZM27.75 13.5829L27.5649 13.3465L27.5544 13.3555L27.75 13.5829ZM29.2913 13.7292L29.5218 13.5371L29.5173 13.532L29.2913 13.7292ZM28.9375 15.0886C24.0946 19.2788 22.3821 25.8388 21.8279 29.7976L22.4221 29.8808C22.9704 25.9646 24.6554 19.5871 29.33 15.5423L28.9375 15.0886ZM22.125 29.5392H19.875V30.1392H22.125V29.5392ZM20.1723 29.8794C20.7433 25.6585 22.4964 18.4954 27.9456 13.8104L27.5544 13.3555C21.9336 18.1879 20.1542 25.5374 19.5777 29.799L20.1723 29.8794ZM27.9349 13.8192C28.1012 13.6889 28.3112 13.6275 28.5214 13.6474L28.5781 13.0501C28.2149 13.0157 27.8523 13.1218 27.5651 13.3467L27.9349 13.8192ZM28.5214 13.6474C28.7317 13.6674 28.9263 13.7672 29.0652 13.9264L29.5173 13.532C29.2775 13.257 28.9413 13.0846 28.5781 13.0501L28.5214 13.6474ZM29.0608 13.9212C29.1302 14.0046 29.1826 14.1009 29.2148 14.2045L29.7878 14.0264C29.7321 13.8474 29.6417 13.6811 29.5217 13.5371L29.0608 13.9212ZM29.2148 14.2045C29.247 14.3081 29.2585 14.4171 29.2485 14.5251L29.846 14.5802C29.8632 14.3936 29.8434 14.2054 29.7878 14.0264L29.2148 14.2045ZM29.2485 14.5251C29.2385 14.6332 29.2074 14.7382 29.1567 14.8342L29.6875 15.114C29.7749 14.9483 29.8288 14.7668 29.846 14.5802L29.2485 14.5251ZM29.1567 14.8342C29.1061 14.9302 29.0371 15.0152 28.9535 15.0845L29.3365 15.5464C29.4808 15.4268 29.6 15.2798 29.6875 15.114L29.1567 14.8342Z" fill="#618E81" mask="url(#path-8-outside-4_1348_7510)"/>
<mask id="path-10-outside-5_1348_7510" maskUnits="userSpaceOnUse" x="29.8596" y="3" width="37" height="10" fill="black">
<rect fill="white" x="29.8596" y="3" width="37" height="10"/>
<path d="M32.6662 11.675C32.8125 11.5625 46.9987 -0.508738 63.9525 11.7425C64.1343 11.8695 64.3495 11.94 64.5712 11.945C64.7478 11.9424 64.9213 11.8983 65.0776 11.8162C65.234 11.7341 65.3688 11.6164 65.4712 11.4725C65.5576 11.3516 65.6191 11.2148 65.6522 11.07C65.6854 10.9251 65.6896 10.7752 65.6645 10.6287C65.6394 10.4823 65.5855 10.3423 65.506 10.2168C65.4265 10.0913 65.3229 9.98277 65.2012 9.89751C46.875 -3.34374 31.4175 9.83001 31.26 9.96501C31.1469 10.0602 31.0537 10.1768 30.9857 10.3081C30.9177 10.4394 30.8762 10.5828 30.8637 10.7302C30.8511 10.8775 30.8678 11.0258 30.9126 11.1667C30.9574 11.3076 31.0296 11.4383 31.125 11.5513C31.2151 11.6631 31.327 11.7555 31.454 11.8227C31.5809 11.8899 31.7202 11.9305 31.8634 11.9421C32.0065 11.9536 32.1506 11.9359 32.2867 11.89C32.4228 11.8441 32.5481 11.771 32.655 11.675"/>
</mask>
<path d="M32.6662 11.675C32.8125 11.5625 46.9987 -0.508738 63.9525 11.7425C64.1343 11.8695 64.3495 11.94 64.5712 11.945C64.7478 11.9424 64.9213 11.8983 65.0776 11.8162C65.234 11.7341 65.3688 11.6164 65.4712 11.4725C65.5576 11.3516 65.6191 11.2148 65.6522 11.07C65.6854 10.9251 65.6896 10.7752 65.6645 10.6287C65.6394 10.4823 65.5855 10.3423 65.506 10.2168C65.4265 10.0913 65.3229 9.98277 65.2012 9.89751C46.875 -3.34374 31.4175 9.83001 31.26 9.96501C31.1469 10.0602 31.0537 10.1768 30.9857 10.3081C30.9177 10.4394 30.8762 10.5828 30.8637 10.7302C30.8511 10.8775 30.8678 11.0258 30.9126 11.1667C30.9574 11.3076 31.0296 11.4383 31.125 11.5513C31.2151 11.6631 31.327 11.7555 31.454 11.8227C31.5809 11.8899 31.7202 11.9305 31.8634 11.9421C32.0065 11.9536 32.1506 11.9359 32.2867 11.89C32.4228 11.8441 32.5481 11.771 32.655 11.675" fill="#618E81"/>
<path d="M63.9525 11.7425L63.7768 11.9857L63.7807 11.9884L63.9525 11.7425ZM64.5712 11.945L64.5644 12.2451L64.5756 12.245L64.5712 11.945ZM65.4712 11.4725L65.2271 11.2982L65.2268 11.2985L65.4712 11.4725ZM65.2012 9.89751L65.0255 10.1407L65.0291 10.1432L65.2012 9.89751ZM31.26 9.96501L31.4532 10.1945L31.4552 10.1928L31.26 9.96501ZM31.125 11.5513L31.3587 11.3631L31.3542 11.3577L31.125 11.5513ZM32.8491 11.9128C33.001 11.796 47.012 -0.129022 63.7768 11.9857L64.1282 11.4994C55.5692 5.31442 47.6892 5.26197 41.93 6.78229C39.0552 7.54118 36.7127 8.69049 35.0795 9.65709C34.2626 10.1406 33.6223 10.5789 33.1805 10.9006C32.9596 11.0616 32.7884 11.1934 32.6696 11.2871C32.6102 11.334 32.564 11.3713 32.5313 11.3979C32.5151 11.4111 32.5022 11.4217 32.4931 11.4291C32.4812 11.4389 32.4808 11.4392 32.4833 11.4372L32.8491 11.9128ZM63.7807 11.9884C64.0109 12.1493 64.2836 12.2385 64.5644 12.2449L64.5781 11.6451C64.4155 11.6414 64.2576 11.5897 64.1243 11.4966L63.7807 11.9884ZM64.5756 12.245C64.7993 12.2417 65.019 12.1858 65.2171 12.0818L64.9382 11.5506C64.8235 11.6108 64.6963 11.6431 64.5668 11.645L64.5756 12.245ZM65.2171 12.0818C65.4151 11.9778 65.5859 11.8287 65.7156 11.6465L65.2268 11.2985C65.1517 11.404 65.0529 11.4904 64.9382 11.5506L65.2171 12.0818ZM65.7154 11.6468C65.8247 11.4937 65.9027 11.3204 65.9447 11.1369L65.3598 11.003C65.3355 11.1092 65.2904 11.2095 65.2271 11.2982L65.7154 11.6468ZM65.9447 11.1369C65.9867 10.9535 65.9919 10.7635 65.9601 10.5781L65.3688 10.6794C65.3872 10.7868 65.3841 10.8968 65.3598 11.003L65.9447 11.1369ZM65.9601 10.5781C65.9284 10.3926 65.8601 10.2152 65.7594 10.0563L65.2526 10.3773C65.3109 10.4694 65.3504 10.5721 65.3688 10.6794L65.9601 10.5781ZM65.7594 10.0563C65.6587 9.89728 65.5275 9.75982 65.3734 9.65183L65.0291 10.1432C65.1183 10.2057 65.1943 10.2853 65.2526 10.3773L65.7594 10.0563ZM65.3769 9.65434C56.1309 2.97382 47.5893 2.95018 41.3397 4.6254C35.1032 6.29706 31.1595 9.65602 31.0647 9.73724L31.4552 10.1928C31.518 10.139 35.3817 6.84359 41.495 5.20494C47.595 3.56984 55.9453 3.57996 65.0255 10.1407L65.3769 9.65434ZM31.0668 9.73553C30.9235 9.85617 30.8054 10.0039 30.7193 10.1702L31.2521 10.4461C31.3019 10.3498 31.3703 10.2643 31.4532 10.1945L31.0668 9.73553ZM30.7193 10.1702C30.6331 10.3365 30.5806 10.5181 30.5648 10.7047L31.1626 10.7556C31.1718 10.6476 31.2022 10.5424 31.2521 10.4461L30.7193 10.1702ZM30.5648 10.7047C30.5489 10.8913 30.5699 11.0792 30.6267 11.2577L31.1985 11.0757C31.1656 10.9724 31.1534 10.8636 31.1626 10.7556L30.5648 10.7047ZM30.6267 11.2577C30.6835 11.4362 30.7749 11.6017 30.8957 11.7448L31.3542 11.3577C31.2843 11.2749 31.2314 11.1791 31.1985 11.0757L30.6267 11.2577ZM30.8913 11.7394C31.007 11.883 31.1507 12.0016 31.3136 12.0878L31.5943 11.5575C31.5034 11.5094 31.4232 11.4432 31.3586 11.3631L30.8913 11.7394ZM31.3136 12.0878C31.4766 12.1741 31.6554 12.2262 31.8392 12.2411L31.8876 11.643C31.785 11.6347 31.6852 11.6056 31.5943 11.5575L31.3136 12.0878ZM31.8392 12.2411C32.023 12.256 32.2079 12.2332 32.3826 12.1743L32.1908 11.6058C32.0933 11.6387 31.9901 11.6513 31.8876 11.643L31.8392 12.2411ZM32.3826 12.1743C32.5573 12.1153 32.7181 12.0214 32.8554 11.8983L32.4546 11.4517C32.378 11.5205 32.2883 11.5729 32.1908 11.6058L32.3826 12.1743Z" fill="#618E81" mask="url(#path-10-outside-5_1348_7510)"/>
<mask id="path-12-outside-6_1348_7510" maskUnits="userSpaceOnUse" x="72.043" y="35.5938" width="5" height="6" fill="black">
<rect fill="white" x="72.043" y="35.5938" width="5" height="6"/>
<path d="M73.7511 36.5938H76.0011C75.8042 37.6733 75.5297 38.7373 75.1799 39.7775C75.1045 39.9935 74.965 40.1813 74.7801 40.316C74.5952 40.4506 74.3736 40.5257 74.1449 40.5312C74.0255 40.5483 73.9043 40.5483 73.7849 40.5312C73.5045 40.4297 73.2759 40.221 73.1493 39.951C73.0228 39.6809 73.0086 39.3717 73.1099 39.0913C73.3818 38.2921 73.6035 37.4768 73.7736 36.65"/>
</mask>
<path d="M73.7511 36.5938H76.0011C75.8042 37.6733 75.5297 38.7373 75.1799 39.7775C75.1045 39.9935 74.965 40.1813 74.7801 40.316C74.5952 40.4506 74.3736 40.5257 74.1449 40.5312C74.0255 40.5483 73.9043 40.5483 73.7849 40.5312C73.5045 40.4297 73.2759 40.221 73.1493 39.951C73.0228 39.6809 73.0086 39.3717 73.1099 39.0913C73.3818 38.2921 73.6035 37.4768 73.7736 36.65" fill="#618E81"/>
<path d="M76.0011 36.5938L76.2963 36.6476L76.3608 36.2937H76.0011V36.5938ZM75.1799 39.7775L75.4631 39.8764L75.4642 39.8731L75.1799 39.7775ZM74.1449 40.5312L74.1377 40.2313L74.12 40.2318L74.1024 40.2343L74.1449 40.5312ZM73.7849 40.5312L73.6827 40.8133L73.7118 40.8238L73.7424 40.8282L73.7849 40.5312ZM73.1099 39.0913L73.3921 39.1932L73.3939 39.1879L73.1099 39.0913ZM73.7511 36.8938H76.0011V36.2937H73.7511V36.8938ZM75.706 36.5399C75.5116 37.6053 75.2408 38.6554 74.8955 39.6819L75.4642 39.8731C75.8186 38.8193 76.0967 37.7414 76.2963 36.6476L75.706 36.5399ZM74.8967 39.6786C74.8414 39.837 74.7391 39.9747 74.6035 40.0735L74.9567 40.5585C75.1909 40.3879 75.3676 40.15 75.4631 39.8764L74.8967 39.6786ZM74.6035 40.0735C74.4679 40.1722 74.3054 40.2273 74.1377 40.2313L74.1521 40.8312C74.4418 40.8242 74.7225 40.7291 74.9567 40.5585L74.6035 40.0735ZM74.1024 40.2343C74.0112 40.2473 73.9186 40.2473 73.8274 40.2343L73.7424 40.8282C73.89 40.8493 74.0398 40.8493 74.1874 40.8282L74.1024 40.2343ZM73.887 40.2492C73.6814 40.1747 73.5138 40.0217 73.421 39.8236L72.8777 40.0783C73.038 40.4203 73.3276 40.6847 73.6827 40.8133L73.887 40.2492ZM73.421 39.8236C73.3281 39.6256 73.3177 39.3989 73.392 39.1932L72.8277 38.9893C72.6994 39.3446 72.7174 39.7363 72.8777 40.0783L73.421 39.8236ZM73.3939 39.1879C73.6698 38.3769 73.8948 37.5495 74.0675 36.7105L73.4798 36.5895C73.3122 37.4041 73.0938 38.2073 72.8259 38.9946L73.3939 39.1879Z" fill="#618E81" mask="url(#path-12-outside-6_1348_7510)"/>
<path d="M73.895 29.8635L73.9122 29.9938H74.0437H76.2712H76.4393L76.4202 29.8267C75.7459 23.9413 73.497 18.3466 69.9105 13.6317L69.9109 13.6315L69.9034 13.623C69.6871 13.379 69.3854 13.2271 69.0605 13.1986C68.7365 13.1702 68.4139 13.2668 68.1587 13.4684C68.0193 13.5718 67.9024 13.7026 67.8152 13.8527C67.7276 14.0036 67.672 14.1709 67.6516 14.3442C67.6313 14.5175 67.6468 14.6932 67.6971 14.8603C67.747 15.0259 67.8301 15.1797 67.9413 15.3123C71.145 19.5695 73.1957 24.5815 73.895 29.8635Z" fill="#618E81" stroke="#618E81" stroke-width="0.3"/>
<mask id="path-15-outside-7_1348_7510" maskUnits="userSpaceOnUse" x="26.0073" y="10.0703" width="27" height="21" fill="black">
<rect fill="white" x="26.0073" y="10.0703" width="27" height="21"/>
<path d="M52.1736 12.3359C52.1536 12.6204 52.0263 12.8867 51.8175 13.0809C51.6086 13.2751 51.3338 13.3828 51.0486 13.3821C34.7923 12.2571 30.3823 24.6321 29.2573 29.8409H27.0073C28.1323 24.4634 32.9361 9.9171 51.1498 11.1434C51.4423 11.1692 51.7132 11.3084 51.9045 11.5312C52.0958 11.754 52.1923 12.0428 52.1736 12.3359"/>
</mask>
<path d="M52.1736 12.3359C52.1536 12.6204 52.0263 12.8867 51.8175 13.0809C51.6086 13.2751 51.3338 13.3828 51.0486 13.3821C34.7923 12.2571 30.3823 24.6321 29.2573 29.8409H27.0073C28.1323 24.4634 32.9361 9.9171 51.1498 11.1434C51.4423 11.1692 51.7132 11.3084 51.9045 11.5312C52.0958 11.754 52.1923 12.0428 52.1736 12.3359" fill="#618E81"/>
<path d="M51.0486 13.3821L51.0279 13.6814L51.0378 13.6821L51.0478 13.6821L51.0486 13.3821ZM29.2573 29.8409V30.1409H29.4994L29.5506 29.9042L29.2573 29.8409ZM27.0073 29.8409L26.7137 29.7794L26.6381 30.1409H27.0073V29.8409ZM51.1498 11.1434L51.1762 10.8444L51.17 10.844L51.1498 11.1434ZM51.8743 12.3149C51.8597 12.5235 51.7663 12.7188 51.6132 12.8612L52.0218 13.3006C52.2863 13.0546 52.4475 12.7172 52.4728 12.3569L51.8743 12.3149ZM51.6132 12.8612C51.46 13.0037 51.2585 13.0826 51.0493 13.0821L51.0478 13.6821C51.4091 13.683 51.7572 13.5466 52.0218 13.3006L51.6132 12.8612ZM51.0693 13.0828C42.8508 12.5141 37.5944 15.3615 34.2567 19.0346C30.9311 22.6943 29.5319 27.1487 28.9641 29.7775L29.5506 29.9042C30.1078 27.3242 31.476 22.9868 34.7008 19.4381C37.9134 15.9027 42.9901 13.1251 51.0279 13.6814L51.0693 13.0828ZM29.2573 29.5409H27.0073V30.1409H29.2573V29.5409ZM27.301 29.9023C27.8586 27.237 29.3262 22.3131 32.8965 18.2127C36.4547 14.1263 42.1186 10.836 51.1297 11.4427L51.17 10.844C41.9673 10.2245 36.1225 13.5941 32.444 17.8187C28.7778 22.0292 27.2811 27.0672 26.7137 29.7794L27.301 29.9023ZM51.1234 11.4422C51.338 11.4611 51.5366 11.5632 51.6768 11.7266L52.1321 11.3358C51.8898 11.0535 51.5467 10.8772 51.1762 10.8445L51.1234 11.4422ZM51.6768 11.7266C51.8171 11.89 51.8879 12.1018 51.8742 12.3167L52.473 12.355C52.4967 11.9838 52.3744 11.618 52.1321 11.3358L51.6768 11.7266Z" fill="#618E81" mask="url(#path-15-outside-7_1348_7510)"/>
<path d="M67.1672 29.8603L67.1833 29.9954L67.3193 29.9925L69.4568 29.9475L69.6229 29.944L69.6025 29.7792C69.1444 26.0738 67.7638 22.5426 65.5871 19.5091C63.4104 16.4756 60.5073 14.0368 57.1438 12.4162L57.1354 12.4122L57.1267 12.4092C56.8169 12.3046 56.4787 12.323 56.1821 12.4606C55.8855 12.5983 55.6531 12.8446 55.5329 13.1487L55.5329 13.1487L55.5326 13.1495C55.4111 13.4625 55.418 13.8107 55.5516 14.1186C55.6848 14.4253 55.933 14.6674 56.2428 14.7928C59.1969 16.1639 61.7514 18.2677 63.6634 20.9043C65.5762 23.5419 66.7823 26.625 67.1672 29.8603Z" fill="#618E81" stroke="#618E81" stroke-width="0.3"/>
<path d="M69.7946 36.6082L69.8082 36.4496L69.6491 36.4454L67.5228 36.3891L67.3822 36.3854L67.3695 36.5254C67.1272 39.1834 66.6206 41.8106 65.8573 44.3681C65.7483 44.6852 65.7685 45.0325 65.9137 45.3348C66.0594 45.6381 66.3191 45.8715 66.6361 45.9842L66.6494 45.9889L66.6633 45.991C66.7762 46.0086 66.891 46.009 67.0039 45.9924C67.2699 45.9825 67.5261 45.8895 67.7367 45.7265C67.9496 45.5617 68.1048 45.3337 68.1802 45.0753C69.0064 42.3155 69.5473 39.4783 69.7946 36.6082Z" fill="#618E81" stroke="#618E81" stroke-width="0.3"/>
<mask id="path-19-outside-8_1348_7510" maskUnits="userSpaceOnUse" x="37.3267" y="17.0938" width="22" height="8" fill="black">
<rect fill="white" x="37.3267" y="17.0938" width="22" height="8"/>
<path d="M38.6064 22.2606C38.4097 22.4845 38.31 22.7773 38.3289 23.0747C38.3479 23.3721 38.4841 23.6498 38.7077 23.8469C38.9069 24.0227 39.162 24.1223 39.4277 24.1281C39.5843 24.1292 39.7393 24.0954 39.8813 24.0292C40.0233 23.9631 40.1489 23.8662 40.2489 23.7456C40.5077 23.4531 46.5489 16.6581 56.8764 23.0256C57.1288 23.1638 57.4246 23.2 57.703 23.1268C57.9813 23.0535 58.2209 22.8764 58.3727 22.6319C58.5257 22.3766 58.5715 22.0711 58.4998 21.7822C58.4281 21.4933 58.2448 21.2446 57.9902 21.0906C46.0539 13.7443 38.6852 22.2156 38.6064 22.2156"/>
</mask>
<path d="M38.6064 22.2606C38.4097 22.4845 38.31 22.7773 38.3289 23.0747C38.3479 23.3721 38.4841 23.6498 38.7077 23.8469C38.9069 24.0227 39.162 24.1223 39.4277 24.1281C39.5843 24.1292 39.7393 24.0954 39.8813 24.0292C40.0233 23.9631 40.1489 23.8662 40.2489 23.7456C40.5077 23.4531 46.5489 16.6581 56.8764 23.0256C57.1288 23.1638 57.4246 23.2 57.703 23.1268C57.9813 23.0535 58.2209 22.8764 58.3727 22.6319C58.5257 22.3766 58.5715 22.0711 58.4998 21.7822C58.4281 21.4933 58.2448 21.2446 57.9902 21.0906C46.0539 13.7443 38.6852 22.2156 38.6064 22.2156" fill="#618E81"/>
<path d="M38.7077 23.8469L38.9062 23.6219L38.9061 23.6218L38.7077 23.8469ZM39.4277 24.1281L39.4211 24.4281L39.4256 24.4281L39.4277 24.1281ZM40.2489 23.7456L40.0241 23.5467L40.018 23.5541L40.2489 23.7456ZM56.8764 23.0256L56.719 23.281L56.7255 23.285L56.7323 23.2887L56.8764 23.0256ZM58.3727 22.6319L58.6276 22.79L58.6299 22.7862L58.3727 22.6319ZM57.9902 21.0906L57.8329 21.3461L57.8349 21.3473L57.9902 21.0906ZM38.381 22.0626C38.1319 22.3462 38.0055 22.7171 38.0296 23.0938L38.6283 23.0556C38.6144 22.8375 38.6876 22.6228 38.8318 22.4586L38.381 22.0626ZM38.0296 23.0938C38.0536 23.4705 38.2261 23.8222 38.5093 24.0719L38.9061 23.6218C38.7421 23.4773 38.6423 23.2736 38.6283 23.0556L38.0296 23.0938ZM38.5091 24.0718C38.7615 24.2945 39.0846 24.4207 39.4211 24.428L39.4342 23.8282C39.2393 23.8239 39.0523 23.7509 38.9062 23.6219L38.5091 24.0718ZM39.4256 24.4281C39.6267 24.4295 39.8257 24.3861 40.008 24.3012L39.7547 23.7573C39.6529 23.8047 39.5419 23.8289 39.4297 23.8281L39.4256 24.4281ZM40.008 24.3012C40.1903 24.2163 40.3515 24.0919 40.4798 23.9371L40.018 23.5541C39.9463 23.6405 39.8564 23.7099 39.7547 23.7573L40.008 24.3012ZM40.4736 23.9444C40.5878 23.8153 42.1203 22.0881 44.8813 21.1729C47.6271 20.2626 51.6274 20.1417 56.719 23.281L57.0338 22.7702C51.7979 19.542 47.6138 19.6349 44.6925 20.6033C41.7862 21.5668 40.1687 23.3834 40.0242 23.5468L40.4736 23.9444ZM56.7323 23.2887C57.0521 23.4638 57.4268 23.5097 57.7793 23.4169L57.6266 22.8366C57.4225 22.8904 57.2056 22.8638 57.0205 22.7625L56.7323 23.2887ZM57.7793 23.4169C58.1318 23.3241 58.4354 23.0998 58.6276 22.79L58.1177 22.4737C58.0065 22.653 57.8307 22.7829 57.6266 22.8366L57.7793 23.4169ZM58.6299 22.7862C58.8238 22.4628 58.8817 22.0759 58.7909 21.71L58.2086 21.8545C58.2612 22.0663 58.2277 22.2904 58.1154 22.4775L58.6299 22.7862ZM58.7909 21.71C58.7001 21.344 58.468 21.029 58.1454 20.8339L57.8349 21.3473C58.0216 21.4603 58.156 21.6426 58.2086 21.8545L58.7909 21.71ZM58.1474 20.8351C52.1004 17.1135 47.1789 17.3861 43.7504 18.6159C42.0426 19.2285 40.7142 20.0751 39.8076 20.7684C39.354 21.1153 39.0055 21.4242 38.7674 21.6468C38.6484 21.7581 38.5572 21.8477 38.4955 21.9085C38.4637 21.9397 38.4425 21.9606 38.4283 21.9741C38.4207 21.9814 38.4194 21.9824 38.4217 21.9805C38.4221 21.9801 38.4295 21.9737 38.4409 21.966C38.4463 21.9623 38.459 21.9539 38.4767 21.9453C38.4859 21.9408 38.5362 21.9156 38.6064 21.9156V22.5156C38.6772 22.5156 38.7283 22.4901 38.7386 22.4851C38.7574 22.476 38.7714 22.4668 38.7783 22.4621C38.7927 22.4524 38.8039 22.443 38.8092 22.4385C38.821 22.4285 38.8328 22.4175 38.8418 22.4089C38.8608 22.3908 38.887 22.365 38.9164 22.3361C38.9771 22.2763 39.0639 22.191 39.1773 22.0851C39.4039 21.8731 39.7372 21.5776 40.172 21.2451C41.0422 20.5796 42.3168 19.7676 43.953 19.1806C47.2126 18.0114 51.9436 17.7215 57.8329 21.3461L58.1474 20.8351Z" fill="#618E81" mask="url(#path-19-outside-8_1348_7510)"/>
<mask id="path-21-outside-9_1348_7510" maskUnits="userSpaceOnUse" x="21.0613" y="35.5703" width="15" height="13" fill="black">
<rect fill="white" x="21.0613" y="35.5703" width="15" height="13"/>
<path d="M32.9586 36.5928H35.2086C34.8725 38.9842 33.844 41.225 32.2499 43.0391C29.9384 45.5494 26.7729 47.106 23.3736 47.4041H23.2499C23.1021 47.4122 22.9542 47.3911 22.8146 47.3421C22.675 47.2931 22.5464 47.217 22.4362 47.1183C22.2137 46.9189 22.0794 46.6393 22.063 46.3409C22.0549 46.1932 22.0759 46.0453 22.1249 45.9057C22.174 45.7661 22.25 45.6375 22.3487 45.5273C22.4475 45.4171 22.5669 45.3274 22.7003 45.2634C22.8337 45.1993 22.9784 45.1622 23.1261 45.1541C26.0112 44.9052 28.7012 43.5943 30.6749 41.4753C31.8871 40.0854 32.6928 38.3882 33.0036 36.5703"/>
</mask>
<path d="M32.9586 36.5928H35.2086C34.8725 38.9842 33.844 41.225 32.2499 43.0391C29.9384 45.5494 26.7729 47.106 23.3736 47.4041H23.2499C23.1021 47.4122 22.9542 47.3911 22.8146 47.3421C22.675 47.2931 22.5464 47.217 22.4362 47.1183C22.2137 46.9189 22.0794 46.6393 22.063 46.3409C22.0549 46.1932 22.0759 46.0453 22.1249 45.9057C22.174 45.7661 22.25 45.6375 22.3487 45.5273C22.4475 45.4171 22.5669 45.3274 22.7003 45.2634C22.8337 45.1993 22.9784 45.1622 23.1261 45.1541C26.0112 44.9052 28.7012 43.5943 30.6749 41.4753C31.8871 40.0854 32.6928 38.3882 33.0036 36.5703" fill="#618E81"/>
<path d="M35.2086 36.5928L35.5057 36.6346L35.5537 36.2928H35.2086V36.5928ZM32.2499 43.0391L32.4706 43.2423L32.4752 43.2371L32.2499 43.0391ZM23.3736 47.4041V47.7041H23.3867L23.3998 47.7029L23.3736 47.4041ZM23.2499 47.4041V47.1041H23.2416L23.2334 47.1045L23.2499 47.4041ZM22.4362 47.1183L22.6364 46.8949L22.4362 47.1183ZM22.063 46.3409L21.7634 46.3574L22.063 46.3409ZM23.1261 45.1541L23.1426 45.4538L23.1519 45.453L23.1261 45.1541ZM30.6749 41.4753L30.8945 41.6799L30.9009 41.6725L30.6749 41.4753ZM32.9586 36.8928H35.2086V36.2928H32.9586V36.8928ZM34.9115 36.5511C34.5835 38.8845 33.58 41.071 32.0245 42.841L32.4752 43.2371C34.108 41.3791 35.1614 39.084 35.5057 36.6346L34.9115 36.5511ZM32.0292 42.8359C29.7684 45.2912 26.6722 46.8137 23.3474 47.1052L23.3998 47.7029C26.8736 47.3984 30.1085 45.8076 32.4705 43.2423L32.0292 42.8359ZM23.3736 47.1041H23.2499V47.7041H23.3736V47.1041ZM23.2334 47.1045C23.125 47.1105 23.0165 47.095 22.914 47.0591L22.7152 47.6252C22.892 47.6872 23.0793 47.7139 23.2663 47.7036L23.2334 47.1045ZM22.914 47.0591C22.8116 47.0231 22.7173 46.9673 22.6364 46.8949L22.2361 47.3418C22.3756 47.4668 22.5384 47.5631 22.7152 47.6252L22.914 47.0591ZM22.6364 46.8949C22.4731 46.7486 22.3746 46.5434 22.3625 46.3245L21.7634 46.3574C21.7842 46.7352 21.9542 47.0893 22.2361 47.3418L22.6364 46.8949ZM22.3625 46.3245C22.3566 46.2161 22.372 46.1075 22.408 46.0051L21.8419 45.8063C21.7798 45.9831 21.7531 46.1703 21.7634 46.3574L22.3625 46.3245ZM22.408 46.0051C22.444 45.9027 22.4998 45.8083 22.5722 45.7275L22.1253 45.3272C22.0003 45.4667 21.904 45.6295 21.8419 45.8063L22.408 46.0051ZM22.5722 45.7275C22.6446 45.6466 22.7323 45.5808 22.8301 45.5338L22.5704 44.9929C22.4015 45.074 22.2503 45.1876 22.1253 45.3272L22.5722 45.7275ZM22.8301 45.5338C22.928 45.4868 23.0342 45.4596 23.1426 45.4536L23.1096 44.8545C22.9226 44.8648 22.7393 44.9118 22.5704 44.9929L22.8301 45.5338ZM23.1519 45.453C26.111 45.1977 28.87 43.8532 30.8944 41.6798L30.4553 41.2708C28.5323 43.3354 25.9113 44.6127 23.1003 44.8552L23.1519 45.453ZM30.9009 41.6725C32.1494 40.241 32.9793 38.4931 33.2993 36.6209L32.7079 36.5198C32.4064 38.2833 31.6248 39.9297 30.4488 41.2781L30.9009 41.6725Z" fill="#618E81" mask="url(#path-21-outside-9_1348_7510)"/>
<mask id="path-23-outside-10_1348_7510" maskUnits="userSpaceOnUse" x="32.9487" y="24.8438" width="5" height="6" fill="black">
<rect fill="white" x="32.9487" y="24.8438" width="5" height="6"/>
<path d="M37.02 27.364C36.7023 28.1738 36.4281 28.9999 36.1987 29.839H33.9487C34.2608 28.694 34.6364 27.5673 35.0737 26.464C35.1951 26.2223 35.3995 26.0323 35.6495 25.929C35.8995 25.8257 36.1784 25.8159 36.435 25.9015C36.7073 26.0202 36.9217 26.2417 37.0312 26.5178C37.1408 26.7939 37.1368 27.1021 37.02 27.3753"/>
</mask>
<path d="M37.02 27.364C36.7023 28.1738 36.4281 28.9999 36.1987 29.839H33.9487C34.2608 28.694 34.6364 27.5673 35.0737 26.464C35.1951 26.2223 35.3995 26.0323 35.6495 25.929C35.8995 25.8257 36.1784 25.8159 36.435 25.9015C36.7073 26.0202 36.9217 26.2417 37.0312 26.5178C37.1408 26.7939 37.1368 27.1021 37.02 27.3753" fill="#618E81"/>
<path d="M36.1987 29.839V30.139H36.4277L36.4881 29.9181L36.1987 29.839ZM33.9487 29.839L33.6593 29.7601L33.556 30.139H33.9487V29.839ZM35.0737 26.464L34.8056 26.3294L34.7997 26.3412L34.7948 26.3535L35.0737 26.464ZM36.435 25.9015L36.5548 25.6265L36.5426 25.6211L36.5299 25.6169L36.435 25.9015ZM36.7407 27.2544C36.4191 28.0741 36.1416 28.9105 35.9093 29.7599L36.4881 29.9181C36.7147 29.0894 36.9854 28.2734 37.2993 27.4736L36.7407 27.2544ZM36.1987 29.539H33.9487V30.139H36.1987V29.539ZM34.2382 29.9179C34.5473 28.7836 34.9194 27.6675 35.3526 26.5746L34.7948 26.3535C34.3534 27.4671 33.9743 28.6044 33.6593 29.7601L34.2382 29.9179ZM35.3418 26.5986C35.4308 26.4213 35.5807 26.282 35.7641 26.2063L35.5349 25.6518C35.2183 25.7826 34.9593 26.0232 34.8056 26.3294L35.3418 26.5986ZM35.7641 26.2063C35.9474 26.1305 36.1519 26.1234 36.3401 26.1861L36.5299 25.6169C36.2048 25.5085 35.8516 25.5209 35.5349 25.6518L35.7641 26.2063ZM36.3151 26.1765C36.5149 26.2635 36.672 26.426 36.7524 26.6285L37.3101 26.4071C37.1713 26.0574 36.8998 25.7768 36.5548 25.6265L36.3151 26.1765ZM36.7524 26.6285C36.8328 26.831 36.8298 27.057 36.7441 27.2573L37.2958 27.4932C37.4438 27.1473 37.4489 26.7568 37.3101 26.4071L36.7524 26.6285Z" fill="#618E81" mask="url(#path-23-outside-10_1348_7510)"/>
<path d="M39.6412 36.4437H39.5025L39.4917 36.5821C39.2018 40.3059 37.2875 47.5482 28.0505 50.683L28.0499 50.6832C27.7305 50.7933 27.4678 51.0256 27.3196 51.3292C27.1715 51.6325 27.1498 51.9821 27.259 52.3013C27.3403 52.5504 27.4964 52.7683 27.706 52.9255C27.9159 53.083 28.1693 53.1718 28.4316 53.1799L28.4316 53.18L28.4355 53.18C28.5723 53.1807 28.708 53.1549 28.835 53.1041C32.4368 52.0077 35.6211 49.844 37.967 46.899C40.3142 43.9524 41.7113 40.3624 41.9734 36.6042L41.9846 36.4437H41.8237H39.6412Z" fill="#618E81" stroke="#618E81" stroke-width="0.3"/>
<mask id="path-26-outside-11_1348_7510" maskUnits="userSpaceOnUse" x="39.6987" y="23.3672" width="17" height="7" fill="black">
<rect fill="white" x="39.6987" y="23.3672" width="17" height="7"/>
<path d="M55.5825 29.8405H53.2762C53.2312 29.6761 53.167 29.5175 53.085 29.368C52.7855 28.7084 52.337 28.1273 51.7748 27.6705C51.2125 27.2137 50.5519 26.8936 49.845 26.7355C48.9839 26.5514 48.0904 26.5862 47.2462 26.8368C45.5464 27.2694 44.0818 28.3467 43.1625 29.8405H40.6987C41.2307 28.5786 42.0463 27.4563 43.0824 26.5608C44.1184 25.6652 45.3469 25.0205 46.6725 24.6768C47.8557 24.3214 49.1096 24.2711 50.3175 24.5305C51.338 24.767 52.2916 25.2321 53.1062 25.8908C53.9208 26.5495 54.5752 27.3846 55.02 28.333C55.2606 28.8141 55.4491 29.3194 55.5825 29.8405"/>
</mask>
<path d="M55.5825 29.8405H53.2762C53.2312 29.6761 53.167 29.5175 53.085 29.368C52.7855 28.7084 52.337 28.1273 51.7748 27.6705C51.2125 27.2137 50.5519 26.8936 49.845 26.7355C48.9839 26.5514 48.0904 26.5862 47.2462 26.8368C45.5464 27.2694 44.0818 28.3467 43.1625 29.8405H40.6987C41.2307 28.5786 42.0463 27.4563 43.0824 26.5608C44.1184 25.6652 45.3469 25.0205 46.6725 24.6768C47.8557 24.3214 49.1096 24.2711 50.3175 24.5305C51.338 24.767 52.2916 25.2321 53.1062 25.8908C53.9208 26.5495 54.5752 27.3846 55.02 28.333C55.2606 28.8141 55.4491 29.3194 55.5825 29.8405" fill="#618E81"/>
<path d="M53.2762 29.8405L52.9869 29.9198L53.0474 30.1405H53.2762V29.8405ZM53.085 29.368L52.8118 29.492L52.8165 29.5024L52.8219 29.5123L53.085 29.368ZM49.845 26.7355L49.9105 26.4427L49.9077 26.4422L49.845 26.7355ZM47.2462 26.8368L47.3203 27.1277L47.3316 27.1244L47.2462 26.8368ZM43.1625 29.8405V30.1405H43.3301L43.418 29.9978L43.1625 29.8405ZM40.6987 29.8405L40.4223 29.724L40.2467 30.1405H40.6987V29.8405ZM46.6725 24.6768L46.7478 24.9674L46.7588 24.9641L46.6725 24.6768ZM50.3175 24.5305L50.3852 24.2382L50.3805 24.2372L50.3175 24.5305ZM55.02 28.333L54.7483 28.4604L54.7517 28.4672L55.02 28.333ZM55.5825 29.5405H53.2762V30.1405H55.5825V29.5405ZM53.5656 29.7612C53.5143 29.5742 53.4413 29.3938 53.348 29.2238L52.8219 29.5123C52.8927 29.6412 52.948 29.778 52.9869 29.9198L53.5656 29.7612ZM53.3581 29.244C53.0395 28.5421 52.5622 27.9238 51.9639 27.4377L51.5856 27.9033C52.1118 28.3309 52.5315 28.8747 52.8118 29.492L53.3581 29.244ZM51.9639 27.4377C51.3657 26.9516 50.6627 26.611 49.9105 26.4428L49.7795 27.0283C50.4411 27.1763 51.0594 27.4758 51.5856 27.9033L51.9639 27.4377ZM49.9077 26.4422C48.9975 26.2476 48.0531 26.2844 47.1609 26.5492L47.3316 27.1244C48.1276 26.8881 48.9702 26.8553 49.7823 27.0289L49.9077 26.4422ZM47.1722 26.546C45.3969 26.9979 43.8671 28.1231 42.907 29.6833L43.418 29.9978C44.2964 28.5703 45.696 27.5409 47.3202 27.1275L47.1722 26.546ZM43.1625 29.5405H40.6987V30.1405H43.1625V29.5405ZM40.9752 29.9571C41.4892 28.7376 42.2774 27.6531 43.2785 26.7877L42.8862 26.3338C41.8153 27.2595 40.9721 28.4196 40.4223 29.724L40.9752 29.9571ZM43.2785 26.7877C44.2797 25.9223 45.4668 25.2994 46.7478 24.9672L46.5972 24.3864C45.227 24.7417 43.9571 25.4081 42.8862 26.3338L43.2785 26.7877ZM46.7588 24.9641C47.8935 24.6232 49.0961 24.575 50.2545 24.8238L50.3805 24.2372C49.1231 23.9671 47.8179 24.0195 46.5862 24.3895L46.7588 24.9641ZM50.2498 24.8228C51.2261 25.049 52.1383 25.4939 52.9176 26.1241L53.2948 25.6575C52.4449 24.9703 51.45 24.485 50.3852 24.2383L50.2498 24.8228ZM52.9176 26.1241C53.6968 26.7542 54.3228 27.5531 54.7484 28.4604L55.2916 28.2056C54.8275 27.2161 54.1447 26.3448 53.2948 25.6575L52.9176 26.1241ZM54.7517 28.4672C54.9827 28.9292 55.1638 29.4145 55.2918 29.9149L55.8731 29.7662C55.7345 29.2244 55.5384 28.699 55.2883 28.1988L54.7517 28.4672Z" fill="#618E81" mask="url(#path-26-outside-11_1348_7510)"/>
<path d="M56.0249 36.5938V36.4437H55.8749H53.6924H53.5424V36.5938V37.8583C53.4996 38.0407 53.4975 38.2303 53.5363 38.4137C53.5764 38.6033 53.6593 38.7813 53.7785 38.9341C53.8977 39.0869 54.0502 39.2105 54.2244 39.2955C54.3986 39.3806 54.5899 39.4247 54.7837 39.4247C54.9775 39.4247 55.1688 39.3806 55.343 39.2955C55.5171 39.2105 55.6696 39.0869 55.7889 38.9341C55.9081 38.7813 55.9909 38.6033 56.0311 38.4137C56.0699 38.2303 56.0678 38.0407 56.0249 37.8583V36.5938Z" fill="#618E81" stroke="#618E81" stroke-width="0.3"/>
<mask id="path-29-outside-12_1348_7510" maskUnits="userSpaceOnUse" x="31.6094" y="50.0859" width="11" height="10" fill="black">
<rect fill="white" x="31.6094" y="50.0859" width="11" height="10"/>
<path d="M41.385 51.387C41.2816 51.286 41.1585 51.2072 41.0235 51.1556C40.8884 51.104 40.7442 51.0806 40.5998 51.087C40.4553 51.0933 40.3137 51.1292 40.1837 51.1924C40.0536 51.2556 39.9379 51.3448 39.8437 51.4545C37.9618 53.581 35.7137 55.3528 33.2062 56.6857C32.9452 56.8245 32.7493 57.0605 32.6609 57.3426C32.5725 57.6247 32.5986 57.9303 32.7337 58.1932C32.8255 58.3754 32.965 58.5292 33.1374 58.6382C33.3098 58.7472 33.5086 58.8073 33.7125 58.812C33.8848 58.8092 34.0542 58.7668 34.2075 58.6882C36.9438 57.2303 39.3974 55.2948 41.4525 52.9732C41.6533 52.7537 41.759 52.4635 41.7463 52.1662C41.7337 51.8689 41.6037 51.5887 41.385 51.387"/>
</mask>
<path d="M41.385 51.387C41.2816 51.286 41.1585 51.2072 41.0235 51.1556C40.8884 51.104 40.7442 51.0806 40.5998 51.087C40.4553 51.0933 40.3137 51.1292 40.1837 51.1924C40.0536 51.2556 39.9379 51.3448 39.8437 51.4545C37.9618 53.581 35.7137 55.3528 33.2062 56.6857C32.9452 56.8245 32.7493 57.0605 32.6609 57.3426C32.5725 57.6247 32.5986 57.9303 32.7337 58.1932C32.8255 58.3754 32.965 58.5292 33.1374 58.6382C33.3098 58.7472 33.5086 58.8073 33.7125 58.812C33.8848 58.8092 34.0542 58.7668 34.2075 58.6882C36.9438 57.2303 39.3974 55.2948 41.4525 52.9732C41.6533 52.7537 41.759 52.4635 41.7463 52.1662C41.7337 51.8689 41.6037 51.5887 41.385 51.387" fill="#618E81"/>
<path d="M39.8437 51.4545L40.0684 51.6533L40.0713 51.6499L39.8437 51.4545ZM33.2062 56.6857L33.0654 56.4208L33.0654 56.4208L33.2062 56.6857ZM32.7337 58.1932L33.0017 58.0583L33.0006 58.0561L32.7337 58.1932ZM33.7125 58.812L33.7055 59.1121L33.7174 59.1119L33.7125 58.812ZM34.2075 58.6882L34.3444 58.9552L34.3486 58.953L34.2075 58.6882ZM41.4525 52.9732L41.2311 52.7707L41.2279 52.7744L41.4525 52.9732ZM41.5946 51.1724C41.4619 51.0427 41.3039 50.9416 41.1305 50.8753L40.9164 51.4358C41.0131 51.4728 41.1013 51.5292 41.1754 51.6016L41.5946 51.1724ZM41.1305 50.8753C40.9572 50.8091 40.772 50.7791 40.5866 50.7872L40.6129 51.3867C40.7164 51.3821 40.8196 51.3989 40.9164 51.4358L41.1305 50.8753ZM40.5866 50.7872C40.4012 50.7954 40.2194 50.8414 40.0525 50.9226L40.3148 51.4622C40.408 51.4169 40.5094 51.3912 40.6129 51.3867L40.5866 50.7872ZM40.0525 50.9226C39.8856 51.0037 39.7371 51.1182 39.6162 51.259L40.0713 51.6499C40.1388 51.5714 40.2217 51.5075 40.3148 51.4622L40.0525 50.9226ZM39.6191 51.2557C37.7609 53.3554 35.5412 55.1048 33.0654 56.4208L33.3471 56.9506C35.8862 55.6009 38.1627 53.8067 40.0684 51.6533L39.6191 51.2557ZM33.0654 56.4208C32.7348 56.5966 32.4866 56.8955 32.3746 57.2529L32.9471 57.4323C33.012 57.2254 33.1557 57.0524 33.3471 56.9506L33.0654 56.4208ZM32.3746 57.2529C32.2626 57.6102 32.2958 57.9973 32.4669 58.3303L33.0006 58.0561C32.9015 57.8633 32.8823 57.6392 32.9471 57.4323L32.3746 57.2529ZM32.4658 58.3282C32.582 58.5589 32.7587 58.7537 32.9771 58.8918L33.2977 58.3846C33.1713 58.3047 33.069 58.1919 33.0017 58.0583L32.4658 58.3282ZM32.9771 58.8918C33.1955 59.0298 33.4473 59.1059 33.7055 59.1119L33.7194 58.5121C33.5699 58.5086 33.4241 58.4645 33.2977 58.3846L32.9771 58.8918ZM33.7174 59.1119C33.9356 59.1084 34.1501 59.0548 34.3444 58.9552L34.0706 58.4213C33.9582 58.4789 33.834 58.51 33.7076 58.512L33.7174 59.1119ZM34.3486 58.953C37.1165 57.4782 39.5984 55.5204 41.6771 53.1721L41.2279 52.7744C39.1965 55.0692 36.7712 56.9823 34.0664 58.4235L34.3486 58.953ZM41.6739 53.1757C41.9282 52.8976 42.0621 52.53 42.046 52.1534L41.4466 52.1789C41.4559 52.3969 41.3784 52.6097 41.2311 52.7708L41.6739 53.1757ZM42.046 52.1534C42.03 51.7768 41.8655 51.422 41.5884 51.1664L41.1816 51.6075C41.342 51.7555 41.4373 51.9609 41.4466 52.1789L42.046 52.1534Z" fill="#618E81" mask="url(#path-29-outside-12_1348_7510)"/>
<path d="M49.1602 36.6199L49.1914 36.4437H49.0125H46.7625H46.6378L46.615 36.5664C45.9503 40.1455 44.7219 43.5966 42.9758 46.7908C42.8045 47.0812 42.7552 47.4276 42.8387 47.7543C42.9222 48.0814 43.1321 48.362 43.4223 48.5346C43.6038 48.6464 43.8117 48.7082 44.0249 48.7137L44.0249 48.7139L44.0318 48.7137C44.2487 48.7093 44.4609 48.6496 44.6483 48.5403C44.8358 48.431 44.9922 48.2756 45.1028 48.089L45.1028 48.089L45.1051 48.085C47.0781 44.5123 48.4482 40.6386 49.1602 36.6199Z" fill="#618E81" stroke="#618E81" stroke-width="0.3"/>
<mask id="path-32-outside-13_1348_7510" maskUnits="userSpaceOnUse" x="39.0146" y="40.5156" width="17" height="22" fill="black">
<rect fill="white" x="39.0146" y="40.5156" width="17" height="22"/>
<path d="M53.8613 41.5277C53.5726 41.4851 53.2786 41.5562 53.0414 41.7263C52.8042 41.8963 52.6424 42.1519 52.59 42.439C50.8086 49.5145 46.5089 55.698 40.4963 59.8315C40.252 60.0018 40.0851 60.2621 40.0324 60.5552C39.9797 60.8483 40.0454 61.1504 40.215 61.3952C40.3162 61.5412 40.4505 61.6611 40.607 61.7452C40.7634 61.8292 40.9375 61.8751 41.115 61.879C41.3356 61.8772 41.5507 61.8107 41.7338 61.6877C48.269 57.2428 52.9105 50.5192 54.75 42.8327C54.8032 42.5437 54.7412 42.2453 54.5772 42.0014C54.4132 41.7575 54.1603 41.5875 53.8725 41.5277"/>
</mask>
<path d="M53.8613 41.5277C53.5726 41.4851 53.2786 41.5562 53.0414 41.7263C52.8042 41.8963 52.6424 42.1519 52.59 42.439C50.8086 49.5145 46.5089 55.698 40.4963 59.8315C40.252 60.0018 40.0851 60.2621 40.0324 60.5552C39.9797 60.8483 40.0454 61.1504 40.215 61.3952C40.3162 61.5412 40.4505 61.6611 40.607 61.7452C40.7634 61.8292 40.9375 61.8751 41.115 61.879C41.3356 61.8772 41.5507 61.8107 41.7338 61.6877C48.269 57.2428 52.9105 50.5192 54.75 42.8327C54.8032 42.5437 54.7412 42.2453 54.5772 42.0014C54.4132 41.7575 54.1603 41.5875 53.8725 41.5277" fill="#618E81"/>
<path d="M52.59 42.439L52.881 42.5122L52.8834 42.5026L52.8852 42.4927L52.59 42.439ZM40.4963 59.8315L40.3263 59.5842L40.3247 59.5854L40.4963 59.8315ZM40.215 61.3952L39.9685 61.5661L39.9685 61.5661L40.215 61.3952ZM41.115 61.879L41.1085 62.179L41.1174 62.179L41.115 61.879ZM41.7338 61.6877L41.9011 61.9367L41.9025 61.9358L41.7338 61.6877ZM54.75 42.8327L55.0418 42.9025L55.0437 42.8948L55.0451 42.887L54.75 42.8327ZM53.9051 41.2309C53.5395 41.1769 53.1671 41.2671 52.8666 41.4824L53.2162 41.9701C53.3901 41.8454 53.6057 41.7932 53.8174 41.8245L53.9051 41.2309ZM52.8666 41.4824C52.5662 41.6978 52.3612 42.0215 52.2949 42.3852L52.8852 42.4927C52.9235 42.2822 53.0422 42.0948 53.2162 41.9701L52.8666 41.4824ZM52.2991 42.3657C50.5355 49.3705 46.2788 55.4921 40.3263 59.5842L40.6662 60.0787C46.739 55.9039 51.0817 49.6585 52.881 42.5122L52.2991 42.3657ZM40.3247 59.5854C40.0152 59.8011 39.8039 60.1308 39.7372 60.5021L40.3277 60.6083C40.3663 60.3933 40.4887 60.2025 40.6679 60.0776L40.3247 59.5854ZM39.7372 60.5021C39.6704 60.8734 39.7536 61.256 39.9685 61.5661L40.4616 61.2243C40.3372 61.0448 40.289 60.8233 40.3277 60.6083L39.7372 60.5021ZM39.9685 61.5661C40.0967 61.751 40.2668 61.9029 40.4649 62.0094L40.749 61.4809C40.6343 61.4193 40.5358 61.3313 40.4616 61.2243L39.9685 61.5661ZM40.4649 62.0094C40.6631 62.1159 40.8836 62.174 41.1085 62.1789L41.1216 61.579C40.9914 61.5762 40.8637 61.5426 40.749 61.4809L40.4649 62.0094ZM41.1174 62.179C41.3967 62.1768 41.6693 62.0925 41.9011 61.9367L41.5664 61.4387C41.4322 61.5289 41.2744 61.5777 41.1127 61.579L41.1174 62.179ZM41.9025 61.9358C48.4995 57.4488 53.1848 50.6617 55.0418 42.9025L54.4583 42.7629C52.6361 50.3767 48.0385 57.0367 41.5651 61.4397L41.9025 61.9358ZM55.0451 42.887C55.1124 42.5209 55.0338 42.1429 54.8261 41.834L54.3282 42.1688C54.4485 42.3477 54.494 42.5665 54.455 42.7784L55.0451 42.887ZM54.8261 41.834C54.6184 41.5251 54.2981 41.3097 53.9336 41.234L53.8115 41.8214C54.0225 41.8653 54.208 41.99 54.3282 42.1688L54.8261 41.834Z" fill="#618E81" mask="url(#path-32-outside-13_1348_7510)"/>
<mask id="path-34-outside-14_1348_7510" maskUnits="userSpaceOnUse" x="58.4944" y="24.8438" width="5" height="6" fill="black">
<rect fill="white" x="58.4944" y="24.8438" width="5" height="6"/>
<path d="M59.5647 27.3344C59.4638 27.0624 59.4717 26.7619 59.587 26.4957C59.7023 26.2294 59.916 26.018 60.1835 25.9056C60.4541 25.812 60.7501 25.825 61.0114 25.9421C61.2727 26.0591 61.4795 26.2714 61.5898 26.5356C61.9779 27.6304 62.2568 28.7609 62.4223 29.9106H60.1723C60.0381 29.0593 59.8349 28.2203 59.5647 27.4019"/>
</mask>
<path d="M59.5647 27.3344C59.4638 27.0624 59.4717 26.7619 59.587 26.4957C59.7023 26.2294 59.916 26.018 60.1835 25.9056C60.4541 25.812 60.7501 25.825 61.0114 25.9421C61.2727 26.0591 61.4795 26.2714 61.5898 26.5356C61.9779 27.6304 62.2568 28.7609 62.4223 29.9106H60.1723C60.0381 29.0593 59.8349 28.2203 59.5647 27.4019" fill="#618E81"/>
<path d="M60.1835 25.9056L60.0854 25.6221L60.0762 25.6253L60.0673 25.6291L60.1835 25.9056ZM61.5898 26.5356L61.8725 26.4354L61.8698 26.4277L61.8666 26.4201L61.5898 26.5356ZM62.4223 29.9106V30.2106H62.7685L62.7192 29.8679L62.4223 29.9106ZM60.1723 29.9106L59.8759 29.9573L59.9158 30.2106H60.1723V29.9106ZM59.846 27.2299C59.7719 27.0305 59.7778 26.8101 59.8623 26.6149L59.3117 26.3765C59.1657 26.7137 59.1556 27.0943 59.2835 27.4388L59.846 27.2299ZM59.8623 26.6149C59.9469 26.4197 60.1036 26.2646 60.2997 26.1822L60.0673 25.6291C59.7285 25.7715 59.4578 26.0392 59.3117 26.3765L59.8623 26.6149ZM60.2816 26.1891C60.48 26.1205 60.6972 26.13 60.8888 26.2159L61.1341 25.6683C60.8031 25.52 60.4281 25.5035 60.0854 25.6221L60.2816 26.1891ZM60.8888 26.2159C61.0804 26.3017 61.232 26.4574 61.3129 26.6511L61.8666 26.4201C61.727 26.0854 61.465 25.8166 61.1341 25.6683L60.8888 26.2159ZM61.307 26.6359C61.6885 27.712 61.9626 28.8233 62.1253 29.9534L62.7192 29.8679C62.5509 28.6986 62.2673 27.5488 61.8725 26.4354L61.307 26.6359ZM62.4223 29.6106H60.1723V30.2106H62.4223V29.6106ZM60.4686 29.8639C60.3319 28.9965 60.1249 28.1417 59.8496 27.3078L59.2799 27.4959C59.5449 28.2989 59.7443 29.1221 59.8759 29.9573L60.4686 29.8639Z" fill="#618E81" mask="url(#path-34-outside-14_1348_7510)"/>
<path d="M62.8986 36.6031L62.9085 36.4437H62.7489H60.5101H60.3697L60.3604 36.5838C59.9575 42.6609 57.596 51.2132 49.6198 60.4912C49.5079 60.6169 49.422 60.7635 49.3671 60.9226C49.312 61.0821 49.2891 61.251 49.2998 61.4194C49.3105 61.5878 49.3545 61.7524 49.4293 61.9037C49.5038 62.0544 49.6073 62.1889 49.734 62.2994C49.855 62.41 49.9971 62.495 50.1517 62.5494C50.307 62.604 50.4717 62.6266 50.636 62.6158C50.8002 62.605 50.9606 62.5611 51.1073 62.4866C51.2539 62.4123 51.3839 62.3091 51.4895 62.1832C59.9934 52.2469 62.4916 43.1372 62.8986 36.6031Z" fill="#618E81" stroke="#618E81" stroke-width="0.3"/>
<mask id="path-37-outside-15_1348_7510" maskUnits="userSpaceOnUse" x="59.8118" y="47.1719" width="8" height="12" fill="black">
<rect fill="white" x="59.8118" y="47.1719" width="8" height="12"/>
<path d="M66.1349 48.224C65.8588 48.1369 65.5596 48.1596 65.2998 48.2874C65.04 48.4152 64.8394 48.6383 64.7399 48.9103C63.8104 51.6377 62.5644 54.2467 61.0274 56.684C60.8531 56.9233 60.7802 57.2217 60.8244 57.5144C60.8686 57.8071 61.0265 58.0706 61.2637 58.2478C61.4495 58.3944 61.6795 58.4737 61.9162 58.4728C62.0879 58.468 62.2563 58.424 62.4085 58.344C62.5606 58.2641 62.6923 58.1503 62.7937 58.0115C64.4566 55.3986 65.8011 52.5962 66.7987 49.664C66.9006 49.385 66.8879 49.077 66.7636 48.8072C66.6393 48.5374 66.4132 48.3278 66.1349 48.224"/>
</mask>
<path d="M66.1349 48.224C65.8588 48.1369 65.5596 48.1596 65.2998 48.2874C65.04 48.4152 64.8394 48.6383 64.7399 48.9103C63.8104 51.6377 62.5644 54.2467 61.0274 56.684C60.8531 56.9233 60.7802 57.2217 60.8244 57.5144C60.8686 57.8071 61.0265 58.0706 61.2637 58.2478C61.4495 58.3944 61.6795 58.4737 61.9162 58.4728C62.0879 58.468 62.2563 58.424 62.4085 58.344C62.5606 58.2641 62.6923 58.1503 62.7937 58.0115C64.4566 55.3986 65.8011 52.5962 66.7987 49.664C66.9006 49.385 66.8879 49.077 66.7636 48.8072C66.6393 48.5374 66.4132 48.3278 66.1349 48.224" fill="#618E81"/>
<path d="M64.7399 48.9103L64.4581 48.8071L64.456 48.8135L64.7399 48.9103ZM61.0274 56.684L61.2699 56.8606L61.2758 56.8525L61.2812 56.844L61.0274 56.684ZM61.2637 58.2478L61.4496 58.0122L61.4432 58.0074L61.2637 58.2478ZM61.9162 58.4728L61.9174 58.7728L61.9245 58.7727L61.9162 58.4728ZM62.7937 58.0115L63.036 58.1884L63.0416 58.1807L63.0468 58.1726L62.7937 58.0115ZM66.7987 49.664L66.5168 49.5611L66.5146 49.5674L66.7987 49.664ZM66.2252 47.9379C65.8754 47.8275 65.4965 47.8563 65.1674 48.0182L65.4322 48.5566C65.6228 48.4629 65.8421 48.4462 66.0446 48.5101L66.2252 47.9379ZM65.1674 48.0182C64.8383 48.1801 64.5842 48.4627 64.4582 48.8072L65.0216 49.0134C65.0946 48.8139 65.2417 48.6503 65.4322 48.5566L65.1674 48.0182ZM64.456 48.8135C63.534 51.5187 62.2981 54.1065 60.7737 56.524L61.2812 56.844C62.8306 54.3869 64.0868 51.7566 65.0239 49.007L64.456 48.8135ZM60.7849 56.5074C60.5641 56.8105 60.4717 57.1884 60.5278 57.5592L61.121 57.4696C61.0886 57.2549 61.1421 57.0361 61.2699 56.8606L60.7849 56.5074ZM60.5278 57.5592C60.5838 57.93 60.7837 58.2638 61.0842 58.4881L61.4432 58.0074C61.2692 57.8775 61.1535 57.6843 61.121 57.4696L60.5278 57.5592ZM61.0778 58.4832C61.3169 58.6719 61.6128 58.774 61.9174 58.7728L61.9149 58.1728C61.7461 58.1735 61.5821 58.1169 61.4495 58.0123L61.0778 58.4832ZM61.9245 58.7727C62.1421 58.7666 62.3554 58.7108 62.548 58.6096L62.2689 58.0785C62.1573 58.1371 62.0338 58.1694 61.9079 58.1729L61.9245 58.7727ZM62.548 58.6096C62.7407 58.5083 62.9076 58.3642 63.036 58.1884L62.5514 57.8346C62.4771 57.9364 62.3804 58.0198 62.2689 58.0785L62.548 58.6096ZM63.0468 58.1726C64.7225 55.5395 66.0774 52.7154 67.0827 49.7606L66.5146 49.5674C65.5248 52.4769 64.1906 55.2577 62.5406 57.8504L63.0468 58.1726ZM67.0805 49.7669C67.2095 49.4135 67.1936 49.0233 67.036 48.6816L66.4911 48.9328C66.5823 49.1306 66.5916 49.3565 66.5169 49.5611L67.0805 49.7669ZM67.036 48.6816C66.8785 48.3399 66.5923 48.0744 66.2397 47.9429L66.0301 48.5051C66.2342 48.5812 66.4 48.735 66.4911 48.9328L67.036 48.6816Z" fill="#618E81" mask="url(#path-37-outside-15_1348_7510)"/>
<mask id="path-39-outside-16_1348_7510" maskUnits="userSpaceOnUse" x="18.6162" y="34.8281" width="10" height="7" fill="black">
<rect fill="white" x="18.6162" y="34.8281" width="10" height="7"/>
<path d="M27.4912 37.731C27.3675 37.8548 24.4537 40.8023 20.7412 40.8023C20.4428 40.8023 20.1567 40.6837 19.9457 40.4728C19.7347 40.2618 19.6162 39.9756 19.6162 39.6773C19.6162 39.3789 19.7347 39.0927 19.9457 38.8818C20.1567 38.6708 20.4428 38.5523 20.7412 38.5523C22.4705 38.4314 24.1116 37.7433 25.41 36.5948C25.5944 36.4506 25.7709 36.2966 25.9387 36.1335C26.1474 35.9373 26.423 35.8281 26.7093 35.8281C26.9957 35.8281 27.2713 35.9373 27.48 36.1335C27.6895 36.3443 27.8071 36.6294 27.8071 36.9266C27.8071 37.2238 27.6895 37.509 27.48 37.7198"/>
</mask>
<path d="M27.4912 37.731C27.3675 37.8548 24.4537 40.8023 20.7412 40.8023C20.4428 40.8023 20.1567 40.6837 19.9457 40.4728C19.7347 40.2618 19.6162 39.9756 19.6162 39.6773C19.6162 39.3789 19.7347 39.0927 19.9457 38.8818C20.1567 38.6708 20.4428 38.5523 20.7412 38.5523C22.4705 38.4314 24.1116 37.7433 25.41 36.5948C25.5944 36.4506 25.7709 36.2966 25.9387 36.1335C26.1474 35.9373 26.423 35.8281 26.7093 35.8281C26.9957 35.8281 27.2713 35.9373 27.48 36.1335C27.6895 36.3443 27.8071 36.6294 27.8071 36.9266C27.8071 37.2238 27.6895 37.509 27.48 37.7198" fill="#618E81"/>
<path d="M20.7412 38.5523V38.8523H20.7517L20.7621 38.8515L20.7412 38.5523ZM25.41 36.5948L25.2252 36.3584L25.218 36.364L25.2112 36.3701L25.41 36.5948ZM25.9387 36.1335L25.7332 35.9149L25.7296 35.9184L25.9387 36.1335ZM27.48 36.1335L27.6928 35.9219L27.6855 35.915L27.48 36.1335ZM27.2791 37.5189C27.2241 37.5739 26.4833 38.3235 25.3034 39.0584C24.1208 39.795 22.5199 40.5023 20.7412 40.5023V41.1023C22.675 41.1023 24.3873 40.3358 25.6206 39.5677C26.8566 38.7979 27.6346 38.0119 27.7033 37.9431L27.2791 37.5189ZM20.7412 40.5023C20.5224 40.5023 20.3126 40.4153 20.1578 40.2606L19.7336 40.6849C20.0008 40.9521 20.3633 41.1023 20.7412 41.1023V40.5023ZM20.1578 40.2606C20.0031 40.1059 19.9162 39.8961 19.9162 39.6773H19.3162C19.3162 40.0552 19.4663 40.4177 19.7336 40.6849L20.1578 40.2606ZM19.9162 39.6773C19.9162 39.4585 20.0031 39.2486 20.1578 39.0939L19.7336 38.6696C19.4663 38.9369 19.3162 39.2993 19.3162 39.6773H19.9162ZM20.1578 39.0939C20.3126 38.9392 20.5224 38.8523 20.7412 38.8523V38.2523C20.3633 38.2523 20.0008 38.4024 19.7336 38.6696L20.1578 39.0939ZM20.7621 38.8515C22.5573 38.7261 24.2609 38.0118 25.6087 36.8195L25.2112 36.3701C23.9623 37.4749 22.3837 38.1367 20.7203 38.253L20.7621 38.8515ZM25.5947 36.8311C25.7876 36.6803 25.9722 36.5193 26.1478 36.3487L25.7296 35.9184C25.5695 36.074 25.4011 36.2209 25.2252 36.3584L25.5947 36.8311ZM26.1442 36.3521C26.2972 36.2082 26.4993 36.1281 26.7093 36.1281V35.5281C26.3466 35.5281 25.9975 35.6665 25.7332 35.915L26.1442 36.3521ZM26.7093 36.1281C26.9193 36.1281 27.1215 36.2082 27.2745 36.3521L27.6855 35.915C27.4212 35.6665 27.0721 35.5281 26.7093 35.5281V36.1281ZM27.2672 36.345C27.4209 36.4996 27.5071 36.7087 27.5071 36.9266H28.1071C28.1071 36.5502 27.9581 36.189 27.6927 35.922L27.2672 36.345ZM27.5071 36.9266C27.5071 37.1446 27.4209 37.3537 27.2672 37.5083L27.6927 37.9313C27.9581 37.6643 28.1071 37.3031 28.1071 36.9266H27.5071Z" fill="#618E81" mask="url(#path-39-outside-16_1348_7510)"/>
<mask id="path-41-outside-17_1348_7510" maskUnits="userSpaceOnUse" x="24.4324" y="34.8281" width="4" height="3" fill="black">
<rect fill="white" x="24.4324" y="34.8281" width="4" height="3"/>
<path d="M27.5024 36.1448C27.6225 36.2725 27.7111 36.4266 27.7611 36.5948H25.4324C25.6168 36.4506 25.7933 36.2966 25.9611 36.1335C26.1698 35.9373 26.4454 35.8281 26.7317 35.8281C27.0181 35.8281 27.2937 35.9373 27.5024 36.1335"/>
</mask>
<path d="M27.5024 36.1448C27.6225 36.2725 27.7111 36.4266 27.7611 36.5948H25.4324C25.6168 36.4506 25.7933 36.2966 25.9611 36.1335C26.1698 35.9373 26.4454 35.8281 26.7317 35.8281C27.0181 35.8281 27.2937 35.9373 27.5024 36.1335" fill="#618E81"/>
<path d="M27.7611 36.5948V36.8948H28.1633L28.0487 36.5093L27.7611 36.5948ZM25.4324 36.5948L25.2476 36.3584L24.5615 36.8948H25.4324V36.5948ZM25.9611 36.1335L25.7556 35.9149L25.752 35.9184L25.9611 36.1335ZM27.2838 36.3503C27.3719 36.444 27.4369 36.557 27.4736 36.6803L28.0487 36.5093C27.9854 36.2963 27.8731 36.1011 27.7209 35.9393L27.2838 36.3503ZM27.7611 36.2948H25.4324V36.8948H27.7611V36.2948ZM25.6171 36.8311C25.81 36.6803 25.9946 36.5193 26.1702 36.3487L25.752 35.9184C25.5919 36.074 25.4235 36.2209 25.2476 36.3584L25.6171 36.8311ZM26.1666 36.3521C26.3196 36.2082 26.5217 36.1281 26.7317 36.1281V35.5281C26.369 35.5281 26.0199 35.6665 25.7556 35.915L26.1666 36.3521ZM26.7317 36.1281C26.9418 36.1281 27.1439 36.2082 27.2969 36.3521L27.7079 35.915C27.4436 35.6665 27.0945 35.5281 26.7317 35.5281V36.1281Z" fill="#618E81" mask="url(#path-41-outside-17_1348_7510)"/>
<path d="M13.125 34.4938H82.875C83.2132 34.4938 83.5375 34.3594 83.7766 34.1203C84.0157 33.8812 84.15 33.5569 84.15 33.2188C84.15 32.8806 84.0157 32.5563 83.7766 32.3172C83.5375 32.0781 83.2132 31.9437 82.875 31.9437H13.125C12.7868 31.9437 12.4625 32.0781 12.2234 32.3172C11.9843 32.5563 11.85 32.8806 11.85 33.2188C11.85 33.5569 11.9843 33.8812 12.2234 34.1203C12.4625 34.3594 12.7868 34.4938 13.125 34.4938Z" fill="#618E81" stroke="#618E81" stroke-width="0.3"/>
</svg>
