<svg width="97" height="66" viewBox="0 0 97 66" fill="none" xmlns="http://www.w3.org/2000/svg">
<path d="M81 32.5C53 32.5 48.5 32.5 16 32.5C16 14.5507 30.5507 0 48.5 0C66.4493 0 81 14.5507 81 32.5Z" fill="#C0E3C0"/>
<path d="M16 33C44 33 48.5 33 81 33C81 50.9493 66.4493 65.5 48.5 65.5C30.5507 65.5 16 50.9492 16 33Z" fill="#C4C4C4"/>
<mask id="path-3-outside-1_1348_7511" maskUnits="userSpaceOnUse" x="0" y="0" width="13" height="13" fill="black">
<rect fill="white" width="13" height="13"/>
<path d="M2.125 12.25C1.82663 12.25 1.54048 12.1315 1.3295 11.9205C1.11853 11.7095 1 11.4234 1 11.125V2.125C1 1.82663 1.11853 1.54048 1.3295 1.3295C1.54048 1.11853 1.82663 1 2.125 1H10.855C11.1534 1 11.4395 1.11853 11.6505 1.3295C11.8615 1.54048 11.98 1.82663 11.98 2.125C11.98 2.42337 11.8615 2.70952 11.6505 2.9205C11.4395 3.13147 11.1534 3.25 10.855 3.25H3.21625V11.125C3.21625 11.4234 3.09772 11.7095 2.88674 11.9205C2.67577 12.1315 2.38962 12.25 2.09125 12.25"/>
</mask>
<path d="M2.125 12.25C1.82663 12.25 1.54048 12.1315 1.3295 11.9205C1.11853 11.7095 1 11.4234 1 11.125V2.125C1 1.82663 1.11853 1.54048 1.3295 1.3295C1.54048 1.11853 1.82663 1 2.125 1H10.855C11.1534 1 11.4395 1.11853 11.6505 1.3295C11.8615 1.54048 11.98 1.82663 11.98 2.125C11.98 2.42337 11.8615 2.70952 11.6505 2.9205C11.4395 3.13147 11.1534 3.25 10.855 3.25H3.21625V11.125C3.21625 11.4234 3.09772 11.7095 2.88674 11.9205C2.67577 12.1315 2.38962 12.25 2.09125 12.25" fill="#303838"/>
<path d="M1 11.125H0.7H1ZM2.125 1V0.7V1ZM10.855 3.25V3.55V3.25ZM3.21625 3.25V2.95H2.91625V3.25H3.21625ZM3.21625 11.125H3.51625H3.21625ZM2.125 11.95C1.9062 11.95 1.69635 11.8631 1.54164 11.7084L1.11737 12.1326C1.38461 12.3999 1.74707 12.55 2.125 12.55V11.95ZM1.54164 11.7084C1.38692 11.5536 1.3 11.3438 1.3 11.125H0.7C0.7 11.5029 0.850134 11.8654 1.11737 12.1326L1.54164 11.7084ZM1.3 11.125V2.125H0.7V11.125H1.3ZM1.3 2.125C1.3 1.9062 1.38692 1.69635 1.54164 1.54164L1.11737 1.11737C0.850134 1.38461 0.7 1.74707 0.7 2.125H1.3ZM1.54164 1.54164C1.69635 1.38692 1.9062 1.3 2.125 1.3V0.7C1.74707 0.7 1.38461 0.850134 1.11737 1.11737L1.54164 1.54164ZM2.125 1.3H10.855V0.7H2.125V1.3ZM10.855 1.3C11.0738 1.3 11.2836 1.38692 11.4384 1.54164L11.8626 1.11737C11.5954 0.850134 11.2329 0.7 10.855 0.7V1.3ZM11.4384 1.54164C11.5931 1.69635 11.68 1.9062 11.68 2.125H12.28C12.28 1.74707 12.1299 1.38461 11.8626 1.11737L11.4384 1.54164ZM11.68 2.125C11.68 2.3438 11.5931 2.55365 11.4384 2.70836L11.8626 3.13263C12.1299 2.86539 12.28 2.50293 12.28 2.125H11.68ZM11.4384 2.70836C11.2836 2.86308 11.0738 2.95 10.855 2.95V3.55C11.2329 3.55 11.5954 3.39987 11.8626 3.13263L11.4384 2.70836ZM10.855 2.95H3.21625V3.55H10.855V2.95ZM2.91625 3.25V11.125H3.51625V3.25H2.91625ZM2.91625 11.125C2.91625 11.3438 2.82933 11.5536 2.67461 11.7084L3.09888 12.1326C3.36612 11.8654 3.51625 11.5029 3.51625 11.125H2.91625ZM2.67461 11.7084C2.5199 11.8631 2.31005 11.95 2.09125 11.95V12.55C2.46918 12.55 2.83164 12.3999 3.09888 12.1326L2.67461 11.7084Z" fill="#303838" mask="url(#path-3-outside-1_1348_7511)"/>
<mask id="path-5-outside-2_1348_7511" maskUnits="userSpaceOnUse" x="83.9426" y="1" width="13" height="13" fill="black">
<rect fill="white" x="83.9426" y="1" width="13" height="13"/>
<path d="M94.8156 13C94.5167 13 94.23 12.8841 94.0186 12.6778C93.8073 12.4715 93.6885 12.1917 93.6885 11.9V4.2H86.0697C85.7708 4.2 85.4841 4.08411 85.2727 3.87782C85.0614 3.67153 84.9426 3.39174 84.9426 3.1C84.9426 2.80826 85.0614 2.52847 85.2727 2.32218C85.4841 2.11589 85.7708 2 86.0697 2H94.8156C95.1145 2 95.4012 2.11589 95.6125 2.32218C95.8239 2.52847 95.9426 2.80826 95.9426 3.1V11.9C95.9426 12.1917 95.8239 12.4715 95.6125 12.6778C95.4012 12.8841 95.1145 13 94.8156 13"/>
</mask>
<path d="M94.8156 13C94.5167 13 94.23 12.8841 94.0186 12.6778C93.8073 12.4715 93.6885 12.1917 93.6885 11.9V4.2H86.0697C85.7708 4.2 85.4841 4.08411 85.2727 3.87782C85.0614 3.67153 84.9426 3.39174 84.9426 3.1C84.9426 2.80826 85.0614 2.52847 85.2727 2.32218C85.4841 2.11589 85.7708 2 86.0697 2H94.8156C95.1145 2 95.4012 2.11589 95.6125 2.32218C95.8239 2.52847 95.9426 2.80826 95.9426 3.1V11.9C95.9426 12.1917 95.8239 12.4715 95.6125 12.6778C95.4012 12.8841 95.1145 13 94.8156 13" fill="#303838"/>
<path d="M93.6885 4.2H93.9885V3.9H93.6885V4.2ZM86.0697 4.2V4.5V4.2ZM86.0697 2V1.7V2ZM94.8156 12.7C94.5939 12.7 94.3827 12.614 94.2282 12.4631L93.8091 12.8925C94.0772 13.1542 94.4394 13.3 94.8156 13.3V12.7ZM94.2282 12.4631C94.0738 12.3125 93.9885 12.1098 93.9885 11.9H93.3885C93.3885 12.2737 93.5407 12.6306 93.8091 12.8925L94.2282 12.4631ZM93.9885 11.9V4.2H93.3885V11.9H93.9885ZM93.6885 3.9H86.0697V4.5H93.6885V3.9ZM86.0697 3.9C85.848 3.9 85.6368 3.81399 85.4823 3.66312L85.0632 4.09251C85.3313 4.35423 85.6935 4.5 86.0697 4.5V3.9ZM85.4823 3.66312C85.3279 3.5125 85.2426 3.30979 85.2426 3.1H84.6426C84.6426 3.47369 84.7948 3.83055 85.0632 4.09251L85.4823 3.66312ZM85.2426 3.1C85.2426 2.89021 85.3279 2.6875 85.4823 2.53688L85.0632 2.10749C84.7948 2.36945 84.6426 2.72631 84.6426 3.1H85.2426ZM85.4823 2.53688C85.6368 2.38601 85.848 2.3 86.0697 2.3V1.7C85.6935 1.7 85.3313 1.84577 85.0632 2.10749L85.4823 2.53688ZM86.0697 2.3H94.8156V1.7H86.0697V2.3ZM94.8156 2.3C95.0372 2.3 95.2484 2.38601 95.403 2.53688L95.8221 2.10749C95.5539 1.84577 95.1917 1.7 94.8156 1.7V2.3ZM95.403 2.53688C95.5573 2.6875 95.6426 2.89021 95.6426 3.1H96.2426C96.2426 2.72631 96.0905 2.36945 95.8221 2.10749L95.403 2.53688ZM95.6426 3.1V11.9H96.2426V3.1H95.6426ZM95.6426 11.9C95.6426 12.1098 95.5573 12.3125 95.403 12.4631L95.8221 12.8925C96.0905 12.6306 96.2426 12.2737 96.2426 11.9H95.6426ZM95.403 12.4631C95.2484 12.614 95.0372 12.7 94.8156 12.7V13.3C95.1917 13.3 95.5539 13.1542 95.8221 12.8925L95.403 12.4631Z" fill="#303838" mask="url(#path-5-outside-2_1348_7511)"/>
<path d="M2.125 65.15H10.855C11.1932 65.15 11.5175 65.0157 11.7566 64.7766C11.9957 64.5375 12.13 64.2132 12.13 63.875C12.13 63.5368 11.9957 63.2125 11.7566 62.9734C11.5175 62.7343 11.1932 62.6 10.855 62.6H3.4V54.875C3.4 54.5368 3.26567 54.2125 3.02656 53.9734C2.78745 53.7343 2.46315 53.6 2.125 53.6C1.78685 53.6 1.46255 53.7343 1.22344 53.9734C0.98433 54.2125 0.85 54.5368 0.85 54.875V63.875C0.85 64.2132 0.98433 64.5375 1.22344 64.7766C1.46255 65.0157 1.78685 65.15 2.125 65.15Z" fill="#303838" stroke="#303838" stroke-width="0.3"/>
<mask id="path-8-outside-3_1348_7511" maskUnits="userSpaceOnUse" x="83.9426" y="53" width="13" height="13" fill="black">
<rect fill="white" x="83.9426" y="53" width="13" height="13"/>
<path d="M94.8156 65H86.0697C85.7708 65 85.4841 64.8869 85.2727 64.6855C85.0614 64.4841 84.9426 64.2109 84.9426 63.9261C84.9426 63.6413 85.0614 63.3681 85.2727 63.1667C85.4841 62.9654 85.7708 62.8522 86.0697 62.8522H93.7223V55.335C93.6807 55.1766 93.6775 55.0113 93.7129 54.8516C93.7484 54.6919 93.8216 54.542 93.927 54.4133C94.0324 54.2846 94.1672 54.1804 94.3212 54.1088C94.4752 54.0372 94.6442 54 94.8156 54C94.9869 54 95.156 54.0372 95.31 54.1088C95.4639 54.1804 95.5987 54.2846 95.7041 54.4133C95.8095 54.542 95.8827 54.6919 95.9182 54.8516C95.9537 55.0113 95.9505 55.1766 95.9088 55.335V63.9261C95.9088 64.2109 95.7901 64.4841 95.5787 64.6855C95.3673 64.8869 95.0807 65 94.7818 65"/>
</mask>
<path d="M94.8156 65H86.0697C85.7708 65 85.4841 64.8869 85.2727 64.6855C85.0614 64.4841 84.9426 64.2109 84.9426 63.9261C84.9426 63.6413 85.0614 63.3681 85.2727 63.1667C85.4841 62.9654 85.7708 62.8522 86.0697 62.8522H93.7223V55.335C93.6807 55.1766 93.6775 55.0113 93.7129 54.8516C93.7484 54.6919 93.8216 54.542 93.927 54.4133C94.0324 54.2846 94.1672 54.1804 94.3212 54.1088C94.4752 54.0372 94.6442 54 94.8156 54C94.9869 54 95.156 54.0372 95.31 54.1088C95.4639 54.1804 95.5987 54.2846 95.7041 54.4133C95.8095 54.542 95.8827 54.6919 95.9182 54.8516C95.9537 55.0113 95.9505 55.1766 95.9088 55.335V63.9261C95.9088 64.2109 95.7901 64.4841 95.5787 64.6855C95.3673 64.8869 95.0807 65 94.7818 65" fill="#303838"/>
<path d="M93.7223 62.8522V63.1522H94.0223V62.8522H93.7223ZM93.7223 55.335H94.0223V55.2962L94.0125 55.2586L93.7223 55.335ZM95.9088 55.335L95.6187 55.2586L95.6088 55.2962V55.335H95.9088ZM94.8156 64.7H86.0697V65.3H94.8156V64.7ZM86.0697 64.7C85.8458 64.7 85.6338 64.6151 85.4797 64.4683L85.0658 64.9027C85.3344 65.1586 85.6958 65.3 86.0697 65.3V64.7ZM85.4797 64.4683C85.3261 64.3219 85.2426 64.1266 85.2426 63.9261H84.6426C84.6426 64.2953 84.7967 64.6462 85.0658 64.9027L85.4797 64.4683ZM85.2426 63.9261C85.2426 63.7257 85.3261 63.5303 85.4797 63.3839L85.0658 62.9496C84.7967 63.206 84.6426 63.5569 84.6426 63.9261H85.2426ZM85.4797 63.3839C85.6338 63.2371 85.8458 63.1522 86.0697 63.1522V62.5522C85.6958 62.5522 85.3344 62.6936 85.0658 62.9496L85.4797 63.3839ZM86.0697 63.1522H93.7223V62.5522H86.0697V63.1522ZM94.0223 62.8522V55.335H93.4223V62.8522H94.0223ZM94.0125 55.2586C93.983 55.1465 93.9807 55.0296 94.0058 54.9166L93.4201 54.7865C93.3742 54.993 93.3784 55.2067 93.4322 55.4113L94.0125 55.2586ZM94.0058 54.9166C94.0309 54.8036 94.083 54.6963 94.1591 54.6033L93.6949 54.2232C93.5603 54.3876 93.4659 54.5802 93.4201 54.7865L94.0058 54.9166ZM94.1591 54.6033C94.2353 54.5103 94.3338 54.4338 94.4477 54.3808L94.1947 53.8368C94.0007 53.927 93.8295 54.0588 93.6949 54.2232L94.1591 54.6033ZM94.4477 54.3808C94.5617 54.3278 94.6875 54.3 94.8156 54.3V53.7C94.601 53.7 94.3887 53.7466 94.1947 53.8368L94.4477 54.3808ZM94.8156 54.3C94.9436 54.3 95.0695 54.3278 95.1834 54.3808L95.4365 53.8368C95.2425 53.7466 95.0302 53.7 94.8156 53.7V54.3ZM95.1834 54.3808C95.2974 54.4338 95.3958 54.5103 95.472 54.6033L95.9362 54.2232C95.8016 54.0588 95.6305 53.927 95.4365 53.8368L95.1834 54.3808ZM95.472 54.6033C95.5482 54.6963 95.6002 54.8036 95.6253 54.9166L96.2111 54.7865C96.1652 54.5802 96.0709 54.3876 95.9362 54.2232L95.472 54.6033ZM95.6253 54.9166C95.6504 55.0296 95.6482 55.1465 95.6187 55.2586L96.1989 55.4113C96.2527 55.2067 96.2569 54.993 96.2111 54.7865L95.6253 54.9166ZM95.6088 55.335V63.9261H96.2088V55.335H95.6088ZM95.6088 63.9261C95.6088 64.1266 95.5254 64.3219 95.3718 64.4683L95.7857 64.9027C96.0548 64.6462 96.2088 64.2953 96.2088 63.9261H95.6088ZM95.3718 64.4683C95.2177 64.6151 95.0057 64.7 94.7818 64.7V65.3C95.1557 65.3 95.517 65.1586 95.7857 64.9027L95.3718 64.4683Z" fill="#303838" mask="url(#path-8-outside-3_1348_7511)"/>
<mask id="path-10-outside-4_1348_7511" maskUnits="userSpaceOnUse" x="18.875" y="11.3438" width="11" height="18" fill="black">
<rect fill="white" x="18.875" y="11.3438" width="11" height="18"/>
<path d="M29.1337 14.3154C24.375 18.4329 22.6763 24.9017 22.125 28.8392H19.875C20.4487 24.5979 22.215 17.3417 27.75 12.5829C27.9768 12.4054 28.263 12.3216 28.5498 12.3488C28.8365 12.376 29.1019 12.5121 29.2912 12.7292C29.386 12.8429 29.4573 12.9741 29.5013 13.1154C29.5452 13.2567 29.5608 13.4053 29.5472 13.5527C29.5336 13.7 29.4911 13.8432 29.4221 13.9741C29.3531 14.105 29.2589 14.221 29.145 14.3154"/>
</mask>
<path d="M29.1337 14.3154C24.375 18.4329 22.6763 24.9017 22.125 28.8392H19.875C20.4487 24.5979 22.215 17.3417 27.75 12.5829C27.9768 12.4054 28.263 12.3216 28.5498 12.3488C28.8365 12.376 29.1019 12.5121 29.2912 12.7292C29.386 12.8429 29.4573 12.9741 29.5013 13.1154C29.5452 13.2567 29.5608 13.4053 29.5472 13.5527C29.5336 13.7 29.4911 13.8432 29.4221 13.9741C29.3531 14.105 29.2589 14.221 29.145 14.3154" fill="#303838"/>
<path d="M22.125 28.8392V29.1392H22.3859L22.4221 28.8808L22.125 28.8392ZM19.875 28.8392L19.5777 28.799L19.5317 29.1392H19.875V28.8392ZM27.75 12.5829L27.5649 12.3465L27.5544 12.3555L27.75 12.5829ZM29.2913 12.7292L29.5218 12.5371L29.5173 12.532L29.2913 12.7292ZM28.9375 14.0886C24.0946 18.2788 22.3821 24.8388 21.8279 28.7976L22.4221 28.8808C22.9704 24.9646 24.6554 18.5871 29.33 14.5423L28.9375 14.0886ZM22.125 28.5392H19.875V29.1392H22.125V28.5392ZM20.1723 28.8794C20.7433 24.6585 22.4964 17.4954 27.9456 12.8104L27.5544 12.3555C21.9336 17.1879 20.1542 24.5374 19.5777 28.799L20.1723 28.8794ZM27.9349 12.8192C28.1012 12.6889 28.3112 12.6275 28.5214 12.6474L28.5781 12.0501C28.2149 12.0157 27.8523 12.1218 27.5651 12.3467L27.9349 12.8192ZM28.5214 12.6474C28.7317 12.6674 28.9263 12.7672 29.0652 12.9264L29.5173 12.532C29.2775 12.257 28.9413 12.0846 28.5781 12.0501L28.5214 12.6474ZM29.0608 12.9212C29.1302 13.0046 29.1826 13.1009 29.2148 13.2045L29.7878 13.0264C29.7321 12.8474 29.6417 12.6811 29.5217 12.5371L29.0608 12.9212ZM29.2148 13.2045C29.247 13.3081 29.2585 13.4171 29.2485 13.5251L29.846 13.5802C29.8632 13.3936 29.8434 13.2054 29.7878 13.0264L29.2148 13.2045ZM29.2485 13.5251C29.2385 13.6332 29.2074 13.7382 29.1567 13.8342L29.6875 14.114C29.7749 13.9483 29.8288 13.7668 29.846 13.5802L29.2485 13.5251ZM29.1567 13.8342C29.1061 13.9302 29.0371 14.0152 28.9535 14.0845L29.3365 14.5464C29.4808 14.4268 29.6 14.2798 29.6875 14.114L29.1567 13.8342Z" fill="#303838" mask="url(#path-10-outside-4_1348_7511)"/>
<mask id="path-12-outside-5_1348_7511" maskUnits="userSpaceOnUse" x="29.8596" y="2" width="37" height="10" fill="black">
<rect fill="white" x="29.8596" y="2" width="37" height="10"/>
<path d="M32.6662 10.675C32.8125 10.5625 46.9987 -1.50874 63.9525 10.7425C64.1343 10.8695 64.3495 10.94 64.5712 10.945C64.7478 10.9424 64.9213 10.8983 65.0776 10.8162C65.234 10.7341 65.3688 10.6164 65.4712 10.4725C65.5576 10.3516 65.6191 10.2148 65.6522 10.07C65.6854 9.92514 65.6896 9.77518 65.6645 9.62875C65.6394 9.48231 65.5855 9.3423 65.506 9.21679C65.4265 9.09129 65.3229 8.98277 65.2012 8.89751C46.875 -4.34374 31.4175 8.83001 31.26 8.96501C31.1469 9.06025 31.0537 9.17685 30.9857 9.30813C30.9177 9.43942 30.8762 9.58283 30.8637 9.73015C30.8511 9.87748 30.8678 10.0258 30.9126 10.1667C30.9574 10.3076 31.0296 10.4383 31.125 10.5513C31.2151 10.6631 31.327 10.7555 31.454 10.8227C31.5809 10.8899 31.7202 10.9305 31.8634 10.9421C32.0065 10.9536 32.1506 10.9359 32.2867 10.89C32.4228 10.8441 32.5481 10.771 32.655 10.675"/>
</mask>
<path d="M32.6662 10.675C32.8125 10.5625 46.9987 -1.50874 63.9525 10.7425C64.1343 10.8695 64.3495 10.94 64.5712 10.945C64.7478 10.9424 64.9213 10.8983 65.0776 10.8162C65.234 10.7341 65.3688 10.6164 65.4712 10.4725C65.5576 10.3516 65.6191 10.2148 65.6522 10.07C65.6854 9.92514 65.6896 9.77518 65.6645 9.62875C65.6394 9.48231 65.5855 9.3423 65.506 9.21679C65.4265 9.09129 65.3229 8.98277 65.2012 8.89751C46.875 -4.34374 31.4175 8.83001 31.26 8.96501C31.1469 9.06025 31.0537 9.17685 30.9857 9.30813C30.9177 9.43942 30.8762 9.58283 30.8637 9.73015C30.8511 9.87748 30.8678 10.0258 30.9126 10.1667C30.9574 10.3076 31.0296 10.4383 31.125 10.5513C31.2151 10.6631 31.327 10.7555 31.454 10.8227C31.5809 10.8899 31.7202 10.9305 31.8634 10.9421C32.0065 10.9536 32.1506 10.9359 32.2867 10.89C32.4228 10.8441 32.5481 10.771 32.655 10.675" fill="#303838"/>
<path d="M63.9525 10.7425L63.7768 10.9857L63.7807 10.9884L63.9525 10.7425ZM64.5712 10.945L64.5644 11.2451L64.5756 11.245L64.5712 10.945ZM65.4712 10.4725L65.2271 10.2982L65.2268 10.2985L65.4712 10.4725ZM65.2012 8.89751L65.0255 9.14071L65.0291 9.1432L65.2012 8.89751ZM31.26 8.96501L31.4532 9.1945L31.4552 9.19279L31.26 8.96501ZM31.125 10.5513L31.3587 10.3631L31.3542 10.3577L31.125 10.5513ZM32.8491 10.9128C33.001 10.796 47.012 -1.12902 63.7768 10.9857L64.1282 10.4994C55.5692 4.31442 47.6892 4.26197 41.93 5.78229C39.0552 6.54118 36.7127 7.69049 35.0795 8.65709C34.2626 9.14057 33.6223 9.57885 33.1805 9.90064C32.9596 10.0616 32.7884 10.1934 32.6696 10.2871C32.6102 10.334 32.564 10.3713 32.5313 10.3979C32.5151 10.4111 32.5022 10.4217 32.4931 10.4291C32.4812 10.4389 32.4808 10.4392 32.4833 10.4372L32.8491 10.9128ZM63.7807 10.9884C64.0109 11.1493 64.2836 11.2385 64.5644 11.2449L64.5781 10.6451C64.4155 10.6414 64.2576 10.5897 64.1243 10.4966L63.7807 10.9884ZM64.5756 11.245C64.7993 11.2417 65.019 11.1858 65.2171 11.0818L64.9382 10.5506C64.8235 10.6108 64.6963 10.6431 64.5668 10.645L64.5756 11.245ZM65.2171 11.0818C65.4151 10.9778 65.5859 10.8287 65.7156 10.6465L65.2268 10.2985C65.1517 10.404 65.0529 10.4904 64.9382 10.5506L65.2171 11.0818ZM65.7154 10.6468C65.8247 10.4937 65.9027 10.3204 65.9447 10.1369L65.3598 10.003C65.3355 10.1092 65.2904 10.2095 65.2271 10.2982L65.7154 10.6468ZM65.9447 10.1369C65.9867 9.95349 65.9919 9.76354 65.9601 9.57806L65.3688 9.67943C65.3872 9.78682 65.3841 9.89679 65.3598 10.003L65.9447 10.1369ZM65.9601 9.57806C65.9284 9.39257 65.8601 9.21522 65.7594 9.05625L65.2526 9.37734C65.3109 9.46938 65.3504 9.57205 65.3688 9.67943L65.9601 9.57806ZM65.7594 9.05625C65.6587 8.89728 65.5275 8.75982 65.3734 8.65183L65.0291 9.1432C65.1183 9.20572 65.1943 9.2853 65.2526 9.37734L65.7594 9.05625ZM65.3769 8.65434C56.1309 1.97382 47.5893 1.95018 41.3397 3.6254C35.1032 5.29706 31.1595 8.65602 31.0647 8.73724L31.4552 9.19279C31.518 9.13901 35.3817 5.84359 41.495 4.20494C47.595 2.56984 55.9453 2.57996 65.0255 9.14068L65.3769 8.65434ZM31.0668 8.73553C30.9235 8.85617 30.8054 9.00386 30.7193 9.17016L31.2521 9.44611C31.3019 9.34983 31.3703 9.26433 31.4532 9.19449L31.0668 8.73553ZM30.7193 9.17016C30.6331 9.33645 30.5806 9.5181 30.5648 9.70471L31.1626 9.75559C31.1718 9.64756 31.2022 9.54239 31.2521 9.44611L30.7193 9.17016ZM30.5648 9.70471C30.5489 9.89132 30.5699 10.0792 30.6267 10.2577L31.1985 10.0757C31.1656 9.97242 31.1534 9.86363 31.1626 9.75559L30.5648 9.70471ZM30.6267 10.2577C30.6835 10.4362 30.7749 10.6017 30.8957 10.7448L31.3542 10.3577C31.2843 10.2749 31.2314 10.1791 31.1985 10.0757L30.6267 10.2577ZM30.8913 10.7394C31.007 10.883 31.1507 11.0016 31.3136 11.0878L31.5943 10.5575C31.5034 10.5094 31.4232 10.4432 31.3586 10.3631L30.8913 10.7394ZM31.3136 11.0878C31.4766 11.1741 31.6554 11.2262 31.8392 11.2411L31.8876 10.643C31.785 10.6347 31.6852 10.6056 31.5943 10.5575L31.3136 11.0878ZM31.8392 11.2411C32.023 11.256 32.2079 11.2332 32.3826 11.1743L32.1908 10.6058C32.0933 10.6387 31.9901 10.6513 31.8876 10.643L31.8392 11.2411ZM32.3826 11.1743C32.5573 11.1153 32.7181 11.0214 32.8554 10.8983L32.4546 10.4517C32.378 10.5205 32.2883 10.5729 32.1908 10.6058L32.3826 11.1743Z" fill="#303838" mask="url(#path-12-outside-5_1348_7511)"/>
<mask id="path-14-outside-6_1348_7511" maskUnits="userSpaceOnUse" x="72.043" y="34.5938" width="5" height="6" fill="black">
<rect fill="white" x="72.043" y="34.5938" width="5" height="6"/>
<path d="M73.7511 35.5938H76.0011C75.8042 36.6733 75.5297 37.7373 75.1799 38.7775C75.1045 38.9935 74.965 39.1813 74.7801 39.316C74.5952 39.4506 74.3736 39.5257 74.1449 39.5312C74.0255 39.5483 73.9043 39.5483 73.7849 39.5312C73.5045 39.4297 73.2759 39.221 73.1493 38.951C73.0228 38.6809 73.0086 38.3717 73.1099 38.0913C73.3818 37.2921 73.6035 36.4768 73.7736 35.65"/>
</mask>
<path d="M73.7511 35.5938H76.0011C75.8042 36.6733 75.5297 37.7373 75.1799 38.7775C75.1045 38.9935 74.965 39.1813 74.7801 39.316C74.5952 39.4506 74.3736 39.5257 74.1449 39.5312C74.0255 39.5483 73.9043 39.5483 73.7849 39.5312C73.5045 39.4297 73.2759 39.221 73.1493 38.951C73.0228 38.6809 73.0086 38.3717 73.1099 38.0913C73.3818 37.2921 73.6035 36.4768 73.7736 35.65" fill="#303838"/>
<path d="M76.0011 35.5938L76.2963 35.6476L76.3608 35.2937H76.0011V35.5938ZM75.1799 38.7775L75.4631 38.8764L75.4642 38.8731L75.1799 38.7775ZM74.1449 39.5312L74.1377 39.2313L74.12 39.2318L74.1024 39.2343L74.1449 39.5312ZM73.7849 39.5312L73.6827 39.8133L73.7118 39.8238L73.7424 39.8282L73.7849 39.5312ZM73.1099 38.0913L73.3921 38.1932L73.3939 38.1879L73.1099 38.0913ZM73.7511 35.8938H76.0011V35.2937H73.7511V35.8938ZM75.706 35.5399C75.5116 36.6053 75.2408 37.6554 74.8955 38.6819L75.4642 38.8731C75.8186 37.8193 76.0967 36.7414 76.2963 35.6476L75.706 35.5399ZM74.8967 38.6786C74.8414 38.837 74.7391 38.9747 74.6035 39.0735L74.9567 39.5585C75.1909 39.3879 75.3676 39.15 75.4631 38.8764L74.8967 38.6786ZM74.6035 39.0735C74.4679 39.1722 74.3054 39.2273 74.1377 39.2313L74.1521 39.8312C74.4418 39.8242 74.7225 39.7291 74.9567 39.5585L74.6035 39.0735ZM74.1024 39.2343C74.0112 39.2473 73.9186 39.2473 73.8274 39.2343L73.7424 39.8282C73.89 39.8493 74.0398 39.8493 74.1874 39.8282L74.1024 39.2343ZM73.887 39.2492C73.6814 39.1747 73.5138 39.0217 73.421 38.8236L72.8777 39.0783C73.038 39.4203 73.3276 39.6847 73.6827 39.8133L73.887 39.2492ZM73.421 38.8236C73.3281 38.6256 73.3177 38.3989 73.392 38.1932L72.8277 37.9893C72.6994 38.3446 72.7174 38.7363 72.8777 39.0783L73.421 38.8236ZM73.3939 38.1879C73.6698 37.3769 73.8948 36.5495 74.0675 35.7105L73.4798 35.5895C73.3122 36.4041 73.0938 37.2073 72.8259 37.9946L73.3939 38.1879Z" fill="#303838" mask="url(#path-14-outside-6_1348_7511)"/>
<path d="M73.895 28.8635L73.9122 28.9938H74.0437H76.2712H76.4393L76.4202 28.8267C75.7459 22.9413 73.497 17.3466 69.9105 12.6317L69.9109 12.6315L69.9034 12.623C69.6871 12.379 69.3854 12.2271 69.0605 12.1986C68.7365 12.1702 68.4139 12.2668 68.1587 12.4684C68.0193 12.5718 67.9024 12.7026 67.8152 12.8527C67.7276 13.0036 67.672 13.1709 67.6516 13.3442C67.6313 13.5175 67.6468 13.6932 67.6971 13.8603C67.747 14.0259 67.8301 14.1797 67.9413 14.3123C71.145 18.5695 73.1957 23.5815 73.895 28.8635Z" fill="#303838" stroke="#303838" stroke-width="0.3"/>
<mask id="path-17-outside-7_1348_7511" maskUnits="userSpaceOnUse" x="26.0073" y="9.07031" width="27" height="21" fill="black">
<rect fill="white" x="26.0073" y="9.07031" width="27" height="21"/>
<path d="M52.1736 11.3359C52.1536 11.6204 52.0263 11.8867 51.8175 12.0809C51.6086 12.2751 51.3338 12.3828 51.0486 12.3821C34.7923 11.2571 30.3823 23.6321 29.2573 28.8409H27.0073C28.1323 23.4634 32.9361 8.9171 51.1498 10.1434C51.4423 10.1692 51.7132 10.3084 51.9045 10.5312C52.0958 10.754 52.1923 11.0428 52.1736 11.3359"/>
</mask>
<path d="M52.1736 11.3359C52.1536 11.6204 52.0263 11.8867 51.8175 12.0809C51.6086 12.2751 51.3338 12.3828 51.0486 12.3821C34.7923 11.2571 30.3823 23.6321 29.2573 28.8409H27.0073C28.1323 23.4634 32.9361 8.9171 51.1498 10.1434C51.4423 10.1692 51.7132 10.3084 51.9045 10.5312C52.0958 10.754 52.1923 11.0428 52.1736 11.3359" fill="#303838"/>
<path d="M51.0486 12.3821L51.0279 12.6814L51.0378 12.6821L51.0478 12.6821L51.0486 12.3821ZM29.2573 28.8409V29.1409H29.4994L29.5506 28.9042L29.2573 28.8409ZM27.0073 28.8409L26.7137 28.7794L26.6381 29.1409H27.0073V28.8409ZM51.1498 10.1434L51.1762 9.84445L51.17 9.84403L51.1498 10.1434ZM51.8743 11.3149C51.8597 11.5235 51.7663 11.7188 51.6132 11.8612L52.0218 12.3006C52.2863 12.0546 52.4475 11.7172 52.4728 11.3569L51.8743 11.3149ZM51.6132 11.8612C51.46 12.0037 51.2585 12.0826 51.0493 12.0821L51.0478 12.6821C51.4091 12.683 51.7572 12.5466 52.0218 12.3006L51.6132 11.8612ZM51.0693 12.0828C42.8508 11.5141 37.5944 14.3615 34.2567 18.0346C30.9311 21.6943 29.5319 26.1487 28.9641 28.7775L29.5506 28.9042C30.1078 26.3242 31.476 21.9868 34.7008 18.4381C37.9134 14.9027 42.9901 12.1251 51.0279 12.6814L51.0693 12.0828ZM29.2573 28.5409H27.0073V29.1409H29.2573V28.5409ZM27.301 28.9023C27.8586 26.237 29.3262 21.3131 32.8965 17.2127C36.4547 13.1263 42.1186 9.836 51.1297 10.4427L51.17 9.84403C41.9673 9.22446 36.1225 12.5941 32.444 16.8187C28.7778 21.0292 27.2811 26.0672 26.7137 28.7794L27.301 28.9023ZM51.1234 10.4422C51.338 10.4611 51.5366 10.5632 51.6768 10.7266L52.1321 10.3358C51.8898 10.0535 51.5467 9.87723 51.1762 9.84451L51.1234 10.4422ZM51.6768 10.7266C51.8171 10.89 51.8879 11.1018 51.8742 11.3167L52.473 11.355C52.4967 10.9838 52.3744 10.618 52.1321 10.3358L51.6768 10.7266Z" fill="#303838" mask="url(#path-17-outside-7_1348_7511)"/>
<path d="M67.1672 28.8603L67.1833 28.9954L67.3193 28.9925L69.4568 28.9475L69.6229 28.944L69.6025 28.7792C69.1444 25.0738 67.7638 21.5426 65.5871 18.5091C63.4104 15.4756 60.5073 13.0368 57.1438 11.4162L57.1354 11.4122L57.1267 11.4092C56.8169 11.3046 56.4787 11.323 56.1821 11.4606C55.8855 11.5983 55.6531 11.8446 55.5329 12.1487L55.5329 12.1487L55.5326 12.1495C55.4111 12.4625 55.418 12.8107 55.5516 13.1186C55.6848 13.4253 55.933 13.6674 56.2428 13.7928C59.1969 15.1639 61.7514 17.2677 63.6634 19.9043C65.5762 22.5419 66.7823 25.625 67.1672 28.8603Z" fill="#303838" stroke="#303838" stroke-width="0.3"/>
<path d="M69.7946 35.6082L69.8082 35.4496L69.6491 35.4454L67.5228 35.3891L67.3822 35.3854L67.3695 35.5254C67.1272 38.1834 66.6206 40.8106 65.8573 43.3681C65.7483 43.6852 65.7685 44.0325 65.9137 44.3348C66.0594 44.6381 66.3191 44.8715 66.6361 44.9842L66.6494 44.9889L66.6633 44.991C66.7762 45.0086 66.891 45.009 67.0039 44.9924C67.2699 44.9825 67.5261 44.8895 67.7367 44.7265C67.9496 44.5617 68.1048 44.3337 68.1802 44.0753C69.0064 41.3155 69.5473 38.4783 69.7946 35.6082Z" fill="#303838" stroke="#303838" stroke-width="0.3"/>
<mask id="path-21-outside-8_1348_7511" maskUnits="userSpaceOnUse" x="37.3267" y="16.0938" width="22" height="8" fill="black">
<rect fill="white" x="37.3267" y="16.0938" width="22" height="8"/>
<path d="M38.6064 21.2606C38.4097 21.4845 38.31 21.7773 38.3289 22.0747C38.3479 22.3721 38.4841 22.6498 38.7077 22.8469C38.9069 23.0227 39.162 23.1223 39.4277 23.1281C39.5843 23.1292 39.7393 23.0954 39.8813 23.0292C40.0233 22.9631 40.1489 22.8662 40.2489 22.7456C40.5077 22.4531 46.5489 15.6581 56.8764 22.0256C57.1288 22.1638 57.4246 22.2 57.703 22.1268C57.9813 22.0535 58.2209 21.8764 58.3727 21.6319C58.5257 21.3766 58.5715 21.0711 58.4998 20.7822C58.4281 20.4933 58.2448 20.2446 57.9902 20.0906C46.0539 12.7443 38.6852 21.2156 38.6064 21.2156"/>
</mask>
<path d="M38.6064 21.2606C38.4097 21.4845 38.31 21.7773 38.3289 22.0747C38.3479 22.3721 38.4841 22.6498 38.7077 22.8469C38.9069 23.0227 39.162 23.1223 39.4277 23.1281C39.5843 23.1292 39.7393 23.0954 39.8813 23.0292C40.0233 22.9631 40.1489 22.8662 40.2489 22.7456C40.5077 22.4531 46.5489 15.6581 56.8764 22.0256C57.1288 22.1638 57.4246 22.2 57.703 22.1268C57.9813 22.0535 58.2209 21.8764 58.3727 21.6319C58.5257 21.3766 58.5715 21.0711 58.4998 20.7822C58.4281 20.4933 58.2448 20.2446 57.9902 20.0906C46.0539 12.7443 38.6852 21.2156 38.6064 21.2156" fill="#303838"/>
<path d="M38.7077 22.8469L38.9062 22.6219L38.9061 22.6218L38.7077 22.8469ZM39.4277 23.1281L39.4211 23.4281L39.4256 23.4281L39.4277 23.1281ZM40.2489 22.7456L40.0241 22.5467L40.018 22.5541L40.2489 22.7456ZM56.8764 22.0256L56.719 22.281L56.7255 22.285L56.7323 22.2887L56.8764 22.0256ZM58.3727 21.6319L58.6276 21.79L58.6299 21.7862L58.3727 21.6319ZM57.9902 20.0906L57.8329 20.3461L57.8349 20.3473L57.9902 20.0906ZM38.381 21.0626C38.1319 21.3462 38.0055 21.7171 38.0296 22.0938L38.6283 22.0556C38.6144 21.8375 38.6876 21.6228 38.8318 21.4586L38.381 21.0626ZM38.0296 22.0938C38.0536 22.4705 38.2261 22.8222 38.5093 23.0719L38.9061 22.6218C38.7421 22.4773 38.6423 22.2736 38.6283 22.0556L38.0296 22.0938ZM38.5091 23.0718C38.7615 23.2945 39.0846 23.4207 39.4211 23.428L39.4342 22.8282C39.2393 22.8239 39.0523 22.7509 38.9062 22.6219L38.5091 23.0718ZM39.4256 23.4281C39.6267 23.4295 39.8257 23.3861 40.008 23.3012L39.7547 22.7573C39.6529 22.8047 39.5419 22.8289 39.4297 22.8281L39.4256 23.4281ZM40.008 23.3012C40.1903 23.2163 40.3515 23.0919 40.4798 22.9371L40.018 22.5541C39.9463 22.6405 39.8564 22.7099 39.7547 22.7573L40.008 23.3012ZM40.4736 22.9444C40.5878 22.8153 42.1203 21.0881 44.8813 20.1729C47.6271 19.2626 51.6274 19.1417 56.719 22.281L57.0338 21.7702C51.7979 18.542 47.6138 18.6349 44.6925 19.6033C41.7862 20.5668 40.1687 22.3834 40.0242 22.5468L40.4736 22.9444ZM56.7323 22.2887C57.0521 22.4638 57.4268 22.5097 57.7793 22.4169L57.6266 21.8366C57.4225 21.8904 57.2056 21.8638 57.0205 21.7625L56.7323 22.2887ZM57.7793 22.4169C58.1318 22.3241 58.4354 22.0998 58.6276 21.79L58.1177 21.4737C58.0065 21.653 57.8307 21.7829 57.6266 21.8366L57.7793 22.4169ZM58.6299 21.7862C58.8238 21.4628 58.8817 21.0759 58.7909 20.71L58.2086 20.8545C58.2612 21.0663 58.2277 21.2904 58.1154 21.4775L58.6299 21.7862ZM58.7909 20.71C58.7001 20.344 58.468 20.029 58.1454 19.8339L57.8349 20.3473C58.0216 20.4603 58.156 20.6426 58.2086 20.8545L58.7909 20.71ZM58.1474 19.8351C52.1004 16.1135 47.1789 16.3861 43.7504 17.6159C42.0426 18.2285 40.7142 19.0751 39.8076 19.7684C39.354 20.1153 39.0055 20.4242 38.7674 20.6468C38.6484 20.7581 38.5572 20.8477 38.4955 20.9085C38.4637 20.9397 38.4425 20.9606 38.4283 20.9741C38.4207 20.9814 38.4194 20.9824 38.4217 20.9805C38.4221 20.9801 38.4295 20.9737 38.4409 20.966C38.4463 20.9623 38.459 20.9539 38.4767 20.9453C38.4859 20.9408 38.5362 20.9156 38.6064 20.9156V21.5156C38.6772 21.5156 38.7283 21.4901 38.7386 21.4851C38.7574 21.476 38.7714 21.4668 38.7783 21.4621C38.7927 21.4524 38.8039 21.443 38.8092 21.4385C38.821 21.4285 38.8328 21.4175 38.8418 21.4089C38.8608 21.3908 38.887 21.365 38.9164 21.3361C38.9771 21.2763 39.0639 21.191 39.1773 21.0851C39.4039 20.8731 39.7372 20.5776 40.172 20.2451C41.0422 19.5796 42.3168 18.7676 43.953 18.1806C47.2126 17.0114 51.9436 16.7215 57.8329 20.3461L58.1474 19.8351Z" fill="#303838" mask="url(#path-21-outside-8_1348_7511)"/>
<mask id="path-23-outside-9_1348_7511" maskUnits="userSpaceOnUse" x="21.0613" y="34.5703" width="15" height="13" fill="black">
<rect fill="white" x="21.0613" y="34.5703" width="15" height="13"/>
<path d="M32.9586 35.5928H35.2086C34.8725 37.9842 33.844 40.225 32.2499 42.0391C29.9384 44.5494 26.7729 46.106 23.3736 46.4041H23.2499C23.1021 46.4122 22.9542 46.3911 22.8146 46.3421C22.675 46.2931 22.5464 46.217 22.4362 46.1183C22.2137 45.9189 22.0794 45.6393 22.063 45.3409C22.0549 45.1932 22.0759 45.0453 22.1249 44.9057C22.174 44.7661 22.25 44.6375 22.3487 44.5273C22.4475 44.4171 22.5669 44.3274 22.7003 44.2634C22.8337 44.1993 22.9784 44.1622 23.1261 44.1541C26.0112 43.9052 28.7012 42.5943 30.6749 40.4753C31.8871 39.0854 32.6928 37.3882 33.0036 35.5703"/>
</mask>
<path d="M32.9586 35.5928H35.2086C34.8725 37.9842 33.844 40.225 32.2499 42.0391C29.9384 44.5494 26.7729 46.106 23.3736 46.4041H23.2499C23.1021 46.4122 22.9542 46.3911 22.8146 46.3421C22.675 46.2931 22.5464 46.217 22.4362 46.1183C22.2137 45.9189 22.0794 45.6393 22.063 45.3409C22.0549 45.1932 22.0759 45.0453 22.1249 44.9057C22.174 44.7661 22.25 44.6375 22.3487 44.5273C22.4475 44.4171 22.5669 44.3274 22.7003 44.2634C22.8337 44.1993 22.9784 44.1622 23.1261 44.1541C26.0112 43.9052 28.7012 42.5943 30.6749 40.4753C31.8871 39.0854 32.6928 37.3882 33.0036 35.5703" fill="#303838"/>
<path d="M35.2086 35.5928L35.5057 35.6346L35.5537 35.2928H35.2086V35.5928ZM32.2499 42.0391L32.4706 42.2423L32.4752 42.2371L32.2499 42.0391ZM23.3736 46.4041V46.7041H23.3867L23.3998 46.7029L23.3736 46.4041ZM23.2499 46.4041V46.1041H23.2416L23.2334 46.1045L23.2499 46.4041ZM22.4362 46.1183L22.6364 45.8949L22.4362 46.1183ZM22.063 45.3409L21.7634 45.3574L22.063 45.3409ZM23.1261 44.1541L23.1426 44.4538L23.1519 44.453L23.1261 44.1541ZM30.6749 40.4753L30.8945 40.6799L30.9009 40.6725L30.6749 40.4753ZM32.9586 35.8928H35.2086V35.2928H32.9586V35.8928ZM34.9115 35.5511C34.5835 37.8845 33.58 40.071 32.0245 41.841L32.4752 42.2371C34.108 40.3791 35.1614 38.084 35.5057 35.6346L34.9115 35.5511ZM32.0292 41.8359C29.7684 44.2912 26.6722 45.8137 23.3474 46.1052L23.3998 46.7029C26.8736 46.3984 30.1085 44.8076 32.4705 42.2423L32.0292 41.8359ZM23.3736 46.1041H23.2499V46.7041H23.3736V46.1041ZM23.2334 46.1045C23.125 46.1105 23.0165 46.095 22.914 46.0591L22.7152 46.6252C22.892 46.6872 23.0793 46.7139 23.2663 46.7036L23.2334 46.1045ZM22.914 46.0591C22.8116 46.0231 22.7173 45.9673 22.6364 45.8949L22.2361 46.3418C22.3756 46.4668 22.5384 46.5631 22.7152 46.6252L22.914 46.0591ZM22.6364 45.8949C22.4731 45.7486 22.3746 45.5434 22.3625 45.3245L21.7634 45.3574C21.7842 45.7352 21.9542 46.0893 22.2361 46.3418L22.6364 45.8949ZM22.3625 45.3245C22.3566 45.2161 22.372 45.1075 22.408 45.0051L21.8419 44.8063C21.7798 44.9831 21.7531 45.1703 21.7634 45.3574L22.3625 45.3245ZM22.408 45.0051C22.444 44.9027 22.4998 44.8083 22.5722 44.7275L22.1253 44.3272C22.0003 44.4667 21.904 44.6295 21.8419 44.8063L22.408 45.0051ZM22.5722 44.7275C22.6446 44.6466 22.7323 44.5808 22.8301 44.5338L22.5704 43.9929C22.4015 44.074 22.2503 44.1876 22.1253 44.3272L22.5722 44.7275ZM22.8301 44.5338C22.928 44.4868 23.0342 44.4596 23.1426 44.4536L23.1096 43.8545C22.9226 43.8648 22.7393 43.9118 22.5704 43.9929L22.8301 44.5338ZM23.1519 44.453C26.111 44.1977 28.87 42.8532 30.8944 40.6798L30.4553 40.2708C28.5323 42.3354 25.9113 43.6127 23.1003 43.8552L23.1519 44.453ZM30.9009 40.6725C32.1494 39.241 32.9793 37.4931 33.2993 35.6209L32.7079 35.5198C32.4064 37.2833 31.6248 38.9297 30.4488 40.2781L30.9009 40.6725Z" fill="#303838" mask="url(#path-23-outside-9_1348_7511)"/>
<mask id="path-25-outside-10_1348_7511" maskUnits="userSpaceOnUse" x="32.9487" y="23.8438" width="5" height="6" fill="black">
<rect fill="white" x="32.9487" y="23.8438" width="5" height="6"/>
<path d="M37.02 26.364C36.7023 27.1738 36.4281 27.9999 36.1987 28.839H33.9487C34.2608 27.694 34.6364 26.5673 35.0737 25.464C35.1951 25.2223 35.3995 25.0323 35.6495 24.929C35.8995 24.8257 36.1784 24.8159 36.435 24.9015C36.7073 25.0202 36.9217 25.2417 37.0312 25.5178C37.1408 25.7939 37.1368 26.1021 37.02 26.3753"/>
</mask>
<path d="M37.02 26.364C36.7023 27.1738 36.4281 27.9999 36.1987 28.839H33.9487C34.2608 27.694 34.6364 26.5673 35.0737 25.464C35.1951 25.2223 35.3995 25.0323 35.6495 24.929C35.8995 24.8257 36.1784 24.8159 36.435 24.9015C36.7073 25.0202 36.9217 25.2417 37.0312 25.5178C37.1408 25.7939 37.1368 26.1021 37.02 26.3753" fill="#303838"/>
<path d="M36.1987 28.839V29.139H36.4277L36.4881 28.9181L36.1987 28.839ZM33.9487 28.839L33.6593 28.7601L33.556 29.139H33.9487V28.839ZM35.0737 25.464L34.8056 25.3294L34.7997 25.3412L34.7948 25.3535L35.0737 25.464ZM36.435 24.9015L36.5548 24.6265L36.5426 24.6211L36.5299 24.6169L36.435 24.9015ZM36.7407 26.2544C36.4191 27.0741 36.1416 27.9105 35.9093 28.7599L36.4881 28.9181C36.7147 28.0894 36.9854 27.2734 37.2993 26.4736L36.7407 26.2544ZM36.1987 28.539H33.9487V29.139H36.1987V28.539ZM34.2382 28.9179C34.5473 27.7836 34.9194 26.6675 35.3526 25.5746L34.7948 25.3535C34.3534 26.4671 33.9743 27.6044 33.6593 28.7601L34.2382 28.9179ZM35.3418 25.5986C35.4308 25.4213 35.5807 25.282 35.7641 25.2063L35.5349 24.6518C35.2183 24.7826 34.9593 25.0232 34.8056 25.3294L35.3418 25.5986ZM35.7641 25.2063C35.9474 25.1305 36.1519 25.1234 36.3401 25.1861L36.5299 24.6169C36.2048 24.5085 35.8516 24.5209 35.5349 24.6518L35.7641 25.2063ZM36.3151 25.1765C36.5149 25.2635 36.672 25.426 36.7524 25.6285L37.3101 25.4071C37.1713 25.0574 36.8998 24.7768 36.5548 24.6265L36.3151 25.1765ZM36.7524 25.6285C36.8328 25.831 36.8298 26.057 36.7441 26.2573L37.2958 26.4932C37.4438 26.1473 37.4489 25.7568 37.3101 25.4071L36.7524 25.6285Z" fill="#303838" mask="url(#path-25-outside-10_1348_7511)"/>
<path d="M39.6412 35.4437H39.5025L39.4917 35.5821C39.2018 39.3059 37.2875 46.5482 28.0505 49.683L28.0499 49.6832C27.7305 49.7933 27.4678 50.0256 27.3196 50.3292C27.1715 50.6325 27.1498 50.9821 27.259 51.3013C27.3403 51.5504 27.4964 51.7683 27.706 51.9255C27.9159 52.083 28.1693 52.1718 28.4316 52.1799L28.4316 52.18L28.4355 52.18C28.5723 52.1807 28.708 52.1549 28.835 52.1041C32.4368 51.0077 35.6211 48.844 37.967 45.899C40.3142 42.9524 41.7113 39.3624 41.9734 35.6042L41.9846 35.4437H41.8237H39.6412Z" fill="#303838" stroke="#303838" stroke-width="0.3"/>
<mask id="path-28-outside-11_1348_7511" maskUnits="userSpaceOnUse" x="39.6987" y="22.3672" width="17" height="7" fill="black">
<rect fill="white" x="39.6987" y="22.3672" width="17" height="7"/>
<path d="M55.5825 28.8405H53.2762C53.2312 28.6761 53.167 28.5175 53.085 28.368C52.7855 27.7084 52.337 27.1273 51.7748 26.6705C51.2125 26.2137 50.5519 25.8936 49.845 25.7355C48.9839 25.5514 48.0904 25.5862 47.2462 25.8368C45.5464 26.2694 44.0818 27.3467 43.1625 28.8405H40.6987C41.2307 27.5786 42.0463 26.4563 43.0824 25.5608C44.1184 24.6652 45.3469 24.0205 46.6725 23.6768C47.8557 23.3214 49.1096 23.2711 50.3175 23.5305C51.338 23.767 52.2916 24.2321 53.1062 24.8908C53.9208 25.5495 54.5752 26.3846 55.02 27.333C55.2606 27.8141 55.4491 28.3194 55.5825 28.8405"/>
</mask>
<path d="M55.5825 28.8405H53.2762C53.2312 28.6761 53.167 28.5175 53.085 28.368C52.7855 27.7084 52.337 27.1273 51.7748 26.6705C51.2125 26.2137 50.5519 25.8936 49.845 25.7355C48.9839 25.5514 48.0904 25.5862 47.2462 25.8368C45.5464 26.2694 44.0818 27.3467 43.1625 28.8405H40.6987C41.2307 27.5786 42.0463 26.4563 43.0824 25.5608C44.1184 24.6652 45.3469 24.0205 46.6725 23.6768C47.8557 23.3214 49.1096 23.2711 50.3175 23.5305C51.338 23.767 52.2916 24.2321 53.1062 24.8908C53.9208 25.5495 54.5752 26.3846 55.02 27.333C55.2606 27.8141 55.4491 28.3194 55.5825 28.8405" fill="#303838"/>
<path d="M53.2762 28.8405L52.9869 28.9198L53.0474 29.1405H53.2762V28.8405ZM53.085 28.368L52.8118 28.492L52.8165 28.5024L52.8219 28.5123L53.085 28.368ZM49.845 25.7355L49.9105 25.4427L49.9077 25.4422L49.845 25.7355ZM47.2462 25.8368L47.3203 26.1277L47.3316 26.1244L47.2462 25.8368ZM43.1625 28.8405V29.1405H43.3301L43.418 28.9978L43.1625 28.8405ZM40.6987 28.8405L40.4223 28.724L40.2467 29.1405H40.6987V28.8405ZM46.6725 23.6768L46.7478 23.9674L46.7588 23.9641L46.6725 23.6768ZM50.3175 23.5305L50.3852 23.2382L50.3805 23.2372L50.3175 23.5305ZM55.02 27.333L54.7483 27.4604L54.7517 27.4672L55.02 27.333ZM55.5825 28.5405H53.2762V29.1405H55.5825V28.5405ZM53.5656 28.7612C53.5143 28.5742 53.4413 28.3938 53.348 28.2238L52.8219 28.5123C52.8927 28.6412 52.948 28.778 52.9869 28.9198L53.5656 28.7612ZM53.3581 28.244C53.0395 27.5421 52.5622 26.9238 51.9639 26.4377L51.5856 26.9033C52.1118 27.3309 52.5315 27.8747 52.8118 28.492L53.3581 28.244ZM51.9639 26.4377C51.3657 25.9516 50.6627 25.611 49.9105 25.4428L49.7795 26.0283C50.4411 26.1763 51.0594 26.4758 51.5856 26.9033L51.9639 26.4377ZM49.9077 25.4422C48.9975 25.2476 48.0531 25.2844 47.1609 25.5492L47.3316 26.1244C48.1276 25.8881 48.9702 25.8553 49.7823 26.0289L49.9077 25.4422ZM47.1722 25.546C45.3969 25.9979 43.8671 27.1231 42.907 28.6833L43.418 28.9978C44.2964 27.5703 45.696 26.5409 47.3202 26.1275L47.1722 25.546ZM43.1625 28.5405H40.6987V29.1405H43.1625V28.5405ZM40.9752 28.9571C41.4892 27.7376 42.2774 26.6531 43.2785 25.7877L42.8862 25.3338C41.8153 26.2595 40.9721 27.4196 40.4223 28.724L40.9752 28.9571ZM43.2785 25.7877C44.2797 24.9223 45.4668 24.2994 46.7478 23.9672L46.5972 23.3864C45.227 23.7417 43.9571 24.4081 42.8862 25.3338L43.2785 25.7877ZM46.7588 23.9641C47.8935 23.6232 49.0961 23.575 50.2545 23.8238L50.3805 23.2372C49.1231 22.9671 47.8179 23.0195 46.5862 23.3895L46.7588 23.9641ZM50.2498 23.8228C51.2261 24.049 52.1383 24.4939 52.9176 25.1241L53.2948 24.6575C52.4449 23.9703 51.45 23.485 50.3852 23.2383L50.2498 23.8228ZM52.9176 25.1241C53.6968 25.7542 54.3228 26.5531 54.7484 27.4604L55.2916 27.2056C54.8275 26.2161 54.1447 25.3448 53.2948 24.6575L52.9176 25.1241ZM54.7517 27.4672C54.9827 27.9292 55.1638 28.4145 55.2918 28.9149L55.8731 28.7662C55.7345 28.2244 55.5384 27.699 55.2883 27.1988L54.7517 27.4672Z" fill="#303838" mask="url(#path-28-outside-11_1348_7511)"/>
<path d="M56.0249 35.5938V35.4437H55.8749H53.6924H53.5424V35.5938V36.8583C53.4996 37.0407 53.4975 37.2303 53.5363 37.4137C53.5764 37.6033 53.6593 37.7813 53.7785 37.9341C53.8977 38.0869 54.0502 38.2105 54.2244 38.2955C54.3986 38.3806 54.5899 38.4247 54.7837 38.4247C54.9775 38.4247 55.1688 38.3806 55.343 38.2955C55.5171 38.2105 55.6696 38.0869 55.7889 37.9341C55.9081 37.7813 55.9909 37.6033 56.0311 37.4137C56.0699 37.2303 56.0678 37.0407 56.0249 36.8583V35.5938Z" fill="#303838" stroke="#303838" stroke-width="0.3"/>
<mask id="path-31-outside-12_1348_7511" maskUnits="userSpaceOnUse" x="31.6094" y="49.0859" width="11" height="10" fill="black">
<rect fill="white" x="31.6094" y="49.0859" width="11" height="10"/>
<path d="M41.385 50.387C41.2816 50.286 41.1585 50.2072 41.0235 50.1556C40.8884 50.104 40.7442 50.0806 40.5998 50.087C40.4553 50.0933 40.3137 50.1292 40.1837 50.1924C40.0536 50.2556 39.9379 50.3448 39.8437 50.4545C37.9618 52.581 35.7137 54.3528 33.2062 55.6857C32.9452 55.8245 32.7493 56.0605 32.6609 56.3426C32.5725 56.6247 32.5986 56.9303 32.7337 57.1932C32.8255 57.3754 32.965 57.5292 33.1374 57.6382C33.3098 57.7472 33.5086 57.8073 33.7125 57.812C33.8848 57.8092 34.0542 57.7668 34.2075 57.6882C36.9438 56.2303 39.3974 54.2948 41.4525 51.9732C41.6533 51.7537 41.759 51.4635 41.7463 51.1662C41.7337 50.8689 41.6037 50.5887 41.385 50.387"/>
</mask>
<path d="M41.385 50.387C41.2816 50.286 41.1585 50.2072 41.0235 50.1556C40.8884 50.104 40.7442 50.0806 40.5998 50.087C40.4553 50.0933 40.3137 50.1292 40.1837 50.1924C40.0536 50.2556 39.9379 50.3448 39.8437 50.4545C37.9618 52.581 35.7137 54.3528 33.2062 55.6857C32.9452 55.8245 32.7493 56.0605 32.6609 56.3426C32.5725 56.6247 32.5986 56.9303 32.7337 57.1932C32.8255 57.3754 32.965 57.5292 33.1374 57.6382C33.3098 57.7472 33.5086 57.8073 33.7125 57.812C33.8848 57.8092 34.0542 57.7668 34.2075 57.6882C36.9438 56.2303 39.3974 54.2948 41.4525 51.9732C41.6533 51.7537 41.759 51.4635 41.7463 51.1662C41.7337 50.8689 41.6037 50.5887 41.385 50.387" fill="#303838"/>
<path d="M39.8437 50.4545L40.0684 50.6533L40.0713 50.6499L39.8437 50.4545ZM33.2062 55.6857L33.0654 55.4208L33.0654 55.4208L33.2062 55.6857ZM32.7337 57.1932L33.0017 57.0583L33.0006 57.0561L32.7337 57.1932ZM33.7125 57.812L33.7055 58.1121L33.7174 58.1119L33.7125 57.812ZM34.2075 57.6882L34.3444 57.9552L34.3486 57.953L34.2075 57.6882ZM41.4525 51.9732L41.2311 51.7707L41.2279 51.7744L41.4525 51.9732ZM41.5946 50.1724C41.4619 50.0427 41.3039 49.9416 41.1305 49.8753L40.9164 50.4358C41.0131 50.4728 41.1013 50.5292 41.1754 50.6016L41.5946 50.1724ZM41.1305 49.8753C40.9572 49.8091 40.772 49.7791 40.5866 49.7872L40.6129 50.3867C40.7164 50.3821 40.8196 50.3989 40.9164 50.4358L41.1305 49.8753ZM40.5866 49.7872C40.4012 49.7954 40.2194 49.8414 40.0525 49.9226L40.3148 50.4622C40.408 50.4169 40.5094 50.3912 40.6129 50.3867L40.5866 49.7872ZM40.0525 49.9226C39.8856 50.0037 39.7371 50.1182 39.6162 50.259L40.0713 50.6499C40.1388 50.5714 40.2217 50.5075 40.3148 50.4622L40.0525 49.9226ZM39.6191 50.2557C37.7609 52.3554 35.5412 54.1048 33.0654 55.4208L33.3471 55.9506C35.8862 54.6009 38.1627 52.8067 40.0684 50.6533L39.6191 50.2557ZM33.0654 55.4208C32.7348 55.5966 32.4866 55.8955 32.3746 56.2529L32.9471 56.4323C33.012 56.2254 33.1557 56.0524 33.3471 55.9506L33.0654 55.4208ZM32.3746 56.2529C32.2626 56.6102 32.2958 56.9973 32.4669 57.3303L33.0006 57.0561C32.9015 56.8633 32.8823 56.6392 32.9471 56.4323L32.3746 56.2529ZM32.4658 57.3282C32.582 57.5589 32.7587 57.7537 32.9771 57.8918L33.2977 57.3846C33.1713 57.3047 33.069 57.1919 33.0017 57.0583L32.4658 57.3282ZM32.9771 57.8918C33.1955 58.0298 33.4473 58.1059 33.7055 58.1119L33.7194 57.5121C33.5699 57.5086 33.4241 57.4645 33.2977 57.3846L32.9771 57.8918ZM33.7174 58.1119C33.9356 58.1084 34.1501 58.0548 34.3444 57.9552L34.0706 57.4213C33.9582 57.4789 33.834 57.51 33.7076 57.512L33.7174 58.1119ZM34.3486 57.953C37.1165 56.4782 39.5984 54.5204 41.6771 52.1721L41.2279 51.7744C39.1965 54.0692 36.7712 55.9823 34.0664 57.4235L34.3486 57.953ZM41.6739 52.1757C41.9282 51.8976 42.0621 51.53 42.046 51.1534L41.4466 51.1789C41.4559 51.3969 41.3784 51.6097 41.2311 51.7708L41.6739 52.1757ZM42.046 51.1534C42.03 50.7768 41.8655 50.422 41.5884 50.1664L41.1816 50.6075C41.342 50.7555 41.4373 50.9609 41.4466 51.1789L42.046 51.1534Z" fill="#303838" mask="url(#path-31-outside-12_1348_7511)"/>
<path d="M49.1602 35.6199L49.1914 35.4437H49.0125H46.7625H46.6378L46.615 35.5664C45.9503 39.1455 44.7219 42.5966 42.9758 45.7908C42.8045 46.0812 42.7552 46.4276 42.8387 46.7543C42.9222 47.0814 43.1321 47.362 43.4223 47.5346C43.6038 47.6464 43.8117 47.7082 44.0249 47.7137L44.0249 47.7139L44.0318 47.7137C44.2487 47.7093 44.4609 47.6496 44.6483 47.5403C44.8358 47.431 44.9922 47.2756 45.1028 47.089L45.1028 47.089L45.1051 47.085C47.0781 43.5123 48.4482 39.6386 49.1602 35.6199Z" fill="#303838" stroke="#303838" stroke-width="0.3"/>
<mask id="path-34-outside-13_1348_7511" maskUnits="userSpaceOnUse" x="39.0146" y="39.5156" width="17" height="22" fill="black">
<rect fill="white" x="39.0146" y="39.5156" width="17" height="22"/>
<path d="M53.8613 40.5277C53.5726 40.4851 53.2786 40.5562 53.0414 40.7263C52.8042 40.8963 52.6424 41.1519 52.59 41.439C50.8086 48.5145 46.5089 54.698 40.4963 58.8315C40.252 59.0018 40.0851 59.2621 40.0324 59.5552C39.9797 59.8483 40.0454 60.1504 40.215 60.3952C40.3162 60.5412 40.4505 60.6611 40.607 60.7452C40.7634 60.8292 40.9375 60.8751 41.115 60.879C41.3356 60.8772 41.5507 60.8107 41.7338 60.6877C48.269 56.2428 52.9105 49.5192 54.75 41.8327C54.8032 41.5437 54.7412 41.2453 54.5772 41.0014C54.4132 40.7575 54.1603 40.5875 53.8725 40.5277"/>
</mask>
<path d="M53.8613 40.5277C53.5726 40.4851 53.2786 40.5562 53.0414 40.7263C52.8042 40.8963 52.6424 41.1519 52.59 41.439C50.8086 48.5145 46.5089 54.698 40.4963 58.8315C40.252 59.0018 40.0851 59.2621 40.0324 59.5552C39.9797 59.8483 40.0454 60.1504 40.215 60.3952C40.3162 60.5412 40.4505 60.6611 40.607 60.7452C40.7634 60.8292 40.9375 60.8751 41.115 60.879C41.3356 60.8772 41.5507 60.8107 41.7338 60.6877C48.269 56.2428 52.9105 49.5192 54.75 41.8327C54.8032 41.5437 54.7412 41.2453 54.5772 41.0014C54.4132 40.7575 54.1603 40.5875 53.8725 40.5277" fill="#303838"/>
<path d="M52.59 41.439L52.881 41.5122L52.8834 41.5026L52.8852 41.4927L52.59 41.439ZM40.4963 58.8315L40.3263 58.5842L40.3247 58.5854L40.4963 58.8315ZM40.215 60.3952L39.9685 60.5661L39.9685 60.5661L40.215 60.3952ZM41.115 60.879L41.1085 61.179L41.1174 61.179L41.115 60.879ZM41.7338 60.6877L41.9011 60.9367L41.9025 60.9358L41.7338 60.6877ZM54.75 41.8327L55.0418 41.9025L55.0437 41.8948L55.0451 41.887L54.75 41.8327ZM53.9051 40.2309C53.5395 40.1769 53.1671 40.2671 52.8666 40.4824L53.2162 40.9701C53.3901 40.8454 53.6057 40.7932 53.8174 40.8245L53.9051 40.2309ZM52.8666 40.4824C52.5662 40.6978 52.3612 41.0215 52.2949 41.3852L52.8852 41.4927C52.9235 41.2822 53.0422 41.0948 53.2162 40.9701L52.8666 40.4824ZM52.2991 41.3657C50.5355 48.3705 46.2788 54.4921 40.3263 58.5842L40.6662 59.0787C46.739 54.9039 51.0817 48.6585 52.881 41.5122L52.2991 41.3657ZM40.3247 58.5854C40.0152 58.8011 39.8039 59.1308 39.7372 59.5021L40.3277 59.6083C40.3663 59.3933 40.4887 59.2025 40.6679 59.0776L40.3247 58.5854ZM39.7372 59.5021C39.6704 59.8734 39.7536 60.256 39.9685 60.5661L40.4616 60.2243C40.3372 60.0448 40.289 59.8233 40.3277 59.6083L39.7372 59.5021ZM39.9685 60.5661C40.0967 60.751 40.2668 60.9029 40.4649 61.0094L40.749 60.4809C40.6343 60.4193 40.5358 60.3313 40.4616 60.2243L39.9685 60.5661ZM40.4649 61.0094C40.6631 61.1159 40.8836 61.174 41.1085 61.1789L41.1216 60.579C40.9914 60.5762 40.8637 60.5426 40.749 60.4809L40.4649 61.0094ZM41.1174 61.179C41.3967 61.1768 41.6693 61.0925 41.9011 60.9367L41.5664 60.4387C41.4322 60.5289 41.2744 60.5777 41.1127 60.579L41.1174 61.179ZM41.9025 60.9358C48.4995 56.4488 53.1848 49.6617 55.0418 41.9025L54.4583 41.7629C52.6361 49.3767 48.0385 56.0367 41.5651 60.4397L41.9025 60.9358ZM55.0451 41.887C55.1124 41.5209 55.0338 41.1429 54.8261 40.834L54.3282 41.1688C54.4485 41.3477 54.494 41.5665 54.455 41.7784L55.0451 41.887ZM54.8261 40.834C54.6184 40.5251 54.2981 40.3097 53.9336 40.234L53.8115 40.8214C54.0225 40.8653 54.208 40.99 54.3282 41.1688L54.8261 40.834Z" fill="#303838" mask="url(#path-34-outside-13_1348_7511)"/>
<mask id="path-36-outside-14_1348_7511" maskUnits="userSpaceOnUse" x="58.4944" y="23.8438" width="5" height="6" fill="black">
<rect fill="white" x="58.4944" y="23.8438" width="5" height="6"/>
<path d="M59.5647 26.3344C59.4638 26.0624 59.4717 25.7619 59.587 25.4957C59.7023 25.2294 59.916 25.018 60.1835 24.9056C60.4541 24.812 60.7501 24.825 61.0114 24.9421C61.2727 25.0591 61.4795 25.2714 61.5898 25.5356C61.9779 26.6304 62.2568 27.7609 62.4223 28.9106H60.1723C60.0381 28.0593 59.8349 27.2203 59.5647 26.4019"/>
</mask>
<path d="M59.5647 26.3344C59.4638 26.0624 59.4717 25.7619 59.587 25.4957C59.7023 25.2294 59.916 25.018 60.1835 24.9056C60.4541 24.812 60.7501 24.825 61.0114 24.9421C61.2727 25.0591 61.4795 25.2714 61.5898 25.5356C61.9779 26.6304 62.2568 27.7609 62.4223 28.9106H60.1723C60.0381 28.0593 59.8349 27.2203 59.5647 26.4019" fill="#303838"/>
<path d="M60.1835 24.9056L60.0854 24.6221L60.0762 24.6253L60.0673 24.6291L60.1835 24.9056ZM61.5898 25.5356L61.8725 25.4354L61.8698 25.4277L61.8666 25.4201L61.5898 25.5356ZM62.4223 28.9106V29.2106H62.7685L62.7192 28.8679L62.4223 28.9106ZM60.1723 28.9106L59.8759 28.9573L59.9158 29.2106H60.1723V28.9106ZM59.846 26.2299C59.7719 26.0305 59.7778 25.8101 59.8623 25.6149L59.3117 25.3765C59.1657 25.7137 59.1556 26.0943 59.2835 26.4388L59.846 26.2299ZM59.8623 25.6149C59.9469 25.4197 60.1036 25.2646 60.2997 25.1822L60.0673 24.6291C59.7285 24.7715 59.4578 25.0392 59.3117 25.3765L59.8623 25.6149ZM60.2816 25.1891C60.48 25.1205 60.6972 25.13 60.8888 25.2159L61.1341 24.6683C60.8031 24.52 60.4281 24.5035 60.0854 24.6221L60.2816 25.1891ZM60.8888 25.2159C61.0804 25.3017 61.232 25.4574 61.3129 25.6511L61.8666 25.4201C61.727 25.0854 61.465 24.8166 61.1341 24.6683L60.8888 25.2159ZM61.307 25.6359C61.6885 26.712 61.9626 27.8233 62.1253 28.9534L62.7192 28.8679C62.5509 27.6986 62.2673 26.5488 61.8725 25.4354L61.307 25.6359ZM62.4223 28.6106H60.1723V29.2106H62.4223V28.6106ZM60.4686 28.8639C60.3319 27.9965 60.1249 27.1417 59.8496 26.3078L59.2799 26.4959C59.5449 27.2989 59.7443 28.1221 59.8759 28.9573L60.4686 28.8639Z" fill="#303838" mask="url(#path-36-outside-14_1348_7511)"/>
<path d="M62.8986 35.6031L62.9085 35.4437H62.7489H60.5101H60.3697L60.3604 35.5838C59.9575 41.6609 57.596 50.2132 49.6198 59.4912C49.5079 59.6169 49.422 59.7635 49.3671 59.9226C49.312 60.0821 49.2891 60.251 49.2998 60.4194C49.3105 60.5878 49.3545 60.7524 49.4293 60.9037C49.5038 61.0544 49.6073 61.1889 49.734 61.2994C49.855 61.41 49.9971 61.495 50.1517 61.5494C50.307 61.604 50.4717 61.6266 50.636 61.6158C50.8002 61.605 50.9606 61.5611 51.1073 61.4866C51.2539 61.4123 51.3839 61.3091 51.4895 61.1832C59.9934 51.2469 62.4916 42.1372 62.8986 35.6031Z" fill="#303838" stroke="#303838" stroke-width="0.3"/>
<mask id="path-39-outside-15_1348_7511" maskUnits="userSpaceOnUse" x="59.8118" y="46.1719" width="8" height="12" fill="black">
<rect fill="white" x="59.8118" y="46.1719" width="8" height="12"/>
<path d="M66.1349 47.224C65.8588 47.1369 65.5596 47.1596 65.2998 47.2874C65.04 47.4152 64.8394 47.6383 64.7399 47.9103C63.8104 50.6377 62.5644 53.2467 61.0274 55.684C60.8531 55.9233 60.7802 56.2217 60.8244 56.5144C60.8686 56.8071 61.0265 57.0706 61.2637 57.2478C61.4495 57.3944 61.6795 57.4737 61.9162 57.4728C62.0879 57.468 62.2563 57.424 62.4085 57.344C62.5606 57.2641 62.6923 57.1503 62.7937 57.0115C64.4566 54.3986 65.8011 51.5962 66.7987 48.664C66.9006 48.385 66.8879 48.077 66.7636 47.8072C66.6393 47.5374 66.4132 47.3278 66.1349 47.224"/>
</mask>
<path d="M66.1349 47.224C65.8588 47.1369 65.5596 47.1596 65.2998 47.2874C65.04 47.4152 64.8394 47.6383 64.7399 47.9103C63.8104 50.6377 62.5644 53.2467 61.0274 55.684C60.8531 55.9233 60.7802 56.2217 60.8244 56.5144C60.8686 56.8071 61.0265 57.0706 61.2637 57.2478C61.4495 57.3944 61.6795 57.4737 61.9162 57.4728C62.0879 57.468 62.2563 57.424 62.4085 57.344C62.5606 57.2641 62.6923 57.1503 62.7937 57.0115C64.4566 54.3986 65.8011 51.5962 66.7987 48.664C66.9006 48.385 66.8879 48.077 66.7636 47.8072C66.6393 47.5374 66.4132 47.3278 66.1349 47.224" fill="#303838"/>
<path d="M64.7399 47.9103L64.4581 47.8071L64.456 47.8135L64.7399 47.9103ZM61.0274 55.684L61.2699 55.8606L61.2758 55.8525L61.2812 55.844L61.0274 55.684ZM61.2637 57.2478L61.4496 57.0122L61.4432 57.0074L61.2637 57.2478ZM61.9162 57.4728L61.9174 57.7728L61.9245 57.7727L61.9162 57.4728ZM62.7937 57.0115L63.036 57.1884L63.0416 57.1807L63.0468 57.1726L62.7937 57.0115ZM66.7987 48.664L66.5168 48.5611L66.5146 48.5674L66.7987 48.664ZM66.2252 46.9379C65.8754 46.8275 65.4965 46.8563 65.1674 47.0182L65.4322 47.5566C65.6228 47.4629 65.8421 47.4462 66.0446 47.5101L66.2252 46.9379ZM65.1674 47.0182C64.8383 47.1801 64.5842 47.4627 64.4582 47.8072L65.0216 48.0134C65.0946 47.8139 65.2417 47.6503 65.4322 47.5566L65.1674 47.0182ZM64.456 47.8135C63.534 50.5187 62.2981 53.1065 60.7737 55.524L61.2812 55.844C62.8306 53.3869 64.0868 50.7566 65.0239 48.007L64.456 47.8135ZM60.7849 55.5074C60.5641 55.8105 60.4717 56.1884 60.5278 56.5592L61.121 56.4696C61.0886 56.2549 61.1421 56.0361 61.2699 55.8606L60.7849 55.5074ZM60.5278 56.5592C60.5838 56.93 60.7837 57.2638 61.0842 57.4881L61.4432 57.0074C61.2692 56.8775 61.1535 56.6843 61.121 56.4696L60.5278 56.5592ZM61.0778 57.4832C61.3169 57.6719 61.6128 57.774 61.9174 57.7728L61.9149 57.1728C61.7461 57.1735 61.5821 57.1169 61.4495 57.0123L61.0778 57.4832ZM61.9245 57.7727C62.1421 57.7666 62.3554 57.7108 62.548 57.6096L62.2689 57.0785C62.1573 57.1371 62.0338 57.1694 61.9079 57.1729L61.9245 57.7727ZM62.548 57.6096C62.7407 57.5083 62.9076 57.3642 63.036 57.1884L62.5514 56.8346C62.4771 56.9364 62.3804 57.0198 62.2689 57.0785L62.548 57.6096ZM63.0468 57.1726C64.7225 54.5395 66.0774 51.7154 67.0827 48.7606L66.5146 48.5674C65.5248 51.4769 64.1906 54.2577 62.5406 56.8504L63.0468 57.1726ZM67.0805 48.7669C67.2095 48.4135 67.1936 48.0233 67.036 47.6816L66.4911 47.9328C66.5823 48.1306 66.5916 48.3565 66.5169 48.5611L67.0805 48.7669ZM67.036 47.6816C66.8785 47.3399 66.5923 47.0744 66.2397 46.9429L66.0301 47.5051C66.2342 47.5812 66.4 47.735 66.4911 47.9328L67.036 47.6816Z" fill="#303838" mask="url(#path-39-outside-15_1348_7511)"/>
<mask id="path-41-outside-16_1348_7511" maskUnits="userSpaceOnUse" x="18.6162" y="33.8281" width="10" height="7" fill="black">
<rect fill="white" x="18.6162" y="33.8281" width="10" height="7"/>
<path d="M27.4912 36.731C27.3675 36.8548 24.4537 39.8023 20.7412 39.8023C20.4428 39.8023 20.1567 39.6837 19.9457 39.4728C19.7347 39.2618 19.6162 38.9756 19.6162 38.6773C19.6162 38.3789 19.7347 38.0927 19.9457 37.8818C20.1567 37.6708 20.4428 37.5523 20.7412 37.5523C22.4705 37.4314 24.1116 36.7433 25.41 35.5948C25.5944 35.4506 25.7709 35.2966 25.9387 35.1335C26.1474 34.9373 26.423 34.8281 26.7093 34.8281C26.9957 34.8281 27.2713 34.9373 27.48 35.1335C27.6895 35.3443 27.8071 35.6294 27.8071 35.9266C27.8071 36.2238 27.6895 36.509 27.48 36.7198"/>
</mask>
<path d="M27.4912 36.731C27.3675 36.8548 24.4537 39.8023 20.7412 39.8023C20.4428 39.8023 20.1567 39.6837 19.9457 39.4728C19.7347 39.2618 19.6162 38.9756 19.6162 38.6773C19.6162 38.3789 19.7347 38.0927 19.9457 37.8818C20.1567 37.6708 20.4428 37.5523 20.7412 37.5523C22.4705 37.4314 24.1116 36.7433 25.41 35.5948C25.5944 35.4506 25.7709 35.2966 25.9387 35.1335C26.1474 34.9373 26.423 34.8281 26.7093 34.8281C26.9957 34.8281 27.2713 34.9373 27.48 35.1335C27.6895 35.3443 27.8071 35.6294 27.8071 35.9266C27.8071 36.2238 27.6895 36.509 27.48 36.7198" fill="#303838"/>
<path d="M20.7412 37.5523V37.8523H20.7517L20.7621 37.8515L20.7412 37.5523ZM25.41 35.5948L25.2252 35.3584L25.218 35.364L25.2112 35.3701L25.41 35.5948ZM25.9387 35.1335L25.7332 34.9149L25.7296 34.9184L25.9387 35.1335ZM27.48 35.1335L27.6928 34.9219L27.6855 34.915L27.48 35.1335ZM27.2791 36.5189C27.2241 36.5739 26.4833 37.3235 25.3034 38.0584C24.1208 38.795 22.5199 39.5023 20.7412 39.5023V40.1023C22.675 40.1023 24.3873 39.3358 25.6206 38.5677C26.8566 37.7979 27.6346 37.0119 27.7033 36.9431L27.2791 36.5189ZM20.7412 39.5023C20.5224 39.5023 20.3126 39.4153 20.1578 39.2606L19.7336 39.6849C20.0008 39.9521 20.3633 40.1023 20.7412 40.1023V39.5023ZM20.1578 39.2606C20.0031 39.1059 19.9162 38.8961 19.9162 38.6773H19.3162C19.3162 39.0552 19.4663 39.4177 19.7336 39.6849L20.1578 39.2606ZM19.9162 38.6773C19.9162 38.4585 20.0031 38.2486 20.1578 38.0939L19.7336 37.6696C19.4663 37.9369 19.3162 38.2993 19.3162 38.6773H19.9162ZM20.1578 38.0939C20.3126 37.9392 20.5224 37.8523 20.7412 37.8523V37.2523C20.3633 37.2523 20.0008 37.4024 19.7336 37.6696L20.1578 38.0939ZM20.7621 37.8515C22.5573 37.7261 24.2609 37.0118 25.6087 35.8195L25.2112 35.3701C23.9623 36.4749 22.3837 37.1367 20.7203 37.253L20.7621 37.8515ZM25.5947 35.8311C25.7876 35.6803 25.9722 35.5193 26.1478 35.3487L25.7296 34.9184C25.5695 35.074 25.4011 35.2209 25.2252 35.3584L25.5947 35.8311ZM26.1442 35.3521C26.2972 35.2082 26.4993 35.1281 26.7093 35.1281V34.5281C26.3466 34.5281 25.9975 34.6665 25.7332 34.915L26.1442 35.3521ZM26.7093 35.1281C26.9193 35.1281 27.1215 35.2082 27.2745 35.3521L27.6855 34.915C27.4212 34.6665 27.0721 34.5281 26.7093 34.5281V35.1281ZM27.2672 35.345C27.4209 35.4996 27.5071 35.7087 27.5071 35.9266H28.1071C28.1071 35.5502 27.9581 35.189 27.6927 34.922L27.2672 35.345ZM27.5071 35.9266C27.5071 36.1446 27.4209 36.3537 27.2672 36.5083L27.6927 36.9313C27.9581 36.6643 28.1071 36.3031 28.1071 35.9266H27.5071Z" fill="#303838" mask="url(#path-41-outside-16_1348_7511)"/>
<mask id="path-43-outside-17_1348_7511" maskUnits="userSpaceOnUse" x="24.4324" y="33.8281" width="4" height="3" fill="black">
<rect fill="white" x="24.4324" y="33.8281" width="4" height="3"/>
<path d="M27.5024 35.1448C27.6225 35.2725 27.7111 35.4266 27.7611 35.5948H25.4324C25.6168 35.4506 25.7933 35.2966 25.9611 35.1335C26.1698 34.9373 26.4454 34.8281 26.7317 34.8281C27.0181 34.8281 27.2937 34.9373 27.5024 35.1335"/>
</mask>
<path d="M27.5024 35.1448C27.6225 35.2725 27.7111 35.4266 27.7611 35.5948H25.4324C25.6168 35.4506 25.7933 35.2966 25.9611 35.1335C26.1698 34.9373 26.4454 34.8281 26.7317 34.8281C27.0181 34.8281 27.2937 34.9373 27.5024 35.1335" fill="#303838"/>
<path d="M27.7611 35.5948V35.8948H28.1633L28.0487 35.5093L27.7611 35.5948ZM25.4324 35.5948L25.2476 35.3584L24.5615 35.8948H25.4324V35.5948ZM25.9611 35.1335L25.7556 34.9149L25.752 34.9184L25.9611 35.1335ZM27.2838 35.3503C27.3719 35.444 27.4369 35.557 27.4736 35.6803L28.0487 35.5093C27.9854 35.2963 27.8731 35.1011 27.7209 34.9393L27.2838 35.3503ZM27.7611 35.2948H25.4324V35.8948H27.7611V35.2948ZM25.6171 35.8311C25.81 35.6803 25.9946 35.5193 26.1702 35.3487L25.752 34.9184C25.5919 35.074 25.4235 35.2209 25.2476 35.3584L25.6171 35.8311ZM26.1666 35.3521C26.3196 35.2082 26.5217 35.1281 26.7317 35.1281V34.5281C26.369 34.5281 26.0199 34.6665 25.7556 34.915L26.1666 35.3521ZM26.7317 35.1281C26.9418 35.1281 27.1439 35.2082 27.2969 35.3521L27.7079 34.915C27.4436 34.6665 27.0945 34.5281 26.7317 34.5281V35.1281Z" fill="#303838" mask="url(#path-43-outside-17_1348_7511)"/>
<path d="M13.125 33.4938H82.875C83.2132 33.4938 83.5375 33.3594 83.7766 33.1203C84.0157 32.8812 84.15 32.5569 84.15 32.2188C84.15 31.8806 84.0157 31.5563 83.7766 31.3172C83.5375 31.0781 83.2132 30.9437 82.875 30.9437H13.125C12.7868 30.9437 12.4625 31.0781 12.2234 31.3172C11.9843 31.5563 11.85 31.8806 11.85 32.2188C11.85 32.5569 11.9843 32.8812 12.2234 33.1203C12.4625 33.3594 12.7868 33.4938 13.125 33.4938Z" fill="#303838" stroke="#303838" stroke-width="0.3"/>
</svg>
