<svg width="75" height="79" viewBox="0 0 75 79" fill="none" xmlns="http://www.w3.org/2000/svg">
<path d="M2.5 35V24.5V23H30L45 37L47.5 40.5H62.5L65 45.5L61.5 48H37L20 35H2.5Z" fill="#EEEEEE"/>
<path d="M72.5 65V54.5V53H45L30 67L27.5 70.5H12.5L10 75.5L13.5 78H38L55 65H72.5Z" fill="#C4C4C4"/>
<path fill-rule="evenodd" clip-rule="evenodd" d="M43 1.5L41 5L45.5 9.5L37 19V25L50 37H54.5L56.5 36.5L60 24.5L68 26.5L70.5 25V22.5L69.5 20.5L57.5 17L54.5 18L53.5 23.5L47 17L53.5 10.5V8.5L46 1.5H43ZM32.5 17C36.0899 17 39 14.0899 39 10.5C39 6.91015 36.0899 4 32.5 4C28.9101 4 26 6.91015 26 10.5C26 14.0899 28.9101 17 32.5 17Z" fill="#303838"/>
<path d="M24.5 67.0021L15.5 56.0021C15.5 53.3355 16.5 48.4021 20.5 50.0021C24.1062 51.4446 24.7322 52.7246 24.5762 53.329C25.6365 50.9797 28.3779 47.2702 31.5 50.0021C34.7 52.8022 33.8333 55.502 33 56.502L24.5 67.0021Z" fill="#B46D6D"/>
<path d="M45.2492 42.2497C45.6256 41.8487 45.9036 41.3648 46.0419 40.8517C46.2001 40.3064 46.2109 39.7334 46.1003 39.1896C45.9436 38.5721 45.6271 38.0221 45.1755 37.5858L33.3071 26.0615C33.3071 26.0615 32.3255 25.1199 31.2194 24.4731C30.0197 23.7773 28.2823 23.7404 28.2823 23.7404L2 23.6958V35.6441L19.9194 35.6902L34.4684 46.6677C35.4992 47.5433 36.8372 48.0087 38.0246 48.041H60.7937C63.3284 48.041 64.459 46.2852 64.459 44.4341C64.459 42.6014 62.6355 40.884 60.7937 40.884L46.1003 40.6188C45.9561 41.1198 45.8483 41.6321 45.2492 42.2497ZM45.2492 42.2497C43.9711 43.5446 41.8789 43.5754 40.567 42.3142M45.2492 42.2497C44.5 43.0478 42.3367 44.0331 40.567 42.3142M40.567 42.3142L34.0813 35.9867M28.9597 70.5709C28.8014 70.0255 28.7891 69.4541 28.9013 68.9103C29.058 68.2912 29.3744 67.7428 29.8261 67.3096L41.696 55.7853C41.696 55.7853 42.673 54.8451 43.7806 54.1999C44.9788 53.501 46.7162 53.4657 46.7162 53.4657H73V65.3433L55.0806 65.4109L40.5301 76.3883C39.5039 77.264 38.1628 77.7294 36.9769 77.7617H14.2063C11.6717 77.7617 10.541 76.0058 10.541 74.1547C10.541 72.3206 12.3629 70.6031 14.2063 70.6031L28.9597 70.5709ZM28.9597 70.5709C29.1379 71.3804 29.5057 71.6641 30.1048 72.2801C32 73.502 33 73.002 34.433 72.0333M28.9597 70.5709C29.0979 71.0855 29.376 71.5679 29.7508 71.9688C31.0304 73.2638 33.1227 73.2945 34.433 72.0333M34.433 72.0333L40.9172 65.7058M68.874 20.6685C67.2498 20.2349 65.6282 19.801 64.0075 19.3673L64.0021 19.3659C62.0361 18.8398 60.0715 18.3141 58.1054 17.7898C57.3619 17.5824 56.4955 17.501 55.9256 17.6807C54.8058 18.034 53.987 18.9188 53.6782 20.4627C53.4724 21.4597 53.2665 22.4597 53.0714 23.4613C51.892 22.2818 50.7125 21.1 49.5333 19.9185L49.5254 19.9105C48.5786 18.9618 47.6319 18.0132 46.6856 17.0662C46.6856 17.0662 46.684 17.0647 46.6748 17.0601C47.2187 16.5191 48.1696 15.5888 49.1533 14.6264C50.312 13.4928 51.5163 12.3147 52.1543 11.6758C53.5784 10.2564 53.0883 8.43297 51.9178 7.40835C51.2557 6.75087 47.933 3.45272 46.8638 2.3943C44.1555 -0.306278 39.9833 3.89207 42.69 6.58957C43.7177 7.6142 44.7485 8.63882 45.7808 9.66344C44.988 10.4468 44.1394 11.2837 43.2861 12.1253L43.2766 12.1346C41.364 14.021 39.4248 15.9334 38.017 17.3381C37.6821 17.673 37.4471 18.0386 37.3057 18.4058C36.0983 20.6516 36.4209 23.5611 38.295 25.4445C39.5669 26.7175 40.8383 27.9907 42.1101 29.2643L42.1422 29.2965C44.2544 31.4116 46.3673 33.5275 48.4844 35.6446C50.7641 37.9258 54.5723 37.935 56.8596 35.6492C58.2854 34.2262 58.6039 32.0054 58.6741 31.5157C58.6804 31.4718 58.6847 31.4419 58.6876 31.4278C59.1562 29.1006 59.6262 26.7748 60.1071 24.4521L60.8362 24.6479C63.0097 25.2314 65.1896 25.8166 67.367 26.3969C71.0492 27.3816 72.57 21.6578 68.874 20.6685ZM39.5945 10.3974C39.5945 14.3688 36.3751 17.5882 32.4037 17.5882C28.4324 17.5882 25.2129 14.3688 25.2129 10.3974C25.2129 6.42605 28.4324 3.20662 32.4037 3.20662C36.3751 3.20662 39.5945 6.42605 39.5945 10.3974ZM24.517 52.7853C23.3803 50.6347 22.2328 49.5579 19.9516 49.5533C17.4154 49.5486 15.3554 51.4965 15.3507 53.8975C15.3446 58.2479 19.9316 62.6091 24.5186 66.9688C29.1056 62.6091 33.691 58.2479 33.6849 53.8975C33.6803 51.4965 31.6187 49.5486 29.0841 49.5533C26.8029 49.5563 25.6569 50.6347 24.517 52.7853Z" stroke="#303838" stroke-width="2.3"/>
</svg>
