<svg width="88" height="94" viewBox="0 0 88 94" fill="none" xmlns="http://www.w3.org/2000/svg">
<circle cx="45" cy="30" r="28.6" fill="#303838" stroke="#303838" stroke-width="2.8"/>
<rect x="2" y="64" width="84" height="11" fill="#618E81"/>
<rect x="2" y="76" width="84" height="16" fill="#C4C4C4"/>
<path fill-rule="evenodd" clip-rule="evenodd" d="M31.0207 35C30.854 37.3333 31.6207 42.3 36.0207 43.5C40.4207 44.7 43.1874 44.3333 44.0208 44C45.8541 44.5 50.0208 45.1 52.0208 43.5C54.0208 41.9 55.8541 37.1667 56.5208 35C53.8541 35 48.0208 35.7 46.0208 38.5C44.5996 40.4896 44.1042 41.2506 43.9962 41.4646C42.4796 39.2865 38.7034 35 35.5208 35H31.0207ZM6.99995 56.5C2.59995 55.3 1.83328 50.3333 1.99995 48H6.5C9.68267 48 13.4589 52.2865 14.9754 54.4646C15.0834 54.2506 15.5789 53.4896 17 51.5C19 48.7 24.8333 48 27.5 48C26.8333 50.1667 25 54.9 23 56.5C21 58.1 16.8333 57.5 15 57C14.1666 57.3333 11.3999 57.7 6.99995 56.5ZM66.0207 56.5C61.6207 55.3 60.854 50.3333 61.0207 48H65.5208C68.7034 48 72.4796 52.2865 73.9962 54.4646C74.1041 54.2506 74.5996 53.4896 76.0207 51.5C78.0207 48.7 83.8541 48 86.5207 48C85.8541 50.1667 84.0207 54.9 82.0207 56.5C80.0207 58.1 75.8541 57.5 74.0207 57C73.1874 57.3333 70.4207 57.7 66.0207 56.5Z" fill="#C0E3C0"/>
<path d="M1.91489 76.7694H86.0851C86.7283 76.7694 87.25 76.248 87.25 75.6046V64.6258C87.25 63.9823 86.7283 63.4609 86.0851 63.4609H1.91489C1.27165 63.4609 0.75 63.9823 0.75 64.6258V75.6046C0.75 76.248 1.27165 76.7694 1.91489 76.7694ZM84.9202 65.7907V74.4397H3.07979V65.7907H84.9202Z" fill="#303838" stroke="#303838" stroke-width="0.5"/>
<path d="M59.0562 18.6238L59.0561 18.6238C58.8287 18.851 58.5304 18.965 58.2324 18.965C57.9346 18.965 57.6361 18.8513 57.4086 18.6237C50.0153 11.2306 37.9847 11.2306 30.5914 18.6236C30.5914 18.6237 30.5913 18.6237 30.5913 18.6237M59.0562 18.6238L29.1207 18.447C29.478 18.8045 30.0573 18.8045 30.4145 18.447L30.5913 18.6237M59.0562 18.6238C59.5112 18.169 59.5112 17.4313 59.0562 16.9765C50.754 8.67451 37.2462 8.67449 28.9439 16.9765C28.4889 17.4313 28.4889 18.169 28.9439 18.6238M59.0562 18.6238L28.9439 18.6238M30.5913 18.6237C30.1365 19.0789 29.3989 19.0789 28.9439 18.6238M30.5913 18.6237L28.9439 18.6238" fill="white" stroke="white" stroke-width="0.5"/>
<path d="M51.0831 24.9454C51.3106 25.1729 51.6091 25.2867 51.9069 25.2867L35.2694 24.9455C35.7244 25.4004 36.4618 25.4004 36.9167 24.9454C40.8221 21.04 47.1777 21.04 51.0831 24.9454ZM35.2694 23.2982C34.8144 23.753 34.8143 24.4906 35.2693 24.9454L52.5537 24.7686L52.7304 24.9455C52.7305 24.9454 52.7305 24.9454 52.7306 24.9453C53.1855 24.4905 53.1854 23.753 52.7305 23.2982C47.9164 18.4839 40.0834 18.4839 35.2694 23.2982Z" fill="white" stroke="white" stroke-width="0.5"/>
<path d="M40.5886 28.6216L40.5886 28.6216C42.4697 26.7407 45.53 26.7407 47.4111 28.6216L47.4111 28.6216C47.8661 29.0766 47.8662 29.8142 47.4111 30.269C47.184 30.4967 46.8853 30.6103 46.5877 30.6103C46.2899 30.6103 45.9915 30.4966 45.7641 30.2692L40.5886 28.6216ZM40.5886 28.6216C40.1336 29.0766 40.1335 29.8142 40.5886 30.269L40.5886 28.6216ZM40.5886 30.2691C41.0436 30.724 41.7811 30.724 42.2359 30.2692L40.5886 30.2691Z" fill="white" stroke="white" stroke-width="0.5"/>
<path d="M1.91489 93.2354H86.0851C86.7283 93.2354 87.25 92.714 87.25 92.0705V75.6024C87.25 74.9589 86.7283 74.4375 86.0851 74.4375H1.91489C1.27165 74.4375 0.75 74.9589 0.75 75.6024V92.0705C0.75 92.714 1.27165 93.2354 1.91489 93.2354ZM84.9202 76.7673V90.9056H3.07979V76.7673H84.9202Z" fill="#303838" stroke="#303838" stroke-width="0.5"/>
<path d="M1.91489 85.9235H23.8723C24.5156 85.9235 25.0372 85.4021 25.0372 84.7586C25.0372 84.1152 24.5156 83.5938 23.8723 83.5938H1.91489C1.27165 83.5938 0.75 84.1152 0.75 84.7586C0.75 85.4021 1.27165 85.9235 1.91489 85.9235Z" fill="#303838" stroke="#303838" stroke-width="0.5"/>
<path d="M36.6809 82.2595H45.8298C46.4731 82.2595 46.9947 81.7381 46.9947 81.0946C46.9947 80.4511 46.4731 79.9297 45.8298 79.9297H36.6809C36.0376 79.9297 35.516 80.4511 35.516 81.0946C35.516 81.7381 36.0376 82.2595 36.6809 82.2595Z" fill="#303838" stroke="#303838" stroke-width="0.5"/>
<path d="M51.3192 87.7517H62.2979C62.9412 87.7517 63.4628 87.2303 63.4628 86.5868C63.4628 85.9433 62.9412 85.4219 62.2979 85.4219H51.3192C50.6759 85.4219 50.1543 85.9433 50.1543 86.5868C50.1543 87.2303 50.6759 87.7517 51.3192 87.7517Z" fill="#303838" stroke="#303838" stroke-width="0.5"/>
<path d="M71.4469 84.0876H86.0852C86.7284 84.0876 87.2501 83.5662 87.2501 82.9227C87.2501 82.2792 86.7284 81.7578 86.0852 81.7578H71.4469C70.8036 81.7578 70.282 82.2792 70.282 82.9227C70.282 83.5662 70.8036 84.0876 71.4469 84.0876Z" fill="#303838" stroke="#303838" stroke-width="0.5"/>
<path d="M11.0638 58.4709H14.7234C15.3666 58.4709 15.8883 57.9495 15.8883 57.306C15.8883 51.6187 11.2617 46.9922 5.57447 46.9922H1.91489C1.27165 46.9922 0.75 47.5136 0.75 48.1571C0.75 53.8443 5.37656 58.4709 11.0638 58.4709ZM11.0638 56.1411C7.05747 56.1411 3.73019 53.1741 3.16455 49.322H5.57447C9.58082 49.322 12.9081 52.289 13.4738 56.1411H11.0638Z" fill="#303838" stroke="#303838" stroke-width="0.5"/>
<path d="M14.7235 58.4709H18.3831C24.0703 58.4709 28.6969 53.8443 28.6969 48.1571C28.6969 47.5136 28.1752 46.9922 27.532 46.9922H23.8724C18.1852 46.9922 13.5586 51.6187 13.5586 57.306C13.5586 57.9495 14.0802 58.4709 14.7235 58.4709ZM18.3831 56.1411H15.9731C16.5386 52.289 19.8661 49.322 23.8724 49.322H26.2824C25.7169 53.1741 22.3894 56.1411 18.3831 56.1411Z" fill="#303838" stroke="#303838" stroke-width="0.5"/>
<path d="M13.5586 64.6247C13.5586 65.2682 14.0802 65.7896 14.7235 65.7896C15.3667 65.7896 15.8884 65.2682 15.8884 64.6247V57.3055C15.8884 56.662 15.3667 56.1406 14.7235 56.1406C14.0802 56.1406 13.5586 56.662 13.5586 57.3055V64.6247Z" fill="#303838" stroke="#303838" stroke-width="0.5"/>
<path d="M47.6596 43.3364H45.2497C45.8152 39.4843 49.1426 36.5173 53.149 36.5173H55.5589C54.9934 40.3694 51.666 43.3364 47.6596 43.3364ZM53.149 34.1875C49.1771 34.1875 45.7226 36.444 44 39.7424C42.2775 36.444 38.8229 34.1875 34.8511 34.1875H31.1915C30.5483 34.1875 30.0266 34.7089 30.0266 35.3524C30.0266 41.0397 34.6532 45.6662 40.3404 45.6662H42.8352L42.8352 64.6287C42.8352 65.2722 43.3568 65.7936 44.0001 65.7936C44.6433 65.7936 45.165 65.2722 45.165 64.6287L45.1649 45.6662H47.6596C53.3469 45.6662 57.9734 41.0397 57.9734 35.3524C57.9734 34.7089 57.4518 34.1875 56.8086 34.1875H53.149ZM34.8511 36.5173C38.8574 36.5173 42.1847 39.4843 42.7504 43.3364H40.3404C36.3341 43.3364 33.0068 40.3694 32.4412 36.5173H34.8511Z" fill="#303838" stroke="#303838" stroke-width="0.5"/>
<path d="M69.6171 58.4709H73.2766C73.9199 58.4709 74.4415 57.9495 74.4415 57.306C74.4415 51.6187 69.815 46.9922 64.1277 46.9922H60.4681C59.8249 46.9922 59.3032 47.5136 59.3032 48.1571C59.3032 53.8443 63.9298 58.4709 69.6171 58.4709ZM69.6171 56.1411C65.6107 56.1411 62.2834 53.1741 61.7178 49.322H64.1277C68.134 49.322 71.4613 52.289 72.027 56.1411H69.6171Z" fill="#303838" stroke="#303838" stroke-width="0.5"/>
<path d="M73.2766 58.4709H76.9362C82.6234 58.4709 87.25 53.8443 87.25 48.1571C87.25 47.5136 86.7283 46.9922 86.0851 46.9922H82.4255C76.7383 46.9922 72.1117 51.6187 72.1117 57.306C72.1117 57.9495 72.6333 58.4709 73.2766 58.4709ZM76.9362 56.1411H74.5262C75.0917 52.289 78.4192 49.322 82.4255 49.322H84.8355C84.27 53.1741 80.9425 56.1411 76.9362 56.1411Z" fill="#303838" stroke="#303838" stroke-width="0.5"/>
<path d="M72.1117 64.6247C72.1117 65.2682 72.6333 65.7896 73.2766 65.7896C73.9198 65.7896 74.4415 65.2682 74.4415 64.6247V57.3055C74.4415 56.662 73.9198 56.1406 73.2766 56.1406C72.6333 56.1406 72.1117 56.662 72.1117 57.3055V64.6247Z" fill="#303838" stroke="#303838" stroke-width="0.5"/>
</svg>
