<svg width="88" height="84" viewBox="0 0 88 84" fill="none" xmlns="http://www.w3.org/2000/svg">
<path d="M1.91489 66.7694H86.0851C86.7283 66.7694 87.25 66.248 87.25 65.6046V54.6258C87.25 53.9823 86.7283 53.4609 86.0851 53.4609H1.91489C1.27165 53.4609 0.75 53.9823 0.75 54.6258V65.6046C0.75 66.248 1.27165 66.7694 1.91489 66.7694ZM84.9202 55.7907V64.4397H3.07979V55.7907H84.9202Z" fill="#618E81" stroke="#618E81" stroke-width="0.5"/>
<path d="M59.0562 8.62378L59.0561 8.62383C58.8287 8.851 58.5304 8.96502 58.2324 8.96502C57.9346 8.96502 57.6361 8.85125 57.4086 8.62374C50.0153 1.23062 37.9847 1.23058 30.5914 8.62365C30.5914 8.62368 30.5913 8.62371 30.5913 8.62374M59.0562 8.62378L29.1207 8.44696C29.478 8.8045 30.0573 8.8045 30.4145 8.44696L30.5913 8.62374M59.0562 8.62378C59.5112 8.16898 59.5112 7.43134 59.0562 6.97652C50.754 -1.32549 37.2462 -1.32551 28.9439 6.97648C28.4889 7.43129 28.4889 8.16897 28.9439 8.62378M59.0562 8.62378L28.9439 8.62378M30.5913 8.62374C30.1365 9.07893 29.3989 9.07887 28.9439 8.62378M30.5913 8.62374L28.9439 8.62378" fill="#618E81" stroke="#618E81" stroke-width="0.5"/>
<path d="M51.0831 14.9454C51.3106 15.1729 51.6091 15.2867 51.9069 15.2867L35.2694 14.9455C35.7244 15.4004 36.4618 15.4004 36.9167 14.9454C40.8221 11.04 47.1777 11.04 51.0831 14.9454ZM35.2694 13.2982C34.8144 13.753 34.8143 14.4906 35.2693 14.9454L52.5537 14.7686L52.7304 14.9455C52.7305 14.9454 52.7305 14.9454 52.7306 14.9453C53.1855 14.4905 53.1854 13.753 52.7305 13.2982C47.9164 8.48393 40.0834 8.48393 35.2694 13.2982Z" fill="#618E81" stroke="#618E81" stroke-width="0.5"/>
<path d="M40.5886 18.6216L40.5886 18.6216C42.4697 16.7407 45.53 16.7407 47.4111 18.6216L47.4111 18.6216C47.8661 19.0766 47.8662 19.8142 47.4111 20.269C47.184 20.4967 46.8853 20.6103 46.5877 20.6103C46.2899 20.6103 45.9915 20.4966 45.7641 20.2692L40.5886 18.6216ZM40.5886 18.6216C40.1336 19.0766 40.1335 19.8142 40.5886 20.269L40.5886 18.6216ZM40.5886 20.2691C41.0436 20.724 41.7811 20.724 42.2359 20.2692L40.5886 20.2691Z" fill="#618E81" stroke="#618E81" stroke-width="0.5"/>
<path d="M1.91489 83.2354H86.0851C86.7283 83.2354 87.25 82.714 87.25 82.0705V65.6024C87.25 64.9589 86.7283 64.4375 86.0851 64.4375H1.91489C1.27165 64.4375 0.75 64.9589 0.75 65.6024V82.0705C0.75 82.714 1.27165 83.2354 1.91489 83.2354ZM84.9202 66.7673V80.9056H3.07979V66.7673H84.9202Z" fill="#618E81" stroke="#618E81" stroke-width="0.5"/>
<path d="M1.91489 75.9235H23.8723C24.5156 75.9235 25.0372 75.4021 25.0372 74.7586C25.0372 74.1152 24.5156 73.5938 23.8723 73.5938H1.91489C1.27165 73.5938 0.75 74.1152 0.75 74.7586C0.75 75.4021 1.27165 75.9235 1.91489 75.9235Z" fill="#618E81" stroke="#618E81" stroke-width="0.5"/>
<path d="M36.6809 72.2595H45.8298C46.4731 72.2595 46.9947 71.7381 46.9947 71.0946C46.9947 70.4511 46.4731 69.9297 45.8298 69.9297H36.6809C36.0376 69.9297 35.516 70.4511 35.516 71.0946C35.516 71.7381 36.0376 72.2595 36.6809 72.2595Z" fill="#618E81" stroke="#618E81" stroke-width="0.5"/>
<path d="M51.3192 77.7517H62.2979C62.9412 77.7517 63.4628 77.2303 63.4628 76.5868C63.4628 75.9433 62.9412 75.4219 62.2979 75.4219H51.3192C50.6759 75.4219 50.1543 75.9433 50.1543 76.5868C50.1543 77.2303 50.6759 77.7517 51.3192 77.7517Z" fill="#618E81" stroke="#618E81" stroke-width="0.5"/>
<path d="M71.4469 74.0876H86.0852C86.7284 74.0876 87.2501 73.5662 87.2501 72.9227C87.2501 72.2792 86.7284 71.7578 86.0852 71.7578H71.4469C70.8036 71.7578 70.282 72.2792 70.282 72.9227C70.282 73.5662 70.8036 74.0876 71.4469 74.0876Z" fill="#618E81" stroke="#618E81" stroke-width="0.5"/>
<path d="M11.0638 48.4709H14.7234C15.3666 48.4709 15.8883 47.9495 15.8883 47.306C15.8883 41.6187 11.2617 36.9922 5.57447 36.9922H1.91489C1.27165 36.9922 0.75 37.5136 0.75 38.1571C0.75 43.8443 5.37656 48.4709 11.0638 48.4709ZM11.0638 46.1411C7.05747 46.1411 3.73019 43.1741 3.16455 39.322H5.57447C9.58082 39.322 12.9081 42.289 13.4738 46.1411H11.0638Z" fill="#618E81" stroke="#618E81" stroke-width="0.5"/>
<path d="M14.7235 48.4709H18.3831C24.0703 48.4709 28.6969 43.8443 28.6969 38.1571C28.6969 37.5136 28.1752 36.9922 27.532 36.9922H23.8724C18.1852 36.9922 13.5586 41.6187 13.5586 47.306C13.5586 47.9495 14.0802 48.4709 14.7235 48.4709ZM18.3831 46.1411H15.9731C16.5386 42.289 19.8661 39.322 23.8724 39.322H26.2824C25.7169 43.1741 22.3894 46.1411 18.3831 46.1411Z" fill="#618E81" stroke="#618E81" stroke-width="0.5"/>
<path d="M13.5586 54.6247C13.5586 55.2682 14.0802 55.7896 14.7235 55.7896C15.3667 55.7896 15.8884 55.2682 15.8884 54.6247V47.3055C15.8884 46.662 15.3667 46.1406 14.7235 46.1406C14.0802 46.1406 13.5586 46.662 13.5586 47.3055V54.6247Z" fill="#618E81" stroke="#618E81" stroke-width="0.5"/>
<path d="M40.3404 35.6662H44C44.6433 35.6662 45.1649 35.1448 45.1649 34.5013C45.1649 28.8141 40.5383 24.1875 34.8511 24.1875H31.1915C30.5483 24.1875 30.0266 24.7089 30.0266 25.3524C30.0266 31.0397 34.6532 35.6662 40.3404 35.6662ZM40.3404 33.3364C36.3341 33.3364 33.0068 30.3694 32.4412 26.5173H34.8511C38.8574 26.5173 42.1847 29.4843 42.7504 33.3364H40.3404Z" fill="#618E81" stroke="#618E81" stroke-width="0.5"/>
<path d="M44 35.6662H47.6596C53.3468 35.6662 57.9734 31.0397 57.9734 25.3524C57.9734 24.7089 57.4517 24.1875 56.8085 24.1875H53.1489C47.4616 24.1875 42.8351 28.8141 42.8351 34.5013C42.8351 35.1448 43.3567 35.6662 44 35.6662ZM47.6596 33.3364H45.2496C45.8151 29.4843 49.1425 26.5173 53.1489 26.5173H55.5588C54.9934 30.3694 51.6659 33.3364 47.6596 33.3364Z" fill="#618E81" stroke="#618E81" stroke-width="0.5"/>
<path d="M42.8352 54.6285C42.8352 55.272 43.3569 55.7934 44.0001 55.7934C44.6433 55.7934 45.165 55.272 45.165 54.6285V34.5008C45.165 33.8573 44.6433 33.3359 44.0001 33.3359C43.3569 33.3359 42.8352 33.8573 42.8352 34.5008V54.6285Z" fill="#618E81" stroke="#618E81" stroke-width="0.5"/>
<path d="M69.6171 48.4709H73.2766C73.9199 48.4709 74.4415 47.9495 74.4415 47.306C74.4415 41.6187 69.815 36.9922 64.1277 36.9922H60.4681C59.8249 36.9922 59.3032 37.5136 59.3032 38.1571C59.3032 43.8443 63.9298 48.4709 69.6171 48.4709ZM69.6171 46.1411C65.6107 46.1411 62.2834 43.1741 61.7178 39.322H64.1277C68.134 39.322 71.4613 42.289 72.027 46.1411H69.6171Z" fill="#618E81" stroke="#618E81" stroke-width="0.5"/>
<path d="M73.2766 48.4709H76.9362C82.6234 48.4709 87.25 43.8443 87.25 38.1571C87.25 37.5136 86.7283 36.9922 86.0851 36.9922H82.4255C76.7383 36.9922 72.1117 41.6187 72.1117 47.306C72.1117 47.9495 72.6333 48.4709 73.2766 48.4709ZM76.9362 46.1411H74.5262C75.0917 42.289 78.4192 39.322 82.4255 39.322H84.8355C84.27 43.1741 80.9425 46.1411 76.9362 46.1411Z" fill="#618E81" stroke="#618E81" stroke-width="0.5"/>
<path d="M72.1117 54.6247C72.1117 55.2682 72.6333 55.7896 73.2766 55.7896C73.9198 55.7896 74.4415 55.2682 74.4415 54.6247V47.3055C74.4415 46.662 73.9198 46.1406 73.2766 46.1406C72.6333 46.1406 72.1117 46.662 72.1117 47.3055V54.6247Z" fill="#618E81" stroke="#618E81" stroke-width="0.5"/>
</svg>
