<svg width="95" height="80" viewBox="0 0 95 80" fill="none" xmlns="http://www.w3.org/2000/svg">
<mask id="path-1-inside-1_1348_7555" fill="white">
<path d="M57.3034 62.2895L51.2622 61.8747L50.6983 70.289C50.6322 71.1522 49.9013 71.8336 49.0392 71.8336C49.0056 71.8336 48.9552 71.8336 48.9226 71.8336C48.4742 71.8001 48.0762 71.6006 47.7948 71.2687C47.4955 70.9359 47.3464 70.5053 47.38 70.0569L47.3859 69.971L47.9597 61.4776L42.123 60.3992C41.2223 60.2323 40.6258 59.3671 40.7927 58.4655C40.9576 57.5638 41.8178 56.9692 42.7264 57.1352L49.8964 58.4595L57.9029 59.0205C57.9858 59.0373 58.0678 59.0373 58.134 59.0373C58.6663 59.0373 59.1147 58.6057 59.1473 58.0576L58.849 53.4761C58.8312 53.2114 58.8816 52.928 58.9981 52.6791L60.525 49.3104L59.1808 43.9319C59.0643 43.4341 59.1808 42.9028 59.4959 42.5048C59.7941 42.1058 60.2929 41.8737 60.7906 41.8737H65.621L62.036 32.2644L61.9353 31.6165C61.9353 31.3676 61.9688 28.1312 61.9688 27.8991C61.9688 25.6919 61.6874 23.5339 61.1235 21.4432C59.728 16.4459 56.8076 12.7118 52.4098 10.3722C51.6188 9.96823 51.3037 9.00037 51.6849 8.20042C51.6958 8.1777 51.7007 8.154 51.7136 8.13128C52.1284 7.35108 53.1742 7.03505 53.9703 7.44984C59.1483 10.1727 62.7342 14.7196 64.3272 20.579C64.9741 22.9522 65.2902 25.4094 65.2902 27.8991C65.2902 28.1974 65.2744 30.4383 65.2556 31.3834L68.809 40.9266C68.9907 41.3256 69.0905 41.7562 69.0905 42.172C69.0905 43.8312 67.7285 45.1763 66.0852 45.1931H62.916L63.8947 49.0763C63.9776 49.4417 63.9431 49.8229 63.7939 50.1716L62.1841 53.6894L62.4508 58.0378C62.4508 60.411 60.5092 62.3527 58.134 62.3527C57.8505 62.3556 57.5691 62.3388 57.3034 62.2895ZM46.5988 8.34856C46.5988 8.34856 46.5988 8.36535 46.6166 8.36535C46.7163 8.38214 46.8319 8.39892 46.9474 8.39892C47.7069 8.39892 48.3686 7.86167 48.5562 7.11406C48.5611 7.0943 48.57 7.07554 48.574 7.0548C48.6579 6.62321 48.574 6.17484 48.3251 5.80943C48.0762 5.44402 47.7108 5.19514 47.2625 5.11218C46.3835 4.91368 45.4867 5.52698 45.3208 6.40693C45.3169 6.42471 45.3179 6.44248 45.3139 6.46026C45.2329 6.87505 45.3149 7.30071 45.5539 7.65131C45.8018 8.01574 46.1682 8.2656 46.5988 8.34856ZM41.9975 6.18768C41.9975 6.17188 42.0015 6.15608 42.0015 6.14028C41.9857 5.24353 41.2381 4.5137 40.3423 4.5137H40.3087C40.2929 4.5137 40.2929 4.5137 40.2752 4.5137C39.9769 4.53049 39.6451 4.53048 39.2471 4.56406C32.4583 4.91269 25.5549 7.6839 21.2055 11.7667C16.9904 15.7339 15.031 20.1652 14.4829 27.0696C14.3674 28.3149 14.318 29.5257 14.318 30.7049C14.318 35.8484 15.3303 43.1191 20.1103 48.6131C21.7201 50.4718 22.6168 52.7788 22.6168 55.0859C22.6168 55.5826 22.5832 56.0982 22.4845 56.6127L20.7749 66.5707C20.692 67.0191 20.7917 67.4497 21.0574 67.8161C21.3063 68.1805 21.6885 68.4126 22.1191 68.4965C22.2188 68.5123 22.3186 68.5123 22.4015 68.5123C23.2153 68.5123 23.9116 67.9316 24.0449 67.1346L24.0577 67.0615L25.7544 57.1766C25.871 56.4794 25.9371 55.7663 25.9371 55.0859C25.9371 51.9651 24.7589 48.8946 22.601 46.4384C18.5025 41.7414 17.6393 35.2844 17.6393 30.7049C17.6393 29.5919 17.6887 28.4641 17.7884 27.352C18.3701 21.0442 19.814 17.7249 23.4978 14.1744C27.0986 10.7228 33.6385 8.13326 39.414 7.86661C39.7794 7.85081 40.0954 7.83303 40.3769 7.83303C41.2717 7.81821 41.9877 7.08048 41.9975 6.18768ZM80.3857 45.5367L75.8763 33.4663C75.895 32.3839 75.9296 29.3489 75.9296 29.0003C75.9296 25.8953 75.5227 22.8327 74.7208 19.8976C71.9397 9.70947 65.2042 2.47825 56.2427 0.0576314C55.3647 -0.180381 54.4473 0.340086 54.2073 1.22695C53.9693 2.11185 54.4927 3.02241 55.3776 3.26141C63.1717 5.36698 69.0539 11.7489 71.518 20.7716C72.2429 23.4223 72.6103 26.1906 72.6103 28.9993C72.6103 29.3914 72.5678 33.2905 72.552 33.6786C72.5421 33.8998 72.5777 34.121 72.6557 34.3284L77.3043 46.7722C77.3251 46.8315 77.3201 46.9421 77.3498 46.9984H70.7042C70.1936 46.9984 69.7107 47.2335 69.3966 47.6364C69.0826 48.0393 68.97 48.5647 69.0954 49.0605L70.8247 55.9866L68.8278 60.3547C68.7142 60.6026 68.6618 60.8762 68.6796 61.1488L69.044 66.9114C69.044 67.4309 68.811 67.9139 68.406 68.2378C67.9991 68.5597 67.4757 68.6812 66.9711 68.5617C66.8851 68.542 66.7982 68.5291 66.7084 68.5222L56.8827 67.8704C55.9929 67.8181 55.2117 68.4689 55.1208 69.3577L54.2567 77.8393C54.1638 78.7518 54.8285 79.5666 55.7391 79.6584C55.7973 79.6653 55.8546 79.6673 55.9089 79.6673C56.7504 79.6673 57.4713 79.0303 57.5592 78.176L58.2614 71.2885L66.3676 71.8277C67.8164 72.1171 69.3058 71.7625 70.4711 70.8352C71.674 69.8782 72.3624 68.4482 72.3594 66.8077L72.0177 61.3562L74.0828 56.8389C74.2408 56.4972 74.2764 56.112 74.1835 55.7476L72.8285 50.3197H77.3488C78.525 50.3197 79.5936 49.7212 80.2079 48.7188C80.8054 47.745 80.8686 46.5639 80.3857 45.5367Z"/>
</mask>
<path d="M57.3034 62.2895L51.2622 61.8747L50.6983 70.289C50.6322 71.1522 49.9013 71.8336 49.0392 71.8336C49.0056 71.8336 48.9552 71.8336 48.9226 71.8336C48.4742 71.8001 48.0762 71.6006 47.7948 71.2687C47.4955 70.9359 47.3464 70.5053 47.38 70.0569L47.3859 69.971L47.9597 61.4776L42.123 60.3992C41.2223 60.2323 40.6258 59.3671 40.7927 58.4655C40.9576 57.5638 41.8178 56.9692 42.7264 57.1352L49.8964 58.4595L57.9029 59.0205C57.9858 59.0373 58.0678 59.0373 58.134 59.0373C58.6663 59.0373 59.1147 58.6057 59.1473 58.0576L58.849 53.4761C58.8312 53.2114 58.8816 52.928 58.9981 52.6791L60.525 49.3104L59.1808 43.9319C59.0643 43.4341 59.1808 42.9028 59.4959 42.5048C59.7941 42.1058 60.2929 41.8737 60.7906 41.8737H65.621L62.036 32.2644L61.9353 31.6165C61.9353 31.3676 61.9688 28.1312 61.9688 27.8991C61.9688 25.6919 61.6874 23.5339 61.1235 21.4432C59.728 16.4459 56.8076 12.7118 52.4098 10.3722C51.6188 9.96823 51.3037 9.00037 51.6849 8.20042C51.6958 8.1777 51.7007 8.154 51.7136 8.13128C52.1284 7.35108 53.1742 7.03505 53.9703 7.44984C59.1483 10.1727 62.7342 14.7196 64.3272 20.579C64.9741 22.9522 65.2902 25.4094 65.2902 27.8991C65.2902 28.1974 65.2744 30.4383 65.2556 31.3834L68.809 40.9266C68.9907 41.3256 69.0905 41.7562 69.0905 42.172C69.0905 43.8312 67.7285 45.1763 66.0852 45.1931H62.916L63.8947 49.0763C63.9776 49.4417 63.9431 49.8229 63.7939 50.1716L62.1841 53.6894L62.4508 58.0378C62.4508 60.411 60.5092 62.3527 58.134 62.3527C57.8505 62.3556 57.5691 62.3388 57.3034 62.2895ZM46.5988 8.34856C46.5988 8.34856 46.5988 8.36535 46.6166 8.36535C46.7163 8.38214 46.8319 8.39892 46.9474 8.39892C47.7069 8.39892 48.3686 7.86167 48.5562 7.11406C48.5611 7.0943 48.57 7.07554 48.574 7.0548C48.6579 6.62321 48.574 6.17484 48.3251 5.80943C48.0762 5.44402 47.7108 5.19514 47.2625 5.11218C46.3835 4.91368 45.4867 5.52698 45.3208 6.40693C45.3169 6.42471 45.3179 6.44248 45.3139 6.46026C45.2329 6.87505 45.3149 7.30071 45.5539 7.65131C45.8018 8.01574 46.1682 8.2656 46.5988 8.34856ZM41.9975 6.18768C41.9975 6.17188 42.0015 6.15608 42.0015 6.14028C41.9857 5.24353 41.2381 4.5137 40.3423 4.5137H40.3087C40.2929 4.5137 40.2929 4.5137 40.2752 4.5137C39.9769 4.53049 39.6451 4.53048 39.2471 4.56406C32.4583 4.91269 25.5549 7.6839 21.2055 11.7667C16.9904 15.7339 15.031 20.1652 14.4829 27.0696C14.3674 28.3149 14.318 29.5257 14.318 30.7049C14.318 35.8484 15.3303 43.1191 20.1103 48.6131C21.7201 50.4718 22.6168 52.7788 22.6168 55.0859C22.6168 55.5826 22.5832 56.0982 22.4845 56.6127L20.7749 66.5707C20.692 67.0191 20.7917 67.4497 21.0574 67.8161C21.3063 68.1805 21.6885 68.4126 22.1191 68.4965C22.2188 68.5123 22.3186 68.5123 22.4015 68.5123C23.2153 68.5123 23.9116 67.9316 24.0449 67.1346L24.0577 67.0615L25.7544 57.1766C25.871 56.4794 25.9371 55.7663 25.9371 55.0859C25.9371 51.9651 24.7589 48.8946 22.601 46.4384C18.5025 41.7414 17.6393 35.2844 17.6393 30.7049C17.6393 29.5919 17.6887 28.4641 17.7884 27.352C18.3701 21.0442 19.814 17.7249 23.4978 14.1744C27.0986 10.7228 33.6385 8.13326 39.414 7.86661C39.7794 7.85081 40.0954 7.83303 40.3769 7.83303C41.2717 7.81821 41.9877 7.08048 41.9975 6.18768ZM80.3857 45.5367L75.8763 33.4663C75.895 32.3839 75.9296 29.3489 75.9296 29.0003C75.9296 25.8953 75.5227 22.8327 74.7208 19.8976C71.9397 9.70947 65.2042 2.47825 56.2427 0.0576314C55.3647 -0.180381 54.4473 0.340086 54.2073 1.22695C53.9693 2.11185 54.4927 3.02241 55.3776 3.26141C63.1717 5.36698 69.0539 11.7489 71.518 20.7716C72.2429 23.4223 72.6103 26.1906 72.6103 28.9993C72.6103 29.3914 72.5678 33.2905 72.552 33.6786C72.5421 33.8998 72.5777 34.121 72.6557 34.3284L77.3043 46.7722C77.3251 46.8315 77.3201 46.9421 77.3498 46.9984H70.7042C70.1936 46.9984 69.7107 47.2335 69.3966 47.6364C69.0826 48.0393 68.97 48.5647 69.0954 49.0605L70.8247 55.9866L68.8278 60.3547C68.7142 60.6026 68.6618 60.8762 68.6796 61.1488L69.044 66.9114C69.044 67.4309 68.811 67.9139 68.406 68.2378C67.9991 68.5597 67.4757 68.6812 66.9711 68.5617C66.8851 68.542 66.7982 68.5291 66.7084 68.5222L56.8827 67.8704C55.9929 67.8181 55.2117 68.4689 55.1208 69.3577L54.2567 77.8393C54.1638 78.7518 54.8285 79.5666 55.7391 79.6584C55.7973 79.6653 55.8546 79.6673 55.9089 79.6673C56.7504 79.6673 57.4713 79.0303 57.5592 78.176L58.2614 71.2885L66.3676 71.8277C67.8164 72.1171 69.3058 71.7625 70.4711 70.8352C71.674 69.8782 72.3624 68.4482 72.3594 66.8077L72.0177 61.3562L74.0828 56.8389C74.2408 56.4972 74.2764 56.112 74.1835 55.7476L72.8285 50.3197H77.3488C78.525 50.3197 79.5936 49.7212 80.2079 48.7188C80.8054 47.745 80.8686 46.5639 80.3857 45.5367Z" fill="#303838" stroke="#C0D6E3" stroke-width="0.395041" mask="url(#path-1-inside-1_1348_7555)"/>
<mask id="path-2-outside-2_1348_7555" maskUnits="userSpaceOnUse" x="-0.508545" y="8.875" width="13" height="13" fill="black">
<rect fill="white" x="-0.508545" y="8.875" width="13" height="13"/>
<path d="M1.60251 20.9855C1.30784 20.9855 1.02524 20.8685 0.816875 20.6601C0.608512 20.4517 0.491455 20.1691 0.491455 19.8745V10.9861C0.491455 10.6914 0.608512 10.4088 0.816875 10.2004C1.02524 9.99206 1.30784 9.875 1.60251 9.875H10.2243C10.519 9.875 10.8016 9.99206 11.0099 10.2004C11.2183 10.4088 11.3353 10.6914 11.3353 10.9861C11.3353 11.2807 11.2183 11.5633 11.0099 11.7717C10.8016 11.98 10.519 12.0971 10.2243 12.0971H2.68023V19.8745C2.68023 20.1691 2.56317 20.4517 2.35481 20.6601C2.14645 20.8685 1.86385 20.9855 1.56918 20.9855"/>
</mask>
<path d="M1.60251 20.9855C1.30784 20.9855 1.02524 20.8685 0.816875 20.6601C0.608512 20.4517 0.491455 20.1691 0.491455 19.8745V10.9861C0.491455 10.6914 0.608512 10.4088 0.816875 10.2004C1.02524 9.99206 1.30784 9.875 1.60251 9.875H10.2243C10.519 9.875 10.8016 9.99206 11.0099 10.2004C11.2183 10.4088 11.3353 10.6914 11.3353 10.9861C11.3353 11.2807 11.2183 11.5633 11.0099 11.7717C10.8016 11.98 10.519 12.0971 10.2243 12.0971H2.68023V19.8745C2.68023 20.1691 2.56317 20.4517 2.35481 20.6601C2.14645 20.8685 1.86385 20.9855 1.56918 20.9855" fill="#303838"/>
<path d="M0.491455 19.8745H0.0964139H0.491455ZM1.60251 9.875V9.47996V9.875ZM10.2243 12.0971V12.4921V12.0971ZM2.68023 12.0971V11.7021H2.28519V12.0971H2.68023ZM2.68023 19.8745H3.07527H2.68023ZM1.60251 20.5905C1.41261 20.5905 1.23049 20.5151 1.09621 20.3808L0.537539 20.9394C0.819986 21.2219 1.20307 21.3806 1.60251 21.3806V20.5905ZM1.09621 20.3808C0.961933 20.2465 0.886496 20.0644 0.886496 19.8745H0.0964139C0.0964139 20.2739 0.255091 20.657 0.537539 20.9394L1.09621 20.3808ZM0.886496 19.8745V10.9861H0.0964139V19.8745H0.886496ZM0.886496 10.9861C0.886496 10.7962 0.961933 10.614 1.09621 10.4798L0.537539 9.92108C0.255091 10.2035 0.0964139 10.5866 0.0964139 10.9861H0.886496ZM1.09621 10.4798C1.23049 10.3455 1.41261 10.27 1.60251 10.27V9.47996C1.20307 9.47996 0.819986 9.63864 0.537539 9.92108L1.09621 10.4798ZM1.60251 10.27H10.2243V9.47996H1.60251V10.27ZM10.2243 10.27C10.4142 10.27 10.5963 10.3455 10.7306 10.4798L11.2893 9.92108C11.0068 9.63864 10.6237 9.47996 10.2243 9.47996V10.27ZM10.7306 10.4798C10.8649 10.614 10.9403 10.7962 10.9403 10.9861H11.7304C11.7304 10.5866 11.5717 10.2035 11.2893 9.92108L10.7306 10.4798ZM10.9403 10.9861C10.9403 11.176 10.8649 11.3581 10.7306 11.4924L11.2893 12.051C11.5717 11.7686 11.7304 11.3855 11.7304 10.9861H10.9403ZM10.7306 11.4924C10.5963 11.6266 10.4142 11.7021 10.2243 11.7021V12.4921C10.6237 12.4921 11.0068 12.3335 11.2893 12.051L10.7306 11.4924ZM10.2243 11.7021H2.68023V12.4921H10.2243V11.7021ZM2.28519 12.0971V19.8745H3.07527V12.0971H2.28519ZM2.28519 19.8745C2.28519 20.0644 2.20975 20.2465 2.07547 20.3808L2.63415 20.9394C2.91659 20.657 3.07527 20.2739 3.07527 19.8745H2.28519ZM2.07547 20.3808C1.9412 20.5151 1.75907 20.5905 1.56918 20.5905V21.3806C1.96862 21.3806 2.3517 21.2219 2.63415 20.9394L2.07547 20.3808Z" fill="#303838" mask="url(#path-2-outside-2_1348_7555)"/>
<mask id="path-4-outside-3_1348_7555" maskUnits="userSpaceOnUse" x="82.3934" y="8.875" width="13" height="13" fill="black">
<rect fill="white" x="82.3934" y="8.875" width="13" height="13"/>
<path d="M93.144 20.7386C92.8488 20.7386 92.5657 20.6242 92.3569 20.4204C92.1482 20.2167 92.0309 19.9404 92.0309 19.6523V12.0477H84.5065C84.2113 12.0477 83.9282 11.9333 83.7194 11.7295C83.5107 11.5258 83.3934 11.2495 83.3934 10.9614C83.3934 10.6732 83.5107 10.3969 83.7194 10.1932C83.9282 9.98946 84.2113 9.875 84.5065 9.875H93.144C93.4392 9.875 93.7223 9.98946 93.931 10.1932C94.1398 10.3969 94.2571 10.6732 94.2571 10.9614V19.6523C94.2571 19.9404 94.1398 20.2167 93.931 20.4204C93.7223 20.6242 93.4392 20.7386 93.144 20.7386Z"/>
</mask>
<path d="M93.144 20.7386C92.8488 20.7386 92.5657 20.6242 92.3569 20.4204C92.1482 20.2167 92.0309 19.9404 92.0309 19.6523V12.0477H84.5065C84.2113 12.0477 83.9282 11.9333 83.7194 11.7295C83.5107 11.5258 83.3934 11.2495 83.3934 10.9614C83.3934 10.6732 83.5107 10.3969 83.7194 10.1932C83.9282 9.98946 84.2113 9.875 84.5065 9.875H93.144C93.4392 9.875 93.7223 9.98946 93.931 10.1932C94.1398 10.3969 94.2571 10.6732 94.2571 10.9614V19.6523C94.2571 19.9404 94.1398 20.2167 93.931 20.4204C93.7223 20.6242 93.4392 20.7386 93.144 20.7386Z" fill="#303838"/>
<path d="M92.0309 12.0477H92.426V11.6527H92.0309V12.0477ZM84.5065 12.0477V12.4428V12.0477ZM84.5065 9.875V9.47996V9.875ZM93.144 20.3436C92.9505 20.3436 92.7668 20.2685 92.6328 20.1377L92.081 20.7032C92.3645 20.9799 92.7471 21.1337 93.144 21.1337V20.3436ZM92.6328 20.1377C92.4992 20.0073 92.426 19.8325 92.426 19.6523H91.6359C91.6359 20.0483 91.7971 20.4261 92.081 20.7032L92.6328 20.1377ZM92.426 19.6523V12.0477H91.6359V19.6523H92.426ZM92.0309 11.6527H84.5065V12.4428H92.0309V11.6527ZM84.5065 11.6527C84.313 11.6527 84.1293 11.5776 83.9954 11.4468L83.4435 12.0122C83.727 12.289 84.1096 12.4428 84.5065 12.4428V11.6527ZM83.9954 11.4468C83.8617 11.3164 83.7885 11.1416 83.7885 10.9614H82.9984C82.9984 11.3574 83.1597 11.7352 83.4435 12.0122L83.9954 11.4468ZM83.7885 10.9614C83.7885 10.7812 83.8617 10.6063 83.9954 10.4759L83.4435 9.91048C83.1597 10.1875 82.9984 10.5653 82.9984 10.9614H83.7885ZM83.9954 10.4759C84.1293 10.3452 84.313 10.27 84.5065 10.27V9.47996C84.1096 9.47996 83.727 9.63376 83.4435 9.91048L83.9954 10.4759ZM84.5065 10.27H93.144V9.47996H84.5065V10.27ZM93.144 10.27C93.3375 10.27 93.5212 10.3451 93.6551 10.4759L94.207 9.91048C93.9234 9.63376 93.5409 9.47996 93.144 9.47996V10.27ZM93.6551 10.4759C93.7888 10.6063 93.862 10.7812 93.862 10.9614H94.6521C94.6521 10.5653 94.4908 10.1875 94.207 9.91048L93.6551 10.4759ZM93.862 10.9614V19.6523H94.6521V10.9614H93.862ZM93.862 19.6523C93.862 19.8325 93.7888 20.0073 93.6551 20.1377L94.207 20.7032C94.4908 20.4261 94.6521 20.0483 94.6521 19.6523H93.862ZM93.6551 20.1377C93.5212 20.2685 93.3375 20.3436 93.144 20.3436V21.1337C93.5409 21.1337 93.9234 20.9799 94.207 20.7032L93.6551 20.1377Z" fill="#303838" mask="url(#path-4-outside-3_1348_7555)"/>
<path d="M1.60251 72.2924H10.2243C10.5713 72.2924 10.9042 72.1546 11.1496 71.9092C11.395 71.6638 11.5329 71.3309 11.5329 70.9839C11.5329 70.6368 11.395 70.304 11.1496 70.0586C10.9042 69.8131 10.5713 69.6753 10.2243 69.6753H2.91108V62.0954C2.91108 61.7484 2.77322 61.4155 2.52781 61.1701C2.2824 60.9247 1.94956 60.7869 1.60251 60.7869C1.25545 60.7869 0.922612 60.9247 0.677207 61.1701C0.431802 61.4155 0.293934 61.7484 0.293934 62.0954V70.9839C0.293934 71.3309 0.431802 71.6638 0.677207 71.9092C0.922612 72.1546 1.25545 72.2924 1.60251 72.2924Z" fill="#303838" stroke="#303838" stroke-width="0.395041"/>
<mask id="path-7-outside-4_1348_7555" maskUnits="userSpaceOnUse" x="82.3934" y="60.2266" width="13" height="13" fill="black">
<rect fill="white" x="82.3934" y="60.2266" width="13" height="13"/>
<path d="M93.144 72.0902H84.5065C84.2113 72.0902 83.9282 71.9785 83.7194 71.7796C83.5107 71.5807 83.3934 71.3109 83.3934 71.0296C83.3934 70.7483 83.5107 70.4786 83.7194 70.2797C83.9282 70.0808 84.2113 69.969 84.5065 69.969H92.0643V62.545C92.0232 62.3886 92.02 62.2253 92.055 62.0676C92.0901 61.9098 92.1624 61.7618 92.2665 61.6347C92.3705 61.5076 92.5037 61.4048 92.6557 61.334C92.8078 61.2633 92.9748 61.2266 93.144 61.2266C93.3132 61.2266 93.4802 61.2633 93.6322 61.334C93.7843 61.4048 93.9174 61.5076 94.0215 61.6347C94.1256 61.7618 94.1979 61.9098 94.233 62.0676C94.268 62.2253 94.2648 62.3886 94.2237 62.545V71.0296C94.2237 71.3109 94.1064 71.5807 93.8977 71.7796C93.6889 71.9785 93.4058 72.0902 93.1106 72.0902"/>
</mask>
<path d="M93.144 72.0902H84.5065C84.2113 72.0902 83.9282 71.9785 83.7194 71.7796C83.5107 71.5807 83.3934 71.3109 83.3934 71.0296C83.3934 70.7483 83.5107 70.4786 83.7194 70.2797C83.9282 70.0808 84.2113 69.969 84.5065 69.969H92.0643V62.545C92.0232 62.3886 92.02 62.2253 92.055 62.0676C92.0901 61.9098 92.1624 61.7618 92.2665 61.6347C92.3705 61.5076 92.5037 61.4048 92.6557 61.334C92.8078 61.2633 92.9748 61.2266 93.144 61.2266C93.3132 61.2266 93.4802 61.2633 93.6322 61.334C93.7843 61.4048 93.9174 61.5076 94.0215 61.6347C94.1256 61.7618 94.1979 61.9098 94.233 62.0676C94.268 62.2253 94.2648 62.3886 94.2237 62.545V71.0296C94.2237 71.3109 94.1064 71.5807 93.8977 71.7796C93.6889 71.9785 93.4058 72.0902 93.1106 72.0902" fill="#303838"/>
<path d="M92.0643 69.969V70.3641H92.4593V69.969H92.0643ZM92.0643 62.545H92.4593V62.4939L92.4464 62.4445L92.0643 62.545ZM94.2237 62.545L93.8416 62.4445L93.8286 62.4939V62.545H94.2237ZM93.144 71.6952H84.5065V72.4852H93.144V71.6952ZM84.5065 71.6952C84.3101 71.6952 84.1253 71.6206 83.992 71.4936L83.4469 72.0656C83.7311 72.3363 84.1125 72.4852 84.5065 72.4852V71.6952ZM83.992 71.4936C83.8592 71.3671 83.7885 71.1998 83.7885 71.0296H82.9984C82.9984 71.422 83.1622 71.7942 83.4469 72.0656L83.992 71.4936ZM83.7885 71.0296C83.7885 70.8594 83.8592 70.6921 83.992 70.5657L83.4469 69.9937C83.1622 70.265 82.9984 70.6372 82.9984 71.0296H83.7885ZM83.992 70.5657C84.1253 70.4386 84.3101 70.3641 84.5065 70.3641V69.574C84.1125 69.574 83.7311 69.7229 83.4469 69.9937L83.992 70.5657ZM84.5065 70.3641H92.0643V69.574H84.5065V70.3641ZM92.4593 69.969V62.545H91.6693V69.969H92.4593ZM92.4464 62.4445C92.4212 62.3489 92.4193 62.2495 92.4407 62.1532L91.6694 61.9819C91.6207 62.2012 91.6251 62.4283 91.6823 62.6455L92.4464 62.4445ZM92.4407 62.1532C92.4621 62.0569 92.5065 61.9651 92.5721 61.885L91.9608 61.3844C91.8182 61.5585 91.718 61.7628 91.6694 61.9819L92.4407 62.1532ZM92.5721 61.885C92.6377 61.8048 92.723 61.7384 92.8223 61.6922L92.4891 60.9758C92.2844 61.0711 92.1034 61.2104 91.9608 61.3844L92.5721 61.885ZM92.8223 61.6922C92.9217 61.646 93.0318 61.6216 93.144 61.6216V60.8315C92.9178 60.8315 92.6939 60.8806 92.4891 60.9758L92.8223 61.6922ZM93.144 61.6216C93.2562 61.6216 93.3663 61.646 93.4656 61.6922L93.7988 60.9758C93.5941 60.8806 93.3702 60.8315 93.144 60.8315V61.6216ZM93.4656 61.6922C93.565 61.7384 93.6502 61.8048 93.7159 61.885L94.3272 61.3844C94.1846 61.2104 94.0036 61.0711 93.7988 60.9758L93.4656 61.6922ZM93.7159 61.885C93.7815 61.9651 93.8259 62.0569 93.8473 62.1532L94.6186 61.9819C94.5699 61.7628 94.4698 61.5585 94.3272 61.3844L93.7159 61.885ZM93.8473 62.1532C93.8687 62.2495 93.8668 62.3489 93.8416 62.4445L94.6057 62.6455C94.6628 62.4283 94.6673 62.2012 94.6186 61.9819L93.8473 62.1532ZM93.8286 62.545V71.0296H94.6187V62.545H93.8286ZM93.8286 71.0296C93.8286 71.1998 93.7579 71.3671 93.6251 71.4936L94.1702 72.0656C94.4549 71.7942 94.6187 71.422 94.6187 71.0296H93.8286ZM93.6251 71.4936C93.4918 71.6206 93.307 71.6952 93.1106 71.6952V72.4852C93.5046 72.4852 93.886 72.3363 94.1702 72.0656L93.6251 71.4936Z" fill="#303838" mask="url(#path-7-outside-4_1348_7555)"/>
<g style="mix-blend-mode:darken">
<path d="M58.2663 12.8422C50.8593 4.44759 39.0081 5.43519 29.1321 8.8918L20.2436 15.3114L16.2932 26.6688L17.2808 40.989L24.6878 51.8527L23.2064 63.7039L21.2312 71.1109H33.0825H49.3779L51.3531 59.7535L58.2663 61.2349L60.7353 57.7783V54.3217L62.7105 48.3961L60.7353 43.9518H67.6486L63.6982 31.6068C64.3566 28.1502 64.192 19.5579 58.2663 12.8422Z" fill="#618E81"/>
</g>
<g style="mix-blend-mode:darken">
<path fill-rule="evenodd" clip-rule="evenodd" d="M56.859 11.8516H1.47913V71.1077H49.0187L50.3655 59.2565L59.7477 60.2441L61.2291 52.8371L62.2167 47.8991V43.4549H67.1547L63.2043 31.6036V20.2462L58.2663 13.333L56.859 11.8516ZM56.6951 71.1077L56.7849 70.1201H67.1547L70.6113 68.1449V63.7007L72.5865 57.7751L71.5989 48.8867L79.4998 47.8991L74.0679 33.085L72.5865 18.271L69.3768 11.8516H92.3386V71.1077H56.6951Z" fill="#C0D6E3"/>
</g>
</svg>
