<svg width="96" height="80" viewBox="0 0 96 80" fill="none" xmlns="http://www.w3.org/2000/svg">
<mask id="path-1-inside-1_1348_7554" fill="white">
<path d="M57.8118 62.2895L51.7707 61.8747L51.2067 70.289C51.1406 71.1522 50.4098 71.8336 49.5476 71.8336C49.514 71.8336 49.4636 71.8336 49.431 71.8336C48.9827 71.8001 48.5847 71.6006 48.3032 71.2687C48.0039 70.9359 47.8548 70.5053 47.8884 70.0569L47.8943 69.971L48.4681 61.4776L42.6314 60.3992C41.7307 60.2323 41.1342 59.3671 41.3011 58.4655C41.466 57.5638 42.3262 56.9692 43.2348 57.1352L50.4048 58.4595L58.4113 59.0205C58.4943 59.0373 58.5762 59.0373 58.6424 59.0373C59.1747 59.0373 59.6231 58.6057 59.6557 58.0576L59.3574 53.4761C59.3397 53.2114 59.39 52.928 59.5066 52.6791L61.0334 49.3104L59.6893 43.9319C59.5727 43.4341 59.6893 42.9028 60.0043 42.5048C60.3026 42.1058 60.8013 41.8737 61.2991 41.8737H66.1294L62.5444 32.2644L62.4437 31.6165C62.4437 31.3676 62.4773 28.1312 62.4773 27.8991C62.4773 25.6919 62.1958 23.5339 61.6319 21.4432C60.2364 16.4459 57.3161 12.7118 52.9183 10.3722C52.1272 9.96823 51.8121 9.00037 52.1934 8.20042C52.2042 8.1777 52.2092 8.154 52.222 8.13128C52.6368 7.35108 53.6827 7.03505 54.4787 7.44984C59.6567 10.1727 63.2427 14.7196 64.8357 20.579C65.4825 22.9522 65.7986 25.4094 65.7986 27.8991C65.7986 28.1974 65.7828 30.4383 65.764 31.3834L69.3174 40.9266C69.4991 41.3256 69.5989 41.7562 69.5989 42.172C69.5989 43.8312 68.237 45.1763 66.5936 45.1931H63.4244L64.4031 49.0763C64.4861 49.4417 64.4515 49.8229 64.3024 50.1716L62.6926 53.6894L62.9592 58.0378C62.9592 60.411 61.0176 62.3527 58.6424 62.3527C58.359 62.3556 58.0775 62.3388 57.8118 62.2895ZM47.1072 8.34856C47.1072 8.34856 47.1072 8.36535 47.125 8.36535C47.2247 8.38214 47.3403 8.39892 47.4558 8.39892C48.2153 8.39892 48.877 7.86167 49.0646 7.11406C49.0696 7.0943 49.0785 7.07554 49.0824 7.0548C49.1664 6.62321 49.0824 6.17484 48.8335 5.80943C48.5847 5.44402 48.2192 5.19514 47.7709 5.11218C46.8919 4.91368 45.9952 5.52698 45.8292 6.40693C45.8253 6.42471 45.8263 6.44248 45.8223 6.46026C45.7414 6.87505 45.8233 7.30071 46.0623 7.65131C46.3102 8.01574 46.6766 8.2656 47.1072 8.34856ZM42.506 6.18768C42.506 6.17188 42.5099 6.15608 42.5099 6.14028C42.4941 5.24353 41.7465 4.5137 40.8507 4.5137H40.8172C40.8014 4.5137 40.8014 4.5137 40.7836 4.5137C40.4853 4.53049 40.1535 4.53048 39.7555 4.56406C32.9667 4.91269 26.0634 7.6839 21.714 11.7667C17.4989 15.7339 15.5395 20.1652 14.9913 27.0696C14.8758 28.3149 14.8264 29.5257 14.8264 30.7049C14.8264 35.8484 15.8387 43.1191 20.6187 48.6131C22.2285 50.4718 23.1252 52.7788 23.1252 55.0859C23.1252 55.5826 23.0917 56.0982 22.9929 56.6127L21.2834 66.5707C21.2004 67.0191 21.3002 67.4497 21.5658 67.8161C21.8147 68.1805 22.1969 68.4126 22.6275 68.4965C22.7272 68.5123 22.827 68.5123 22.9099 68.5123C23.7237 68.5123 24.42 67.9316 24.5533 67.1346L24.5662 67.0615L26.2629 57.1766C26.3794 56.4794 26.4456 55.7663 26.4456 55.0859C26.4456 51.9651 25.2674 48.8946 23.1094 46.4384C19.0109 41.7414 18.1477 35.2844 18.1477 30.7049C18.1477 29.5919 18.1971 28.4641 18.2969 27.352C18.8786 21.0442 20.3224 17.7249 24.0062 14.1744C27.607 10.7228 34.1469 8.13326 39.9224 7.86661C40.2878 7.85081 40.6038 7.83303 40.8853 7.83303C41.7801 7.81821 42.4961 7.08048 42.506 6.18768ZM80.8941 45.5367L76.3847 33.4663C76.4035 32.3839 76.438 29.3489 76.438 29.0003C76.438 25.8953 76.0311 22.8327 75.2292 19.8976C72.4481 9.70947 65.7127 2.47825 56.7511 0.0576314C55.8732 -0.180381 54.9557 0.340086 54.7157 1.22695C54.4777 2.11185 55.0011 3.02241 55.886 3.26141C63.6802 5.36698 69.5623 11.7489 72.0264 20.7716C72.7513 23.4223 73.1187 26.1906 73.1187 28.9993C73.1187 29.3914 73.0762 33.2905 73.0604 33.6786C73.0505 33.8998 73.0861 34.121 73.1641 34.3284L77.8128 46.7722C77.8335 46.8315 77.8286 46.9421 77.8582 46.9984H71.2126C70.702 46.9984 70.2191 47.2335 69.905 47.6364C69.591 48.0393 69.4784 48.5647 69.6038 49.0605L71.3331 55.9866L69.3362 60.3547C69.2226 60.6026 69.1703 60.8762 69.188 61.1488L69.5525 66.9114C69.5525 67.4309 69.3194 67.9139 68.9145 68.2378C68.5076 68.5597 67.9841 68.6812 67.4795 68.5617C67.3936 68.542 67.3066 68.5291 67.2168 68.5222L57.3911 67.8704C56.5013 67.8181 55.7201 68.4689 55.6292 69.3577L54.7651 77.8393C54.6722 78.7518 55.3369 79.5666 56.2475 79.6584C56.3057 79.6653 56.363 79.6673 56.4173 79.6673C57.2588 79.6673 57.9797 79.0303 58.0676 78.176L58.7698 71.2885L66.8761 71.8277C68.3249 72.1171 69.8142 71.7625 70.9795 70.8352C72.1824 69.8782 72.8708 68.4482 72.8678 66.8077L72.5261 61.3562L74.5912 56.8389C74.7492 56.4972 74.7848 56.112 74.6919 55.7476L73.337 50.3197H77.8572C79.0334 50.3197 80.102 49.7212 80.7163 48.7188C81.3138 47.745 81.377 46.5639 80.8941 45.5367Z"/>
</mask>
<path d="M57.8118 62.2895L51.7707 61.8747L51.2067 70.289C51.1406 71.1522 50.4098 71.8336 49.5476 71.8336C49.514 71.8336 49.4636 71.8336 49.431 71.8336C48.9827 71.8001 48.5847 71.6006 48.3032 71.2687C48.0039 70.9359 47.8548 70.5053 47.8884 70.0569L47.8943 69.971L48.4681 61.4776L42.6314 60.3992C41.7307 60.2323 41.1342 59.3671 41.3011 58.4655C41.466 57.5638 42.3262 56.9692 43.2348 57.1352L50.4048 58.4595L58.4113 59.0205C58.4943 59.0373 58.5762 59.0373 58.6424 59.0373C59.1747 59.0373 59.6231 58.6057 59.6557 58.0576L59.3574 53.4761C59.3397 53.2114 59.39 52.928 59.5066 52.6791L61.0334 49.3104L59.6893 43.9319C59.5727 43.4341 59.6893 42.9028 60.0043 42.5048C60.3026 42.1058 60.8013 41.8737 61.2991 41.8737H66.1294L62.5444 32.2644L62.4437 31.6165C62.4437 31.3676 62.4773 28.1312 62.4773 27.8991C62.4773 25.6919 62.1958 23.5339 61.6319 21.4432C60.2364 16.4459 57.3161 12.7118 52.9183 10.3722C52.1272 9.96823 51.8121 9.00037 52.1934 8.20042C52.2042 8.1777 52.2092 8.154 52.222 8.13128C52.6368 7.35108 53.6827 7.03505 54.4787 7.44984C59.6567 10.1727 63.2427 14.7196 64.8357 20.579C65.4825 22.9522 65.7986 25.4094 65.7986 27.8991C65.7986 28.1974 65.7828 30.4383 65.764 31.3834L69.3174 40.9266C69.4991 41.3256 69.5989 41.7562 69.5989 42.172C69.5989 43.8312 68.237 45.1763 66.5936 45.1931H63.4244L64.4031 49.0763C64.4861 49.4417 64.4515 49.8229 64.3024 50.1716L62.6926 53.6894L62.9592 58.0378C62.9592 60.411 61.0176 62.3527 58.6424 62.3527C58.359 62.3556 58.0775 62.3388 57.8118 62.2895ZM47.1072 8.34856C47.1072 8.34856 47.1072 8.36535 47.125 8.36535C47.2247 8.38214 47.3403 8.39892 47.4558 8.39892C48.2153 8.39892 48.877 7.86167 49.0646 7.11406C49.0696 7.0943 49.0785 7.07554 49.0824 7.0548C49.1664 6.62321 49.0824 6.17484 48.8335 5.80943C48.5847 5.44402 48.2192 5.19514 47.7709 5.11218C46.8919 4.91368 45.9952 5.52698 45.8292 6.40693C45.8253 6.42471 45.8263 6.44248 45.8223 6.46026C45.7414 6.87505 45.8233 7.30071 46.0623 7.65131C46.3102 8.01574 46.6766 8.2656 47.1072 8.34856ZM42.506 6.18768C42.506 6.17188 42.5099 6.15608 42.5099 6.14028C42.4941 5.24353 41.7465 4.5137 40.8507 4.5137H40.8172C40.8014 4.5137 40.8014 4.5137 40.7836 4.5137C40.4853 4.53049 40.1535 4.53048 39.7555 4.56406C32.9667 4.91269 26.0634 7.6839 21.714 11.7667C17.4989 15.7339 15.5395 20.1652 14.9913 27.0696C14.8758 28.3149 14.8264 29.5257 14.8264 30.7049C14.8264 35.8484 15.8387 43.1191 20.6187 48.6131C22.2285 50.4718 23.1252 52.7788 23.1252 55.0859C23.1252 55.5826 23.0917 56.0982 22.9929 56.6127L21.2834 66.5707C21.2004 67.0191 21.3002 67.4497 21.5658 67.8161C21.8147 68.1805 22.1969 68.4126 22.6275 68.4965C22.7272 68.5123 22.827 68.5123 22.9099 68.5123C23.7237 68.5123 24.42 67.9316 24.5533 67.1346L24.5662 67.0615L26.2629 57.1766C26.3794 56.4794 26.4456 55.7663 26.4456 55.0859C26.4456 51.9651 25.2674 48.8946 23.1094 46.4384C19.0109 41.7414 18.1477 35.2844 18.1477 30.7049C18.1477 29.5919 18.1971 28.4641 18.2969 27.352C18.8786 21.0442 20.3224 17.7249 24.0062 14.1744C27.607 10.7228 34.1469 8.13326 39.9224 7.86661C40.2878 7.85081 40.6038 7.83303 40.8853 7.83303C41.7801 7.81821 42.4961 7.08048 42.506 6.18768ZM80.8941 45.5367L76.3847 33.4663C76.4035 32.3839 76.438 29.3489 76.438 29.0003C76.438 25.8953 76.0311 22.8327 75.2292 19.8976C72.4481 9.70947 65.7127 2.47825 56.7511 0.0576314C55.8732 -0.180381 54.9557 0.340086 54.7157 1.22695C54.4777 2.11185 55.0011 3.02241 55.886 3.26141C63.6802 5.36698 69.5623 11.7489 72.0264 20.7716C72.7513 23.4223 73.1187 26.1906 73.1187 28.9993C73.1187 29.3914 73.0762 33.2905 73.0604 33.6786C73.0505 33.8998 73.0861 34.121 73.1641 34.3284L77.8128 46.7722C77.8335 46.8315 77.8286 46.9421 77.8582 46.9984H71.2126C70.702 46.9984 70.2191 47.2335 69.905 47.6364C69.591 48.0393 69.4784 48.5647 69.6038 49.0605L71.3331 55.9866L69.3362 60.3547C69.2226 60.6026 69.1703 60.8762 69.188 61.1488L69.5525 66.9114C69.5525 67.4309 69.3194 67.9139 68.9145 68.2378C68.5076 68.5597 67.9841 68.6812 67.4795 68.5617C67.3936 68.542 67.3066 68.5291 67.2168 68.5222L57.3911 67.8704C56.5013 67.8181 55.7201 68.4689 55.6292 69.3577L54.7651 77.8393C54.6722 78.7518 55.3369 79.5666 56.2475 79.6584C56.3057 79.6653 56.363 79.6673 56.4173 79.6673C57.2588 79.6673 57.9797 79.0303 58.0676 78.176L58.7698 71.2885L66.8761 71.8277C68.3249 72.1171 69.8142 71.7625 70.9795 70.8352C72.1824 69.8782 72.8708 68.4482 72.8678 66.8077L72.5261 61.3562L74.5912 56.8389C74.7492 56.4972 74.7848 56.112 74.6919 55.7476L73.337 50.3197H77.8572C79.0334 50.3197 80.102 49.7212 80.7163 48.7188C81.3138 47.745 81.377 46.5639 80.8941 45.5367Z" fill="#618E81" stroke="white" stroke-width="0.395041" mask="url(#path-1-inside-1_1348_7554)"/>
<mask id="path-2-outside-2_1348_7554" maskUnits="userSpaceOnUse" x="0" y="8.875" width="13" height="13" fill="black">
<rect fill="white" y="8.875" width="13" height="13"/>
<path d="M2.11105 20.9855C1.81638 20.9855 1.53378 20.8685 1.32542 20.6601C1.11706 20.4517 1 20.1691 1 19.8745V10.9861C1 10.6914 1.11706 10.4088 1.32542 10.2004C1.53378 9.99206 1.81638 9.875 2.11105 9.875H10.7328C11.0275 9.875 11.3101 9.99206 11.5185 10.2004C11.7268 10.4088 11.8439 10.6914 11.8439 10.9861C11.8439 11.2807 11.7268 11.5633 11.5185 11.7717C11.3101 11.98 11.0275 12.0971 10.7328 12.0971H3.18878V19.8745C3.18878 20.1691 3.07172 20.4517 2.86335 20.6601C2.65499 20.8685 2.37239 20.9855 2.07772 20.9855"/>
</mask>
<path d="M2.11105 20.9855C1.81638 20.9855 1.53378 20.8685 1.32542 20.6601C1.11706 20.4517 1 20.1691 1 19.8745V10.9861C1 10.6914 1.11706 10.4088 1.32542 10.2004C1.53378 9.99206 1.81638 9.875 2.11105 9.875H10.7328C11.0275 9.875 11.3101 9.99206 11.5185 10.2004C11.7268 10.4088 11.8439 10.6914 11.8439 10.9861C11.8439 11.2807 11.7268 11.5633 11.5185 11.7717C11.3101 11.98 11.0275 12.0971 10.7328 12.0971H3.18878V19.8745C3.18878 20.1691 3.07172 20.4517 2.86335 20.6601C2.65499 20.8685 2.37239 20.9855 2.07772 20.9855" fill="#618E81"/>
<path d="M1 19.8745H0.604959H1ZM2.11105 9.875V9.47996V9.875ZM10.7328 12.0971V12.4921V12.0971ZM3.18878 12.0971V11.7021H2.79373V12.0971H3.18878ZM3.18878 19.8745H3.58382H3.18878ZM2.11105 20.5905C1.92116 20.5905 1.73903 20.5151 1.60476 20.3808L1.04608 20.9394C1.32853 21.2219 1.71161 21.3806 2.11105 21.3806V20.5905ZM1.60476 20.3808C1.47048 20.2465 1.39504 20.0644 1.39504 19.8745H0.604959C0.604959 20.2739 0.763636 20.657 1.04608 20.9394L1.60476 20.3808ZM1.39504 19.8745V10.9861H0.604959V19.8745H1.39504ZM1.39504 10.9861C1.39504 10.7962 1.47048 10.614 1.60476 10.4798L1.04608 9.92108C0.763636 10.2035 0.604959 10.5866 0.604959 10.9861H1.39504ZM1.60476 10.4798C1.73903 10.3455 1.92116 10.27 2.11105 10.27V9.47996C1.71161 9.47996 1.32853 9.63864 1.04608 9.92108L1.60476 10.4798ZM2.11105 10.27H10.7328V9.47996H2.11105V10.27ZM10.7328 10.27C10.9227 10.27 11.1048 10.3455 11.2391 10.4798L11.7978 9.92108C11.5153 9.63864 11.1323 9.47996 10.7328 9.47996V10.27ZM11.2391 10.4798C11.3734 10.614 11.4488 10.7962 11.4488 10.9861H12.2389C12.2389 10.5866 12.0802 10.2035 11.7978 9.92108L11.2391 10.4798ZM11.4488 10.9861C11.4488 11.176 11.3734 11.3581 11.2391 11.4924L11.7978 12.051C12.0802 11.7686 12.2389 11.3855 12.2389 10.9861H11.4488ZM11.2391 11.4924C11.1048 11.6266 10.9227 11.7021 10.7328 11.7021V12.4921C11.1323 12.4921 11.5153 12.3335 11.7978 12.051L11.2391 11.4924ZM10.7328 11.7021H3.18878V12.4921H10.7328V11.7021ZM2.79373 12.0971V19.8745H3.58382V12.0971H2.79373ZM2.79373 19.8745C2.79373 20.0644 2.7183 20.2465 2.58402 20.3808L3.14269 20.9394C3.42514 20.657 3.58382 20.2739 3.58382 19.8745H2.79373ZM2.58402 20.3808C2.44974 20.5151 2.26762 20.5905 2.07772 20.5905V21.3806C2.47716 21.3806 2.86024 21.2219 3.14269 20.9394L2.58402 20.3808Z" fill="#618E81" mask="url(#path-2-outside-2_1348_7554)"/>
<mask id="path-4-outside-3_1348_7554" maskUnits="userSpaceOnUse" x="82.902" y="8.875" width="13" height="13" fill="black">
<rect fill="white" x="82.902" y="8.875" width="13" height="13"/>
<path d="M93.6525 20.7386C93.3573 20.7386 93.0742 20.6242 92.8655 20.4204C92.6567 20.2167 92.5395 19.9404 92.5395 19.6523V12.0477H85.0151C84.7198 12.0477 84.4367 11.9333 84.228 11.7295C84.0192 11.5258 83.902 11.2495 83.902 10.9614C83.902 10.6732 84.0192 10.3969 84.228 10.1932C84.4367 9.98946 84.7198 9.875 85.0151 9.875H93.6525C93.9477 9.875 94.2309 9.98946 94.4396 10.1932C94.6483 10.3969 94.7656 10.6732 94.7656 10.9614V19.6523C94.7656 19.9404 94.6483 20.2167 94.4396 20.4204C94.2309 20.6242 93.9477 20.7386 93.6525 20.7386Z"/>
</mask>
<path d="M93.6525 20.7386C93.3573 20.7386 93.0742 20.6242 92.8655 20.4204C92.6567 20.2167 92.5395 19.9404 92.5395 19.6523V12.0477H85.0151C84.7198 12.0477 84.4367 11.9333 84.228 11.7295C84.0192 11.5258 83.902 11.2495 83.902 10.9614C83.902 10.6732 84.0192 10.3969 84.228 10.1932C84.4367 9.98946 84.7198 9.875 85.0151 9.875H93.6525C93.9477 9.875 94.2309 9.98946 94.4396 10.1932C94.6483 10.3969 94.7656 10.6732 94.7656 10.9614V19.6523C94.7656 19.9404 94.6483 20.2167 94.4396 20.4204C94.2309 20.6242 93.9477 20.7386 93.6525 20.7386Z" fill="#618E81"/>
<path d="M92.5395 12.0477H92.9345V11.6527H92.5395V12.0477ZM85.0151 12.0477V12.4428V12.0477ZM85.0151 9.875V9.47996V9.875ZM93.6525 20.3436C93.459 20.3436 93.2754 20.2685 93.1414 20.1377L92.5895 20.7032C92.8731 20.9799 93.2556 21.1337 93.6525 21.1337V20.3436ZM93.1414 20.1377C93.0078 20.0073 92.9345 19.8325 92.9345 19.6523H92.1444C92.1444 20.0483 92.3057 20.4261 92.5895 20.7032L93.1414 20.1377ZM92.9345 19.6523V12.0477H92.1444V19.6523H92.9345ZM92.5395 11.6527H85.0151V12.4428H92.5395V11.6527ZM85.0151 11.6527C84.8216 11.6527 84.6379 11.5776 84.5039 11.4468L83.9521 12.0122C84.2356 12.289 84.6181 12.4428 85.0151 12.4428V11.6527ZM84.5039 11.4468C84.3703 11.3164 84.297 11.1416 84.297 10.9614H83.5069C83.5069 11.3574 83.6682 11.7352 83.9521 12.0122L84.5039 11.4468ZM84.297 10.9614C84.297 10.7812 84.3703 10.6063 84.5039 10.4759L83.9521 9.91048C83.6682 10.1875 83.5069 10.5653 83.5069 10.9614H84.297ZM84.5039 10.4759C84.6379 10.3452 84.8216 10.27 85.0151 10.27V9.47996C84.6181 9.47996 84.2356 9.63376 83.9521 9.91048L84.5039 10.4759ZM85.0151 10.27H93.6525V9.47996H85.0151V10.27ZM93.6525 10.27C93.846 10.27 94.0297 10.3451 94.1637 10.4759L94.7155 9.91048C94.432 9.63376 94.0495 9.47996 93.6525 9.47996V10.27ZM94.1637 10.4759C94.2973 10.6063 94.3706 10.7812 94.3706 10.9614H95.1607C95.1607 10.5653 94.9994 10.1875 94.7155 9.91048L94.1637 10.4759ZM94.3706 10.9614V19.6523H95.1607V10.9614H94.3706ZM94.3706 19.6523C94.3706 19.8325 94.2973 20.0073 94.1637 20.1377L94.7155 20.7032C94.9994 20.4261 95.1607 20.0483 95.1607 19.6523H94.3706ZM94.1637 20.1377C94.0297 20.2685 93.846 20.3436 93.6525 20.3436V21.1337C94.0495 21.1337 94.432 20.9799 94.7155 20.7032L94.1637 20.1377Z" fill="#618E81" mask="url(#path-4-outside-3_1348_7554)"/>
<path d="M2.11105 72.2924H10.7328C11.0799 72.2924 11.4127 72.1546 11.6581 71.9092C11.9035 71.6638 12.0414 71.3309 12.0414 70.9839C12.0414 70.6368 11.9035 70.304 11.6581 70.0586C11.4127 69.8131 11.0799 69.6753 10.7328 69.6753H3.41963V62.0954C3.41963 61.7484 3.28176 61.4155 3.03636 61.1701C2.79095 60.9247 2.45811 60.7869 2.11105 60.7869C1.764 60.7869 1.43116 60.9247 1.18575 61.1701C0.940347 61.4155 0.802479 61.7484 0.802479 62.0954V70.9839C0.802479 71.3309 0.940346 71.6638 1.18575 71.9092C1.43116 72.1546 1.764 72.2924 2.11105 72.2924Z" fill="#618E81" stroke="#618E81" stroke-width="0.395041"/>
<mask id="path-7-outside-4_1348_7554" maskUnits="userSpaceOnUse" x="82.902" y="60.2266" width="13" height="13" fill="black">
<rect fill="white" x="82.902" y="60.2266" width="13" height="13"/>
<path d="M93.6525 72.0902H85.0151C84.7198 72.0902 84.4367 71.9785 84.228 71.7796C84.0192 71.5807 83.902 71.3109 83.902 71.0296C83.902 70.7483 84.0192 70.4786 84.228 70.2797C84.4367 70.0808 84.7198 69.969 85.0151 69.969H92.5728V62.545C92.5317 62.3886 92.5285 62.2253 92.5636 62.0676C92.5986 61.9098 92.6709 61.7618 92.775 61.6347C92.8791 61.5076 93.0122 61.4048 93.1643 61.334C93.3163 61.2633 93.4833 61.2266 93.6525 61.2266C93.8217 61.2266 93.9887 61.2633 94.1408 61.334C94.2928 61.4048 94.426 61.5076 94.5301 61.6347C94.6342 61.7618 94.7065 61.9098 94.7415 62.0676C94.7765 62.2253 94.7734 62.3886 94.7322 62.545V71.0296C94.7322 71.3109 94.6149 71.5807 94.4062 71.7796C94.1975 71.9785 93.9143 72.0902 93.6191 72.0902"/>
</mask>
<path d="M93.6525 72.0902H85.0151C84.7198 72.0902 84.4367 71.9785 84.228 71.7796C84.0192 71.5807 83.902 71.3109 83.902 71.0296C83.902 70.7483 84.0192 70.4786 84.228 70.2797C84.4367 70.0808 84.7198 69.969 85.0151 69.969H92.5728V62.545C92.5317 62.3886 92.5285 62.2253 92.5636 62.0676C92.5986 61.9098 92.6709 61.7618 92.775 61.6347C92.8791 61.5076 93.0122 61.4048 93.1643 61.334C93.3163 61.2633 93.4833 61.2266 93.6525 61.2266C93.8217 61.2266 93.9887 61.2633 94.1408 61.334C94.2928 61.4048 94.426 61.5076 94.5301 61.6347C94.6342 61.7618 94.7065 61.9098 94.7415 62.0676C94.7765 62.2253 94.7734 62.3886 94.7322 62.545V71.0296C94.7322 71.3109 94.6149 71.5807 94.4062 71.7796C94.1975 71.9785 93.9143 72.0902 93.6191 72.0902" fill="#618E81"/>
<path d="M92.5728 69.969V70.3641H92.9679V69.969H92.5728ZM92.5728 62.545H92.9679V62.4939L92.9549 62.4445L92.5728 62.545ZM94.7322 62.545L94.3502 62.4445L94.3372 62.4939V62.545H94.7322ZM93.6525 71.6952H85.0151V72.4852H93.6525V71.6952ZM85.0151 71.6952C84.8186 71.6952 84.6339 71.6206 84.5005 71.4936L83.9555 72.0656C84.2396 72.3363 84.6211 72.4852 85.0151 72.4852V71.6952ZM84.5005 71.4936C84.3678 71.3671 84.297 71.1998 84.297 71.0296H83.5069C83.5069 71.422 83.6707 71.7942 83.9555 72.0656L84.5005 71.4936ZM84.297 71.0296C84.297 70.8594 84.3678 70.6921 84.5005 70.5657L83.9555 69.9937C83.6707 70.265 83.5069 70.6372 83.5069 71.0296H84.297ZM84.5005 70.5657C84.6339 70.4386 84.8186 70.3641 85.0151 70.3641V69.574C84.6211 69.574 84.2396 69.7229 83.9555 69.9937L84.5005 70.5657ZM85.0151 70.3641H92.5728V69.574H85.0151V70.3641ZM92.9679 69.969V62.545H92.1778V69.969H92.9679ZM92.9549 62.4445C92.9298 62.3489 92.9278 62.2495 92.9492 62.1532L92.1779 61.9819C92.1292 62.2012 92.1337 62.4283 92.1908 62.6455L92.9549 62.4445ZM92.9492 62.1532C92.9706 62.0569 93.015 61.9651 93.0806 61.885L92.4694 61.3844C92.3268 61.5585 92.2266 61.7628 92.1779 61.9819L92.9492 62.1532ZM93.0806 61.885C93.1463 61.8048 93.2315 61.7384 93.3309 61.6922L92.9977 60.9758C92.7929 61.0711 92.6119 61.2104 92.4694 61.3844L93.0806 61.885ZM93.3309 61.6922C93.4303 61.646 93.5403 61.6216 93.6525 61.6216V60.8315C93.4263 60.8315 93.2024 60.8806 92.9977 60.9758L93.3309 61.6922ZM93.6525 61.6216C93.7647 61.6216 93.8748 61.646 93.9742 61.6922L94.3074 60.9758C94.1026 60.8806 93.8788 60.8315 93.6525 60.8315V61.6216ZM93.9742 61.6922C94.0735 61.7384 94.1588 61.8048 94.2244 61.885L94.8357 61.3844C94.6932 61.2104 94.5122 61.0711 94.3074 60.9758L93.9742 61.6922ZM94.2244 61.885C94.29 61.9651 94.3345 62.0569 94.3559 62.1532L95.1271 61.9819C95.0785 61.7628 94.9783 61.5585 94.8357 61.3844L94.2244 61.885ZM94.3559 62.1532C94.3772 62.2495 94.3753 62.3489 94.3502 62.4445L95.1143 62.6455C95.1714 62.4283 95.1758 62.2012 95.1271 61.9819L94.3559 62.1532ZM94.3372 62.545V71.0296H95.1273V62.545H94.3372ZM94.3372 71.0296C94.3372 71.1998 94.2664 71.3671 94.1337 71.4936L94.6787 72.0656C94.9635 71.7942 95.1273 71.422 95.1273 71.0296H94.3372ZM94.1337 71.4936C94.0003 71.6206 93.8156 71.6952 93.6191 71.6952V72.4852C94.0131 72.4852 94.3946 72.3363 94.6787 72.0656L94.1337 71.4936Z" fill="#618E81" mask="url(#path-7-outside-4_1348_7554)"/>
</svg>
