<svg width="128" height="67" viewBox="0 0 128 67" fill="none" xmlns="http://www.w3.org/2000/svg">
<path d="M98.9535 5.61719H62.3656V42.2051H98.9535V5.61719Z" fill="#C4C4C4" stroke="#303838" stroke-width="2.6"/>
<path d="M76.5 22.5V5.5L85 6L85.5 22L84 22.5L80.5 18L78 22.5H76.5Z" fill="#618E81"/>
<path d="M118 42H63.5L73 59.5C84 59.6667 107.8 59.9 115 59.5C124 59 126.5 55 126 49C125.6 44.2 120.5 42.3333 118 42Z" fill="#EEEEEE"/>
<circle cx="116.5" cy="50.5" r="8.5" fill="#C4C4C4"/>
<path d="M76.1024 5.60938H85.2164V21.6581C85.2164 22.8403 83.6918 23.3163 83.0191 22.3442L80.5943 18.8397L78.3087 22.2388C77.6444 23.2266 76.1024 22.7564 76.1024 21.5659V5.60938Z" stroke="#303838" stroke-width="2.6"/>
<path d="M55.5253 5.61719H18.9374V42.2051H55.5253V5.61719Z" fill="#C4C4C4" stroke="#303838" stroke-width="2.6"/>
<path d="M32.6743 5.60938H41.7883V21.6581C41.7883 22.8403 40.2637 23.3163 39.591 22.3442L37.1662 18.8397L34.8806 22.2388C34.2163 23.2266 32.6743 22.7564 32.6743 21.5659V5.60938Z" stroke="#303838" stroke-width="2.6"/>
<path d="M27.6133 42.1349C27.2919 42.1382 26.9712 42.1839 26.6549 42.2716C24.4928 42.4207 22.4678 43.3844 20.9887 44.9684C19.5096 46.5524 18.6866 48.6386 18.6858 50.8058C18.6858 51.9296 18.9071 53.0425 19.3372 54.0808C19.7673 55.1191 20.3976 56.0625 21.1923 56.8572C21.987 57.6518 22.9304 58.2822 23.9687 58.7123C25.007 59.1423 26.1198 59.3636 27.2437 59.3635C27.3426 59.3612 27.4416 59.3572 27.5404 59.3515V59.5H117.063V59.342C117.189 59.3513 117.316 59.3577 117.442 59.3613C118.566 59.3613 119.679 59.1401 120.717 58.71C121.755 58.28 122.699 57.6496 123.493 56.8549C124.288 56.0603 124.918 55.1168 125.349 54.0786C125.779 53.0403 126 51.9275 126 50.8037C125.997 48.6046 125.147 46.491 123.628 44.9015C122.108 43.3121 120.035 42.3686 117.838 42.267C117.515 42.1784 117.188 42.1336 116.86 42.1328C116.629 42.1357 116.398 42.1607 116.168 42.2076H28.3151C28.0824 42.1601 27.848 42.1351 27.6133 42.1328V42.1349Z" stroke="#303838" stroke-width="2.6" stroke-linecap="round" stroke-linejoin="round"/>
<path d="M117.073 59.3184C121.799 59.3184 125.63 55.487 125.63 50.7607C125.63 46.0345 121.799 42.2031 117.073 42.2031C112.347 42.2031 108.515 46.0345 108.515 50.7607C108.515 55.487 112.347 59.3184 117.073 59.3184Z" stroke="#303838" stroke-width="2.6" stroke-linecap="round" stroke-linejoin="round"/>
<path d="M117.073 54.3711C119.069 54.3711 120.688 52.7525 120.688 50.7559C120.688 48.7592 119.069 47.1406 117.073 47.1406C115.076 47.1406 113.458 48.7592 113.458 50.7559C113.458 52.7525 115.076 54.3711 117.073 54.3711Z" fill="#618E81" stroke="#303838" stroke-width="2.6" stroke-linecap="round" stroke-linejoin="round"/>
<path d="M27.2447 59.3653C31.9709 59.3653 35.8023 55.5338 35.8023 50.8076C35.8023 46.0813 31.9709 42.25 27.2447 42.25C22.5184 42.25 18.687 46.0813 18.687 50.8076C18.687 55.5338 22.5184 59.3653 27.2447 59.3653Z" stroke="#303838" stroke-width="2.6" stroke-linecap="round" stroke-linejoin="round"/>
<path d="M27.2447 54.418C29.2413 54.418 30.8599 52.7994 30.8599 50.8028C30.8599 48.8061 29.2413 47.1875 27.2447 47.1875C25.248 47.1875 23.6294 48.8061 23.6294 50.8028C23.6294 52.7994 25.248 54.418 27.2447 54.418Z" stroke="#303838" stroke-width="2.6" stroke-linecap="round" stroke-linejoin="round"/>
<path d="M31.9402 4.31047C34.191 0.411957 39.818 0.411954 42.0688 4.31046L71.8281 55.8552C74.0789 59.7537 71.2654 64.6268 66.7638 64.6268H7.24514C2.74353 64.6268 -0.069977 59.7537 2.18083 55.8552L31.9402 4.31047Z" fill="#B46D6D" stroke="#303838" stroke-width="2.77317"/>
<path fill-rule="evenodd" clip-rule="evenodd" d="M35 45.5H37L42 23.5L40 18.5H35L31 20V25L35 45.5ZM35.5 57C37.433 57 39 55.433 39 53.5C39 51.567 37.433 50 35.5 50C33.567 50 32 51.567 32 53.5C32 55.433 33.567 57 35.5 57Z" fill="#EEEEEE"/>
<path d="M28.8874 23.8255H28.8863L28.8884 23.8355L33.1002 44.4394C33.1002 44.4395 33.1002 44.4397 33.1003 44.4398C33.2305 45.1367 33.6113 45.7655 34.1741 46.2139C34.7368 46.6623 35.4448 46.9013 36.1716 46.8885C36.9019 46.9062 37.615 46.6695 38.182 46.2207C38.7493 45.7718 39.1331 45.1402 39.2639 44.4398C39.2639 44.4397 39.264 44.4395 39.264 44.4394L43.455 24.0575L43.4561 24.0578V24.0475V23.8255C43.4561 21.9456 42.6883 20.143 41.322 18.8141C39.9559 17.4853 38.1032 16.7391 36.1717 16.7391C34.2402 16.7391 32.3876 17.4853 31.0214 18.8141C29.6552 20.143 28.8874 21.9456 28.8874 23.8255ZM31.3794 23.7078L31.3712 23.6679H31.3304H31.3253C31.3387 22.4436 31.8446 21.2721 32.736 20.405C33.6397 19.5261 34.8655 19.0321 36.1441 19.0321C37.4226 19.0321 38.6485 19.5261 39.5521 20.405C40.4545 21.2827 40.9617 22.4723 40.9631 23.7128L36.8144 43.9628L36.8133 43.9625V43.9728C36.8133 44.1375 36.7461 44.2957 36.6259 44.4126C36.5057 44.5296 36.3423 44.5955 36.1717 44.5955C36.0011 44.5955 35.8378 44.5296 35.7175 44.4126C35.5974 44.2957 35.5301 44.1375 35.5301 43.9728H35.5311L35.5291 43.9628L31.3794 23.7078Z" fill="#303838" stroke="#303838" stroke-width="0.1"/>
<path d="M36.1783 59.1293H36.1784C37.5182 59.1258 38.8021 58.5916 39.749 57.6435C40.6958 56.6954 41.2284 55.4108 41.2301 54.071V54.0709C41.2301 53.0702 40.9333 52.0919 40.3772 51.2599C39.821 50.4279 39.0307 49.7796 38.106 49.3969C37.1813 49.0143 36.1639 48.9145 35.1825 49.1102C34.2011 49.3059 33.2997 49.7883 32.5926 50.4964C31.8854 51.2045 31.4042 52.1064 31.2097 53.0881C31.0153 54.0697 31.1164 55.087 31.5003 56.0112C31.8841 56.9354 32.5335 57.7249 33.3662 58.28C34.1989 58.835 35.1776 59.1306 36.1783 59.1293ZM36.1282 51.3245V51.35L36.1782 51.35C36.8961 51.35 37.585 51.6329 38.0956 52.1375C38.6061 52.6421 38.8971 53.3275 38.9056 54.0452C38.9068 54.5848 38.7479 55.1127 38.4491 55.562C38.1502 56.0113 37.7246 56.3619 37.2264 56.5693C36.7281 56.7767 36.1795 56.8316 35.6501 56.7271C35.1206 56.6226 34.634 56.3634 34.2519 55.9822C33.8699 55.601 33.6095 55.1151 33.5037 54.5858C33.398 54.0566 33.4516 53.5079 33.6579 53.0091C33.8641 52.5104 34.2137 52.0841 34.6623 51.7841C35.0971 51.4934 35.606 51.334 36.1282 51.3245Z" fill="#303838" stroke="#303838" stroke-width="0.1"/>
</svg>
