<svg width="79" height="79" viewBox="0 0 79 79" fill="none" xmlns="http://www.w3.org/2000/svg">
<path d="M76.5 39.5H47.5L45.5 65.5L51.5 73C53.3333 74.3333 58.4 77 64 77C69.6 77 74.6667 68 76.5 63.5V39.5Z" fill="#C0E3C0"/>
<path d="M36 60.5H2C3.16667 54.6667 8.1 43 18.5 43C28.9 43 34.5 54.6667 36 60.5Z" fill="#618E81"/>
<path d="M18.5 2L18.5 36C12.6667 34.8333 1 29.9 1 19.5C1 9.1 12.6667 3.5 18.5 2Z" fill="#C0D6E3"/>
<path d="M19 36L19 2C24.8333 3.16667 36.5 8.1 36.5 18.5C36.5 28.9 24.8333 34.5 19 36Z" fill="#EEEEEE"/>
<path d="M3 60L37 60C35.8333 65.8333 30.9 77.5 20.5 77.5C10.1 77.5 4.5 65.8333 3 60Z" fill="#EEEEEE"/>
<path d="M77 40H47V20.5L48 8.5L58 2L71 5L77 15V40Z" fill="#EEEEEE"/>
<path d="M64.25 68.4156C58.2552 68.4156 53.35 63.5104 53.35 57.5156C53.35 57.0804 53.2045 56.7099 52.9426 56.448C52.6807 56.1861 52.3102 56.0406 51.875 56.0406C51.4398 56.0406 51.0693 56.1861 50.8074 56.448C50.5455 56.7099 50.4 57.0804 50.4 57.5156C50.4 65.1334 56.6323 71.3656 64.25 71.3656C64.6852 71.3656 65.0557 71.2201 65.3176 70.9582C65.5795 70.6963 65.725 70.3258 65.725 69.8906C65.725 69.4554 65.5795 69.0849 65.3176 68.823C65.0557 68.5611 64.6852 68.4156 64.25 68.4156Z" fill="#303838" stroke="#303838" stroke-width="0.2"/>
<path d="M54.4875 11.622H54.4461L54.4168 11.6513C51.7845 14.2836 50.4 17.8845 50.4 21.4845C50.4 21.9197 50.5455 22.2902 50.8074 22.5521C51.0693 22.814 51.4398 22.9595 51.875 22.9595C52.3102 22.9595 52.6807 22.814 52.9426 22.5521C53.2045 22.2902 53.35 21.9197 53.35 21.4845C53.35 18.6214 54.4409 15.76 56.4832 13.7177C57.0583 13.1426 57.2224 12.253 56.6207 11.6513C56.0456 11.0762 55.1559 10.9121 54.5543 11.5138L54.525 11.5431V11.5845C54.525 11.5991 54.525 11.6113 54.5249 11.6219C54.5143 11.622 54.5021 11.622 54.4875 11.622Z" fill="#303838" stroke="#303838" stroke-width="0.2"/>
<path d="M61.5 0.9C52.3698 0.9 44.9 8.36977 44.9 17.5V61.5C44.9 70.6302 52.3698 78.1 61.5 78.1C70.6302 78.1 78.1 70.6302 78.1 61.5V17.5C78.1 8.36977 70.6302 0.9 61.5 0.9ZM61.5 75.15C53.9927 75.15 47.85 69.0073 47.85 61.5V40.975H75.15V61.5C75.15 69.0073 69.0073 75.15 61.5 75.15ZM47.85 38.025V17.5C47.85 9.99273 53.9927 3.85 61.5 3.85C69.0073 3.85 75.15 9.99273 75.15 17.5V38.025H47.85Z" fill="#303838" stroke="#303838" stroke-width="0.2"/>
<path d="M18.875 78.1C28.8302 78.1 36.85 70.0802 36.85 60.125C36.85 50.1698 28.8302 42.15 18.875 42.15C8.91977 42.15 0.9 50.1698 0.9 60.125C0.9 70.0802 8.91977 78.1 18.875 78.1ZM18.875 75.15C11.1257 75.15 4.72996 69.3318 3.99704 61.6H34.026C33.1563 69.3315 26.6245 75.15 18.875 75.15ZM18.875 45.1C26.6255 45.1 33.1564 50.9193 33.8904 58.65H3.86147C4.73002 50.9174 11.1266 45.1 18.875 45.1Z" fill="#303838" stroke="#303838" stroke-width="0.2"/>
<path d="M17.4 3.99799V34.0266C9.25896 33.1523 3.17127 25.8048 3.987 17.6475L3.98706 17.6469C4.66658 10.4439 10.3488 4.72901 17.4 3.99799ZM18.875 36.85C28.8302 36.85 36.85 28.8302 36.85 18.875C36.85 8.91977 28.8302 0.9 18.875 0.9C8.91977 0.9 0.9 8.91977 0.9 18.875C0.9 28.8302 8.91977 36.85 18.875 36.85ZM33.9 18.875C33.9 26.6255 28.0807 33.1564 20.35 33.8904V3.86147C28.0826 4.73002 33.9 11.1266 33.9 18.875Z" fill="#303838" stroke="#303838" stroke-width="0.2"/>
</svg>
