<svg width="97" height="61" viewBox="0 0 97 61" fill="none" xmlns="http://www.w3.org/2000/svg">
<path d="M66.6875 3.03125C67.5246 3.03125 68.2031 2.35268 68.2031 1.51562C68.2031 0.678568 67.5246 0 66.6875 0C65.8504 0 65.1719 0.678568 65.1719 1.51562C65.1719 2.35268 65.8504 3.03125 66.6875 3.03125Z" fill="#618E81"/>
<path d="M87.9062 13.6406C87.9062 13.2387 87.7466 12.8531 87.4623 12.5689C87.1781 12.2847 86.7926 12.125 86.3906 12.125H37.1328C36.7308 12.125 36.3453 12.2847 36.0611 12.5689C35.7769 12.8531 35.6172 13.2387 35.6172 13.6406C35.6172 14.0426 35.7769 14.4281 36.0611 14.7123C36.3453 14.9966 36.7308 15.1562 37.1328 15.1562H86.3906C86.7926 15.1562 87.1781 14.9966 87.4623 14.7123C87.7466 14.4281 87.9062 14.0426 87.9062 13.6406Z" fill="#618E81"/>
<path d="M20.6808 37.8178L22.7345 39.629L22.9012 39.7578C23.3121 40.0237 23.791 40.1651 24.2804 40.1651C24.7698 40.1651 25.2488 40.0237 25.6596 39.7578L27.8573 37.8178C28.2353 37.5367 28.5213 37.1497 28.6792 36.7058C28.837 36.262 28.8595 35.7813 28.7439 35.3246L26.9479 28.4437C25.1239 28.9354 23.1999 28.917 21.3856 28.3906L19.7866 35.3473C19.6873 35.8015 19.7185 36.2746 19.8768 36.7118C20.035 37.149 20.3138 37.5324 20.6808 37.8178V37.8178ZM24.144 29.8077L25.6596 35.6808L24.2501 36.9463L22.8027 35.6202L24.144 29.8077Z" fill="#618E81"/>
<path d="M9.09375 39.2926V40.9219C9.09375 41.3238 9.25343 41.7094 9.53767 41.9936C9.8219 42.2778 10.2074 42.4375 10.6094 42.4375C11.0113 42.4375 11.3968 42.2778 11.6811 41.9936C11.9653 41.7094 12.125 41.3238 12.125 40.9219V39.2926C12.125 33.7757 15.2927 29.2364 19.7486 27.7814C18.6645 27.2794 17.673 26.5979 16.8159 25.7656C12.2084 28.1452 9.09375 33.2377 9.09375 39.2926Z" fill="#618E81"/>
<path d="M37.8907 42.4368C38.2927 42.4368 38.6782 42.2771 38.9624 41.9929C39.2466 41.7086 39.4063 41.3231 39.4063 40.9212V39.2919C39.4063 33.2294 36.2917 28.152 31.6842 25.7422C30.8288 26.5825 29.8372 27.2718 28.7515 27.7807C33.2074 29.2357 36.3751 33.7674 36.3751 39.2919V40.9212C36.3751 41.3231 36.5347 41.7086 36.819 41.9929C37.1032 42.2771 37.4887 42.4368 37.8907 42.4368Z" fill="#618E81"/>
<path d="M24.25 25.7656C25.7488 25.7656 27.214 25.3212 28.4602 24.4885C29.7064 23.6558 30.6777 22.4722 31.2513 21.0875C31.8248 19.7028 31.9749 18.1791 31.6825 16.7091C31.3901 15.2391 30.6684 13.8888 29.6085 12.829C28.5487 11.7691 27.1984 11.0474 25.7284 10.755C24.2584 10.4626 22.7347 10.6127 21.35 11.1862C19.9653 11.7598 18.7817 12.7311 17.949 13.9773C17.1163 15.2235 16.6719 16.6887 16.6719 18.1875C16.6719 20.1973 17.4703 22.1249 18.8915 23.546C20.3126 24.9672 22.2402 25.7656 24.25 25.7656V25.7656ZM24.25 13.6406C25.1493 13.6406 26.0284 13.9073 26.7761 14.4069C27.5238 14.9065 28.1066 15.6167 28.4508 16.4475C28.7949 17.2783 28.885 18.1925 28.7095 19.0746C28.5341 19.9566 28.101 20.7667 27.4651 21.4026C26.8292 22.0385 26.0191 22.4716 25.1371 22.647C24.255 22.8225 23.3408 22.7324 22.51 22.3883C21.6792 22.0441 20.969 21.4613 20.4694 20.7136C19.9698 19.9659 19.7031 19.0868 19.7031 18.1875C19.7031 16.9816 20.1822 15.8251 21.0349 14.9724C21.8876 14.1197 23.0441 13.6406 24.25 13.6406V13.6406Z" fill="#618E81"/>
<path d="M73.8716 23.4922H48.5C48.098 23.4922 47.7125 23.6519 47.4283 23.9361C47.1441 24.2203 46.9844 24.6058 46.9844 25.0078C46.9844 25.4098 47.1441 25.7953 47.4283 26.0795C47.7125 26.3638 48.098 26.5234 48.5 26.5234H71.9922C72.4431 25.4142 73.0785 24.3893 73.8716 23.4922V23.4922Z" fill="#618E81"/>
<path d="M88.7702 0H72.75C72.348 0 71.9625 0.159682 71.6783 0.443917C71.3941 0.728151 71.2344 1.11366 71.2344 1.51562C71.2344 1.91759 71.3941 2.3031 71.6783 2.58733C71.9625 2.87157 72.348 3.03125 72.75 3.03125H88.7702C90.1563 3.04127 91.482 3.60051 92.4565 4.58637C93.431 5.57223 93.9748 6.90427 93.9687 8.29047V33.3438C95.0338 33.3435 96.0798 33.6259 97 34.1622V8.29047C97.006 6.10034 96.1428 3.9973 94.5999 2.44297C93.0569 0.888639 90.9603 0.0100289 88.7702 0V0Z" fill="#618E81"/>
<path d="M8.22988 57.5938C6.8437 57.5837 5.51806 57.0245 4.54356 56.0386C3.56906 55.0528 3.02523 53.7207 3.03128 52.3345V51.5312H65.1719V48.5H3.03128V8.29047C3.02523 6.90427 3.56906 5.57223 4.54356 4.58637C5.51806 3.60051 6.8437 3.04127 8.22988 3.03125H60.625C61.027 3.03125 61.4125 2.87157 61.6967 2.58733C61.981 2.3031 62.1407 1.91759 62.1407 1.51562C62.1407 1.11366 61.981 0.728151 61.6967 0.443917C61.4125 0.159682 61.027 0 60.625 0H8.22988C6.03976 0.0100289 3.94311 0.888639 2.40015 2.44297C0.857184 3.9973 -0.00601379 6.10034 3.15406e-05 8.29047V52.3345C-0.00601379 54.5247 0.857184 56.6277 2.40015 58.182C3.94311 59.7364 6.03976 60.615 8.22988 60.625H65.9903C65.4541 59.7048 65.1716 58.6588 65.1719 57.5938H8.22988Z" fill="#618E81"/>
<path d="M93.9688 36.375H90.9375V30.3883C90.9375 26.1597 87.3152 22.7344 82.8516 22.7344H82.3439C77.888 22.7344 74.2656 26.1597 74.2656 30.3883V36.375H71.2344C70.4304 36.375 69.6594 36.6944 69.091 37.2628C68.5225 37.8313 68.2031 38.6023 68.2031 39.4062V57.5938C68.2031 58.3977 68.5225 59.1687 69.091 59.7372C69.6594 60.3056 70.4304 60.625 71.2344 60.625H93.9688C94.7727 60.625 95.5437 60.3056 96.1122 59.7372C96.6806 59.1687 97 58.3977 97 57.5938V39.4062C97 38.6023 96.6806 37.8313 96.1122 37.2628C95.5437 36.6944 94.7727 36.375 93.9688 36.375ZM77.2969 30.3883C77.3578 29.1063 77.9236 27.9006 78.8707 27.0344C79.8178 26.1683 81.0692 25.7121 82.3515 25.7656H82.8592C84.1402 25.7142 85.3897 26.1712 86.3351 27.0372C87.2805 27.9031 87.8453 29.1077 87.9062 30.3883V36.375H77.2969V30.3883ZM82.6016 51.0311C82.3018 51.0311 82.0088 50.9422 81.7595 50.7757C81.5103 50.6091 81.316 50.3724 81.2013 50.0955C81.0866 49.8185 81.0566 49.5138 81.1151 49.2198C81.1735 48.9258 81.3179 48.6557 81.5299 48.4438C81.7418 48.2318 82.0119 48.0874 82.3059 48.029C82.5999 47.9705 82.9046 48.0005 83.1816 48.1152C83.4585 48.2299 83.6952 48.4242 83.8618 48.6734C84.0283 48.9227 84.1172 49.2157 84.1172 49.5155C84.1152 49.9161 83.9546 50.2997 83.6706 50.5823C83.3866 50.8649 83.0022 51.0235 82.6016 51.0235V51.0311ZM84.1172 57.6013V53.8047C85.1284 53.4472 85.9807 52.7436 86.5234 51.8185C87.0662 50.8933 87.2643 49.8061 87.083 48.749C86.9016 47.6918 86.3523 46.7328 85.5323 46.0415C84.7122 45.3502 83.6742 44.971 82.6016 44.971C81.529 44.971 80.4909 45.3502 79.6709 46.0415C78.8508 46.7328 78.3015 47.6918 78.1202 48.749C77.9388 49.8061 78.137 50.8933 78.6797 51.8185C79.2224 52.7436 80.0747 53.4472 81.0859 53.8047V57.5938H71.2344V39.4062H93.9688V57.5938L84.1172 57.6013Z" fill="#618E81"/>
<path d="M46.9844 31.0703C46.9844 31.4723 47.1441 31.8578 47.4283 32.142C47.7125 32.4263 48.098 32.5859 48.5 32.5859H71.2344V30.3883C71.2344 30.1079 71.2344 29.8351 71.2798 29.5547H48.5C48.098 29.5547 47.7125 29.7144 47.4283 29.9986C47.1441 30.2828 46.9844 30.6683 46.9844 31.0703Z" fill="#618E81"/>
<path d="M46.9844 37.1328C46.9844 37.5348 47.1441 37.9203 47.4283 38.2045C47.7125 38.4888 48.098 38.6484 48.5 38.6484H65.2249C65.3664 37.5385 65.8123 36.4894 66.5132 35.6172H48.5C48.098 35.6172 47.7125 35.7769 47.4283 36.0611C47.1441 36.3453 46.9844 36.7308 46.9844 37.1328Z" fill="#618E81"/>
</svg>
