<svg width="92" height="87" viewBox="0 0 92 87" fill="none" xmlns="http://www.w3.org/2000/svg">
<mask id="path-1-outside-1_1348_7549" maskUnits="userSpaceOnUse" x="0" y="0" width="92" height="87" fill="black">
<rect fill="white" width="92" height="87"/>
<path d="M91 1H51.699L44.794 7.901H19.366C15.394 7.901 12.162 11.131 12.162 15.101C12.162 15.101 12.17 15.618 12.185 15.808L2.354 25.639C1.231 26.776 1 27.83 1 28.697C1 29.959 1.388 30.736 1.6 31.168C3.797 35.647 10.833 49.891 10.833 49.891C11.214 50.653 11.985 51.094 12.784 51.094C13.111 51.094 13.443 51.02 13.754 50.865L14.097 50.693C15.605 49.94 16.731 48.645 17.265 47.045C17.799 45.446 17.679 43.735 16.926 42.227L10.729 29.816L18.209 22.336C18.588 22.398 18.975 22.432 19.366 22.432H36.118C36.197 23.915 36.503 25.338 37 26.669L28.59 44.166C28.277 44.822 28.119 45.519 28.119 46.238C28.119 47.929 28.979 49.461 30.419 50.337C31.198 50.812 32.061 51.041 32.914 51.041C34.366 51.041 35.792 50.379 36.734 49.141L47.022 35.589C48.117 35.858 49.261 36.003 50.438 36.003C54.569 36.003 58.294 34.245 60.914 31.442L91 1ZM52.572 3.107H85.912L64.405 24.903C64.647 23.861 64.779 22.777 64.779 21.662C64.779 13.754 58.346 7.321 50.438 7.321C49.668 7.321 48.913 7.384 48.176 7.501L52.572 3.107ZM16.916 14.046C17.345 13.573 17.963 13.274 18.651 13.274C19.944 13.274 20.996 14.326 20.996 15.62C20.996 16.308 20.696 16.927 20.222 17.356L20.216 17.35L20.121 17.445C19.718 17.77 19.207 17.966 18.651 17.966C17.358 17.966 16.305 16.914 16.305 15.621C16.305 15.063 16.502 14.551 16.828 14.147L16.922 14.053L16.916 14.046ZM17.618 19.946L9.559 28.004C9.197 26.364 7.904 25.071 6.263 24.709L14.322 16.65C14.711 18.277 15.991 19.558 17.618 19.946ZM3.106 28.938C3.106 27.711 4.104 26.713 5.331 26.713C6.558 26.713 7.556 27.711 7.556 28.938C7.556 30.165 6.558 31.163 5.331 31.163C4.104 31.163 3.106 30.165 3.106 28.938ZM15.266 46.377C14.91 47.443 14.161 48.306 13.155 48.807L12.811 48.979C12.777 48.996 12.735 48.982 12.718 48.948L4.878 33.246C5.027 33.262 5.178 33.27 5.332 33.27C6.909 33.27 8.287 32.421 9.045 31.158L15.042 43.167C15.542 44.172 15.622 45.312 15.266 46.377ZM21.584 18.96C22.513 18.143 23.103 16.95 23.103 15.619C23.103 13.163 21.105 11.166 18.65 11.166C17.323 11.166 16.133 11.753 15.317 12.676L14.554 13.439C15.246 11.445 17.139 10.008 19.366 10.008H42.094C38.807 12.368 36.555 16.079 36.161 20.324H20.22L21.584 18.96ZM35.056 47.865C34.217 48.967 32.697 49.257 31.515 48.537C30.708 48.046 30.226 47.187 30.226 46.238C30.226 45.835 30.316 45.443 30.491 45.075L38.175 29.09C39.742 31.667 42.098 33.713 44.906 34.891L35.056 47.865ZM50.438 33.895C43.692 33.895 38.204 28.407 38.204 21.661C38.204 14.915 43.692 9.427 50.438 9.427C57.184 9.427 62.672 14.915 62.672 21.661C62.672 28.407 57.183 33.895 50.438 33.895ZM50.438 15.229C46.891 15.229 44.005 18.115 44.005 21.662C44.005 25.209 46.891 28.095 50.438 28.095C53.985 28.095 56.871 25.209 56.871 21.662C56.871 18.115 53.985 15.229 50.438 15.229ZM50.438 25.988C48.053 25.988 46.112 24.047 46.112 21.662C46.112 19.277 48.053 17.336 50.438 17.336C52.823 17.336 54.764 19.276 54.764 21.662C54.764 24.048 52.823 25.988 50.438 25.988ZM27.303 61.606L31.257 52.379H26.738C27.413 51.513 27.819 50.429 27.819 49.249C27.819 46.795 26.078 44.741 23.767 44.254V42.075H26.186V39.968H23.767V37.549H21.66V39.968H19.24V42.075H21.659V44.254C19.348 44.741 17.607 46.795 17.607 49.249C17.607 50.429 18.013 51.514 18.688 52.379H14.169L18.125 61.608L13.849 76.69H11.24V85.743H34.185V76.69H31.652L27.303 61.606ZM22.713 46.251C24.366 46.251 25.711 47.596 25.711 49.249C25.711 50.902 24.366 52.247 22.713 52.247C21.06 52.247 19.715 50.902 19.715 49.249C19.715 47.596 21.06 46.251 22.713 46.251ZM20.356 61.465L17.365 54.487H28.061L25.069 61.468L29.459 76.691H16.039L20.356 61.465ZM32.078 83.637H13.348V78.798H32.079V83.637H32.078Z"/>
</mask>
<path d="M91 1H51.699L44.794 7.901H19.366C15.394 7.901 12.162 11.131 12.162 15.101C12.162 15.101 12.17 15.618 12.185 15.808L2.354 25.639C1.231 26.776 1 27.83 1 28.697C1 29.959 1.388 30.736 1.6 31.168C3.797 35.647 10.833 49.891 10.833 49.891C11.214 50.653 11.985 51.094 12.784 51.094C13.111 51.094 13.443 51.02 13.754 50.865L14.097 50.693C15.605 49.94 16.731 48.645 17.265 47.045C17.799 45.446 17.679 43.735 16.926 42.227L10.729 29.816L18.209 22.336C18.588 22.398 18.975 22.432 19.366 22.432H36.118C36.197 23.915 36.503 25.338 37 26.669L28.59 44.166C28.277 44.822 28.119 45.519 28.119 46.238C28.119 47.929 28.979 49.461 30.419 50.337C31.198 50.812 32.061 51.041 32.914 51.041C34.366 51.041 35.792 50.379 36.734 49.141L47.022 35.589C48.117 35.858 49.261 36.003 50.438 36.003C54.569 36.003 58.294 34.245 60.914 31.442L91 1ZM52.572 3.107H85.912L64.405 24.903C64.647 23.861 64.779 22.777 64.779 21.662C64.779 13.754 58.346 7.321 50.438 7.321C49.668 7.321 48.913 7.384 48.176 7.501L52.572 3.107ZM16.916 14.046C17.345 13.573 17.963 13.274 18.651 13.274C19.944 13.274 20.996 14.326 20.996 15.62C20.996 16.308 20.696 16.927 20.222 17.356L20.216 17.35L20.121 17.445C19.718 17.77 19.207 17.966 18.651 17.966C17.358 17.966 16.305 16.914 16.305 15.621C16.305 15.063 16.502 14.551 16.828 14.147L16.922 14.053L16.916 14.046ZM17.618 19.946L9.559 28.004C9.197 26.364 7.904 25.071 6.263 24.709L14.322 16.65C14.711 18.277 15.991 19.558 17.618 19.946ZM3.106 28.938C3.106 27.711 4.104 26.713 5.331 26.713C6.558 26.713 7.556 27.711 7.556 28.938C7.556 30.165 6.558 31.163 5.331 31.163C4.104 31.163 3.106 30.165 3.106 28.938ZM15.266 46.377C14.91 47.443 14.161 48.306 13.155 48.807L12.811 48.979C12.777 48.996 12.735 48.982 12.718 48.948L4.878 33.246C5.027 33.262 5.178 33.27 5.332 33.27C6.909 33.27 8.287 32.421 9.045 31.158L15.042 43.167C15.542 44.172 15.622 45.312 15.266 46.377ZM21.584 18.96C22.513 18.143 23.103 16.95 23.103 15.619C23.103 13.163 21.105 11.166 18.65 11.166C17.323 11.166 16.133 11.753 15.317 12.676L14.554 13.439C15.246 11.445 17.139 10.008 19.366 10.008H42.094C38.807 12.368 36.555 16.079 36.161 20.324H20.22L21.584 18.96ZM35.056 47.865C34.217 48.967 32.697 49.257 31.515 48.537C30.708 48.046 30.226 47.187 30.226 46.238C30.226 45.835 30.316 45.443 30.491 45.075L38.175 29.09C39.742 31.667 42.098 33.713 44.906 34.891L35.056 47.865ZM50.438 33.895C43.692 33.895 38.204 28.407 38.204 21.661C38.204 14.915 43.692 9.427 50.438 9.427C57.184 9.427 62.672 14.915 62.672 21.661C62.672 28.407 57.183 33.895 50.438 33.895ZM50.438 15.229C46.891 15.229 44.005 18.115 44.005 21.662C44.005 25.209 46.891 28.095 50.438 28.095C53.985 28.095 56.871 25.209 56.871 21.662C56.871 18.115 53.985 15.229 50.438 15.229ZM50.438 25.988C48.053 25.988 46.112 24.047 46.112 21.662C46.112 19.277 48.053 17.336 50.438 17.336C52.823 17.336 54.764 19.276 54.764 21.662C54.764 24.048 52.823 25.988 50.438 25.988ZM27.303 61.606L31.257 52.379H26.738C27.413 51.513 27.819 50.429 27.819 49.249C27.819 46.795 26.078 44.741 23.767 44.254V42.075H26.186V39.968H23.767V37.549H21.66V39.968H19.24V42.075H21.659V44.254C19.348 44.741 17.607 46.795 17.607 49.249C17.607 50.429 18.013 51.514 18.688 52.379H14.169L18.125 61.608L13.849 76.69H11.24V85.743H34.185V76.69H31.652L27.303 61.606ZM22.713 46.251C24.366 46.251 25.711 47.596 25.711 49.249C25.711 50.902 24.366 52.247 22.713 52.247C21.06 52.247 19.715 50.902 19.715 49.249C19.715 47.596 21.06 46.251 22.713 46.251ZM20.356 61.465L17.365 54.487H28.061L25.069 61.468L29.459 76.691H16.039L20.356 61.465ZM32.078 83.637H13.348V78.798H32.079V83.637H32.078Z" fill="#618E81"/>
<path d="M91 1H51.699L44.794 7.901H19.366C15.394 7.901 12.162 11.131 12.162 15.101C12.162 15.101 12.17 15.618 12.185 15.808L2.354 25.639C1.231 26.776 1 27.83 1 28.697C1 29.959 1.388 30.736 1.6 31.168C3.797 35.647 10.833 49.891 10.833 49.891C11.214 50.653 11.985 51.094 12.784 51.094C13.111 51.094 13.443 51.02 13.754 50.865L14.097 50.693C15.605 49.94 16.731 48.645 17.265 47.045C17.799 45.446 17.679 43.735 16.926 42.227L10.729 29.816L18.209 22.336C18.588 22.398 18.975 22.432 19.366 22.432H36.118C36.197 23.915 36.503 25.338 37 26.669L28.59 44.166C28.277 44.822 28.119 45.519 28.119 46.238C28.119 47.929 28.979 49.461 30.419 50.337C31.198 50.812 32.061 51.041 32.914 51.041C34.366 51.041 35.792 50.379 36.734 49.141L47.022 35.589C48.117 35.858 49.261 36.003 50.438 36.003C54.569 36.003 58.294 34.245 60.914 31.442L91 1ZM52.572 3.107H85.912L64.405 24.903C64.647 23.861 64.779 22.777 64.779 21.662C64.779 13.754 58.346 7.321 50.438 7.321C49.668 7.321 48.913 7.384 48.176 7.501L52.572 3.107ZM16.916 14.046C17.345 13.573 17.963 13.274 18.651 13.274C19.944 13.274 20.996 14.326 20.996 15.62C20.996 16.308 20.696 16.927 20.222 17.356L20.216 17.35L20.121 17.445C19.718 17.77 19.207 17.966 18.651 17.966C17.358 17.966 16.305 16.914 16.305 15.621C16.305 15.063 16.502 14.551 16.828 14.147L16.922 14.053L16.916 14.046ZM17.618 19.946L9.559 28.004C9.197 26.364 7.904 25.071 6.263 24.709L14.322 16.65C14.711 18.277 15.991 19.558 17.618 19.946ZM3.106 28.938C3.106 27.711 4.104 26.713 5.331 26.713C6.558 26.713 7.556 27.711 7.556 28.938C7.556 30.165 6.558 31.163 5.331 31.163C4.104 31.163 3.106 30.165 3.106 28.938ZM15.266 46.377C14.91 47.443 14.161 48.306 13.155 48.807L12.811 48.979C12.777 48.996 12.735 48.982 12.718 48.948L4.878 33.246C5.027 33.262 5.178 33.27 5.332 33.27C6.909 33.27 8.287 32.421 9.045 31.158L15.042 43.167C15.542 44.172 15.622 45.312 15.266 46.377ZM21.584 18.96C22.513 18.143 23.103 16.95 23.103 15.619C23.103 13.163 21.105 11.166 18.65 11.166C17.323 11.166 16.133 11.753 15.317 12.676L14.554 13.439C15.246 11.445 17.139 10.008 19.366 10.008H42.094C38.807 12.368 36.555 16.079 36.161 20.324H20.22L21.584 18.96ZM35.056 47.865C34.217 48.967 32.697 49.257 31.515 48.537C30.708 48.046 30.226 47.187 30.226 46.238C30.226 45.835 30.316 45.443 30.491 45.075L38.175 29.09C39.742 31.667 42.098 33.713 44.906 34.891L35.056 47.865ZM50.438 33.895C43.692 33.895 38.204 28.407 38.204 21.661C38.204 14.915 43.692 9.427 50.438 9.427C57.184 9.427 62.672 14.915 62.672 21.661C62.672 28.407 57.183 33.895 50.438 33.895ZM50.438 15.229C46.891 15.229 44.005 18.115 44.005 21.662C44.005 25.209 46.891 28.095 50.438 28.095C53.985 28.095 56.871 25.209 56.871 21.662C56.871 18.115 53.985 15.229 50.438 15.229ZM50.438 25.988C48.053 25.988 46.112 24.047 46.112 21.662C46.112 19.277 48.053 17.336 50.438 17.336C52.823 17.336 54.764 19.276 54.764 21.662C54.764 24.048 52.823 25.988 50.438 25.988ZM27.303 61.606L31.257 52.379H26.738C27.413 51.513 27.819 50.429 27.819 49.249C27.819 46.795 26.078 44.741 23.767 44.254V42.075H26.186V39.968H23.767V37.549H21.66V39.968H19.24V42.075H21.659V44.254C19.348 44.741 17.607 46.795 17.607 49.249C17.607 50.429 18.013 51.514 18.688 52.379H14.169L18.125 61.608L13.849 76.69H11.24V85.743H34.185V76.69H31.652L27.303 61.606ZM22.713 46.251C24.366 46.251 25.711 47.596 25.711 49.249C25.711 50.902 24.366 52.247 22.713 52.247C21.06 52.247 19.715 50.902 19.715 49.249C19.715 47.596 21.06 46.251 22.713 46.251ZM20.356 61.465L17.365 54.487H28.061L25.069 61.468L29.459 76.691H16.039L20.356 61.465ZM32.078 83.637H13.348V78.798H32.079V83.637H32.078Z" stroke="#618E81" stroke-width="0.56" mask="url(#path-1-outside-1_1348_7549)"/>
</svg>
