<svg width="82" height="86" viewBox="0 0 82 86" fill="none" xmlns="http://www.w3.org/2000/svg">
<mask id="path-1-outside-1_1348_8851" maskUnits="userSpaceOnUse" x="0" y="0" width="82" height="86" fill="black">
<rect fill="white" width="82" height="86"/>
<path d="M38.8722 1C37.7216 1 36.5712 1.31688 35.561 1.9492C34.0402 2.90136 31.214 4.66995 28.8588 6.14482C28.8488 6.15127 28.8388 6.15787 28.8289 6.1646C21.458 10.7805 12.1314 16.622 7.87802 19.2854L1.59475 23.2173C1.30894 23.3963 1.10642 23.6804 1.03163 24.0073C0.956845 24.3342 1.01589 24.6771 1.19581 24.9608C1.28523 25.1016 1.40176 25.2235 1.53874 25.3195C1.67572 25.4156 1.83045 25.484 1.9941 25.5207C2.15774 25.5574 2.32709 25.5618 2.49245 25.5336C2.6578 25.5054 2.81593 25.4452 2.95778 25.3563L5.26165 23.916C5.26126 23.9427 5.255 23.9685 5.255 23.9951V69.6262C5.255 71.1039 5.84659 72.5231 6.90062 73.568C7.95465 74.613 9.38619 75.1995 10.8767 75.1995H27.4891C27.5846 76.0536 27.7412 76.9002 28.031 77.7175C28.6244 79.389 29.6122 80.9042 30.8934 82.1307C32.0944 83.2795 33.5424 84.1643 35.1221 84.7047C36.3319 85.1178 37.5998 85.3205 38.8688 85.3243H69.5106C75.8412 85.3243 81 80.21 81 73.9339V73.8713C81 73.8691 81 73.8669 81 73.8647C80.9808 70.8696 79.772 67.9987 77.6356 65.8788C75.5633 63.8261 72.7683 62.6979 69.8497 62.6093C69.5584 58.9452 68.0359 55.6196 65.6808 53.0744V42.7156C65.6808 42.3799 65.5463 42.058 65.3069 41.8207C65.0675 41.5833 64.7428 41.45 64.4042 41.45C64.0656 41.45 63.7409 41.5833 63.5015 41.8207C63.2621 42.058 63.1276 42.3799 63.1276 42.7156V50.8596C61.6425 49.8286 59.9733 49.0399 58.1575 48.5756C58.0371 48.5447 57.9128 48.5313 57.7885 48.5361C57.5139 48.5466 57.2502 48.6447 57.0364 48.8157C56.8226 48.9867 56.6701 49.2215 56.6016 49.4853C56.5596 49.6463 56.55 49.8139 56.5734 49.9786C56.5968 50.1433 56.6527 50.3018 56.7379 50.445C56.8232 50.5883 56.936 50.7135 57.0701 50.8134C57.2041 50.9134 57.3567 50.9862 57.5192 51.0277C63.254 52.4941 67.5026 57.6521 67.5026 63.809C67.5026 64.1447 67.6371 64.4666 67.8765 64.7039C68.1159 64.9412 68.4406 65.0746 68.7792 65.0746H69.5106C71.8806 65.0746 74.1527 66.0066 75.8304 67.6685C77.4916 69.3168 78.4302 71.5431 78.4468 73.8713V73.9339C78.4468 78.8423 74.4617 82.7931 69.5106 82.7931H38.8722C37.8751 82.7898 36.8871 82.6308 35.9533 82.3119C34.7313 81.8939 33.6022 81.201 32.6687 80.308C31.674 79.3553 30.8996 78.1702 30.4413 76.8804V76.8771C30.1087 75.9381 29.9393 74.9389 29.936 73.9339V73.8778C29.9524 71.4475 30.9466 69.2618 32.5523 67.6685C32.7917 67.4311 32.9261 67.1093 32.9261 66.7736C32.9261 66.438 32.7917 66.1162 32.5523 65.8788C32.3129 65.6415 31.9883 65.5082 31.6497 65.5082C31.3112 65.5082 30.9865 65.6415 30.7471 65.8788C28.9531 67.659 27.7514 70.0332 27.4559 72.6683H10.8767C10.0625 72.6683 9.28575 72.3467 8.70914 71.7751C8.13252 71.2034 7.8082 70.4334 7.8082 69.6262V23.9951C7.8082 22.9494 8.34644 21.9813 9.23773 21.4244C14.8565 17.906 30.6415 8.02165 36.924 4.08821C38.1172 3.34138 39.6271 3.34138 40.8203 4.08821C42.3428 5.04143 45.1704 6.81353 47.5291 8.29042C47.5368 8.2949 47.5446 8.29929 47.5524 8.3036L47.938 8.5442C55.2695 13.1348 64.3323 18.8105 68.5066 21.4244C69.3979 21.9813 69.9361 22.9494 69.9361 23.9951V51.9967C69.9361 52.3324 70.0706 52.6543 70.31 52.8916C70.5494 53.129 70.8741 53.2623 71.2127 53.2623C71.5513 53.2623 71.876 53.129 72.1154 52.8916C72.3548 52.6543 72.4893 52.3324 72.4893 51.9967V23.9951C72.4893 23.9685 72.483 23.9427 72.4827 23.916L74.7865 25.3563C74.9284 25.4452 75.0865 25.5054 75.2519 25.5336C75.4172 25.5618 75.5866 25.5574 75.7502 25.5207C75.9139 25.484 76.0686 25.4156 76.2056 25.3195C76.3426 25.2235 76.4591 25.1016 76.5485 24.9608C76.7284 24.6771 76.7875 24.3342 76.7127 24.0073C76.6379 23.6804 76.4354 23.3963 76.1496 23.2173L69.8663 19.2854C65.6129 16.622 56.2863 10.7805 48.9154 6.1646C48.9132 6.16349 48.911 6.16239 48.9088 6.1613C46.5431 4.67986 43.7096 2.90479 42.1833 1.9492C41.1731 1.31688 40.0227 1 38.8722 1ZM38.8722 16.1378C34.4221 16.1378 30.787 19.7416 30.787 24.1533V30.4814H28.6594C28.3208 30.4814 27.9961 30.6147 27.7567 30.8521C27.5173 31.0894 27.3828 31.4113 27.3828 31.747C27.3828 32.0826 27.5173 32.4046 27.7567 32.6419C27.9961 32.8793 28.3208 33.0126 28.6594 33.0126H49.085C49.4235 33.0126 49.7483 32.8793 49.9877 32.6419C50.2271 32.4046 50.3616 32.0826 50.3616 31.747C50.3616 31.4113 50.2271 31.0894 49.9877 30.8521C49.7483 30.6147 49.4235 30.4814 49.085 30.4814H46.9573V24.1533C46.9573 19.7416 43.3222 16.1378 38.8722 16.1378ZM38.8722 18.6691C41.9422 18.6691 44.4041 21.1098 44.4041 24.1533V30.4814H33.3402V24.1533C33.3402 21.1098 35.8022 18.6691 38.8722 18.6691ZM64.4042 32.1689C64.0656 32.1689 63.7409 32.3022 63.5015 32.5395C63.2621 32.7769 63.1276 33.0988 63.1276 33.4345V36.8094C63.1276 37.1451 63.2621 37.467 63.5015 37.7043C63.7409 37.9417 64.0656 38.075 64.4042 38.075C64.7428 38.075 65.0675 37.9417 65.3069 37.7043C65.5463 37.467 65.6808 37.1451 65.6808 36.8094V33.4345C65.6808 33.0988 65.5463 32.7769 65.3069 32.5395C65.0675 32.3022 64.7428 32.1689 64.4042 32.1689ZM38.8722 46.5124C35.826 46.5124 32.9026 47.7128 30.7471 49.8478C28.5936 51.9847 27.3828 54.8829 27.3828 57.9029V62.1215C27.3828 62.4572 27.5173 62.7791 27.7567 63.0165C27.9961 63.2538 28.3208 63.3871 28.6594 63.3871C28.9979 63.3871 29.3226 63.2538 29.562 63.0165C29.8015 62.7791 29.936 62.4572 29.936 62.1215V57.9029C29.936 55.5532 30.8761 53.3007 32.5523 51.6374C34.2301 49.9756 36.5021 49.0436 38.8722 49.0436C40.6633 49.0436 42.3972 49.5757 43.8622 50.5531C38.1029 53.7384 34.1913 59.8346 34.1913 66.8214C34.1913 67.1571 34.3258 67.479 34.5652 67.7163C34.8046 67.9537 35.1293 68.087 35.4679 68.087C35.8065 68.087 36.1312 67.9537 36.3706 67.7163C36.61 67.479 36.7445 67.1571 36.7445 66.8214C36.7445 57.9266 44.0026 50.7311 52.9746 50.7311C53.3132 50.7311 53.6379 50.5977 53.8773 50.3604C54.1167 50.1231 54.2512 49.8011 54.2512 49.4655C54.2512 49.1298 54.1167 48.8079 53.8773 48.5706C53.6379 48.3332 53.3132 48.1999 52.9746 48.1999C50.6854 48.1999 48.4993 48.6292 46.4686 49.3765C44.3746 47.5445 41.6802 46.5124 38.8722 46.5124ZM52.9746 53.4073C45.5195 53.4073 39.444 59.4305 39.444 66.8214C39.444 67.1571 39.5785 67.479 39.8179 67.7163C40.0573 67.9537 40.382 68.087 40.7206 68.087C41.0591 68.087 41.3839 67.9537 41.6233 67.7163C41.8627 67.479 41.9972 67.1571 41.9972 66.8214C41.9972 60.8003 46.9012 55.9385 52.9746 55.9385C53.3132 55.9385 53.6379 55.8052 53.8773 55.5678C54.1167 55.3305 54.2512 55.0086 54.2512 54.6729C54.2512 54.3373 54.1167 54.0154 53.8773 53.778C53.6379 53.5407 53.3132 53.4073 52.9746 53.4073ZM52.9746 58.6148C48.418 58.6148 44.6967 62.3041 44.6967 66.8214C44.6967 67.1571 44.8312 67.479 45.0706 67.7163C45.31 67.9537 45.6347 68.087 45.9733 68.087C46.3118 68.087 46.6365 67.9537 46.8759 67.7163C47.1154 67.479 47.2499 67.1571 47.2499 66.8214C47.2499 63.6743 49.8001 61.146 52.9746 61.146C53.3132 61.146 53.6379 61.0126 53.8773 60.7753C54.1167 60.5379 54.2512 60.216 54.2512 59.8804C54.2512 59.5447 54.1167 59.2228 53.8773 58.9854C53.6379 58.7481 53.3132 58.6148 52.9746 58.6148Z"/>
</mask>
<path d="M38.8722 1C37.7216 1 36.5712 1.31688 35.561 1.9492C34.0402 2.90136 31.214 4.66995 28.8588 6.14482C28.8488 6.15127 28.8388 6.15787 28.8289 6.1646C21.458 10.7805 12.1314 16.622 7.87802 19.2854L1.59475 23.2173C1.30894 23.3963 1.10642 23.6804 1.03163 24.0073C0.956845 24.3342 1.01589 24.6771 1.19581 24.9608C1.28523 25.1016 1.40176 25.2235 1.53874 25.3195C1.67572 25.4156 1.83045 25.484 1.9941 25.5207C2.15774 25.5574 2.32709 25.5618 2.49245 25.5336C2.6578 25.5054 2.81593 25.4452 2.95778 25.3563L5.26165 23.916C5.26126 23.9427 5.255 23.9685 5.255 23.9951V69.6262C5.255 71.1039 5.84659 72.5231 6.90062 73.568C7.95465 74.613 9.38619 75.1995 10.8767 75.1995H27.4891C27.5846 76.0536 27.7412 76.9002 28.031 77.7175C28.6244 79.389 29.6122 80.9042 30.8934 82.1307C32.0944 83.2795 33.5424 84.1643 35.1221 84.7047C36.3319 85.1178 37.5998 85.3205 38.8688 85.3243H69.5106C75.8412 85.3243 81 80.21 81 73.9339V73.8713C81 73.8691 81 73.8669 81 73.8647C80.9808 70.8696 79.772 67.9987 77.6356 65.8788C75.5633 63.8261 72.7683 62.6979 69.8497 62.6093C69.5584 58.9452 68.0359 55.6196 65.6808 53.0744V42.7156C65.6808 42.3799 65.5463 42.058 65.3069 41.8207C65.0675 41.5833 64.7428 41.45 64.4042 41.45C64.0656 41.45 63.7409 41.5833 63.5015 41.8207C63.2621 42.058 63.1276 42.3799 63.1276 42.7156V50.8596C61.6425 49.8286 59.9733 49.0399 58.1575 48.5756C58.0371 48.5447 57.9128 48.5313 57.7885 48.5361C57.5139 48.5466 57.2502 48.6447 57.0364 48.8157C56.8226 48.9867 56.6701 49.2215 56.6016 49.4853C56.5596 49.6463 56.55 49.8139 56.5734 49.9786C56.5968 50.1433 56.6527 50.3018 56.7379 50.445C56.8232 50.5883 56.936 50.7135 57.0701 50.8134C57.2041 50.9134 57.3567 50.9862 57.5192 51.0277C63.254 52.4941 67.5026 57.6521 67.5026 63.809C67.5026 64.1447 67.6371 64.4666 67.8765 64.7039C68.1159 64.9412 68.4406 65.0746 68.7792 65.0746H69.5106C71.8806 65.0746 74.1527 66.0066 75.8304 67.6685C77.4916 69.3168 78.4302 71.5431 78.4468 73.8713V73.9339C78.4468 78.8423 74.4617 82.7931 69.5106 82.7931H38.8722C37.8751 82.7898 36.8871 82.6308 35.9533 82.3119C34.7313 81.8939 33.6022 81.201 32.6687 80.308C31.674 79.3553 30.8996 78.1702 30.4413 76.8804V76.8771C30.1087 75.9381 29.9393 74.9389 29.936 73.9339V73.8778C29.9524 71.4475 30.9466 69.2618 32.5523 67.6685C32.7917 67.4311 32.9261 67.1093 32.9261 66.7736C32.9261 66.438 32.7917 66.1162 32.5523 65.8788C32.3129 65.6415 31.9883 65.5082 31.6497 65.5082C31.3112 65.5082 30.9865 65.6415 30.7471 65.8788C28.9531 67.659 27.7514 70.0332 27.4559 72.6683H10.8767C10.0625 72.6683 9.28575 72.3467 8.70914 71.7751C8.13252 71.2034 7.8082 70.4334 7.8082 69.6262V23.9951C7.8082 22.9494 8.34644 21.9813 9.23773 21.4244C14.8565 17.906 30.6415 8.02165 36.924 4.08821C38.1172 3.34138 39.6271 3.34138 40.8203 4.08821C42.3428 5.04143 45.1704 6.81353 47.5291 8.29042C47.5368 8.2949 47.5446 8.29929 47.5524 8.3036L47.938 8.5442C55.2695 13.1348 64.3323 18.8105 68.5066 21.4244C69.3979 21.9813 69.9361 22.9494 69.9361 23.9951V51.9967C69.9361 52.3324 70.0706 52.6543 70.31 52.8916C70.5494 53.129 70.8741 53.2623 71.2127 53.2623C71.5513 53.2623 71.876 53.129 72.1154 52.8916C72.3548 52.6543 72.4893 52.3324 72.4893 51.9967V23.9951C72.4893 23.9685 72.483 23.9427 72.4827 23.916L74.7865 25.3563C74.9284 25.4452 75.0865 25.5054 75.2519 25.5336C75.4172 25.5618 75.5866 25.5574 75.7502 25.5207C75.9139 25.484 76.0686 25.4156 76.2056 25.3195C76.3426 25.2235 76.4591 25.1016 76.5485 24.9608C76.7284 24.6771 76.7875 24.3342 76.7127 24.0073C76.6379 23.6804 76.4354 23.3963 76.1496 23.2173L69.8663 19.2854C65.6129 16.622 56.2863 10.7805 48.9154 6.1646C48.9132 6.16349 48.911 6.16239 48.9088 6.1613C46.5431 4.67986 43.7096 2.90479 42.1833 1.9492C41.1731 1.31688 40.0227 1 38.8722 1ZM38.8722 16.1378C34.4221 16.1378 30.787 19.7416 30.787 24.1533V30.4814H28.6594C28.3208 30.4814 27.9961 30.6147 27.7567 30.8521C27.5173 31.0894 27.3828 31.4113 27.3828 31.747C27.3828 32.0826 27.5173 32.4046 27.7567 32.6419C27.9961 32.8793 28.3208 33.0126 28.6594 33.0126H49.085C49.4235 33.0126 49.7483 32.8793 49.9877 32.6419C50.2271 32.4046 50.3616 32.0826 50.3616 31.747C50.3616 31.4113 50.2271 31.0894 49.9877 30.8521C49.7483 30.6147 49.4235 30.4814 49.085 30.4814H46.9573V24.1533C46.9573 19.7416 43.3222 16.1378 38.8722 16.1378ZM38.8722 18.6691C41.9422 18.6691 44.4041 21.1098 44.4041 24.1533V30.4814H33.3402V24.1533C33.3402 21.1098 35.8022 18.6691 38.8722 18.6691ZM64.4042 32.1689C64.0656 32.1689 63.7409 32.3022 63.5015 32.5395C63.2621 32.7769 63.1276 33.0988 63.1276 33.4345V36.8094C63.1276 37.1451 63.2621 37.467 63.5015 37.7043C63.7409 37.9417 64.0656 38.075 64.4042 38.075C64.7428 38.075 65.0675 37.9417 65.3069 37.7043C65.5463 37.467 65.6808 37.1451 65.6808 36.8094V33.4345C65.6808 33.0988 65.5463 32.7769 65.3069 32.5395C65.0675 32.3022 64.7428 32.1689 64.4042 32.1689ZM38.8722 46.5124C35.826 46.5124 32.9026 47.7128 30.7471 49.8478C28.5936 51.9847 27.3828 54.8829 27.3828 57.9029V62.1215C27.3828 62.4572 27.5173 62.7791 27.7567 63.0165C27.9961 63.2538 28.3208 63.3871 28.6594 63.3871C28.9979 63.3871 29.3226 63.2538 29.562 63.0165C29.8015 62.7791 29.936 62.4572 29.936 62.1215V57.9029C29.936 55.5532 30.8761 53.3007 32.5523 51.6374C34.2301 49.9756 36.5021 49.0436 38.8722 49.0436C40.6633 49.0436 42.3972 49.5757 43.8622 50.5531C38.1029 53.7384 34.1913 59.8346 34.1913 66.8214C34.1913 67.1571 34.3258 67.479 34.5652 67.7163C34.8046 67.9537 35.1293 68.087 35.4679 68.087C35.8065 68.087 36.1312 67.9537 36.3706 67.7163C36.61 67.479 36.7445 67.1571 36.7445 66.8214C36.7445 57.9266 44.0026 50.7311 52.9746 50.7311C53.3132 50.7311 53.6379 50.5977 53.8773 50.3604C54.1167 50.1231 54.2512 49.8011 54.2512 49.4655C54.2512 49.1298 54.1167 48.8079 53.8773 48.5706C53.6379 48.3332 53.3132 48.1999 52.9746 48.1999C50.6854 48.1999 48.4993 48.6292 46.4686 49.3765C44.3746 47.5445 41.6802 46.5124 38.8722 46.5124ZM52.9746 53.4073C45.5195 53.4073 39.444 59.4305 39.444 66.8214C39.444 67.1571 39.5785 67.479 39.8179 67.7163C40.0573 67.9537 40.382 68.087 40.7206 68.087C41.0591 68.087 41.3839 67.9537 41.6233 67.7163C41.8627 67.479 41.9972 67.1571 41.9972 66.8214C41.9972 60.8003 46.9012 55.9385 52.9746 55.9385C53.3132 55.9385 53.6379 55.8052 53.8773 55.5678C54.1167 55.3305 54.2512 55.0086 54.2512 54.6729C54.2512 54.3373 54.1167 54.0154 53.8773 53.778C53.6379 53.5407 53.3132 53.4073 52.9746 53.4073ZM52.9746 58.6148C48.418 58.6148 44.6967 62.3041 44.6967 66.8214C44.6967 67.1571 44.8312 67.479 45.0706 67.7163C45.31 67.9537 45.6347 68.087 45.9733 68.087C46.3118 68.087 46.6365 67.9537 46.8759 67.7163C47.1154 67.479 47.2499 67.1571 47.2499 66.8214C47.2499 63.6743 49.8001 61.146 52.9746 61.146C53.3132 61.146 53.6379 61.0126 53.8773 60.7753C54.1167 60.5379 54.2512 60.216 54.2512 59.8804C54.2512 59.5447 54.1167 59.2228 53.8773 58.9854C53.6379 58.7481 53.3132 58.6148 52.9746 58.6148Z" fill="#618E81"/>
<path d="M38.8722 1C37.7216 1 36.5712 1.31688 35.561 1.9492C34.0402 2.90136 31.214 4.66995 28.8588 6.14482C28.8488 6.15127 28.8388 6.15787 28.8289 6.1646C21.458 10.7805 12.1314 16.622 7.87802 19.2854L1.59475 23.2173C1.30894 23.3963 1.10642 23.6804 1.03163 24.0073C0.956845 24.3342 1.01589 24.6771 1.19581 24.9608C1.28523 25.1016 1.40176 25.2235 1.53874 25.3195C1.67572 25.4156 1.83045 25.484 1.9941 25.5207C2.15774 25.5574 2.32709 25.5618 2.49245 25.5336C2.6578 25.5054 2.81593 25.4452 2.95778 25.3563L5.26165 23.916C5.26126 23.9427 5.255 23.9685 5.255 23.9951V69.6262C5.255 71.1039 5.84659 72.5231 6.90062 73.568C7.95465 74.613 9.38619 75.1995 10.8767 75.1995H27.4891C27.5846 76.0536 27.7412 76.9002 28.031 77.7175C28.6244 79.389 29.6122 80.9042 30.8934 82.1307C32.0944 83.2795 33.5424 84.1643 35.1221 84.7047C36.3319 85.1178 37.5998 85.3205 38.8688 85.3243H69.5106C75.8412 85.3243 81 80.21 81 73.9339V73.8713C81 73.8691 81 73.8669 81 73.8647C80.9808 70.8696 79.772 67.9987 77.6356 65.8788C75.5633 63.8261 72.7683 62.6979 69.8497 62.6093C69.5584 58.9452 68.0359 55.6196 65.6808 53.0744V42.7156C65.6808 42.3799 65.5463 42.058 65.3069 41.8207C65.0675 41.5833 64.7428 41.45 64.4042 41.45C64.0656 41.45 63.7409 41.5833 63.5015 41.8207C63.2621 42.058 63.1276 42.3799 63.1276 42.7156V50.8596C61.6425 49.8286 59.9733 49.0399 58.1575 48.5756C58.0371 48.5447 57.9128 48.5313 57.7885 48.5361C57.5139 48.5466 57.2502 48.6447 57.0364 48.8157C56.8226 48.9867 56.6701 49.2215 56.6016 49.4853C56.5596 49.6463 56.55 49.8139 56.5734 49.9786C56.5968 50.1433 56.6527 50.3018 56.7379 50.445C56.8232 50.5883 56.936 50.7135 57.0701 50.8134C57.2041 50.9134 57.3567 50.9862 57.5192 51.0277C63.254 52.4941 67.5026 57.6521 67.5026 63.809C67.5026 64.1447 67.6371 64.4666 67.8765 64.7039C68.1159 64.9412 68.4406 65.0746 68.7792 65.0746H69.5106C71.8806 65.0746 74.1527 66.0066 75.8304 67.6685C77.4916 69.3168 78.4302 71.5431 78.4468 73.8713V73.9339C78.4468 78.8423 74.4617 82.7931 69.5106 82.7931H38.8722C37.8751 82.7898 36.8871 82.6308 35.9533 82.3119C34.7313 81.8939 33.6022 81.201 32.6687 80.308C31.674 79.3553 30.8996 78.1702 30.4413 76.8804V76.8771C30.1087 75.9381 29.9393 74.9389 29.936 73.9339V73.8778C29.9524 71.4475 30.9466 69.2618 32.5523 67.6685C32.7917 67.4311 32.9261 67.1093 32.9261 66.7736C32.9261 66.438 32.7917 66.1162 32.5523 65.8788C32.3129 65.6415 31.9883 65.5082 31.6497 65.5082C31.3112 65.5082 30.9865 65.6415 30.7471 65.8788C28.9531 67.659 27.7514 70.0332 27.4559 72.6683H10.8767C10.0625 72.6683 9.28575 72.3467 8.70914 71.7751C8.13252 71.2034 7.8082 70.4334 7.8082 69.6262V23.9951C7.8082 22.9494 8.34644 21.9813 9.23773 21.4244C14.8565 17.906 30.6415 8.02165 36.924 4.08821C38.1172 3.34138 39.6271 3.34138 40.8203 4.08821C42.3428 5.04143 45.1704 6.81353 47.5291 8.29042C47.5368 8.2949 47.5446 8.29929 47.5524 8.3036L47.938 8.5442C55.2695 13.1348 64.3323 18.8105 68.5066 21.4244C69.3979 21.9813 69.9361 22.9494 69.9361 23.9951V51.9967C69.9361 52.3324 70.0706 52.6543 70.31 52.8916C70.5494 53.129 70.8741 53.2623 71.2127 53.2623C71.5513 53.2623 71.876 53.129 72.1154 52.8916C72.3548 52.6543 72.4893 52.3324 72.4893 51.9967V23.9951C72.4893 23.9685 72.483 23.9427 72.4827 23.916L74.7865 25.3563C74.9284 25.4452 75.0865 25.5054 75.2519 25.5336C75.4172 25.5618 75.5866 25.5574 75.7502 25.5207C75.9139 25.484 76.0686 25.4156 76.2056 25.3195C76.3426 25.2235 76.4591 25.1016 76.5485 24.9608C76.7284 24.6771 76.7875 24.3342 76.7127 24.0073C76.6379 23.6804 76.4354 23.3963 76.1496 23.2173L69.8663 19.2854C65.6129 16.622 56.2863 10.7805 48.9154 6.1646C48.9132 6.16349 48.911 6.16239 48.9088 6.1613C46.5431 4.67986 43.7096 2.90479 42.1833 1.9492C41.1731 1.31688 40.0227 1 38.8722 1ZM38.8722 16.1378C34.4221 16.1378 30.787 19.7416 30.787 24.1533V30.4814H28.6594C28.3208 30.4814 27.9961 30.6147 27.7567 30.8521C27.5173 31.0894 27.3828 31.4113 27.3828 31.747C27.3828 32.0826 27.5173 32.4046 27.7567 32.6419C27.9961 32.8793 28.3208 33.0126 28.6594 33.0126H49.085C49.4235 33.0126 49.7483 32.8793 49.9877 32.6419C50.2271 32.4046 50.3616 32.0826 50.3616 31.747C50.3616 31.4113 50.2271 31.0894 49.9877 30.8521C49.7483 30.6147 49.4235 30.4814 49.085 30.4814H46.9573V24.1533C46.9573 19.7416 43.3222 16.1378 38.8722 16.1378ZM38.8722 18.6691C41.9422 18.6691 44.4041 21.1098 44.4041 24.1533V30.4814H33.3402V24.1533C33.3402 21.1098 35.8022 18.6691 38.8722 18.6691ZM64.4042 32.1689C64.0656 32.1689 63.7409 32.3022 63.5015 32.5395C63.2621 32.7769 63.1276 33.0988 63.1276 33.4345V36.8094C63.1276 37.1451 63.2621 37.467 63.5015 37.7043C63.7409 37.9417 64.0656 38.075 64.4042 38.075C64.7428 38.075 65.0675 37.9417 65.3069 37.7043C65.5463 37.467 65.6808 37.1451 65.6808 36.8094V33.4345C65.6808 33.0988 65.5463 32.7769 65.3069 32.5395C65.0675 32.3022 64.7428 32.1689 64.4042 32.1689ZM38.8722 46.5124C35.826 46.5124 32.9026 47.7128 30.7471 49.8478C28.5936 51.9847 27.3828 54.8829 27.3828 57.9029V62.1215C27.3828 62.4572 27.5173 62.7791 27.7567 63.0165C27.9961 63.2538 28.3208 63.3871 28.6594 63.3871C28.9979 63.3871 29.3226 63.2538 29.562 63.0165C29.8015 62.7791 29.936 62.4572 29.936 62.1215V57.9029C29.936 55.5532 30.8761 53.3007 32.5523 51.6374C34.2301 49.9756 36.5021 49.0436 38.8722 49.0436C40.6633 49.0436 42.3972 49.5757 43.8622 50.5531C38.1029 53.7384 34.1913 59.8346 34.1913 66.8214C34.1913 67.1571 34.3258 67.479 34.5652 67.7163C34.8046 67.9537 35.1293 68.087 35.4679 68.087C35.8065 68.087 36.1312 67.9537 36.3706 67.7163C36.61 67.479 36.7445 67.1571 36.7445 66.8214C36.7445 57.9266 44.0026 50.7311 52.9746 50.7311C53.3132 50.7311 53.6379 50.5977 53.8773 50.3604C54.1167 50.1231 54.2512 49.8011 54.2512 49.4655C54.2512 49.1298 54.1167 48.8079 53.8773 48.5706C53.6379 48.3332 53.3132 48.1999 52.9746 48.1999C50.6854 48.1999 48.4993 48.6292 46.4686 49.3765C44.3746 47.5445 41.6802 46.5124 38.8722 46.5124ZM52.9746 53.4073C45.5195 53.4073 39.444 59.4305 39.444 66.8214C39.444 67.1571 39.5785 67.479 39.8179 67.7163C40.0573 67.9537 40.382 68.087 40.7206 68.087C41.0591 68.087 41.3839 67.9537 41.6233 67.7163C41.8627 67.479 41.9972 67.1571 41.9972 66.8214C41.9972 60.8003 46.9012 55.9385 52.9746 55.9385C53.3132 55.9385 53.6379 55.8052 53.8773 55.5678C54.1167 55.3305 54.2512 55.0086 54.2512 54.6729C54.2512 54.3373 54.1167 54.0154 53.8773 53.778C53.6379 53.5407 53.3132 53.4073 52.9746 53.4073ZM52.9746 58.6148C48.418 58.6148 44.6967 62.3041 44.6967 66.8214C44.6967 67.1571 44.8312 67.479 45.0706 67.7163C45.31 67.9537 45.6347 68.087 45.9733 68.087C46.3118 68.087 46.6365 67.9537 46.8759 67.7163C47.1154 67.479 47.2499 67.1571 47.2499 66.8214C47.2499 63.6743 49.8001 61.146 52.9746 61.146C53.3132 61.146 53.6379 61.0126 53.8773 60.7753C54.1167 60.5379 54.2512 60.216 54.2512 59.8804C54.2512 59.5447 54.1167 59.2228 53.8773 58.9854C53.6379 58.7481 53.3132 58.6148 52.9746 58.6148Z" stroke="#618E81" stroke-width="0.7" mask="url(#path-1-outside-1_1348_8851)"/>
</svg>
