<svg width="82" height="83" viewBox="0 0 82 83" fill="none" xmlns="http://www.w3.org/2000/svg">
<path d="M71.6494 21.5V61.5L28.5325 70.5H10.3507L6.71429 67.5V22.5L39.4416 2L71.6494 21.5Z" fill="#EEEEEE"/>
<path d="M46.1948 30.5H32.6883V19.5L36.8441 17H42.0389L45.6753 20.5L46.1948 30.5Z" fill="#DEBD7C"/>
<path d="M45.6753 49.5L36.8442 57.5L34.7662 64.5L29.052 66L28.5325 52.5L36.8442 46H42.039L45.6753 49.5Z" fill="#DEBD7C"/>
<path d="M59.7013 48.5L68.5325 57V61.5L71.1299 62.5L77.3637 64L79.9611 72L76.3247 78.5L69.5714 81L34.7663 80L32.1689 78.5C31.6494 78.5 30.2987 77.2 29.052 72C27.8052 66.8 32.6883 63.5 35.2857 62.5L37.3637 57L47.2338 48.5H59.7013Z" fill="#C0D6E3"/>
<mask id="path-5-outside-1_1348_6428" maskUnits="userSpaceOnUse" x="0" y="0" width="82" height="83" fill="black">
<rect fill="white" width="82" height="83"/>
<path d="M38.8722 1C37.7216 1 36.5712 1.305 35.561 1.91361C34.0402 2.83006 31.214 4.53233 28.8588 5.95189C28.8488 5.9581 28.8388 5.96445 28.8289 5.97092C21.458 10.4137 12.1314 16.0362 7.87802 18.5997L1.59475 22.3842C1.30894 22.5565 1.10642 22.8299 1.03163 23.1445C0.956845 23.4591 1.01589 23.7892 1.19581 24.0623C1.28523 24.1978 1.40176 24.3151 1.53874 24.4076C1.67572 24.5 1.83045 24.5658 1.9941 24.6012C2.15774 24.6365 2.32709 24.6407 2.49245 24.6136C2.6578 24.5865 2.81593 24.5285 2.95779 24.443L5.26165 23.0567C5.26126 23.0823 5.255 23.1071 5.255 23.1328V67.0527C5.255 68.475 5.84659 69.841 6.90062 70.8467C7.95465 71.8525 9.38619 72.417 10.8767 72.417H27.4891C27.5846 73.239 27.7412 74.054 28.031 74.8406C28.6244 76.4494 29.6122 77.9078 30.8934 79.0882C32.0944 80.194 33.5424 81.0456 35.1221 81.5658C36.3319 81.9634 37.5998 82.1585 38.8688 82.1622C38.8699 82.1622 38.8711 82.1622 38.8722 82.1622H69.5106C75.8412 82.1622 81 77.2396 81 71.1989V71.1386C81 71.1365 81 71.1343 81 71.1322C80.9809 68.2495 79.772 65.4862 77.6356 63.4459C75.5633 61.4701 72.7683 60.3843 69.8497 60.299C69.5584 56.7722 68.0359 53.5713 65.6808 51.1216V41.1512C65.6808 40.8282 65.5463 40.5183 65.3069 40.2899C65.0675 40.0614 64.7428 39.9331 64.4042 39.9331C64.0656 39.9331 63.7409 40.0614 63.5015 40.2899C63.2621 40.5183 63.1276 40.8282 63.1276 41.1512V48.9899C61.6425 47.9975 59.9733 47.2384 58.1575 46.7915C58.0371 46.7617 57.9128 46.7489 57.7885 46.7534C57.514 46.7636 57.2502 46.858 57.0364 47.0226C56.8226 47.1872 56.6701 47.4132 56.6016 47.6671C56.5596 47.822 56.55 47.9834 56.5734 48.1419C56.5968 48.3004 56.6527 48.4529 56.738 48.5908C56.8232 48.7287 56.936 48.8492 57.0701 48.9454C57.2041 49.0417 57.3567 49.1117 57.5192 49.1517C63.254 50.563 67.5026 55.5276 67.5026 61.4537C67.5026 61.7767 67.6371 62.0866 67.8765 62.315C68.1159 62.5434 68.4406 62.6718 68.7792 62.6718H69.5106C71.8806 62.6718 74.1527 63.5689 75.8304 65.1684C77.4916 66.755 78.4302 68.8977 78.4468 71.1386V71.1989C78.4468 75.9232 74.4617 79.7259 69.5106 79.7259H38.8755H38.8722C37.8751 79.7227 36.8871 79.5697 35.9533 79.2627C34.7313 78.8604 33.6022 78.1935 32.6687 77.334C31.674 76.4169 30.8996 75.2763 30.4413 74.0348V74.0317C30.1087 73.1279 29.9393 72.1662 29.936 71.1989V71.1449C29.9524 68.8057 30.9466 66.702 32.5523 65.1684C32.7917 64.94 32.9261 64.6301 32.9261 64.3071C32.9261 63.9841 32.7917 63.6743 32.5523 63.4459C32.3129 63.2175 31.9883 63.0892 31.6497 63.0892C31.3112 63.0892 30.9865 63.2175 30.7471 63.4459C28.9531 65.1593 27.7514 67.4445 27.4559 69.9807H10.8767C10.0625 69.9807 9.28575 69.6712 8.70914 69.121C8.13252 68.5708 7.8082 67.8296 7.8082 67.0527V23.1328C7.8082 22.1263 8.34644 21.1945 9.23773 20.6585C14.8565 17.272 30.6415 7.75834 36.924 3.9724C38.1172 3.25358 39.6271 3.25358 40.8203 3.9724C42.3428 4.88988 45.1704 6.59552 47.5291 8.01703C47.5368 8.02134 47.5446 8.02557 47.5524 8.02972L47.938 8.26129C55.2695 12.6798 64.3323 18.1426 68.5066 20.6585C69.3979 21.1945 69.9361 22.1263 69.9361 23.1328V50.0843C69.9361 50.4074 70.0706 50.7172 70.31 50.9457C70.5494 51.1741 70.8741 51.3025 71.2127 51.3025C71.5513 51.3025 71.876 51.1741 72.1154 50.9457C72.3548 50.7172 72.4893 50.4074 72.4893 50.0843V23.1328C72.4893 23.1071 72.4831 23.0823 72.4827 23.0567L74.7865 24.443C74.9284 24.5285 75.0865 24.5865 75.2519 24.6136C75.4172 24.6407 75.5866 24.6365 75.7502 24.6012C75.9139 24.5658 76.0686 24.5 76.2056 24.4076C76.3426 24.3151 76.4591 24.1978 76.5485 24.0623C76.7284 23.7892 76.7875 23.4591 76.7127 23.1445C76.6379 22.8299 76.4354 22.5565 76.1496 22.3842L69.8663 18.5997C65.6129 16.0362 56.2863 10.4137 48.9154 5.97092C48.9132 5.96986 48.911 5.9688 48.9088 5.96775C46.5431 4.54187 43.7096 2.83336 42.1833 1.91361C41.1731 1.305 40.0227 1 38.8722 1ZM38.8722 15.5702C34.4221 15.5702 30.787 19.0388 30.787 23.2851V29.3758H28.6594C28.3208 29.3758 27.9961 29.5042 27.7567 29.7326C27.5173 29.9611 27.3828 30.2709 27.3828 30.594C27.3828 30.917 27.5173 31.2269 27.7567 31.4553C27.9961 31.6838 28.3208 31.8121 28.6594 31.8121H49.085C49.4235 31.8121 49.7483 31.6838 49.9877 31.4553C50.2271 31.2269 50.3616 30.917 50.3616 30.594C50.3616 30.2709 50.2271 29.9611 49.9877 29.7326C49.7483 29.5042 49.4235 29.3758 49.085 29.3758H46.9573V23.2851C46.9573 19.0388 43.3222 15.5702 38.8722 15.5702ZM38.8722 18.0065C41.9422 18.0065 44.4041 20.3557 44.4041 23.2851V29.3758H33.3402V23.2851C33.3402 20.3557 35.8022 18.0065 38.8722 18.0065ZM64.4042 31C64.0656 31 63.7409 31.1284 63.5015 31.3568C63.2621 31.5853 63.1276 31.8951 63.1276 32.2182V35.4666C63.1276 35.7896 63.2621 36.0995 63.5015 36.3279C63.7409 36.5564 64.0656 36.6847 64.4042 36.6847C64.7428 36.6847 65.0675 36.5564 65.3069 36.3279C65.5463 36.0995 65.6808 35.7896 65.6808 35.4666V32.2182C65.6808 31.8951 65.5463 31.5853 65.3069 31.3568C65.0675 31.1284 64.7428 31 64.4042 31ZM38.8722 44.8057C35.826 44.8057 32.9026 45.9611 30.7471 48.016C28.5936 50.0728 27.3828 52.8623 27.3828 55.769V59.8295C27.3828 60.1526 27.5173 60.4624 27.7567 60.6908C27.9961 60.9193 28.3208 61.0476 28.6594 61.0476C28.9979 61.0476 29.3226 60.9193 29.562 60.6908C29.8015 60.4624 29.936 60.1526 29.936 59.8295V55.769C29.936 53.5075 30.8761 51.3395 32.5523 49.7385C34.2301 48.139 36.5021 47.242 38.8722 47.242C40.6633 47.242 42.3972 47.7541 43.8622 48.6949C38.1029 51.7607 34.1913 57.6283 34.1913 64.3531C34.1913 64.6762 34.3258 64.986 34.5652 65.2145C34.8046 65.4429 35.1293 65.5713 35.4679 65.5713C35.8065 65.5713 36.1312 65.4429 36.3706 65.2145C36.61 64.986 36.7445 64.6762 36.7445 64.3531C36.7445 55.7919 44.0026 48.8662 52.9746 48.8662C53.3132 48.8662 53.6379 48.7378 53.8773 48.5094C54.1167 48.2809 54.2512 47.9711 54.2512 47.648C54.2512 47.325 54.1167 47.0151 53.8773 46.7867C53.6379 46.5582 53.3132 46.4299 52.9746 46.4299C50.6854 46.4299 48.4993 46.8431 46.4686 47.5624C44.3746 45.7991 41.6802 44.8057 38.8722 44.8057ZM52.9746 51.442C45.5195 51.442 39.444 57.2393 39.444 64.3531C39.444 64.6762 39.5785 64.986 39.8179 65.2145C40.0573 65.4429 40.382 65.5713 40.7206 65.5713C41.0592 65.5713 41.3839 65.4429 41.6233 65.2145C41.8627 64.986 41.9972 64.6762 41.9972 64.3531C41.9972 58.5578 46.9012 53.8783 52.9746 53.8783C53.3132 53.8783 53.6379 53.75 53.8773 53.5215C54.1167 53.2931 54.2512 52.9833 54.2512 52.6602C54.2512 52.3371 54.1167 52.0273 53.8773 51.7988C53.6379 51.5704 53.3132 51.442 52.9746 51.442ZM52.9746 56.4542C48.418 56.4542 44.6967 60.0052 44.6967 64.3531C44.6967 64.6762 44.8312 64.986 45.0706 65.2145C45.31 65.4429 45.6347 65.5713 45.9733 65.5713C46.3118 65.5713 46.6365 65.4429 46.8759 65.2145C47.1154 64.986 47.2499 64.6762 47.2499 64.3531C47.2499 61.324 49.8001 58.8905 52.9746 58.8905C53.3132 58.8905 53.6379 58.7622 53.8773 58.5337C54.1167 58.3053 54.2512 57.9954 54.2512 57.6724C54.2512 57.3493 54.1167 57.0394 53.8773 56.811C53.6379 56.5825 53.3132 56.4542 52.9746 56.4542Z"/>
</mask>
<path d="M38.8722 1C37.7216 1 36.5712 1.305 35.561 1.91361C34.0402 2.83006 31.214 4.53233 28.8588 5.95189C28.8488 5.9581 28.8388 5.96445 28.8289 5.97092C21.458 10.4137 12.1314 16.0362 7.87802 18.5997L1.59475 22.3842C1.30894 22.5565 1.10642 22.8299 1.03163 23.1445C0.956845 23.4591 1.01589 23.7892 1.19581 24.0623C1.28523 24.1978 1.40176 24.3151 1.53874 24.4076C1.67572 24.5 1.83045 24.5658 1.9941 24.6012C2.15774 24.6365 2.32709 24.6407 2.49245 24.6136C2.6578 24.5865 2.81593 24.5285 2.95779 24.443L5.26165 23.0567C5.26126 23.0823 5.255 23.1071 5.255 23.1328V67.0527C5.255 68.475 5.84659 69.841 6.90062 70.8467C7.95465 71.8525 9.38619 72.417 10.8767 72.417H27.4891C27.5846 73.239 27.7412 74.054 28.031 74.8406C28.6244 76.4494 29.6122 77.9078 30.8934 79.0882C32.0944 80.194 33.5424 81.0456 35.1221 81.5658C36.3319 81.9634 37.5998 82.1585 38.8688 82.1622C38.8699 82.1622 38.8711 82.1622 38.8722 82.1622H69.5106C75.8412 82.1622 81 77.2396 81 71.1989V71.1386C81 71.1365 81 71.1343 81 71.1322C80.9809 68.2495 79.772 65.4862 77.6356 63.4459C75.5633 61.4701 72.7683 60.3843 69.8497 60.299C69.5584 56.7722 68.0359 53.5713 65.6808 51.1216V41.1512C65.6808 40.8282 65.5463 40.5183 65.3069 40.2899C65.0675 40.0614 64.7428 39.9331 64.4042 39.9331C64.0656 39.9331 63.7409 40.0614 63.5015 40.2899C63.2621 40.5183 63.1276 40.8282 63.1276 41.1512V48.9899C61.6425 47.9975 59.9733 47.2384 58.1575 46.7915C58.0371 46.7617 57.9128 46.7489 57.7885 46.7534C57.514 46.7636 57.2502 46.858 57.0364 47.0226C56.8226 47.1872 56.6701 47.4132 56.6016 47.6671C56.5596 47.822 56.55 47.9834 56.5734 48.1419C56.5968 48.3004 56.6527 48.4529 56.738 48.5908C56.8232 48.7287 56.936 48.8492 57.0701 48.9454C57.2041 49.0417 57.3567 49.1117 57.5192 49.1517C63.254 50.563 67.5026 55.5276 67.5026 61.4537C67.5026 61.7767 67.6371 62.0866 67.8765 62.315C68.1159 62.5434 68.4406 62.6718 68.7792 62.6718H69.5106C71.8806 62.6718 74.1527 63.5689 75.8304 65.1684C77.4916 66.755 78.4302 68.8977 78.4468 71.1386V71.1989C78.4468 75.9232 74.4617 79.7259 69.5106 79.7259H38.8755H38.8722C37.8751 79.7227 36.8871 79.5697 35.9533 79.2627C34.7313 78.8604 33.6022 78.1935 32.6687 77.334C31.674 76.4169 30.8996 75.2763 30.4413 74.0348V74.0317C30.1087 73.1279 29.9393 72.1662 29.936 71.1989V71.1449C29.9524 68.8057 30.9466 66.702 32.5523 65.1684C32.7917 64.94 32.9261 64.6301 32.9261 64.3071C32.9261 63.9841 32.7917 63.6743 32.5523 63.4459C32.3129 63.2175 31.9883 63.0892 31.6497 63.0892C31.3112 63.0892 30.9865 63.2175 30.7471 63.4459C28.9531 65.1593 27.7514 67.4445 27.4559 69.9807H10.8767C10.0625 69.9807 9.28575 69.6712 8.70914 69.121C8.13252 68.5708 7.8082 67.8296 7.8082 67.0527V23.1328C7.8082 22.1263 8.34644 21.1945 9.23773 20.6585C14.8565 17.272 30.6415 7.75834 36.924 3.9724C38.1172 3.25358 39.6271 3.25358 40.8203 3.9724C42.3428 4.88988 45.1704 6.59552 47.5291 8.01703C47.5368 8.02134 47.5446 8.02557 47.5524 8.02972L47.938 8.26129C55.2695 12.6798 64.3323 18.1426 68.5066 20.6585C69.3979 21.1945 69.9361 22.1263 69.9361 23.1328V50.0843C69.9361 50.4074 70.0706 50.7172 70.31 50.9457C70.5494 51.1741 70.8741 51.3025 71.2127 51.3025C71.5513 51.3025 71.876 51.1741 72.1154 50.9457C72.3548 50.7172 72.4893 50.4074 72.4893 50.0843V23.1328C72.4893 23.1071 72.4831 23.0823 72.4827 23.0567L74.7865 24.443C74.9284 24.5285 75.0865 24.5865 75.2519 24.6136C75.4172 24.6407 75.5866 24.6365 75.7502 24.6012C75.9139 24.5658 76.0686 24.5 76.2056 24.4076C76.3426 24.3151 76.4591 24.1978 76.5485 24.0623C76.7284 23.7892 76.7875 23.4591 76.7127 23.1445C76.6379 22.8299 76.4354 22.5565 76.1496 22.3842L69.8663 18.5997C65.6129 16.0362 56.2863 10.4137 48.9154 5.97092C48.9132 5.96986 48.911 5.9688 48.9088 5.96775C46.5431 4.54187 43.7096 2.83336 42.1833 1.91361C41.1731 1.305 40.0227 1 38.8722 1ZM38.8722 15.5702C34.4221 15.5702 30.787 19.0388 30.787 23.2851V29.3758H28.6594C28.3208 29.3758 27.9961 29.5042 27.7567 29.7326C27.5173 29.9611 27.3828 30.2709 27.3828 30.594C27.3828 30.917 27.5173 31.2269 27.7567 31.4553C27.9961 31.6838 28.3208 31.8121 28.6594 31.8121H49.085C49.4235 31.8121 49.7483 31.6838 49.9877 31.4553C50.2271 31.2269 50.3616 30.917 50.3616 30.594C50.3616 30.2709 50.2271 29.9611 49.9877 29.7326C49.7483 29.5042 49.4235 29.3758 49.085 29.3758H46.9573V23.2851C46.9573 19.0388 43.3222 15.5702 38.8722 15.5702ZM38.8722 18.0065C41.9422 18.0065 44.4041 20.3557 44.4041 23.2851V29.3758H33.3402V23.2851C33.3402 20.3557 35.8022 18.0065 38.8722 18.0065ZM64.4042 31C64.0656 31 63.7409 31.1284 63.5015 31.3568C63.2621 31.5853 63.1276 31.8951 63.1276 32.2182V35.4666C63.1276 35.7896 63.2621 36.0995 63.5015 36.3279C63.7409 36.5564 64.0656 36.6847 64.4042 36.6847C64.7428 36.6847 65.0675 36.5564 65.3069 36.3279C65.5463 36.0995 65.6808 35.7896 65.6808 35.4666V32.2182C65.6808 31.8951 65.5463 31.5853 65.3069 31.3568C65.0675 31.1284 64.7428 31 64.4042 31ZM38.8722 44.8057C35.826 44.8057 32.9026 45.9611 30.7471 48.016C28.5936 50.0728 27.3828 52.8623 27.3828 55.769V59.8295C27.3828 60.1526 27.5173 60.4624 27.7567 60.6908C27.9961 60.9193 28.3208 61.0476 28.6594 61.0476C28.9979 61.0476 29.3226 60.9193 29.562 60.6908C29.8015 60.4624 29.936 60.1526 29.936 59.8295V55.769C29.936 53.5075 30.8761 51.3395 32.5523 49.7385C34.2301 48.139 36.5021 47.242 38.8722 47.242C40.6633 47.242 42.3972 47.7541 43.8622 48.6949C38.1029 51.7607 34.1913 57.6283 34.1913 64.3531C34.1913 64.6762 34.3258 64.986 34.5652 65.2145C34.8046 65.4429 35.1293 65.5713 35.4679 65.5713C35.8065 65.5713 36.1312 65.4429 36.3706 65.2145C36.61 64.986 36.7445 64.6762 36.7445 64.3531C36.7445 55.7919 44.0026 48.8662 52.9746 48.8662C53.3132 48.8662 53.6379 48.7378 53.8773 48.5094C54.1167 48.2809 54.2512 47.9711 54.2512 47.648C54.2512 47.325 54.1167 47.0151 53.8773 46.7867C53.6379 46.5582 53.3132 46.4299 52.9746 46.4299C50.6854 46.4299 48.4993 46.8431 46.4686 47.5624C44.3746 45.7991 41.6802 44.8057 38.8722 44.8057ZM52.9746 51.442C45.5195 51.442 39.444 57.2393 39.444 64.3531C39.444 64.6762 39.5785 64.986 39.8179 65.2145C40.0573 65.4429 40.382 65.5713 40.7206 65.5713C41.0592 65.5713 41.3839 65.4429 41.6233 65.2145C41.8627 64.986 41.9972 64.6762 41.9972 64.3531C41.9972 58.5578 46.9012 53.8783 52.9746 53.8783C53.3132 53.8783 53.6379 53.75 53.8773 53.5215C54.1167 53.2931 54.2512 52.9833 54.2512 52.6602C54.2512 52.3371 54.1167 52.0273 53.8773 51.7988C53.6379 51.5704 53.3132 51.442 52.9746 51.442ZM52.9746 56.4542C48.418 56.4542 44.6967 60.0052 44.6967 64.3531C44.6967 64.6762 44.8312 64.986 45.0706 65.2145C45.31 65.4429 45.6347 65.5713 45.9733 65.5713C46.3118 65.5713 46.6365 65.4429 46.8759 65.2145C47.1154 64.986 47.2499 64.6762 47.2499 64.3531C47.2499 61.324 49.8001 58.8905 52.9746 58.8905C53.3132 58.8905 53.6379 58.7622 53.8773 58.5337C54.1167 58.3053 54.2512 57.9954 54.2512 57.6724C54.2512 57.3493 54.1167 57.0394 53.8773 56.811C53.6379 56.5825 53.3132 56.4542 52.9746 56.4542Z" fill="#303838"/>
<path d="M38.8722 1C37.7216 1 36.5712 1.305 35.561 1.91361C34.0402 2.83006 31.214 4.53233 28.8588 5.95189C28.8488 5.9581 28.8388 5.96445 28.8289 5.97092C21.458 10.4137 12.1314 16.0362 7.87802 18.5997L1.59475 22.3842C1.30894 22.5565 1.10642 22.8299 1.03163 23.1445C0.956845 23.4591 1.01589 23.7892 1.19581 24.0623C1.28523 24.1978 1.40176 24.3151 1.53874 24.4076C1.67572 24.5 1.83045 24.5658 1.9941 24.6012C2.15774 24.6365 2.32709 24.6407 2.49245 24.6136C2.6578 24.5865 2.81593 24.5285 2.95779 24.443L5.26165 23.0567C5.26126 23.0823 5.255 23.1071 5.255 23.1328V67.0527C5.255 68.475 5.84659 69.841 6.90062 70.8467C7.95465 71.8525 9.38619 72.417 10.8767 72.417H27.4891C27.5846 73.239 27.7412 74.054 28.031 74.8406C28.6244 76.4494 29.6122 77.9078 30.8934 79.0882C32.0944 80.194 33.5424 81.0456 35.1221 81.5658C36.3319 81.9634 37.5998 82.1585 38.8688 82.1622C38.8699 82.1622 38.8711 82.1622 38.8722 82.1622H69.5106C75.8412 82.1622 81 77.2396 81 71.1989V71.1386C81 71.1365 81 71.1343 81 71.1322C80.9809 68.2495 79.772 65.4862 77.6356 63.4459C75.5633 61.4701 72.7683 60.3843 69.8497 60.299C69.5584 56.7722 68.0359 53.5713 65.6808 51.1216V41.1512C65.6808 40.8282 65.5463 40.5183 65.3069 40.2899C65.0675 40.0614 64.7428 39.9331 64.4042 39.9331C64.0656 39.9331 63.7409 40.0614 63.5015 40.2899C63.2621 40.5183 63.1276 40.8282 63.1276 41.1512V48.9899C61.6425 47.9975 59.9733 47.2384 58.1575 46.7915C58.0371 46.7617 57.9128 46.7489 57.7885 46.7534C57.514 46.7636 57.2502 46.858 57.0364 47.0226C56.8226 47.1872 56.6701 47.4132 56.6016 47.6671C56.5596 47.822 56.55 47.9834 56.5734 48.1419C56.5968 48.3004 56.6527 48.4529 56.738 48.5908C56.8232 48.7287 56.936 48.8492 57.0701 48.9454C57.2041 49.0417 57.3567 49.1117 57.5192 49.1517C63.254 50.563 67.5026 55.5276 67.5026 61.4537C67.5026 61.7767 67.6371 62.0866 67.8765 62.315C68.1159 62.5434 68.4406 62.6718 68.7792 62.6718H69.5106C71.8806 62.6718 74.1527 63.5689 75.8304 65.1684C77.4916 66.755 78.4302 68.8977 78.4468 71.1386V71.1989C78.4468 75.9232 74.4617 79.7259 69.5106 79.7259H38.8755H38.8722C37.8751 79.7227 36.8871 79.5697 35.9533 79.2627C34.7313 78.8604 33.6022 78.1935 32.6687 77.334C31.674 76.4169 30.8996 75.2763 30.4413 74.0348V74.0317C30.1087 73.1279 29.9393 72.1662 29.936 71.1989V71.1449C29.9524 68.8057 30.9466 66.702 32.5523 65.1684C32.7917 64.94 32.9261 64.6301 32.9261 64.3071C32.9261 63.9841 32.7917 63.6743 32.5523 63.4459C32.3129 63.2175 31.9883 63.0892 31.6497 63.0892C31.3112 63.0892 30.9865 63.2175 30.7471 63.4459C28.9531 65.1593 27.7514 67.4445 27.4559 69.9807H10.8767C10.0625 69.9807 9.28575 69.6712 8.70914 69.121C8.13252 68.5708 7.8082 67.8296 7.8082 67.0527V23.1328C7.8082 22.1263 8.34644 21.1945 9.23773 20.6585C14.8565 17.272 30.6415 7.75834 36.924 3.9724C38.1172 3.25358 39.6271 3.25358 40.8203 3.9724C42.3428 4.88988 45.1704 6.59552 47.5291 8.01703C47.5368 8.02134 47.5446 8.02557 47.5524 8.02972L47.938 8.26129C55.2695 12.6798 64.3323 18.1426 68.5066 20.6585C69.3979 21.1945 69.9361 22.1263 69.9361 23.1328V50.0843C69.9361 50.4074 70.0706 50.7172 70.31 50.9457C70.5494 51.1741 70.8741 51.3025 71.2127 51.3025C71.5513 51.3025 71.876 51.1741 72.1154 50.9457C72.3548 50.7172 72.4893 50.4074 72.4893 50.0843V23.1328C72.4893 23.1071 72.4831 23.0823 72.4827 23.0567L74.7865 24.443C74.9284 24.5285 75.0865 24.5865 75.2519 24.6136C75.4172 24.6407 75.5866 24.6365 75.7502 24.6012C75.9139 24.5658 76.0686 24.5 76.2056 24.4076C76.3426 24.3151 76.4591 24.1978 76.5485 24.0623C76.7284 23.7892 76.7875 23.4591 76.7127 23.1445C76.6379 22.8299 76.4354 22.5565 76.1496 22.3842L69.8663 18.5997C65.6129 16.0362 56.2863 10.4137 48.9154 5.97092C48.9132 5.96986 48.911 5.9688 48.9088 5.96775C46.5431 4.54187 43.7096 2.83336 42.1833 1.91361C41.1731 1.305 40.0227 1 38.8722 1ZM38.8722 15.5702C34.4221 15.5702 30.787 19.0388 30.787 23.2851V29.3758H28.6594C28.3208 29.3758 27.9961 29.5042 27.7567 29.7326C27.5173 29.9611 27.3828 30.2709 27.3828 30.594C27.3828 30.917 27.5173 31.2269 27.7567 31.4553C27.9961 31.6838 28.3208 31.8121 28.6594 31.8121H49.085C49.4235 31.8121 49.7483 31.6838 49.9877 31.4553C50.2271 31.2269 50.3616 30.917 50.3616 30.594C50.3616 30.2709 50.2271 29.9611 49.9877 29.7326C49.7483 29.5042 49.4235 29.3758 49.085 29.3758H46.9573V23.2851C46.9573 19.0388 43.3222 15.5702 38.8722 15.5702ZM38.8722 18.0065C41.9422 18.0065 44.4041 20.3557 44.4041 23.2851V29.3758H33.3402V23.2851C33.3402 20.3557 35.8022 18.0065 38.8722 18.0065ZM64.4042 31C64.0656 31 63.7409 31.1284 63.5015 31.3568C63.2621 31.5853 63.1276 31.8951 63.1276 32.2182V35.4666C63.1276 35.7896 63.2621 36.0995 63.5015 36.3279C63.7409 36.5564 64.0656 36.6847 64.4042 36.6847C64.7428 36.6847 65.0675 36.5564 65.3069 36.3279C65.5463 36.0995 65.6808 35.7896 65.6808 35.4666V32.2182C65.6808 31.8951 65.5463 31.5853 65.3069 31.3568C65.0675 31.1284 64.7428 31 64.4042 31ZM38.8722 44.8057C35.826 44.8057 32.9026 45.9611 30.7471 48.016C28.5936 50.0728 27.3828 52.8623 27.3828 55.769V59.8295C27.3828 60.1526 27.5173 60.4624 27.7567 60.6908C27.9961 60.9193 28.3208 61.0476 28.6594 61.0476C28.9979 61.0476 29.3226 60.9193 29.562 60.6908C29.8015 60.4624 29.936 60.1526 29.936 59.8295V55.769C29.936 53.5075 30.8761 51.3395 32.5523 49.7385C34.2301 48.139 36.5021 47.242 38.8722 47.242C40.6633 47.242 42.3972 47.7541 43.8622 48.6949C38.1029 51.7607 34.1913 57.6283 34.1913 64.3531C34.1913 64.6762 34.3258 64.986 34.5652 65.2145C34.8046 65.4429 35.1293 65.5713 35.4679 65.5713C35.8065 65.5713 36.1312 65.4429 36.3706 65.2145C36.61 64.986 36.7445 64.6762 36.7445 64.3531C36.7445 55.7919 44.0026 48.8662 52.9746 48.8662C53.3132 48.8662 53.6379 48.7378 53.8773 48.5094C54.1167 48.2809 54.2512 47.9711 54.2512 47.648C54.2512 47.325 54.1167 47.0151 53.8773 46.7867C53.6379 46.5582 53.3132 46.4299 52.9746 46.4299C50.6854 46.4299 48.4993 46.8431 46.4686 47.5624C44.3746 45.7991 41.6802 44.8057 38.8722 44.8057ZM52.9746 51.442C45.5195 51.442 39.444 57.2393 39.444 64.3531C39.444 64.6762 39.5785 64.986 39.8179 65.2145C40.0573 65.4429 40.382 65.5713 40.7206 65.5713C41.0592 65.5713 41.3839 65.4429 41.6233 65.2145C41.8627 64.986 41.9972 64.6762 41.9972 64.3531C41.9972 58.5578 46.9012 53.8783 52.9746 53.8783C53.3132 53.8783 53.6379 53.75 53.8773 53.5215C54.1167 53.2931 54.2512 52.9833 54.2512 52.6602C54.2512 52.3371 54.1167 52.0273 53.8773 51.7988C53.6379 51.5704 53.3132 51.442 52.9746 51.442ZM52.9746 56.4542C48.418 56.4542 44.6967 60.0052 44.6967 64.3531C44.6967 64.6762 44.8312 64.986 45.0706 65.2145C45.31 65.4429 45.6347 65.5713 45.9733 65.5713C46.3118 65.5713 46.6365 65.4429 46.8759 65.2145C47.1154 64.986 47.2499 64.6762 47.2499 64.3531C47.2499 61.324 49.8001 58.8905 52.9746 58.8905C53.3132 58.8905 53.6379 58.7622 53.8773 58.5337C54.1167 58.3053 54.2512 57.9954 54.2512 57.6724C54.2512 57.3493 54.1167 57.0394 53.8773 56.811C53.6379 56.5825 53.3132 56.4542 52.9746 56.4542Z" stroke="#303838" stroke-width="0.7" mask="url(#path-5-outside-1_1348_6428)"/>
</svg>
