<svg width="77" height="76" viewBox="0 0 77 76" fill="none" xmlns="http://www.w3.org/2000/svg">
<path d="M2 58.5V4V2L8.5 1H72L75 5.5L76 60.5L72 61.5H22L10 73V60.5H2V58.5Z" fill="#618E81"/>
<rect x="16" y="17" width="45" height="35" rx="6" fill="#EEEEEE"/>
<path d="M8.65556 63.3111V63.2111H8.55556H5.13333C3.79841 63.2111 2.51816 62.6808 1.57423 61.7369C0.630296 60.7929 0.1 59.5127 0.1 58.1778V5.13333C0.1 3.79841 0.630296 2.51816 1.57423 1.57423C2.51816 0.630296 3.79841 0.1 5.13333 0.1H71.8667C73.2016 0.1 74.4818 0.630296 75.4258 1.57423C76.3697 2.51816 76.9 3.79841 76.9 5.13333V58.1778C76.9 59.5127 76.3697 60.7929 75.4258 61.7369C74.4818 62.6808 73.2016 63.2111 71.8667 63.2111H22.9546H22.9132L22.8839 63.2404L11.4023 74.7134L11.4021 74.7136C11.1014 75.0161 10.693 75.187 10.2664 75.1889C10.0539 75.1885 9.84334 75.1475 9.64614 75.0682C9.35227 74.9455 9.10133 74.7385 8.92502 74.4734C8.74866 74.2081 8.65489 73.8965 8.65556 73.578V73.5778V63.3111ZM21.1088 60.4644L21.109 60.4642C21.4098 60.1616 21.8183 59.9907 22.2449 59.9889H71.8667C72.347 59.9889 72.8077 59.7981 73.1473 59.4584C73.487 59.1188 73.6778 58.6581 73.6778 58.1778V5.13333C73.6778 4.653 73.487 4.19233 73.1473 3.85268C72.8077 3.51304 72.347 3.32222 71.8667 3.32222H5.13333C4.653 3.32222 4.19233 3.51304 3.85268 3.85268C3.51304 4.19233 3.32222 4.653 3.32222 5.13333V58.1778C3.32222 58.6581 3.51304 59.1188 3.85268 59.4584C4.19233 59.7981 4.653 59.9889 5.13333 59.9889H10.2667C10.694 59.9889 11.1038 60.1586 11.4059 60.4608C11.708 60.7629 11.8778 61.1727 11.8778 61.6V69.4454V69.6867L12.0485 69.5162L21.1088 60.4644Z" fill="#303838" stroke="#618E81" stroke-width="0.2"/>
<path d="M32.4183 24.5792C32.9713 25.4069 33.2665 26.38 33.2665 27.3755C33.2665 28.7104 32.7362 29.9907 31.7923 30.9346C30.8484 31.8786 29.5681 32.4089 28.2332 32.4089C27.2377 32.4089 26.2645 32.1137 25.4368 31.5606C24.6091 31.0075 23.964 30.2214 23.583 29.3017C23.202 28.382 23.1024 27.3699 23.2966 26.3936C23.4908 25.4172 23.9702 24.5203 24.6741 23.8164C25.378 23.1125 26.2749 22.6331 27.2512 22.4389C28.2276 22.2447 29.2396 22.3444 30.1594 22.7253C31.0791 23.1063 31.8652 23.7514 32.4183 24.5792ZM27.227 28.8814C27.5248 29.0804 27.875 29.1866 28.2332 29.1866C28.7135 29.1866 29.1742 28.9958 29.5138 28.6562C29.8535 28.3165 30.0443 27.8559 30.0443 27.3755C30.0443 27.0173 29.9381 26.6672 29.7391 26.3693C29.5401 26.0715 29.2572 25.8394 28.9263 25.7023C28.5953 25.5652 28.2312 25.5293 27.8799 25.5992C27.5285 25.6691 27.2058 25.8416 26.9525 26.0949C26.6993 26.3482 26.5268 26.6709 26.4569 27.0222C26.387 27.3735 26.4229 27.7377 26.5599 28.0686C26.697 28.3995 26.9292 28.6824 27.227 28.8814Z" fill="#303838" stroke="#EEEEEE" stroke-width="0.2"/>
<path d="M45.9703 23.1905C46.798 22.6374 47.7711 22.3422 48.7666 22.3422C50.1016 22.3422 51.3818 22.8725 52.3257 23.8164C53.2697 24.7603 53.8 26.0406 53.8 27.3755C53.8 28.371 53.5048 29.3442 52.9517 30.1719C52.3986 30.9996 51.6125 31.6448 50.6928 32.0257C49.7731 32.4067 48.7611 32.5064 47.7847 32.3121C46.8083 32.1179 45.9115 31.6386 45.2075 30.9346C44.5036 30.2307 44.0242 29.3338 43.83 28.3575C43.6358 27.3811 43.7355 26.3691 44.1164 25.4493C44.4974 24.5296 45.1425 23.7435 45.9703 23.1905ZM47.7604 28.8814C48.0583 29.0804 48.4084 29.1866 48.7666 29.1866C49.247 29.1866 49.7076 28.9958 50.0473 28.6562C50.3869 28.3165 50.5777 27.8559 50.5777 27.3755C50.5777 27.0173 50.4715 26.6672 50.2725 26.3693C50.0735 26.0715 49.7907 25.8394 49.4597 25.7023C49.1288 25.5652 48.7646 25.5293 48.4133 25.5992C48.062 25.6691 47.7393 25.8416 47.486 26.0949C47.2327 26.3482 47.0602 26.6709 46.9903 27.0222C46.9204 27.3735 46.9563 27.7377 47.0934 28.0686C47.2305 28.3995 47.4626 28.6824 47.7604 28.8814Z" fill="#303838" stroke="#EEEEEE" stroke-width="0.2"/>
<path d="M38.4999 42.8819C39.5826 42.8825 40.6388 42.5473 41.5229 41.9224C42.4071 41.2975 43.0757 40.4138 43.4366 39.3931L43.4838 39.2597H43.3423H33.6574H33.516L33.5632 39.3931C33.9241 40.4138 34.5927 41.2975 35.4769 41.9224C36.361 42.5473 37.4172 42.8825 38.4999 42.8819ZM38.4999 42.8819C38.4999 42.8819 38.4999 42.8819 38.4998 42.8819L38.4999 42.7819L38.4999 42.8819C38.4999 42.8819 38.4999 42.8819 38.4999 42.8819ZM33.6574 39.3597V39.4597H33.694C33.6815 39.4265 33.6693 39.3932 33.6574 39.3597ZM31.6554 36.0375H45.3443C45.7716 36.0375 46.1814 36.2072 46.4836 36.5094C46.7857 36.8115 46.9554 37.2213 46.9554 37.6486C46.9554 39.8912 46.0646 42.0419 44.4789 43.6276C42.8931 45.2133 40.7424 46.1042 38.4999 46.1042C36.2573 46.1042 34.1066 45.2133 32.5209 43.6276C30.9352 42.0419 30.0443 39.8912 30.0443 37.6486C30.0443 37.2213 30.2141 36.8115 30.5162 36.5094C30.8184 36.2072 31.2282 36.0375 31.6554 36.0375Z" fill="#303838" stroke="#EEEEEE" stroke-width="0.2"/>
<path d="M63.2112 25.6658V25.7658H63.3112H66.7334C67.1607 25.7658 67.5705 25.9355 67.8727 26.2377C68.1748 26.5398 68.3446 26.9496 68.3446 27.3769C68.3446 27.8042 68.1748 28.214 67.8727 28.5161C67.5705 28.8183 67.1607 28.988 66.7334 28.988H63.3112H63.2112V29.088V42.7769C63.2112 45.9271 61.9598 48.9483 59.7323 51.1758C57.5048 53.4033 54.4836 54.6547 51.3334 54.6547H25.6668C22.5166 54.6547 19.4954 53.4033 17.2679 51.1758C15.0404 48.9483 13.789 45.9271 13.789 42.7769V29.088V28.988H13.689H10.2668C9.83948 28.988 9.42969 28.8183 9.12755 28.5161C8.82541 28.214 8.65566 27.8042 8.65566 27.3769C8.65566 26.9496 8.82541 26.5398 9.12755 26.2377C9.42969 25.9355 9.83948 25.7658 10.2668 25.7658H13.689H13.789V25.6658C13.789 22.5156 15.0404 19.4945 17.2679 17.2669C19.4954 15.0394 22.5166 13.788 25.6668 13.788H36.789H36.889V13.688V10.2658C36.889 9.83851 37.0587 9.42871 37.3609 9.12657C37.663 8.82443 38.0728 8.65469 38.5001 8.65469C38.9274 8.65469 39.3372 8.82443 39.6393 9.12657C39.9415 9.42871 40.1112 9.83851 40.1112 10.2658V13.688V13.788H40.2112H51.3334C54.4836 13.788 57.5048 15.0394 59.7323 17.2669C61.9598 19.4945 63.2112 22.5156 63.2112 25.6658ZM57.4538 48.8973C59.0771 47.2741 59.989 45.0725 59.989 42.7769V25.6658C59.989 23.3702 59.0771 21.1686 57.4538 19.5454C55.8306 17.9222 53.629 17.0102 51.3334 17.0102H25.6668C23.3712 17.0102 21.1696 17.9222 19.5464 19.5454C17.9231 21.1686 17.0112 23.3702 17.0112 25.6658V42.7769C17.0112 45.0725 17.9231 47.2741 19.5464 48.8973C21.1696 50.5205 23.3712 51.4325 25.6668 51.4325H51.3334C53.629 51.4325 55.8306 50.5205 57.4538 48.8973Z" fill="#303838" stroke="#618E81" stroke-width="0.2"/>
<g style="mix-blend-mode:darken">
<path d="M45 37H31.5L32.5 40.5L35 43.5L40.5 44.5L45 40.5V37Z" fill="#B46D6D"/>
</g>
<g style="mix-blend-mode:darken">
<path fill-rule="evenodd" clip-rule="evenodd" d="M28.5 30C29.8807 30 31 28.8807 31 27.5C31 26.1193 29.8807 25 28.5 25C27.1193 25 26 26.1193 26 27.5C26 28.8807 27.1193 30 28.5 30ZM48.5 30C49.8807 30 51 28.8807 51 27.5C51 26.1193 49.8807 25 48.5 25C47.1193 25 46 26.1193 46 27.5C46 28.8807 47.1193 30 48.5 30Z" fill="#C0E3C0"/>
</g>
</svg>
