<svg width="82" height="82" viewBox="0 0 82 82" fill="none" xmlns="http://www.w3.org/2000/svg">
<rect x="2" y="2" width="38" height="39" rx="5" fill="#C0D6E3"/>
<rect x="42" y="41" width="38" height="39" rx="5" fill="#303838"/>
<path d="M14.5 19.5L2 31.5L1.5 36L4.5 39L38.5 40L39.5 36.5V34L21 19.5H18H14.5Z" fill="#618E81"/>
<path d="M55 59L42.5 71L42 75.5L45 78.5L79 79.5L80 76V73.5L61.5 59H58.5H55Z" fill="#C0E3C0"/>
<path d="M54.0286 61.2754L54.0282 61.2757L43.15 71.2211V75C43.15 76.0211 43.5556 77.0003 44.2776 77.7224C44.9997 78.4444 45.9789 78.85 47 78.85L74.9996 78.85L75 78.85M54.0286 61.2754L78.954 75.451C78.8457 76.4249 78.3828 77.3248 77.6536 77.9793C76.9244 78.6339 75.9799 78.9972 75 79V78.85M54.0286 61.2754C54.8736 60.498 55.9678 60.0469 57.1151 60.0028C58.2625 59.9588 59.388 60.3246 60.2902 61.0349L60.2906 61.0351L78.7948 75.5169M54.0286 61.2754L78.7948 75.5169M75 78.85C75.9429 78.8472 76.8517 78.4975 77.5534 77.8677C78.2346 77.2563 78.6743 76.4224 78.7948 75.5169M75 78.85L78.7948 75.5169M69 57.15C69.8208 57.15 70.6232 56.9066 71.3056 56.4506C71.9881 55.9946 72.52 55.3464 72.8341 54.5881C73.1482 53.8298 73.2304 52.9954 73.0703 52.1904C72.9101 51.3854 72.5149 50.6459 71.9345 50.0655C71.3541 49.4851 70.6146 49.0899 69.8096 48.9297C69.0046 48.7696 68.1702 48.8518 67.4119 49.1659C66.6535 49.48 66.0054 50.0119 65.5494 50.6944C65.0934 51.3768 64.85 52.1792 64.85 53C64.85 54.1006 65.2872 55.1562 66.0655 55.9345C66.8438 56.7128 67.8994 57.15 69 57.15ZM69 51.15C69.3659 51.15 69.7236 51.2585 70.0278 51.4618C70.332 51.6651 70.5692 51.954 70.7092 52.292C70.8492 52.6301 70.8858 53.0021 70.8145 53.3609C70.7431 53.7198 70.5669 54.0494 70.3081 54.3081C70.0494 54.5669 69.7198 54.7431 69.3609 54.8145C69.0021 54.8858 68.6301 54.8492 68.292 54.7092C67.954 54.5692 67.6651 54.332 67.4618 54.0278C67.2585 53.7236 67.15 53.3659 67.15 53C67.15 52.5093 67.3449 52.0388 67.6919 51.6919C68.0388 51.3449 68.5093 51.15 69 51.15ZM75 40.85H47C45.3689 40.85 43.8046 41.4979 42.6513 42.6513C41.4979 43.8046 40.85 45.3689 40.85 47V75C40.85 76.6311 41.4979 78.1954 42.6513 79.3487C43.8046 80.5021 45.3689 81.15 47 81.15H75C76.6311 81.15 78.1954 80.5021 79.3487 79.3487C80.5021 78.1954 81.15 76.6311 81.15 75V47C81.15 45.3689 80.5021 43.8046 79.3487 42.6513C78.1954 41.4979 76.6311 40.85 75 40.85ZM47 43.15H75C76.0211 43.15 77.0003 43.5556 77.7224 44.2776C78.4444 44.9997 78.85 45.9789 78.85 47V72.6401L61.7077 59.2241C60.3774 58.1776 58.7181 57.6384 57.0266 57.7032C55.3352 57.768 53.722 58.4323 52.4755 59.5775L43.15 68.1046V47C43.15 45.9789 43.5556 44.9997 44.2776 44.2776C44.9997 43.5556 45.9789 43.15 47 43.15Z" fill="#303838" stroke="#303838" stroke-width="0.3"/>
<path d="M68 18H69.25V16.75H68V18ZM49 16.75C48.3096 16.75 47.75 17.3096 47.75 18C47.75 18.6904 48.3096 19.25 49 19.25V16.75ZM69.25 34V18H66.75V34H69.25ZM68 16.75H49V19.25H68V16.75Z" fill="#303838"/>
<path d="M8 54L14 48L20 54" stroke="#303838" stroke-width="2.5" stroke-linecap="round"/>
<path d="M74 28L68 34L62 28" stroke="#303838" stroke-width="2.5" stroke-linecap="round"/>
<path d="M14 64H12.75V65.25H14V64ZM33 65.25C33.6904 65.25 34.25 64.6904 34.25 64C34.25 63.3096 33.6904 62.75 33 62.75V65.25ZM12.75 48V64H15.25V48H12.75ZM14 65.25H33V62.75H14V65.25Z" fill="#303838"/>
<circle cx="69" cy="53" r="3" fill="#DEBD7C"/>
<circle cx="29" cy="13" r="3" fill="#B46D6D"/>
<path d="M14.0286 21.2754L14.0282 21.2757L3.15 31.2211V35C3.15 36.0211 3.55562 37.0003 4.27764 37.7224C4.99965 38.4444 5.97892 38.85 7 38.85L34.9996 38.85L35 38.85M14.0286 21.2754L38.954 35.451C38.8457 36.4249 38.3828 37.3248 37.6536 37.9793C36.9244 38.6339 35.9799 38.9972 35 39V38.85M14.0286 21.2754C14.8736 20.498 15.9678 20.0469 17.1151 20.0028C18.2625 19.9588 19.388 20.3246 20.2902 21.0349L20.2906 21.0351L38.7948 35.5169M14.0286 21.2754L38.7948 35.5169M35 38.85C35.9429 38.8472 36.8517 38.4975 37.5534 37.8677C38.2346 37.2563 38.6743 36.4224 38.7948 35.5169M35 38.85L38.7948 35.5169M29 17.15C29.8208 17.15 30.6232 16.9066 31.3056 16.4506C31.9881 15.9946 32.52 15.3464 32.8341 14.5881C33.1482 13.8298 33.2304 12.9954 33.0703 12.1904C32.9101 11.3854 32.5149 10.6459 31.9345 10.0655C31.3541 9.48512 30.6146 9.08987 29.8096 8.92974C29.0046 8.76961 28.1702 8.8518 27.4119 9.1659C26.6535 9.48 26.0054 10.0119 25.5494 10.6944C25.0934 11.3768 24.85 12.1792 24.85 13C24.85 14.1006 25.2872 15.1562 26.0655 15.9345C26.8438 16.7128 27.8994 17.15 29 17.15ZM29 11.15C29.3659 11.15 29.7236 11.2585 30.0278 11.4618C30.332 11.6651 30.5692 11.954 30.7092 12.292C30.8492 12.6301 30.8858 13.0021 30.8145 13.3609C30.7431 13.7198 30.5669 14.0494 30.3081 14.3081C30.0494 14.5669 29.7198 14.7431 29.3609 14.8145C29.0021 14.8858 28.6301 14.8492 28.292 14.7092C27.954 14.5692 27.6651 14.332 27.4618 14.0278C27.2585 13.7236 27.15 13.3659 27.15 13C27.15 12.5093 27.3449 12.0388 27.6919 11.6919C28.0388 11.3449 28.5093 11.15 29 11.15ZM35 0.85H7C5.36892 0.85 3.80464 1.49794 2.65129 2.65129C1.49794 3.80464 0.85 5.36892 0.85 7V35C0.85 36.6311 1.49794 38.1954 2.65129 39.3487C3.80464 40.5021 5.36892 41.15 7 41.15H35C36.6311 41.15 38.1954 40.5021 39.3487 39.3487C40.5021 38.1954 41.15 36.6311 41.15 35V7C41.15 5.36892 40.5021 3.80464 39.3487 2.65129C38.1954 1.49794 36.6311 0.85 35 0.85ZM7 3.15H35C36.0211 3.15 37.0003 3.55562 37.7224 4.27764C38.4444 4.99965 38.85 5.97892 38.85 7V32.6401L21.7077 19.2241C20.3774 18.1776 18.7181 17.6384 17.0266 17.7032C15.3352 17.768 13.722 18.4323 12.4755 19.5775L3.15 28.1046V7C3.15 5.97892 3.55562 4.99965 4.27764 4.27764C4.99965 3.55562 5.97892 3.15 7 3.15Z" fill="#303838" stroke="#303838" stroke-width="0.3"/>
</svg>
