<svg width="86" height="87" viewBox="0 0 86 87" fill="none" xmlns="http://www.w3.org/2000/svg">
<path d="M41.1141 79.2508C62.0902 79.2508 79.0946 62.2464 79.0946 41.2704C79.0946 20.2944 62.0902 3.28995 41.1141 3.28995C20.1381 3.28995 3.1337 20.2944 3.1337 41.2704C3.1337 62.2464 20.1381 79.2508 41.1141 79.2508ZM82.1283 41.2704C82.1283 63.9219 63.7656 82.2845 41.1141 82.2845C18.4627 82.2845 0.1 63.9219 0.1 41.2704C0.1 18.6189 18.4627 0.25625 41.1141 0.25625C63.7656 0.25625 82.1283 18.6189 82.1283 41.2704Z" fill="#618E81" stroke="white" stroke-width="0.2"/>
<circle cx="26.8697" cy="46.3492" r="16.6304" fill="white"/>
<circle cx="60.1303" cy="27.8662" r="10.163" fill="white"/>
<path d="M40.7283 82.3784L61.5163 45.4219L65.212 46.8077L84.6142 82.3784L83.2283 85.6121H41.6522L40.7283 82.3784Z" fill="white"/>
<path d="M38.9626 59.9091L40.3023 61.2488C40.6 61.5465 41.0466 61.6954 41.3443 61.6954C41.642 61.6954 42.0885 61.5465 42.3862 61.2488C42.9817 60.6534 42.9817 59.7603 42.3862 59.1649L41.0466 57.8252C43.2794 54.997 44.7679 51.4245 45.0656 47.5544H47.2984C48.1915 47.5544 48.7869 46.9589 48.7869 46.0658C48.7869 45.1727 48.1915 44.5773 47.2984 44.5773H44.9167C44.4702 40.856 42.9817 37.4324 40.6 34.6042L42.2374 32.9668C42.8328 32.3714 42.8328 31.4783 42.2374 30.8829C41.642 30.2874 40.7489 30.2874 40.1535 30.8829L38.5161 32.5202C35.8367 30.1386 32.4131 28.6501 28.5429 28.3524V25.9707C28.5429 25.0776 27.9475 24.4822 27.0544 24.4822C26.1613 24.4822 25.5659 25.0776 25.5659 25.9707V28.3524C21.6957 28.6501 18.1233 29.9897 15.2951 32.2225L13.9554 30.8829C13.36 30.2874 12.4669 30.2874 11.8714 30.8829C11.276 31.4783 11.276 32.3714 11.8714 32.9668L13.2111 34.3065C10.8295 37.1347 9.19209 40.7071 8.74554 44.5773H7.10816C6.21504 44.5773 5.61963 45.1727 5.61963 46.0658C5.61963 46.9589 6.21504 47.5544 7.10816 47.5544H8.74554C9.04324 51.5734 10.5318 55.2947 13.0623 58.2718L12.1691 59.1649C11.5737 59.7603 11.5737 60.6534 12.1691 61.2488C12.4669 61.5465 12.9134 61.6954 13.2111 61.6954C13.5088 61.6954 13.9554 61.5465 14.2531 61.2488L15.1462 60.3557C18.1233 62.8862 21.6957 64.3747 25.8636 64.6724V66.1609C25.8636 67.0541 26.459 67.6495 27.3521 67.6495C28.2452 67.6495 28.8406 67.0541 28.8406 66.1609V64.5236C32.7108 64.2259 36.2833 62.4396 38.9626 59.9091ZM26.9056 31.1806C35.2413 31.1806 42.0885 38.0278 42.0885 46.3635C42.0885 54.6993 35.2413 61.5465 26.9056 61.5465C22.8865 61.5465 19.1652 59.9091 16.4859 57.3786C16.4859 57.2298 16.337 57.0809 16.1882 56.9321C16.0393 56.7832 15.8905 56.7832 15.7416 56.6344C13.2111 54.1039 11.5737 50.5314 11.5737 46.5124C11.5737 38.0278 18.421 31.1806 26.9056 31.1806ZM60.2486 22.9937C61.1417 22.9937 61.7371 23.5891 61.7371 24.4822C61.7371 25.3753 61.1417 25.9707 60.2486 25.9707C59.2066 25.9707 58.3135 26.8638 58.3135 27.9058C58.3135 28.7989 57.7181 29.3943 56.825 29.3943C55.9318 29.3943 55.3364 28.7989 55.3364 27.9058C55.1876 25.2265 57.4204 22.9937 60.2486 22.9937ZM85.5535 81.3439L65.6073 46.8101C64.863 45.6193 63.6722 44.875 62.3325 44.875C60.9928 44.875 59.802 45.6193 59.0577 46.8101L39.1115 81.3439C38.3672 82.5347 38.3672 83.8744 39.1115 85.0652C39.8557 86.2561 41.0466 87.0003 42.3862 87.0003H82.2788C83.6184 87.0003 84.8093 86.2561 85.5535 85.0652C86.1489 83.8744 86.1489 82.5347 85.5535 81.3439ZM82.8742 83.5767C82.8742 83.7256 82.5765 84.0233 82.1299 84.0233H42.3862C41.9397 84.0233 41.7908 83.7256 41.642 83.5767C41.4931 83.4279 41.4931 83.1302 41.642 82.8324L61.5882 48.2986C61.7371 48.0009 62.1837 47.8521 62.3325 47.8521C62.4814 47.8521 62.7791 47.8521 63.0768 48.2986L83.023 82.8324C83.1719 83.1302 83.023 83.4279 82.8742 83.5767ZM60.5463 71.9662V61.6954C60.5463 60.8022 61.2905 60.058 62.1837 60.058C63.0768 60.058 63.821 60.8022 63.821 61.6954V71.9662C63.821 72.8593 63.0768 73.6036 62.1837 73.6036C61.2905 73.6036 60.5463 72.8593 60.5463 71.9662ZM64.863 77.9203C64.863 79.26 63.6722 80.4508 62.3325 80.4508C60.9928 80.4508 59.802 79.26 59.802 77.9203C59.802 76.5806 60.9928 75.3898 62.3325 75.3898C63.6722 75.3898 64.863 76.5806 64.863 77.9203ZM16.7836 42.3445C16.7836 38.1766 20.0583 34.9019 24.2262 34.9019C25.1193 34.9019 25.7147 35.4973 25.7147 36.3904C25.7147 37.2835 25.1193 37.8789 24.2262 37.8789C21.6957 37.8789 19.7606 39.814 19.7606 42.3445C19.7606 43.2376 19.1652 43.833 18.2721 43.833C17.379 43.833 16.7836 43.2376 16.7836 42.3445ZM22.7377 47.5544C22.7377 51.2757 25.7147 54.2527 29.4361 54.2527C33.1574 54.2527 36.1344 51.2757 36.1344 47.5544C36.1344 43.833 33.1574 40.856 29.4361 40.856C25.7147 40.856 22.7377 43.833 22.7377 47.5544ZM29.4361 43.833C31.52 43.833 33.1574 45.4704 33.1574 47.5544C33.1574 49.6383 31.52 51.2757 29.4361 51.2757C27.3521 51.2757 25.7147 49.6383 25.7147 47.5544C25.7147 45.4704 27.3521 43.833 29.4361 43.833ZM48.7869 28.9478C49.0846 31.1806 49.8289 33.2645 51.1686 34.9019C50.722 35.4973 50.722 36.3904 51.1686 36.9858C51.4663 37.2835 51.9128 37.4324 52.2105 37.4324C52.5082 37.4324 52.9548 37.2835 53.2525 36.9858C54.8899 38.3255 56.9738 39.0698 59.2066 39.3675C59.2066 40.2606 59.802 40.856 60.6951 40.856C61.5882 40.856 62.1837 40.2606 62.1837 39.3675V39.2186C64.2676 38.9209 66.2027 37.8789 67.6912 36.5393L68.1378 36.9858C68.4355 37.2835 68.882 37.4324 69.1797 37.4324C69.4774 37.4324 69.924 37.2835 70.2217 36.9858C70.8171 36.3904 70.8171 35.4973 70.2217 34.9019L69.6263 34.3065C70.6683 32.8179 71.4125 30.8829 71.5614 28.9478H72.6033C73.4965 28.9478 74.0919 28.3524 74.0919 27.4592C74.0919 26.5661 73.4965 25.9707 72.6033 25.9707H71.4125C71.1148 24.1845 70.3706 22.3983 69.1797 21.0586L70.0728 20.1655C70.6683 19.5701 70.6683 18.6769 70.0728 18.0815C69.4774 17.4861 68.5843 17.4861 67.9889 18.0815L67.0958 18.9746C65.6073 17.9327 63.9699 17.0396 62.1837 16.7418V15.551C62.1837 14.6579 61.5882 14.0625 60.6951 14.0625C59.802 14.0625 59.2066 14.6579 59.2066 15.551V16.593C57.2715 16.7418 55.3364 17.4861 53.8479 18.5281L53.2525 17.9327C52.6571 17.3373 51.764 17.3373 51.1686 17.9327C50.5731 18.5281 50.5731 19.4212 51.1686 20.0166L51.6151 20.4632C50.2754 21.9517 49.3823 23.8868 48.9358 25.9707H48.7869C47.8938 25.9707 47.2984 26.5661 47.2984 27.4592C47.2984 28.3524 47.8938 28.9478 48.7869 28.9478ZM68.5843 27.9058C68.5843 32.5202 64.863 36.3904 60.0997 36.3904C58.0158 36.3904 56.0807 35.6461 54.5922 34.3065C54.5922 34.1576 54.4433 33.8599 54.2945 33.7111C54.1456 33.5622 53.8479 33.4134 53.699 33.4134C52.5082 31.9248 51.6151 29.9897 51.6151 27.9058C51.6151 23.2914 55.3364 19.4212 60.0997 19.4212C64.863 19.4212 68.5843 23.2914 68.5843 27.9058Z" fill="#618E81"/>
</svg>
