<svg width="88" height="88" viewBox="0 0 88 88" fill="none" xmlns="http://www.w3.org/2000/svg">
<circle cx="44" cy="44" r="42.5" fill="#C4C4C4" stroke="#303838" stroke-width="3"/>
<path d="M62.5 18L52.5 15.5L45.5 18L35 45L30 61.5V67.5L40 74.5H45.5L50.5 71.5L66.5 32L67.5 24L62.5 18Z" fill="#EEEEEE"/>
<path d="M47.5 63L36 59L35 64.5L41 68H46L47.5 63Z" fill="#C0D6E3"/>
<path d="M51 39.5L43 39L44.5 30.5H51L60.5 35.5L56.5 43.5L51 39.5Z" fill="#C0D6E3"/>
<path d="M36.8121 57.9433L36.8121 57.9433L36.8105 57.9424C36.6434 57.8423 36.4558 57.7796 36.2614 57.7582C36.067 57.7368 35.8699 57.7573 35.6844 57.8183C35.4988 57.8793 35.3289 57.9795 35.1871 58.1122C35.0454 58.245 34.9353 58.407 34.8657 58.5871L34.8657 58.5871L34.8654 58.5879C34.7423 58.9092 34.376 59.8922 34.0968 61.0292C33.8207 62.1534 33.6164 63.478 33.8561 64.4606C33.9653 64.917 34.2669 65.332 34.6556 65.701C35.0467 66.0723 35.5444 66.4143 36.0783 66.7223C37.1464 67.3382 38.3919 67.8359 39.3045 68.1655L39.3047 68.1655C40.1037 68.4534 41.3714 68.8701 42.6186 69.0936C43.2421 69.2054 43.8691 69.2705 44.4347 69.2441C44.9964 69.2179 45.5233 69.1003 45.924 68.8231C46.7872 68.2299 47.5387 67.0993 48.0964 66.072C48.6598 65.0345 49.0479 64.059 49.1713 63.7367L49.1714 63.7367L49.1725 63.7337C49.2382 63.5553 49.2626 63.3649 49.2439 63.176C49.2252 62.9872 49.1639 62.8051 49.0647 62.6424C48.9656 62.4798 48.8312 62.3408 48.6715 62.2347C48.5121 62.1287 48.3311 62.0579 48.1413 62.0268C46.4124 61.739 44.1471 61.0643 42.0234 60.2849C39.8984 59.505 37.9371 58.6281 36.8121 57.9433ZM45.2941 65.6165C44.9821 66.108 44.6839 66.4897 44.4361 66.6877C44.3182 66.7155 44.13 66.7238 43.8685 66.7015C43.5839 66.6773 43.238 66.6195 42.8495 66.5336C42.0731 66.3619 41.1453 66.0822 40.2327 65.7533C39.3202 65.4244 38.4297 65.0488 37.7273 64.6873C37.3758 64.5064 37.0758 64.3312 36.8452 64.1696C36.6347 64.0222 36.5008 63.8987 36.4319 63.8055C36.3813 63.5043 36.414 63.035 36.5136 62.4724C36.6009 61.9791 36.7353 61.4367 36.8897 60.9149C39.8163 62.3383 42.8956 63.4492 46.0726 64.2279C45.8308 64.7061 45.5631 65.1926 45.2941 65.6165Z" fill="#303838" stroke="#303838" stroke-width="0.5"/>
<path d="M54.073 13.9004C52.4355 13.6765 50.9113 13.6891 49.7119 14.0296L30.6751 51.6949L30.6739 51.6983C30.6052 51.8879 30.5355 52.0795 30.4652 52.2728C29.5192 54.8746 28.4567 57.7966 27.9912 60.6406C27.4909 63.6976 27.6719 66.7117 29.4672 69.1656C29.7029 69.4877 30.0952 69.8253 30.5857 70.166C31.0803 70.5094 31.691 70.8673 32.3792 71.2263C33.7559 71.9446 35.457 72.6754 37.19 73.313C38.923 73.9506 40.694 74.4972 42.2114 74.8454C42.97 75.0194 43.669 75.1448 44.2704 75.2065C44.8671 75.2678 45.3865 75.2686 45.7768 75.1814L45.7785 75.181C48.7686 74.4914 50.9107 72.3372 52.569 69.7057C54.1038 67.27 55.2446 64.3915 56.2641 61.8189C56.3453 61.614 56.4257 61.4111 56.5055 61.2105L56.5055 61.2105L56.5069 61.2069L64.9276 39.0366C65.2589 39.1597 65.5935 39.2925 65.9168 39.4322L65.919 39.4331C66.0827 39.5019 66.2585 39.5383 66.4362 39.5401C66.614 39.542 66.7904 39.5093 66.9555 39.4439C67.1206 39.3785 67.2713 39.2816 67.3988 39.1585C67.5264 39.0355 67.6282 38.8887 67.6985 38.7264C67.7687 38.5641 67.8059 38.3897 67.8078 38.213C67.8097 38.0364 67.7763 37.8611 67.7095 37.6974C67.6427 37.5337 67.544 37.3848 67.4191 37.2591C67.2942 37.1334 67.1456 37.0333 66.9819 36.9645L66.9355 36.945H66.9251C66.6523 36.829 66.3829 36.7193 66.1229 36.6135C66.0378 36.5789 65.9537 36.5446 65.8708 36.5107L66.4267 35.0418C67.0208 33.4839 67.7704 30.7234 68.0918 27.9229C68.2526 26.5219 68.3071 25.1033 68.1786 23.8157C68.0504 22.531 67.738 21.357 67.1493 20.4615L67.1493 20.4614C66.469 19.4273 65.3258 18.4309 63.9405 17.54C62.5518 16.6468 60.9039 15.8495 59.1961 15.2195C57.4882 14.5896 55.7145 14.1249 54.073 13.9004ZM64.8716 21.9365L64.8725 21.9378C65.2013 22.4306 65.4037 23.204 65.4874 24.1755C65.5705 25.14 65.5341 26.2697 65.4096 27.4501C65.1604 29.8121 64.5614 32.3467 63.8891 34.1165L63.295 35.676C62.6007 35.4909 61.8863 35.3883 61.1671 35.3707C60.4065 34.013 58.4713 31.7316 53.6483 29.9284L53.6474 29.9281C48.9375 28.1881 45.9917 28.5919 44.4811 29.1076C43.8949 28.674 43.2605 28.308 42.5902 28.0167L43.1555 26.4691C43.8309 24.6939 45.0654 22.3945 46.4412 20.4506C47.1289 19.4789 47.8476 18.6022 48.5444 17.9264C49.2463 17.2457 49.9043 16.7903 50.4689 16.6273C51.3151 16.3858 52.5116 16.3963 53.8841 16.6119C55.2505 16.8265 56.7662 17.2402 58.2369 17.7829C59.7077 18.3256 61.1269 18.9948 62.3014 19.7171C63.4816 20.4429 64.3923 21.2087 64.8716 21.9365ZM58.7778 36.6477L55.7158 41.5129C54.0557 40.3398 52.2481 39.3836 50.3381 38.6685L50.3356 38.6675C48.4195 37.9736 46.4217 37.5242 44.3907 37.3302L45.3195 31.6908C46.2382 31.3831 48.5997 30.9491 52.6991 32.4648C56.7924 33.9782 58.2969 35.8323 58.7778 36.6477ZM57.2087 44.1934L57.21 44.1913L61.0861 38.0277C61.5012 38.046 61.913 38.1078 62.3145 38.2121L53.9651 60.251C53.9648 60.2517 53.9646 60.2523 53.9643 60.2529C53.8483 60.5444 53.7307 60.8432 53.6109 61.1474C52.766 63.2932 51.8131 65.713 50.5833 67.792C49.1766 70.1701 47.4406 72.0439 45.1516 72.5714C44.9478 72.618 44.6023 72.6136 44.1246 72.5488C43.655 72.485 43.0843 72.367 42.4453 72.2058C41.1678 71.8836 39.6342 71.3932 38.1225 70.8361C36.6108 70.279 35.1269 69.6574 33.9483 69.0742C33.3588 68.7824 32.8495 68.5022 32.4529 68.2463C32.0492 67.9859 31.7863 67.7658 31.6643 67.5992C30.3081 65.7442 30.2541 63.188 30.778 60.4671C31.2446 58.0434 32.1578 55.5445 32.9474 53.3841C33.0419 53.1254 33.1347 52.8716 33.2247 52.6233C33.2249 52.6228 33.2251 52.6222 33.2253 52.6216L41.611 30.5307C41.978 30.7005 42.3306 30.899 42.6654 31.1243L41.4735 38.3697C41.4735 38.37 41.4735 38.3702 41.4734 38.3705C41.4406 38.5645 41.4513 38.7632 41.5049 38.9526C41.5585 39.1422 41.6536 39.3177 41.7833 39.4666C41.913 39.6155 42.0741 39.7343 42.255 39.8147C42.4344 39.8945 42.6291 39.9348 42.8257 39.9328C47.3464 40.0388 51.6983 41.6447 55.1774 44.4901C55.3245 44.6154 55.4971 44.7079 55.6833 44.7616C55.8703 44.8155 56.0669 44.829 56.2597 44.8011C56.4524 44.7733 56.637 44.7047 56.8008 44.5999C56.9646 44.4951 57.1038 44.3566 57.2087 44.1934Z" fill="#303838" stroke="#303838" stroke-width="0.5"/>
<path d="M68 39.75C67.6595 39.75 67.339 39.9005 67.1071 40.1582C66.876 40.415 66.75 40.7581 66.75 41.1111V73.8889C66.75 74.2419 66.876 74.585 67.1071 74.8418C67.339 75.0995 67.6595 75.25 68 75.25C68.3405 75.25 68.661 75.0995 68.8929 74.8418C69.124 74.585 69.25 74.2419 69.25 73.8889V41.1111C69.25 40.7581 69.124 40.415 68.8929 40.1582C68.661 39.9005 68.3405 39.75 68 39.75Z" fill="#303838" stroke="#303838" stroke-width="0.5"/>
<path d="M69 11.75C68.655 11.75 68.3335 11.9102 68.1031 12.179C67.8737 12.4466 67.75 12.8023 67.75 13.1667V17.8333C67.75 18.1977 67.8737 18.5534 68.1031 18.821C68.3335 19.0898 68.655 19.25 69 19.25C69.345 19.25 69.6665 19.0898 69.8969 18.821C70.1263 18.5534 70.25 18.1977 70.25 17.8333V13.1667C70.25 12.8023 70.1263 12.4466 69.8969 12.179C69.6665 11.9102 69.345 11.75 69 11.75Z" fill="#303838" stroke="#303838" stroke-width="0.5"/>
<path d="M19 58.75C18.655 58.75 18.3335 58.9102 18.1031 59.179C17.8737 59.4466 17.75 59.8023 17.75 60.1667V64.8333C17.75 65.1977 17.8737 65.5534 18.1031 65.821C18.3335 66.0898 18.655 66.25 19 66.25C19.345 66.25 19.6665 66.0898 19.8969 65.821C20.1263 65.5534 20.25 65.1977 20.25 64.8333V60.1667C20.25 59.8023 20.1263 59.4466 19.8969 59.179C19.6665 58.9102 19.345 58.75 19 58.75Z" fill="#303838" stroke="#303838" stroke-width="0.5"/>
<path d="M19 67.75C18.655 67.75 18.3335 67.9102 18.1031 68.179C17.8737 68.4466 17.75 68.8023 17.75 69.1667V73.8333C17.75 74.1977 17.8737 74.5534 18.1031 74.821C18.3335 75.0898 18.655 75.25 19 75.25C19.345 75.25 19.6665 75.0898 19.8969 74.821C20.1263 74.5534 20.25 74.1977 20.25 73.8333V69.1667C20.25 68.8023 20.1263 68.4466 19.8969 68.179C19.6665 67.9102 19.345 67.75 19 67.75Z" fill="#303838" stroke="#303838" stroke-width="0.5"/>
<path d="M19 49.75C18.6685 49.75 18.3505 49.8817 18.1161 50.1161C17.8817 50.3505 17.75 50.6685 17.75 51V55C17.75 55.3315 17.8817 55.6495 18.1161 55.8839C18.3505 56.1183 18.6685 56.25 19 56.25C19.3315 56.25 19.6495 56.1183 19.8839 55.8839C20.1183 55.6495 20.25 55.3315 20.25 55V51C20.25 50.6685 20.1183 50.3505 19.8839 50.1161C19.6495 49.8817 19.3315 49.75 19 49.75Z" fill="#303838" stroke="#303838" stroke-width="0.5"/>
<path d="M19 12.75C18.6685 12.75 18.3505 12.8817 18.1161 13.1161C17.8817 13.3505 17.75 13.6685 17.75 14V18C17.75 18.3315 17.8817 18.6495 18.1161 18.8839C18.3505 19.1183 18.6685 19.25 19 19.25C19.3315 19.25 19.6495 19.1183 19.8839 18.8839C20.1183 18.6495 20.25 18.3315 20.25 18V14C20.25 13.6685 20.1183 13.3505 19.8839 13.1161C19.6495 12.8817 19.3315 12.75 19 12.75Z" fill="#303838" stroke="#303838" stroke-width="0.5"/>
<path d="M19 21.75C18.6685 21.75 18.3505 21.8817 18.1161 22.1161C17.8817 22.3505 17.75 22.6685 17.75 23V27C17.75 27.3315 17.8817 27.6495 18.1161 27.8839C18.3505 28.1183 18.6685 28.25 19 28.25C19.3315 28.25 19.6495 28.1183 19.8839 27.8839C20.1183 27.6495 20.25 27.3315 20.25 27V23C20.25 22.6685 20.1183 22.3505 19.8839 22.1161C19.6495 21.8817 19.3315 21.75 19 21.75Z" fill="#303838" stroke="#303838" stroke-width="0.5"/>
<path d="M19 39.75C18.655 39.75 18.3335 39.9102 18.1031 40.179C17.8737 40.4466 17.75 40.8023 17.75 41.1667V45.8333C17.75 46.1977 17.8737 46.5534 18.1031 46.821C18.3335 47.0898 18.655 47.25 19 47.25C19.345 47.25 19.6665 47.0898 19.8969 46.821C20.1263 46.5534 20.25 46.1977 20.25 45.8333V41.1667C20.25 40.8023 20.1263 40.4466 19.8969 40.179C19.6665 39.9102 19.345 39.75 19 39.75Z" fill="#303838" stroke="#303838" stroke-width="0.5"/>
<path d="M19 30.75C18.655 30.75 18.3335 30.9102 18.1031 31.179C17.8737 31.4466 17.75 31.8023 17.75 32.1667V36.8333C17.75 37.1977 17.8737 37.5534 18.1031 37.821C18.3335 38.0898 18.655 38.25 19 38.25C19.345 38.25 19.6665 38.0898 19.8969 37.821C20.1263 37.5534 20.25 37.1977 20.25 36.8333V32.1667C20.25 31.8023 20.1263 31.4466 19.8969 31.179C19.6665 30.9102 19.345 30.75 19 30.75Z" fill="#303838" stroke="#303838" stroke-width="0.5"/>
</svg>
