<svg width="100" height="77" viewBox="0 0 100 77" fill="none" xmlns="http://www.w3.org/2000/svg">
<path d="M34.4978 44.2273L34.4974 44.2264C34.4961 44.2231 34.4948 44.2199 34.4936 44.2169C34.4878 44.2026 34.4828 44.1904 34.4772 44.1777L34.4764 44.1757L34.4764 44.1757L29.6493 32.5906C29.6493 32.5906 29.6493 32.5906 29.6493 32.5906C29.4071 32.0097 28.8398 31.6313 28.2101 31.6313C27.5804 31.6313 27.0131 32.0097 26.7709 32.5906C26.7709 32.5906 26.7709 32.5906 26.7709 32.5906L21.9439 44.1757L21.943 44.1777L21.943 44.1777C21.9362 44.1931 21.9299 44.2085 21.9231 44.2256L21.9225 44.2273L21.9224 44.2273L18.474 52.5036C18.1428 53.2987 18.5182 54.2115 19.3131 54.5427L19.3133 54.5428C20.1093 54.8762 21.0208 54.4973 21.3522 53.7036L34.4978 44.2273ZM34.4978 44.2273L37.9462 52.5038C38.2775 53.2987 37.9021 54.2117 37.1071 54.5429L37.107 54.5429C36.9103 54.6252 36.7071 54.664 36.5079 54.664C35.897 54.664 35.317 54.3021 35.0681 53.7038L35.068 53.7038L32.0361 46.4276L32.0105 46.366H31.9438H24.4763H24.4096L24.3839 46.4276L21.3522 53.7036L34.4978 44.2273ZM25.7669 43.1087L25.7092 43.2472H25.8592H30.561H30.711L30.6533 43.1087L28.3024 37.4669L28.2101 37.2453L28.1178 37.4669L25.7669 43.1087Z" fill="#618E81" stroke="white" stroke-width="0.2"/>
<path d="M43.2449 24.9913H43.1449H6.63768C3.03289 24.9913 0.1 27.9242 0.1 31.529V56.4203C0.1 60.0251 3.03289 62.958 6.63768 62.958H11.6159H11.7159V63.058V74.6739C11.7159 75.3043 12.096 75.8731 12.6784 76.1145C12.6784 76.1145 12.6784 76.1145 12.6784 76.1145L12.6401 76.2069C12.8459 76.292 13.0615 76.3333 13.2754 76.3333C13.7073 76.3333 14.131 76.1647 14.4486 75.8471L43.2449 24.9913ZM43.2449 24.9913V24.8913V6.63768C43.2449 3.03289 46.1778 0.1 49.7826 0.1H92.9275C96.5323 0.1 99.4652 3.03289 99.4652 6.63768V31.529C99.4652 35.1338 96.5323 38.0667 92.9275 38.0667H87.9493H87.8493V38.1667V49.7826C87.8493 50.413 87.4693 50.9818 86.8868 51.2232L43.2449 24.9913ZM14.8348 70.6679V70.9093L15.0055 70.7386L25.4482 60.296C25.7406 60.0036 26.1374 59.8391 26.5507 59.8391H49.7826C51.6682 59.8391 53.2014 58.3059 53.2014 56.4203V36.5072V31.529C53.2014 29.6434 51.6682 28.1101 49.7826 28.1101H44.8043H6.63768C4.75211 28.1101 3.21884 29.6434 3.21884 31.529V56.4203C3.21884 58.3059 4.75211 59.8391 6.63768 59.8391H13.2754C14.1365 59.8391 14.8348 60.5374 14.8348 61.3985V70.6679ZM84.5597 45.8473L84.7304 46.018V45.7766V36.5072C84.7304 35.6461 85.4287 34.9478 86.2899 34.9478H92.9275C94.8131 34.9478 96.3464 33.4146 96.3464 31.529V6.63768C96.3464 4.75211 94.8131 3.21884 92.9275 3.21884H49.7826C47.897 3.21884 46.3638 4.75211 46.3638 6.63768V24.8913V24.9913H46.4638H49.7826C53.3874 24.9913 56.3203 27.9242 56.3203 31.529V34.8478V34.9478H56.4203H73.0145C73.4279 34.9478 73.8246 35.1123 74.117 35.4046L84.5597 45.8473Z" fill="#618E81" stroke="white" stroke-width="0.2"/>
<path d="M72.9145 9.95947V10.0595H73.0145H79.6522C80.5133 10.0595 81.2116 10.7578 81.2116 11.6189C81.2116 12.48 80.5133 13.1783 79.6522 13.1783H78.0093H77.9145L77.9095 13.2731C77.7886 15.5734 77.0463 19.621 73.733 23.3669L73.6605 23.4487L73.7485 23.5136C75.3924 24.7258 77.4695 25.8416 80.1456 26.7337C80.9626 27.0063 81.4042 27.8895 81.1316 28.7065L81.1316 28.7065C80.9139 29.3598 80.3056 29.7733 79.6522 29.7733C79.4894 29.7733 79.3227 29.7475 79.1589 29.6926L79.1587 29.6925C75.8924 28.6038 73.3737 27.1997 71.4169 25.6587L71.3551 25.6099L71.2932 25.6587C69.3364 27.1997 66.8177 28.6038 63.5514 29.6925L63.5512 29.6926C63.3874 29.7475 63.2208 29.7733 63.058 29.7733C62.4046 29.7733 61.7962 29.3596 61.5785 28.7065L61.5785 28.7065C61.306 27.8895 61.7476 27.0063 62.5646 26.7337C65.2364 25.8431 67.3133 24.7241 68.9549 23.5058L69.0424 23.4409L68.9702 23.3593C65.6627 19.6156 64.9214 15.5717 64.8007 13.2731L64.7957 13.1783H64.7008H63.058C62.1969 13.1783 61.4985 12.48 61.4985 11.6189C61.4985 10.7578 62.1969 10.0595 63.058 10.0595H69.6956H69.7956V9.95947V8.30005C69.7956 7.43894 70.494 6.74063 71.3551 6.74063C72.2162 6.74063 72.9145 7.43894 72.9145 8.30005V9.95947ZM71.2688 21.2818L71.3436 21.3658L71.4182 21.2817C74.1119 18.2469 74.7062 15.0687 74.8066 13.2839L74.8125 13.1783H74.7068H67.9941H67.889L67.8942 13.2832C67.9826 15.0759 68.5689 18.2494 71.2688 21.2818Z" fill="#618E81" stroke="white" stroke-width="0.2"/>
</svg>
