<svg width="100" height="77" viewBox="0 0 100 77" fill="none" xmlns="http://www.w3.org/2000/svg">
<path d="M44 25.5V5L49 1.5H94L97.5 6L97 36H94H87V50L84 47.5L73 36H54V29L51.5 25.5H44Z" fill="#EEEEEE"/>
<path d="M2 60V30.5L4.5 27H9.5H52.5L54.5 29.5V58L52.5 61.5H26.5L12.5 75V61.5L2 60Z" fill="#C0D6E3"/>
<path d="M34.5901 44.1888C34.583 44.1712 34.5763 44.1545 34.5687 44.1372L29.7416 32.5521C29.4839 31.934 28.8802 31.5312 28.2101 31.5312C27.5401 31.5312 26.9364 31.934 26.6787 32.5521L21.8516 44.1372C21.8439 44.1545 21.8371 44.1712 21.8302 44.1888L18.3817 52.4652C18.0293 53.3111 18.4287 54.2826 19.2747 54.635C20.1221 54.99 21.0921 54.5864 21.4445 53.7421L24.4763 46.466H31.9438L34.9758 53.7423C35.2408 54.3791 35.8581 54.764 36.5079 54.764C36.7201 54.764 36.9365 54.7226 37.1456 54.6352C37.9916 54.2827 38.391 53.3111 38.0386 52.4653L34.5901 44.1888ZM25.8592 43.1472L28.2101 37.5053L30.561 43.1472H25.8592Z" fill="#303838"/>
<path d="M92.9275 0H49.7826C46.1226 0 43.1449 2.97766 43.1449 6.63768V24.8913H6.63768C2.97766 24.8913 0 27.869 0 31.529V56.4203C0 60.0803 2.97766 63.058 6.63768 63.058H11.6159V74.6739C11.6159 75.3448 12.0203 75.95 12.6401 76.2069C12.8459 76.292 13.0615 76.3333 13.2754 76.3333C13.7073 76.3333 14.131 76.1647 14.4486 75.8471L27.2379 63.058H49.7826C53.4426 63.058 56.4203 60.0803 56.4203 56.4203V38.1667H72.3273L85.1165 50.9558C85.4343 51.2734 85.8579 51.442 86.2899 51.442C86.5038 51.442 86.7193 51.4007 86.9251 51.3156C87.5449 51.0587 87.9493 50.4535 87.9493 49.7826V38.1667H92.9275C96.5876 38.1667 99.5652 35.189 99.5652 31.529V6.63768C99.5652 2.97766 96.5876 0 92.9275 0ZM53.1014 56.4203C53.1014 58.2506 51.6129 59.7391 49.7826 59.7391H26.5507C26.1108 59.7391 25.6887 59.9142 25.3775 60.2253L14.9348 70.6679V61.3985C14.9348 60.4822 14.1917 59.7391 13.2754 59.7391H6.63768C4.80734 59.7391 3.31884 58.2506 3.31884 56.4203V31.529C3.31884 29.6986 4.80734 28.2101 6.63768 28.2101H44.8043H49.7826C51.6129 28.2101 53.1014 29.6986 53.1014 31.529V36.5072V56.4203ZM96.2464 31.529C96.2464 33.3593 94.7579 34.8478 92.9275 34.8478H86.2899C85.3735 34.8478 84.6304 35.5909 84.6304 36.5072V45.7766L74.1877 35.3339C73.8766 35.0229 73.4544 34.8478 73.0145 34.8478H56.4203V31.529C56.4203 27.869 53.4426 24.8913 49.7826 24.8913H46.4638V6.63768C46.4638 4.80734 47.9523 3.31884 49.7826 3.31884H92.9275C94.7579 3.31884 96.2464 4.80734 96.2464 6.63768V31.529Z" fill="#303838"/>
<path d="M79.6522 13.2783C80.5685 13.2783 81.3116 12.5352 81.3116 11.6189C81.3116 10.7026 80.5685 9.95947 79.6522 9.95947H73.0145V8.30005C73.0145 7.38371 72.2714 6.64062 71.3551 6.64062C70.4387 6.64062 69.6956 7.38371 69.6956 8.30005V9.95947H63.058C62.1416 9.95947 61.3985 10.7026 61.3985 11.6189C61.3985 12.5352 62.1416 13.2783 63.058 13.2783H64.7008C64.8223 15.5914 65.5682 19.6596 68.8953 23.4255C67.2628 24.637 65.1955 25.7513 62.5329 26.6388C61.6636 26.9289 61.1936 27.8688 61.4837 28.7381C61.7153 29.4333 62.3628 29.8733 63.058 29.8733C63.2314 29.8733 63.4088 29.8458 63.583 29.7874C66.8594 28.6953 69.3885 27.286 71.3551 25.7372C73.3216 27.286 75.8508 28.6953 79.1271 29.7874C79.3014 29.8458 79.4788 29.8733 79.6522 29.8733C80.3473 29.8733 80.9948 29.4334 81.2265 28.7381C81.5165 27.8688 81.0466 26.9289 80.1772 26.6388C77.5103 25.7498 75.4427 24.6387 73.8079 23.4331C77.1408 19.6651 77.8877 15.593 78.0093 13.2783H79.6522ZM71.3434 21.2153C68.663 18.2046 68.0817 15.0554 67.9941 13.2783H74.7068C74.6072 15.0479 74.0179 18.2021 71.3434 21.2153Z" fill="#303838"/>
</svg>
