<svg width="91" height="88" viewBox="0 0 91 88" fill="none" xmlns="http://www.w3.org/2000/svg">
<path d="M2 32H26L27 36.5L46 37L64 36.5L64.5 32H90V69C90 75.0751 85.0751 80 79 80H11C6.02944 80 2 75.9706 2 71V32Z" fill="#EEEEEE"/>
<path d="M69 63.5H18.5L16.5 61V57.5H18.5L26.5 35.5H64L71 56H73V62.5L69 63.5Z" fill="#618E81"/>
<path d="M60 64L30.0502 63.0017L31 72.5H28L27 76L23.5 78.5V86H69V81.5L66.5 77.5L63.5 76V71.5H60V64Z" fill="#C4C4C4"/>
<path d="M27 36.0017L17.5 58.0017C16.8334 56.8351 14.5 52.702 10.5 45.502C6.50002 38.302 7.83335 27.1686 9.00002 22.502L14.5 21.502L15.5 23.002C15.5 22.6686 16.5 20.4018 20.5 14.002C25.5 6.00212 30 3.00179 47.5 1.00179C61.5 -0.598211 72 14.3351 75.5 22.0018H81.5C82 21.8351 83.1 23.9018 83.5 33.5018C83.9 43.1018 77 53.8351 73.5 58.0017L64.5 37.5017C65.3334 28.1684 62.5 10.2017 44.5 13.0017C26.5 15.8017 25.3334 29.5017 27 36.0017Z" fill="#C4C4C4"/>
<path d="M89.7361 31.3312H84.1876C84.1161 28.272 83.692 25.2312 82.9237 22.2692C82.7764 21.7329 82.4562 21.2602 82.0129 20.9243C81.5696 20.5884 81.028 20.4081 80.4718 20.4112H75.4794C73.0894 14.3895 68.9459 9.22434 63.5859 5.58503C58.226 1.94571 51.8966 0 45.4178 0C38.9391 0 32.6097 1.94571 27.2497 5.58503C21.8898 9.22434 17.7463 14.3895 15.3562 20.4112H10.4144C9.85447 20.406 9.3086 20.5868 8.86253 20.9254C8.41645 21.264 8.09544 21.7411 7.94986 22.2818C7.18167 25.2396 6.75756 28.2762 6.68597 31.3312H1.26389C0.928685 31.3312 0.60721 31.4644 0.370185 31.7014C0.13316 31.9385 0 32.2599 0 32.5951V70.0694C0.00334503 72.9579 1.15225 75.727 3.19468 77.7695C5.23712 79.8119 8.00629 80.9608 10.8947 80.9642H21.2839C21.2431 81.2531 21.222 81.5444 21.2207 81.8362V84.6042C21.224 85.2489 21.4825 85.8661 21.9396 86.3208C22.3967 86.7756 23.0152 87.0308 23.66 87.0308H67.34C67.9847 87.0308 68.6033 86.7756 69.0604 86.3208C69.5175 85.8661 69.776 85.2489 69.7793 84.6042V81.8615C69.799 81.5712 69.799 81.2798 69.7793 80.9894H80.1685C83.0503 80.9694 85.8071 79.8097 87.8366 77.7636C89.8661 75.7175 91.0034 72.9514 91 70.0694V32.5951C91 32.2599 90.8668 31.9385 90.6298 31.7014C90.3928 31.4644 90.0713 31.3312 89.7361 31.3312ZM77.3121 26.9456C77.2833 26.6991 77.2411 26.4544 77.1857 26.2125C77.1857 25.9724 77.0972 25.7322 77.0214 25.4289C76.9455 25.1256 76.9455 25.0371 76.895 24.8601L76.6675 23.9249C76.5664 23.5963 76.4779 23.2676 76.3768 22.939H80.4465C81.2709 26.0146 81.6957 29.1835 81.7104 32.3676V32.6078C81.6504 40.7579 78.8503 48.6508 73.7605 55.0165L72.9137 56.0782H72.5851L71.119 51.9958C71.3971 51.6293 71.6498 51.2501 71.9153 50.871L72.4208 50.1632C72.7747 49.6324 73.1033 49.0762 73.4193 48.5328C73.5457 48.3053 73.6847 48.1031 73.8111 47.8756C74.1397 47.2815 74.4304 46.6117 74.7211 46.0429C74.8096 45.866 74.9107 45.689 74.9865 45.4994C75.3025 44.8043 75.5805 44.0839 75.846 43.3761L75.9724 43.0349C76.5651 41.3401 77.0133 39.5981 77.3121 37.8276C77.3121 37.7644 77.3121 37.7013 77.3121 37.6381C77.4385 36.8376 77.5396 36.0287 77.6154 35.2114C77.6154 34.7437 77.6154 34.2761 77.6154 33.7958C77.6154 33.3156 77.6154 33.0501 77.6154 32.6583V32.355C77.6154 32.0896 77.6154 31.8242 77.6154 31.5587C77.6154 31.2933 77.6154 30.9142 77.6154 30.5982V30.535C77.6154 30.0674 77.6154 29.5997 77.5143 29.1321C77.4132 28.6644 77.4258 28.3485 77.3753 27.9819C77.3256 27.6406 77.3255 27.6406 77.275 27.2994C77.35 27.1731 77.3373 27.0972 77.3121 26.9456ZM61.9305 75.3904H29.0694V73.4567H61.9305V75.3904ZM58.8467 70.9289H32.1154V65.0897H58.8846L58.8467 70.9289ZM60.1105 62.5619H20.4876C19.901 62.5619 19.3384 62.3289 18.9237 61.9141C18.5089 61.4993 18.2758 60.9368 18.2758 60.3501V58.6944C18.2748 58.6648 18.2811 58.6354 18.2944 58.6089C18.3076 58.5824 18.3273 58.5597 18.3517 58.5428H18.4149V58.4796H72.4208H72.4967C72.5386 58.5199 72.5654 58.5735 72.5725 58.6313V60.249C72.5725 60.5406 72.5149 60.8292 72.4029 61.0984C72.291 61.3676 72.1269 61.6119 71.9202 61.8175C71.7135 62.023 71.4681 62.1857 71.1983 62.2961C70.9285 62.4065 70.6396 62.4625 70.3481 62.4608L60.1105 62.5619ZM27.1736 32.3424C27.1736 27.502 29.0964 22.8599 32.5191 19.4373C35.9417 16.0146 40.5838 14.0918 45.4242 14.0918C50.2645 14.0918 54.9066 16.0146 58.3293 19.4373C61.7519 22.8599 63.6747 27.502 63.6747 32.3424C63.6758 33.2221 63.6125 34.1008 63.4851 34.9712H27.3506C27.2275 34.1004 27.1683 33.2218 27.1736 32.3424ZM22.3329 52.1728L24.9871 44.6906L27.0725 38.8008L27.5275 37.5369H63.2955L65.8233 44.7032L68.4775 52.1981L69.7414 55.7622L69.8298 56.0024H20.9806L22.3329 52.2107V52.1728ZM67.3653 37.5496L66.8092 39.8246L65.7222 36.7281C66.0469 35.2887 66.2122 33.8179 66.2151 32.3424C66.2229 29.423 65.6155 26.5347 64.4323 23.8657C63.2491 21.1968 61.5168 18.8072 59.3482 16.8526C57.1797 14.898 54.6236 13.4223 51.8465 12.5218C49.0695 11.6212 46.1338 11.3159 43.2309 11.6259C40.328 11.9358 37.523 12.854 34.9987 14.3206C32.4744 15.7872 30.2875 17.7693 28.5805 20.1377C26.8735 22.506 25.6847 25.2076 25.0917 28.0661C24.4987 30.9247 24.5147 33.8761 25.1387 36.7281L24.0139 39.8246L23.4704 37.5496C23.0571 35.849 22.8492 34.1051 22.8511 32.355C22.9905 26.4657 25.428 20.8646 29.6425 16.7486C33.857 12.6327 39.5143 10.3285 45.4052 10.3285C51.2961 10.3285 56.9534 12.6327 61.1679 16.7486C65.3824 20.8646 67.8199 26.4657 67.9593 32.355C67.9695 34.104 67.7701 35.848 67.3653 37.5496ZM45.4242 2.52722C52.5206 2.53736 59.3815 5.07405 64.7777 9.6828C70.1738 14.2915 73.7526 20.6712 74.8728 27.6786C74.8657 27.7838 74.8657 27.8894 74.8728 27.9946C74.9992 28.9046 75.1003 29.8272 75.1508 30.7625V30.8889C75.1508 31.3692 75.1508 31.8368 75.1508 32.3171C75.1508 32.494 75.1508 32.6583 75.1508 32.8226C75.1508 33.5178 75.1508 34.2003 75.0497 34.8701C75.0497 35.1608 75.0497 35.4515 74.9486 35.7422C74.8981 36.2225 74.8349 36.7028 74.759 37.1831C74.759 37.5369 74.6326 37.8908 74.5694 38.2321C74.5062 38.5733 74.4051 39.0536 74.304 39.496C74.2029 39.9383 74.1144 40.2543 74.0007 40.6208C73.8869 40.9874 73.7858 41.3539 73.6594 41.7204C73.533 42.0869 73.4067 42.4914 73.2676 42.8706C73.1286 43.2497 72.9896 43.5531 72.8505 43.8943C72.7115 44.2356 72.5346 44.6526 72.3576 45.0192C72.1807 45.3857 72.029 45.6764 71.8647 45.9924C71.7004 46.3083 71.4855 46.7381 71.2833 47.1046L70.7019 48.0525C70.4744 48.4064 70.2722 48.7603 70.0321 49.1015L68.2879 44.1724L69.754 38.1562C70.2132 36.2568 70.4423 34.3091 70.4365 32.355C70.4455 28.8085 69.7024 25.3004 68.2563 22.0621C66.8102 18.8238 64.694 15.9289 62.0472 13.5683C59.4005 11.2078 56.2833 9.43516 52.9013 8.36747C49.5193 7.29977 45.9494 6.96125 42.427 7.37422C38.9047 7.78719 35.5099 8.94226 32.4666 10.7633C29.4233 12.5843 26.8006 15.0298 24.7716 17.9386C22.7426 20.8473 21.3534 24.1532 20.6956 27.6382C20.0377 31.1232 20.1263 34.708 20.9553 38.1562L22.4214 44.1724L20.6772 49.1015C20.475 48.7856 20.2728 48.4696 20.0832 48.141C19.8936 47.8124 19.6408 47.4585 19.4386 47.1046C19.2364 46.7507 19.0594 46.3968 18.8825 46.0429C18.7056 45.689 18.5286 45.3731 18.3643 45.0192C18.2 44.6653 18.0357 44.2987 17.884 43.9322C17.7324 43.5657 17.5933 43.2244 17.4543 42.8579C17.3153 42.4914 17.1889 42.1249 17.0625 41.7583C16.9361 41.3918 16.8224 41 16.7212 40.6082C16.6201 40.2164 16.519 39.9004 16.4306 39.5339C16.3421 39.1674 16.241 38.6871 16.1525 38.27C16.064 37.8529 16.0135 37.6001 15.9629 37.2589C15.9124 36.9176 15.8239 36.2604 15.7607 35.7549C15.7607 35.4894 15.6975 35.224 15.6722 34.9586C15.6722 34.2382 15.5837 33.5051 15.5711 32.7721C15.5711 32.6457 15.5711 32.5193 15.5711 32.3803C15.5711 32.2413 15.5711 31.9885 15.5711 31.7862C15.5711 31.584 15.5711 31.0911 15.5711 30.7246C15.5711 29.8272 15.7101 28.9299 15.8492 28.0451V27.7292C16.9619 20.691 20.5543 14.2826 25.9778 9.66096C31.4014 5.03936 38.2986 2.50917 45.4242 2.52722ZM9.15055 32.355C9.15234 29.1742 9.57737 26.0077 10.4144 22.939H14.4589C14.3578 23.2676 14.2693 23.6089 14.1682 23.9501L13.9407 24.8475C13.9407 25.0371 13.8522 25.2267 13.8017 25.4921C13.7511 25.7575 13.7006 25.9344 13.65 26.2251C13.5994 26.5158 13.5615 26.6928 13.5236 26.9203C13.4857 27.1478 13.5236 27.1731 13.5236 27.2994C13.5236 27.4258 13.5236 27.5269 13.5236 27.6281C13.5175 27.7417 13.5175 27.8556 13.5236 27.9693C13.5236 28.3485 13.4225 28.7276 13.3719 29.1447C13.3214 29.5618 13.2961 30.0674 13.2708 30.5224V31.6978C13.2708 31.9126 13.2708 32.1149 13.2708 32.3297C13.2642 32.4349 13.2642 32.5405 13.2708 32.6457C13.2708 32.9617 13.2708 33.265 13.2708 33.5683C13.2708 34.1244 13.2708 34.6679 13.3467 35.2114C13.4225 35.7549 13.4983 36.3994 13.5742 36.9935C13.5742 37.2715 13.6374 37.5496 13.6879 37.8276C13.8283 38.7087 14.0139 39.5819 14.244 40.4439V40.5956C14.4589 41.4044 14.699 42.2007 14.9771 42.9969L15.1793 43.5025C15.4194 44.1597 15.6722 44.7664 15.9503 45.4615C16.0514 45.6764 16.1651 45.8913 16.2789 46.1188C16.5443 46.7001 16.8224 47.2689 17.1383 47.8376C17.2774 48.0778 17.429 48.3179 17.5681 48.5707C17.8714 49.0889 18.1874 49.6071 18.5286 50.1253C18.6929 50.3781 18.8825 50.6308 19.0721 50.8962C19.2617 51.1617 19.565 51.6167 19.8304 51.9706L18.4022 55.9897H18.1874H18.0862L17.2394 54.9281C16.6075 54.1444 15.9756 53.3229 15.4447 52.4888C11.4813 46.5789 9.34101 39.635 9.28958 32.5193L9.15055 32.355ZM2.52778 70.0694V33.859H6.64806C6.64806 34.2256 6.64805 34.5794 6.73653 34.9333C6.825 35.2872 6.79972 35.8939 6.85028 36.3742C6.90083 36.8544 6.98931 37.5243 7.07778 38.0931C7.16625 38.6618 7.21681 39.041 7.30528 39.5086C7.39375 39.9762 7.54542 40.6461 7.68444 41.2149C7.82347 41.7836 7.88667 42.1375 8.01305 42.5925C8.13944 43.0475 8.3543 43.7174 8.53125 44.2735C8.70819 44.8296 8.8093 45.1582 8.97361 45.5374C9.13792 45.9165 9.41597 46.6622 9.64347 47.2183C9.87097 47.7744 9.98472 48.0525 10.1617 48.4822C10.3386 48.9119 10.7304 49.6197 11.0211 50.1758C11.3118 50.7319 11.3876 50.9342 11.5899 51.3007C11.9437 51.9074 12.3229 52.5646 12.7021 53.0954C12.879 53.3987 13.056 53.7021 13.2456 53.9928C13.8396 54.8649 14.5094 55.7243 15.1287 56.5205L15.9756 57.5696C15.9301 57.6764 15.8921 57.7862 15.8618 57.8982C15.8618 57.8982 15.8618 58.0119 15.8618 58.0751C15.8151 58.2653 15.7938 58.4608 15.7986 58.6565V60.2743C15.7986 61.5313 16.298 62.7369 17.1868 63.6257C18.0756 64.5145 19.2812 65.0139 20.5382 65.0139H29.6382V70.8531H27.8056C27.4703 70.8531 27.1489 70.9862 26.9118 71.2232C26.6748 71.4603 26.5417 71.7817 26.5417 72.1169V75.5042H26.3647C26.043 75.5759 25.7263 75.6687 25.4168 75.7822L25.164 75.8833C24.802 76.0361 24.4551 76.2223 24.1276 76.4394L23.9507 76.5658C23.6768 76.7642 23.419 76.984 23.1797 77.2231C23.1797 77.2989 23.0407 77.3621 22.9775 77.4253C22.7056 77.7189 22.4603 78.0361 22.2444 78.3732H10.8947C8.68758 78.37 6.57085 77.4961 5.00426 75.9413C3.43767 74.3865 2.54775 72.2765 2.52778 70.0694ZM67.2515 84.5283H23.7485V81.8615C23.7458 81.3028 23.8666 80.7504 24.1024 80.2438C24.424 79.536 24.9464 78.9383 25.6048 78.5249C26.2631 78.1115 27.0284 77.9005 27.8056 77.9182H63.3082C63.4972 77.8983 63.6879 77.8983 63.8769 77.9182C64.5311 78.0128 65.1508 78.2709 65.6788 78.6686C66.2068 79.0662 66.626 79.5906 66.8976 80.1932C67.1334 80.6998 67.2542 81.2522 67.2515 81.811V84.5283ZM88.4722 70.0694C88.4689 72.2875 87.5863 74.4137 86.0179 75.9821C84.4495 77.5505 82.3233 78.433 80.1053 78.4364H68.8061C68.5903 78.0993 68.345 77.7821 68.073 77.4885L67.8835 77.3115C67.6349 77.0564 67.3642 76.8237 67.0746 76.6164L66.9861 76.5153C66.6334 76.2852 66.2612 76.0864 65.8739 75.9212H65.798C65.4167 75.771 65.0235 75.6526 64.6226 75.5674H64.4583V72.1928C64.4583 71.8576 64.3252 71.5361 64.0881 71.2991C63.8511 71.062 63.5296 70.9289 63.1944 70.9289H61.4124V65.0897H70.3481C71.6062 65.0897 72.8131 64.5908 73.7039 63.7023C74.5948 62.8138 75.0969 61.6083 75.1003 60.3501V58.6944C75.1196 58.5011 75.1196 58.3064 75.1003 58.1131C75.1003 58.1131 75.1003 57.9993 75.0371 57.9361C74.9739 57.8729 75.0371 57.7086 74.936 57.6075L75.7701 56.5458C76.44 55.7243 77.034 54.8649 77.6533 54.0181C77.8429 53.7274 78.0198 53.424 78.2094 53.1207C78.5886 52.5267 78.9678 51.9326 79.309 51.326C79.5112 50.9594 79.6882 50.5803 79.8778 50.2137C80.1685 49.645 80.4718 49.0889 80.7372 48.5075C81.0026 47.9261 81.0785 47.686 81.2554 47.2436C81.4324 46.8013 81.723 46.1188 81.9379 45.5374C82.1528 44.956 82.216 44.6779 82.355 44.2735C82.494 43.869 82.7342 43.136 82.8858 42.5546C83.0375 41.9732 83.1133 41.6572 83.2144 41.2022C83.3155 40.7472 83.4925 40.0521 83.5936 39.4707C83.6947 38.8893 83.7453 38.5481 83.8211 38.0804C83.8969 37.6128 83.998 36.9303 84.0486 36.3363C84.0992 35.7422 84.1371 35.3883 84.1623 34.9207C84.1876 34.4531 84.2382 34.2003 84.2508 33.8338H88.4722V70.0694Z" fill="#303838"/>
<path d="M82.1527 60.553V70.07C82.1494 70.612 81.9326 71.1309 81.5493 71.5142C81.1661 71.8974 80.6472 72.1142 80.1052 72.1175C79.77 72.1175 79.4485 72.2507 79.2115 72.4877C78.9745 72.7247 78.8413 73.0462 78.8413 73.3814C78.8413 73.7166 78.9745 74.0381 79.2115 74.2751C79.4485 74.5122 79.77 74.6453 80.1052 74.6453C81.3176 74.642 82.4794 74.1589 83.3367 73.3016C84.194 72.4442 84.6771 71.2824 84.6805 70.07V60.553C84.6805 60.2177 84.5473 59.8963 84.3103 59.6592C84.0733 59.4222 83.7518 59.2891 83.4166 59.2891C83.0814 59.2891 82.7599 59.4222 82.5229 59.6592C82.2859 59.8963 82.1527 60.2177 82.1527 60.553Z" fill="#303838"/>
<path d="M74.9485 72.1406H73.8363C73.5011 72.1406 73.1796 72.2738 72.9426 72.5108C72.7055 72.7478 72.5724 73.0693 72.5724 73.4045C72.5724 73.7397 72.7055 74.0612 72.9426 74.2982C73.1796 74.5352 73.5011 74.6684 73.8363 74.6684H74.9485C75.2837 74.6684 75.6052 74.5352 75.8422 74.2982C76.0792 74.0612 76.2124 73.7397 76.2124 73.4045C76.2124 73.0693 76.0792 72.7478 75.8422 72.5108C75.6052 72.2738 75.2837 72.1406 74.9485 72.1406Z" fill="#303838"/>
</svg>
