<svg width="84" height="67" viewBox="0 0 84 67" fill="none" xmlns="http://www.w3.org/2000/svg">
<path d="M34.5026 66.6347H34.5024H3.78083H3.78059C2.97706 66.634 2.20666 66.3144 1.63848 65.7463C1.0703 65.1781 0.750764 64.4077 0.75 63.6042L0.75 63.6039L0.75 32.8824C0.75 32.0786 1.06932 31.3077 1.63771 30.7393C2.2061 30.1709 2.977 29.8516 3.78083 29.8516H3.7813L20.4976 29.8833C20.4977 29.8833 20.4977 29.8833 20.4978 29.8833L20.4981 29.8833L20.4976 30.1333C20.7434 30.1333 20.9792 30.231 21.153 30.4048C21.3269 30.5787 21.4245 30.8144 21.4245 31.0603C21.4245 31.3061 21.3269 31.5419 21.153 31.7157C20.9792 31.8896 20.7434 31.9872 20.4976 31.9872L34.5026 66.6347ZM34.5026 66.6347C35.3056 66.634 36.0756 66.3148 36.6437 65.7473C37.2118 65.1797 37.5317 64.4101 37.5332 63.607V63.6069L37.565 36.36V36.3598M34.5026 66.6347L37.565 36.3598M37.565 36.3598C37.565 36.0476 37.441 35.7482 37.2202 35.5275C36.9995 35.3068 36.7002 35.1828 36.388 35.1828C36.0759 35.1828 35.7765 35.3068 35.5558 35.5275C35.3352 35.7482 35.2112 36.0474 35.2111 36.3595L37.565 36.3598ZM34.9803 64.0818C34.8533 64.2088 34.6812 64.2803 34.5016 64.2809L35.2111 36.3598L35.1793 63.6032C35.1788 63.7828 35.1072 63.9548 34.9803 64.0818Z" fill="#618E81" stroke="#618E81" stroke-width="0.5"/>
<path d="M33.7393 29.5886C33.9226 29.5887 34.1033 29.5461 34.2672 29.4641L52.806 20.1947L52.8061 20.1947C53.0015 20.0969 53.1658 19.9467 53.2807 19.7608C53.3955 19.5749 53.4564 19.3607 53.4564 19.1422C53.4564 18.9237 53.3955 18.7095 53.2807 18.5236C53.1658 18.3377 53.0015 18.1874 52.8061 18.0897L52.806 18.0896L34.2675 8.82037C34.2675 8.82034 34.2674 8.82031 34.2673 8.82028C34.0879 8.73025 33.8884 8.68763 33.6878 8.69645C33.4872 8.70527 33.2922 8.76529 33.1213 8.87078C32.9504 8.97628 32.8094 9.12375 32.7116 9.29915C32.6138 9.47456 32.5625 9.67207 32.5626 9.87275V28.4116C32.5626 28.7238 32.6866 29.0231 32.9073 29.2438C33.128 29.4645 33.4272 29.5885 33.7393 29.5886ZM33.7393 29.5886L33.7396 29.3386V29.5886C33.7395 29.5886 33.7394 29.5886 33.7393 29.5886ZM34.9165 11.7763L49.6457 19.1421L34.9165 26.5055V11.7763Z" fill="#618E81" stroke="#618E81" stroke-width="0.5"/>
<path d="M60.7858 49.3034L60.786 49.3031C60.8985 49.1761 61.037 49.0749 61.1922 49.0064C61.3473 48.938 61.5154 48.9038 61.685 48.9064C61.8546 48.9089 62.0216 48.9481 62.1746 49.0212C62.3277 49.0943 62.4631 49.1996 62.5716 49.3299C62.5716 49.3299 62.5716 49.3299 62.5716 49.33L67.9743 55.8132L67.9744 55.8133C68.1742 56.0532 68.2705 56.3626 68.2421 56.6735C68.2137 56.9844 68.063 57.2713 67.8231 57.471C67.5832 57.6708 67.2738 57.7671 66.9629 57.7387C66.652 57.7103 66.3652 57.5597 66.1654 57.3198C66.1654 57.3198 66.1654 57.3198 66.1653 57.3197L61.6405 51.892L49.272 65.9087L49.2719 65.9087C49.1616 66.0337 49.0259 66.1337 48.8739 66.2022L48.7712 65.9742L48.8739 66.2022C48.7219 66.2706 48.5571 66.3059 48.3904 66.3058M60.7858 49.3034L48.3906 66.0558M60.7858 49.3034L47.5096 64.3487L60.7858 49.3034ZM48.3904 66.3058L48.3906 66.0558M48.3904 66.3058C48.3904 66.3058 48.3905 66.3058 48.3906 66.3058L48.3906 66.0558M48.3904 66.3058C48.1638 66.3057 47.942 66.2402 47.7517 66.1171C47.5614 65.9941 47.4106 65.8186 47.3176 65.6119C47.2245 65.4052 47.1932 65.1761 47.2272 64.952C47.2613 64.7279 47.3593 64.5185 47.5095 64.3488L47.5093 64.349L47.6968 64.5144C47.5784 64.648 47.5012 64.813 47.4744 64.9895C47.4476 65.166 47.4723 65.3465 47.5456 65.5093C47.6188 65.6721 47.7376 65.8103 47.8875 65.9072C48.0374 66.0041 48.2121 66.0557 48.3906 66.0558" fill="#618E81" stroke="#618E81" stroke-width="0.5"/>
<path d="M59.259 66.6648H59.2592L81.1236 50.693C81.2163 50.8166 81.3325 50.9207 81.4654 50.9995C81.5984 51.0782 81.7456 51.13 81.8986 51.1518C82.0516 51.1737 82.2074 51.1652 82.3571 51.1269C82.5069 51.0885 82.6476 51.021 82.7712 50.9283C82.8949 50.8356 82.999 50.7194 83.0778 50.5864C83.1565 50.4534 83.2083 50.3062 83.2302 50.1532C83.252 50.0002 83.2435 49.8444 83.2052 49.6946C83.1668 49.5449 83.0993 49.4042 83.0066 49.2806L83.0066 49.2805L78.74 43.5944L78.7398 43.5941C78.6345 43.4542 78.4993 43.3396 78.3442 43.2586C78.189 43.1776 78.0177 43.1322 77.8428 43.1258C77.6679 43.1194 77.4937 43.152 77.333 43.2214C77.1723 43.2908 77.0291 43.3951 76.9138 43.5268L76.9138 43.5269L58.3749 64.7141L58.3746 64.7145C58.2263 64.8846 58.1301 65.0938 58.0973 65.3171C58.0645 65.5404 58.0967 65.7684 58.1899 65.9739C58.2831 66.1795 58.4334 66.3539 58.623 66.4764C58.8125 66.5989 59.0333 66.6643 59.259 66.6648ZM77.728 46.1723L81.1235 50.6929L59.9588 66.097L60.1469 66.2616L60.147 66.2615C60.1472 66.2614 60.1473 66.2612 60.1475 66.261L77.728 46.1723Z" fill="#618E81" stroke="#618E81" stroke-width="0.5"/>
<path d="M80.2107 66.666C80.6093 66.6668 81.0042 66.5889 81.3727 66.437C81.7412 66.2851 82.0762 66.062 82.3584 65.7806C82.6407 65.4991 82.8647 65.1648 83.0177 64.7967C83.1707 64.4286 83.2496 64.034 83.25 63.6354V63.6352V32.9136V32.9134C83.2492 32.1099 82.9297 31.3395 82.3615 30.7713C81.7933 30.2031 81.0229 29.8836 80.2194 29.8828H80.2192H63.5342C63.222 29.8828 62.9227 30.0068 62.702 30.2275C62.4812 30.4483 62.3572 30.7476 62.3572 31.0598C62.3572 31.3719 62.4812 31.6713 62.702 31.892C62.9227 32.1127 63.222 32.2367 63.5342 32.2367H80.2192C80.3987 32.2367 80.5709 32.308 80.6978 32.435C80.8248 32.5619 80.8961 32.7341 80.8961 32.9136V63.6352C80.8961 63.8147 80.8248 63.9869 80.6978 64.1138C80.5709 64.2408 80.3987 64.3121 80.2192 64.3121H49.4976C49.3181 64.3121 49.1459 64.2408 49.019 64.1138C48.892 63.9869 48.8207 63.8147 48.8207 63.6352V36.3566C48.8207 36.0444 48.6967 35.7451 48.476 35.5243C48.2552 35.3036 47.9559 35.1796 47.6437 35.1796C47.3316 35.1796 47.0322 35.3036 46.8115 35.5243C46.5908 35.7451 46.4668 36.0444 46.4668 36.3566L46.4668 63.6352L46.4668 63.6354C46.4676 64.4374 46.7859 65.2065 47.3522 65.7745C47.9185 66.3424 48.6867 66.6629 49.4887 66.666H49.4897H80.2107ZM80.2107 66.666L80.2112 66.416M80.2107 66.666H80.2112V66.416M80.2112 66.416H49.4897L46.7168 36.3566C46.7168 36.1107 46.8145 35.875 46.9883 35.7011C47.1621 35.5273 47.3979 35.4296 47.6437 35.4296C47.8896 35.4296 48.1254 35.5273 48.2992 35.7011C48.473 35.875 48.5707 36.1107 48.5707 36.3566V63.6352C48.5707 63.881 48.6683 64.1168 48.8422 64.2906C49.016 64.4645 49.2518 64.5621 49.4976 64.5621H80.2192C80.465 64.5621 80.7008 64.4645 80.8746 64.2906C81.0484 64.1168 81.1461 63.881 81.1461 63.6352V32.9136C81.1461 32.6678 81.0484 32.432 80.8746 32.2582C80.7008 32.0844 80.465 31.9867 80.2192 31.9867H63.5342C63.2883 31.9867 63.0526 31.889 62.8787 31.7152C62.7049 31.5414 62.6072 31.3056 62.6072 31.0598C62.6072 30.8139 62.7049 30.5781 62.8787 30.4043C63.0526 30.2305 63.2883 30.1328 63.5342 30.1328H80.2192C80.9565 30.1335 81.6634 30.4267 82.1847 30.9481C82.7061 31.4694 82.9993 32.1763 83 32.9136V63.6352C82.9996 64.0009 82.9272 64.363 82.7868 64.7008C82.6465 65.0385 82.4409 65.3453 82.1819 65.6035C81.9229 65.8618 81.6156 66.0665 81.2774 66.2059C80.9393 66.3453 80.577 66.4167 80.2112 66.416Z" fill="#618E81" stroke="#618E81" stroke-width="0.5"/>
<path d="M68.169 48.1272H68.1692C69.5345 48.1258 70.8433 47.5828 71.8087 46.6174C72.7741 45.6521 73.317 44.3432 73.3185 42.978V42.9777C73.3185 41.9592 73.0165 40.9636 72.4507 40.1167C71.8848 39.2699 71.0806 38.6099 70.1396 38.2201C69.1987 37.8304 68.1633 37.7284 67.1643 37.9271C66.1654 38.1258 65.2479 38.6162 64.5277 39.3364C63.8075 40.0566 63.3171 40.9741 63.1184 41.9731C62.9197 42.972 63.0216 44.0074 63.4114 44.9483C63.8012 45.8893 64.4612 46.6935 65.308 47.2594C66.1549 47.8252 67.1505 48.1272 68.169 48.1272ZM66.6158 40.6532C67.0755 40.346 67.6159 40.1821 68.1688 40.182C68.9101 40.1827 69.6208 40.4774 70.145 41.0016C70.6692 41.5258 70.964 42.2366 70.9646 42.9779C70.9646 43.5308 70.8006 44.0712 70.4935 44.5309C70.1863 44.9906 69.7497 45.3489 69.2388 45.5605C68.728 45.7721 68.1659 45.8275 67.6236 45.7196C67.0813 45.6118 66.5831 45.3455 66.1921 44.9545C65.8012 44.5635 65.5349 44.0654 65.427 43.5231C65.3191 42.9808 65.3745 42.4187 65.5861 41.9078C65.7977 41.397 66.156 40.9604 66.6158 40.6532Z" fill="#618E81" stroke="#618E81" stroke-width="0.5"/>
<path d="M15.2007 48.1273H31.0912C31.4033 48.1273 31.7027 48.0033 31.9234 47.7826C32.1441 47.5619 32.2681 47.2625 32.2681 46.9504C32.2681 46.6382 32.1441 46.3389 31.9234 46.1182C31.7027 45.8974 31.4033 45.7734 31.0912 45.7734H15.2007C14.8886 45.7734 14.5892 45.8974 14.3685 46.1182C14.1478 46.3389 14.0238 46.6382 14.0238 46.9504C14.0238 47.2625 14.1478 47.5619 14.3685 47.7826C14.5892 48.0033 14.8886 48.1273 15.2007 48.1273Z" fill="#618E81" stroke="#618E81" stroke-width="0.5"/>
<path d="M11.2282 61.3694H11.2284C12.5937 61.3679 13.9025 60.825 14.8679 59.8596C15.8333 58.8942 16.3763 57.5854 16.3777 56.2201V56.2199C16.3777 55.2014 16.0757 54.2058 15.5099 53.3589C14.944 52.5121 14.1398 51.8521 13.1988 51.4623C12.2579 51.0725 11.2225 50.9706 10.2235 51.1693C9.22463 51.368 8.30706 51.8584 7.58689 52.5786C6.86671 53.2988 6.37626 54.2163 6.17756 55.2152C5.97887 56.2142 6.08084 57.2496 6.4706 58.1905C6.86036 59.1315 7.52039 59.9357 8.36723 60.5016C9.21407 61.0674 10.2097 61.3694 11.2282 61.3694ZM9.67498 53.8954C10.1347 53.5882 10.6751 53.4242 11.228 53.4242C11.9693 53.4248 12.68 53.7196 13.2042 54.2438C13.7284 54.768 14.0232 55.4788 14.0238 56.2201C14.0238 56.7729 13.8598 57.3134 13.5527 57.7731C13.2455 58.2328 12.8089 58.5911 12.298 58.8027C11.7872 59.0143 11.2251 59.0697 10.6828 58.9618C10.1405 58.8539 9.64232 58.5877 9.25133 58.1967C8.86035 57.8057 8.59409 57.3076 8.48622 56.7653C8.37835 56.223 8.43371 55.6609 8.64531 55.15C8.85691 54.6392 9.21523 54.2026 9.67498 53.8954Z" fill="#618E81" stroke="#618E81" stroke-width="0.5"/>
<path d="M27.1186 61.3694H27.1188C28.484 61.3679 29.7929 60.825 30.7583 59.8596C31.7236 58.8942 32.2666 57.5854 32.2681 56.2201V56.2199C32.2681 55.2014 31.9661 54.2058 31.4002 53.3589C30.8344 52.5121 30.0302 51.8521 29.0892 51.4623C28.1482 51.0725 27.1128 50.9706 26.1139 51.1693C25.115 51.368 24.1974 51.8584 23.4773 52.5786C22.7571 53.2988 22.2666 54.2163 22.0679 55.2152C21.8692 56.2142 21.9712 57.2496 22.361 58.1905C22.7507 59.1315 23.4108 59.9357 24.2576 60.5016C25.1045 61.0674 26.1001 61.3694 27.1186 61.3694ZM25.5654 53.8954C26.025 53.5882 26.5655 53.4242 27.1183 53.4242C27.8597 53.4248 28.5704 53.7196 29.0946 54.2438C29.6188 54.768 29.9136 55.4788 29.9142 56.2201C29.9142 56.7729 29.7502 57.3134 29.4431 57.7731C29.1359 58.2328 28.6993 58.5911 28.1884 58.8027C27.6776 59.0143 27.1154 59.0697 26.5731 58.9618C26.0308 58.8539 25.5327 58.5877 25.1417 58.1967C24.7507 57.8057 24.4845 57.3076 24.3766 56.7653C24.2687 56.223 24.3241 55.6609 24.5357 55.15C24.7473 54.6392 25.1056 54.2026 25.5654 53.8954Z" fill="#618E81" stroke="#618E81" stroke-width="0.5"/>
<path d="M30.259 57.052C30.4797 57.2727 30.7791 57.3967 31.0912 57.3967C31.4034 57.3967 31.7028 57.2727 31.9235 57.052C32.1442 56.8313 32.2682 56.5319 32.2682 56.2197V41.6535C32.2682 41.3414 32.1442 41.042 31.9235 40.8213C31.7028 40.6006 31.4034 40.4766 31.0912 40.4766C30.7791 40.4766 30.4797 40.6006 30.259 40.8213C30.0383 41.042 29.9143 41.3414 29.9143 41.6535V56.2197C29.9143 56.5319 30.0383 56.8313 30.259 57.052Z" fill="#618E81" stroke="#618E81" stroke-width="0.5"/>
<path d="M61.0183 37.5332H61.0185C61.822 37.5324 62.5924 37.2129 63.1606 36.6447C63.7288 36.0765 64.0483 35.3061 64.0491 34.5026V34.5024V3.78083V3.78059C64.0483 2.97706 63.7288 2.20666 63.1606 1.63848C62.5924 1.0703 61.822 0.750764 61.0185 0.75H61.0183L22.3515 0.75L22.3513 0.75C21.5477 0.750764 20.7773 1.0703 20.2092 1.63848C19.641 2.20666 19.3214 2.97706 19.3207 3.78059V3.78083L19.3207 34.5024L19.3207 34.5026C19.3214 35.3061 19.641 36.0765 20.2092 36.6447C20.7773 37.2129 21.5477 37.5324 22.3513 37.5332H22.3515H61.0183ZM21.8728 3.30216C21.9998 3.17521 22.172 3.10389 22.3515 3.10389H61.0183C61.1978 3.10389 61.37 3.17521 61.4969 3.30216C61.6239 3.42911 61.6952 3.60129 61.6952 3.78083V34.5024C61.6952 34.6819 61.6239 34.8541 61.4969 34.981C61.37 35.108 61.1978 35.1793 61.0183 35.1793H22.3515C22.172 35.1793 21.9998 35.108 21.8728 34.981C21.7459 34.8541 21.6746 34.6819 21.6746 34.5024V3.78083C21.6746 3.60129 21.7459 3.42911 21.8728 3.30216Z" fill="#618E81" stroke="#618E81" stroke-width="0.5"/>
<path d="M14.3685 57.052C14.5892 57.2727 14.8886 57.3967 15.2007 57.3967C15.5129 57.3967 15.8122 57.2727 16.033 57.052C16.2537 56.8313 16.3777 56.5319 16.3777 56.2197V42.8304H31.0912C31.4033 42.8304 31.7027 42.7065 31.9234 42.4857C32.1441 42.265 32.2681 41.9656 32.2681 41.6535C32.2681 41.3414 32.1441 41.042 31.9234 40.8213C31.7027 40.6006 31.4033 40.4766 31.0912 40.4766H15.2007C14.8886 40.4766 14.5892 40.6006 14.3685 40.8213C14.1478 41.042 14.0238 41.3414 14.0238 41.6535V56.2197C14.0238 56.5319 14.1478 56.8313 14.3685 57.052Z" fill="#618E81" stroke="#618E81" stroke-width="0.5"/>
</svg>
