<svg width="103" height="62" viewBox="0 0 103 62" fill="none" xmlns="http://www.w3.org/2000/svg">
<mask id="path-1-inside-1_1348_7527" fill="white">
<path fill-rule="evenodd" clip-rule="evenodd" d="M9.61182 0C8.16768 0 7 1.18501 7 2.62926V58.9056C7 60.3499 8.16768 61.5438 9.61182 61.5348H99.6854C101.13 61.5348 102.315 60.3499 102.315 58.9056V2.62926C102.315 1.18501 101.13 0 99.6854 0H9.61182ZM10.0469 3.04722H11.231V58.4704H10.0469V3.04722ZM14.2782 3.04722H53.0726V4.91027H56.1372V3.04722H94.9317V51.4184H90.1259C88.6817 51.4184 87.5141 52.5861 87.5141 54.0302V58.4704H87.4954H56.136V56.0675H53.0716V58.4704H14.277V3.04722H14.2782ZM97.9788 3.04722H99.2673V58.4878H93.086L97.5435 54.0302C97.8288 53.745 97.9785 53.3607 97.9785 52.9506L97.9788 3.04722ZM50.8613 6.39039C50.032 6.39039 49.3639 7.06788 49.3639 7.88784V8.21859C49.3639 9.03877 50.0324 9.7159 50.8613 9.7159H58.366C59.1951 9.7159 59.8634 9.0384 59.8634 8.21859V7.88784C59.8634 7.05872 59.1948 6.39039 58.366 6.39039H50.8613ZM53.0726 11.1962V49.8165H56.1372V11.1962H53.0726ZM20.3028 15.88C19.4558 15.88 18.7616 16.5745 18.7705 17.4123C18.7705 18.2593 19.4649 18.9446 20.3028 18.9446H47.2569C48.095 18.9446 48.7893 18.259 48.7893 17.4123C48.7893 16.5743 48.1036 15.88 47.2569 15.88H20.3028ZM62.4579 15.88C61.6109 15.88 60.9256 16.5745 60.9256 17.4123C60.9256 18.2593 61.62 18.9446 62.4579 18.9446H89.4294C90.2763 18.9446 90.9617 18.259 90.9617 17.4123C90.9617 16.5743 90.2761 15.88 89.4294 15.88H62.4579ZM20.3028 24.116C19.4558 24.116 18.7616 24.8105 18.7705 25.6482C18.7705 26.4863 19.4649 27.1806 20.3028 27.1806H47.2569C48.095 27.1806 48.7893 26.495 48.7893 25.6482C48.7893 24.8102 48.1036 24.116 47.2569 24.116H20.3028ZM62.4579 24.116C61.6109 24.116 60.9256 24.8105 60.9256 25.6482C60.9256 26.4863 61.62 27.1806 62.4579 27.1806H89.4294C90.2763 27.1806 90.9617 26.495 90.9617 25.6482C90.9617 24.8102 90.2761 24.116 89.4294 24.116H62.4579ZM20.3028 32.3521C19.4558 32.3521 18.7616 33.0376 18.7705 33.8843C18.7705 34.7223 19.4649 35.4166 20.3028 35.4166H47.2569C48.095 35.4166 48.7893 34.7221 48.7893 33.8843C48.7893 33.0373 48.1036 32.3521 47.2569 32.3521H20.3028ZM62.4579 32.3521C61.6109 32.3521 60.9256 33.0376 60.9256 33.8843C60.9256 34.7223 61.62 35.4166 62.4579 35.4166H89.4294C90.2763 35.4166 90.9617 34.7221 90.9617 33.8843C90.9617 33.0373 90.2761 32.3521 89.4294 32.3521H62.4579ZM20.3028 41.1104C19.4558 41.1104 18.7616 41.7959 18.7705 42.6426C18.7705 43.4806 19.4649 44.1749 20.3028 44.1749H47.2569C48.095 44.1749 48.7893 43.4804 48.7893 42.6426C48.7893 41.7957 48.1036 41.1104 47.2569 41.1104H20.3028ZM62.4579 41.1104C61.6109 41.1104 60.9256 41.7959 60.9256 42.6426C60.9256 43.4806 61.62 44.1749 62.4579 44.1749H89.4294C90.2763 44.1749 90.9617 43.4804 90.9617 42.6426C90.9617 41.7957 90.2761 41.1104 89.4294 41.1104H62.4579ZM50.8613 51.2791C50.032 51.2791 49.3639 51.9477 49.3639 52.7765V53.1072C49.3639 53.9363 50.0324 54.6048 50.8613 54.6048H58.366C59.1951 54.6048 59.8634 53.9272 59.8634 53.1072V52.7765C59.8634 51.9474 59.1948 51.2791 58.366 51.2791H50.8613ZM90.5437 54.483H92.3893L90.5437 56.3286V54.483Z"/>
</mask>
<path fill-rule="evenodd" clip-rule="evenodd" d="M9.61182 0C8.16768 0 7 1.18501 7 2.62926V58.9056C7 60.3499 8.16768 61.5438 9.61182 61.5348H99.6854C101.13 61.5348 102.315 60.3499 102.315 58.9056V2.62926C102.315 1.18501 101.13 0 99.6854 0H9.61182ZM10.0469 3.04722H11.231V58.4704H10.0469V3.04722ZM14.2782 3.04722H53.0726V4.91027H56.1372V3.04722H94.9317V51.4184H90.1259C88.6817 51.4184 87.5141 52.5861 87.5141 54.0302V58.4704H87.4954H56.136V56.0675H53.0716V58.4704H14.277V3.04722H14.2782ZM97.9788 3.04722H99.2673V58.4878H93.086L97.5435 54.0302C97.8288 53.745 97.9785 53.3607 97.9785 52.9506L97.9788 3.04722ZM50.8613 6.39039C50.032 6.39039 49.3639 7.06788 49.3639 7.88784V8.21859C49.3639 9.03877 50.0324 9.7159 50.8613 9.7159H58.366C59.1951 9.7159 59.8634 9.0384 59.8634 8.21859V7.88784C59.8634 7.05872 59.1948 6.39039 58.366 6.39039H50.8613ZM53.0726 11.1962V49.8165H56.1372V11.1962H53.0726ZM20.3028 15.88C19.4558 15.88 18.7616 16.5745 18.7705 17.4123C18.7705 18.2593 19.4649 18.9446 20.3028 18.9446H47.2569C48.095 18.9446 48.7893 18.259 48.7893 17.4123C48.7893 16.5743 48.1036 15.88 47.2569 15.88H20.3028ZM62.4579 15.88C61.6109 15.88 60.9256 16.5745 60.9256 17.4123C60.9256 18.2593 61.62 18.9446 62.4579 18.9446H89.4294C90.2763 18.9446 90.9617 18.259 90.9617 17.4123C90.9617 16.5743 90.2761 15.88 89.4294 15.88H62.4579ZM20.3028 24.116C19.4558 24.116 18.7616 24.8105 18.7705 25.6482C18.7705 26.4863 19.4649 27.1806 20.3028 27.1806H47.2569C48.095 27.1806 48.7893 26.495 48.7893 25.6482C48.7893 24.8102 48.1036 24.116 47.2569 24.116H20.3028ZM62.4579 24.116C61.6109 24.116 60.9256 24.8105 60.9256 25.6482C60.9256 26.4863 61.62 27.1806 62.4579 27.1806H89.4294C90.2763 27.1806 90.9617 26.495 90.9617 25.6482C90.9617 24.8102 90.2761 24.116 89.4294 24.116H62.4579ZM20.3028 32.3521C19.4558 32.3521 18.7616 33.0376 18.7705 33.8843C18.7705 34.7223 19.4649 35.4166 20.3028 35.4166H47.2569C48.095 35.4166 48.7893 34.7221 48.7893 33.8843C48.7893 33.0373 48.1036 32.3521 47.2569 32.3521H20.3028ZM62.4579 32.3521C61.6109 32.3521 60.9256 33.0376 60.9256 33.8843C60.9256 34.7223 61.62 35.4166 62.4579 35.4166H89.4294C90.2763 35.4166 90.9617 34.7221 90.9617 33.8843C90.9617 33.0373 90.2761 32.3521 89.4294 32.3521H62.4579ZM20.3028 41.1104C19.4558 41.1104 18.7616 41.7959 18.7705 42.6426C18.7705 43.4806 19.4649 44.1749 20.3028 44.1749H47.2569C48.095 44.1749 48.7893 43.4804 48.7893 42.6426C48.7893 41.7957 48.1036 41.1104 47.2569 41.1104H20.3028ZM62.4579 41.1104C61.6109 41.1104 60.9256 41.7959 60.9256 42.6426C60.9256 43.4806 61.62 44.1749 62.4579 44.1749H89.4294C90.2763 44.1749 90.9617 43.4804 90.9617 42.6426C90.9617 41.7957 90.2761 41.1104 89.4294 41.1104H62.4579ZM50.8613 51.2791C50.032 51.2791 49.3639 51.9477 49.3639 52.7765V53.1072C49.3639 53.9363 50.0324 54.6048 50.8613 54.6048H58.366C59.1951 54.6048 59.8634 53.9272 59.8634 53.1072V52.7765C59.8634 51.9474 59.1948 51.2791 58.366 51.2791H50.8613ZM90.5437 54.483H92.3893L90.5437 56.3286V54.483Z" fill="#303838" stroke="white" stroke-width="0.4" mask="url(#path-1-inside-1_1348_7527)"/>
<g style="mix-blend-mode:darken" filter="url(#filter0_f_1348_7527)">
<g style="mix-blend-mode:darken">
<path d="M13 2H97V60H13V2Z" fill="#EEEEEE"/>
</g>
<g style="mix-blend-mode:darken">
<path d="M93.5 54L90 58V53.5L93.5 54Z" fill="#C4C4C4"/>
</g>
<g style="mix-blend-mode:darken">
<path fill-rule="evenodd" clip-rule="evenodd" d="M9 15.5L12.5 18.5V2H9V15.5ZM89.5 60H101V2H96.5V53.5L89.5 60ZM8.5 26V59.5H12.5V30L8.5 26Z" fill="#618E81"/>
</g>
</g>
<path d="M26.5 46.5L2 21V17L7 14L33.5 39.5L35 49L26.5 46.5Z" fill="white"/>
<path d="M27.5 46L1.5 21L2.5 17.5L7 14L33 39L36 48L27.5 46Z" fill="#EFEFEF"/>
<path d="M14 19.5L7 26L5 24.5L11.5 17.5L14 19.5Z" fill="#303838"/>
<path d="M13.5 19.5L7.5 25.5L26.5 45.5L33 40L31.5 38L13.5 19.5Z" fill="#C4C4C4"/>
<path d="M5 24L1 19.5L1.5 18.5L7 14.5L10.5 19.5L5 24Z" fill="#B46D6D"/>
<path d="M4.15486 14.6286L4.15484 14.6286L4.15788 14.6255C5.52523 13.2582 7.81541 13.2582 9.18275 14.6255L33.7909 39.2336C33.8576 39.3004 33.9066 39.3802 33.9379 39.435C33.971 39.4929 34.0028 39.5565 34.0287 39.6083L34.031 39.6128L34.0523 39.6556L34.063 39.7022L35.9313 47.8346C36.0217 48.1358 35.9338 48.5215 35.6365 48.7431C35.5632 48.8123 35.4765 48.877 35.3702 48.9242C35.2493 48.978 35.1237 49 34.9944 49H34.9941H34.9938H34.9935H34.9931H34.9928H34.9925H34.9922H34.9918H34.9915H34.9912H34.9909H34.9906H34.9902H34.9899H34.9896H34.9893H34.9889H34.9886H34.9883H34.988H34.9877H34.9873H34.987H34.9867H34.9864H34.986H34.9857H34.9854H34.9851H34.9848H34.9844H34.9841H34.9838H34.9835H34.9831H34.9828H34.9825H34.9822H34.9819H34.9815H34.9812H34.9809H34.9806H34.9803H34.9799H34.9796H34.9793H34.979H34.9787H34.9783H34.978H34.9777H34.9774H34.9771H34.9767H34.9764H34.9761H34.9758H34.9755H34.9752H34.9748H34.9745H34.9742H34.9739H34.9736H34.9732H34.9729H34.9726H34.9723H34.972H34.9717H34.9713H34.971H34.9707H34.9704H34.9701H34.9698H34.9695H34.9691H34.9688H34.9685H34.9682H34.9679H34.9676H34.9673H34.9669H34.9666H34.9663H34.966H34.9657H34.9654H34.9651H34.9648H34.9644H34.9641H34.9638H34.9635H34.9632H34.9629H34.9626H34.9623H34.962H34.9616H34.9613H34.961H34.9607H34.9604H34.9601H34.9598H34.9595H34.9592H34.9589H34.9586H34.9583H34.9579H34.9576H34.9573H34.957H34.9567H34.9564H34.9561H34.9558H34.9555H34.9552H34.9549H34.9546H34.9543H34.954H34.9537H34.9534H34.9531H34.9528H34.9525H34.9522H34.9519H34.9516H34.9513H34.951H34.9507H34.9504H34.9501H34.9498H34.9495H34.9492H34.9489H34.9486H34.9483H34.948H34.9477H34.9474H34.9471H34.9468H34.9465H34.9462H34.946H34.9457H34.9454H34.9451H34.9448H34.9445H34.9442H34.9439H34.9436H34.9433H34.943H34.9428H34.9425H34.9422H34.9419H34.9416H34.9413H34.941H34.9407H34.9405H34.9402H34.9399H34.9396H34.9393H34.939H34.9388H34.9385H34.9382H34.9379H34.9376H34.9373H34.9371H34.9368H34.9365H34.9362H34.9359H34.9357H34.9354H34.9351H34.9348H34.9346H34.9343H34.934H34.9337H34.9335H34.9332H34.9329H34.9326H34.9324H34.9321H34.9318H34.9316H34.9313H34.931H34.9307H34.9305H34.9302H34.9299H34.9297H34.9294H34.9291H34.9289H34.9286H34.9284H34.9281H34.9278H34.9276H34.9273H34.927H34.9268H34.9265H34.9263H34.926H34.9257H34.9255H34.9252H34.925H34.9247H34.9245H34.9242H34.9239H34.9237H34.9234H34.9232H34.9229H34.9227H34.9224H34.9222H34.9219H34.9217H34.9214H34.9212H34.9209H34.9207H34.9204H34.9202H34.9199H34.9197H34.9195H34.9192H34.919H34.9187H34.9185H34.9182H34.918H34.9178H34.9175H34.9173H34.917H34.9168H34.9166H34.9163H34.9161H34.9159H34.9156H34.9154H34.9152H34.9149H34.9147H34.9145H34.9142H34.914H34.9138H34.9136H34.9133H34.9131H34.9129H34.9127H34.9124H34.9122H34.912H34.9118H34.9115H34.9113H34.9111H34.9109H34.9107H34.9104H34.9102H34.91H34.9098H34.9096H34.9094H34.9092H34.9089H34.9087H34.9085H34.9083H34.9081H34.9079H34.9077H34.9075H34.9073H34.9071H34.9068H34.9066H34.9064H34.9062H34.906H34.9058H34.9056H34.9054H34.9052H34.905H34.9048H34.9046H34.9044H34.9042H34.9041H34.9039H34.9037H34.9035H34.9033H34.9031H34.9029H34.9027H34.9025H34.9023H34.9022H34.902H34.9018H34.9016H34.9014H34.9012H34.901H34.9009H34.9007H34.9005H34.9003H34.9002H34.9H34.8998H34.8996H34.8995H34.8993H34.8991H34.8989H34.8988H34.8986H34.8984H34.8983H34.8981H34.8979H34.8978H34.8976H34.8974H34.8973H34.8971H34.8969H34.8968H34.8966H34.8965H34.8963H34.8962H34.896H34.8958H34.8957H34.8955H34.8954H34.8952H34.8951H34.8949H34.8948H34.8946H34.8945H34.8944H34.8942H34.8941H34.8939H34.8938H34.8936H34.8935H34.8934H34.8932H34.8931H34.893H34.8928H34.8927H34.8925H34.8924H34.8923H34.8922H34.892H34.8919H34.8918H34.8916H34.8915H34.8914H34.8913H34.8911H34.891H34.8909H34.8908H34.8907H34.8906H34.8904H34.8903H34.8902H34.8901H34.89H34.8899H34.8898H34.8897H34.8895H34.8894H34.8893H34.8892H34.8891H34.889H34.8889H34.8888H34.8887H34.8886H34.8885H34.8884H34.8883H34.8882H34.8881H34.888H34.888H34.8879H34.8878H34.8877H34.8876H34.8875H34.8874H34.8873H34.8873H34.8872H34.8871H34.887H34.8869H34.8869H34.8868H34.8867H34.8866H34.8866H34.8865H34.8864H34.8864H34.8863H34.8862H34.8862H34.8861H34.886H34.886H34.8859H34.8858H34.8858H34.8857H34.8857H34.8856H34.8856H34.8855H34.8855H34.8854H34.8853H34.8853H34.8853H34.8852H34.8852H34.8851H34.8851H34.885H34.885H34.8849H34.8849H34.8849H34.8848H34.8848H34.8848H34.8847H34.8847H34.8847H34.8846H34.8846H34.8846H34.8846H34.8845H34.8845H34.8845H34.8845H34.8845H34.8844H34.8844H34.8844H34.8844H34.8844H34.8843H34.8843H34.8387L34.7942 48.9897L26.7364 47.126C26.4886 47.1057 26.3385 46.9527 26.2528 46.8653C26.246 46.8584 26.2396 46.8519 26.2336 46.8459L1.6255 22.2378C0.258621 20.8709 0.258156 18.5818 1.62411 17.2143C1.62457 17.2139 1.62503 17.2134 1.6255 17.2129L4.15486 14.6286ZM2.95199 20.8368L2.95216 20.8366L2.96191 20.8464L4.77103 22.6555L9.65547 17.771L7.90139 16.017C7.23183 15.3474 6.21891 15.3474 5.54934 16.017L3.01697 18.5494L3.00755 18.5588L2.99752 18.5675C2.29668 19.1808 2.2977 20.2261 2.95199 20.8368ZM10.9919 19.1075L6.10744 23.9919L7.0832 24.9676L11.9676 20.0832L10.9919 19.1075ZM8.41961 26.3041L26.5165 44.4009L31.4009 39.5165L13.304 21.4196L8.41961 26.3041ZM28.1357 45.5095L33.7456 46.8006L32.4544 41.1908L28.1357 45.5095Z" fill="#303838" stroke="#303838" stroke-width="0.8"/>
<defs>
<filter id="filter0_f_1348_7527" x="7.5" y="1" width="94.5" height="60" filterUnits="userSpaceOnUse" color-interpolation-filters="sRGB">
<feFlood flood-opacity="0" result="BackgroundImageFix"/>
<feBlend mode="normal" in="SourceGraphic" in2="BackgroundImageFix" result="shape"/>
<feGaussianBlur stdDeviation="0.5" result="effect1_foregroundBlur_1348_7527"/>
</filter>
</defs>
</svg>
