<svg width="67" height="83" viewBox="0 0 67 83" fill="none" xmlns="http://www.w3.org/2000/svg">
<rect x="2" y="2" width="43" height="80" rx="6" fill="#EEEEEE"/>
<path d="M37.5 1H10L11.5 5.5L27 6.5L35.5 5.5L37.5 1Z" fill="#303838"/>
<rect x="24" y="20" width="42" height="43" rx="4" fill="#618E81"/>
<path d="M61.5 63H29.5L30.5 61L32.5 58.5H55L59 60L61.5 63Z" fill="#004D40"/>
<path d="M32.5 38.5H36L37.5 36.5H43.5L48 35L51 38H57L58 40V42L55 43.5L53 46.5L51.5 51L48 52V58H42V53L39 50L35.5 45L34.5 42L32 41.5L32.5 38.5Z" fill="#EEEEEE"/>
<path d="M44.5 38H36V32L39.5 25.5L45 25L50.5 26.5L53.5 31V38H50.5L47.5 35.5L44.5 38Z" fill="#C4C4C4"/>
<path d="M22.0227 77.7237H24.6137C24.9572 77.7237 25.2867 77.5872 25.5297 77.3443C25.7726 77.1013 25.9091 76.7718 25.9091 76.4283C25.9091 76.0847 25.7726 75.7552 25.5297 75.5122C25.2867 75.2693 24.9572 75.1328 24.6137 75.1328H22.0227C21.6792 75.1328 21.3497 75.2693 21.1067 75.5122C20.8638 75.7552 20.7273 76.0847 20.7273 76.4283C20.7273 76.7718 20.8638 77.1013 21.1067 77.3443C21.3497 77.5872 21.6792 77.7237 22.0227 77.7237Z" fill="#303838"/>
<path d="M65.7045 28.5C66.0481 28.5 66.3776 28.3635 66.6206 28.1206C66.8635 27.8776 67 27.5481 67 27.2045V22.0227C67 20.992 66.5905 20.0035 65.8617 19.2747C65.1329 18.5458 64.1444 18.1364 63.1136 18.1364H46.6364V6.47727C46.6343 4.76002 45.9512 3.1137 44.7369 1.89942C43.5227 0.685143 41.8763 0.002057 40.1591 0L6.47727 0C4.76002 0.002057 3.1137 0.685143 1.89942 1.89942C0.685143 3.1137 0.002057 4.76002 0 6.47727V76.4318C0.002057 78.1491 0.685143 79.7954 1.89942 81.0097C3.1137 82.2239 4.76002 82.907 6.47727 82.9091H40.1591C41.8763 82.907 43.5227 82.2239 44.7369 81.0097C45.9512 79.7954 46.6343 78.1491 46.6364 76.4318V64.7727H63.1136C64.1444 64.7727 65.1329 64.3633 65.8617 63.6344C66.5905 62.9056 67 61.9171 67 60.8864V32.3864C67 32.0428 66.8635 31.7133 66.6206 31.4703C66.3776 31.2274 66.0481 31.0909 65.7045 31.0909C65.361 31.0909 65.0315 31.2274 64.7885 31.4703C64.5456 31.7133 64.4091 32.0428 64.4091 32.3864V60.8864C64.4091 61.2299 64.2726 61.5594 64.0297 61.8024C63.7867 62.0453 63.4572 62.1818 63.1136 62.1818H61.6886C61.388 60.7198 60.5924 59.4061 59.4362 58.4622C58.2799 57.5183 56.8335 57.0019 55.3409 57H48.8636V53.6461C50.7754 52.871 52.4127 51.5437 53.5665 49.8336C54.7202 48.1235 55.338 46.1083 55.3409 44.0455C56.3716 44.0455 57.3601 43.636 58.089 42.9072C58.8178 42.1783 59.2273 41.1898 59.2273 40.1591C59.2273 39.1284 58.8178 38.1399 58.089 37.411C57.3601 36.6822 56.3716 36.2727 55.3409 36.2727V33.6818C55.3409 30.9332 54.249 28.2972 52.3055 26.3536C50.3619 24.4101 47.7259 23.3182 44.9773 23.3182C42.2287 23.3182 39.5926 24.4101 37.6491 26.3536C35.7055 28.2972 34.6136 30.9332 34.6136 33.6818V36.2727C33.5829 36.2727 32.5944 36.6822 31.8656 37.411C31.1367 38.1399 30.7273 39.1284 30.7273 40.1591C30.7273 41.1898 31.1367 42.1783 31.8656 42.9072C32.5944 43.636 33.5829 44.0455 34.6136 44.0455C34.6165 46.1083 35.2343 48.1235 36.3881 49.8336C37.5418 51.5437 39.1791 52.871 41.0909 53.6461V57H34.6136C33.121 57.0019 31.6747 57.5183 30.5184 58.4622C29.3621 59.4061 28.5666 60.7198 28.2659 62.1818H26.8409C26.4973 62.1818 26.1678 62.0453 25.9249 61.8024C25.6819 61.5594 25.5455 61.2299 25.5455 60.8864V22.0227C25.5455 21.6791 25.6819 21.3496 25.9249 21.1067C26.1678 20.8638 26.4973 20.7273 26.8409 20.7273H63.1136C63.4572 20.7273 63.7867 20.8638 64.0297 21.1067C64.2726 21.3496 64.4091 21.6791 64.4091 22.0227V27.2045C64.4091 27.5481 64.5456 27.8776 64.7885 28.1206C65.0315 28.3635 65.361 28.5 65.7045 28.5ZM35.4721 2.59091L34.5342 4.46543C34.4274 4.68115 34.2623 4.86262 34.0576 4.98925C33.8529 5.11588 33.6168 5.18259 33.3761 5.18182H13.2603C13.0196 5.18259 12.7835 5.11588 12.5788 4.98925C12.374 4.86262 12.2089 4.68115 12.1021 4.46543L11.1642 2.59091H35.4721ZM56.6364 40.1591C56.6364 40.5027 56.4999 40.8322 56.2569 41.0751C56.014 41.3181 55.6845 41.4545 55.3409 41.4545V38.8636C55.6845 38.8636 56.014 39.0001 56.2569 39.2431C56.4999 39.486 56.6364 39.8155 56.6364 40.1591ZM33.3182 40.1591C33.3182 39.8155 33.4547 39.486 33.6976 39.2431C33.9406 39.0001 34.2701 38.8636 34.6136 38.8636V41.4545C34.2701 41.4545 33.9406 41.3181 33.6976 41.0751C33.4547 40.8322 33.3182 40.5027 33.3182 40.1591ZM37.2045 44.0455V38.8636H43.9033C44.4141 38.8653 44.9201 38.7654 45.392 38.57C45.8639 38.3745 46.2923 38.0873 46.6523 37.7249L48.4841 35.8932C48.72 35.6488 48.8506 35.3216 48.8477 34.9819C48.8447 34.6423 48.7085 34.3174 48.4683 34.0772C48.2281 33.837 47.9032 33.7007 47.5635 33.6978C47.2239 33.6948 46.8966 33.8254 46.6523 34.0614L44.8205 35.8932C44.7001 36.0136 44.5571 36.1091 44.3997 36.1743C44.2423 36.2394 44.0737 36.2729 43.9033 36.2727H37.2045V33.6818C37.2045 31.6204 38.0235 29.6433 39.4811 28.1857C40.9388 26.728 42.9158 25.9091 44.9773 25.9091C47.0387 25.9091 49.0158 26.728 50.4734 28.1857C51.9311 29.6433 52.75 31.6204 52.75 33.6818V36.2727H51.233C51.0479 36.2733 50.8649 36.2335 50.6967 36.1561C50.5419 36.0855 50.3747 36.0461 50.2046 36.0401C50.0346 36.0342 49.865 36.0617 49.7057 36.1213C49.5463 36.1808 49.4002 36.2712 49.2757 36.3872C49.1512 36.5032 49.0508 36.6426 48.9802 36.7974C48.9096 36.9522 48.8702 37.1194 48.8642 37.2894C48.8582 37.4595 48.8858 37.629 48.9454 37.7884C49.0049 37.9478 49.0953 38.0939 49.2113 38.2184C49.3273 38.3429 49.4667 38.4433 49.6215 38.5139C50.1272 38.745 50.6769 38.8644 51.233 38.8636H52.75V44.0455C52.75 46.1069 51.9311 48.0839 50.4734 49.5416C49.0158 50.9993 47.0387 51.8182 44.9773 51.8182C42.9158 51.8182 40.9388 50.9993 39.4811 49.5416C38.0235 48.0839 37.2045 46.1069 37.2045 44.0455ZM43.6818 54.3197C44.5413 54.4389 45.4132 54.4389 46.2727 54.3197V57H43.6818V54.3197ZM34.6136 59.5909H55.3409C56.1444 59.5919 56.928 59.8414 57.5841 60.3053C58.2403 60.7691 58.7368 61.4246 59.0057 62.1818H30.9488C31.2177 61.4246 31.7143 60.7691 32.3704 60.3053C33.0265 59.8414 33.8101 59.5919 34.6136 59.5909ZM22.9545 22.0227V60.8864C22.9545 61.9171 23.364 62.9056 24.0928 63.6344C24.8217 64.3633 25.8102 64.7727 26.8409 64.7727H44.0455V76.4318C44.0455 77.4625 43.636 78.451 42.9072 79.1799C42.1783 79.9087 41.1898 80.3182 40.1591 80.3182H6.47727C5.44654 80.3182 4.45803 79.9087 3.7292 79.1799C3.00036 78.451 2.59091 77.4625 2.59091 76.4318V6.47727C2.59091 5.44654 3.00036 4.45803 3.7292 3.7292C4.45803 3.00036 5.44654 2.59091 6.47727 2.59091H8.26759L9.78457 5.62486C10.1053 6.27189 10.601 6.81608 11.2153 7.19572C11.8297 7.57535 12.5381 7.77525 13.2603 7.77273H33.3761C34.0983 7.77525 34.8067 7.57535 35.421 7.19572C36.0354 6.81608 36.531 6.27189 36.8518 5.62486L38.3688 2.59091H40.1591C41.1898 2.59091 42.1783 3.00036 42.9072 3.7292C43.636 4.45803 44.0455 5.44654 44.0455 6.47727V18.1364H26.8409C25.8102 18.1364 24.8217 18.5458 24.0928 19.2747C23.364 20.0035 22.9545 20.992 22.9545 22.0227Z" fill="#303838"/>
<path d="M48.8636 44.0426C49.2071 44.0426 49.5367 43.9061 49.7796 43.6632C50.0225 43.4202 50.159 43.0907 50.159 42.7472V41.4517C50.159 41.1081 50.0225 40.7786 49.7796 40.5357C49.5367 40.2927 49.2071 40.1562 48.8636 40.1562C48.52 40.1562 48.1905 40.2927 47.9475 40.5357C47.7046 40.7786 47.5681 41.1081 47.5681 41.4517V42.7472C47.5681 43.0907 47.7046 43.4202 47.9475 43.6632C48.1905 43.9061 48.52 44.0426 48.8636 44.0426Z" fill="#303838"/>
<path d="M41.0909 40.1562C40.7473 40.1562 40.4178 40.2927 40.1748 40.5357C39.9319 40.7786 39.7954 41.1081 39.7954 41.4517V42.7472C39.7954 43.0907 39.9319 43.4202 40.1748 43.6632C40.4178 43.9061 40.7473 44.0426 41.0909 44.0426C41.4344 44.0426 41.7639 43.9061 42.0069 43.6632C42.2498 43.4202 42.3863 43.0907 42.3863 42.7472V41.4517C42.3863 41.1081 42.2498 40.7786 42.0069 40.5357C41.7639 40.2927 41.4344 40.1562 41.0909 40.1562Z" fill="#303838"/>
<path d="M30.7274 25.9112H34.6137C34.9573 25.9112 35.2868 25.7747 35.5298 25.5318C35.7727 25.2888 35.9092 24.9593 35.9092 24.6158C35.9092 24.2722 35.7727 23.9427 35.5298 23.6997C35.2868 23.4568 34.9573 23.3203 34.6137 23.3203H29.4319C29.0884 23.3203 28.7588 23.4568 28.5159 23.6997C28.273 23.9427 28.1365 24.2722 28.1365 24.6158V29.7976C28.1365 30.1412 28.273 30.4707 28.5159 30.7136C28.7588 30.9566 29.0884 31.093 29.4319 31.093C29.7755 31.093 30.105 30.9566 30.348 30.7136C30.5909 30.4707 30.7274 30.1412 30.7274 29.7976V25.9112Z" fill="#303838"/>
<path d="M61.8181 24.6158C61.8181 24.2722 61.6817 23.9427 61.4387 23.6997C61.1958 23.4568 60.8663 23.3203 60.5227 23.3203H55.3409C54.9973 23.3203 54.6678 23.4568 54.4248 23.6997C54.1819 23.9427 54.0454 24.2722 54.0454 24.6158C54.0454 24.9593 54.1819 25.2888 54.4248 25.5318C54.6678 25.7747 54.9973 25.9112 55.3409 25.9112H59.2272V29.7976C59.2272 30.1412 59.3637 30.4707 59.6067 30.7136C59.8496 30.9566 60.1791 31.093 60.5227 31.093C60.8663 31.093 61.1958 30.9566 61.4387 30.7136C61.6817 30.4707 61.8181 30.1412 61.8181 29.7976V24.6158Z" fill="#303838"/>
<path d="M29.4319 46.6406C29.0884 46.6406 28.7588 46.7771 28.5159 47.0201C28.273 47.263 28.1365 47.5925 28.1365 47.9361V53.1179C28.1365 53.4615 28.273 53.791 28.5159 54.0339C28.7588 54.2769 29.0884 54.4134 29.4319 54.4134H34.6137C34.9573 54.4134 35.2868 54.2769 35.5298 54.0339C35.7727 53.791 35.9092 53.4615 35.9092 53.1179C35.9092 52.7743 35.7727 52.4448 35.5298 52.2019C35.2868 51.9589 34.9573 51.8224 34.6137 51.8224H30.7274V47.9361C30.7274 47.5925 30.5909 47.263 30.348 47.0201C30.105 46.7771 29.7755 46.6406 29.4319 46.6406Z" fill="#303838"/>
<path d="M60.5227 46.6406C60.1791 46.6406 59.8496 46.7771 59.6067 47.0201C59.3637 47.263 59.2272 47.5925 59.2272 47.9361V51.8224H55.3409C54.9973 51.8224 54.6678 51.9589 54.4248 52.2019C54.1819 52.4448 54.0454 52.7743 54.0454 53.1179C54.0454 53.4615 54.1819 53.791 54.4248 54.0339C54.6678 54.2769 54.9973 54.4134 55.3409 54.4134H60.5227C60.8663 54.4134 61.1958 54.2769 61.4387 54.0339C61.6817 53.791 61.8181 53.4615 61.8181 53.1179V47.9361C61.8181 47.5925 61.6817 47.263 61.4387 47.0201C61.1958 46.7771 60.8663 46.6406 60.5227 46.6406Z" fill="#303838"/>
</svg>
