<svg width="73" height="74" viewBox="0 0 73 74" fill="none" xmlns="http://www.w3.org/2000/svg">
<path d="M71.3599 1.64868C70.8594 1.31602 70.2841 1.11286 69.6857 1.05743C69.0873 1.00201 68.4845 1.09606 67.9314 1.33113L49.1132 9.29908C48.9677 9.36079 48.8115 9.39319 48.6534 9.39444C48.4954 9.3957 48.3386 9.36577 48.1922 9.30638L25.7143 0.265333C25.273 0.0860921 24.8005 -0.00403752 24.3242 0.000138765C23.8479 0.00431505 23.3772 0.102715 22.9391 0.289666L2.23139 9.05818C1.56835 9.33873 1.00291 9.80879 0.605954 10.4094C0.209001 11.01 -0.00178793 11.7145 1.97646e-05 12.4344V68.2989C-0.00196529 68.9022 0.145606 69.4965 0.429534 70.0288C0.713462 70.5611 1.12489 71.0147 1.62703 71.349C2.12916 71.6834 2.70634 71.8881 3.30694 71.9448C3.90753 72.0015 4.51282 71.9084 5.06865 71.6739L23.8868 63.706C24.0323 63.6443 24.1886 63.6119 24.3466 63.6106C24.5047 63.6094 24.6614 63.6393 24.8079 63.6987L47.2858 72.7397C47.7271 72.9189 48.1995 73.009 48.6758 73.0048C49.1521 73.0007 49.6229 72.9023 50.061 72.7154L70.7686 63.9469C71.4317 63.6663 71.9971 63.1963 72.3941 62.5957C72.791 61.995 73.0018 61.2906 73 60.5706V4.70617C73.001 4.10061 72.8517 3.50427 72.5655 2.97064C72.2792 2.43701 71.865 1.98278 71.3599 1.64868ZM4.12087 69.4328C3.93775 69.5127 3.73737 69.5449 3.53845 69.5264C3.33952 69.5079 3.14852 69.4393 2.98329 69.327C2.81288 69.2154 2.67323 69.0627 2.57715 68.8831C2.48107 68.7035 2.43162 68.5026 2.43335 68.2989V12.4344C2.43185 12.1928 2.50185 11.956 2.63456 11.754C2.76727 11.5521 2.95675 11.3938 3.17917 11.2993L23.1167 2.85683V38.0733L19.0652 39.4919C18.7948 39.5873 18.5667 39.7752 18.4213 40.0224C18.276 40.2696 18.2226 40.5602 18.2706 40.8429C18.3186 41.1257 18.4649 41.3823 18.6838 41.5677C18.9026 41.753 19.1799 41.8551 19.4667 41.8559C19.6034 41.8564 19.7393 41.8334 19.8682 41.7877L23.1167 40.6502V61.4101C23.0583 61.432 22.995 61.4406 22.9391 61.4661L4.12087 69.4328ZM25.7167 61.4442C25.662 61.4223 25.6048 61.4138 25.55 61.3955V40.6502L28.7985 41.7877C28.9274 41.8334 29.0633 41.8564 29.2 41.8559C29.4868 41.8551 29.7641 41.753 29.9829 41.5677C30.2018 41.3823 30.3481 41.1257 30.3961 40.8429C30.4441 40.5602 30.3907 40.2696 30.2454 40.0224C30.1 39.7752 29.872 39.5873 29.6015 39.4919L25.55 38.0733V2.82155L47.2833 11.5609C47.3381 11.5828 47.3953 11.5901 47.45 11.6095V45.7383L44.2015 44.6007C43.8999 44.5053 43.573 44.5311 43.2901 44.6727C43.0072 44.8142 42.7906 45.0604 42.6862 45.359C42.5817 45.6576 42.5977 45.9851 42.7307 46.2722C42.8637 46.5592 43.1032 46.7831 43.3985 46.8965L47.45 48.3152V70.1835L25.7167 61.4442ZM70.5667 60.5706C70.5682 60.8123 70.4982 61.049 70.3655 61.251C70.2328 61.453 70.0433 61.6112 69.8209 61.7058L49.8833 70.1482V11.5949C49.9417 11.5743 50.005 11.5645 50.061 11.539L68.8792 3.57223C69.0624 3.49291 69.2627 3.46103 69.4615 3.47953C69.6603 3.49803 69.8513 3.56631 70.0167 3.67808C70.1871 3.78971 70.3268 3.94233 70.4229 4.12196C70.519 4.30159 70.5684 4.50246 70.5667 4.70617V60.5706Z" fill="#618E81"/>
<path d="M66.5601 41.7234C66.3319 41.4953 66.0225 41.3672 65.6999 41.3672C65.3773 41.3672 65.0678 41.4953 64.8397 41.7234L60.8332 45.7299L56.8267 41.7234C56.5973 41.5018 56.2899 41.3792 55.9709 41.3819C55.6519 41.3847 55.3468 41.5126 55.1212 41.7382C54.8956 41.9638 54.7676 42.269 54.7649 42.588C54.7621 42.907 54.8847 43.2143 55.1064 43.4438L57.8962 46.2336H54.7499C54.4272 46.2336 54.1177 46.3618 53.8896 46.5899C53.6614 46.8181 53.5332 47.1276 53.5332 47.4503C53.5332 47.7729 53.6614 48.0824 53.8896 48.3106C54.1177 48.5387 54.4272 48.6669 54.7499 48.6669H57.8962L55.1064 51.4567C54.9901 51.569 54.8975 51.7032 54.8337 51.8517C54.7699 52.0001 54.7364 52.1598 54.735 52.3213C54.7336 52.4829 54.7643 52.6431 54.8255 52.7926C54.8867 52.9421 54.977 53.078 55.0913 53.1922C55.2055 53.3064 55.3414 53.3968 55.4909 53.4579C55.6404 53.5191 55.8006 53.5499 55.9622 53.5485C56.1237 53.5471 56.2834 53.5135 56.4318 53.4498C56.5802 53.386 56.7145 53.2933 56.8267 53.1771L60.8332 49.1706L64.8397 53.1771C65.0692 53.3987 65.3765 53.5214 65.6955 53.5186C66.0145 53.5158 66.3197 53.3879 66.5452 53.1623C66.7708 52.9367 66.8988 52.6316 66.9015 52.3126C66.9043 51.9935 66.7817 51.6862 66.5601 51.4567L62.5536 47.4503L66.5601 43.4438C66.7881 43.2156 66.9163 42.9062 66.9163 42.5836C66.9163 42.261 66.7881 41.9516 66.5601 41.7234Z" fill="#618E81"/>
<path d="M39.3348 42.9006L34.4681 41.1973C34.1665 41.1019 33.8396 41.1277 33.5567 41.2693C33.2738 41.4108 33.0572 41.657 32.9527 41.9556C32.8483 42.2542 32.8643 42.5817 32.9973 42.8688C33.1302 43.1558 33.3698 43.3797 33.6651 43.4931L38.5318 45.1965C38.6607 45.2421 38.7965 45.2651 38.9333 45.2646C39.22 45.2638 39.4973 45.1617 39.7162 44.9764C39.935 44.7911 40.0813 44.5344 40.1294 44.2516C40.1774 43.9689 40.124 43.6783 39.9786 43.4311C39.8332 43.1839 39.6052 42.996 39.3348 42.9006Z" fill="#618E81"/>
<path d="M14.1985 41.196L9.33184 42.8994C9.06054 42.9942 8.83157 43.182 8.6855 43.4295C8.53942 43.677 8.48567 43.9682 8.53376 44.2515C8.58186 44.5349 8.7287 44.792 8.94827 44.9775C9.16783 45.1629 9.44595 45.2646 9.73334 45.2646C9.87009 45.2651 10.0059 45.2421 10.1348 45.1965L15.0015 43.4931C15.2968 43.3797 15.5364 43.1558 15.6693 42.8688C15.8023 42.5817 15.8183 42.2542 15.7138 41.9556C15.6094 41.657 15.3928 41.4108 15.1099 41.2693C14.827 41.1277 14.5001 41.1019 14.1985 41.1973V41.196Z" fill="#618E81"/>
<path d="M13.3833 21.9021V20.6854C13.3833 20.3627 13.2551 20.0533 13.0269 19.8251C12.7988 19.5969 12.4893 19.4688 12.1666 19.4688C11.8439 19.4688 11.5345 19.5969 11.3063 19.8251C11.0781 20.0533 10.95 20.3627 10.95 20.6854V21.9021C10.95 22.2248 11.0781 22.5342 11.3063 22.7624C11.5345 22.9906 11.8439 23.1187 12.1666 23.1187C12.4893 23.1187 12.7988 22.9906 13.0269 22.7624C13.2551 22.5342 13.3833 22.2248 13.3833 21.9021Z" fill="#618E81"/>
<path d="M15.8165 30.4161H14.8735C16.7788 28.0887 19.4665 24.188 19.4665 20.6828C19.4665 18.7467 18.6973 16.8899 17.3283 15.5209C15.9593 14.1519 14.1025 13.3828 12.1665 13.3828C10.2304 13.3828 8.37359 14.1519 7.00458 15.5209C5.63556 16.8899 4.86646 18.7467 4.86646 20.6828C4.86646 24.188 7.55407 28.0887 9.45937 30.4161H8.51645C8.19377 30.4161 7.88431 30.5443 7.65614 30.7725C7.42797 31.0007 7.29979 31.3101 7.29979 31.6328C7.29979 31.9555 7.42797 32.265 7.65614 32.4931C7.88431 32.7213 8.19377 32.8495 8.51645 32.8495H15.8165C16.1391 32.8495 16.4486 32.7213 16.6768 32.4931C16.9049 32.265 17.0331 31.9555 17.0331 31.6328C17.0331 31.3101 16.9049 31.0007 16.6768 30.7725C16.4486 30.5443 16.1391 30.4161 15.8165 30.4161ZM12.1665 15.8161C13.4572 15.8161 14.695 16.3289 15.6077 17.2416C16.5204 18.1542 17.0331 19.3921 17.0331 20.6828C17.0331 23.7245 14.0401 27.7395 12.1665 29.8516C10.2928 27.7395 7.29979 23.7245 7.29979 20.6828C7.29979 19.3921 7.81252 18.1542 8.7252 17.2416C9.63788 16.3289 10.8757 15.8161 12.1665 15.8161Z" fill="#618E81"/>
<path d="M6.08312 35.2891C5.76044 35.2891 5.45098 35.4172 5.22281 35.6454C4.99464 35.8736 4.86646 36.183 4.86646 36.5057V41.3724C4.86646 41.6951 4.99464 42.0045 5.22281 42.2327C5.45098 42.4609 5.76044 42.5891 6.08312 42.5891C6.4058 42.5891 6.71527 42.4609 6.94343 42.2327C7.1716 42.0045 7.29979 41.6951 7.29979 41.3724V36.5057C7.29979 36.183 7.1716 35.8736 6.94343 35.6454C6.71527 35.4172 6.4058 35.2891 6.08312 35.2891Z" fill="#618E81"/>
</svg>
