<svg width="82" height="89" viewBox="0 0 82 89" fill="none" xmlns="http://www.w3.org/2000/svg">
<path d="M73.8741 45.1903L77.0703 39.9C77.1647 39.7437 77.2257 39.5696 77.2495 39.3887C77.2733 39.2077 77.2593 39.0237 77.2086 38.8484C77.1578 38.6731 77.0713 38.5101 76.9545 38.3699C76.8377 38.2296 76.6931 38.115 76.5298 38.0334L69.476 34.5065C69.2923 34.4148 69.0898 34.3671 68.8844 34.3672H54.7769C54.5715 34.3671 54.369 34.4148 54.1853 34.5065L47.1315 38.0334C46.9713 38.1134 46.829 38.2252 46.7132 38.3619C46.5975 38.4986 46.5107 38.6574 46.4582 38.8287C46.4057 38.9999 46.3885 39.1801 46.4077 39.3582C46.4269 39.5362 46.482 39.7086 46.5698 39.8647L49.5456 45.155C49.7051 45.4387 49.9635 45.6536 50.2714 45.7586C50.5793 45.8637 50.9152 45.8516 51.2147 45.7246L53.4543 44.7759V55.092C53.4543 55.4428 53.5937 55.7792 53.8417 56.0272C54.0897 56.2753 54.4261 56.4146 54.7769 56.4146H68.8844C69.2352 56.4146 69.5716 56.2753 69.8196 56.0272C70.0677 55.7792 70.207 55.4428 70.207 55.092V44.8015L72.1917 45.7096C72.487 45.8447 72.8217 45.8664 73.1319 45.7706C73.4421 45.6748 73.7063 45.4683 73.8741 45.1903ZM64.1558 37.0123C63.5144 37.5804 62.6874 37.894 61.8307 37.894C60.9739 37.894 60.1469 37.5804 59.5056 37.0123H64.1558ZM72.2191 42.8141L69.4346 41.54C69.2331 41.4478 69.0116 41.4077 68.7905 41.4235C68.5694 41.4392 68.3558 41.5102 68.1694 41.6301C67.9829 41.7499 67.8296 41.9147 67.7234 42.1092C67.6173 42.3038 67.5617 42.5219 67.5618 42.7435V53.765H56.0995V42.7797C56.0994 42.5613 56.0453 42.3463 55.942 42.154C55.8387 41.9616 55.6893 41.7978 55.5072 41.6772C55.3252 41.5566 55.1161 41.483 54.8986 41.4629C54.6812 41.4428 54.4622 41.4769 54.2611 41.562L51.2721 42.8273L49.5527 39.7783L55.0855 37.0123H56.2564C56.7558 38.0673 57.5444 38.9588 58.5306 39.5831C59.5168 40.2074 60.66 40.5388 61.8271 40.5388C62.9943 40.5388 64.1375 40.2074 65.1237 39.5831C66.1098 38.9588 66.8985 38.0673 67.3978 37.0123H68.5688L74.0645 39.7589L72.2191 42.8141Z" fill="#618E81"/>
<path d="M73.8741 45.1903L77.0703 39.9C77.1647 39.7437 77.2257 39.5696 77.2495 39.3887C77.2733 39.2077 77.2593 39.0237 77.2086 38.8484C77.1578 38.6731 77.0713 38.5101 76.9545 38.3699C76.8377 38.2296 76.6931 38.115 76.5298 38.0334L69.476 34.5065C69.2923 34.4148 69.0898 34.3671 68.8844 34.3672H54.7769C54.5715 34.3671 54.369 34.4148 54.1853 34.5065L47.1315 38.0334C46.9713 38.1134 46.829 38.2252 46.7132 38.3619C46.5975 38.4986 46.5107 38.6574 46.4582 38.8287C46.4057 38.9999 46.3885 39.1801 46.4077 39.3582C46.4269 39.5362 46.482 39.7086 46.5698 39.8647L49.5456 45.155C49.7051 45.4387 49.9635 45.6536 50.2714 45.7586C50.5793 45.8637 50.9152 45.8516 51.2147 45.7246L53.4543 44.7759V55.092C53.4543 55.4428 53.5937 55.7792 53.8417 56.0272C54.0897 56.2753 54.4261 56.4146 54.7769 56.4146H68.8844C69.2352 56.4146 69.5716 56.2753 69.8196 56.0272C70.0677 55.7792 70.207 55.4428 70.207 55.092V44.8015L72.1917 45.7096C72.487 45.8447 72.8217 45.8664 73.1319 45.7706C73.4421 45.6748 73.7063 45.4683 73.8741 45.1903ZM64.1558 37.0123C63.5144 37.5804 62.6874 37.894 61.8307 37.894C60.9739 37.894 60.1469 37.5804 59.5056 37.0123H64.1558ZM72.2191 42.8141L69.4346 41.54C69.2331 41.4478 69.0116 41.4077 68.7905 41.4235C68.5694 41.4392 68.3558 41.5102 68.1694 41.6301C67.9829 41.7499 67.8296 41.9147 67.7234 42.1092C67.6173 42.3038 67.5617 42.5219 67.5618 42.7435V53.765H56.0995V42.7797C56.0994 42.5613 56.0453 42.3463 55.942 42.154C55.8387 41.9616 55.6893 41.7978 55.5072 41.6772C55.3252 41.5566 55.1161 41.483 54.8986 41.4629C54.6812 41.4428 54.4622 41.4769 54.2611 41.562L51.2721 42.8273L49.5527 39.7783L55.0855 37.0123H56.2564C56.7558 38.0673 57.5444 38.9588 58.5306 39.5831C59.5168 40.2074 60.66 40.5388 61.8271 40.5388C62.9943 40.5388 64.1375 40.2074 65.1237 39.5831C66.1098 38.9588 66.8985 38.0673 67.3978 37.0123H68.5688L74.0645 39.7589L72.2191 42.8141Z" stroke="#618E81"/>
<path d="M78.0323 26.4331H63.6117V22.5323C65.5056 22.059 67.2467 21.1089 68.6695 19.7723C70.0922 18.4357 71.1491 16.7572 71.7397 14.8966C72.3302 13.036 72.4347 11.0552 72.0431 9.14275C71.6516 7.23034 70.777 5.44998 69.5027 3.97117C68.2285 2.49237 66.5969 1.36433 64.7634 0.694462C62.9298 0.0245934 60.9553 -0.164811 59.0279 0.144281C57.1004 0.453373 55.2841 1.25067 53.752 2.46027C52.2198 3.66988 51.0228 5.25152 50.2748 7.05462H23.5128C22.2323 7.05602 21.0045 7.56535 20.099 8.47086C19.1935 9.37636 18.6842 10.6041 18.6828 11.8847V16.7341H3.08602C2.26756 16.7341 1.48262 17.0593 0.903875 17.638C0.325133 18.2168 0 19.0017 0 19.8202L0 40.9815C0 41.7999 0.325133 42.5849 0.903875 43.1636C1.48262 43.7423 2.26756 44.0675 3.08602 44.0675H18.6828V83.304C18.6842 84.5845 19.1935 85.8122 20.0991 86.7176C21.0046 87.6229 22.2323 88.1321 23.5128 88.1332H58.7817C60.0622 88.1321 61.2899 87.6229 62.1954 86.7176C63.101 85.8122 63.6103 84.5845 63.6117 83.304V64.347H69.7767C70.1275 64.347 70.4639 64.2077 70.7119 63.9597C70.9599 63.7116 71.0993 63.3752 71.0993 63.0245C71.0993 62.6737 70.9599 62.3373 70.7119 62.0893C70.4639 61.8412 70.1275 61.7019 69.7767 61.7019H45.4086C45.0578 61.7019 44.7214 61.5625 44.4734 61.3145C44.2254 61.0665 44.086 60.7301 44.086 60.3793V30.4008C44.086 30.05 44.2254 29.7136 44.4734 29.4656C44.7214 29.2176 45.0578 29.0782 45.4086 29.0782H78.0323C78.383 29.0782 78.7194 29.2176 78.9675 29.4656C79.2155 29.7136 79.3548 30.05 79.3548 30.4008V60.3793C79.3548 60.7301 79.2155 61.0665 78.9675 61.3145C78.7194 61.5625 78.383 61.7019 78.0323 61.7019H74.4586C74.1079 61.7019 73.7715 61.8412 73.5234 62.0893C73.2754 62.3373 73.1361 62.6737 73.1361 63.0245C73.1361 63.3752 73.2754 63.7116 73.5234 63.9597C73.7715 64.2077 74.1079 64.347 74.4586 64.347H78.0323C79.0842 64.3459 80.0927 63.9275 80.8366 63.1836C81.5804 62.4398 81.9988 61.4313 82 60.3793V30.4008C82 29.3485 81.582 28.3393 80.8379 27.5952C80.0938 26.8511 79.0846 26.4331 78.0323 26.4331ZM61.0054 26.4331H58.3214V22.5976C59.1472 22.787 59.9915 22.8837 60.8387 22.8859C60.8951 22.8859 60.9498 22.878 61.0054 22.8771V26.4331ZM60.8387 2.60634C62.5866 2.60616 64.2954 3.12432 65.7488 4.09529C67.2022 5.06626 68.3351 6.44643 69.0041 8.06125C69.6731 9.67607 69.8483 11.453 69.5074 13.1674C69.1665 14.8818 68.3249 16.4565 67.0889 17.6926C65.853 18.9286 64.2784 19.7704 62.564 20.1114C60.8497 20.4525 59.0727 20.2775 57.4578 19.6087C55.8429 18.9398 54.4627 17.8071 53.4916 16.3538C52.5204 14.9004 52.0021 13.1917 52.0021 11.4438C52.0047 9.10091 52.9365 6.85469 54.5931 5.19792C56.2497 3.54115 58.4958 2.60914 60.8387 2.60634ZM21.2883 11.8847C21.289 11.2949 21.5236 10.7295 21.9406 10.3124C22.3576 9.8954 22.9231 9.6608 23.5128 9.6601H49.5527C49.455 10.2498 49.4037 10.8462 49.3993 11.4438C49.3993 11.748 49.4222 12.0469 49.4451 12.3449H26.158C25.5787 12.3454 25.0232 12.5758 24.6136 12.9854C24.2039 13.395 23.9736 13.9505 23.9731 14.5298V16.7341H21.2883V11.8847ZM2.64516 40.9815V19.8202C2.64516 19.7032 2.69161 19.5911 2.77429 19.5084C2.85696 19.4258 2.9691 19.3793 3.08602 19.3793H34.828C34.9449 19.3793 35.057 19.4258 35.1397 19.5084C35.2224 19.5911 35.2688 19.7032 35.2688 19.8202V40.9815C35.2688 41.0984 35.2224 41.2105 35.1397 41.2932C35.057 41.3759 34.9449 41.4223 34.828 41.4223H32.1828C31.832 41.4223 31.4956 41.5617 31.2476 41.8097C30.9996 42.0577 30.8602 42.3941 30.8602 42.7449V48.2574L20.5538 41.6322C20.3405 41.4951 20.0923 41.4223 19.8387 41.4223H3.08602C2.9691 41.4223 2.85696 41.3759 2.77429 41.2932C2.69161 41.2105 2.64516 41.0984 2.64516 40.9815ZM61.0054 83.304C61.0047 83.8936 60.7701 84.4588 60.3533 84.8757C59.9364 85.2925 59.3712 85.527 58.7817 85.5277H23.5128C22.9232 85.527 22.3579 85.2926 21.9409 84.8757C21.5239 84.4589 21.2892 83.8937 21.2883 83.304V45.249L23.9898 46.9851C23.9806 47.0408 23.9751 47.0971 23.9731 47.1535V69.1965C23.9738 69.7757 24.2042 70.3309 24.6139 70.7404C25.0235 71.1498 25.5788 71.3801 26.158 71.3805H56.1365C56.7157 71.3801 57.271 71.1498 57.6806 70.7404C58.0903 70.3309 58.3207 69.7757 58.3214 69.1965V64.347H61.0054V83.304ZM41.4409 30.4008V60.3793C41.442 61.4313 41.8604 62.4398 42.6043 63.1836C43.3481 63.9275 44.3566 64.3459 45.4086 64.347H55.715V68.7751H26.5786V48.6498L31.4668 51.7922C31.6666 51.9208 31.8973 51.9933 32.1347 52.0019C32.3721 52.0105 32.6075 51.9551 32.8161 51.8413C33.0247 51.7275 33.1987 51.5597 33.32 51.3554C33.4413 51.1511 33.5053 50.918 33.5054 50.6804V44.0675H34.828C35.6464 44.0675 36.4314 43.7423 37.0101 43.1636C37.5888 42.5849 37.914 41.7999 37.914 40.9815V19.8202C37.914 19.0017 37.5888 18.2168 37.0101 17.638C36.4314 17.0593 35.6464 16.7341 34.828 16.7341H26.5786V14.9504H49.9512C50.421 16.3942 51.1722 17.7306 52.1615 18.8823C53.1508 20.034 54.3586 20.9782 55.715 21.6603V26.4331H45.4086C44.8876 26.4331 44.3716 26.5357 43.8902 26.7351C43.4088 26.9345 42.9714 27.2268 42.603 27.5952C42.2345 27.9636 41.9423 28.401 41.7429 28.8824C41.5435 29.3638 41.4409 29.8798 41.4409 30.4008Z" fill="#618E81"/>
<path d="M14.9716 27.9725C15.1198 28.0603 15.2803 28.1254 15.4477 28.1656C15.6398 28.2046 15.8382 28.2004 16.0285 28.1534C16.2187 28.1063 16.3962 28.0175 16.5479 27.8935C16.6997 27.7695 16.822 27.6132 16.906 27.4361C16.9899 27.259 17.0335 27.0655 17.0335 26.8695C17.0335 26.6734 16.9899 26.4799 16.906 26.3028C16.822 26.1257 16.6997 25.9695 16.5479 25.8454C16.3962 25.7214 16.2187 25.6326 16.0285 25.5856C15.8382 25.5385 15.6398 25.5343 15.4477 25.5733C15.364 25.5916 15.2816 25.6151 15.2009 25.6439C15.1215 25.6797 15.0449 25.7212 14.9716 25.7682C14.9002 25.8189 14.8324 25.8746 14.7688 25.9348C14.7062 25.9965 14.65 26.0645 14.6013 26.1376C14.5529 26.2085 14.5143 26.2856 14.4867 26.3669C14.451 26.4462 14.4244 26.5293 14.4073 26.6146C14.3893 26.6987 14.3804 26.7844 14.3809 26.8703C14.3812 27.221 14.5207 27.5572 14.7688 27.805C14.8328 27.865 14.9006 27.921 14.9716 27.9725Z" fill="#618E81"/>
<path d="M14.9716 27.9725C15.1198 28.0603 15.2803 28.1254 15.4477 28.1656C15.6398 28.2046 15.8382 28.2004 16.0285 28.1534C16.2187 28.1063 16.3962 28.0175 16.5479 27.8935C16.6997 27.7695 16.822 27.6132 16.906 27.4361C16.9899 27.259 17.0335 27.0655 17.0335 26.8695C17.0335 26.6734 16.9899 26.4799 16.906 26.3028C16.822 26.1257 16.6997 25.9695 16.5479 25.8454C16.3962 25.7214 16.2187 25.6326 16.0285 25.5856C15.8382 25.5385 15.6398 25.5343 15.4477 25.5733C15.364 25.5916 15.2816 25.6151 15.2009 25.6439C15.1215 25.6797 15.0449 25.7212 14.9716 25.7682C14.9002 25.8189 14.8324 25.8746 14.7688 25.9348C14.7062 25.9965 14.65 26.0645 14.6013 26.1376C14.5529 26.2085 14.5143 26.2856 14.4867 26.3669C14.451 26.4462 14.4244 26.5293 14.4073 26.6146C14.3893 26.6987 14.3804 26.7844 14.3809 26.8703C14.3812 27.221 14.5207 27.5572 14.7688 27.805C14.8328 27.865 14.9006 27.921 14.9716 27.9725Z" stroke="#618E81"/>
<path d="M21.8755 28.1986C22.2261 28.1983 22.5623 28.0587 22.8101 27.8106C23.058 27.5626 23.1973 27.2263 23.1973 26.8756C23.1973 26.5249 23.058 26.1885 22.8101 25.9405C22.557 25.7027 22.2228 25.5703 21.8755 25.5703C21.5282 25.5703 21.1939 25.7027 20.9408 25.9405C20.7558 26.1254 20.6298 26.3611 20.5787 26.6176C20.5275 26.8742 20.5537 27.1401 20.6537 27.3818C20.7537 27.6235 20.9232 27.8301 21.1407 27.9755C21.3582 28.1209 21.6139 28.1985 21.8755 28.1986Z" fill="#618E81"/>
<path d="M21.8755 28.1986C22.2261 28.1983 22.5623 28.0587 22.8101 27.8106C23.058 27.5626 23.1973 27.2263 23.1973 26.8756C23.1973 26.5249 23.058 26.1885 22.8101 25.9405C22.557 25.7027 22.2228 25.5703 21.8755 25.5703C21.5282 25.5703 21.1939 25.7027 20.9408 25.9405C20.7558 26.1254 20.6298 26.3611 20.5787 26.6176C20.5275 26.8742 20.5537 27.1401 20.6537 27.3818C20.7537 27.6235 20.9232 27.8301 21.1407 27.9755C21.3582 28.1209 21.6139 28.1985 21.8755 28.1986Z" stroke="#618E81"/>
<path d="M57.1443 9.68421C57.2332 9.68395 57.3218 9.67479 57.4088 9.65688C57.4925 9.63757 57.5752 9.61403 57.6566 9.58634C57.7326 9.55025 57.8062 9.50931 57.877 9.46378C57.9496 9.41427 58.0175 9.35819 58.0798 9.29625C58.2183 9.1578 58.3243 8.99031 58.3902 8.80589C58.4561 8.62147 58.4803 8.42471 58.4608 8.22983C58.4414 8.03495 58.379 7.84681 58.278 7.67901C58.1771 7.5112 58.0401 7.36791 57.877 7.25948C57.8067 7.21272 57.733 7.17117 57.6566 7.13516C57.5752 7.10747 57.4925 7.08392 57.4088 7.06462C57.228 7.02854 57.0416 7.03068 56.8616 7.0709C56.6817 7.11112 56.5121 7.18852 56.3638 7.29815C56.2155 7.40777 56.0918 7.5472 56.0006 7.70746C55.9094 7.86773 55.8527 8.0453 55.8342 8.22877C55.8156 8.41224 55.8357 8.59756 55.893 8.77282C55.9504 8.94809 56.0437 9.10943 56.1671 9.24649C56.2904 9.38354 56.4411 9.49328 56.6094 9.56867C56.7777 9.64405 56.9599 9.68341 57.1443 9.68421Z" fill="#618E81"/>
<path d="M57.1443 9.68421C57.2332 9.68395 57.3218 9.67479 57.4088 9.65688C57.4925 9.63757 57.5752 9.61403 57.6566 9.58634C57.7326 9.55025 57.8062 9.50931 57.877 9.46378C57.9496 9.41427 58.0175 9.35819 58.0798 9.29625C58.2183 9.1578 58.3243 8.99031 58.3902 8.80589C58.4561 8.62147 58.4803 8.42471 58.4608 8.22983C58.4414 8.03495 58.379 7.84681 58.278 7.67901C58.1771 7.5112 58.0401 7.36791 57.877 7.25948C57.8067 7.21272 57.733 7.17117 57.6566 7.13516C57.5752 7.10747 57.4925 7.08392 57.4088 7.06462C57.228 7.02854 57.0416 7.03068 56.8616 7.0709C56.6817 7.11112 56.5121 7.18852 56.3638 7.29815C56.2155 7.40777 56.0918 7.5472 56.0006 7.70746C55.9094 7.86773 55.8527 8.0453 55.8342 8.22877C55.8156 8.41224 55.8357 8.59756 55.893 8.77282C55.9504 8.94809 56.0437 9.10943 56.1671 9.24649C56.2904 9.38354 56.4411 9.49328 56.6094 9.56867C56.7777 9.64405 56.9599 9.68341 57.1443 9.68421Z" stroke="#618E81"/>
<path d="M63.9424 13.229C63.8586 13.2473 63.7762 13.2708 63.6955 13.2996C63.6158 13.3354 63.5389 13.3769 63.4653 13.4239C63.394 13.4744 63.3265 13.5301 63.2634 13.5905C63.0165 13.8395 62.8772 14.1754 62.8755 14.526C62.8747 14.612 62.8836 14.6978 62.9019 14.7817C62.9421 14.9491 63.0076 15.1093 63.0959 15.257C63.1449 15.3303 63.201 15.3985 63.2634 15.4607C63.327 15.5209 63.3944 15.5769 63.4653 15.6282C63.6089 15.7255 63.7715 15.7913 63.9424 15.8213C64.0264 15.8391 64.1121 15.8483 64.1981 15.8486C64.5487 15.8483 64.8849 15.7088 65.1327 15.4607C65.1949 15.3983 65.251 15.3301 65.3002 15.257C65.3464 15.1834 65.3876 15.1068 65.4236 15.0277C65.452 14.9472 65.4755 14.8651 65.4942 14.7817C65.5121 14.6977 65.5209 14.612 65.5206 14.526C65.5186 14.1755 65.3793 13.8397 65.1327 13.5905C64.9797 13.4365 64.7908 13.3228 64.5831 13.2597C64.3753 13.1967 64.1552 13.1861 63.9424 13.229Z" fill="#618E81"/>
<path d="M63.9424 13.229C63.8586 13.2473 63.7762 13.2708 63.6955 13.2996C63.6158 13.3354 63.5389 13.3769 63.4653 13.4239C63.394 13.4744 63.3265 13.5301 63.2634 13.5905C63.0165 13.8395 62.8772 14.1754 62.8755 14.526C62.8747 14.612 62.8836 14.6978 62.9019 14.7817C62.9421 14.9491 63.0076 15.1093 63.0959 15.257C63.1449 15.3303 63.201 15.3985 63.2634 15.4607C63.327 15.5209 63.3944 15.5769 63.4653 15.6282C63.6089 15.7255 63.7715 15.7913 63.9424 15.8213C64.0264 15.8391 64.1121 15.8483 64.1981 15.8486C64.5487 15.8483 64.8849 15.7088 65.1327 15.4607C65.1949 15.3983 65.251 15.3301 65.3002 15.257C65.3464 15.1834 65.3876 15.1068 65.4236 15.0277C65.452 14.9472 65.4755 14.8651 65.4942 14.7817C65.5121 14.6977 65.5209 14.612 65.5206 14.526C65.5186 14.1755 65.3793 13.8397 65.1327 13.5905C64.9797 13.4365 64.7908 13.3228 64.5831 13.2597C64.3753 13.1967 64.1552 13.1861 63.9424 13.229Z" stroke="#618E81"/>
<path d="M23.7448 31.7167C23.8021 31.5554 23.8272 31.3845 23.8185 31.2136C23.8098 31.0426 23.7675 30.8751 23.6941 30.7205C23.6206 30.5659 23.5175 30.4273 23.3905 30.3126C23.2634 30.1979 23.1151 30.1094 22.9539 30.052C22.7926 29.9946 22.6217 29.9695 22.4507 29.9782C22.2798 29.9869 22.1123 30.0292 21.9577 30.1027C21.8031 30.1761 21.6645 30.2793 21.5498 30.4063C21.4351 30.5333 21.3465 30.6816 21.2892 30.8429C21.1083 31.3611 20.7708 31.8102 20.3233 32.128C19.8758 32.4458 19.3405 32.6165 18.7917 32.6165C18.2428 32.6165 17.7076 32.4458 17.2601 32.128C16.8126 31.8102 16.4751 31.3611 16.2942 30.8429C16.2368 30.6816 16.1483 30.5333 16.0336 30.4063C15.9189 30.2793 15.7803 30.1761 15.6257 30.1027C15.4711 30.0292 15.3036 29.9869 15.1326 29.9782C14.9617 29.9695 14.7908 29.9946 14.6295 30.052C14.4683 30.1094 14.3199 30.1979 14.1929 30.3126C14.0659 30.4273 13.9628 30.5659 13.8893 30.7205C13.8159 30.8751 13.7736 31.0426 13.7649 31.2136C13.7562 31.3845 13.7813 31.5554 13.8386 31.7167C14.1986 32.7431 14.8686 33.6323 15.7559 34.2613C16.6432 34.8904 17.704 35.2283 18.7917 35.2283C19.8794 35.2283 20.9402 34.8904 21.8275 34.2613C22.7148 33.6323 23.3848 32.7431 23.7448 31.7167Z" fill="#618E81"/>
<path d="M23.7448 31.7167C23.8021 31.5554 23.8272 31.3845 23.8185 31.2136C23.8098 31.0426 23.7675 30.8751 23.6941 30.7205C23.6206 30.5659 23.5175 30.4273 23.3905 30.3126C23.2634 30.1979 23.1151 30.1094 22.9539 30.052C22.7926 29.9946 22.6217 29.9695 22.4507 29.9782C22.2798 29.9869 22.1123 30.0292 21.9577 30.1027C21.8031 30.1761 21.6645 30.2793 21.5498 30.4063C21.4351 30.5333 21.3465 30.6816 21.2892 30.8429C21.1083 31.3611 20.7708 31.8102 20.3233 32.128C19.8758 32.4458 19.3405 32.6165 18.7917 32.6165C18.2428 32.6165 17.7076 32.4458 17.2601 32.128C16.8126 31.8102 16.4751 31.3611 16.2942 30.8429C16.2368 30.6816 16.1483 30.5333 16.0336 30.4063C15.9189 30.2793 15.7803 30.1761 15.6257 30.1027C15.4711 30.0292 15.3036 29.9869 15.1326 29.9782C14.9617 29.9695 14.7908 29.9946 14.6295 30.052C14.4683 30.1094 14.3199 30.1979 14.1929 30.3126C14.0659 30.4273 13.9628 30.5659 13.8893 30.7205C13.8159 30.8751 13.7736 31.0426 13.7649 31.2136C13.7562 31.3845 13.7813 31.5554 13.8386 31.7167C14.1986 32.7431 14.8686 33.6323 15.7559 34.2613C16.6432 34.8904 17.704 35.2283 18.7917 35.2283C19.8794 35.2283 20.9402 34.8904 21.8275 34.2613C22.7148 33.6323 23.3848 32.7431 23.7448 31.7167Z" stroke="#618E81"/>
<path d="M41.1473 73.1875C40.1048 73.1875 39.0857 73.4966 38.2189 74.0758C37.3521 74.655 36.6765 75.4782 36.2776 76.4413C35.8786 77.4045 35.7742 78.4643 35.9776 79.4867C36.181 80.5092 36.683 81.4484 37.4201 82.1855C38.1573 82.9227 39.0965 83.4247 40.1189 83.6281C41.1414 83.8314 42.2012 83.7271 43.1643 83.3281C44.1275 82.9292 44.9507 82.2536 45.5299 81.3868C46.109 80.52 46.4182 79.5009 46.4182 78.4584C46.4168 77.0609 45.861 75.7211 44.8728 74.7329C43.8846 73.7447 42.5448 73.1889 41.1473 73.1875ZM41.1473 81.123C40.62 81.1232 40.1045 80.967 39.6661 80.6741C39.2276 80.3813 38.8858 79.9651 38.684 79.478C38.4821 78.9909 38.4293 78.4549 38.5321 77.9378C38.6349 77.4206 38.8888 76.9456 39.2616 76.5728C39.6344 76.2 40.1095 75.9461 40.6266 75.8433C41.1437 75.7405 41.6797 75.7933 42.1668 75.9952C42.6539 76.197 43.0702 76.5388 43.363 76.9773C43.6558 77.4157 43.812 77.9312 43.8118 78.4584C43.8109 79.1648 43.5299 79.842 43.0304 80.3415C42.5309 80.841 41.8537 81.1221 41.1473 81.123Z" fill="#618E81"/>
<path d="M41.1473 73.1875C40.1048 73.1875 39.0857 73.4966 38.2189 74.0758C37.3521 74.655 36.6765 75.4782 36.2776 76.4413C35.8786 77.4045 35.7742 78.4643 35.9776 79.4867C36.181 80.5092 36.683 81.4484 37.4201 82.1855C38.1573 82.9227 39.0965 83.4247 40.1189 83.6281C41.1414 83.8314 42.2012 83.7271 43.1643 83.3281C44.1275 82.9292 44.9507 82.2536 45.5299 81.3868C46.109 80.52 46.4182 79.5009 46.4182 78.4584C46.4168 77.0609 45.861 75.7211 44.8728 74.7329C43.8846 73.7447 42.5448 73.1889 41.1473 73.1875ZM41.1473 81.123C40.62 81.1232 40.1045 80.967 39.6661 80.6741C39.2276 80.3813 38.8858 79.9651 38.684 79.478C38.4821 78.9909 38.4293 78.4549 38.5321 77.9378C38.6349 77.4206 38.8888 76.9456 39.2616 76.5728C39.6344 76.2 40.1095 75.9461 40.6266 75.8433C41.1437 75.7405 41.6797 75.7933 42.1668 75.9952C42.6539 76.197 43.0702 76.5388 43.363 76.9773C43.6558 77.4157 43.812 77.9312 43.8118 78.4584C43.8109 79.1648 43.5299 79.842 43.0304 80.3415C42.5309 80.841 41.8537 81.1221 41.1473 81.123Z" stroke="#618E81"/>
<path d="M56.9406 16.4553C57.0778 16.5619 57.2346 16.6404 57.4021 16.6864C57.5696 16.7324 57.7445 16.7449 57.9168 16.7233C58.0892 16.7017 58.2556 16.6463 58.4066 16.5604C58.5575 16.4745 58.6901 16.3596 58.7966 16.2225L64.9687 8.287C65.0792 8.15028 65.1614 7.99291 65.2104 7.82406C65.2594 7.65522 65.2743 7.47829 65.2541 7.30364C65.2339 7.12899 65.1791 6.96011 65.0929 6.80688C65.0067 6.65366 64.8908 6.51916 64.752 6.41124C64.6132 6.30333 64.4543 6.22418 64.2846 6.17841C64.1148 6.13264 63.9376 6.12118 63.7634 6.14469C63.5892 6.1682 63.4214 6.22622 63.2698 6.31534C63.1183 6.40446 62.986 6.52291 62.8808 6.66375L56.7087 14.5992C56.6021 14.7363 56.5235 14.8931 56.4774 15.0606C56.4314 15.228 56.4187 15.4029 56.4403 15.5753C56.4618 15.7476 56.5171 15.914 56.6029 16.065C56.6888 16.216 56.8035 16.3486 56.9406 16.4553Z" fill="#618E81"/>
<path d="M56.9406 16.4553C57.0778 16.5619 57.2346 16.6404 57.4021 16.6864C57.5696 16.7324 57.7445 16.7449 57.9168 16.7233C58.0892 16.7017 58.2556 16.6463 58.4066 16.5604C58.5575 16.4745 58.6901 16.3596 58.7966 16.2225L64.9687 8.287C65.0792 8.15028 65.1614 7.99291 65.2104 7.82406C65.2594 7.65522 65.2743 7.47829 65.2541 7.30364C65.2339 7.12899 65.1791 6.96011 65.0929 6.80688C65.0067 6.65366 64.8908 6.51916 64.752 6.41124C64.6132 6.30333 64.4543 6.22418 64.2846 6.17841C64.1148 6.13264 63.9376 6.12118 63.7634 6.14469C63.5892 6.1682 63.4214 6.22622 63.2698 6.31534C63.1183 6.40446 62.986 6.52291 62.8808 6.66375L56.7087 14.5992C56.6021 14.7363 56.5235 14.8931 56.4774 15.0606C56.4314 15.228 56.4187 15.4029 56.4403 15.5753C56.4618 15.7476 56.5171 15.914 56.6029 16.065C56.6888 16.216 56.8035 16.3486 56.9406 16.4553Z" stroke="#618E81"/>
</svg>
