<svg width="86" height="76" viewBox="0 0 86 76" fill="none" xmlns="http://www.w3.org/2000/svg">
<path d="M15.8538 47.6108L14.3172 43.001L26.61 45.562H45.5615H59.9031L74.7569 41.9766L79.8789 47.6108V56.8304L76.2935 61.4402C74.9277 61.0987 68.5081 59.8012 53.7567 57.3426C39.0053 54.884 22.3417 58.367 15.8538 60.4158L16.366 54.2694L15.8538 47.6108Z" fill="#EEEEEE"/>
<ellipse cx="53.7567" cy="34.2954" rx="3.58541" ry="2.561" fill="#DEBD7C"/>
<ellipse cx="11.7562" cy="51.7074" rx="4.60981" ry="8.70741" fill="#C4C4C4"/>
<path d="M23.0246 29.6864V23.54L25.5856 25.0766L33.7809 27.6376H47.0981L58.3665 25.5888L64.0007 22.5156V29.6864L61.4397 31.7352L57.3421 33.784L53.2445 31.223L49.6591 35.8328H41.9761L27.6344 33.2718L23.0246 29.6864Z" fill="#004D40"/>
<path d="M42.4883 2.02344L4.0732 11.2431L6.12201 12.2675L22.0002 15.8529V23.0237L34.2931 27.6335H50.1713L60.4153 24.5603L64.0007 21.9993V15.8529L82.4399 11.2431L42.4883 2.02344Z" fill="#EEEEEE"/>
<path d="M37.3662 51.7045L36.0974 46.0703H50.1713V56.3143V72.7048L48.6347 74.2414L43.0005 72.7048L36.3418 74.5324L37.3662 64.5095V57.3387V51.7045Z" fill="#618E81"/>
<path d="M75.1349 40.9336V40.9336C77.0247 41.0102 78.6934 42.2473 79.8853 44.1979C81.0778 46.1495 81.8012 48.8262 81.8012 51.815C81.8012 54.8778 81.0549 57.6144 79.8322 59.5888C78.6101 61.5624 76.9022 62.7854 74.9813 62.7854H74.9719L74.972 62.785C74.8308 62.7717 74.692 62.7396 74.5593 62.6897C71.4934 61.8024 68.3788 61.0934 65.2311 60.5661L65.2308 60.566C64.9232 60.5135 64.6442 60.3538 64.443 60.1152C64.2418 59.8766 64.1314 59.5746 64.1312 59.2624V59.2623C64.1313 59.0602 64.1754 58.8605 64.2606 58.6772C64.3458 58.4939 64.4699 58.3315 64.6244 58.2012C64.7788 58.0709 64.9598 57.9759 65.1547 57.9229C65.3496 57.8699 65.5537 57.8602 65.7527 57.8943C65.7528 57.8943 65.7528 57.8943 65.7528 57.8943L65.7359 57.9929C69.0849 58.5659 72.2392 59.2796 75.1009 60.1319L75.1349 40.9336ZM75.1349 40.9336H75.1308H74.9813C74.9232 40.9336 74.8832 40.9435 74.8523 40.9523L74.8471 40.9538C74.8208 40.9612 74.8129 40.9635 74.8002 40.9635H74.619H74.6042L74.59 40.9678C57.8422 46.039 30.8982 46.1871 13.4849 41.4502C12.8176 41.1169 12.1147 40.9 11.3483 40.9H11.1671V40.8999L11.1631 40.9001C9.27322 40.9772 7.60452 42.2145 6.41261 44.1689C5.22014 46.1242 4.49676 48.8082 4.49676 51.8114C4.49676 54.829 5.22009 57.5203 6.41261 59.4756C7.59006 61.4062 9.23297 62.63 11.0949 62.7191L75.1349 40.9336ZM51.9206 51.8743C51.9251 50.3847 51.7331 48.9011 51.3496 47.4622C60.033 46.9766 68.3577 45.7186 75.0823 43.717C75.9992 43.7829 76.9803 44.6121 77.7391 46.046C78.4992 47.4822 79.0212 49.5003 79.0212 51.874V51.8746C79.0361 54.2476 78.5215 56.2578 77.7652 57.6901C77.0106 59.1193 76.0294 59.95 75.1114 60.0307L51.8206 51.874M51.9206 51.8743L51.8206 51.874M51.9206 51.8743C51.9206 51.8742 51.9206 51.8741 51.9206 51.874H51.8206M51.9206 51.8743C51.9205 53.4599 51.7486 54.9571 51.3871 56.3452M51.8206 51.874C51.8206 53.4602 51.6477 54.9556 51.2852 56.3399C51.3192 56.3416 51.3531 56.3434 51.3871 56.3452M51.3871 56.3452C53.6786 56.4656 55.9461 56.6387 58.1647 56.8669L58.1649 56.8669C58.5168 56.9036 58.8427 57.0695 59.0796 57.3325C59.3164 57.5955 59.4475 57.9371 59.4476 58.2912V58.2913C59.4474 58.4718 59.4092 58.6502 59.3357 58.815C59.2621 58.9797 59.1547 59.1272 59.0205 59.2477C58.8862 59.3683 58.7282 59.4592 58.5565 59.5146C58.3849 59.5701 58.2035 59.5887 58.0242 59.5694M51.3871 56.3452C51.3785 56.3782 51.3698 56.4111 51.361 56.444C53.658 56.5644 55.9309 56.7377 58.1545 56.9664L58.0242 59.5694M58.0242 59.5694C55.7001 59.3211 53.317 59.1327 50.9087 59.0059V74.5459C50.9087 74.9454 50.6476 75.3893 50.3025 75.674L50.2895 75.6848L50.2736 75.6906C50.248 75.7002 50.2224 75.7098 50.1969 75.7194C49.9856 75.7992 49.7763 75.8782 49.5142 75.8782H49.5045L49.5045 75.8778C49.3364 75.8615 49.1701 75.83 49.0076 75.7837L48.9975 75.7809L48.9977 75.7804L43.1241 73.4223L37.276 75.7795C37.2757 75.7797 37.2754 75.7798 37.2751 75.7799C37.0683 75.868 36.8428 75.9031 36.6191 75.8818C36.3951 75.8606 36.1799 75.7836 35.9932 75.6578C35.8064 75.532 35.6541 75.3615 35.5501 75.1618C35.4462 74.9624 35.3937 74.7401 35.3974 74.5152V58.9697C27.4345 59.3938 19.8056 60.471 13.4545 62.2011C12.8003 62.5637 12.0644 62.7533 11.3164 62.7518L11.3166 62.6518L59.3476 58.2912C59.3474 58.4577 59.3122 58.6222 59.2443 58.7742C59.1765 58.9262 59.0774 59.0622 58.9536 59.1733C58.8299 59.2845 58.6841 59.3684 58.5258 59.4195C58.3675 59.4706 58.2003 59.4878 58.0349 59.47M58.0242 59.5694C58.0243 59.5694 58.0243 59.5694 58.0243 59.5694L58.0349 59.47M11.197 62.6518C11.1971 62.6512 11.1971 62.6506 11.197 62.65V62.6518ZM11.197 62.6518L11.297 62.655C11.297 62.654 11.297 62.6529 11.297 62.6518H11.197ZM58.0349 59.47C55.7073 59.2213 53.3206 59.0327 50.9087 58.9058L58.0349 59.47ZM39.1766 51.8737C39.179 50.4292 38.9882 48.991 38.6095 47.5974C40.1241 47.6804 41.6118 47.6804 43.1245 47.6804L43.1259 47.6804L43.1275 47.6804C44.9628 47.6509 46.7681 47.5914 48.5148 47.5324C48.9647 48.9247 49.188 50.3805 49.1759 51.8441V51.8446C49.1706 53.4281 48.9697 54.9225 48.5403 56.2147C45.276 56.0704 41.9554 56.0693 38.6626 56.1835C39.0132 54.7742 39.1859 53.3264 39.1766 51.8737ZM39.1766 51.8737C39.1766 51.8739 39.1766 51.874 39.1766 51.8742L39.0766 51.874L39.1766 51.8733C39.1766 51.8735 39.1766 51.8736 39.1766 51.8737ZM51.2476 47.4678C51.2388 47.4349 51.2299 47.402 51.2209 47.3691C51.2549 47.3673 51.289 47.3654 51.323 47.3635L51.2476 47.4678ZM36.451 51.8436V51.8441C36.451 53.518 36.22 55.0159 35.7882 56.2813C29.0171 56.6107 22.5097 57.4058 16.7234 58.6105C17.6327 56.7609 18.141 54.4413 18.141 51.8441C18.141 49.2745 17.6045 46.9288 16.7216 45.0794C22.4796 46.3414 29.0164 47.1075 35.7284 47.4358C36.2141 48.8541 36.4584 50.344 36.451 51.8436ZM14.4813 56.8699C13.9288 58.2223 13.186 59.1967 12.4197 59.6797L12.3982 59.6858C11.9937 59.801 11.5928 59.9152 11.1934 60.0013C10.29 59.937 9.30716 59.1144 8.54362 57.6823C7.7799 56.2498 7.25045 54.2321 7.25045 51.8441C7.25045 49.4704 7.7725 47.4523 8.53255 46.016C9.2915 44.5818 10.2729 43.7522 11.1899 43.6861C11.5979 43.8034 12.0101 43.9205 12.4229 44.0103C13.2028 44.4937 13.9444 45.4589 14.4925 46.7979C15.0431 48.143 15.3946 49.8567 15.3946 51.8141C15.3946 53.7841 15.0357 55.5128 14.4813 56.8699ZM48.1505 58.9363V72.5362L43.668 70.73C43.3458 70.5997 42.9857 70.5997 42.6635 70.73L38.181 72.5362V58.9364C41.5044 58.7916 44.8558 58.7916 48.1505 58.9363Z" fill="#303838" stroke="#303838" stroke-width="0.2"/>
<path d="M13.9612 8.82552C13.8799 8.48373 13.6673 8.18778 13.3694 8.00189C13.0714 7.81599 12.7123 7.75515 12.3698 7.83257L12.3698 7.83258L1.96537 10.1901C1.96527 10.1901 1.96518 10.1901 1.96508 10.1901C1.65749 10.258 1.38308 10.4308 1.18884 10.679C0.994902 10.9268 0.892958 11.2343 0.900378 11.5489C0.897904 11.8625 1.00203 12.1676 1.19571 12.4141C1.38974 12.6611 1.66206 12.8346 1.9678 12.9059L1.96836 12.906L20.6423 17.1502V28.5446C20.6423 29.9717 21.3794 31.2283 22.6367 32.3059C23.8931 33.3827 25.6761 34.2878 27.7899 35.0162C32.0183 36.4735 37.595 37.2326 43.0027 37.2326H43.0028C45.1898 37.2293 47.3745 37.0918 49.5447 36.8209C50.2955 38.3193 51.8051 39.3953 53.5889 39.3953C56.0514 39.3953 58.0298 37.4654 58.1563 35.0155C60.2634 34.2959 62.0454 33.3898 63.3062 32.3085C64.5807 31.2153 65.3295 29.9362 65.3295 28.4866V17.123L84.0315 12.8789L84.0336 12.8783C84.675 12.7183 85.0989 12.1956 85.0995 11.5522C85.1078 11.2365 85.006 10.9278 84.8116 10.6791C84.6169 10.4301 84.3416 10.2569 84.0331 10.1892C84.0329 10.1892 84.0327 10.1891 84.0326 10.1891L43.3044 0.97274C43.2051 0.924887 43.0962 0.9 42.9859 0.9C42.8756 0.9 42.7667 0.924888 42.6674 0.972744L30.329 3.76661C30.329 3.76661 30.329 3.76662 30.329 3.76662C30.1452 3.80819 29.9714 3.88587 29.8178 3.99514C29.6642 4.10442 29.5337 4.24313 29.434 4.40322C29.3344 4.56331 29.2674 4.7416 29.2371 4.92777C29.2068 5.11393 29.2136 5.30427 29.2573 5.48776C29.3373 5.82463 29.5472 6.1162 29.8411 6.29882C30.1351 6.48142 30.4892 6.54026 30.8263 6.4625C30.8264 6.46248 30.8265 6.46247 30.8265 6.46246L43.0009 3.69195L77.53 11.5479L53.8798 16.9063L43.8965 10.3834C43.8963 10.3833 43.8961 10.3831 43.8959 10.383C43.7442 10.2809 43.5734 10.2107 43.3938 10.1766C43.214 10.1424 43.0291 10.1451 42.8504 10.1846C42.6716 10.224 42.5028 10.2994 42.354 10.4061C42.206 10.5123 42.0809 10.6474 41.9863 10.8031C41.8862 10.9509 41.8166 11.1173 41.7818 11.2924C41.7468 11.4685 41.7476 11.6498 41.7841 11.8255C41.8207 12.0013 41.8922 12.1678 41.9945 12.3153L42.0767 12.2583L41.9945 12.3153C42.0966 12.4624 42.2273 12.5875 42.3787 12.6831C42.379 12.6833 42.3793 12.6835 42.3796 12.6837L50.161 17.7785L43.0027 19.4034L8.47077 11.5481L12.8978 10.5403L12.8981 10.5402C13.0808 10.4982 13.2533 10.4204 13.4058 10.3113C13.5583 10.2022 13.6877 10.0639 13.7866 9.90449C13.8854 9.74508 13.9517 9.56766 13.9817 9.38247C14.0117 9.19729 14.0047 9.008 13.9612 8.82552ZM13.9612 8.82552L13.864 8.84866M13.9612 8.82552C13.9612 8.82551 13.9612 8.8255 13.9612 8.82549L13.864 8.84866M13.864 8.84866C13.7887 8.53245 13.592 8.25868 13.3164 8.08673C13.0408 7.91477 12.7087 7.85849 12.3919 7.9301M13.864 8.84866C13.9044 9.01832 13.9108 9.19431 13.883 9.36649C13.8551 9.53866 13.7934 9.7036 13.7016 9.8518C13.6097 10 13.4894 10.1285 13.3476 10.2299C13.2059 10.3314 13.0455 10.4037 12.8756 10.4428L12.3919 7.9301M12.3919 7.9301L1.9869 10.2877C1.70188 10.3505 1.44758 10.5107 1.26759 10.7406C1.0876 10.9706 0.993136 11.2561 1.00039 11.5481L12.3919 7.9301ZM23.3906 24.9262C25.3862 26.3383 28.3347 27.4218 31.7181 28.1577C35.1948 28.9138 39.1396 29.3047 43.0009 29.3047H43.001C46.1031 29.301 49.2001 29.0557 52.2641 28.5711V30.5123C51.4586 30.7623 50.7392 31.2342 50.1885 31.8748C49.6386 32.5145 49.2799 33.2957 49.1527 34.1289C47.1094 34.3467 45.0559 34.4539 43.0011 34.4501C36.9045 34.4352 31.9884 33.5582 28.5998 32.3728C26.905 31.7799 25.5965 31.1114 24.7139 30.4382C23.8263 29.7613 23.3906 29.0966 23.3906 28.5147V24.9262ZM23.3906 20.6149V17.7389L42.7063 22.1536C42.803 22.1806 42.9034 22.1917 43.0037 22.1867C43.1118 22.19 43.2199 22.1791 43.3252 22.1541C43.3253 22.154 43.3255 22.154 43.3257 22.154L52.2614 20.1093V25.7859C49.6147 26.2568 46.4992 26.5504 43.0009 26.5504C36.9044 26.5504 31.9884 25.6733 28.5999 24.4843C26.9052 23.8896 25.5967 23.2183 24.714 22.5428C23.8264 21.8635 23.3906 21.1969 23.3906 20.6149ZM53.6199 36.6128C53.2601 36.6127 52.9084 36.5058 52.6092 36.3057C52.3098 36.1055 52.0765 35.8209 51.9387 35.4879C51.8009 35.1549 51.7648 34.7884 51.8351 34.4349C51.9053 34.0814 52.0787 33.7567 52.3333 33.5018C52.5879 33.247 52.9123 33.0734 53.2654 33.0031C53.6185 32.9328 53.9846 32.9689 54.3172 33.1068C54.6498 33.2447 54.9342 33.4783 55.1342 33.778C55.3341 34.0775 55.4409 34.4296 55.441 34.7898C55.4379 35.2723 55.245 35.7342 54.9041 36.0754C54.5633 36.4166 54.1019 36.6096 53.6199 36.6128ZM62.6111 28.5147C62.6111 29.111 62.1647 29.7755 61.2709 30.4464C60.3952 31.1036 59.1112 31.7504 57.4725 32.3277C56.8964 31.4405 56.0237 30.7873 55.0105 30.4852V27.9927C58.1034 27.263 60.7563 26.2517 62.6111 24.9272V28.5147ZM62.6111 20.6456C62.604 20.9901 62.4381 21.372 62.1032 21.775C61.7684 22.1777 61.2704 22.5943 60.6142 23.0054C59.324 23.8138 57.4345 24.5934 55.0105 25.203V19.4652L62.6111 17.7388V20.6456Z" fill="#303838" stroke="#303838" stroke-width="0.2"/>
<path d="M17.2157 9.48271C17.9715 9.48271 18.584 8.86948 18.584 8.11323C18.584 7.35698 17.9715 6.74375 17.2157 6.74375C16.46 6.74375 15.8475 7.35698 15.8475 8.11323C15.8475 8.86948 16.46 9.48271 17.2157 9.48271Z" fill="#303838" stroke="#303838" stroke-width="0.2"/>
</svg>
