<svg width="82" height="84" viewBox="0 0 82 84" fill="none" xmlns="http://www.w3.org/2000/svg">
<path d="M60.4487 83H21.5513L19.4487 79V10.5L21.5513 8H27.859H62.0256V80.5L60.4487 83Z" fill="#EEEEEE"/>
<path d="M25.2308 66.5V13H56.2436V66.5H25.2308Z" fill="#C0D6E3"/>
<path d="M78.8461 26.5H44.1538L43.1026 29L43.6282 55.5V60H72.5385H79.8974L80.9487 57V26.5H78.8461Z" fill="#618E81"/>
<path d="M31.5385 41V47L19.9744 40H1.05128V17H36.7949V40L31.5385 41Z" fill="#303838"/>
<ellipse cx="60.9744" cy="11" rx="10.5128" ry="10" fill="#DEBD7C"/>
<ellipse cx="41" cy="75" rx="4.20513" ry="4" fill="#618E81"/>
<path d="M68.3334 34H56.2436L47.8334 37L50.9872 43L55.1923 40.5V53H68.3334V40.5L72.5385 43L75.1667 37L68.3334 34Z" fill="#EEEEEE"/>
<path d="M73.8741 42.9905L77.0703 37.9582C77.1647 37.8096 77.2257 37.644 77.2495 37.4718C77.2733 37.2997 77.2593 37.1247 77.2086 36.9579C77.1578 36.7911 77.0713 36.6362 76.9545 36.5027C76.8377 36.3693 76.6931 36.2603 76.5298 36.1827L69.476 32.8278C69.2923 32.7406 69.0898 32.6952 68.8844 32.6953H54.7769C54.5715 32.6952 54.369 32.7406 54.1853 32.8278L47.1315 36.1827C46.9713 36.2588 46.829 36.3651 46.7132 36.4952C46.5975 36.6252 46.5107 36.7763 46.4582 36.9392C46.4057 37.1021 46.3885 37.2734 46.4077 37.4428C46.4269 37.6122 46.482 37.7762 46.5698 37.9247L49.5456 42.9569C49.7051 43.2267 49.9635 43.4311 50.2714 43.5311C50.5793 43.631 50.9152 43.6195 51.2147 43.4987L53.4543 42.5963V52.4092C53.4543 52.7428 53.5937 53.0628 53.8417 53.2988C54.0897 53.5347 54.4261 53.6672 54.7769 53.6672H68.8844C69.2352 53.6672 69.5716 53.5347 69.8196 53.2988C70.0677 53.0628 70.207 52.7428 70.207 52.4092V42.6206L72.1917 43.4845C72.487 43.6129 72.8217 43.6335 73.1319 43.5424C73.4421 43.4514 73.7063 43.2549 73.8741 42.9905ZM64.1558 35.2114C63.5144 35.7518 62.6874 36.0501 61.8307 36.0501C60.9739 36.0501 60.1469 35.7518 59.5056 35.2114H64.1558ZM72.2191 40.7302L69.4346 39.5182C69.2331 39.4305 69.0116 39.3924 68.7905 39.4074C68.5694 39.4223 68.3558 39.4899 68.1694 39.6039C67.9829 39.7179 67.8296 39.8746 67.7234 40.0597C67.6173 40.2447 67.5617 40.4522 67.5618 40.6631V51.1469H56.0995V40.6974C56.0994 40.4897 56.0453 40.2852 55.942 40.1023C55.8387 39.9193 55.6893 39.7635 55.5072 39.6488C55.3252 39.5341 55.1161 39.464 54.8986 39.4449C54.6812 39.4258 54.4622 39.4582 54.2611 39.5392L51.2721 40.7427L49.5527 37.8425L55.0855 35.2114H56.2564C56.7558 36.2149 57.5444 37.0629 58.5306 37.6568C59.5168 38.2506 60.66 38.5659 61.8271 38.5659C62.9943 38.5659 64.1375 38.2506 65.1237 37.6568C66.1098 37.0629 66.8985 36.2149 67.3978 35.2114H68.5688L74.0645 37.824L72.2191 40.7302Z" fill="#303838"/>
<path d="M73.8741 42.9905L77.0703 37.9582C77.1647 37.8096 77.2257 37.644 77.2495 37.4718C77.2733 37.2997 77.2593 37.1247 77.2086 36.9579C77.1578 36.7911 77.0713 36.6362 76.9545 36.5027C76.8377 36.3693 76.6931 36.2603 76.5298 36.1827L69.476 32.8278C69.2923 32.7406 69.0898 32.6952 68.8844 32.6953H54.7769C54.5715 32.6952 54.369 32.7406 54.1853 32.8278L47.1315 36.1827C46.9713 36.2588 46.829 36.3651 46.7132 36.4952C46.5975 36.6252 46.5107 36.7763 46.4582 36.9392C46.4057 37.1021 46.3885 37.2734 46.4077 37.4428C46.4269 37.6122 46.482 37.7762 46.5698 37.9247L49.5456 42.9569C49.7051 43.2267 49.9635 43.4311 50.2714 43.5311C50.5793 43.631 50.9152 43.6195 51.2147 43.4987L53.4543 42.5963V52.4092C53.4543 52.7428 53.5937 53.0628 53.8417 53.2988C54.0897 53.5347 54.4261 53.6672 54.7769 53.6672H68.8844C69.2352 53.6672 69.5716 53.5347 69.8196 53.2988C70.0677 53.0628 70.207 52.7428 70.207 52.4092V42.6206L72.1917 43.4845C72.487 43.6129 72.8217 43.6335 73.1319 43.5424C73.4421 43.4514 73.7063 43.2549 73.8741 42.9905ZM64.1558 35.2114C63.5144 35.7518 62.6874 36.0501 61.8307 36.0501C60.9739 36.0501 60.1469 35.7518 59.5056 35.2114H64.1558ZM72.2191 40.7302L69.4346 39.5182C69.2331 39.4305 69.0116 39.3924 68.7905 39.4074C68.5694 39.4223 68.3558 39.4899 68.1694 39.6039C67.9829 39.7179 67.8296 39.8746 67.7234 40.0597C67.6173 40.2447 67.5617 40.4522 67.5618 40.6631V51.1469H56.0995V40.6974C56.0994 40.4897 56.0453 40.2852 55.942 40.1023C55.8387 39.9193 55.6893 39.7635 55.5072 39.6488C55.3252 39.5341 55.1161 39.464 54.8986 39.4449C54.6812 39.4258 54.4622 39.4582 54.2611 39.5392L51.2721 40.7427L49.5527 37.8425L55.0855 35.2114H56.2564C56.7558 36.2149 57.5444 37.0629 58.5306 37.6568C59.5168 38.2506 60.66 38.5659 61.8271 38.5659C62.9943 38.5659 64.1375 38.2506 65.1237 37.6568C66.1098 37.0629 66.8985 36.2149 67.3978 35.2114H68.5688L74.0645 37.824L72.2191 40.7302Z" stroke="#303838"/>
<path d="M78.0323 25.1437H63.6117V21.4332C65.5056 20.983 67.2467 20.0792 68.6695 18.8078C70.0922 17.5364 71.1491 15.9398 71.7397 14.1699C72.3302 12.4001 72.4347 10.5159 72.0431 8.69676C71.6516 6.87764 70.777 5.18413 69.5027 3.77746C68.2285 2.37079 66.5969 1.29778 64.7634 0.660586C62.9298 0.0233937 60.9553 -0.156771 59.0279 0.137243C57.1004 0.431257 55.2841 1.18966 53.752 2.34026C52.2198 3.49086 51.0228 4.99534 50.2748 6.71049H23.5128C22.2323 6.71182 21.0045 7.1963 20.099 8.05764C19.1935 8.91898 18.6842 10.0868 18.6828 11.3049V15.9178H3.08602C2.26756 15.9178 1.48262 16.2271 0.903875 16.7776C0.325133 17.3281 0 18.0748 0 18.8533L0 38.9824C0 39.7609 0.325133 40.5075 0.903875 41.0581C1.48262 41.6086 2.26756 41.9178 3.08602 41.9178H18.6828V79.2404C18.6842 80.4585 19.1935 81.6262 20.0991 82.4874C21.0046 83.3486 22.2323 83.8329 23.5128 83.834H58.7817C60.0622 83.8329 61.2899 83.3486 62.1954 82.4874C63.101 81.6262 63.6103 80.4585 63.6117 79.2404V61.2082H69.7767C70.1275 61.2082 70.4639 61.0756 70.7119 60.8397C70.9599 60.6038 71.0993 60.2838 71.0993 59.9501C71.0993 59.6164 70.9599 59.2965 70.7119 59.0605C70.4639 58.8246 70.1275 58.692 69.7767 58.692H45.4086C45.0578 58.692 44.7214 58.5595 44.4734 58.3236C44.2254 58.0876 44.086 57.7676 44.086 57.434V28.9178C44.086 28.5842 44.2254 28.2642 44.4734 28.0283C44.7214 27.7923 45.0578 27.6598 45.4086 27.6598H78.0323C78.383 27.6598 78.7194 27.7923 78.9675 28.0283C79.2155 28.2642 79.3548 28.5842 79.3548 28.9178V57.434C79.3548 57.7676 79.2155 58.0876 78.9675 58.3236C78.7194 58.5595 78.383 58.692 78.0323 58.692H74.4586C74.1079 58.692 73.7715 58.8246 73.5234 59.0605C73.2754 59.2965 73.1361 59.6164 73.1361 59.9501C73.1361 60.2838 73.2754 60.6038 73.5234 60.8397C73.7715 61.0756 74.1079 61.2082 74.4586 61.2082H78.0323C79.0842 61.2071 80.0927 60.8091 80.8366 60.1015C81.5804 59.3939 81.9988 58.4346 82 57.434V28.9178C82 27.9169 81.582 26.9569 80.8379 26.2491C80.0938 25.5413 79.0846 25.1437 78.0323 25.1437ZM61.0054 25.1437H58.3214V21.4953C59.1472 21.6754 59.9915 21.7674 60.8387 21.7695C60.8951 21.7695 60.9498 21.762 61.0054 21.7611V25.1437ZM60.8387 2.4792C62.5866 2.47903 64.2954 2.97192 65.7488 3.89552C67.2022 4.81913 68.3351 6.13197 69.0041 7.66802C69.6731 9.20407 69.8483 10.8943 69.5074 12.5251C69.1665 14.1558 68.3249 15.6538 67.0889 16.8295C65.853 18.0052 64.2784 18.806 62.564 19.1304C60.8497 19.4548 59.0727 19.2884 57.4578 18.6522C55.8429 18.0159 54.4627 16.9385 53.4916 15.556C52.5204 14.1736 52.0021 12.5482 52.0021 10.8856C52.0047 8.65697 52.9365 6.52031 54.5931 4.94436C56.2497 3.36841 58.4958 2.48186 60.8387 2.4792ZM21.2883 11.3049C21.289 10.7439 21.5236 10.2061 21.9406 9.80939C22.3576 9.4127 22.9231 9.18954 23.5128 9.18888H49.5527C49.455 9.74976 49.4037 10.3171 49.3993 10.8856C49.3993 11.1749 49.4222 11.4593 49.4451 11.7427H26.158C25.5787 11.7432 25.0232 11.9623 24.6136 12.352C24.2039 12.7416 23.9736 13.27 23.9731 13.8211V15.9178H21.2883V11.3049ZM2.64516 38.9824V18.8533C2.64516 18.7421 2.69161 18.6354 2.77429 18.5568C2.85696 18.4782 2.9691 18.434 3.08602 18.434H34.828C34.9449 18.434 35.057 18.4782 35.1397 18.5568C35.2224 18.6354 35.2688 18.7421 35.2688 18.8533V38.9824C35.2688 39.0936 35.2224 39.2002 35.1397 39.2789C35.057 39.3575 34.9449 39.4017 34.828 39.4017H32.1828C31.832 39.4017 31.4956 39.5343 31.2476 39.7702C30.9996 40.0061 30.8602 40.3261 30.8602 40.6598V45.9034L20.5538 39.6013C20.3405 39.471 20.0923 39.4017 19.8387 39.4017H3.08602C2.9691 39.4017 2.85696 39.3575 2.77429 39.2789C2.69161 39.2002 2.64516 39.0936 2.64516 38.9824ZM61.0054 79.2404C61.0047 79.8012 60.7701 80.3388 60.3533 80.7354C59.9364 81.1319 59.3712 81.355 58.7817 81.3557H23.5128C22.9232 81.355 22.3579 81.132 21.9409 80.7354C21.5239 80.3389 21.2892 79.8013 21.2883 79.2404V43.0417L23.9898 44.6931C23.9806 44.7461 23.9751 44.7996 23.9731 44.8533V65.8211C23.9738 66.372 24.2042 66.9002 24.6139 67.2896C25.0235 67.6791 25.5788 67.8981 26.158 67.8986H56.1365C56.7157 67.8981 57.271 67.6791 57.6806 67.2896C58.0903 66.9002 58.3207 66.372 58.3214 65.8211V61.2082H61.0054V79.2404ZM41.4409 28.9178V57.434C41.442 58.4346 41.8604 59.3939 42.6043 60.1015C43.3481 60.8091 44.3566 61.2071 45.4086 61.2082H55.715V65.4202H26.5786V46.2766L31.4668 49.2658C31.6666 49.3881 31.8973 49.457 32.1347 49.4652C32.3721 49.4734 32.6075 49.4207 32.8161 49.3125C33.0247 49.2043 33.1987 49.0446 33.32 48.8503C33.4413 48.656 33.5053 48.4342 33.5054 48.2082V41.9178H34.828C35.6464 41.9178 36.4314 41.6086 37.0101 41.0581C37.5888 40.5075 37.914 39.7609 37.914 38.9824V18.8533C37.914 18.0748 37.5888 17.3281 37.0101 16.7776C36.4314 16.2271 35.6464 15.9178 34.828 15.9178H26.5786V14.2211H49.9512C50.421 15.5945 51.1722 16.8657 52.1615 17.9612C53.1508 19.0567 54.3586 19.9549 55.715 20.6037V25.1437H45.4086C44.8876 25.1437 44.3716 25.2413 43.8902 25.4309C43.4088 25.6206 42.9714 25.8986 42.603 26.2491C42.2345 26.5996 41.9423 27.0156 41.7429 27.4735C41.5435 27.9314 41.4409 28.4222 41.4409 28.9178Z" fill="#303838"/>
<path d="M14.9716 26.612C15.1198 26.6955 15.2803 26.7574 15.4477 26.7957C15.6398 26.8328 15.8382 26.8288 16.0285 26.784C16.2187 26.7393 16.3962 26.6548 16.5479 26.5368C16.6997 26.4188 16.822 26.2702 16.906 26.1018C16.9899 25.9333 17.0335 25.7492 17.0335 25.5628C17.0335 25.3763 16.9899 25.1922 16.906 25.0237C16.822 24.8553 16.6997 24.7067 16.5479 24.5887C16.3962 24.4707 16.2187 24.3862 16.0285 24.3415C15.8382 24.2967 15.6398 24.2927 15.4477 24.3298C15.364 24.3472 15.2816 24.3696 15.2009 24.3969C15.1215 24.431 15.0449 24.4705 14.9716 24.5152C14.9002 24.5634 14.8324 24.6164 14.7688 24.6737C14.7062 24.7324 14.65 24.797 14.6013 24.8666C14.5529 24.934 14.5143 25.0074 14.4867 25.0847C14.451 25.1602 14.4244 25.2392 14.4073 25.3204C14.3893 25.4003 14.3804 25.4818 14.3809 25.5636C14.3812 25.8971 14.5207 26.2169 14.7688 26.4526C14.8328 26.5097 14.9006 26.563 14.9716 26.612Z" fill="#EEEEEE"/>
<path d="M14.9716 26.612C15.1198 26.6955 15.2803 26.7574 15.4477 26.7957C15.6398 26.8328 15.8382 26.8288 16.0285 26.784C16.2187 26.7393 16.3962 26.6548 16.5479 26.5368C16.6997 26.4188 16.822 26.2702 16.906 26.1018C16.9899 25.9333 17.0335 25.7492 17.0335 25.5628C17.0335 25.3763 16.9899 25.1922 16.906 25.0237C16.822 24.8553 16.6997 24.7067 16.5479 24.5887C16.3962 24.4707 16.2187 24.3862 16.0285 24.3415C15.8382 24.2967 15.6398 24.2927 15.4477 24.3298C15.364 24.3472 15.2816 24.3696 15.2009 24.3969C15.1215 24.431 15.0449 24.4705 14.9716 24.5152C14.9002 24.5634 14.8324 24.6164 14.7688 24.6737C14.7062 24.7324 14.65 24.797 14.6013 24.8666C14.5529 24.934 14.5143 25.0074 14.4867 25.0847C14.451 25.1602 14.4244 25.2392 14.4073 25.3204C14.3893 25.4003 14.3804 25.4818 14.3809 25.5636C14.3812 25.8971 14.5207 26.2169 14.7688 26.4526C14.8328 26.5097 14.9006 26.563 14.9716 26.612Z" stroke="#303838"/>
<path d="M21.8755 26.8204C22.2261 26.8201 22.5623 26.6874 22.8101 26.4514C23.058 26.2154 23.1973 25.8955 23.1973 25.5619C23.1973 25.2283 23.058 24.9084 22.8101 24.6725C22.557 24.4462 22.2228 24.3203 21.8755 24.3203C21.5282 24.3203 21.194 24.4462 20.9409 24.6725C20.7558 24.8483 20.6298 25.0725 20.5787 25.3165C20.5276 25.5606 20.5537 25.8135 20.6537 26.0435C20.7538 26.2734 20.9232 26.4699 21.1407 26.6082C21.3582 26.7465 21.6139 26.8203 21.8755 26.8204Z" fill="#EEEEEE"/>
<path d="M21.8755 26.8204C22.2261 26.8201 22.5623 26.6874 22.8101 26.4514C23.058 26.2154 23.1973 25.8955 23.1973 25.5619C23.1973 25.2283 23.058 24.9084 22.8101 24.6725C22.557 24.4462 22.2228 24.3203 21.8755 24.3203C21.5282 24.3203 21.194 24.4462 20.9409 24.6725C20.7558 24.8483 20.6298 25.0725 20.5787 25.3165C20.5276 25.5606 20.5537 25.8135 20.6537 26.0435C20.7538 26.2734 20.9232 26.4699 21.1407 26.6082C21.3582 26.7465 21.6139 26.8203 21.8755 26.8204Z" stroke="#303838"/>
<path d="M57.1443 9.21143C57.2331 9.21118 57.3218 9.20247 57.4088 9.18543C57.4925 9.16707 57.5752 9.14467 57.6566 9.11833C57.7326 9.084 57.8062 9.04506 57.877 9.00175C57.9496 8.95466 58.0175 8.90131 58.0798 8.8424C58.2183 8.7107 58.3243 8.55138 58.3902 8.37595C58.4561 8.20053 58.4802 8.01337 58.4608 7.828C58.4414 7.64262 58.379 7.46366 58.278 7.30404C58.1771 7.14442 58.0401 7.00811 57.877 6.90498C57.8066 6.8605 57.733 6.82097 57.6566 6.78672C57.5752 6.76038 57.4925 6.73798 57.4088 6.71962C57.228 6.68531 57.0416 6.68734 56.8616 6.7256C56.6816 6.76385 56.5121 6.83748 56.3638 6.94176C56.2155 7.04604 56.0918 7.17866 56.0006 7.33111C55.9094 7.48356 55.8527 7.65246 55.8342 7.82699C55.8156 8.00151 55.8357 8.17778 55.893 8.3445C55.9503 8.51122 56.0437 8.66469 56.1671 8.79506C56.2904 8.92543 56.4411 9.02982 56.6094 9.10152C56.7777 9.17323 56.9599 9.21066 57.1443 9.21143Z" fill="#303838"/>
<path d="M57.1443 9.21143C57.2331 9.21118 57.3218 9.20247 57.4088 9.18543C57.4925 9.16707 57.5752 9.14467 57.6566 9.11833C57.7326 9.084 57.8062 9.04506 57.877 9.00175C57.9496 8.95466 58.0175 8.90131 58.0798 8.8424C58.2183 8.7107 58.3243 8.55138 58.3902 8.37595C58.4561 8.20053 58.4802 8.01337 58.4608 7.828C58.4414 7.64262 58.379 7.46366 58.278 7.30404C58.1771 7.14442 58.0401 7.00811 57.877 6.90498C57.8066 6.8605 57.733 6.82097 57.6566 6.78672C57.5752 6.76038 57.4925 6.73798 57.4088 6.71962C57.228 6.68531 57.0416 6.68734 56.8616 6.7256C56.6816 6.76385 56.5121 6.83748 56.3638 6.94176C56.2155 7.04604 56.0918 7.17866 56.0006 7.33111C55.9094 7.48356 55.8527 7.65246 55.8342 7.82699C55.8156 8.00151 55.8357 8.17778 55.893 8.3445C55.9503 8.51122 56.0437 8.66469 56.1671 8.79506C56.2904 8.92543 56.4411 9.02982 56.6094 9.10152C56.7777 9.17323 56.9599 9.21066 57.1443 9.21143Z" stroke="#303838"/>
<path d="M63.9424 12.5871C63.8587 12.6045 63.7762 12.6269 63.6955 12.6542C63.6159 12.6883 63.539 12.7278 63.4654 12.7725C63.394 12.8205 63.3265 12.8735 63.2635 12.931C63.0165 13.1678 62.8772 13.4874 62.8755 13.8209C62.8748 13.9027 62.8836 13.9842 62.902 14.0641C62.9422 14.2233 63.0076 14.3757 63.0959 14.5162C63.1449 14.5859 63.201 14.6508 63.2635 14.7099C63.327 14.7672 63.3944 14.8205 63.4654 14.8693C63.609 14.9619 63.7715 15.0245 63.9424 15.053C64.0265 15.0699 64.1121 15.0786 64.1981 15.079C64.5487 15.0787 64.8849 14.9459 65.1327 14.7099C65.1949 14.6506 65.251 14.5857 65.3002 14.5162C65.3464 14.4462 65.3877 14.3733 65.4237 14.2981C65.452 14.2215 65.4756 14.1434 65.4942 14.0641C65.5121 13.9842 65.521 13.9026 65.5207 13.8209C65.5186 13.4874 65.3793 13.168 65.1327 12.931C64.9797 12.7845 64.7909 12.6764 64.5831 12.6164C64.3754 12.5563 64.1552 12.5463 63.9424 12.5871Z" fill="#303838"/>
<path d="M63.9424 12.5871C63.8587 12.6045 63.7762 12.6269 63.6955 12.6542C63.6159 12.6883 63.539 12.7278 63.4654 12.7725C63.394 12.8205 63.3265 12.8735 63.2635 12.931C63.0165 13.1678 62.8772 13.4874 62.8755 13.8209C62.8748 13.9027 62.8836 13.9842 62.902 14.0641C62.9422 14.2233 63.0076 14.3757 63.0959 14.5162C63.1449 14.5859 63.201 14.6508 63.2635 14.7099C63.327 14.7672 63.3944 14.8205 63.4654 14.8693C63.609 14.9619 63.7715 15.0245 63.9424 15.053C64.0265 15.0699 64.1121 15.0786 64.1981 15.079C64.5487 15.0787 64.8849 14.9459 65.1327 14.7099C65.1949 14.6506 65.251 14.5857 65.3002 14.5162C65.3464 14.4462 65.3877 14.3733 65.4237 14.2981C65.452 14.2215 65.4756 14.1434 65.4942 14.0641C65.5121 13.9842 65.521 13.9026 65.5207 13.8209C65.5186 13.4874 65.3793 13.168 65.1327 12.931C64.9797 12.7845 64.7909 12.6764 64.5831 12.6164C64.3754 12.5563 64.1552 12.5463 63.9424 12.5871Z" stroke="#303838"/>
<path d="M23.7447 30.1708C23.8021 30.0175 23.8271 29.8549 23.8185 29.6923C23.8098 29.5297 23.7675 29.3703 23.694 29.2233C23.6206 29.0763 23.5174 28.9444 23.3904 28.8353C23.2634 28.7262 23.1151 28.6419 22.9538 28.5874C22.7926 28.5328 22.6216 28.509 22.4507 28.5172C22.2798 28.5255 22.1123 28.5657 21.9577 28.6356C21.8031 28.7054 21.6645 28.8036 21.5498 28.9244C21.4351 29.0452 21.3465 29.1863 21.2891 29.3397C21.1083 29.8326 20.7707 30.2598 20.3233 30.5621C19.8758 30.8644 19.3405 31.0268 18.7917 31.0268C18.2428 31.0268 17.7075 30.8644 17.2601 30.5621C16.8126 30.2598 16.475 29.8326 16.2942 29.3397C16.2368 29.1863 16.1482 29.0452 16.0335 28.9244C15.9188 28.8036 15.7802 28.7054 15.6256 28.6356C15.4711 28.5657 15.3035 28.5255 15.1326 28.5172C14.9617 28.509 14.7907 28.5328 14.6295 28.5874C14.4683 28.6419 14.3199 28.7262 14.1929 28.8353C14.0659 28.9444 13.9627 29.0763 13.8893 29.2233C13.8158 29.3703 13.7736 29.5297 13.7649 29.6923C13.7562 29.8549 13.7812 30.0175 13.8386 30.1708C14.1986 31.1472 14.8685 31.993 15.7558 32.5914C16.6431 33.1898 17.704 33.5112 18.7917 33.5112C19.8793 33.5112 20.9402 33.1898 21.8275 32.5914C22.7148 31.993 23.3847 31.1472 23.7447 30.1708Z" fill="#EEEEEE"/>
<path d="M23.7447 30.1708C23.8021 30.0175 23.8271 29.8549 23.8185 29.6923C23.8098 29.5297 23.7675 29.3703 23.694 29.2233C23.6206 29.0763 23.5174 28.9444 23.3904 28.8353C23.2634 28.7262 23.1151 28.6419 22.9538 28.5874C22.7926 28.5328 22.6216 28.509 22.4507 28.5172C22.2798 28.5255 22.1123 28.5657 21.9577 28.6356C21.8031 28.7054 21.6645 28.8036 21.5498 28.9244C21.4351 29.0452 21.3465 29.1863 21.2891 29.3397C21.1083 29.8326 20.7707 30.2598 20.3233 30.5621C19.8758 30.8644 19.3405 31.0268 18.7917 31.0268C18.2428 31.0268 17.7075 30.8644 17.2601 30.5621C16.8126 30.2598 16.475 29.8326 16.2942 29.3397C16.2368 29.1863 16.1482 29.0452 16.0335 28.9244C15.9188 28.8036 15.7802 28.7054 15.6256 28.6356C15.4711 28.5657 15.3035 28.5255 15.1326 28.5172C14.9617 28.509 14.7907 28.5328 14.6295 28.5874C14.4683 28.6419 14.3199 28.7262 14.1929 28.8353C14.0659 28.9444 13.9627 29.0763 13.8893 29.2233C13.8158 29.3703 13.7736 29.5297 13.7649 29.6923C13.7562 29.8549 13.7812 30.0175 13.8386 30.1708C14.1986 31.1472 14.8685 31.993 15.7558 32.5914C16.6431 33.1898 17.704 33.5112 18.7917 33.5112C19.8793 33.5112 20.9402 33.1898 21.8275 32.5914C22.7148 31.993 23.3847 31.1472 23.7447 30.1708Z" stroke="#303838"/>
<path d="M41.1472 69.6172C40.1047 69.6172 39.0857 69.9112 38.2189 70.4622C37.3521 71.0131 36.6765 71.7961 36.2775 72.7123C35.8786 73.6284 35.7742 74.6366 35.9776 75.6091C36.181 76.5817 36.683 77.4751 37.4201 78.1763C38.1573 78.8775 39.0965 79.355 40.1189 79.5485C41.1414 79.7419 42.2012 79.6426 43.1643 79.2631C44.1275 78.8837 44.9507 78.241 45.5299 77.4165C46.109 76.592 46.4182 75.6226 46.4182 74.631C46.4168 73.3017 45.861 72.0272 44.8728 71.0872C43.8846 70.1472 42.5447 69.6185 41.1472 69.6172ZM41.1472 77.1656C40.62 77.1657 40.1045 77.0172 39.6661 76.7386C39.2276 76.4601 38.8858 76.0641 38.684 75.6008C38.4821 75.1375 38.4293 74.6276 38.5321 74.1357C38.6349 73.6438 38.8888 73.192 39.2616 72.8373C39.6344 72.4827 40.1094 72.2412 40.6266 72.1434C41.1437 72.0456 41.6797 72.0959 42.1668 72.2879C42.6539 72.4799 43.0701 72.805 43.363 73.2221C43.6558 73.6391 43.812 74.1295 43.8118 74.631C43.8109 75.3029 43.5298 75.9471 43.0303 76.4222C42.5308 76.8974 41.8536 77.1647 41.1472 77.1656Z" fill="#303838"/>
<path d="M41.1472 69.6172C40.1047 69.6172 39.0857 69.9112 38.2189 70.4622C37.3521 71.0131 36.6765 71.7961 36.2775 72.7123C35.8786 73.6284 35.7742 74.6366 35.9776 75.6091C36.181 76.5817 36.683 77.4751 37.4201 78.1763C38.1573 78.8775 39.0965 79.355 40.1189 79.5485C41.1414 79.7419 42.2012 79.6426 43.1643 79.2631C44.1275 78.8837 44.9507 78.241 45.5299 77.4165C46.109 76.592 46.4182 75.6226 46.4182 74.631C46.4168 73.3017 45.861 72.0272 44.8728 71.0872C43.8846 70.1472 42.5447 69.6185 41.1472 69.6172ZM41.1472 77.1656C40.62 77.1657 40.1045 77.0172 39.6661 76.7386C39.2276 76.4601 38.8858 76.0641 38.684 75.6008C38.4821 75.1375 38.4293 74.6276 38.5321 74.1357C38.6349 73.6438 38.8888 73.192 39.2616 72.8373C39.6344 72.4827 40.1094 72.2412 40.6266 72.1434C41.1437 72.0456 41.6797 72.0959 42.1668 72.2879C42.6539 72.4799 43.0701 72.805 43.363 73.2221C43.6558 73.6391 43.812 74.1295 43.8118 74.631C43.8109 75.3029 43.5298 75.9471 43.0303 76.4222C42.5308 76.8974 41.8536 77.1647 41.1472 77.1656Z" stroke="#303838"/>
<path d="M56.9406 15.6548C57.0778 15.7562 57.2346 15.8309 57.4021 15.8747C57.5696 15.9184 57.7445 15.9304 57.9168 15.9098C58.0892 15.8893 58.2556 15.8366 58.4066 15.7549C58.5575 15.6731 58.6901 15.5639 58.7966 15.4334L64.9687 7.88504C65.0792 7.755 65.1614 7.60529 65.2104 7.44469C65.2594 7.28408 65.2743 7.11579 65.2541 6.94965C65.2339 6.78352 65.1791 6.62288 65.0929 6.47713C65.0067 6.33138 64.8908 6.20343 64.752 6.10079C64.6132 5.99814 64.4543 5.92285 64.2845 5.87931C64.1148 5.83578 63.9376 5.82487 63.7634 5.84724C63.5891 5.8696 63.4214 5.92478 63.2698 6.00956C63.1183 6.09434 62.986 6.207 62.8808 6.34097L56.7087 13.8894C56.6021 14.0198 56.5235 14.1689 56.4774 14.3282C56.4313 14.4875 56.4187 14.6538 56.4403 14.8178C56.4618 14.9817 56.5171 15.14 56.6029 15.2837C56.6888 15.4273 56.8035 15.5534 56.9406 15.6548Z" fill="#303838"/>
<path d="M56.9406 15.6548C57.0778 15.7562 57.2346 15.8309 57.4021 15.8747C57.5696 15.9184 57.7445 15.9304 57.9168 15.9098C58.0892 15.8893 58.2556 15.8366 58.4066 15.7549C58.5575 15.6731 58.6901 15.5639 58.7966 15.4334L64.9687 7.88504C65.0792 7.755 65.1614 7.60529 65.2104 7.44469C65.2594 7.28408 65.2743 7.11579 65.2541 6.94965C65.2339 6.78352 65.1791 6.62288 65.0929 6.47713C65.0067 6.33138 64.8908 6.20343 64.752 6.10079C64.6132 5.99814 64.4543 5.92285 64.2845 5.87931C64.1148 5.83578 63.9376 5.82487 63.7634 5.84724C63.5891 5.8696 63.4214 5.92478 63.2698 6.00956C63.1183 6.09434 62.986 6.207 62.8808 6.34097L56.7087 13.8894C56.6021 14.0198 56.5235 14.1689 56.4774 14.3282C56.4313 14.4875 56.4187 14.6538 56.4403 14.8178C56.4618 14.9817 56.5171 15.14 56.6029 15.2837C56.6888 15.4273 56.8035 15.5534 56.9406 15.6548Z" stroke="#303838"/>
</svg>
