<svg width="100" height="85" viewBox="0 0 100 85" fill="none" xmlns="http://www.w3.org/2000/svg">
<path fill-rule="evenodd" clip-rule="evenodd" d="M66.5 11.8359L74 20.8359L77 17.3359L69.5 9.83594L66.5 11.8359ZM53.5 24.8359L63.5 33.8359L18 77.8359L11 75.8359L9.5 69.8359L11 65.3359L53.5 24.8359Z" fill="#EEEEEE"/>
<path d="M2.5 26.8359V22.8359L11 30.8359L18 28.8359L21 20.3359L12.5 11.3359H17L25 14.3359L28 20.8359V28.8359L38.5 39.3359L29.5 47.3359L21 37.8359L14.5 38.3359L5.5 33.8359L2.5 26.8359Z" fill="#303838"/>
<path d="M48 64.8359L40 56.8359L47 49.3359L56 56.8359H60.5V66.8359H57.5L54.5 74.3359L62 82.3359L61 83.3359L52 80.3359L48 72.8359V64.8359Z" fill="#303838"/>
<path d="M66.5 37.8359L51 20.8359H48.5L51 17.8359L50 10.3359L47.5 7.83594L40 6.83594L47.5 2.33594L56.5 4.33594L79.5 24.8359L76.5 29.8359L79.5 30.8359L82.5 29.8359L87.5 35.8359L79.5 45.3359H74L72 41.8359V36.8359L70.5 34.8359L66.5 37.8359Z" fill="#C4C4C4"/>
<mask id="path-4-outside-1_1348_7523" maskUnits="userSpaceOnUse" x="0" y="0" width="90" height="85" fill="black">
<rect fill="white" width="90" height="85"/>
<path d="M87.7073 32.5417L85.0535 29.8879C84.2601 29.1003 83.1876 28.6583 82.0697 28.6583C80.9518 28.6583 79.8792 29.1003 79.0859 29.8879L78.8796 30.0942L77.9446 29.1591L80.2409 26.8628C80.4806 26.6078 80.6141 26.271 80.6141 25.9209C80.6141 25.5709 80.4806 25.2341 80.2409 24.979L75.7445 20.5239L76.487 19.7814C77.0941 19.1686 77.4347 18.3409 77.4347 17.4783C77.4347 16.6156 77.0941 15.7879 76.487 15.1751L71.2894 9.97745C70.6766 9.37036 69.8489 9.02977 68.9862 9.02977C68.1236 9.02977 67.2959 9.37036 66.6831 9.97745L65.9543 10.72L62.4892 7.26864C60.7034 5.46769 58.6484 3.95542 56.3978 2.78604L56.1366 2.64853C47.5564 -2.05407 40.2687 4.49108 37.5324 7.5299C37.367 7.79499 37.2968 8.10853 37.3334 8.41885C37.37 8.72917 37.5112 9.01777 37.7337 9.23711C37.9563 9.45645 38.2469 9.59346 38.5577 9.62555C38.8685 9.65765 39.181 9.58293 39.4437 9.41369C40.6905 8.37014 42.2933 7.85047 43.9152 7.9639C45.5372 8.07733 47.052 8.81501 48.1415 10.0219C49.2309 11.2289 49.8102 12.8111 49.7575 14.4362C49.7048 16.0612 49.0242 17.6026 47.8589 18.7364C47.6191 18.9914 47.4856 19.3283 47.4856 19.6783C47.4856 20.0283 47.6191 20.3652 47.8589 20.6202L51.6127 24.374L37.8624 38.1243L29.1585 29.4066C29.9496 26.9704 30.0791 24.3676 29.5335 21.8648C28.9879 19.362 27.7869 17.0493 26.0534 15.1634C24.32 13.2774 22.1165 11.8861 19.6685 11.1319C17.2205 10.3777 14.616 10.2878 12.1218 10.8712C11.8974 10.9351 11.693 11.0551 11.5278 11.2198C11.3625 11.3845 11.2419 11.5885 11.1773 11.8127C11.1126 12.0369 11.1061 12.2738 11.1583 12.5012C11.2105 12.7286 11.3196 12.939 11.4755 13.1125L19.437 21.074L17.4432 26.9728L11.5305 29.0079L3.56912 21.0465C3.40496 20.8906 3.20486 20.7777 2.98658 20.7177C2.7683 20.6577 2.53859 20.6526 2.31784 20.7027C2.0911 20.7711 1.88589 20.897 1.72207 21.068C1.55826 21.239 1.4414 21.4495 1.38282 21.679C0.797276 24.1708 0.884753 26.7736 1.63628 29.2205C2.38782 31.6674 3.77638 33.8706 5.6597 35.6042C7.54302 37.3378 9.85337 38.5395 12.354 39.0863C14.8547 39.633 17.4558 39.5051 19.8907 38.7156L28.5947 47.4333L10.7193 65.3087C9.23492 66.7386 8.37595 68.6973 8.32958 70.7579C8.28322 72.8184 9.05323 74.8137 10.4718 76.309L10.568 76.3915C11.9705 77.7903 13.8674 78.5807 15.8481 78.5915C16.9151 78.5841 17.9701 78.3652 18.9519 77.9474C19.9338 77.5296 20.823 76.9214 21.5683 76.1577L39.4437 58.2823L46.9514 65.79C46.1443 68.2234 46.001 70.828 46.5363 73.3353C47.0716 75.8425 48.2661 78.1616 49.9966 80.0532C51.7271 81.9448 53.9309 83.3405 56.3807 84.0963C58.8305 84.8521 61.4376 84.9407 63.933 84.3529C64.1625 84.2943 64.3729 84.1775 64.544 84.0137C64.715 83.8498 64.8408 83.6446 64.9093 83.4179C64.971 83.1901 64.973 82.9503 64.9152 82.7216C64.8574 82.4928 64.7417 82.2827 64.5793 82.1116L56.6316 74.0952L58.6941 68.21L64.5518 66.2162L72.4445 74.1502C72.618 74.3061 72.8284 74.4153 73.0558 74.4674C73.2832 74.5196 73.5201 74.5131 73.7443 74.4484C73.9684 74.3838 74.1725 74.2632 74.3372 74.098C74.5019 73.9327 74.6218 73.7283 74.6858 73.5039C75.2457 71.0191 75.1382 68.4304 74.3744 66.0005C73.6106 63.5706 72.2175 61.3861 70.3366 59.6686C68.4557 57.951 66.1539 56.7616 63.6648 56.2211C61.1757 55.6806 58.5879 55.8083 56.1641 56.591L48.6702 49.0283L62.4205 35.278L66.1743 39.0319C66.4292 39.2776 66.7691 39.4155 67.1231 39.4169C67.4723 39.412 67.8066 39.2743 68.0581 39.0319L70.3407 36.7493L71.2894 37.6843L71.0832 37.9043C70.2922 38.6959 69.8479 39.7691 69.8479 40.8882C69.8479 42.0072 70.2922 43.0804 71.0832 43.872L73.8195 46.4983C74.611 47.2893 75.6843 47.7336 76.8033 47.7336C77.9223 47.7336 78.9956 47.2893 79.7871 46.4983L87.7623 38.5094C88.1587 38.1208 88.4726 37.6563 88.6853 37.1436C88.8979 36.6309 89.0049 36.0806 88.9998 35.5255C88.9978 34.9666 88.8822 34.4138 88.66 33.9009C88.4378 33.388 88.1137 32.9256 87.7073 32.5417ZM68.5669 11.9162C68.6797 11.8026 68.833 11.7383 68.9931 11.7375C69.0703 11.7382 69.1466 11.7544 69.2175 11.7851C69.2883 11.8158 69.3523 11.8604 69.4056 11.9162L74.6032 17.1001C74.6566 17.1546 74.6987 17.2191 74.727 17.2899C74.7553 17.3607 74.7693 17.4364 74.7682 17.5126C74.7712 17.5912 74.7581 17.6695 74.7297 17.7428C74.7013 17.8161 74.6583 17.8828 74.6032 17.9389L73.8607 18.6677L67.8381 12.59L68.5669 11.9162ZM21.1695 36.1856C20.9889 36.0159 20.7657 35.8982 20.5237 35.845C20.2816 35.7917 20.0297 35.8049 19.7945 35.883C18.0036 36.5971 16.0646 36.8602 14.1482 36.6494C12.2317 36.4385 10.3964 35.7601 8.80353 34.6737C7.21069 33.5874 5.90909 32.1264 5.01316 30.4192C4.11723 28.712 3.65441 26.8108 3.66537 24.8828L10.2793 31.5104C10.4585 31.6825 10.681 31.8027 10.9231 31.8584C11.1652 31.9141 11.4179 31.9031 11.6543 31.8267L18.942 29.3104C19.1316 29.2418 19.3037 29.1323 19.4463 28.9897C19.5889 28.8472 19.6984 28.675 19.767 28.4854L22.2695 21.184C22.346 20.9476 22.3569 20.6949 22.3012 20.4528C22.2455 20.2107 22.1253 19.9882 21.9533 19.8089L15.3394 13.195H15.4494C17.3704 13.1976 19.2616 13.6703 20.9579 14.5719C22.6542 15.4735 24.1041 16.7766 25.1809 18.3674C26.2577 19.9583 26.9288 21.7885 27.1356 23.6984C27.3424 25.6083 27.0785 27.5397 26.3671 29.3241C26.2735 29.5674 26.2509 29.8323 26.302 30.0879C26.3531 30.3436 26.4759 30.5794 26.6559 30.7679L35.9236 40.0906L30.4235 45.5908L21.1695 36.1856ZM54.8853 58.9973C55.066 59.167 55.2891 59.2847 55.5312 59.3379C55.7732 59.3912 56.0251 59.378 56.2603 59.2998C58.4012 58.4511 60.7438 58.2475 62.999 58.7142C65.2543 59.1808 67.3236 60.2974 68.9519 61.9261C70.0716 63.0207 70.9583 64.3305 71.5585 65.7767C72.1588 67.2229 72.4601 68.7756 72.4445 70.3413L65.8443 63.7274C65.6651 63.5554 65.4426 63.4352 65.2004 63.3795C64.9583 63.3238 64.7057 63.3348 64.4693 63.4112L57.1541 65.9137C56.9645 65.9824 56.7923 66.0918 56.6497 66.2344C56.5072 66.377 56.3977 66.5492 56.3291 66.7388L53.8265 74.0264C53.7518 74.264 53.7431 74.5174 53.8012 74.7596C53.8593 75.0018 53.9822 75.2236 54.1565 75.4015L60.7704 82.0291H60.6467C58.7263 82.0219 56.8368 81.5455 55.1425 80.6413C53.4483 79.7371 52.0007 78.4325 50.9258 76.8411C49.8509 75.2498 49.1812 73.4198 48.975 71.5105C48.7688 69.6012 49.0323 67.6704 49.7427 65.8862C49.8209 65.651 49.834 65.3991 49.7808 65.1571C49.7275 64.915 49.6098 64.6919 49.4402 64.5112L41.355 56.4123L46.8551 50.9121L54.8853 58.9973ZM19.657 74.2739C18.7038 75.2597 17.3988 75.8277 16.0278 75.8534C14.6568 75.8792 13.3314 75.3607 12.3418 74.4114C11.4183 73.42 10.9234 72.1042 10.9646 70.7499C11.0057 69.3956 11.5797 68.1122 12.5618 67.1788L53.4828 26.3403L60.5642 33.4355L19.657 74.2739ZM67.1506 36.1718L50.6502 19.6714C51.6133 18.3942 52.2171 16.8826 52.399 15.2934C52.5809 13.7041 52.3343 12.0952 51.6848 10.6334C51.0353 9.17158 50.0065 7.91019 48.7051 6.98004C47.4037 6.0499 45.8772 5.48488 44.2838 5.3436C45.8736 4.32451 47.7116 3.75901 49.5993 3.70812C51.4871 3.65723 53.3529 4.12289 54.9953 5.05484L55.1603 5.15109C57.1923 6.18803 59.0484 7.53833 60.6604 9.15243L73.0357 21.5277L77.3946 25.9278L67.1506 36.1718ZM85.8235 36.6256L77.8483 44.6145C77.704 44.7592 77.5325 44.874 77.3438 44.9523C77.155 45.0306 76.9527 45.0709 76.7483 45.0709C76.5439 45.0709 76.3416 45.0306 76.1528 44.9523C75.9641 44.874 75.7926 44.7592 75.6483 44.6145L72.9945 41.9607C72.8498 41.8164 72.735 41.6449 72.6567 41.4561C72.5783 41.2674 72.538 41.065 72.538 40.8607C72.538 40.6563 72.5783 40.4539 72.6567 40.2652C72.735 40.0764 72.8498 39.905 72.9945 39.7606L74.1495 38.6056C74.3893 38.3506 74.5227 38.0137 74.5227 37.6637C74.5227 37.3137 74.3893 36.9768 74.1495 36.7218L72.2519 34.838L76.047 31.0429L77.9446 32.9267C78.2003 33.1705 78.54 33.3065 78.8933 33.3065C79.2466 33.3065 79.5864 33.1705 79.8421 32.9267L80.9696 31.8405C81.114 31.6958 81.2854 31.581 81.4742 31.5027C81.6629 31.4243 81.8653 31.384 82.0697 31.384C82.274 31.384 82.4764 31.4243 82.6652 31.5027C82.8539 31.581 83.0254 31.6958 83.1697 31.8405L85.8235 34.4943C86.1122 34.7879 86.275 35.1825 86.2773 35.5943C86.2617 35.983 86.0996 36.3515 85.8235 36.6256Z"/>
</mask>
<path d="M87.7073 32.5417L85.0535 29.8879C84.2601 29.1003 83.1876 28.6583 82.0697 28.6583C80.9518 28.6583 79.8792 29.1003 79.0859 29.8879L78.8796 30.0942L77.9446 29.1591L80.2409 26.8628C80.4806 26.6078 80.6141 26.271 80.6141 25.9209C80.6141 25.5709 80.4806 25.2341 80.2409 24.979L75.7445 20.5239L76.487 19.7814C77.0941 19.1686 77.4347 18.3409 77.4347 17.4783C77.4347 16.6156 77.0941 15.7879 76.487 15.1751L71.2894 9.97745C70.6766 9.37036 69.8489 9.02977 68.9862 9.02977C68.1236 9.02977 67.2959 9.37036 66.6831 9.97745L65.9543 10.72L62.4892 7.26864C60.7034 5.46769 58.6484 3.95542 56.3978 2.78604L56.1366 2.64853C47.5564 -2.05407 40.2687 4.49108 37.5324 7.5299C37.367 7.79499 37.2968 8.10853 37.3334 8.41885C37.37 8.72917 37.5112 9.01777 37.7337 9.23711C37.9563 9.45645 38.2469 9.59346 38.5577 9.62555C38.8685 9.65765 39.181 9.58293 39.4437 9.41369C40.6905 8.37014 42.2933 7.85047 43.9152 7.9639C45.5372 8.07733 47.052 8.81501 48.1415 10.0219C49.2309 11.2289 49.8102 12.8111 49.7575 14.4362C49.7048 16.0612 49.0242 17.6026 47.8589 18.7364C47.6191 18.9914 47.4856 19.3283 47.4856 19.6783C47.4856 20.0283 47.6191 20.3652 47.8589 20.6202L51.6127 24.374L37.8624 38.1243L29.1585 29.4066C29.9496 26.9704 30.0791 24.3676 29.5335 21.8648C28.9879 19.362 27.7869 17.0493 26.0534 15.1634C24.32 13.2774 22.1165 11.8861 19.6685 11.1319C17.2205 10.3777 14.616 10.2878 12.1218 10.8712C11.8974 10.9351 11.693 11.0551 11.5278 11.2198C11.3625 11.3845 11.2419 11.5885 11.1773 11.8127C11.1126 12.0369 11.1061 12.2738 11.1583 12.5012C11.2105 12.7286 11.3196 12.939 11.4755 13.1125L19.437 21.074L17.4432 26.9728L11.5305 29.0079L3.56912 21.0465C3.40496 20.8906 3.20486 20.7777 2.98658 20.7177C2.7683 20.6577 2.53859 20.6526 2.31784 20.7027C2.0911 20.7711 1.88589 20.897 1.72207 21.068C1.55826 21.239 1.4414 21.4495 1.38282 21.679C0.797276 24.1708 0.884753 26.7736 1.63628 29.2205C2.38782 31.6674 3.77638 33.8706 5.6597 35.6042C7.54302 37.3378 9.85337 38.5395 12.354 39.0863C14.8547 39.633 17.4558 39.5051 19.8907 38.7156L28.5947 47.4333L10.7193 65.3087C9.23492 66.7386 8.37595 68.6973 8.32958 70.7579C8.28322 72.8184 9.05323 74.8137 10.4718 76.309L10.568 76.3915C11.9705 77.7903 13.8674 78.5807 15.8481 78.5915C16.9151 78.5841 17.9701 78.3652 18.9519 77.9474C19.9338 77.5296 20.823 76.9214 21.5683 76.1577L39.4437 58.2823L46.9514 65.79C46.1443 68.2234 46.001 70.828 46.5363 73.3353C47.0716 75.8425 48.2661 78.1616 49.9966 80.0532C51.7271 81.9448 53.9309 83.3405 56.3807 84.0963C58.8305 84.8521 61.4376 84.9407 63.933 84.3529C64.1625 84.2943 64.3729 84.1775 64.544 84.0137C64.715 83.8498 64.8408 83.6446 64.9093 83.4179C64.971 83.1901 64.973 82.9503 64.9152 82.7216C64.8574 82.4928 64.7417 82.2827 64.5793 82.1116L56.6316 74.0952L58.6941 68.21L64.5518 66.2162L72.4445 74.1502C72.618 74.3061 72.8284 74.4153 73.0558 74.4674C73.2832 74.5196 73.5201 74.5131 73.7443 74.4484C73.9684 74.3838 74.1725 74.2632 74.3372 74.098C74.5019 73.9327 74.6218 73.7283 74.6858 73.5039C75.2457 71.0191 75.1382 68.4304 74.3744 66.0005C73.6106 63.5706 72.2175 61.3861 70.3366 59.6686C68.4557 57.951 66.1539 56.7616 63.6648 56.2211C61.1757 55.6806 58.5879 55.8083 56.1641 56.591L48.6702 49.0283L62.4205 35.278L66.1743 39.0319C66.4292 39.2776 66.7691 39.4155 67.1231 39.4169C67.4723 39.412 67.8066 39.2743 68.0581 39.0319L70.3407 36.7493L71.2894 37.6843L71.0832 37.9043C70.2922 38.6959 69.8479 39.7691 69.8479 40.8882C69.8479 42.0072 70.2922 43.0804 71.0832 43.872L73.8195 46.4983C74.611 47.2893 75.6843 47.7336 76.8033 47.7336C77.9223 47.7336 78.9956 47.2893 79.7871 46.4983L87.7623 38.5094C88.1587 38.1208 88.4726 37.6563 88.6853 37.1436C88.8979 36.6309 89.0049 36.0806 88.9998 35.5255C88.9978 34.9666 88.8822 34.4138 88.66 33.9009C88.4378 33.388 88.1137 32.9256 87.7073 32.5417ZM68.5669 11.9162C68.6797 11.8026 68.833 11.7383 68.9931 11.7375C69.0703 11.7382 69.1466 11.7544 69.2175 11.7851C69.2883 11.8158 69.3523 11.8604 69.4056 11.9162L74.6032 17.1001C74.6566 17.1546 74.6987 17.2191 74.727 17.2899C74.7553 17.3607 74.7693 17.4364 74.7682 17.5126C74.7712 17.5912 74.7581 17.6695 74.7297 17.7428C74.7013 17.8161 74.6583 17.8828 74.6032 17.9389L73.8607 18.6677L67.8381 12.59L68.5669 11.9162ZM21.1695 36.1856C20.9889 36.0159 20.7657 35.8982 20.5237 35.845C20.2816 35.7917 20.0297 35.8049 19.7945 35.883C18.0036 36.5971 16.0646 36.8602 14.1482 36.6494C12.2317 36.4385 10.3964 35.7601 8.80353 34.6737C7.21069 33.5874 5.90909 32.1264 5.01316 30.4192C4.11723 28.712 3.65441 26.8108 3.66537 24.8828L10.2793 31.5104C10.4585 31.6825 10.681 31.8027 10.9231 31.8584C11.1652 31.9141 11.4179 31.9031 11.6543 31.8267L18.942 29.3104C19.1316 29.2418 19.3037 29.1323 19.4463 28.9897C19.5889 28.8472 19.6984 28.675 19.767 28.4854L22.2695 21.184C22.346 20.9476 22.3569 20.6949 22.3012 20.4528C22.2455 20.2107 22.1253 19.9882 21.9533 19.8089L15.3394 13.195H15.4494C17.3704 13.1976 19.2616 13.6703 20.9579 14.5719C22.6542 15.4735 24.1041 16.7766 25.1809 18.3674C26.2577 19.9583 26.9288 21.7885 27.1356 23.6984C27.3424 25.6083 27.0785 27.5397 26.3671 29.3241C26.2735 29.5674 26.2509 29.8323 26.302 30.0879C26.3531 30.3436 26.4759 30.5794 26.6559 30.7679L35.9236 40.0906L30.4235 45.5908L21.1695 36.1856ZM54.8853 58.9973C55.066 59.167 55.2891 59.2847 55.5312 59.3379C55.7732 59.3912 56.0251 59.378 56.2603 59.2998C58.4012 58.4511 60.7438 58.2475 62.999 58.7142C65.2543 59.1808 67.3236 60.2974 68.9519 61.9261C70.0716 63.0207 70.9583 64.3305 71.5585 65.7767C72.1588 67.2229 72.4601 68.7756 72.4445 70.3413L65.8443 63.7274C65.6651 63.5554 65.4426 63.4352 65.2004 63.3795C64.9583 63.3238 64.7057 63.3348 64.4693 63.4112L57.1541 65.9137C56.9645 65.9824 56.7923 66.0918 56.6497 66.2344C56.5072 66.377 56.3977 66.5492 56.3291 66.7388L53.8265 74.0264C53.7518 74.264 53.7431 74.5174 53.8012 74.7596C53.8593 75.0018 53.9822 75.2236 54.1565 75.4015L60.7704 82.0291H60.6467C58.7263 82.0219 56.8368 81.5455 55.1425 80.6413C53.4483 79.7371 52.0007 78.4325 50.9258 76.8411C49.8509 75.2498 49.1812 73.4198 48.975 71.5105C48.7688 69.6012 49.0323 67.6704 49.7427 65.8862C49.8209 65.651 49.834 65.3991 49.7808 65.1571C49.7275 64.915 49.6098 64.6919 49.4402 64.5112L41.355 56.4123L46.8551 50.9121L54.8853 58.9973ZM19.657 74.2739C18.7038 75.2597 17.3988 75.8277 16.0278 75.8534C14.6568 75.8792 13.3314 75.3607 12.3418 74.4114C11.4183 73.42 10.9234 72.1042 10.9646 70.7499C11.0057 69.3956 11.5797 68.1122 12.5618 67.1788L53.4828 26.3403L60.5642 33.4355L19.657 74.2739ZM67.1506 36.1718L50.6502 19.6714C51.6133 18.3942 52.2171 16.8826 52.399 15.2934C52.5809 13.7041 52.3343 12.0952 51.6848 10.6334C51.0353 9.17158 50.0065 7.91019 48.7051 6.98004C47.4037 6.0499 45.8772 5.48488 44.2838 5.3436C45.8736 4.32451 47.7116 3.75901 49.5993 3.70812C51.4871 3.65723 53.3529 4.12289 54.9953 5.05484L55.1603 5.15109C57.1923 6.18803 59.0484 7.53833 60.6604 9.15243L73.0357 21.5277L77.3946 25.9278L67.1506 36.1718ZM85.8235 36.6256L77.8483 44.6145C77.704 44.7592 77.5325 44.874 77.3438 44.9523C77.155 45.0306 76.9527 45.0709 76.7483 45.0709C76.5439 45.0709 76.3416 45.0306 76.1528 44.9523C75.9641 44.874 75.7926 44.7592 75.6483 44.6145L72.9945 41.9607C72.8498 41.8164 72.735 41.6449 72.6567 41.4561C72.5783 41.2674 72.538 41.065 72.538 40.8607C72.538 40.6563 72.5783 40.4539 72.6567 40.2652C72.735 40.0764 72.8498 39.905 72.9945 39.7606L74.1495 38.6056C74.3893 38.3506 74.5227 38.0137 74.5227 37.6637C74.5227 37.3137 74.3893 36.9768 74.1495 36.7218L72.2519 34.838L76.047 31.0429L77.9446 32.9267C78.2003 33.1705 78.54 33.3065 78.8933 33.3065C79.2466 33.3065 79.5864 33.1705 79.8421 32.9267L80.9696 31.8405C81.114 31.6958 81.2854 31.581 81.4742 31.5027C81.6629 31.4243 81.8653 31.384 82.0697 31.384C82.274 31.384 82.4764 31.4243 82.6652 31.5027C82.8539 31.581 83.0254 31.6958 83.1697 31.8405L85.8235 34.4943C86.1122 34.7879 86.275 35.1825 86.2773 35.5943C86.2617 35.983 86.0996 36.3515 85.8235 36.6256Z" fill="#303838"/>
<path d="M87.7073 32.5417L85.0535 29.8879C84.2601 29.1003 83.1876 28.6583 82.0697 28.6583C80.9518 28.6583 79.8792 29.1003 79.0859 29.8879L78.8796 30.0942L77.9446 29.1591L80.2409 26.8628C80.4806 26.6078 80.6141 26.271 80.6141 25.9209C80.6141 25.5709 80.4806 25.2341 80.2409 24.979L75.7445 20.5239L76.487 19.7814C77.0941 19.1686 77.4347 18.3409 77.4347 17.4783C77.4347 16.6156 77.0941 15.7879 76.487 15.1751L71.2894 9.97745C70.6766 9.37036 69.8489 9.02977 68.9862 9.02977C68.1236 9.02977 67.2959 9.37036 66.6831 9.97745L65.9543 10.72L62.4892 7.26864C60.7034 5.46769 58.6484 3.95542 56.3978 2.78604L56.1366 2.64853C47.5564 -2.05407 40.2687 4.49108 37.5324 7.5299C37.367 7.79499 37.2968 8.10853 37.3334 8.41885C37.37 8.72917 37.5112 9.01777 37.7337 9.23711C37.9563 9.45645 38.2469 9.59346 38.5577 9.62555C38.8685 9.65765 39.181 9.58293 39.4437 9.41369C40.6905 8.37014 42.2933 7.85047 43.9152 7.9639C45.5372 8.07733 47.052 8.81501 48.1415 10.0219C49.2309 11.2289 49.8102 12.8111 49.7575 14.4362C49.7048 16.0612 49.0242 17.6026 47.8589 18.7364C47.6191 18.9914 47.4856 19.3283 47.4856 19.6783C47.4856 20.0283 47.6191 20.3652 47.8589 20.6202L51.6127 24.374L37.8624 38.1243L29.1585 29.4066C29.9496 26.9704 30.0791 24.3676 29.5335 21.8648C28.9879 19.362 27.7869 17.0493 26.0534 15.1634C24.32 13.2774 22.1165 11.8861 19.6685 11.1319C17.2205 10.3777 14.616 10.2878 12.1218 10.8712C11.8974 10.9351 11.693 11.0551 11.5278 11.2198C11.3625 11.3845 11.2419 11.5885 11.1773 11.8127C11.1126 12.0369 11.1061 12.2738 11.1583 12.5012C11.2105 12.7286 11.3196 12.939 11.4755 13.1125L19.437 21.074L17.4432 26.9728L11.5305 29.0079L3.56912 21.0465C3.40496 20.8906 3.20486 20.7777 2.98658 20.7177C2.7683 20.6577 2.53859 20.6526 2.31784 20.7027C2.0911 20.7711 1.88589 20.897 1.72207 21.068C1.55826 21.239 1.4414 21.4495 1.38282 21.679C0.797276 24.1708 0.884753 26.7736 1.63628 29.2205C2.38782 31.6674 3.77638 33.8706 5.6597 35.6042C7.54302 37.3378 9.85337 38.5395 12.354 39.0863C14.8547 39.633 17.4558 39.5051 19.8907 38.7156L28.5947 47.4333L10.7193 65.3087C9.23492 66.7386 8.37595 68.6973 8.32958 70.7579C8.28322 72.8184 9.05323 74.8137 10.4718 76.309L10.568 76.3915C11.9705 77.7903 13.8674 78.5807 15.8481 78.5915C16.9151 78.5841 17.9701 78.3652 18.9519 77.9474C19.9338 77.5296 20.823 76.9214 21.5683 76.1577L39.4437 58.2823L46.9514 65.79C46.1443 68.2234 46.001 70.828 46.5363 73.3353C47.0716 75.8425 48.2661 78.1616 49.9966 80.0532C51.7271 81.9448 53.9309 83.3405 56.3807 84.0963C58.8305 84.8521 61.4376 84.9407 63.933 84.3529C64.1625 84.2943 64.3729 84.1775 64.544 84.0137C64.715 83.8498 64.8408 83.6446 64.9093 83.4179C64.971 83.1901 64.973 82.9503 64.9152 82.7216C64.8574 82.4928 64.7417 82.2827 64.5793 82.1116L56.6316 74.0952L58.6941 68.21L64.5518 66.2162L72.4445 74.1502C72.618 74.3061 72.8284 74.4153 73.0558 74.4674C73.2832 74.5196 73.5201 74.5131 73.7443 74.4484C73.9684 74.3838 74.1725 74.2632 74.3372 74.098C74.5019 73.9327 74.6218 73.7283 74.6858 73.5039C75.2457 71.0191 75.1382 68.4304 74.3744 66.0005C73.6106 63.5706 72.2175 61.3861 70.3366 59.6686C68.4557 57.951 66.1539 56.7616 63.6648 56.2211C61.1757 55.6806 58.5879 55.8083 56.1641 56.591L48.6702 49.0283L62.4205 35.278L66.1743 39.0319C66.4292 39.2776 66.7691 39.4155 67.1231 39.4169C67.4723 39.412 67.8066 39.2743 68.0581 39.0319L70.3407 36.7493L71.2894 37.6843L71.0832 37.9043C70.2922 38.6959 69.8479 39.7691 69.8479 40.8882C69.8479 42.0072 70.2922 43.0804 71.0832 43.872L73.8195 46.4983C74.611 47.2893 75.6843 47.7336 76.8033 47.7336C77.9223 47.7336 78.9956 47.2893 79.7871 46.4983L87.7623 38.5094C88.1587 38.1208 88.4726 37.6563 88.6853 37.1436C88.8979 36.6309 89.0049 36.0806 88.9998 35.5255C88.9978 34.9666 88.8822 34.4138 88.66 33.9009C88.4378 33.388 88.1137 32.9256 87.7073 32.5417ZM68.5669 11.9162C68.6797 11.8026 68.833 11.7383 68.9931 11.7375C69.0703 11.7382 69.1466 11.7544 69.2175 11.7851C69.2883 11.8158 69.3523 11.8604 69.4056 11.9162L74.6032 17.1001C74.6566 17.1546 74.6987 17.2191 74.727 17.2899C74.7553 17.3607 74.7693 17.4364 74.7682 17.5126C74.7712 17.5912 74.7581 17.6695 74.7297 17.7428C74.7013 17.8161 74.6583 17.8828 74.6032 17.9389L73.8607 18.6677L67.8381 12.59L68.5669 11.9162ZM21.1695 36.1856C20.9889 36.0159 20.7657 35.8982 20.5237 35.845C20.2816 35.7917 20.0297 35.8049 19.7945 35.883C18.0036 36.5971 16.0646 36.8602 14.1482 36.6494C12.2317 36.4385 10.3964 35.7601 8.80353 34.6737C7.21069 33.5874 5.90909 32.1264 5.01316 30.4192C4.11723 28.712 3.65441 26.8108 3.66537 24.8828L10.2793 31.5104C10.4585 31.6825 10.681 31.8027 10.9231 31.8584C11.1652 31.9141 11.4179 31.9031 11.6543 31.8267L18.942 29.3104C19.1316 29.2418 19.3037 29.1323 19.4463 28.9897C19.5889 28.8472 19.6984 28.675 19.767 28.4854L22.2695 21.184C22.346 20.9476 22.3569 20.6949 22.3012 20.4528C22.2455 20.2107 22.1253 19.9882 21.9533 19.8089L15.3394 13.195H15.4494C17.3704 13.1976 19.2616 13.6703 20.9579 14.5719C22.6542 15.4735 24.1041 16.7766 25.1809 18.3674C26.2577 19.9583 26.9288 21.7885 27.1356 23.6984C27.3424 25.6083 27.0785 27.5397 26.3671 29.3241C26.2735 29.5674 26.2509 29.8323 26.302 30.0879C26.3531 30.3436 26.4759 30.5794 26.6559 30.7679L35.9236 40.0906L30.4235 45.5908L21.1695 36.1856ZM54.8853 58.9973C55.066 59.167 55.2891 59.2847 55.5312 59.3379C55.7732 59.3912 56.0251 59.378 56.2603 59.2998C58.4012 58.4511 60.7438 58.2475 62.999 58.7142C65.2543 59.1808 67.3236 60.2974 68.9519 61.9261C70.0716 63.0207 70.9583 64.3305 71.5585 65.7767C72.1588 67.2229 72.4601 68.7756 72.4445 70.3413L65.8443 63.7274C65.6651 63.5554 65.4426 63.4352 65.2004 63.3795C64.9583 63.3238 64.7057 63.3348 64.4693 63.4112L57.1541 65.9137C56.9645 65.9824 56.7923 66.0918 56.6497 66.2344C56.5072 66.377 56.3977 66.5492 56.3291 66.7388L53.8265 74.0264C53.7518 74.264 53.7431 74.5174 53.8012 74.7596C53.8593 75.0018 53.9822 75.2236 54.1565 75.4015L60.7704 82.0291H60.6467C58.7263 82.0219 56.8368 81.5455 55.1425 80.6413C53.4483 79.7371 52.0007 78.4325 50.9258 76.8411C49.8509 75.2498 49.1812 73.4198 48.975 71.5105C48.7688 69.6012 49.0323 67.6704 49.7427 65.8862C49.8209 65.651 49.834 65.3991 49.7808 65.1571C49.7275 64.915 49.6098 64.6919 49.4402 64.5112L41.355 56.4123L46.8551 50.9121L54.8853 58.9973ZM19.657 74.2739C18.7038 75.2597 17.3988 75.8277 16.0278 75.8534C14.6568 75.8792 13.3314 75.3607 12.3418 74.4114C11.4183 73.42 10.9234 72.1042 10.9646 70.7499C11.0057 69.3956 11.5797 68.1122 12.5618 67.1788L53.4828 26.3403L60.5642 33.4355L19.657 74.2739ZM67.1506 36.1718L50.6502 19.6714C51.6133 18.3942 52.2171 16.8826 52.399 15.2934C52.5809 13.7041 52.3343 12.0952 51.6848 10.6334C51.0353 9.17158 50.0065 7.91019 48.7051 6.98004C47.4037 6.0499 45.8772 5.48488 44.2838 5.3436C45.8736 4.32451 47.7116 3.75901 49.5993 3.70812C51.4871 3.65723 53.3529 4.12289 54.9953 5.05484L55.1603 5.15109C57.1923 6.18803 59.0484 7.53833 60.6604 9.15243L73.0357 21.5277L77.3946 25.9278L67.1506 36.1718ZM85.8235 36.6256L77.8483 44.6145C77.704 44.7592 77.5325 44.874 77.3438 44.9523C77.155 45.0306 76.9527 45.0709 76.7483 45.0709C76.5439 45.0709 76.3416 45.0306 76.1528 44.9523C75.9641 44.874 75.7926 44.7592 75.6483 44.6145L72.9945 41.9607C72.8498 41.8164 72.735 41.6449 72.6567 41.4561C72.5783 41.2674 72.538 41.065 72.538 40.8607C72.538 40.6563 72.5783 40.4539 72.6567 40.2652C72.735 40.0764 72.8498 39.905 72.9945 39.7606L74.1495 38.6056C74.3893 38.3506 74.5227 38.0137 74.5227 37.6637C74.5227 37.3137 74.3893 36.9768 74.1495 36.7218L72.2519 34.838L76.047 31.0429L77.9446 32.9267C78.2003 33.1705 78.54 33.3065 78.8933 33.3065C79.2466 33.3065 79.5864 33.1705 79.8421 32.9267L80.9696 31.8405C81.114 31.6958 81.2854 31.581 81.4742 31.5027C81.6629 31.4243 81.8653 31.384 82.0697 31.384C82.274 31.384 82.4764 31.4243 82.6652 31.5027C82.8539 31.581 83.0254 31.6958 83.1697 31.8405L85.8235 34.4943C86.1122 34.7879 86.275 35.1825 86.2773 35.5943C86.2617 35.983 86.0996 36.3515 85.8235 36.6256Z" stroke="#303838" stroke-width="0.4" mask="url(#path-4-outside-1_1348_7523)"/>
<circle cx="79.9768" cy="64.8116" r="18.1163" fill="#C0D6E3"/>
<path d="M79.5 43.8359C68.184 43.8359 59 53.0199 59 64.3359C59 75.6519 68.184 84.8359 79.5 84.8359C90.816 84.8359 100 75.6519 100 64.3359C100 53.0199 90.816 43.8359 79.5 43.8359ZM79.5 81.5559C69.988 81.5559 62.28 73.8479 62.28 64.3359C62.28 54.8239 69.988 47.1159 79.5 47.1159C89.012 47.1159 96.72 54.8239 96.72 64.3359C96.72 73.8479 89.012 81.5559 79.5 81.5559Z" fill="#303838"/>
<path d="M88.766 67.9468L80.976 63.4368V52.9408C80.976 52.1208 80.32 51.3828 79.418 51.3828C78.516 51.3828 77.86 52.0388 77.86 52.9408V64.3388C78.024 65.0768 78.27 65.4048 78.762 65.7328L87.126 70.5708C87.864 70.9808 88.766 70.7348 89.176 69.9968C89.75 69.3408 89.504 68.3568 88.766 67.9468Z" fill="#303838"/>
</svg>
