<svg width="84" height="88" viewBox="0 0 84 88" fill="none" xmlns="http://www.w3.org/2000/svg">
<path d="M3 82V15H14.5V2.5H52.5H57.5L61 7V34H55.5L44.5 41L40 51.5L43.5 65.5L52.5 73.5L61 74.5V83.5L55.5 86H19L6 84.5L3 82Z" fill="#EEEEEE"/>
<path d="M14.5 15V3L2 13.5L14.5 15Z" fill="#C4C4C4"/>
<path d="M57.5 63.4825L47 69.4825L43.5 65.4825L40 58.4825L41.5 45.9825C45 39.1492 56.2 27.9825 73 37.9825C89.8 47.9825 80.6667 63.1492 74 69.4825L70.5 67.4825L63 62.9825C65 61.1492 69.3 56.2825 70.5 51.4825C71.7 46.6825 67 44.1492 64.5 43.4825C63.1667 42.6492 59.1 41.9825 53.5 45.9825C47.9 49.9825 52.1667 57.3159 55 60.4825L57.5 63.4825Z" fill="#618E81"/>
<circle cx="20.5" cy="62.5" r="8.5" fill="#C0E3C0"/>
<circle cx="44.5" cy="21.5" r="8.5" fill="#C0E3C0"/>
<mask id="path-6-outside-1_1348_7562" maskUnits="userSpaceOnUse" x="0" y="0" width="84" height="88" fill="black">
<rect fill="white" width="84" height="88"/>
<path d="M54.7705 21.1622C54.7705 19.06 54.0983 16.9578 52.8501 15.2378L56.6909 11.0333C57.3432 10.3841 57.3384 9.57554 56.6909 8.93111C56.0434 8.28668 55.1478 8.55567 54.5784 9.12222L50.8338 13.1356C48.9925 11.6467 46.593 10.7378 44.2084 10.7471C38.6616 10.7689 33.9344 15.5146 33.9344 21.0667C33.9344 26.6954 38.3307 31.6733 44.2084 31.6733C49.7758 31.6733 54.7705 26.7027 54.7705 21.1622ZM36.815 21.1622C36.815 17.0229 40.2412 13.6133 44.4004 13.6133C46.1288 13.6133 47.7611 14.1867 49.1055 15.2378L43.7283 21.0667L41.0398 19.4422C40.2677 19.058 39.6945 19.2523 39.1194 19.8244C38.7331 20.5935 38.8928 21.4317 39.6955 21.8311L43.3443 24.0289C43.9204 24.4111 44.5557 24.1807 45.0727 23.8378L51.0258 17.4356C51.698 18.5822 52.082 19.92 52.082 21.2578C52.082 25.5186 48.6112 28.7111 44.4004 28.7111C40.2412 28.7111 36.815 25.3015 36.815 21.1622ZM11.466 27.0867H29.2296C30.0925 27.0867 30.6699 26.5006 30.6699 25.6533C30.6699 24.8554 30.052 24.22 29.2296 24.22H11.466C10.6031 24.22 10.0257 24.806 10.0257 25.6533C10.0257 26.4827 10.6333 27.0867 11.466 27.0867ZM11.466 35.5911H23.7564C24.6194 35.5911 25.1967 35.0051 25.1967 34.1578C25.1967 33.3285 24.5892 32.7244 23.7564 32.7244H11.466C10.6031 32.7244 10.0257 33.3105 10.0257 34.1578C10.0257 34.7207 10.3138 35.5911 11.466 35.5911ZM11.466 44.1911H29.2296C30.0925 44.1911 30.6699 43.6051 30.6699 42.7578C30.6699 41.9599 30.052 41.3244 29.2296 41.3244H11.466C10.6031 41.3244 10.0257 41.9105 10.0257 42.7578C10.0257 43.5871 10.6333 44.1911 11.466 44.1911ZM30.8619 51.6444L27.5972 55.2756C25.6768 53.3644 22.9883 52.3133 20.2997 52.3133C14.7424 52.3133 9.94516 56.5901 9.54563 62.1556C9.10951 68.2319 14.2054 73.6181 20.2997 73.5356C28.4346 73.4254 33.615 64.1123 29.3255 57.2822L32.9742 53.3644C33.4281 52.687 33.4885 52.0607 32.8782 51.4533C32.3469 50.9246 31.2923 51.0018 30.8619 51.6444ZM20.2997 70.2552C15.9018 70.2707 12.399 66.4617 12.7238 62.1556C13.0197 58.2339 16.3721 55.2393 20.2997 55.1693C22.2278 55.1349 24.182 55.9895 25.5809 57.2822L19.8196 63.4933L17.1311 61.8689C16.5592 61.4894 15.7537 61.8227 15.4028 62.3467C15.0025 62.9443 15.2047 63.776 15.7868 64.1622L19.4356 66.36C20.0118 66.7422 20.647 66.5118 21.1639 66.1689L27.3092 59.5756C29.741 64.4156 25.4981 70.2368 20.2997 70.2552ZM83 54.32C83 43.0388 73.9505 33.4049 62.644 32.6289V9.02667C62.644 4.71273 58.9199 1 54.5784 1H14.9227C14.5386 1 14.2505 1.09556 13.9625 1.38222L1.48009 13.04C1.19204 13.3267 1.09602 13.6133 1 13.9956V78.9733C1 83.2873 4.72414 87 9.06553 87H54.5784C58.9133 87 62.644 83.2939 62.644 78.9733V76.0111C73.9393 75.2359 83 65.583 83 54.32ZM80.2155 54.32C80.2155 59.5932 77.9931 64.5576 74.1663 68.1756C71.8618 65.5956 68.7892 63.78 65.4286 62.92C69.554 61.2778 72.1288 57.0492 72.1598 52.6956C72.202 46.7502 67.1359 41.6111 61.1078 41.6111C54.9754 41.6111 50.0713 46.6604 50.0383 52.6956C50.014 57.1471 52.7541 61.0806 56.787 62.92C53.4263 63.78 50.3537 65.5956 48.0492 68.1756C44.2703 64.5717 42.0253 59.6302 41.9929 54.4156C41.9232 43.2332 51.86 34.7438 62.74 35.4C72.4368 36.2773 80.2155 44.6609 80.2155 54.32ZM61.0118 73.3356C57.075 73.3356 53.2343 72.0933 50.0657 69.8956C52.7745 66.8147 56.9269 65.1178 61.0118 65.1178C65.1691 65.1178 69.1172 66.8801 71.9578 69.8956C68.7892 72.1889 64.9486 73.3356 61.0118 73.3356ZM52.6581 52.6956C52.6581 48.131 56.523 44.2702 61.1078 44.326C65.6799 44.3817 69.3945 48.2127 69.4223 52.6956C69.4501 57.1839 65.5239 61.0089 61.0118 61.0089C56.4436 61.0089 52.6581 57.2305 52.6581 52.6956ZM13.2904 5.77778V12.9444H5.60885L13.2904 5.77778ZM54.5784 84.2289H9.06553C6.17018 84.2289 3.7845 81.8548 3.7845 78.9733V15.7156H14.6346C15.4681 15.7156 16.0749 15.1109 16.0749 14.2822V3.77111H54.5784C57.4739 3.77111 59.8595 6.14519 59.8595 9.02667V32.6289C48.4111 33.2182 39.1194 43.0136 39.1194 54.4156C39.1194 60.0533 41.2319 65.4044 45.1686 69.4178C49.0093 73.4311 54.2904 75.9156 59.8595 76.2022V79.0689C59.8595 82.0313 57.5031 84.2289 54.5784 84.2289Z"/>
</mask>
<path d="M54.7705 21.1622C54.7705 19.06 54.0983 16.9578 52.8501 15.2378L56.6909 11.0333C57.3432 10.3841 57.3384 9.57554 56.6909 8.93111C56.0434 8.28668 55.1478 8.55567 54.5784 9.12222L50.8338 13.1356C48.9925 11.6467 46.593 10.7378 44.2084 10.7471C38.6616 10.7689 33.9344 15.5146 33.9344 21.0667C33.9344 26.6954 38.3307 31.6733 44.2084 31.6733C49.7758 31.6733 54.7705 26.7027 54.7705 21.1622ZM36.815 21.1622C36.815 17.0229 40.2412 13.6133 44.4004 13.6133C46.1288 13.6133 47.7611 14.1867 49.1055 15.2378L43.7283 21.0667L41.0398 19.4422C40.2677 19.058 39.6945 19.2523 39.1194 19.8244C38.7331 20.5935 38.8928 21.4317 39.6955 21.8311L43.3443 24.0289C43.9204 24.4111 44.5557 24.1807 45.0727 23.8378L51.0258 17.4356C51.698 18.5822 52.082 19.92 52.082 21.2578C52.082 25.5186 48.6112 28.7111 44.4004 28.7111C40.2412 28.7111 36.815 25.3015 36.815 21.1622ZM11.466 27.0867H29.2296C30.0925 27.0867 30.6699 26.5006 30.6699 25.6533C30.6699 24.8554 30.052 24.22 29.2296 24.22H11.466C10.6031 24.22 10.0257 24.806 10.0257 25.6533C10.0257 26.4827 10.6333 27.0867 11.466 27.0867ZM11.466 35.5911H23.7564C24.6194 35.5911 25.1967 35.0051 25.1967 34.1578C25.1967 33.3285 24.5892 32.7244 23.7564 32.7244H11.466C10.6031 32.7244 10.0257 33.3105 10.0257 34.1578C10.0257 34.7207 10.3138 35.5911 11.466 35.5911ZM11.466 44.1911H29.2296C30.0925 44.1911 30.6699 43.6051 30.6699 42.7578C30.6699 41.9599 30.052 41.3244 29.2296 41.3244H11.466C10.6031 41.3244 10.0257 41.9105 10.0257 42.7578C10.0257 43.5871 10.6333 44.1911 11.466 44.1911ZM30.8619 51.6444L27.5972 55.2756C25.6768 53.3644 22.9883 52.3133 20.2997 52.3133C14.7424 52.3133 9.94516 56.5901 9.54563 62.1556C9.10951 68.2319 14.2054 73.6181 20.2997 73.5356C28.4346 73.4254 33.615 64.1123 29.3255 57.2822L32.9742 53.3644C33.4281 52.687 33.4885 52.0607 32.8782 51.4533C32.3469 50.9246 31.2923 51.0018 30.8619 51.6444ZM20.2997 70.2552C15.9018 70.2707 12.399 66.4617 12.7238 62.1556C13.0197 58.2339 16.3721 55.2393 20.2997 55.1693C22.2278 55.1349 24.182 55.9895 25.5809 57.2822L19.8196 63.4933L17.1311 61.8689C16.5592 61.4894 15.7537 61.8227 15.4028 62.3467C15.0025 62.9443 15.2047 63.776 15.7868 64.1622L19.4356 66.36C20.0118 66.7422 20.647 66.5118 21.1639 66.1689L27.3092 59.5756C29.741 64.4156 25.4981 70.2368 20.2997 70.2552ZM83 54.32C83 43.0388 73.9505 33.4049 62.644 32.6289V9.02667C62.644 4.71273 58.9199 1 54.5784 1H14.9227C14.5386 1 14.2505 1.09556 13.9625 1.38222L1.48009 13.04C1.19204 13.3267 1.09602 13.6133 1 13.9956V78.9733C1 83.2873 4.72414 87 9.06553 87H54.5784C58.9133 87 62.644 83.2939 62.644 78.9733V76.0111C73.9393 75.2359 83 65.583 83 54.32ZM80.2155 54.32C80.2155 59.5932 77.9931 64.5576 74.1663 68.1756C71.8618 65.5956 68.7892 63.78 65.4286 62.92C69.554 61.2778 72.1288 57.0492 72.1598 52.6956C72.202 46.7502 67.1359 41.6111 61.1078 41.6111C54.9754 41.6111 50.0713 46.6604 50.0383 52.6956C50.014 57.1471 52.7541 61.0806 56.787 62.92C53.4263 63.78 50.3537 65.5956 48.0492 68.1756C44.2703 64.5717 42.0253 59.6302 41.9929 54.4156C41.9232 43.2332 51.86 34.7438 62.74 35.4C72.4368 36.2773 80.2155 44.6609 80.2155 54.32ZM61.0118 73.3356C57.075 73.3356 53.2343 72.0933 50.0657 69.8956C52.7745 66.8147 56.9269 65.1178 61.0118 65.1178C65.1691 65.1178 69.1172 66.8801 71.9578 69.8956C68.7892 72.1889 64.9486 73.3356 61.0118 73.3356ZM52.6581 52.6956C52.6581 48.131 56.523 44.2702 61.1078 44.326C65.6799 44.3817 69.3945 48.2127 69.4223 52.6956C69.4501 57.1839 65.5239 61.0089 61.0118 61.0089C56.4436 61.0089 52.6581 57.2305 52.6581 52.6956ZM13.2904 5.77778V12.9444H5.60885L13.2904 5.77778ZM54.5784 84.2289H9.06553C6.17018 84.2289 3.7845 81.8548 3.7845 78.9733V15.7156H14.6346C15.4681 15.7156 16.0749 15.1109 16.0749 14.2822V3.77111H54.5784C57.4739 3.77111 59.8595 6.14519 59.8595 9.02667V32.6289C48.4111 33.2182 39.1194 43.0136 39.1194 54.4156C39.1194 60.0533 41.2319 65.4044 45.1686 69.4178C49.0093 73.4311 54.2904 75.9156 59.8595 76.2022V79.0689C59.8595 82.0313 57.5031 84.2289 54.5784 84.2289Z" fill="#303838"/>
<path d="M54.7705 21.1622C54.7705 19.06 54.0983 16.9578 52.8501 15.2378L56.6909 11.0333C57.3432 10.3841 57.3384 9.57554 56.6909 8.93111C56.0434 8.28668 55.1478 8.55567 54.5784 9.12222L50.8338 13.1356C48.9925 11.6467 46.593 10.7378 44.2084 10.7471C38.6616 10.7689 33.9344 15.5146 33.9344 21.0667C33.9344 26.6954 38.3307 31.6733 44.2084 31.6733C49.7758 31.6733 54.7705 26.7027 54.7705 21.1622ZM36.815 21.1622C36.815 17.0229 40.2412 13.6133 44.4004 13.6133C46.1288 13.6133 47.7611 14.1867 49.1055 15.2378L43.7283 21.0667L41.0398 19.4422C40.2677 19.058 39.6945 19.2523 39.1194 19.8244C38.7331 20.5935 38.8928 21.4317 39.6955 21.8311L43.3443 24.0289C43.9204 24.4111 44.5557 24.1807 45.0727 23.8378L51.0258 17.4356C51.698 18.5822 52.082 19.92 52.082 21.2578C52.082 25.5186 48.6112 28.7111 44.4004 28.7111C40.2412 28.7111 36.815 25.3015 36.815 21.1622ZM11.466 27.0867H29.2296C30.0925 27.0867 30.6699 26.5006 30.6699 25.6533C30.6699 24.8554 30.052 24.22 29.2296 24.22H11.466C10.6031 24.22 10.0257 24.806 10.0257 25.6533C10.0257 26.4827 10.6333 27.0867 11.466 27.0867ZM11.466 35.5911H23.7564C24.6194 35.5911 25.1967 35.0051 25.1967 34.1578C25.1967 33.3285 24.5892 32.7244 23.7564 32.7244H11.466C10.6031 32.7244 10.0257 33.3105 10.0257 34.1578C10.0257 34.7207 10.3138 35.5911 11.466 35.5911ZM11.466 44.1911H29.2296C30.0925 44.1911 30.6699 43.6051 30.6699 42.7578C30.6699 41.9599 30.052 41.3244 29.2296 41.3244H11.466C10.6031 41.3244 10.0257 41.9105 10.0257 42.7578C10.0257 43.5871 10.6333 44.1911 11.466 44.1911ZM30.8619 51.6444L27.5972 55.2756C25.6768 53.3644 22.9883 52.3133 20.2997 52.3133C14.7424 52.3133 9.94516 56.5901 9.54563 62.1556C9.10951 68.2319 14.2054 73.6181 20.2997 73.5356C28.4346 73.4254 33.615 64.1123 29.3255 57.2822L32.9742 53.3644C33.4281 52.687 33.4885 52.0607 32.8782 51.4533C32.3469 50.9246 31.2923 51.0018 30.8619 51.6444ZM20.2997 70.2552C15.9018 70.2707 12.399 66.4617 12.7238 62.1556C13.0197 58.2339 16.3721 55.2393 20.2997 55.1693C22.2278 55.1349 24.182 55.9895 25.5809 57.2822L19.8196 63.4933L17.1311 61.8689C16.5592 61.4894 15.7537 61.8227 15.4028 62.3467C15.0025 62.9443 15.2047 63.776 15.7868 64.1622L19.4356 66.36C20.0118 66.7422 20.647 66.5118 21.1639 66.1689L27.3092 59.5756C29.741 64.4156 25.4981 70.2368 20.2997 70.2552ZM83 54.32C83 43.0388 73.9505 33.4049 62.644 32.6289V9.02667C62.644 4.71273 58.9199 1 54.5784 1H14.9227C14.5386 1 14.2505 1.09556 13.9625 1.38222L1.48009 13.04C1.19204 13.3267 1.09602 13.6133 1 13.9956V78.9733C1 83.2873 4.72414 87 9.06553 87H54.5784C58.9133 87 62.644 83.2939 62.644 78.9733V76.0111C73.9393 75.2359 83 65.583 83 54.32ZM80.2155 54.32C80.2155 59.5932 77.9931 64.5576 74.1663 68.1756C71.8618 65.5956 68.7892 63.78 65.4286 62.92C69.554 61.2778 72.1288 57.0492 72.1598 52.6956C72.202 46.7502 67.1359 41.6111 61.1078 41.6111C54.9754 41.6111 50.0713 46.6604 50.0383 52.6956C50.014 57.1471 52.7541 61.0806 56.787 62.92C53.4263 63.78 50.3537 65.5956 48.0492 68.1756C44.2703 64.5717 42.0253 59.6302 41.9929 54.4156C41.9232 43.2332 51.86 34.7438 62.74 35.4C72.4368 36.2773 80.2155 44.6609 80.2155 54.32ZM61.0118 73.3356C57.075 73.3356 53.2343 72.0933 50.0657 69.8956C52.7745 66.8147 56.9269 65.1178 61.0118 65.1178C65.1691 65.1178 69.1172 66.8801 71.9578 69.8956C68.7892 72.1889 64.9486 73.3356 61.0118 73.3356ZM52.6581 52.6956C52.6581 48.131 56.523 44.2702 61.1078 44.326C65.6799 44.3817 69.3945 48.2127 69.4223 52.6956C69.4501 57.1839 65.5239 61.0089 61.0118 61.0089C56.4436 61.0089 52.6581 57.2305 52.6581 52.6956ZM13.2904 5.77778V12.9444H5.60885L13.2904 5.77778ZM54.5784 84.2289H9.06553C6.17018 84.2289 3.7845 81.8548 3.7845 78.9733V15.7156H14.6346C15.4681 15.7156 16.0749 15.1109 16.0749 14.2822V3.77111H54.5784C57.4739 3.77111 59.8595 6.14519 59.8595 9.02667V32.6289C48.4111 33.2182 39.1194 43.0136 39.1194 54.4156C39.1194 60.0533 41.2319 65.4044 45.1686 69.4178C49.0093 73.4311 54.2904 75.9156 59.8595 76.2022V79.0689C59.8595 82.0313 57.5031 84.2289 54.5784 84.2289Z" stroke="#303838" stroke-width="0.2" mask="url(#path-6-outside-1_1348_7562)"/>
</svg>
