<svg width="107" height="91" viewBox="0 0 107 91" fill="none" xmlns="http://www.w3.org/2000/svg">
<circle cx="73.5794" cy="57.7656" r="25.5" transform="rotate(-15 73.5794 57.7656)" fill="#DEBD7C"/>
<path d="M55.7 62.2847C56.0229 63.4919 56.4669 64.6634 57.0252 65.7813C57.7675 67.4024 55.4753 68.5507 54.6204 66.985C53.0516 63.8543 52.2847 60.3831 52.3885 56.8828C52.4923 53.382 53.4639 49.9617 55.216 46.9291L55.2161 46.9292L55.2177 46.926C55.3025 46.7665 55.4185 46.6257 55.5589 46.5119C55.6992 46.3982 55.8611 46.3139 56.0347 46.2641C56.2084 46.2142 56.3903 46.1999 56.5696 46.2219C56.7489 46.2439 56.9219 46.3018 57.0784 46.3921C57.2348 46.4824 57.3715 46.6034 57.4802 46.7476C57.5889 46.8919 57.6674 47.0566 57.7111 47.2319C57.7548 47.4072 57.7627 47.5895 57.7344 47.768C57.7061 47.9464 57.6421 48.1173 57.5463 48.2704L57.5463 48.2704L57.5446 48.2732C56.3261 50.3708 55.5357 52.6892 55.219 55.0943C54.9024 57.4993 55.0659 59.9433 55.7 62.2847ZM55.7 62.2847C55.7 62.2847 55.7 62.2848 55.7 62.2848L55.7966 62.2587L55.7 62.2845C55.7 62.2846 55.7 62.2846 55.7 62.2847Z" fill="#303838" stroke="#DEBD7C" stroke-width="0.2"/>
<path d="M61.6505 43.3721L61.6505 43.372L61.6489 43.3735C61.5148 43.4941 61.3579 43.5865 61.1874 43.6452C61.0169 43.704 60.8363 43.7279 60.6564 43.7154C60.4765 43.703 60.3009 43.6545 60.1401 43.5728C59.9793 43.4912 59.8365 43.378 59.7203 43.2401C59.6042 43.1022 59.5169 42.9423 59.4637 42.77C59.4105 42.5976 59.3926 42.4164 59.4109 42.237C59.4291 42.0575 59.4833 41.8836 59.5702 41.7256C59.657 41.5675 59.7747 41.4285 59.9164 41.3169L59.9164 41.317L59.9198 41.3141C71.4616 31.3573 90.1953 37.2439 93.9689 52.031L93.9692 52.0321C95.1907 56.5944 94.8505 61.4341 93.0028 65.7806C91.1552 70.1271 87.9064 73.7305 83.7737 76.0168C79.6411 78.3031 74.8623 79.1409 70.1983 78.3968C65.5344 77.6526 61.2536 75.3694 58.0375 71.9106L58.0375 71.9105C57.917 71.7812 57.8232 71.6295 57.7614 71.4639C57.6996 71.2984 57.671 71.1223 57.6773 70.9457C57.6835 70.7691 57.7245 70.5955 57.7978 70.4348C57.8712 70.274 57.9755 70.1293 58.1047 70.0088C58.234 69.8884 58.3858 69.7946 58.5513 69.7328C58.7168 69.671 58.8929 69.6424 59.0695 69.6486C59.2461 69.6549 59.4197 69.6958 59.5805 69.7692C59.7412 69.8425 59.886 69.9468 60.0064 70.0761L60.007 70.0767C73.2011 84.0042 96.139 71.3212 91.3707 52.7296C88.077 39.8199 71.728 34.6834 61.6505 43.3721Z" fill="#303838" stroke="#DEBD7C" stroke-width="0.2"/>
<path d="M97.0807 51.1995L97.0808 51.1995L97.0797 51.1954C95.4004 44.9555 91.3144 39.6366 85.7182 36.4056C80.122 33.1746 73.4727 32.2956 67.2291 33.9612L67.2289 33.9613C60.9888 35.6406 55.6696 39.7266 52.4383 45.3228C49.2069 50.919 48.3273 57.5685 49.9924 63.8124L49.9923 63.8124L49.9936 63.8165C59.6551 94.688 104.157 82.775 97.0807 51.1995ZM60.0107 80.9314C53.7963 77.3439 49.2588 71.4378 47.3936 64.5089C45.5445 57.5757 46.521 50.1921 50.1091 43.978C53.6968 37.7646 59.6025 33.2278 66.5307 31.3629C101.586 23.505 114.838 72.9153 80.5398 83.6455C73.6073 85.4946 66.2245 84.5185 60.0107 80.9314Z" fill="#303838" stroke="#DEBD7C" stroke-width="0.2"/>
<path d="M69.6144 64.7627L69.6144 64.7627L69.6162 64.7638C71.0893 65.6824 72.8161 66.1091 74.5475 65.9822L74.6681 65.9734L74.6368 65.8566L72.6281 58.3601L72.6086 58.2873L72.5332 58.286C71.2888 58.2643 69.7811 58.1773 68.4665 57.654C67.1576 57.133 66.0416 56.1803 65.5696 54.4186C64.8161 51.6067 66.5947 48.426 69.5108 47.043L69.5861 47.0073L69.5645 46.9268L69.1026 45.2027C69.0102 44.8581 69.0586 44.4909 69.237 44.1819C69.4154 43.8729 69.7092 43.6475 70.0538 43.5551C70.3984 43.4628 70.7656 43.5111 71.0746 43.6895C71.3836 43.8679 71.6091 44.1617 71.7014 44.5064L72.154 46.1955L72.1766 46.28L72.2634 46.2688C75.9255 45.7975 78.4479 47.2984 78.5779 47.3774C78.9574 47.6253 79.1513 47.9458 79.2107 48.2707C79.2706 48.5979 79.1953 48.9369 79.0226 49.2199C78.8499 49.5029 78.5823 49.7254 78.2634 49.823C77.9463 49.92 77.5715 49.8955 77.177 49.6733L77.177 49.6732L77.1729 49.6711C75.8831 49.0216 74.435 48.7531 72.9981 48.8971L72.881 48.9088L72.9115 49.0224L74.6664 55.572L74.685 55.6413L74.7565 55.6459C76.9525 55.7888 78.6949 56.2586 79.9815 57.044C81.2654 57.8278 82.0993 58.9282 82.4786 60.344C82.9149 61.9724 82.4509 63.769 81.1601 65.3919C80.3232 66.4406 79.2566 67.2831 78.0427 67.8545L77.9671 67.8901L77.9887 67.9709L78.4444 69.6717C78.5368 70.0163 78.4884 70.3835 78.31 70.6925C78.1316 71.0014 77.8378 71.2269 77.4932 71.3192C77.1486 71.4116 76.7814 71.3632 76.4724 71.1848C76.1634 71.0065 75.9379 70.7126 75.8456 70.368L75.3924 68.6765L75.3699 68.5927L75.2838 68.6031C72.7569 68.9086 70.2024 68.3266 68.0572 66.957C66.6486 65.8758 68.1256 63.7893 69.6144 64.7627ZM77.2256 65.123L77.2592 65.2485L77.3719 65.1839C78.2494 64.6811 78.9572 63.9601 79.4056 63.2108C79.8523 62.4644 80.0499 61.675 79.8798 61.0403C79.4865 59.5724 78.0383 58.7209 75.5713 58.418L75.4242 58.4L75.4626 58.5432L77.2256 65.123ZM70.3301 49.7839L70.295 49.6531L70.1803 49.7252C68.7273 50.6382 67.7868 52.298 68.164 53.7059L68.1659 53.7129C68.3417 54.369 68.7073 54.8056 69.3004 55.0877C69.8855 55.3661 70.6886 55.4926 71.7389 55.5472L71.8763 55.5544L71.8407 55.4215L70.3301 49.7839Z" fill="#303838" stroke="#DEBD7C" stroke-width="0.2"/>
<path d="M63.9499 4.43792L60.6292 1.70423L36.4811 8.1747L11.4135 53.7144L42.998 71.1333L68.8074 26.4301L63.9499 4.43792Z" fill="#618E81"/>
<path d="M44 49L30 40.5L36.5 30L34 28.5L48 25L53 39L50.5 37.5L44 49Z" fill="#EEEEEE"/>
<path d="M52.9999 38.999L35 28.999V28.5L48 25.5L52.9999 38.999Z" fill="#004D40"/>
<circle cx="54" cy="17" r="2" fill="white"/>
<path d="M39.5 45.5L35 43L38 38.5L43 39.5L39.5 45.5Z" fill="#C4C4C4"/>
<mask id="path-11-outside-1_1348_7534" maskUnits="userSpaceOnUse" x="-1.22462" y="-1.13392" width="82.0579" height="82.0579" fill="black">
<rect fill="white" x="-1.22462" y="-1.13392" width="82.0579" height="82.0579"/>
<path d="M61.9509 2.05243C61.2747 1.65931 60.5247 1.40982 59.7477 1.31954C58.9708 1.22925 58.1835 1.3001 57.4352 1.52767L38.2162 7.30629C36.8172 7.72457 35.6317 8.66309 34.9036 9.92878L10.0231 53.0234C9.87112 53.2866 9.82994 53.5995 9.90861 53.8931C9.98728 54.1867 10.1794 54.437 10.4426 54.589L42.2071 72.9282C42.4704 73.0802 42.7832 73.1214 43.0768 73.0427C43.3704 72.964 43.6207 72.772 43.7727 72.5087L68.6533 29.4144C69.3853 28.1509 69.6054 26.655 69.2681 25.2343L64.663 5.70085C64.4868 4.93864 64.1549 4.22109 63.6882 3.59325C63.2215 2.9654 62.63 2.44082 61.9509 2.05243ZM67.0368 25.7602C67.2389 26.6125 67.107 27.5098 66.6682 28.2679L42.3608 70.3705L12.5807 53.177L36.8887 11.075C37.3258 10.3159 38.0369 9.75306 38.8761 9.50193L58.0951 3.7233C58.5443 3.58826 59.0163 3.54655 59.4823 3.60074C59.9482 3.65493 60.3981 3.80387 60.8043 4.03841C61.2105 4.27294 61.5645 4.5881 61.8444 4.9645C62.1243 5.34091 62.3242 5.7706 62.4318 6.22714L67.0368 25.7602ZM50.2821 15.3855C49.8261 16.1754 49.7025 17.114 49.9385 17.995C50.1746 18.876 50.751 19.6272 51.5409 20.0832C52.3307 20.5393 53.2694 20.6628 54.1504 20.4268C55.0314 20.1907 55.7826 19.6143 56.2386 18.8245L56.2391 18.8243C56.6951 18.0344 56.8186 17.0957 56.5824 16.2147C56.3462 15.3337 55.7698 14.5827 54.9798 14.1267C54.1899 13.6708 53.2512 13.5473 52.3702 13.7835C51.4893 14.0196 50.7382 14.5961 50.2822 15.386L50.2821 15.3855ZM54.2533 17.6774C54.14 17.8737 53.9709 18.0319 53.7676 18.1322C53.5643 18.2324 53.3358 18.2701 53.1111 18.2404C52.8864 18.2108 52.6755 18.1152 52.5051 17.9658C52.3346 17.8163 52.2124 17.6197 52.1537 17.4007C52.095 17.1818 52.1026 16.9503 52.1755 16.7357C52.2483 16.521 52.3832 16.3328 52.563 16.1948C52.7428 16.0568 52.9595 15.9752 53.1857 15.9603C53.4118 15.9454 53.6374 15.998 53.8337 16.1113C54.0967 16.2636 54.2886 16.514 54.3673 16.8076C54.446 17.1012 54.405 17.414 54.2533 17.6774ZM42.8212 62.6952C42.9531 62.7697 43.0689 62.8695 43.1619 62.989C43.255 63.1085 43.3234 63.2452 43.3633 63.3913C43.4032 63.5374 43.4137 63.6899 43.3943 63.8401C43.3749 63.9903 43.326 64.1352 43.2502 64.2663C43.1745 64.3975 43.0736 64.5123 42.9532 64.6042C42.8329 64.6961 42.6955 64.7633 42.549 64.8018C42.4026 64.8403 42.2499 64.8494 42.0999 64.8286C41.9499 64.8077 41.8056 64.7574 41.6751 64.6804L17.8514 50.9258C17.5922 50.7717 17.4042 50.5218 17.328 50.2301C17.2518 49.9384 17.2936 49.6285 17.4444 49.3674C17.5951 49.1063 17.8427 48.9151 18.1334 48.8352C18.4241 48.7554 18.7345 48.7932 18.9975 48.9407L42.8212 62.6952ZM46.2598 56.7394C46.3929 56.8132 46.51 56.9128 46.6042 57.0323C46.6984 57.1518 46.7679 57.2889 46.8086 57.4356C46.8492 57.5822 46.8603 57.7355 46.8411 57.8865C46.8219 58.0375 46.7728 58.1831 46.6967 58.3149C46.6206 58.4468 46.519 58.5621 46.3978 58.6542C46.2767 58.7463 46.1384 58.8134 45.9911 58.8515C45.8437 58.8896 45.6902 58.898 45.5396 58.8762C45.389 58.8544 45.2442 58.8028 45.1138 58.7244L21.2902 44.9698C21.0325 44.8151 20.846 44.5653 20.7707 44.2743C20.6955 43.9834 20.7375 43.6745 20.8878 43.4142C21.0381 43.1539 21.2845 42.9631 21.5742 42.8828C21.8638 42.8025 22.1733 42.8391 22.4362 42.9848L46.2598 56.7394ZM48.4378 23.9247L33.3534 27.1276C33.1266 27.1757 32.9198 27.2914 32.7601 27.4595C32.6005 27.6277 32.4955 27.8402 32.4592 28.0692C32.4229 28.2982 32.4568 28.5328 32.5566 28.7421C32.6563 28.9513 32.8172 29.1255 33.018 29.2414L35.0034 30.3877L29.2724 40.314C29.1205 40.5773 29.0793 40.8901 29.158 41.1837C29.2366 41.4773 29.4287 41.7276 29.6919 41.8796L34.6552 44.7452L38.6255 47.0374L43.5888 49.903C43.852 50.0549 44.1649 50.0961 44.4585 50.0174C44.7521 49.9388 45.0024 49.7467 45.1544 49.4835L50.8854 39.5571L52.8711 40.7033C53.0719 40.8192 53.3031 40.8715 53.5342 40.8532C53.7654 40.835 53.9855 40.7471 54.1657 40.6011C54.3458 40.4552 54.4774 40.258 54.5432 40.0357C54.6089 39.8134 54.6057 39.5764 54.534 39.3559L49.7656 24.691C49.678 24.4219 49.4938 24.1947 49.2487 24.0532C49.0035 23.9117 48.7147 23.8659 48.4378 23.9247ZM47.9048 26.3814L51.4302 37.2249L51.041 37.0001L51.0394 36.9988L37.1426 28.9754L37.1406 28.9748L36.7513 28.75L47.9048 26.3814ZM36.7941 43.3331L39.0868 39.3629L41.0719 40.509L38.7794 44.4798L36.7941 43.3331ZM43.7429 47.345L40.7643 45.6252L43.6299 40.6619C43.7818 40.3987 43.823 40.0859 43.7443 39.7923C43.6657 39.4987 43.4736 39.2483 43.2104 39.0963L39.2403 36.8042C38.977 36.6522 38.6642 36.611 38.3706 36.6897C38.077 36.7684 37.8266 36.9605 37.6746 37.2237L34.8091 42.187L31.8308 40.4676L36.9887 31.5336L48.9006 38.4109L43.7429 47.345Z"/>
</mask>
<path d="M61.9509 2.05243C61.2747 1.65931 60.5247 1.40982 59.7477 1.31954C58.9708 1.22925 58.1835 1.3001 57.4352 1.52767L38.2162 7.30629C36.8172 7.72457 35.6317 8.66309 34.9036 9.92878L10.0231 53.0234C9.87112 53.2866 9.82994 53.5995 9.90861 53.8931C9.98728 54.1867 10.1794 54.437 10.4426 54.589L42.2071 72.9282C42.4704 73.0802 42.7832 73.1214 43.0768 73.0427C43.3704 72.964 43.6207 72.772 43.7727 72.5087L68.6533 29.4144C69.3853 28.1509 69.6054 26.655 69.2681 25.2343L64.663 5.70085C64.4868 4.93864 64.1549 4.22109 63.6882 3.59325C63.2215 2.9654 62.63 2.44082 61.9509 2.05243ZM67.0368 25.7602C67.2389 26.6125 67.107 27.5098 66.6682 28.2679L42.3608 70.3705L12.5807 53.177L36.8887 11.075C37.3258 10.3159 38.0369 9.75306 38.8761 9.50193L58.0951 3.7233C58.5443 3.58826 59.0163 3.54655 59.4823 3.60074C59.9482 3.65493 60.3981 3.80387 60.8043 4.03841C61.2105 4.27294 61.5645 4.5881 61.8444 4.9645C62.1243 5.34091 62.3242 5.7706 62.4318 6.22714L67.0368 25.7602ZM50.2821 15.3855C49.8261 16.1754 49.7025 17.114 49.9385 17.995C50.1746 18.876 50.751 19.6272 51.5409 20.0832C52.3307 20.5393 53.2694 20.6628 54.1504 20.4268C55.0314 20.1907 55.7826 19.6143 56.2386 18.8245L56.2391 18.8243C56.6951 18.0344 56.8186 17.0957 56.5824 16.2147C56.3462 15.3337 55.7698 14.5827 54.9798 14.1267C54.1899 13.6708 53.2512 13.5473 52.3702 13.7835C51.4893 14.0196 50.7382 14.5961 50.2822 15.386L50.2821 15.3855ZM54.2533 17.6774C54.14 17.8737 53.9709 18.0319 53.7676 18.1322C53.5643 18.2324 53.3358 18.2701 53.1111 18.2404C52.8864 18.2108 52.6755 18.1152 52.5051 17.9658C52.3346 17.8163 52.2124 17.6197 52.1537 17.4007C52.095 17.1818 52.1026 16.9503 52.1755 16.7357C52.2483 16.521 52.3832 16.3328 52.563 16.1948C52.7428 16.0568 52.9595 15.9752 53.1857 15.9603C53.4118 15.9454 53.6374 15.998 53.8337 16.1113C54.0967 16.2636 54.2886 16.514 54.3673 16.8076C54.446 17.1012 54.405 17.414 54.2533 17.6774ZM42.8212 62.6952C42.9531 62.7697 43.0689 62.8695 43.1619 62.989C43.255 63.1085 43.3234 63.2452 43.3633 63.3913C43.4032 63.5374 43.4137 63.6899 43.3943 63.8401C43.3749 63.9903 43.326 64.1352 43.2502 64.2663C43.1745 64.3975 43.0736 64.5123 42.9532 64.6042C42.8329 64.6961 42.6955 64.7633 42.549 64.8018C42.4026 64.8403 42.2499 64.8494 42.0999 64.8286C41.9499 64.8077 41.8056 64.7574 41.6751 64.6804L17.8514 50.9258C17.5922 50.7717 17.4042 50.5218 17.328 50.2301C17.2518 49.9384 17.2936 49.6285 17.4444 49.3674C17.5951 49.1063 17.8427 48.9151 18.1334 48.8352C18.4241 48.7554 18.7345 48.7932 18.9975 48.9407L42.8212 62.6952ZM46.2598 56.7394C46.3929 56.8132 46.51 56.9128 46.6042 57.0323C46.6984 57.1518 46.7679 57.2889 46.8086 57.4356C46.8492 57.5822 46.8603 57.7355 46.8411 57.8865C46.8219 58.0375 46.7728 58.1831 46.6967 58.3149C46.6206 58.4468 46.519 58.5621 46.3978 58.6542C46.2767 58.7463 46.1384 58.8134 45.9911 58.8515C45.8437 58.8896 45.6902 58.898 45.5396 58.8762C45.389 58.8544 45.2442 58.8028 45.1138 58.7244L21.2902 44.9698C21.0325 44.8151 20.846 44.5653 20.7707 44.2743C20.6955 43.9834 20.7375 43.6745 20.8878 43.4142C21.0381 43.1539 21.2845 42.9631 21.5742 42.8828C21.8638 42.8025 22.1733 42.8391 22.4362 42.9848L46.2598 56.7394ZM48.4378 23.9247L33.3534 27.1276C33.1266 27.1757 32.9198 27.2914 32.7601 27.4595C32.6005 27.6277 32.4955 27.8402 32.4592 28.0692C32.4229 28.2982 32.4568 28.5328 32.5566 28.7421C32.6563 28.9513 32.8172 29.1255 33.018 29.2414L35.0034 30.3877L29.2724 40.314C29.1205 40.5773 29.0793 40.8901 29.158 41.1837C29.2366 41.4773 29.4287 41.7276 29.6919 41.8796L34.6552 44.7452L38.6255 47.0374L43.5888 49.903C43.852 50.0549 44.1649 50.0961 44.4585 50.0174C44.7521 49.9388 45.0024 49.7467 45.1544 49.4835L50.8854 39.5571L52.8711 40.7033C53.0719 40.8192 53.3031 40.8715 53.5342 40.8532C53.7654 40.835 53.9855 40.7471 54.1657 40.6011C54.3458 40.4552 54.4774 40.258 54.5432 40.0357C54.6089 39.8134 54.6057 39.5764 54.534 39.3559L49.7656 24.691C49.678 24.4219 49.4938 24.1947 49.2487 24.0532C49.0035 23.9117 48.7147 23.8659 48.4378 23.9247ZM47.9048 26.3814L51.4302 37.2249L51.041 37.0001L51.0394 36.9988L37.1426 28.9754L37.1406 28.9748L36.7513 28.75L47.9048 26.3814ZM36.7941 43.3331L39.0868 39.3629L41.0719 40.509L38.7794 44.4798L36.7941 43.3331ZM43.7429 47.345L40.7643 45.6252L43.6299 40.6619C43.7818 40.3987 43.823 40.0859 43.7443 39.7923C43.6657 39.4987 43.4736 39.2483 43.2104 39.0963L39.2403 36.8042C38.977 36.6522 38.6642 36.611 38.3706 36.6897C38.077 36.7684 37.8266 36.9605 37.6746 37.2237L34.8091 42.187L31.8308 40.4676L36.9887 31.5336L48.9006 38.4109L43.7429 47.345Z" fill="#303838"/>
<path d="M61.9509 2.05243C61.2747 1.65931 60.5247 1.40982 59.7477 1.31954C58.9708 1.22925 58.1835 1.3001 57.4352 1.52767L38.2162 7.30629C36.8172 7.72457 35.6317 8.66309 34.9036 9.92878L10.0231 53.0234C9.87112 53.2866 9.82994 53.5995 9.90861 53.8931C9.98728 54.1867 10.1794 54.437 10.4426 54.589L42.2071 72.9282C42.4704 73.0802 42.7832 73.1214 43.0768 73.0427C43.3704 72.964 43.6207 72.772 43.7727 72.5087L68.6533 29.4144C69.3853 28.1509 69.6054 26.655 69.2681 25.2343L64.663 5.70085C64.4868 4.93864 64.1549 4.22109 63.6882 3.59325C63.2215 2.9654 62.63 2.44082 61.9509 2.05243ZM67.0368 25.7602C67.2389 26.6125 67.107 27.5098 66.6682 28.2679L42.3608 70.3705L12.5807 53.177L36.8887 11.075C37.3258 10.3159 38.0369 9.75306 38.8761 9.50193L58.0951 3.7233C58.5443 3.58826 59.0163 3.54655 59.4823 3.60074C59.9482 3.65493 60.3981 3.80387 60.8043 4.03841C61.2105 4.27294 61.5645 4.5881 61.8444 4.9645C62.1243 5.34091 62.3242 5.7706 62.4318 6.22714L67.0368 25.7602ZM50.2821 15.3855C49.8261 16.1754 49.7025 17.114 49.9385 17.995C50.1746 18.876 50.751 19.6272 51.5409 20.0832C52.3307 20.5393 53.2694 20.6628 54.1504 20.4268C55.0314 20.1907 55.7826 19.6143 56.2386 18.8245L56.2391 18.8243C56.6951 18.0344 56.8186 17.0957 56.5824 16.2147C56.3462 15.3337 55.7698 14.5827 54.9798 14.1267C54.1899 13.6708 53.2512 13.5473 52.3702 13.7835C51.4893 14.0196 50.7382 14.5961 50.2822 15.386L50.2821 15.3855ZM54.2533 17.6774C54.14 17.8737 53.9709 18.0319 53.7676 18.1322C53.5643 18.2324 53.3358 18.2701 53.1111 18.2404C52.8864 18.2108 52.6755 18.1152 52.5051 17.9658C52.3346 17.8163 52.2124 17.6197 52.1537 17.4007C52.095 17.1818 52.1026 16.9503 52.1755 16.7357C52.2483 16.521 52.3832 16.3328 52.563 16.1948C52.7428 16.0568 52.9595 15.9752 53.1857 15.9603C53.4118 15.9454 53.6374 15.998 53.8337 16.1113C54.0967 16.2636 54.2886 16.514 54.3673 16.8076C54.446 17.1012 54.405 17.414 54.2533 17.6774ZM42.8212 62.6952C42.9531 62.7697 43.0689 62.8695 43.1619 62.989C43.255 63.1085 43.3234 63.2452 43.3633 63.3913C43.4032 63.5374 43.4137 63.6899 43.3943 63.8401C43.3749 63.9903 43.326 64.1352 43.2502 64.2663C43.1745 64.3975 43.0736 64.5123 42.9532 64.6042C42.8329 64.6961 42.6955 64.7633 42.549 64.8018C42.4026 64.8403 42.2499 64.8494 42.0999 64.8286C41.9499 64.8077 41.8056 64.7574 41.6751 64.6804L17.8514 50.9258C17.5922 50.7717 17.4042 50.5218 17.328 50.2301C17.2518 49.9384 17.2936 49.6285 17.4444 49.3674C17.5951 49.1063 17.8427 48.9151 18.1334 48.8352C18.4241 48.7554 18.7345 48.7932 18.9975 48.9407L42.8212 62.6952ZM46.2598 56.7394C46.3929 56.8132 46.51 56.9128 46.6042 57.0323C46.6984 57.1518 46.7679 57.2889 46.8086 57.4356C46.8492 57.5822 46.8603 57.7355 46.8411 57.8865C46.8219 58.0375 46.7728 58.1831 46.6967 58.3149C46.6206 58.4468 46.519 58.5621 46.3978 58.6542C46.2767 58.7463 46.1384 58.8134 45.9911 58.8515C45.8437 58.8896 45.6902 58.898 45.5396 58.8762C45.389 58.8544 45.2442 58.8028 45.1138 58.7244L21.2902 44.9698C21.0325 44.8151 20.846 44.5653 20.7707 44.2743C20.6955 43.9834 20.7375 43.6745 20.8878 43.4142C21.0381 43.1539 21.2845 42.9631 21.5742 42.8828C21.8638 42.8025 22.1733 42.8391 22.4362 42.9848L46.2598 56.7394ZM48.4378 23.9247L33.3534 27.1276C33.1266 27.1757 32.9198 27.2914 32.7601 27.4595C32.6005 27.6277 32.4955 27.8402 32.4592 28.0692C32.4229 28.2982 32.4568 28.5328 32.5566 28.7421C32.6563 28.9513 32.8172 29.1255 33.018 29.2414L35.0034 30.3877L29.2724 40.314C29.1205 40.5773 29.0793 40.8901 29.158 41.1837C29.2366 41.4773 29.4287 41.7276 29.6919 41.8796L34.6552 44.7452L38.6255 47.0374L43.5888 49.903C43.852 50.0549 44.1649 50.0961 44.4585 50.0174C44.7521 49.9388 45.0024 49.7467 45.1544 49.4835L50.8854 39.5571L52.8711 40.7033C53.0719 40.8192 53.3031 40.8715 53.5342 40.8532C53.7654 40.835 53.9855 40.7471 54.1657 40.6011C54.3458 40.4552 54.4774 40.258 54.5432 40.0357C54.6089 39.8134 54.6057 39.5764 54.534 39.3559L49.7656 24.691C49.678 24.4219 49.4938 24.1947 49.2487 24.0532C49.0035 23.9117 48.7147 23.8659 48.4378 23.9247ZM47.9048 26.3814L51.4302 37.2249L51.041 37.0001L51.0394 36.9988L37.1426 28.9754L37.1406 28.9748L36.7513 28.75L47.9048 26.3814ZM36.7941 43.3331L39.0868 39.3629L41.0719 40.509L38.7794 44.4798L36.7941 43.3331ZM43.7429 47.345L40.7643 45.6252L43.6299 40.6619C43.7818 40.3987 43.823 40.0859 43.7443 39.7923C43.6657 39.4987 43.4736 39.2483 43.2104 39.0963L39.2403 36.8042C38.977 36.6522 38.6642 36.611 38.3706 36.6897C38.077 36.7684 37.8266 36.9605 37.6746 37.2237L34.8091 42.187L31.8308 40.4676L36.9887 31.5336L48.9006 38.4109L43.7429 47.345Z" stroke="#303838" stroke-width="0.2" mask="url(#path-11-outside-1_1348_7534)"/>
</svg>
