<svg width="107" height="91" viewBox="0 0 107 91" fill="none" xmlns="http://www.w3.org/2000/svg">
<circle cx="73.5794" cy="57.7656" r="25.5" transform="rotate(-15 73.5794 57.7656)" fill="white"/>
<path d="M55.7001 62.2847C56.0229 63.4919 56.4669 64.6634 57.0253 65.7813C57.7675 67.4024 55.4753 68.5507 54.6205 66.985C53.0517 63.8543 52.2848 60.3831 52.3886 56.8828C52.4924 53.382 53.464 49.9617 55.2161 46.9291L55.2161 46.9292L55.2178 46.926C55.3026 46.7665 55.4186 46.6257 55.5589 46.5119C55.6993 46.3982 55.8611 46.3139 56.0348 46.2641C56.2084 46.2142 56.3903 46.1999 56.5696 46.2219C56.749 46.2439 56.922 46.3018 57.0784 46.3921C57.2349 46.4824 57.3716 46.6034 57.4803 46.7476C57.589 46.8919 57.6675 47.0566 57.7112 47.2319C57.7548 47.4072 57.7628 47.5895 57.7344 47.768C57.7061 47.9464 57.6422 48.1173 57.5464 48.2704L57.5463 48.2704L57.5447 48.2732C56.3262 50.3708 55.5357 52.6892 55.2191 55.0943C54.9025 57.4993 55.066 59.9433 55.7001 62.2847ZM55.7001 62.2847C55.7001 62.2847 55.7001 62.2848 55.7001 62.2848L55.7966 62.2587L55.7 62.2845C55.7 62.2846 55.7001 62.2846 55.7001 62.2847Z" fill="#618E81" stroke="white" stroke-width="0.2"/>
<path d="M61.6505 43.3721L61.6505 43.372L61.6489 43.3735C61.5149 43.4941 61.3579 43.5865 61.1874 43.6452C61.0169 43.704 60.8363 43.7279 60.6564 43.7154C60.4765 43.703 60.3009 43.6545 60.1401 43.5728C59.9793 43.4912 59.8366 43.378 59.7204 43.2401C59.6042 43.1022 59.5169 42.9423 59.4637 42.77C59.4106 42.5976 59.3926 42.4164 59.4109 42.237C59.4292 42.0575 59.4834 41.8836 59.5702 41.7256C59.657 41.5675 59.7748 41.4285 59.9164 41.3169L59.9165 41.317L59.9198 41.3141C71.4617 31.3573 90.1954 37.2439 93.9689 52.031L93.9692 52.0321C95.1907 56.5944 94.8505 61.4341 93.0029 65.7806C91.1552 70.1271 87.9064 73.7305 83.7738 76.0168C79.6411 78.3031 74.8623 79.1409 70.1984 78.3968C65.5344 77.6526 61.2536 75.3694 58.0376 71.9106L58.0375 71.9105C57.9171 71.7812 57.8233 71.6295 57.7614 71.4639C57.6996 71.2984 57.671 71.1223 57.6773 70.9457C57.6835 70.7691 57.7245 70.5955 57.7978 70.4348C57.8712 70.274 57.9755 70.1293 58.1048 70.0088C58.2341 69.8884 58.3858 69.7946 58.5513 69.7328C58.7169 69.671 58.893 69.6424 59.0695 69.6486C59.2461 69.6549 59.4198 69.6958 59.5805 69.7692C59.7413 69.8425 59.886 69.9468 60.0065 70.0761L60.007 70.0767C73.2012 84.0042 96.1391 71.3212 91.3707 52.7296C88.0771 39.8199 71.7281 34.6834 61.6505 43.3721Z" fill="#618E81" stroke="white" stroke-width="0.2"/>
<path d="M97.0807 51.1995L97.0808 51.1995L97.0797 51.1954C95.4004 44.9555 91.3145 39.6366 85.7183 36.4056C80.1221 33.1746 73.4728 32.2956 67.2292 33.9612L67.229 33.9613C60.9889 35.6406 55.6697 39.7266 52.4383 45.3228C49.207 50.919 48.3274 57.5685 49.9925 63.8124L49.9924 63.8124L49.9937 63.8165C59.6551 94.688 104.157 82.775 97.0807 51.1995ZM60.0107 80.9314C53.7964 77.3439 49.2588 71.4378 47.3937 64.5089C45.5445 57.5757 46.5211 50.1921 50.1091 43.978C53.6969 37.7646 59.6026 33.2278 66.5308 31.3629C101.586 23.505 114.838 72.9153 80.5398 83.6455C73.6074 85.4946 66.2245 84.5185 60.0107 80.9314Z" fill="#618E81" stroke="white" stroke-width="0.2"/>
<path d="M69.6145 64.7627L69.6145 64.7627L69.6163 64.7638C71.0893 65.6824 72.8162 66.1091 74.5475 65.9822L74.6681 65.9734L74.6368 65.8566L72.6281 58.3601L72.6086 58.2873L72.5333 58.286C71.2889 58.2643 69.7812 58.1773 68.4666 57.654C67.1576 57.133 66.0417 56.1803 65.5696 54.4186C64.8162 51.6067 66.5948 48.426 69.5109 47.043L69.5862 47.0073L69.5646 46.9268L69.1026 45.2027C69.0103 44.8581 69.0586 44.4909 69.237 44.1819C69.4154 43.8729 69.7093 43.6475 70.0539 43.5551C70.3985 43.4628 70.7657 43.5111 71.0747 43.6895C71.3837 43.8679 71.6091 44.1617 71.7015 44.5064L72.1541 46.1955L72.1767 46.28L72.2634 46.2688C75.9256 45.7975 78.448 47.2984 78.578 47.3774C78.9574 47.6253 79.1514 47.9458 79.2108 48.2707C79.2706 48.5979 79.1954 48.9369 79.0226 49.2199C78.8499 49.5029 78.5824 49.7254 78.2634 49.823C77.9463 49.92 77.5716 49.8955 77.177 49.6733L77.1771 49.6732L77.1729 49.6711C75.8832 49.0216 74.435 48.7531 72.9982 48.8971L72.8811 48.9088L72.9115 49.0224L74.6665 55.572L74.6851 55.6413L74.7566 55.6459C76.9526 55.7888 78.695 56.2586 79.9815 57.044C81.2654 57.8278 82.0993 58.9282 82.4787 60.344C82.915 61.9724 82.451 63.769 81.1602 65.3919C80.3232 66.4406 79.2567 67.2831 78.0428 67.8545L77.9671 67.8901L77.9888 67.9709L78.4445 69.6717C78.5368 70.0163 78.4885 70.3835 78.3101 70.6925C78.1317 71.0014 77.8379 71.2269 77.4932 71.3192C77.1486 71.4116 76.7814 71.3632 76.4724 71.1848C76.1635 71.0065 75.938 70.7126 75.8457 70.368L75.3924 68.6765L75.37 68.5927L75.2838 68.6031C72.757 68.9086 70.2025 68.3266 68.0573 66.957C66.6486 65.8758 68.1256 63.7893 69.6145 64.7627ZM77.2257 65.123L77.2593 65.2485L77.372 65.1839C78.2495 64.6811 78.9573 63.9601 79.4057 63.2108C79.8523 62.4644 80.0499 61.675 79.8799 61.0403C79.4865 59.5724 78.0383 58.7209 75.5714 58.418L75.4242 58.4L75.4626 58.5432L77.2257 65.123ZM70.3302 49.7839L70.2951 49.6531L70.1804 49.7252C68.7274 50.6382 67.7868 52.298 68.1641 53.7059L68.166 53.7129C68.3418 54.369 68.7074 54.8056 69.3004 55.0877C69.8856 55.3661 70.6886 55.4926 71.739 55.5472L71.8764 55.5544L71.8407 55.4215L70.3302 49.7839Z" fill="#618E81" stroke="white" stroke-width="0.2"/>
<path d="M63.9499 4.43792L60.6292 1.70423L36.481 8.1747L11.4134 53.7144L42.998 71.1333L68.8074 26.4301L63.9499 4.43792Z" fill="white" stroke="#618E81"/>
<mask id="path-7-outside-1_1348_7531" maskUnits="userSpaceOnUse" x="-1.22474" y="-1.12611" width="82.0579" height="82.0579" fill="black">
<rect fill="white" x="-1.22474" y="-1.12611" width="82.0579" height="82.0579"/>
<path d="M61.9508 2.06024C61.2746 1.66712 60.5246 1.41764 59.7476 1.32735C58.9707 1.23706 58.1834 1.30791 57.4351 1.53548L38.2161 7.31411C36.8171 7.73239 35.6316 8.6709 34.9034 9.9366L10.023 53.0312C9.87099 53.2944 9.82982 53.6073 9.90849 53.9009C9.98716 54.1945 10.1792 54.4448 10.4425 54.5968L42.207 72.9361C42.4702 73.088 42.7831 73.1292 43.0767 73.0505C43.3703 72.9718 43.6206 72.7798 43.7726 72.5166L68.6532 29.4222C69.3852 28.1587 69.6052 26.6628 69.268 25.2421L64.6629 5.70867C64.4867 4.94646 64.1548 4.22891 63.6881 3.60106C63.2214 2.97321 62.6299 2.44863 61.9508 2.06024ZM67.0367 25.7681C67.2388 26.6203 67.1069 27.5176 66.668 28.2757L42.3607 70.3784L12.5806 53.1848L36.8886 11.0828C37.3257 10.3238 38.0368 9.76087 38.876 9.50974L58.0949 3.73112C58.5441 3.59607 59.0162 3.55437 59.4822 3.60855C59.9481 3.66274 60.398 3.81169 60.8042 4.04622C61.2104 4.28075 61.5644 4.59591 61.8443 4.97232C62.1242 5.34872 62.3241 5.77842 62.4317 6.23496L67.0367 25.7681ZM50.282 15.3933C49.8259 16.1832 49.7024 17.1219 49.9384 18.0029C50.1745 18.8839 50.7508 19.635 51.5407 20.091C52.3306 20.5471 53.2693 20.6706 54.1503 20.4346C55.0313 20.1985 55.7824 19.6222 56.2385 18.8323L56.239 18.8321C56.695 18.0422 56.8184 17.1035 56.5823 16.2225C56.3461 15.3415 55.7697 14.5905 54.9797 14.1345C54.1898 13.6786 53.2511 13.5551 52.3701 13.7913C51.4891 14.0274 50.7381 14.6039 50.2821 15.3938L50.282 15.3933ZM54.2532 17.6852C54.1398 17.8815 53.9708 18.0398 53.7675 18.14C53.5642 18.2402 53.3357 18.2779 53.111 18.2482C52.8862 18.2186 52.6753 18.123 52.5049 17.9736C52.3345 17.8241 52.2122 17.6275 52.1536 17.4085C52.0949 17.1896 52.1025 16.9582 52.1753 16.7435C52.2482 16.5289 52.383 16.3406 52.5628 16.2026C52.7427 16.0646 52.9594 15.983 53.1855 15.9681C53.4117 15.9533 53.6372 16.0058 53.8336 16.1191C54.0966 16.2714 54.2885 16.5218 54.3672 16.8154C54.4459 17.109 54.4049 17.4218 54.2532 17.6852ZM42.8211 62.703C42.953 62.7775 43.0688 62.8773 43.1618 62.9968C43.2548 63.1163 43.3233 63.253 43.3632 63.3991C43.4031 63.5452 43.4136 63.6977 43.3942 63.8479C43.3748 63.9981 43.3258 64.143 43.2501 64.2741C43.1744 64.4053 43.0735 64.5201 42.9531 64.612C42.8327 64.7039 42.6954 64.7711 42.5489 64.8096C42.4025 64.8481 42.2498 64.8572 42.0998 64.8364C41.9498 64.8155 41.8054 64.7652 41.675 64.6882L17.8513 50.9336C17.5921 50.7796 17.4041 50.5296 17.3279 50.2379C17.2517 49.9462 17.2935 49.6363 17.4443 49.3752C17.595 49.1141 17.8425 48.9229 18.1332 48.8431C18.4239 48.7632 18.7344 48.8011 18.9974 48.9485L42.8211 62.703ZM46.2597 56.7472C46.3928 56.821 46.5099 56.9206 46.6041 57.0401C46.6983 57.1596 46.7678 57.2967 46.8084 57.4434C46.8491 57.5901 46.8602 57.7434 46.8409 57.8943C46.8217 58.0453 46.7726 58.191 46.6965 58.3228C46.6204 58.4546 46.5189 58.5699 46.3977 58.662C46.2766 58.7542 46.1383 58.8212 45.9909 58.8593C45.8436 58.8975 45.6901 58.9058 45.5395 58.884C45.3889 58.8622 45.2441 58.8106 45.1136 58.7322L21.29 44.9776C21.0324 44.8229 20.8459 44.5731 20.7706 44.2821C20.6954 43.9912 20.7374 43.6823 20.8877 43.422C21.0379 43.1617 21.2844 42.9709 21.574 42.8906C21.8637 42.8103 22.1732 42.8469 22.4361 42.9926L46.2597 56.7472ZM48.4377 23.9325L33.3533 27.1354C33.1265 27.1835 32.9196 27.2993 32.76 27.4674C32.6003 27.6355 32.4954 27.848 32.4591 28.077C32.4228 28.306 32.4567 28.5406 32.5565 28.7499C32.6562 28.9592 32.8171 29.1333 33.0179 29.2492L35.0033 30.3955L29.2723 40.3218C29.1203 40.5851 29.0792 40.8979 29.1578 41.1915C29.2365 41.4851 29.4286 41.7354 29.6918 41.8874L34.6551 44.753L38.6254 47.0452L43.5887 49.9108C43.8519 50.0627 44.1647 50.1039 44.4583 50.0252C44.7519 49.9466 45.0023 49.7545 45.1543 49.4913L50.8853 39.565L52.871 40.7111C53.0718 40.827 53.303 40.8793 53.5341 40.8611C53.7652 40.8428 53.9854 40.7549 54.1655 40.609C54.3457 40.463 54.4773 40.2659 54.5431 40.0435C54.6088 39.8212 54.6056 39.5842 54.5339 39.3637L49.7655 24.6988C49.6778 24.4297 49.4937 24.2025 49.2486 24.061C49.0034 23.9195 48.7146 23.8738 48.4377 23.9325ZM47.9047 26.3893L51.4301 37.2327L51.0408 37.0079L51.0393 37.0066L37.1424 28.9832L37.1405 28.9826L36.7512 28.7578L47.9047 26.3893ZM36.794 43.3409L39.0867 39.3707L41.0718 40.5168L38.7792 44.4876L36.794 43.3409ZM43.7428 47.3529L40.7642 45.6331L43.6298 40.6698C43.7817 40.4065 43.8229 40.0937 43.7442 39.8001C43.6655 39.5065 43.4735 39.2561 43.2102 39.1041L39.2401 36.812C38.9769 36.66 38.6641 36.6189 38.3705 36.6975C38.0769 36.7762 37.8265 36.9683 37.6745 37.2315L34.809 42.1948L31.8307 40.4754L36.9886 31.5414L48.9005 38.4188L43.7428 47.3529Z"/>
</mask>
<path d="M61.9508 2.06024C61.2746 1.66712 60.5246 1.41764 59.7476 1.32735C58.9707 1.23706 58.1834 1.30791 57.4351 1.53548L38.2161 7.31411C36.8171 7.73239 35.6316 8.6709 34.9034 9.9366L10.023 53.0312C9.87099 53.2944 9.82982 53.6073 9.90849 53.9009C9.98716 54.1945 10.1792 54.4448 10.4425 54.5968L42.207 72.9361C42.4702 73.088 42.7831 73.1292 43.0767 73.0505C43.3703 72.9718 43.6206 72.7798 43.7726 72.5166L68.6532 29.4222C69.3852 28.1587 69.6052 26.6628 69.268 25.2421L64.6629 5.70867C64.4867 4.94646 64.1548 4.22891 63.6881 3.60106C63.2214 2.97321 62.6299 2.44863 61.9508 2.06024ZM67.0367 25.7681C67.2388 26.6203 67.1069 27.5176 66.668 28.2757L42.3607 70.3784L12.5806 53.1848L36.8886 11.0828C37.3257 10.3238 38.0368 9.76087 38.876 9.50974L58.0949 3.73112C58.5441 3.59607 59.0162 3.55437 59.4822 3.60855C59.9481 3.66274 60.398 3.81169 60.8042 4.04622C61.2104 4.28075 61.5644 4.59591 61.8443 4.97232C62.1242 5.34872 62.3241 5.77842 62.4317 6.23496L67.0367 25.7681ZM50.282 15.3933C49.8259 16.1832 49.7024 17.1219 49.9384 18.0029C50.1745 18.8839 50.7508 19.635 51.5407 20.091C52.3306 20.5471 53.2693 20.6706 54.1503 20.4346C55.0313 20.1985 55.7824 19.6222 56.2385 18.8323L56.239 18.8321C56.695 18.0422 56.8184 17.1035 56.5823 16.2225C56.3461 15.3415 55.7697 14.5905 54.9797 14.1345C54.1898 13.6786 53.2511 13.5551 52.3701 13.7913C51.4891 14.0274 50.7381 14.6039 50.2821 15.3938L50.282 15.3933ZM54.2532 17.6852C54.1398 17.8815 53.9708 18.0398 53.7675 18.14C53.5642 18.2402 53.3357 18.2779 53.111 18.2482C52.8862 18.2186 52.6753 18.123 52.5049 17.9736C52.3345 17.8241 52.2122 17.6275 52.1536 17.4085C52.0949 17.1896 52.1025 16.9582 52.1753 16.7435C52.2482 16.5289 52.383 16.3406 52.5628 16.2026C52.7427 16.0646 52.9594 15.983 53.1855 15.9681C53.4117 15.9533 53.6372 16.0058 53.8336 16.1191C54.0966 16.2714 54.2885 16.5218 54.3672 16.8154C54.4459 17.109 54.4049 17.4218 54.2532 17.6852ZM42.8211 62.703C42.953 62.7775 43.0688 62.8773 43.1618 62.9968C43.2548 63.1163 43.3233 63.253 43.3632 63.3991C43.4031 63.5452 43.4136 63.6977 43.3942 63.8479C43.3748 63.9981 43.3258 64.143 43.2501 64.2741C43.1744 64.4053 43.0735 64.5201 42.9531 64.612C42.8327 64.7039 42.6954 64.7711 42.5489 64.8096C42.4025 64.8481 42.2498 64.8572 42.0998 64.8364C41.9498 64.8155 41.8054 64.7652 41.675 64.6882L17.8513 50.9336C17.5921 50.7796 17.4041 50.5296 17.3279 50.2379C17.2517 49.9462 17.2935 49.6363 17.4443 49.3752C17.595 49.1141 17.8425 48.9229 18.1332 48.8431C18.4239 48.7632 18.7344 48.8011 18.9974 48.9485L42.8211 62.703ZM46.2597 56.7472C46.3928 56.821 46.5099 56.9206 46.6041 57.0401C46.6983 57.1596 46.7678 57.2967 46.8084 57.4434C46.8491 57.5901 46.8602 57.7434 46.8409 57.8943C46.8217 58.0453 46.7726 58.191 46.6965 58.3228C46.6204 58.4546 46.5189 58.5699 46.3977 58.662C46.2766 58.7542 46.1383 58.8212 45.9909 58.8593C45.8436 58.8975 45.6901 58.9058 45.5395 58.884C45.3889 58.8622 45.2441 58.8106 45.1136 58.7322L21.29 44.9776C21.0324 44.8229 20.8459 44.5731 20.7706 44.2821C20.6954 43.9912 20.7374 43.6823 20.8877 43.422C21.0379 43.1617 21.2844 42.9709 21.574 42.8906C21.8637 42.8103 22.1732 42.8469 22.4361 42.9926L46.2597 56.7472ZM48.4377 23.9325L33.3533 27.1354C33.1265 27.1835 32.9196 27.2993 32.76 27.4674C32.6003 27.6355 32.4954 27.848 32.4591 28.077C32.4228 28.306 32.4567 28.5406 32.5565 28.7499C32.6562 28.9592 32.8171 29.1333 33.0179 29.2492L35.0033 30.3955L29.2723 40.3218C29.1203 40.5851 29.0792 40.8979 29.1578 41.1915C29.2365 41.4851 29.4286 41.7354 29.6918 41.8874L34.6551 44.753L38.6254 47.0452L43.5887 49.9108C43.8519 50.0627 44.1647 50.1039 44.4583 50.0252C44.7519 49.9466 45.0023 49.7545 45.1543 49.4913L50.8853 39.565L52.871 40.7111C53.0718 40.827 53.303 40.8793 53.5341 40.8611C53.7652 40.8428 53.9854 40.7549 54.1655 40.609C54.3457 40.463 54.4773 40.2659 54.5431 40.0435C54.6088 39.8212 54.6056 39.5842 54.5339 39.3637L49.7655 24.6988C49.6778 24.4297 49.4937 24.2025 49.2486 24.061C49.0034 23.9195 48.7146 23.8738 48.4377 23.9325ZM47.9047 26.3893L51.4301 37.2327L51.0408 37.0079L51.0393 37.0066L37.1424 28.9832L37.1405 28.9826L36.7512 28.7578L47.9047 26.3893ZM36.794 43.3409L39.0867 39.3707L41.0718 40.5168L38.7792 44.4876L36.794 43.3409ZM43.7428 47.3529L40.7642 45.6331L43.6298 40.6698C43.7817 40.4065 43.8229 40.0937 43.7442 39.8001C43.6655 39.5065 43.4735 39.2561 43.2102 39.1041L39.2401 36.812C38.9769 36.66 38.6641 36.6189 38.3705 36.6975C38.0769 36.7762 37.8265 36.9683 37.6745 37.2315L34.809 42.1948L31.8307 40.4754L36.9886 31.5414L48.9005 38.4188L43.7428 47.3529Z" fill="#618E81"/>
<path d="M61.9508 2.06024C61.2746 1.66712 60.5246 1.41764 59.7476 1.32735C58.9707 1.23706 58.1834 1.30791 57.4351 1.53548L38.2161 7.31411C36.8171 7.73239 35.6316 8.6709 34.9034 9.9366L10.023 53.0312C9.87099 53.2944 9.82982 53.6073 9.90849 53.9009C9.98716 54.1945 10.1792 54.4448 10.4425 54.5968L42.207 72.9361C42.4702 73.088 42.7831 73.1292 43.0767 73.0505C43.3703 72.9718 43.6206 72.7798 43.7726 72.5166L68.6532 29.4222C69.3852 28.1587 69.6052 26.6628 69.268 25.2421L64.6629 5.70867C64.4867 4.94646 64.1548 4.22891 63.6881 3.60106C63.2214 2.97321 62.6299 2.44863 61.9508 2.06024ZM67.0367 25.7681C67.2388 26.6203 67.1069 27.5176 66.668 28.2757L42.3607 70.3784L12.5806 53.1848L36.8886 11.0828C37.3257 10.3238 38.0368 9.76087 38.876 9.50974L58.0949 3.73112C58.5441 3.59607 59.0162 3.55437 59.4822 3.60855C59.9481 3.66274 60.398 3.81169 60.8042 4.04622C61.2104 4.28075 61.5644 4.59591 61.8443 4.97232C62.1242 5.34872 62.3241 5.77842 62.4317 6.23496L67.0367 25.7681ZM50.282 15.3933C49.8259 16.1832 49.7024 17.1219 49.9384 18.0029C50.1745 18.8839 50.7508 19.635 51.5407 20.091C52.3306 20.5471 53.2693 20.6706 54.1503 20.4346C55.0313 20.1985 55.7824 19.6222 56.2385 18.8323L56.239 18.8321C56.695 18.0422 56.8184 17.1035 56.5823 16.2225C56.3461 15.3415 55.7697 14.5905 54.9797 14.1345C54.1898 13.6786 53.2511 13.5551 52.3701 13.7913C51.4891 14.0274 50.7381 14.6039 50.2821 15.3938L50.282 15.3933ZM54.2532 17.6852C54.1398 17.8815 53.9708 18.0398 53.7675 18.14C53.5642 18.2402 53.3357 18.2779 53.111 18.2482C52.8862 18.2186 52.6753 18.123 52.5049 17.9736C52.3345 17.8241 52.2122 17.6275 52.1536 17.4085C52.0949 17.1896 52.1025 16.9582 52.1753 16.7435C52.2482 16.5289 52.383 16.3406 52.5628 16.2026C52.7427 16.0646 52.9594 15.983 53.1855 15.9681C53.4117 15.9533 53.6372 16.0058 53.8336 16.1191C54.0966 16.2714 54.2885 16.5218 54.3672 16.8154C54.4459 17.109 54.4049 17.4218 54.2532 17.6852ZM42.8211 62.703C42.953 62.7775 43.0688 62.8773 43.1618 62.9968C43.2548 63.1163 43.3233 63.253 43.3632 63.3991C43.4031 63.5452 43.4136 63.6977 43.3942 63.8479C43.3748 63.9981 43.3258 64.143 43.2501 64.2741C43.1744 64.4053 43.0735 64.5201 42.9531 64.612C42.8327 64.7039 42.6954 64.7711 42.5489 64.8096C42.4025 64.8481 42.2498 64.8572 42.0998 64.8364C41.9498 64.8155 41.8054 64.7652 41.675 64.6882L17.8513 50.9336C17.5921 50.7796 17.4041 50.5296 17.3279 50.2379C17.2517 49.9462 17.2935 49.6363 17.4443 49.3752C17.595 49.1141 17.8425 48.9229 18.1332 48.8431C18.4239 48.7632 18.7344 48.8011 18.9974 48.9485L42.8211 62.703ZM46.2597 56.7472C46.3928 56.821 46.5099 56.9206 46.6041 57.0401C46.6983 57.1596 46.7678 57.2967 46.8084 57.4434C46.8491 57.5901 46.8602 57.7434 46.8409 57.8943C46.8217 58.0453 46.7726 58.191 46.6965 58.3228C46.6204 58.4546 46.5189 58.5699 46.3977 58.662C46.2766 58.7542 46.1383 58.8212 45.9909 58.8593C45.8436 58.8975 45.6901 58.9058 45.5395 58.884C45.3889 58.8622 45.2441 58.8106 45.1136 58.7322L21.29 44.9776C21.0324 44.8229 20.8459 44.5731 20.7706 44.2821C20.6954 43.9912 20.7374 43.6823 20.8877 43.422C21.0379 43.1617 21.2844 42.9709 21.574 42.8906C21.8637 42.8103 22.1732 42.8469 22.4361 42.9926L46.2597 56.7472ZM48.4377 23.9325L33.3533 27.1354C33.1265 27.1835 32.9196 27.2993 32.76 27.4674C32.6003 27.6355 32.4954 27.848 32.4591 28.077C32.4228 28.306 32.4567 28.5406 32.5565 28.7499C32.6562 28.9592 32.8171 29.1333 33.0179 29.2492L35.0033 30.3955L29.2723 40.3218C29.1203 40.5851 29.0792 40.8979 29.1578 41.1915C29.2365 41.4851 29.4286 41.7354 29.6918 41.8874L34.6551 44.753L38.6254 47.0452L43.5887 49.9108C43.8519 50.0627 44.1647 50.1039 44.4583 50.0252C44.7519 49.9466 45.0023 49.7545 45.1543 49.4913L50.8853 39.565L52.871 40.7111C53.0718 40.827 53.303 40.8793 53.5341 40.8611C53.7652 40.8428 53.9854 40.7549 54.1655 40.609C54.3457 40.463 54.4773 40.2659 54.5431 40.0435C54.6088 39.8212 54.6056 39.5842 54.5339 39.3637L49.7655 24.6988C49.6778 24.4297 49.4937 24.2025 49.2486 24.061C49.0034 23.9195 48.7146 23.8738 48.4377 23.9325ZM47.9047 26.3893L51.4301 37.2327L51.0408 37.0079L51.0393 37.0066L37.1424 28.9832L37.1405 28.9826L36.7512 28.7578L47.9047 26.3893ZM36.794 43.3409L39.0867 39.3707L41.0718 40.5168L38.7792 44.4876L36.794 43.3409ZM43.7428 47.3529L40.7642 45.6331L43.6298 40.6698C43.7817 40.4065 43.8229 40.0937 43.7442 39.8001C43.6655 39.5065 43.4735 39.2561 43.2102 39.1041L39.2401 36.812C38.9769 36.66 38.6641 36.6189 38.3705 36.6975C38.0769 36.7762 37.8265 36.9683 37.6745 37.2315L34.809 42.1948L31.8307 40.4754L36.9886 31.5414L48.9005 38.4188L43.7428 47.3529Z" stroke="#618E81" stroke-width="0.2" mask="url(#path-7-outside-1_1348_7531)"/>
</svg>
