<svg width="93" height="78" viewBox="0 0 93 78" fill="none" xmlns="http://www.w3.org/2000/svg">
<path d="M30.6451 29.6664C33.0536 31.8257 35.545 32.0749 36.3755 32.0749C36.4586 32.0749 36.4586 32.0749 36.5416 32.0749C37.123 32.0749 39.7805 32.0749 42.355 29.7495C45.3448 26.9258 46.9227 22.109 46.9227 15.382C46.9227 14.8837 46.5905 14.3854 46.0922 14.2193C42.7703 12.9736 40.6941 11.977 37.3721 9.31946C36.9569 8.98726 36.2925 8.98726 35.7942 9.31946C32.3892 11.977 30.313 12.9736 26.991 14.2193C26.4927 14.3854 26.1605 14.8837 26.1605 15.382C26.0775 22.0259 27.5723 26.9258 30.6451 29.6664ZM36.4586 11.8109C39.3653 14.0532 41.4415 15.1329 44.3482 16.2125C44.2652 21.6937 42.9364 25.6801 40.6941 27.8394C38.7009 29.6664 36.7077 29.5834 36.6247 29.5834H36.5416H36.4586C36.3755 29.5834 34.2993 29.6664 32.3061 27.8394C29.9808 25.6801 28.735 21.6937 28.652 16.2125C31.4756 15.1329 33.5519 14.0532 36.4586 11.8109Z" fill="#618E81"/>
<path d="M65.5256 0.765625C65.1104 0.765625 21.4266 0.765625 21.0114 0.765625C16.8589 1.09782 13.62 4.66892 13.62 8.82137V61.8896H1.24573C0.581342 61.8896 0 62.471 0 63.1354C0 63.1354 0 69.6962 0 69.9454C0 70.1945 0 70.3606 0 70.6098C0.332196 74.7622 3.9033 78.0011 8.05575 78.0011H51.2412C53.4835 78.0011 55.5597 77.0876 57.1377 75.4266C58.5495 73.9317 59.38 71.9385 59.38 69.8623V16.8771H71.7543C72.4187 16.8771 73 16.2958 73 15.6314V8.82137C72.9169 4.66892 69.678 1.09782 65.5256 0.765625ZM8.05575 75.5097C5.14903 75.5097 2.74061 73.2673 2.49147 70.3606C2.49147 70.1945 2.49147 70.0284 2.49147 69.8623C2.49147 69.6962 2.49147 69.5301 2.49147 69.4471V69.364V64.3811H43.1854V69.9454C43.1854 70.942 43.3515 72.0216 43.7668 72.9351C43.9329 73.2673 44.099 73.5995 44.2651 73.9317C44.2651 74.0148 44.3481 74.0978 44.3481 74.0978C44.5142 74.43 44.7634 74.6792 44.9295 74.9283L45.0125 75.0114C45.0956 75.1775 45.2617 75.2605 45.3447 75.4266H8.05575V75.5097ZM56.8055 69.9454C56.8055 71.3572 56.2241 72.686 55.3106 73.7656C54.2309 74.9283 52.8191 75.5097 51.2412 75.5097C50.6598 75.5097 50.0785 75.4266 49.5802 75.2605C48.0023 74.7622 46.6735 73.5995 46.0921 72.0216C45.843 71.3572 45.6769 70.6098 45.6769 69.9454V63.1354C45.6769 62.471 45.0956 61.8896 44.4312 61.8896H16.1115V8.82137C16.1115 5.91466 18.3538 3.50624 21.2605 3.25709C21.5927 3.25709 22.2571 3.25709 22.2571 3.25709H59.0478L58.9647 3.34014C58.8817 3.50624 58.7156 3.58929 58.6325 3.75539C58.6325 3.75539 58.6325 3.83843 58.5495 3.83843C58.4664 4.00453 58.3003 4.17063 58.2173 4.33673C57.4698 5.41636 57.0546 6.6621 56.8885 7.99088C56.8885 8.07393 56.8885 8.07393 56.8885 8.15698C56.8885 8.15698 56.8885 8.15698 56.8885 8.24003C56.8885 8.32308 56.8885 8.40613 56.8885 8.48917C56.8885 8.57222 56.8885 8.65527 56.8885 8.73832V9.07052C56.8885 9.15357 56.8885 9.15357 56.8885 9.23661V69.9454H56.8055ZM70.4255 14.3856H59.2969V9.40271V8.32308C59.38 7.65869 59.5461 6.99429 59.7952 6.41295C60.4596 4.91807 61.7884 3.83843 63.3663 3.42319C63.6985 3.34014 64.0307 3.25709 64.3629 3.25709C64.6951 3.25709 64.9443 3.25709 65.2764 3.25709C68.1832 3.50624 70.4255 5.91466 70.4255 8.82137V14.3856V14.3856Z" fill="#618E81"/>
<path d="M35.2958 26.8412C35.711 26.8412 36.0432 26.6751 36.2924 26.3429L40.8601 19.9481C41.2753 19.3668 41.1092 18.6193 40.6109 18.2041C40.0296 17.7889 39.2821 17.955 38.8669 18.4532L35.2958 23.4362L34.0501 21.6922C33.6348 21.1108 32.8874 21.0278 32.306 21.443C31.7247 21.8583 31.6416 22.6057 32.0569 23.187L34.3823 26.4259C34.5484 26.6751 34.8806 26.8412 35.2958 26.8412Z" fill="#618E81"/>
<path d="M48.7496 51.0938H24.0841C23.4197 51.0938 22.8384 51.6751 22.8384 52.3395C22.8384 53.0039 23.4197 53.5852 24.0841 53.5852H48.7496C49.414 53.5852 49.9954 53.0039 49.9954 52.3395C49.9954 51.6751 49.414 51.0938 48.7496 51.0938Z" fill="#618E81"/>
<path d="M48.7496 44.5312H24.0841C23.4197 44.5312 22.8384 45.1126 22.8384 45.777C22.8384 46.4414 23.4197 47.0227 24.0841 47.0227H48.7496C49.414 47.0227 49.9954 46.4414 49.9954 45.777C49.9954 45.1126 49.414 44.5312 48.7496 44.5312Z" fill="#618E81"/>
<path d="M48.7496 38.0547H24.0841C23.4197 38.0547 22.8384 38.636 22.8384 39.3004C22.8384 39.9648 23.4197 40.5462 24.0841 40.5462H48.7496C49.414 40.5462 49.9954 39.9648 49.9954 39.3004C49.9954 38.636 49.414 38.0547 48.7496 38.0547Z" fill="#618E81"/>
<circle cx="62" cy="46" r="18" fill="white"/>
<path fill-rule="evenodd" clip-rule="evenodd" d="M69.9913 52.993H55.0105C54.6493 52.993 54.3161 52.8001 54.1355 52.488C53.9548 52.1759 53.9548 51.7901 54.1355 51.4779L61.625 38.505C61.8056 38.1929 62.1388 38 62.5 38C62.8612 38 63.1944 38.1929 63.375 38.505L70.8645 51.4779C71.0452 51.7901 71.0452 52.1759 70.8645 52.488C70.6857 52.8019 70.3525 52.993 69.9913 52.993ZM56.7606 50.9729H68.2429L62.5018 41.0302L56.7606 50.9729Z" fill="#618E81"/>
<path fill-rule="evenodd" clip-rule="evenodd" d="M62.4966 48.1785C61.939 48.1785 61.4866 47.7261 61.4866 47.1684V44.2522C61.4866 43.6946 61.939 43.2422 62.4966 43.2422C63.0543 43.2422 63.5067 43.6946 63.5067 44.2522V47.1684C63.5067 47.7261 63.0543 48.1785 62.4966 48.1785Z" fill="#618E81"/>
<path fill-rule="evenodd" clip-rule="evenodd" d="M62.4966 50.6376C61.939 50.6376 61.4866 50.1852 61.4866 49.6276V49.596C61.4866 49.0384 61.939 48.5859 62.4966 48.5859C63.0543 48.5859 63.5067 49.0384 63.5067 49.596V49.6276C63.5067 50.1852 63.0543 50.6376 62.4966 50.6376Z" fill="#618E81"/>
<path d="M91.0665 75.1563L91.0667 75.1565L91.0742 75.1491C92.5753 73.6479 92.5753 71.1996 91.0742 69.6985L78.1592 56.7835C80.2208 53.7085 81.3964 50.0497 81.3964 46.0982C81.3964 35.4276 72.7688 26.8 62.0982 26.8C51.4276 26.8 42.8 35.4276 42.8 46.0982C42.8 56.7688 51.4276 65.3964 62.0982 65.3964C65.9745 65.3964 69.6307 64.2217 72.6331 62.2334L85.5487 75.1491C86.3405 75.9408 87.2928 76.2562 88.3114 76.2562C89.3394 76.2562 90.2847 75.8599 91.0665 75.1563ZM62.1731 63.4985C52.5472 63.4985 44.7728 55.7241 44.7728 46.0982C44.7728 36.4723 52.5472 28.6979 62.1731 28.6979C71.799 28.6979 79.5734 36.4723 79.5734 46.0982C79.5734 55.6492 71.7241 63.4985 62.1731 63.4985ZM74.2301 61.0928C75.2418 60.2641 76.1892 59.3167 77.018 58.305L78.442 59.7291L75.6542 62.5169L74.2301 61.0928ZM89.7428 73.8177C88.9971 74.5634 87.7007 74.5634 86.9549 73.8177L76.9856 63.8483L79.7734 61.0604L89.7397 71.0267C90.4937 71.8525 90.4844 73.0761 89.7428 73.8177Z" fill="#618E81" stroke="#618E81" stroke-width="0.4"/>
</svg>
