<svg width="82" height="70" viewBox="0 0 82 70" fill="none" xmlns="http://www.w3.org/2000/svg">
<path d="M40.4407 24.1139C41.0876 24.1139 41.6117 24.6379 41.6117 25.2849C41.6117 25.9319 41.0847 26.4559 40.4407 26.4559H5.7994C5.15242 26.4559 4.6284 25.9319 4.6284 25.2849C4.6284 24.6379 5.15535 24.1139 5.7994 24.1139H40.4407Z" fill="#618E81"/>
<path d="M40.4407 33.1189H5.7994C5.15242 33.1189 4.6284 32.5949 4.6284 31.9479C4.6284 31.301 5.15535 30.7769 5.7994 30.7769H40.4407C41.0876 30.7769 41.6117 31.301 41.6117 31.9479C41.6117 32.5949 41.0876 33.1189 40.4407 33.1189Z" fill="#618E81"/>
<path d="M23.3645 37.4429H40.4407C41.0876 37.4429 41.6117 37.9669 41.6117 38.6139C41.6117 39.2609 41.0847 39.7849 40.4407 39.7849H23.3645C22.7175 39.7849 22.1935 39.2609 22.1935 38.6139C22.1935 37.9669 22.7175 37.4429 23.3645 37.4429Z" fill="#618E81"/>
<path d="M23.3645 44.1059H40.4407C41.0876 44.1059 41.6117 44.6299 41.6117 45.2769C41.6117 45.9239 41.0847 46.4479 40.4407 46.4479H23.3645C22.7175 46.4479 22.1935 45.9239 22.1935 45.2769C22.1935 44.6299 22.7175 44.1059 23.3645 44.1059Z" fill="#618E81"/>
<path d="M23.3645 50.7719H40.4407C41.0876 50.7719 41.6117 51.2959 41.6117 51.9429C41.6117 52.5898 41.0847 53.1139 40.4407 53.1139H23.3645C22.7175 53.1139 22.1935 52.5898 22.1935 51.9429C22.1935 51.2959 22.7175 50.7719 23.3645 50.7719Z" fill="#618E81"/>
<path d="M23.3645 57.4378H40.4407C41.0876 57.4378 41.6117 57.9618 41.6117 58.6088C41.6117 59.2558 41.0847 59.7798 40.4407 59.7798H23.3645C22.7175 59.7798 22.1935 59.2558 22.1935 58.6088C22.1935 57.9618 22.7175 57.4378 23.3645 57.4378Z" fill="#618E81"/>
<path d="M1.17979 0H29.5503C29.7084 0 29.8606 0.0322026 30.0041 0.0907529C30.1124 0.134666 30.2031 0.207853 30.291 0.281041C30.3173 0.304461 30.3554 0.316171 30.3817 0.342519L45.6575 15.6212C45.6809 15.6446 45.6926 15.6768 45.7131 15.7032C45.7892 15.7939 45.8624 15.8876 45.9092 15.9989C45.9678 16.1394 46 16.2916 46 16.4497V68.8287C46 69.2357 45.7892 69.6133 45.4438 69.8241C45.1013 70.0378 44.668 70.0554 44.305 69.8768L40.4611 67.9563L36.6173 69.8768C36.2924 70.0407 35.8972 70.0407 35.5722 69.8768L31.7284 67.9563L27.8875 69.8768C27.5625 70.0407 27.1673 70.0407 26.8424 69.8768L23.0044 67.9534L19.1606 69.8739C18.9966 69.9558 18.818 69.9968 18.6365 69.9968C18.455 69.9968 18.2765 69.9558 18.1125 69.8739L14.2687 67.9534L10.4278 69.8739C10.1028 70.0378 9.70763 70.0378 9.38268 69.8739L5.53885 67.9534L1.69503 69.8739C1.32909 70.0554 0.901676 70.0349 0.556229 69.8212C0.210781 69.6075 0 69.2298 0 68.8258V1.171C0.00878143 0.524025 0.532806 0 1.17979 0ZM30.7242 3.99898V15.2787H42.001L30.7242 3.99898ZM2.35079 66.9317L5.02068 65.5968C5.35149 65.4328 5.74085 65.4328 6.06581 65.5968L9.90963 67.5172L13.7505 65.5968C14.0755 65.4328 14.4707 65.4328 14.7956 65.5968L18.6395 67.5172L22.4833 65.5968C22.6443 65.5148 22.8229 65.4738 23.0044 65.4738C23.1859 65.4738 23.3645 65.5148 23.5284 65.5968L27.3722 67.5172L31.2131 65.5968C31.5381 65.4328 31.9333 65.4328 32.2583 65.5968L36.1021 67.5172L39.9459 65.5968C40.2709 65.4328 40.6661 65.4328 40.991 65.5968L43.6609 66.9346V17.6178H29.5562C28.9092 17.6178 28.3852 17.0937 28.3852 16.4468V2.34201H2.35665V66.9317H2.35079Z" fill="#618E81"/>
<path d="M16.2124 43.9446C16.2124 44.5916 16.7394 45.1156 17.3834 45.1156C18.0275 45.1156 18.5544 44.5916 18.5544 43.9446C18.5544 41.0727 16.0397 38.6927 12.7404 38.195V37.6241C12.7404 36.9771 12.2134 36.4531 11.5694 36.4531C10.9253 36.4531 10.3984 36.9771 10.3984 37.6241V38.1774C7.00538 38.6107 4.39404 41.0171 4.39404 43.9417C4.39404 46.8634 7.00538 49.2727 10.3984 49.706V56.6793C8.40473 56.2636 6.92927 54.9199 6.92927 53.3097C6.92927 52.6628 6.40232 52.1387 5.75826 52.1387C5.11421 52.1387 4.58726 52.6628 4.58726 53.3097C4.58726 56.1787 7.09906 58.5617 10.3984 59.0594V59.6273C10.3984 60.2743 10.9253 60.7983 11.5694 60.7983C12.2134 60.7983 12.7404 60.2743 12.7404 59.6273V59.074C16.1334 58.6407 18.7476 56.2343 18.7476 53.3097C18.7476 50.3852 16.1334 47.9758 12.7404 47.5455V40.5721C14.7369 40.9878 16.2124 42.3345 16.2124 43.9446ZM6.73898 43.9446C6.73898 42.2847 8.3052 40.8942 10.3984 40.5311V47.3581C8.3052 46.9922 6.73898 45.6045 6.73898 43.9446ZM16.4056 53.3097C16.4056 54.9726 14.8365 56.3602 12.7433 56.7232V49.8933C14.8365 50.2593 16.4056 51.6498 16.4056 53.3097Z" fill="#618E81"/>
<path d="M52.5 46.4996C37.7 47.6996 26 36.9996 22 31.4996L23.5 26.5C26.1667 22.6665 35.4 14.7996 51 13.9996C66.6 13.1996 76.8333 24.9996 80 30.9996L76 35.4996C74.3333 38.6663 67.3 45.2996 52.5 46.4996Z" fill="white"/>
<path d="M38.2899 25.9621L38.29 25.962C38.8917 24.3221 39.802 22.8414 40.9944 21.5565L40.9946 21.5563C41.3624 21.1615 41.98 21.1382 42.3759 21.5062L38.2899 25.9621ZM38.2899 25.9621C38.104 26.4692 38.3632 27.0297 38.8709 27.2164L38.8713 27.2165C38.9817 27.2567 39.0953 27.2767 39.208 27.2767C39.606 27.2767 39.9805 27.0315 40.1254 26.6354C40.6373 25.2417 41.4121 23.9802 42.4275 22.8864L42.4276 22.8864M38.2899 25.9621L42.4276 22.8864M42.4276 22.8864C42.794 22.4913 42.7718 21.8736 42.376 21.5063L42.4276 22.8864ZM39.4501 30.8841C39.4461 30.752 39.4435 30.6205 39.4435 30.488C39.4435 29.9483 39.0063 29.5103 38.4658 29.5103C37.9266 29.5103 37.4887 29.9483 37.4887 30.488C37.4887 30.6418 37.4915 30.797 37.4969 30.9502C37.5368 32.1123 37.7374 33.2575 38.0772 34.3594H33.1819C32.9235 34.3594 32.6742 34.4627 32.4913 34.6447L32.4911 34.6449L28.9698 38.1656C26.6809 36.2461 24.5784 34.0054 22.7096 31.4664H29.0132C29.2725 31.4664 29.5212 31.363 29.7047 31.1795L30.8751 30.0091C31.3747 30.2809 31.9453 30.4375 32.5541 30.4375C34.5043 30.4375 36.0909 28.8508 36.0909 26.9C36.0909 24.9484 34.5043 23.3624 32.5541 23.3624C30.6032 23.3624 29.0166 24.9491 29.0166 26.9C29.0166 27.534 29.1866 28.1259 29.479 28.6404L28.6079 29.5103H22.7091C29.6064 20.1361 39.6826 14.8047 50.6181 14.8047C57.0574 14.8047 63.1964 16.6561 68.5663 20.0886L65.7944 22.8604H61.3008C60.6464 21.9457 59.8777 21.1126 59.0086 20.3899C57.5547 19.179 55.8928 18.3137 54.0734 17.8174L54.0731 17.8174C53.5502 17.6759 53.0153 17.9844 52.8731 18.504L52.873 18.5043C52.7315 19.0257 53.0392 19.562 53.5587 19.705L53.5592 19.7051C55.1076 20.1261 56.5203 20.8623 57.7581 21.8929L57.7583 21.893C59.2145 23.1023 60.3467 24.6708 61.0319 26.4269M39.4501 30.8841C39.4501 30.8843 39.4501 30.8844 39.4501 30.8845L39.3002 30.8891M39.4501 30.8841C39.4501 30.8841 39.4501 30.884 39.4501 30.8839L39.3002 30.8891M39.4501 30.8841C39.5159 32.7997 40.0783 34.6747 41.0742 36.3046C43.1243 39.6597 46.6915 41.6633 50.6181 41.6633C56.7794 41.6633 61.7928 36.6499 61.7928 30.488C61.7928 29.0873 61.5365 27.7209 61.0319 26.4269M39.3002 30.8891C39.2962 30.7558 39.2935 30.6226 39.2935 30.488C39.2935 30.0311 38.9234 29.6603 38.4658 29.6603C38.0095 29.6603 37.6387 30.0311 37.6387 30.488C37.6387 30.6401 37.6414 30.7935 37.6468 30.9449L61.9428 30.488C61.9428 36.7328 56.8622 41.8133 50.6181 41.8133C46.6391 41.8133 43.0235 39.7825 40.9462 36.3828C39.9368 34.7308 39.3668 32.8305 39.3002 30.8891ZM61.0319 26.4269L61.1716 26.3724L61.0319 26.4269C61.0319 26.4269 61.0319 26.4269 61.0319 26.4269ZM50.6181 36.372C47.3739 36.372 44.7348 33.7322 44.7348 30.488C44.7348 27.2438 47.3739 24.604 50.6181 24.6047V36.372ZM50.6181 36.372C53.8624 36.372 56.5015 33.7322 56.5015 30.488M50.6181 36.372L56.5015 30.488M56.5015 30.488C56.5015 27.2438 53.8624 24.6047 50.6182 24.6047L56.5015 30.488ZM50.6181 26.5601H50.6182C52.7849 26.5594 54.5467 28.3226 54.5467 30.488C54.5467 32.6541 52.7849 34.4166 50.6181 34.4166C48.4521 34.4166 46.6895 32.6541 46.6895 30.488C46.6895 28.3226 48.452 26.5601 50.6181 26.5601ZM44.5848 19.8918L44.5848 19.8919C44.7509 20.2455 45.1029 20.4553 45.4696 20.4553C45.6084 20.4553 45.7502 20.4259 45.8842 20.3622C47.3708 19.6671 48.9626 19.3133 50.6181 19.3133C51.1577 19.3133 51.5952 18.8769 51.5952 18.337C51.5952 17.7974 51.1581 17.3593 50.6181 17.3593C48.6744 17.3593 46.8022 17.7745 45.0554 18.5921L45.0554 18.5921C44.5665 18.821 44.3558 19.4029 44.5848 19.8918ZM70.8259 29.8117L70.8257 29.812L69.5058 31.1325C69.1268 30.9921 68.718 30.9147 68.2919 30.9147C66.3411 30.9147 64.7537 32.5006 64.7537 34.4515C64.7537 36.4032 66.341 37.989 68.2919 37.989C70.242 37.989 71.8294 36.4031 71.8294 34.4515C71.8294 33.644 71.557 32.8981 71.0991 32.3026L71.9219 31.4798H78.5163C71.6191 40.8452 61.5476 46.1706 50.6181 46.1706C43.2971 46.1706 36.3634 43.7803 30.5097 39.391L33.5866 36.3148H38.8566C39.0252 36.6576 39.2056 36.9955 39.4063 37.3243L39.4064 37.3244C41.8137 41.2645 46.0061 43.6181 50.6188 43.6181C57.8589 43.6181 63.7482 37.7288 63.7482 30.4887C63.7482 28.8438 63.448 27.2378 62.8551 25.717L62.8549 25.7165C62.734 25.4097 62.599 25.1101 62.4559 24.8165H66.2004C66.4597 24.8165 66.708 24.7114 66.8908 24.5301L66.8913 24.5296L70.2135 21.2061C73.313 23.4446 76.1208 26.2365 78.5388 29.5265H71.5165C71.2582 29.5265 71.0095 29.629 70.8259 29.8117ZM20.0146 29.9443L20.0145 29.9445C19.7952 30.2735 19.7952 30.7025 20.0145 31.0315L20.0146 31.0317C22.3643 34.5441 25.1771 37.5887 28.3176 40.0989C28.3231 40.1088 28.3358 40.1316 28.3557 40.1532L28.3556 40.1533L28.36 40.1577C28.4233 40.221 28.5007 40.2638 28.5559 40.2944C28.5618 40.2977 28.5675 40.3008 28.5728 40.3038C34.9515 45.3139 42.6597 48.126 50.6181 48.126C62.6242 48.126 74.0625 41.7322 81.221 31.0317C81.4411 30.7026 81.4411 30.2734 81.221 29.9443C74.0625 19.2438 62.6242 12.85 50.6181 12.85C38.6113 12.85 27.1731 19.2438 20.0146 29.9443ZM69.874 34.4515C69.874 35.3244 69.1638 36.035 68.2919 36.035C67.4192 36.035 66.7091 35.325 66.7091 34.4515C66.7091 33.579 67.419 32.8701 68.2919 32.8701C69.1634 32.8701 69.874 33.579 69.874 34.4515ZM30.9706 26.9C30.9706 26.0272 31.6807 25.3172 32.5534 25.3172C33.4261 25.3172 34.1355 26.0272 34.1355 26.9C34.1355 27.7726 33.4255 28.4821 32.5534 28.4821C31.6813 28.4821 30.9706 27.7726 30.9706 26.9Z" fill="#618E81" stroke="#618E81" stroke-width="0.3"/>
</svg>
