<svg width="82" height="82" viewBox="0 0 82 82" fill="none" xmlns="http://www.w3.org/2000/svg">
<rect x="37" y="61" width="9" height="7" fill="#618E81"/>
<rect x="2" y="2" width="79" height="9" fill="#C4C4C4"/>
<rect x="3" y="69" width="76" height="11" rx="3" fill="#EEEEEE"/>
<path d="M34.9999 52.9996L33.4999 58.4996L27.5 52.9996L26.5 45L28.5 37L37 32L43.5 31L53 37C53.8333 39.6667 55.5 45.9 55.5 49.5C55.5 53.1 51.1667 56.9997 49 58.4996L47 56.5V54L51 45L48 38.9996C45 36.6663 37.8999 33.5996 33.4999 39.9996C29.0999 46.3996 32.6666 51.3329 34.9999 52.9996Z" fill="#C4C4C4"/>
<path fill-rule="evenodd" clip-rule="evenodd" d="M28 13.5L40.5 26.5L48 27L49.5 24.5L36 11H27L28 13.5ZM46 11L54 19V11H46Z" fill="#DEBD7C"/>
<path d="M13.9082 73.3031H10.4082C9.77263 73.3031 9.2582 73.8175 9.2582 74.4531C9.2582 75.0887 9.77263 75.6031 10.4082 75.6031H13.9082C14.5438 75.6031 15.0582 75.0887 15.0582 74.4531C15.0582 73.8175 14.5438 73.3031 13.9082 73.3031Z" fill="#303838" stroke="#303838" stroke-width="0.3"/>
<path d="M23.5225 73.3031H20.0225C19.3869 73.3031 18.8725 73.8175 18.8725 74.4531C18.8725 75.0887 19.3869 75.6031 20.0225 75.6031H23.5225C24.158 75.6031 24.6725 75.0887 24.6725 74.4531C24.6725 73.8175 24.158 73.3031 23.5225 73.3031Z" fill="#303838" stroke="#303838" stroke-width="0.3"/>
<path d="M33.1357 73.3031H29.6357C29.0002 73.3031 28.4857 73.8175 28.4857 74.4531C28.4857 75.0887 29.0002 75.6031 29.6357 75.6031H33.1357C33.7713 75.6031 34.2857 75.0887 34.2857 74.4531C34.2857 73.8175 33.7713 73.3031 33.1357 73.3031Z" fill="#303838" stroke="#303838" stroke-width="0.3"/>
<path d="M42.75 73.3031H39.25C38.6144 73.3031 38.1 73.8175 38.1 74.4531C38.1 75.0887 38.6144 75.6031 39.25 75.6031H42.75C43.3856 75.6031 43.9 75.0887 43.9 74.4531C43.9 73.8175 43.3856 73.3031 42.75 73.3031Z" fill="#303838" stroke="#303838" stroke-width="0.3"/>
<path d="M52.3643 73.3031H48.8643C48.2287 73.3031 47.7143 73.8175 47.7143 74.4531C47.7143 75.0887 48.2287 75.6031 48.8643 75.6031H52.3643C52.9998 75.6031 53.5143 75.0887 53.5143 74.4531C53.5143 73.8175 52.9998 73.3031 52.3643 73.3031Z" fill="#303838" stroke="#303838" stroke-width="0.3"/>
<path d="M61.9775 73.3031H58.4775C57.842 73.3031 57.3275 73.8175 57.3275 74.4531C57.3275 75.0887 57.842 75.6031 58.4775 75.6031H61.9775C62.6131 75.6031 63.1275 75.0887 63.1275 74.4531C63.1275 73.8175 62.6131 73.3031 61.9775 73.3031Z" fill="#303838" stroke="#303838" stroke-width="0.3"/>
<path d="M71.5918 73.3031H68.0918C67.4562 73.3031 66.9418 73.8175 66.9418 74.4531C66.9418 75.0887 67.4562 75.6031 68.0918 75.6031H71.5918C72.2274 75.6031 72.7418 75.0887 72.7418 74.4531C72.7418 73.8175 72.2274 73.3031 71.5918 73.3031Z" fill="#303838" stroke="#303838" stroke-width="0.3"/>
<path d="M32.6986 59.6072L32.6981 59.6069C28.0313 56.7046 25.2436 51.7035 25.2436 46.2314C25.2436 37.9311 31.699 31.1286 39.85 30.5356V28.359H32.7969C32.4994 28.359 32.213 28.2434 31.9994 28.0367C31.9993 28.0366 31.9992 28.0365 31.9992 28.0365L26.65 22.8836C26.4242 22.6668 26.2973 22.3679 26.2973 22.0557V11.9566H2C1.36442 11.9566 0.85 11.4422 0.85 10.8066V2C0.85 1.36442 1.36442 0.85 2 0.85H80C80.6356 0.85 81.15 1.36442 81.15 2V10.8066C81.15 11.4422 80.6356 11.9566 80 11.9566H55.7027V22.0557C55.7027 22.3679 55.5758 22.6668 55.35 22.8836L51.0972 26.9804C51.0946 26.9834 51.0917 26.9866 51.0885 26.9899C51.0837 26.9947 51.079 26.9987 51.0746 27.0022L50.0008 28.0365C50.0008 28.0365 50.0007 28.0366 50.0006 28.0367L50.0005 28.0367L49.8965 27.9287C49.7109 28.1084 49.4619 28.209 49.2031 28.209L32.6986 59.6072ZM32.6986 59.6072C32.9583 59.7673 33.2715 59.8204 33.5699 59.7494M32.6986 59.6072L33.5699 59.7494M33.5699 59.7494C33.8671 59.6788 34.1253 59.4926 34.285 59.2319L33.5699 59.7494ZM42.15 30.5356V28.359L47.715 59.2319C47.8747 59.4926 48.1329 59.6788 48.4301 59.7495L48.4311 59.7497C48.5181 59.7698 48.6056 59.7799 48.6943 59.7799C48.9079 59.7799 49.1177 59.7203 49.3013 59.6072L49.3019 59.6069C53.9687 56.7046 56.7564 51.7035 56.7564 46.2314C56.7564 37.9311 50.301 31.1286 42.15 30.5356ZM45.0958 54.9701L47.7148 59.2316H34.2852L36.9042 54.9701C37.2355 54.4311 37.0692 53.7259 36.5325 53.3913L36.5323 53.3912C34.0165 51.8275 32.5162 49.1353 32.5162 46.1904C32.5162 41.5125 36.3221 37.7066 41 37.7066C45.6779 37.7066 49.4838 41.5125 49.4838 46.1904C49.4838 49.1353 47.9835 51.8275 45.4677 53.3912L45.4675 53.3913C44.9308 53.7259 44.7645 54.4311 45.0958 54.9701ZM54.4564 46.2314C54.4564 50.5174 52.4537 54.4637 49.0434 57.0014L47.6225 54.6901C50.2472 52.6532 51.7838 49.5521 51.7838 46.1904C51.7838 40.2443 46.9461 35.4066 41 35.4066C35.0539 35.4066 30.2162 40.2443 30.2162 46.1904C30.2162 49.5521 31.7528 52.6532 34.3775 54.6901L32.9566 57.0014C29.5463 54.4637 27.5436 50.5174 27.5436 46.2314C27.5436 38.8114 33.5799 32.775 41 32.775C48.4201 32.775 54.4564 38.8114 54.4564 46.2314ZM33.2607 26.059L28.5973 21.5671V16.1102L38.5461 26.059H33.2607ZM34.4291 11.9566L48.5314 26.059H41.7985L28.5973 12.8578V11.9566H34.4291ZM50.2901 24.5652L37.6815 11.9566H44.601L53.4027 20.7584V21.5671L50.2901 24.5652ZM53.4027 17.506L47.8533 11.9566H53.4027V17.506ZM78.85 9.65664H3.15V3.15H78.85V9.65664Z" fill="#303838" stroke="#303838" stroke-width="0.3"/>
<path d="M74.4502 67.7523H47.067V64.4609C47.067 61.8283 44.9246 59.6859 42.292 59.6859H39.708C37.0754 59.6859 34.933 61.8283 34.933 64.4609V67.7523H7.5498C3.85562 67.7523 0.85 70.758 0.85 74.4531C0.85 78.1473 3.85563 81.1529 7.5498 81.1529H74.4502C78.1444 81.1529 81.15 78.1473 81.15 74.4531C81.15 70.758 78.1444 67.7523 74.4502 67.7523ZM37.233 64.4609C37.233 63.0965 38.3436 61.9859 39.708 61.9859H42.292C43.6564 61.9859 44.767 63.0965 44.767 64.4609V67.7523H37.233V64.4609ZM74.4502 78.8529H7.5498C5.12386 78.8529 3.15 76.8791 3.15 74.4531C3.15 72.0262 5.12388 70.0523 7.5498 70.0523H74.4502C76.8761 70.0523 78.85 72.0262 78.85 74.4531C78.85 76.8791 76.8761 78.8529 74.4502 78.8529Z" fill="#303838" stroke="#303838" stroke-width="0.3"/>
<path fill-rule="evenodd" clip-rule="evenodd" d="M36 11L50.5 26.5L54.5 21.5L53 17.5L45.5 11H36ZM27.5 16V21L33 27.5H40V25.5L28.5 16H27.5Z" fill="#303838"/>
</svg>
