<svg width="104" height="76" viewBox="0 0 104 76" fill="none" xmlns="http://www.w3.org/2000/svg">
<rect x="19" y="3" width="67" height="70" rx="6" fill="#618E81"/>
<rect x="23" y="9" width="58" height="59" rx="4" fill="#EEEEEE"/>
<path fill-rule="evenodd" clip-rule="evenodd" d="M12 21H3V56H12V21ZM102 21H93V56H102V21Z" fill="#C4C4C4"/>
<path fill-rule="evenodd" clip-rule="evenodd" d="M19 19H12V58H19V19ZM93 19H86V58H93V19Z" fill="#618E81"/>
<path d="M27.9005 69.9326L27.9006 69.9326L76.4109 69.9327L76.4109 69.9327C78.0709 69.9309 79.6624 69.2706 80.8362 68.0968C82.01 66.923 82.6703 65.3315 82.672 63.6716L82.672 63.6715L82.672 12.569L82.672 12.5689C82.6703 10.9089 82.01 9.31742 80.8362 8.14363C79.6624 6.96983 78.0709 6.3096 76.4109 6.30781L76.4109 6.30781L27.9006 6.30781L27.9005 6.30781C26.2405 6.3096 24.649 6.96983 23.4752 8.14362C22.3014 9.31742 21.6412 10.9089 21.6394 12.5689L21.6394 12.569L21.6394 63.6715L21.6394 63.6715C21.6412 65.3315 22.3014 66.923 23.4752 68.0968C24.649 69.2706 26.2405 69.9309 27.9005 69.9326ZM27.9007 9.33524L76.4108 9.33524C77.2682 9.33612 78.0902 9.67711 78.6965 10.2834C79.3027 10.8896 79.6437 11.7117 79.6446 12.5691L79.6446 63.6714C79.6437 64.5288 79.3027 65.3508 78.6965 65.9571C78.0902 66.5634 77.2682 66.9043 76.4108 66.9052L27.9007 66.9052C27.0433 66.9043 26.2213 66.5634 25.615 65.9571C25.0087 65.3508 24.6677 64.5288 24.6668 63.6714L24.6668 12.5691C24.6677 11.7117 25.0087 10.8896 25.615 10.2834C26.2213 9.67711 27.0433 9.33612 27.9007 9.33524Z" fill="#303838" stroke="#303838" stroke-width="0.15"/>
<path d="M38.5 47.5L52 61C53.1667 59.5 57 55.1 63 49.5C70.5 42.5 65 35.5 59.5 35.5C55.1 35.5 52.6667 38.1667 52 39.5C52.6667 38.1667 52 35.5 44 35.5C36 35.5 37 43.5 38.5 47.5Z" fill="#B46D6D"/>
<path d="M64.1782 20.1064V20.1057L64.1684 20.107C64.1065 20.1152 64.0453 20.1274 63.9851 20.1436C63.8733 20.1534 63.7629 20.176 63.6561 20.2108L63.6559 20.2101L63.6465 20.2147C63.4794 20.2963 63.3204 20.3935 63.1716 20.505L63.1712 20.5044L63.1635 20.5121C63.0913 20.5845 63.0267 20.6642 62.9709 20.7499C62.9237 20.8008 62.8801 20.8551 62.8407 20.9123L62.8402 20.9119L62.8359 20.9202L61.0605 24.3247L59.2865 20.9202L59.2199 20.9548L59.2865 20.9202L56.1702 14.9419L56.1704 14.9418L56.1676 14.9373C56.0269 14.7084 55.8299 14.5193 55.5954 14.3882C55.3609 14.2571 55.0967 14.1882 54.828 14.1882C54.5593 14.1882 54.295 14.2571 54.0605 14.3882C53.826 14.5193 53.629 14.7084 53.4883 14.9373L53.4882 14.9372L53.4857 14.9419L50.3695 20.9202L48.5955 24.324L46.8214 20.9202L46.7549 20.9548L46.8214 20.9202L43.7052 14.9419L43.7052 14.9419C43.5772 14.6965 43.3844 14.4909 43.1478 14.3475C42.9111 14.204 42.6397 14.1281 42.3629 14.1281C42.0862 14.1281 41.8147 14.204 41.5781 14.3475C41.3415 14.4909 41.1487 14.6965 41.0207 14.9419L38.3274 20.1064H34.4542C34.0528 20.1064 33.6677 20.2659 33.3839 20.5497C33.1 20.8336 32.9405 21.2186 32.9405 21.6201C32.9405 22.0216 33.1 22.4066 33.3839 22.6905C33.6677 22.9743 34.0528 23.1338 34.4542 23.1338H39.2452V23.1344L39.2545 23.1332C39.3232 23.1247 39.3912 23.1111 39.458 23.0927C39.5605 23.0827 39.6616 23.062 39.7598 23.031L39.7601 23.0318L39.7698 23.0271C39.9381 22.9461 40.0983 22.8492 40.2482 22.7377L40.2486 22.7383L40.2562 22.7308C40.3313 22.6563 40.3982 22.5741 40.4558 22.4855C40.5017 22.4361 40.5441 22.3836 40.5826 22.3283L40.5831 22.3286L40.5875 22.3201L42.3629 18.9161L44.137 22.32L47.2532 28.299L47.2532 28.299C47.3812 28.5444 47.574 28.75 47.8106 28.8934C48.0473 29.0369 48.3187 29.1128 48.5955 29.1128C48.8722 29.1128 49.1437 29.0369 49.3803 28.8934C49.6169 28.75 49.8097 28.5444 49.9377 28.299L49.9377 28.299L53.054 22.32L54.828 18.9169L56.602 22.32L59.7183 28.299L59.7183 28.299C59.8463 28.5444 60.0391 28.75 60.2757 28.8934C60.5123 29.0369 60.7838 29.1128 61.0605 29.1128C61.3373 29.1128 61.6087 29.0369 61.8454 28.8934C62.082 28.75 62.2748 28.5444 62.4028 28.299L62.3363 28.2643L62.4028 28.299L65.0961 23.1338H68.9692C69.3707 23.1338 69.7557 22.9743 70.0396 22.6905C70.3235 22.4066 70.483 22.0216 70.483 21.6201C70.483 21.2186 70.3235 20.8336 70.0396 20.5497C69.7557 20.2659 69.3707 20.1064 68.9693 20.1064H64.1782Z" fill="#303838" stroke="#303838" stroke-width="0.15"/>
<path d="M87.8243 64.9891L87.8243 59.1996L91.8518 59.1996C92.0506 59.1997 92.2475 59.1606 92.4312 59.0845C92.6148 59.0084 92.7817 58.8969 92.9223 58.7564C93.0629 58.6158 93.1744 58.4489 93.2504 58.2652C93.3265 58.0815 93.3656 57.8847 93.3655 57.6859L93.3655 56.8912L101.874 56.8912C102.073 56.8913 102.27 56.8521 102.454 56.7761C102.637 56.7 102.804 56.5885 102.945 56.448C103.085 56.3074 103.197 56.1405 103.273 55.9568C103.349 55.7731 103.388 55.5763 103.388 55.3775L103.388 20.8624C103.388 20.6636 103.349 20.4668 103.273 20.2831C103.197 20.0994 103.085 19.9325 102.945 19.7919C102.804 19.6514 102.637 19.5399 102.454 19.4638C102.27 19.3878 102.073 19.3486 101.874 19.3487L93.3655 19.3487L93.3655 18.554C93.3656 18.3552 93.3265 18.1584 93.2504 17.9747C93.1744 17.791 93.0629 17.6241 92.9223 17.4835C92.7817 17.343 92.6148 17.2315 92.4312 17.1554C92.2475 17.0793 92.0506 17.0402 91.8518 17.0403L87.8243 17.0403L87.8243 11.2508L87.8243 11.2508C87.8211 8.51315 86.7323 5.88856 84.7965 3.95278C82.8607 2.017 80.2361 0.92811 77.4985 0.924999L77.4984 0.924999L26.8146 0.924997L26.8146 0.924997C24.077 0.928107 21.4524 2.01699 19.5166 3.95277C17.5808 5.88855 16.4919 8.51315 16.4888 11.2508L16.4888 17.0403L12.4612 17.0403C12.2624 17.0402 12.0656 17.0793 11.8819 17.1554C11.6982 17.2315 11.5313 17.343 11.3908 17.4835C11.2502 17.6241 11.1387 17.791 11.0626 17.9747C10.9866 18.1583 10.9474 18.3552 10.9475 18.554L10.9475 19.3487L2.43879 19.3487C2.24 19.3486 2.04314 19.3878 1.85946 19.4638C1.67578 19.5399 1.50889 19.6514 1.36832 19.7919C1.22774 19.9325 1.11624 20.0994 1.04018 20.2831C0.964126 20.4668 0.92501 20.6636 0.925063 20.8624L0.925062 55.3775C0.925008 55.5763 0.964124 55.7731 1.04018 55.9568C1.11624 56.1405 1.22774 56.3074 1.36831 56.448C1.50889 56.5885 1.67578 56.7 1.85946 56.7761C2.04313 56.8521 2.24 56.8913 2.43881 56.8912L10.9475 56.8912L10.9475 57.6859C10.9474 57.8847 10.9866 58.0815 11.0626 58.2652C11.1387 58.4489 11.2502 58.6158 11.3908 58.7564C11.5313 58.8969 11.6982 59.0084 11.8819 59.0845C12.0656 59.1605 12.2624 59.1997 12.4612 59.1996L16.4888 59.1996L16.4888 64.9891C16.4919 67.7267 17.5808 70.3513 19.5166 72.2871C21.4524 74.2229 24.0769 75.3118 26.8145 75.3149L77.4984 75.3149C80.2361 75.3118 82.8607 74.2229 84.7965 72.2871C86.7323 70.3513 87.8211 67.7268 87.8243 64.9891L87.8243 64.9891ZM3.9525 53.8638L3.9525 22.3761L10.9475 22.3761L10.9475 53.8638L3.9525 53.8638ZM100.361 22.3761L100.361 53.8638L93.3655 53.8638L93.3655 22.3761L100.361 22.3761ZM90.3381 20.0677L90.3381 56.1722L87.8243 56.1722L87.8243 20.0677L90.3381 20.0677ZM26.8146 3.95243L77.4983 3.95243C79.4334 3.9545 81.2886 4.72411 82.6569 6.0924C84.0251 7.46068 84.7948 9.31588 84.7968 11.2509L84.7968 64.989C84.7948 66.924 84.0251 68.7792 82.6569 70.1475C81.2886 71.5158 79.4334 72.2854 77.4983 72.2875L26.8146 72.2875C24.8797 72.2854 23.0245 71.5158 21.6562 70.1475C20.2879 68.7792 19.5183 66.924 19.5162 64.989L19.5162 11.2508C19.5183 9.31587 20.2879 7.46068 21.6562 6.09239C23.0245 4.72411 24.8797 3.9545 26.8146 3.95243ZM16.4888 56.1722L13.9749 56.1722L13.9749 20.0677L16.4888 20.0677L16.4888 56.1722Z" fill="#303838" stroke="#303838" stroke-width="0.15"/>
<path d="M64.4044 35.5017L64.4044 35.5017L64.4026 35.5004C63.0321 34.5455 61.4099 34.0008 59.7316 33.932C58.0536 33.8632 56.3912 34.273 54.9448 35.112C54.9445 35.1122 54.9442 35.1123 54.9439 35.1125L51.9934 36.746L49.0798 35.1325C47.363 34.1023 45.3319 33.6993 43.343 33.9941C41.3536 34.2889 39.5331 35.2631 38.2016 36.7461L38.2016 36.7461C36.6742 38.4474 35.8532 40.651 35.9021 42.9198C35.9509 45.1886 36.8659 47.3561 38.4652 48.9924L38.4654 48.9927L50.9484 61.6646C51.0842 61.8024 51.2466 61.912 51.4261 61.9867C51.6056 62.0615 51.7986 62.1 51.9934 62.1C52.1883 62.1 52.3812 62.0615 52.5607 61.9867C52.7402 61.912 52.9027 61.8024 53.0384 61.6646L65.5214 48.9927L65.5214 48.9927C66.4277 48.0721 67.1239 46.9721 67.5634 45.766C68.0029 44.5599 68.1755 43.2756 68.0698 41.9986C67.964 40.7217 67.5823 39.4817 66.9502 38.3613C66.3181 37.241 65.4502 36.2661 64.4044 35.5017ZM44.5685 36.8277L44.5696 36.8277C45.6493 36.8297 46.7102 37.1045 47.6503 37.6257L47.6504 37.6257L51.2795 39.6354C51.4975 39.7562 51.7434 39.8196 51.9934 39.8196C52.2435 39.8196 52.4893 39.7562 52.7074 39.6354L56.3735 37.6056L56.3735 37.6056L56.376 37.6042C57.3332 37.0377 58.4368 36.755 59.5539 36.79C60.6705 36.825 61.7528 37.176 62.671 37.8007C63.384 38.3223 63.9756 38.9872 64.4063 39.7509C64.8374 40.5151 65.0976 41.3607 65.1696 42.2314C65.2417 43.102 65.1239 43.9778 64.8242 44.8002C64.5245 45.6227 64.0497 46.3731 63.4314 47.0013L51.9934 58.6122L40.5557 47.0015C40.5557 47.0014 40.5556 47.0014 40.5555 47.0013C39.4646 45.8847 38.8408 44.4065 38.8073 42.8598C38.7738 41.3131 39.333 39.8102 40.3746 38.6491C40.5239 38.4846 40.6819 38.3278 40.8479 38.1795C41.8744 37.2915 43.2003 36.8095 44.5685 36.8277Z" fill="#303838" stroke="#303838" stroke-width="0.2"/>
<path d="M84 20H90V56H84V20Z" fill="#618E81"/>
<path d="M14 20H20V56H14V20Z" fill="#618E81"/>
</svg>
