<svg width="104" height="76" viewBox="0 0 104 76" fill="none" xmlns="http://www.w3.org/2000/svg">
<path d="M27.9006 69.9326L27.9007 69.9326L76.411 69.9327L76.4111 69.9327C78.0711 69.9309 79.6626 69.2706 80.8364 68.0968C82.0101 66.923 82.6704 65.3315 82.6722 63.6716L82.6722 63.6715L82.6722 12.569L82.6722 12.5689C82.6704 10.9089 82.0102 9.31742 80.8364 8.14363C79.6626 6.96983 78.0711 6.3096 76.4111 6.30781L76.411 6.30781L27.9007 6.30781L27.9007 6.30781C26.2407 6.3096 24.6492 6.96983 23.4754 8.14362C22.3016 9.31742 21.6413 10.9089 21.6395 12.5689L21.6395 12.569L21.6395 63.6715L21.6395 63.6715C21.6413 65.3315 22.3016 66.923 23.4754 68.0968C24.6492 69.2706 26.2407 69.9309 27.9006 69.9326ZM27.9008 9.33524L76.4109 9.33524C77.2683 9.33612 78.0903 9.67711 78.6966 10.2834C79.3029 10.8896 79.6439 11.7117 79.6447 12.5691L79.6447 63.6714C79.6439 64.5288 79.3029 65.3508 78.6966 65.9571C78.0903 66.5634 77.2683 66.9043 76.4109 66.9052L27.9008 66.9052C27.0434 66.9043 26.2214 66.5634 25.6151 65.9571C25.0088 65.3508 24.6678 64.5288 24.667 63.6714L24.667 12.5691C24.6678 11.7117 25.0088 10.8896 25.6151 10.2834C26.2214 9.67711 27.0434 9.33612 27.9008 9.33524Z" fill="#618E81" stroke="#618E81" stroke-width="0.15"/>
<path d="M64.8736 33.8299L64.8736 33.8298L64.8722 33.8289C63.4218 32.8002 61.7046 32.2134 59.928 32.1392C58.1516 32.0651 56.3918 32.5066 54.8608 33.4106C54.8606 33.4107 54.8604 33.4109 54.8602 33.411L51.7118 35.1851L48.6026 33.4326C46.7855 32.3227 44.6355 31.8884 42.53 32.206C40.4241 32.5237 38.4975 33.5732 37.0885 35.1702L37.0885 35.1703C35.4719 37.0029 34.6033 39.3763 34.655 41.8196C34.7066 44.2628 35.6748 46.5974 37.3675 48.36L37.3677 48.3603L50.6238 62.0561C50.765 62.202 50.934 62.318 51.1209 62.3973C51.3078 62.4765 51.5088 62.5173 51.7118 62.5173C51.9148 62.5173 52.1157 62.4765 52.3026 62.3973C52.4895 62.318 52.6586 62.202 52.7997 62.0561L66.0559 48.3603L66.0559 48.3602C67.0151 47.3686 67.7519 46.1838 68.2169 44.8848C68.682 43.5859 68.8647 42.2027 68.7528 40.8275C68.6409 39.4524 68.237 38.1169 67.5681 36.9102C66.8991 35.7035 65.9805 34.6534 64.8736 33.8299ZM43.8273 35.2028L43.8282 35.2028C44.9798 35.205 46.1114 35.5033 47.1143 36.0692L47.1143 36.0692L50.9682 38.2413C51.1952 38.3692 51.4513 38.4364 51.7118 38.4364C51.9723 38.4364 52.2284 38.3692 52.4553 38.2413L56.3485 36.0474L56.3486 36.0474L56.3504 36.0463C57.372 35.4311 58.5495 35.124 59.7415 35.1621C60.933 35.2001 62.0881 35.5814 63.0681 36.2601C63.8291 36.8266 64.4605 37.5488 64.9204 38.3786C65.3805 39.2087 65.6582 40.1274 65.7351 41.0734C65.8121 42.0194 65.6864 42.9709 65.3665 43.8644C65.0465 44.758 64.5398 45.573 63.8799 46.2552L51.7118 58.8269L39.5438 46.2554C38.3796 45.0428 37.7136 43.4369 37.6778 41.7562C37.642 40.0756 38.2391 38.4429 39.3506 37.1818C39.51 37.0031 39.6787 36.8328 39.8559 36.6716C40.9518 35.7066 42.3672 35.1831 43.8273 35.2028Z" fill="#618E81" stroke="#618E81" stroke-width="0.15"/>
<path d="M64.1783 20.0986V20.0979L64.1685 20.0992C64.1067 20.1074 64.0454 20.1196 63.9852 20.1358C63.8734 20.1456 63.763 20.1682 63.6563 20.203L63.656 20.2023L63.6466 20.2069C63.4795 20.2885 63.3206 20.3857 63.1718 20.4972L63.1713 20.4966L63.1636 20.5043C63.0914 20.5767 63.0269 20.6564 62.9711 20.7421C62.9238 20.793 62.8802 20.8473 62.8408 20.9044L62.8403 20.9041L62.836 20.9123L61.0606 24.3169L59.2866 20.9124L59.2201 20.947L59.2866 20.9124L56.1703 14.9341L56.1705 14.934L56.1677 14.9295C56.027 14.7006 55.83 14.5115 55.5955 14.3804C55.361 14.2492 55.0968 14.1804 54.8281 14.1804C54.5594 14.1804 54.2952 14.2492 54.0607 14.3804C53.8261 14.5115 53.6291 14.7006 53.4885 14.9295L53.4883 14.9294L53.4858 14.9341L50.3696 20.9124L48.5956 24.3162L46.8216 20.9124L46.755 20.947L46.8215 20.9124L43.7053 14.9341L43.7053 14.9341C43.5773 14.6887 43.3845 14.4831 43.1479 14.3396C42.9112 14.1962 42.6398 14.1203 42.3631 14.1203C42.0863 14.1203 41.8149 14.1962 41.5782 14.3396C41.3416 14.4831 41.1488 14.6887 41.0208 14.9341L38.3275 20.0986H34.4543C34.0529 20.0986 33.6679 20.2581 33.384 20.5419C33.1001 20.8258 32.9406 21.2108 32.9406 21.6123C32.9406 22.0138 33.1001 22.3988 33.384 22.6826C33.6679 22.9665 34.0529 23.126 34.4543 23.126H39.2454V23.1266L39.2546 23.1254C39.3234 23.1169 39.3914 23.1033 39.4581 23.0849C39.5606 23.0749 39.6617 23.0542 39.7599 23.0232L39.7602 23.0239L39.7699 23.0193C39.9382 22.9383 40.0984 22.8414 40.2483 22.7299L40.2487 22.7305L40.2563 22.723C40.3314 22.6485 40.3983 22.5663 40.456 22.4777C40.5019 22.4283 40.5442 22.3758 40.5827 22.3205L40.5832 22.3208L40.5876 22.3123L42.363 18.9083L44.1371 22.3122L47.2534 28.2912L47.2534 28.2912C47.3813 28.5366 47.5741 28.7421 47.8108 28.8856C48.0474 29.0291 48.3189 29.105 48.5956 29.105C48.8723 29.105 49.1438 29.0291 49.3804 28.8856C49.6171 28.7421 49.8099 28.5366 49.9378 28.2912L49.9378 28.2912L53.0541 22.3122L54.8281 18.909L56.6022 22.3122L59.7184 28.2912L59.7184 28.2912C59.8464 28.5366 60.0392 28.7421 60.2758 28.8856C60.5125 29.0291 60.7839 29.1049 61.0607 29.1049C61.3374 29.1049 61.6088 29.0291 61.8455 28.8856C62.0821 28.7421 62.2749 28.5366 62.4029 28.2912L62.3364 28.2565L62.4029 28.2912L65.0962 23.126H68.9694C69.3708 23.126 69.7558 22.9665 70.0397 22.6826C70.3236 22.3988 70.4831 22.0138 70.4831 21.6123C70.4831 21.2108 70.3236 20.8258 70.0397 20.5419C69.7558 20.2581 69.3708 20.0986 68.9694 20.0986H64.1783Z" fill="#618E81" stroke="#618E81" stroke-width="0.15"/>
<path d="M87.8243 64.9891L87.8243 59.1996L91.8518 59.1996C92.0506 59.1997 92.2475 59.1606 92.4312 59.0845C92.6148 59.0084 92.7817 58.8969 92.9223 58.7564C93.0629 58.6158 93.1744 58.4489 93.2504 58.2652C93.3265 58.0815 93.3656 57.8847 93.3655 57.6859L93.3655 56.8912L101.874 56.8912C102.073 56.8913 102.27 56.8521 102.454 56.7761C102.637 56.7 102.804 56.5885 102.945 56.448C103.085 56.3074 103.197 56.1405 103.273 55.9568C103.349 55.7731 103.388 55.5763 103.388 55.3775L103.388 20.8624C103.388 20.6636 103.349 20.4668 103.273 20.2831C103.197 20.0994 103.085 19.9325 102.945 19.7919C102.804 19.6514 102.637 19.5399 102.454 19.4638C102.27 19.3878 102.073 19.3486 101.874 19.3487L93.3655 19.3487L93.3655 18.554C93.3656 18.3552 93.3265 18.1583 93.2504 17.9747C93.1744 17.791 93.0629 17.6241 92.9223 17.4835C92.7817 17.343 92.6148 17.2315 92.4312 17.1554C92.2475 17.0793 92.0506 17.0402 91.8518 17.0403L87.8243 17.0403L87.8243 11.2508L87.8243 11.2508C87.8211 8.51315 86.7323 5.88856 84.7965 3.95278C82.8607 2.017 80.2361 0.92811 77.4985 0.924999L77.4984 0.924999L26.8146 0.924997L26.8146 0.924997C24.077 0.928107 21.4524 2.01699 19.5166 3.95277C17.5808 5.88855 16.4919 8.51315 16.4888 11.2508L16.4888 17.0403L12.4612 17.0403C12.2624 17.0402 12.0656 17.0793 11.8819 17.1554C11.6982 17.2315 11.5313 17.3429 11.3908 17.4835C11.2502 17.6241 11.1387 17.791 11.0626 17.9747C10.9866 18.1583 10.9474 18.3552 10.9475 18.554L10.9475 19.3487L2.43879 19.3487C2.24 19.3486 2.04314 19.3878 1.85946 19.4638C1.67578 19.5399 1.50889 19.6513 1.36832 19.7919C1.22774 19.9325 1.11623 20.0994 1.04018 20.2831C0.964126 20.4668 0.92501 20.6636 0.925063 20.8624L0.925062 55.3775C0.925008 55.5763 0.964124 55.7731 1.04018 55.9568C1.11623 56.1405 1.22774 56.3074 1.36831 56.448C1.50889 56.5885 1.67578 56.7 1.85946 56.7761C2.04313 56.8521 2.24 56.8913 2.43881 56.8912L10.9475 56.8912L10.9475 57.6859C10.9474 57.8847 10.9866 58.0815 11.0626 58.2652C11.1387 58.4489 11.2502 58.6158 11.3908 58.7564C11.5313 58.8969 11.6982 59.0084 11.8819 59.0845C12.0656 59.1605 12.2624 59.1997 12.4612 59.1996L16.4888 59.1996L16.4888 64.9891C16.4919 67.7267 17.5808 70.3513 19.5166 72.2871C21.4524 74.2229 24.0769 75.3118 26.8145 75.3149L77.4984 75.3149C80.2361 75.3118 82.8607 74.2229 84.7965 72.2871C86.7323 70.3513 87.8211 67.7268 87.8243 64.9891L87.8243 64.9891ZM3.9525 53.8638L3.9525 22.3761L10.9475 22.3761L10.9475 53.8638L3.9525 53.8638ZM100.361 22.3761L100.361 53.8638L93.3655 53.8638L93.3655 22.3761L100.361 22.3761ZM90.3381 20.0677L90.3381 56.1722L87.8243 56.1722L87.8243 20.0677L90.3381 20.0677ZM26.8146 3.95243L77.4983 3.95243C79.4334 3.9545 81.2886 4.72411 82.6569 6.0924C84.0251 7.46068 84.7948 9.31588 84.7968 11.2509L84.7968 64.989C84.7948 66.924 84.0251 68.7792 82.6569 70.1475C81.2886 71.5158 79.4334 72.2854 77.4983 72.2875L26.8146 72.2875C24.8797 72.2854 23.0245 71.5158 21.6562 70.1475C20.2879 68.7792 19.5183 66.924 19.5162 64.989L19.5162 11.2508C19.5183 9.31587 20.2879 7.46068 21.6562 6.09239C23.0245 4.72411 24.8797 3.9545 26.8146 3.95243ZM16.4888 56.1722L13.9749 56.1722L13.9749 20.0677L16.4888 20.0677L16.4888 56.1722Z" fill="#618E81" stroke="#618E81" stroke-width="0.15"/>
<path d="M83 20H90V56H83V20Z" fill="white"/>
<path d="M14 20H21V56H14V20Z" fill="white"/>
</svg>
