<svg width="95" height="93" viewBox="0 0 95 93" fill="none" xmlns="http://www.w3.org/2000/svg">
<path d="M37 32.5V4.5L40.5 2.5L44 1.5H77H83L88.5 4.5L87.5 34L86.5 36L84 37.5L58.5 37L51.5 46H51L48.5 37H41.5L37 35V32.5Z" fill="#EEEEEE"/>
<path d="M16.9833 90.2667L2.5166 75.8L7.1666 70.6333L9.23327 71.6667L14.3999 67.5333V61.85L19.0499 53.5833L26.7999 52.0333L66.0666 52.55V54.6167L63.9999 58.75L60.8999 61.3333H48.4999L43.3333 67.5333H68.1332L79.4999 56.1667L86.7332 51L92.9332 52.55V55.1333L74.3332 72.7L72.7832 76.3167L66.0666 77.8667H26.7999L21.6333 83.55L22.6666 85.1L16.9833 90.2667Z" fill="#EEEEEE"/>
<path d="M7.16667 71.6641L2 75.7974L17.5 89.2307L21.1167 84.5807L7.16667 71.6641Z" fill="#C4C4C4"/>
<circle cx="27.8333" cy="64.95" r="6.2" fill="#618E81"/>
<path d="M82.3491 52.1411L82.2431 52.0349C85.1367 49.1456 89.8703 49.1182 92.7976 51.9748L92.6928 52.0822L92.7976 51.9748L93.4062 52.569L93.3014 52.6763L93.4062 52.569C93.8812 53.033 94.1467 53.6562 94.15 54.3206C94.1533 54.9847 93.8967 55.6101 93.4273 56.0807L93.4271 56.0809L75.1604 74.3259C74.3987 76.9462 71.9803 78.8704 69.1163 78.8704H27.284L22.2653 83.8892L24.0357 85.6596L24.1418 85.7657L24.0357 85.8718L17.6725 92.2361L17.5664 92.3421L17.4603 92.2361L0.893934 75.6697L0.787868 75.5636L0.893934 75.4576L7.25823 69.0933L7.3643 68.9872L7.47036 69.0933L9.22223 70.8451L13.6501 66.4173C13.2242 63.0096 14.0588 59.5791 16.0938 56.6588C18.7734 52.8128 22.9992 50.6064 27.6869 50.6064H27.6869L64.6058 50.6147L64.6058 50.6147L64.6058 50.7647L82.3491 52.1411ZM82.3491 52.1411L82.2431 52.0349L67.9857 66.2748M82.3491 52.1411L67.9857 66.2748M67.9857 66.2748H46.0557L49.7056 62.5934L67.9857 66.2748ZM51.5186 54.802C51.2547 54.1694 50.9088 53.597 50.4986 53.0909H64.6058C65.0612 53.0909 65.4333 53.4628 65.4333 53.9194C65.4333 57.3365 62.6536 60.1162 59.2366 60.1162H51.503C52.2253 58.4597 52.2551 56.5705 51.5186 54.8021L51.5186 54.802ZM49.2329 55.7544L49.2329 55.7545C49.7724 57.0488 49.8107 58.9683 48.309 60.484L35.9627 72.9398L36.0693 73.0454L35.9627 72.9398C33.1447 75.7833 29.1276 76.9737 25.2159 76.1249C21.3042 75.276 18.1409 72.5279 16.7544 68.7733C15.4146 65.1448 15.9143 61.2468 18.1245 58.0734C20.3347 54.901 23.8186 53.0816 27.6858 53.0816H45.2236C47.3573 53.0816 48.6933 54.4591 49.2329 55.7544ZM14.43 69.6305C16.0553 74.0318 19.6961 77.2883 24.2216 78.4293L20.5135 82.1374L10.972 72.5959L14.3041 69.2638C14.3439 69.3854 14.3851 69.508 14.4299 69.6302L14.43 69.6305ZM69.1163 76.3932H35.6701C36.3972 75.8942 37.0852 75.3241 37.7216 74.6824L37.7216 74.6824L43.6007 68.751H69.1152C71.222 68.751 72.9363 70.4653 72.9363 72.5721C72.9373 74.6789 71.2231 76.3932 69.1163 76.3932ZM91.0669 53.7477L91.1717 53.6404L91.0669 53.7478L91.6689 54.3354L75.1595 70.8243C74.5883 68.8527 73.0818 67.2769 71.1499 66.6154L83.9938 53.7879C85.9331 51.8515 89.1066 51.8325 91.0669 53.7477ZM17.5664 88.8396L4.29043 75.5636L7.36326 72.4908L20.6392 85.7667L17.5664 88.8396ZM69.0346 74.2339C69.908 74.2339 70.6148 73.526 70.6148 72.6538C70.6148 71.7814 69.9069 71.0736 69.0346 71.0736C68.1623 71.0736 67.4545 71.7814 67.4545 72.6538C67.4545 73.526 68.1612 74.2339 69.0346 74.2339ZM27.692 71.6041C31.3977 71.6041 34.4109 68.5898 34.4109 64.8852C34.4109 61.1794 31.3967 58.1663 27.692 58.1663C23.9874 58.1663 20.9721 61.1804 20.9721 64.8852C20.9721 68.5898 23.9863 71.6041 27.692 71.6041ZM27.692 60.6425C30.0313 60.6425 31.9347 62.5459 31.9347 64.8852C31.9347 67.2244 30.0313 69.1279 27.692 69.1279C25.3527 69.1279 23.4493 67.2244 23.4493 64.8852C23.4493 62.5449 25.3527 60.6425 27.692 60.6425Z" fill="#303838" stroke="#303838" stroke-width="0.3"/>
<path d="M43.4956 2.80096H43.2456C41.8543 2.80096 40.4894 3.41482 39.4707 4.36327C38.4512 5.31243 37.8002 6.57568 37.8002 7.85414V31.4441C37.8002 32.8081 38.5018 33.9769 39.5439 34.8123C40.588 35.6493 41.9571 36.136 43.2456 36.136H48.3224C48.8063 36.136 49.2243 36.4743 49.3257 36.9475L49.3257 36.9479L50.6806 43.3158L43.4956 2.80096ZM43.4956 2.80096V2.80018M43.4956 2.80096V2.80018M43.4956 2.80018H82.9C84.2912 2.80018 85.3585 3.43988 86.085 4.38981C86.8158 5.34542 87.2006 6.61607 87.2006 7.85336V31.4441C87.2006 32.8708 86.76 34.0422 86.0122 34.8543C85.2661 35.6646 84.1973 36.136 82.9 36.136H57.9661C57.6261 36.136 57.3096 36.3054 57.1193 36.5848L57.1192 36.5849C55.113 39.5323 52.9906 43.5028 52.889 43.6942C52.5816 44.244 52.2923 44.6044 52.0528 44.8239C51.8039 45.0521 51.6389 45.1015 51.5786 45.1015C51.5618 45.1015 51.5168 45.0939 51.4444 45.0373C51.3727 44.9812 51.2866 44.8864 51.1948 44.7405C51.0111 44.4488 50.8233 43.9834 50.6806 43.316L43.4956 2.80018ZM48.6747 43.7418L48.6748 43.7421C48.9809 45.1714 49.4799 46.0281 50.0284 46.5276C50.5808 47.0306 51.1599 47.1502 51.5778 47.1502C52.4168 47.1502 53.5743 46.6707 54.6872 44.6758L54.6873 44.6758L54.6907 44.6693C54.6905 44.6696 54.6923 44.6662 54.6971 44.6573L54.7156 44.6226L54.7849 44.494C54.8448 44.3831 54.9315 44.2234 55.0409 44.0239C55.2598 43.625 55.5695 43.0669 55.9377 42.4213C56.6553 41.163 57.5932 39.5755 58.5126 38.1854H82.8993C84.7602 38.1854 86.3528 37.4926 87.479 36.2941C88.6042 35.0967 89.25 33.4098 89.25 31.4433V7.85336C89.25 3.83618 86.5417 0.75 82.8993 0.75H43.2456C39.3283 0.75 35.75 4.11524 35.75 7.85336V31.4425C35.75 33.445 36.7503 35.1342 38.1784 36.3162C39.6042 37.4963 41.4714 38.1847 43.2456 38.1847H47.4922L48.6747 43.7418Z" fill="#303838" stroke="#303838" stroke-width="0.5"/>
<path d="M46.4332 14.1283H78.0019C78.5686 14.1283 79.027 13.6699 79.027 13.1032C79.027 12.5365 78.5686 12.0781 78.0019 12.0781H46.4332C45.8665 12.0781 45.4081 12.5365 45.4081 13.1032C45.4081 13.6699 45.8665 14.1283 46.4332 14.1283Z" fill="#303838" stroke="#303838" stroke-width="0.5"/>
<path d="M46.4333 19.9408H78.002C78.5687 19.9408 79.0271 19.4824 79.0271 18.9157C79.0271 18.349 78.5687 17.8906 78.002 17.8906H46.4333C45.8666 17.8906 45.4082 18.349 45.4082 18.9157C45.4082 19.4824 45.8666 19.9408 46.4333 19.9408Z" fill="#303838" stroke="#303838" stroke-width="0.5"/>
<path d="M46.4332 25.7533H69.1651C69.7308 25.7533 70.1902 25.2951 70.1902 24.7282C70.1902 24.1615 69.7318 23.7031 69.1651 23.7031H46.4332C45.8665 23.7031 45.4081 24.1615 45.4081 24.7282C45.4081 25.2949 45.8665 25.7533 46.4332 25.7533Z" fill="#303838" stroke="#303838" stroke-width="0.5"/>
</svg>
