<svg width="80" height="81" viewBox="0 0 80 81" fill="none" xmlns="http://www.w3.org/2000/svg">
<path d="M21.5 62V29.5L32.75 21L44 12.5L68.5 28.5L67 55.5V60.5L61.5 62.5H29L21.5 62Z" fill="#EEEEEE"/>
<path d="M44.5 12.5L16 32L13 30.5L11 27.5L13 23.5L46 1L79 24.5L77.5 30.5L76 32H71.5L44.5 12.5Z" fill="#618E81"/>
<ellipse cx="55" cy="29.5" rx="4" ry="3.5" fill="#C0E3C0"/>
<rect x="1" y="66" width="9" height="14" fill="#C4C4C4"/>
<rect x="17" y="51" width="9" height="29" fill="#C4C4C4"/>
<rect x="34" y="57" width="9" height="23" fill="#C4C4C4"/>
<rect x="50" y="40" width="9" height="40" fill="#C0E3C0"/>
<ellipse cx="5" cy="53.5" rx="4" ry="3.5" fill="#C4C4C4"/>
<ellipse cx="22" cy="40.5" rx="4" ry="3.5" fill="#C4C4C4"/>
<ellipse cx="38" cy="44.5" rx="4" ry="3.5" fill="#C4C4C4"/>
<path d="M79.9211 26.0231C79.6599 24.3957 78.778 22.9659 77.4381 21.9999L48.7501 1.25358C46.5614 -0.391671 43.6 -0.420161 41.3755 1.18413L12.5936 21.999C9.82533 23.9959 9.2046 27.8615 11.2108 30.6179C12.4219 32.2818 14.3181 33.1659 16.2393 33.1659C17.5005 33.1659 18.7723 32.7848 19.8689 31.9942C19.8698 31.9942 19.8698 31.9934 19.8698 31.9934L20.8376 31.2936V35.818C18.6587 36.3807 17.0443 38.3553 17.0443 40.6977C17.0443 41.4072 17.1928 42.083 17.4602 42.6964L8.77438 49.4278C7.9193 48.7726 6.85045 48.3808 5.69037 48.3808C2.89796 48.3808 0.626102 50.6422 0.626102 53.4216C0.626102 56.2011 2.89796 58.4624 5.69037 58.4624C8.48279 58.4624 10.7546 56.2011 10.7546 53.4216C10.7546 52.7121 10.6053 52.0364 10.3387 51.4229L19.0246 44.6915C19.5559 45.0992 20.1694 45.4046 20.8376 45.5773V50.3786H17.6883C16.9862 50.3786 16.4173 50.9449 16.4173 51.6437V79.7349C16.4173 80.4338 16.9862 81 17.6883 81H26.5306C27.2328 81 27.8016 80.4338 27.8016 79.7349V63.9662C28.2471 64.0401 28.6996 64.0792 29.1567 64.0792H32.8346V79.7349C32.8346 80.4338 33.4035 81 34.1056 81H42.9479C43.6501 81 44.2189 80.4338 44.2189 79.7349V64.0792H49.2519V79.734C49.2519 80.4329 49.8207 80.9991 50.5229 80.9991H59.3652C60.0674 80.9991 60.6362 80.4329 60.6362 79.734V64.0792H60.8697C65.4572 64.0792 69.1888 60.365 69.1888 55.7987V31.2927L70.1583 31.9934C72.9266 33.9894 76.8111 33.3724 78.8173 30.617C79.7905 29.2824 80.1822 27.6505 79.9211 26.0231ZM5.69216 55.9313C4.30132 55.9313 3.17076 54.8051 3.17076 53.4216C3.17076 52.0372 4.30222 50.9119 5.69216 50.9119C7.08211 50.9119 8.21357 52.0381 8.21357 53.4216C8.21357 54.8051 7.083 55.9313 5.69216 55.9313ZM19.589 40.6968C19.589 39.3124 20.7204 38.1871 22.1104 38.1871C23.5003 38.1871 24.6318 39.3133 24.6318 40.6968C24.6318 42.0803 23.5003 43.2065 22.1104 43.2065C20.7204 43.2065 19.589 42.0803 19.589 40.6968ZM25.2597 78.4689H18.9602V52.9088H25.2597V78.4689ZM41.6778 78.4689H35.3784V58.9102H41.6778V78.4689ZM58.096 78.4689H51.7965V41.3636H58.096V78.4689ZM66.6486 55.7987C66.6486 58.969 64.0574 61.5482 60.8723 61.5482H60.6389V40.0985C60.6389 39.3996 60.07 38.8334 59.3679 38.8334H50.5256C49.8234 38.8334 49.2546 39.3996 49.2546 40.0985V61.5482H44.2216V57.6451C44.2216 56.9463 43.6527 56.3801 42.9506 56.3801H34.1083C33.4061 56.3801 32.8373 56.9463 32.8373 57.6451V61.5482H29.1594C28.6987 61.5482 28.2462 61.4938 27.8043 61.387V51.6428C27.8043 50.944 27.2355 50.3777 26.5333 50.3777H23.384V45.5764C24.8142 45.207 26.0002 44.2285 26.6469 42.9376L33.4705 44.3639C33.5949 47.0338 35.8157 49.1687 38.5285 49.1687C41.321 49.1687 43.5928 46.9074 43.5928 44.1279C43.5928 43.2964 43.388 42.5121 43.0284 41.8194L52.1418 33.7063C52.945 34.2404 53.9101 34.552 54.9467 34.552C57.7392 34.552 60.011 32.2907 60.011 29.5112C60.011 26.7318 57.7392 24.4704 54.9467 24.4704C52.1543 24.4704 49.8825 26.7318 49.8825 29.5112C49.8825 30.3428 50.0873 31.1271 50.4468 31.8197L41.3335 39.9329C40.5303 39.3987 39.5652 39.0871 38.5285 39.0871C36.5447 39.0871 34.8238 40.2294 33.9938 41.8871L27.1684 40.4609C27.0646 38.2227 25.4868 36.3611 23.3813 35.8171V29.4543L45.015 13.8093L66.6477 29.4543V55.7987H66.6486ZM41.0499 44.1279C41.0499 45.5123 39.9185 46.6377 38.5285 46.6377C37.1386 46.6377 36.0071 45.5114 36.0071 44.1279C36.0071 42.7444 37.1386 41.6182 38.5285 41.6182C39.9185 41.6182 41.0499 42.7435 41.0499 44.1279ZM52.4244 29.5121C52.4244 28.1277 53.5559 27.0024 54.9458 27.0024C56.3367 27.0024 57.4672 28.1286 57.4672 29.5121C57.4672 30.8956 56.3358 32.0218 54.9458 32.0218C53.5559 32.0218 52.4244 30.8956 52.4244 29.5121ZM76.7601 29.132C75.5768 30.7576 73.2853 31.1218 71.6538 29.9448L45.7627 11.2212C45.54 11.0601 45.2779 10.9799 45.0159 10.9799C44.7538 10.9799 44.4917 11.0601 44.269 11.2212L18.377 29.9448C16.7438 31.1218 14.454 30.7567 13.2707 29.132C12.0874 27.5063 12.4532 25.2263 14.0873 24.0476L42.8692 3.23268C44.1831 2.28542 45.9335 2.30322 47.2242 3.27808C47.2314 3.28343 47.2385 3.28877 47.2448 3.29322L75.9435 24.0476C76.7351 24.6182 77.2548 25.4613 77.4095 26.4211C77.5642 27.3826 77.3335 28.345 76.7601 29.132ZM10.1133 65.2259H1.27099C0.568858 65.2259 0 65.7921 0 66.491V79.7331C0 80.432 0.568858 80.9982 1.27099 80.9982H10.1124C10.8146 80.9982 11.3834 80.432 11.3834 79.7331V66.4919C11.3843 65.7921 10.8155 65.2259 10.1133 65.2259ZM8.84146 78.4689H2.54287V67.757H8.84235V78.4689H8.84146Z" fill="#303838"/>
</svg>
