<svg width="86" height="84" viewBox="0 0 86 84" fill="none" xmlns="http://www.w3.org/2000/svg">
<path d="M28.1352 61.6081C28.1352 60.7962 28.7933 60.1391 29.6042 60.1391C30.4152 60.1391 31.0733 60.7962 31.0733 61.6081V64.7505C31.0733 65.5624 30.4152 66.2195 29.6042 66.2195C28.7933 66.2195 28.1352 65.5624 28.1352 64.7505V61.6081Z" fill="#618E81" stroke="white" stroke-width="0.2"/>
<path d="M28.1352 50.0925C28.1352 49.2806 28.7933 48.6234 29.6042 48.6234C30.4152 48.6234 31.0733 49.2806 31.0733 50.0925V53.2348C31.0733 54.0468 30.4152 54.7039 29.6042 54.7039C28.7933 54.7039 28.1352 54.0468 28.1352 53.2348V50.0925Z" fill="#618E81" stroke="white" stroke-width="0.2"/>
<path d="M14.7938 63.4988C14.7938 62.6869 15.452 62.0297 16.2629 62.0297C17.0738 62.0297 17.732 62.6879 17.732 63.4988V66.1264C17.732 66.9383 17.0739 67.5955 16.2629 67.5955C15.452 67.5955 14.7938 66.9383 14.7938 66.1264V63.4988Z" fill="#618E81" stroke="white" stroke-width="0.2"/>
<mask id="path-4-inside-1_1348_7206" fill="white">
<path d="M70.1345 39.5863V16.025L70.4316 16.2635C71.1419 16.8326 72.0342 17.1464 72.9641 17.1464C75.1796 17.1464 76.983 15.343 76.983 13.1275C76.983 12.9612 76.9736 12.798 76.9548 12.6369L76.755 3.92643C76.7278 2.73498 76.1797 1.62512 75.2508 0.881375C74.3386 0.150186 73.1263 -0.154215 71.9526 0.0748705L63.0151 1.85316C61.4889 2.15756 60.2651 3.33018 59.8969 4.84068C59.5276 6.35222 60.0736 7.95686 61.2871 8.92969L62.4492 9.86172L39.5627 37.1009L31.2487 32.5474C29.5279 31.6081 27.2831 31.9292 25.8939 33.3163L1.32116 57.9717C0.469676 58.8232 0 59.955 0 61.16C0 62.2908 0.426788 63.3494 1.18308 64.18V74.7043C1.18308 75.5715 1.65276 76.2734 2.23227 76.2734H46.861C47.0053 76.2734 47.1424 76.2294 47.2668 76.151C51.3527 80.557 57.1719 83.3353 63.6407 83.3353C75.9694 83.3353 86 73.3047 86 60.9759C86 50.9066 79.3053 42.3761 70.1345 39.5863ZM42.5732 53.5573C42.4194 53.5071 42.2573 53.4726 42.0868 53.4726C41.2207 53.4726 40.5177 54.1745 40.5177 55.0417V57.6694C40.5177 58.2792 40.8692 58.8022 41.3776 59.0617C41.3232 59.6935 41.2803 60.3295 41.2803 60.9759C41.2803 61.7521 41.3211 62.5189 41.3974 63.2741C40.8786 63.5293 40.5167 64.0586 40.5167 64.6779V66.247C40.5167 67.1142 41.2196 67.8161 42.0858 67.8161C42.1757 67.8161 42.2636 67.8046 42.3494 67.7899C42.9613 69.6969 43.8285 71.4887 44.9007 73.1352H31.1734C31.1734 72.2681 30.4704 71.5661 29.6043 71.5661C28.7381 71.5661 28.0352 72.2681 28.0352 73.1352H17.832C17.832 72.2681 17.1291 71.5661 16.2629 71.5661C15.3968 71.5661 14.6939 72.2681 14.6939 73.1352H4.32123V65.6497C4.38504 65.6518 4.44467 65.6685 4.50848 65.6685C5.71248 65.6685 6.84431 65.1999 7.69893 64.3453L14.8529 57.1662C15.106 57.6934 15.6405 58.0595 16.264 58.0595C17.1301 58.0595 17.8331 57.3576 17.8331 56.4905V54.9214C17.8331 54.7017 17.787 54.4925 17.7055 54.3032L28.8783 43.0906C29.0969 43.2056 29.3407 43.2768 29.6043 43.2768C30.1284 43.2768 30.5886 43.0173 30.8742 42.623L38.4737 46.7852C39.1014 47.1283 39.8054 47.3114 40.5188 47.3302V48.0342C40.5188 48.9014 41.2217 49.6033 42.0878 49.6033C42.954 49.6033 43.6569 48.9014 43.6569 48.0342V46.4651C43.6569 46.3647 43.6454 46.2674 43.6276 46.1712C43.7856 46.03 43.9509 45.895 44.0889 45.7297L55.6959 31.9156C55.9386 32.0704 56.2263 32.1635 56.5359 32.1635C57.402 32.1635 58.105 31.4616 58.105 30.5944V29.0484L66.9964 18.4665V38.898C65.8991 38.7317 64.784 38.6176 63.6407 38.6176C53.9145 38.6176 45.6423 44.8699 42.5732 53.5573ZM3.54193 60.1893L28.1147 35.5339C28.3741 35.2745 28.7183 35.1322 29.0854 35.1322C29.3145 35.1322 29.5415 35.1908 29.7424 35.3006L39.183 40.4713C39.8399 40.8311 40.6579 40.6773 41.138 40.1041L65.8844 10.6525C66.1564 10.3293 66.2861 9.90984 66.2453 9.48933C66.2035 9.06881 65.9943 8.68282 65.6637 8.41922L63.2484 6.48298C62.9827 6.26958 62.8635 5.91811 62.944 5.58651C63.0245 5.25596 63.2934 4.99863 63.6271 4.93273L72.5603 3.15444C72.8177 3.10423 73.0865 3.17014 73.2873 3.33123C73.4892 3.49336 73.6106 3.73605 73.6148 3.99861L73.8166 12.798C73.8187 12.8649 73.825 12.9329 73.8355 12.9988C73.8418 13.0417 73.8438 13.0846 73.8438 13.1285C73.8438 13.6139 73.4484 14.0093 72.9453 14.0093C72.7465 14.0093 72.5499 13.9413 72.3951 13.8158L70.2507 12.0971C69.5822 11.5626 68.6157 11.6609 68.0676 12.3126L67.1512 13.4026C67.1177 13.434 67.0916 13.4675 67.0686 13.502L41.6862 43.7119C41.2782 44.1962 40.5345 44.3364 39.979 44.0331L30.3585 38.763C30.3449 38.7557 30.3302 38.7557 30.3166 38.7484C30.1848 38.6804 30.0436 38.6271 29.894 38.5988C29.8742 38.5957 29.8553 38.5957 29.8355 38.5925C29.7591 38.581 29.6827 38.5695 29.6043 38.5695C29.5467 38.5695 29.4944 38.58 29.439 38.5863C29.4087 38.5894 29.3794 38.5905 29.3501 38.5946C29.2036 38.6187 29.0666 38.6616 28.9369 38.7233C28.9128 38.7348 28.8898 38.7484 28.8668 38.762C28.7298 38.8352 28.6022 38.922 28.4934 39.0308L5.47712 62.1287C4.95828 62.6465 4.05868 62.6475 3.53879 62.1287C3.28041 61.8703 3.13711 61.5262 3.13711 61.16C3.13711 60.7939 3.28146 60.4498 3.54193 60.1893ZM63.6407 80.1982C53.0421 80.1982 44.4195 71.5756 44.4195 60.977C44.4195 50.3784 53.0421 41.7558 63.6407 41.7558C74.2393 41.7558 82.8618 50.3784 82.8618 60.977C82.8618 71.5756 74.2393 80.1982 63.6407 80.1982Z"/>
</mask>
<path d="M70.1345 39.5863V16.025L70.4316 16.2635C71.1419 16.8326 72.0342 17.1464 72.9641 17.1464C75.1796 17.1464 76.983 15.343 76.983 13.1275C76.983 12.9612 76.9736 12.798 76.9548 12.6369L76.755 3.92643C76.7278 2.73498 76.1797 1.62512 75.2508 0.881375C74.3386 0.150186 73.1263 -0.154215 71.9526 0.0748705L63.0151 1.85316C61.4889 2.15756 60.2651 3.33018 59.8969 4.84068C59.5276 6.35222 60.0736 7.95686 61.2871 8.92969L62.4492 9.86172L39.5627 37.1009L31.2487 32.5474C29.5279 31.6081 27.2831 31.9292 25.8939 33.3163L1.32116 57.9717C0.469676 58.8232 0 59.955 0 61.16C0 62.2908 0.426788 63.3494 1.18308 64.18V74.7043C1.18308 75.5715 1.65276 76.2734 2.23227 76.2734H46.861C47.0053 76.2734 47.1424 76.2294 47.2668 76.151C51.3527 80.557 57.1719 83.3353 63.6407 83.3353C75.9694 83.3353 86 73.3047 86 60.9759C86 50.9066 79.3053 42.3761 70.1345 39.5863ZM42.5732 53.5573C42.4194 53.5071 42.2573 53.4726 42.0868 53.4726C41.2207 53.4726 40.5177 54.1745 40.5177 55.0417V57.6694C40.5177 58.2792 40.8692 58.8022 41.3776 59.0617C41.3232 59.6935 41.2803 60.3295 41.2803 60.9759C41.2803 61.7521 41.3211 62.5189 41.3974 63.2741C40.8786 63.5293 40.5167 64.0586 40.5167 64.6779V66.247C40.5167 67.1142 41.2196 67.8161 42.0858 67.8161C42.1757 67.8161 42.2636 67.8046 42.3494 67.7899C42.9613 69.6969 43.8285 71.4887 44.9007 73.1352H31.1734C31.1734 72.2681 30.4704 71.5661 29.6043 71.5661C28.7381 71.5661 28.0352 72.2681 28.0352 73.1352H17.832C17.832 72.2681 17.1291 71.5661 16.2629 71.5661C15.3968 71.5661 14.6939 72.2681 14.6939 73.1352H4.32123V65.6497C4.38504 65.6518 4.44467 65.6685 4.50848 65.6685C5.71248 65.6685 6.84431 65.1999 7.69893 64.3453L14.8529 57.1662C15.106 57.6934 15.6405 58.0595 16.264 58.0595C17.1301 58.0595 17.8331 57.3576 17.8331 56.4905V54.9214C17.8331 54.7017 17.787 54.4925 17.7055 54.3032L28.8783 43.0906C29.0969 43.2056 29.3407 43.2768 29.6043 43.2768C30.1284 43.2768 30.5886 43.0173 30.8742 42.623L38.4737 46.7852C39.1014 47.1283 39.8054 47.3114 40.5188 47.3302V48.0342C40.5188 48.9014 41.2217 49.6033 42.0878 49.6033C42.954 49.6033 43.6569 48.9014 43.6569 48.0342V46.4651C43.6569 46.3647 43.6454 46.2674 43.6276 46.1712C43.7856 46.03 43.9509 45.895 44.0889 45.7297L55.6959 31.9156C55.9386 32.0704 56.2263 32.1635 56.5359 32.1635C57.402 32.1635 58.105 31.4616 58.105 30.5944V29.0484L66.9964 18.4665V38.898C65.8991 38.7317 64.784 38.6176 63.6407 38.6176C53.9145 38.6176 45.6423 44.8699 42.5732 53.5573ZM3.54193 60.1893L28.1147 35.5339C28.3741 35.2745 28.7183 35.1322 29.0854 35.1322C29.3145 35.1322 29.5415 35.1908 29.7424 35.3006L39.183 40.4713C39.8399 40.8311 40.6579 40.6773 41.138 40.1041L65.8844 10.6525C66.1564 10.3293 66.2861 9.90984 66.2453 9.48933C66.2035 9.06881 65.9943 8.68282 65.6637 8.41922L63.2484 6.48298C62.9827 6.26958 62.8635 5.91811 62.944 5.58651C63.0245 5.25596 63.2934 4.99863 63.6271 4.93273L72.5603 3.15444C72.8177 3.10423 73.0865 3.17014 73.2873 3.33123C73.4892 3.49336 73.6106 3.73605 73.6148 3.99861L73.8166 12.798C73.8187 12.8649 73.825 12.9329 73.8355 12.9988C73.8418 13.0417 73.8438 13.0846 73.8438 13.1285C73.8438 13.6139 73.4484 14.0093 72.9453 14.0093C72.7465 14.0093 72.5499 13.9413 72.3951 13.8158L70.2507 12.0971C69.5822 11.5626 68.6157 11.6609 68.0676 12.3126L67.1512 13.4026C67.1177 13.434 67.0916 13.4675 67.0686 13.502L41.6862 43.7119C41.2782 44.1962 40.5345 44.3364 39.979 44.0331L30.3585 38.763C30.3449 38.7557 30.3302 38.7557 30.3166 38.7484C30.1848 38.6804 30.0436 38.6271 29.894 38.5988C29.8742 38.5957 29.8553 38.5957 29.8355 38.5925C29.7591 38.581 29.6827 38.5695 29.6043 38.5695C29.5467 38.5695 29.4944 38.58 29.439 38.5863C29.4087 38.5894 29.3794 38.5905 29.3501 38.5946C29.2036 38.6187 29.0666 38.6616 28.9369 38.7233C28.9128 38.7348 28.8898 38.7484 28.8668 38.762C28.7298 38.8352 28.6022 38.922 28.4934 39.0308L5.47712 62.1287C4.95828 62.6465 4.05868 62.6475 3.53879 62.1287C3.28041 61.8703 3.13711 61.5262 3.13711 61.16C3.13711 60.7939 3.28146 60.4498 3.54193 60.1893ZM63.6407 80.1982C53.0421 80.1982 44.4195 71.5756 44.4195 60.977C44.4195 50.3784 53.0421 41.7558 63.6407 41.7558C74.2393 41.7558 82.8618 50.3784 82.8618 60.977C82.8618 71.5756 74.2393 80.1982 63.6407 80.1982Z" fill="#618E81" stroke="white" stroke-width="0.4" mask="url(#path-4-inside-1_1348_7206)"/>
<path d="M61.0374 53.5812L61.0367 53.5817L60.0883 55.5838L59.9889 55.5731C59.9889 55.5731 59.9889 55.5731 59.9889 55.5731C59.8662 56.711 60.3827 57.4871 60.9941 57.9958C61.6017 58.5015 62.307 58.7473 62.5836 58.8358C62.5838 58.8359 62.5839 58.8359 62.5841 58.836L66.1344 60.0069C66.1346 60.0069 66.1348 60.007 66.135 60.0071C68.0938 60.6823 69.2185 61.6689 69.8552 62.6904C70.4928 63.7135 70.6471 64.7814 70.6476 65.628C70.6476 67.9594 69.1546 71.6256 65.1938 72.312L65.1108 72.3264V72.4105V73.8593C65.1108 74.6713 64.4537 75.3284 63.6418 75.3284C62.8298 75.3284 62.1727 74.6713 62.1727 73.8593V72.4231V72.3385L62.0892 72.3245C60.823 72.1121 59.196 71.5017 57.8699 69.7477L57.8696 69.7473C56.9928 68.5993 56.7474 67.4188 56.7468 65.7154L56.7478 65.7081C56.7489 65.6997 56.7509 65.6867 56.7541 65.6698C56.7604 65.636 56.7713 65.5868 56.7894 65.5274C56.8258 65.4084 56.8908 65.2499 57.0049 65.0918C57.2298 64.7801 57.6545 64.457 58.467 64.457C59.279 64.457 59.6612 64.7792 59.8467 65.0851C59.9415 65.2414 59.9878 65.3984 60.0104 65.5169C60.0216 65.576 60.0268 65.6249 60.0292 65.6585C60.0304 65.6754 60.0309 65.6883 60.0311 65.6967L60.0312 65.7059L60.0312 65.7078V65.7095C60.0312 67.0367 60.5549 67.8744 61.271 68.3764C61.9815 68.8744 62.8704 69.0345 63.5957 69.0345C65.1537 69.0345 66.1004 68.5599 66.6563 67.9466C67.2098 67.3359 67.3632 66.6013 67.3621 66.1016C67.3595 64.8249 66.8261 64.07 66.1497 63.6052C65.5257 63.1765 64.7835 62.9977 64.2533 62.87C64.2156 62.861 64.179 62.8521 64.1435 62.8435L64.1435 62.8433L64.1371 62.8422L64.1198 62.9406L64.1371 62.8421L64.1369 62.8421L64.1363 62.842L64.1333 62.8415L64.1213 62.8393L64.0736 62.8303C64.0316 62.8222 63.9696 62.8099 63.8902 62.7931C63.7313 62.7594 63.5026 62.7078 63.2242 62.6359C62.6672 62.4921 61.9126 62.2676 61.1209 61.9449C59.5296 61.2963 57.8214 60.2637 57.233 58.7208L57.2329 58.7208C56.5382 56.8997 56.5321 55.4698 56.7964 54.3622C57.061 53.2533 57.5985 52.4593 58.0053 51.9112C58.9243 50.6839 60.2846 49.9594 62.0844 49.7278L62.1716 49.7166V49.6286V48.1003C62.1716 47.2884 62.8288 46.6313 63.6407 46.6313C64.4527 46.6313 65.1098 47.2884 65.1098 48.1003V49.7112V49.7935L65.1905 49.8094C66.6929 50.1047 67.9248 50.7946 68.7904 51.9309L68.7904 51.931C69.1649 52.4215 69.4892 53.0843 69.7024 53.7506C69.9161 54.4184 70.0143 55.0775 69.9477 55.5618L69.9476 55.5619C69.9336 55.6654 69.8696 56.0108 69.6265 56.3283C69.3871 56.6409 68.9674 56.9357 68.2203 56.9357C67.4755 56.9357 67.0902 56.6276 66.8871 56.3298C66.7839 56.1784 66.7257 56.0265 66.6935 55.9123C66.6774 55.8553 66.6678 55.8081 66.6623 55.7757C66.6596 55.7595 66.6579 55.747 66.6569 55.7389L66.6559 55.73L66.6557 55.7282L66.6558 55.7282L66.6554 55.725C66.6097 55.3288 66.5588 55.0398 66.4751 54.7907C66.3908 54.5395 66.2745 54.333 66.1033 54.099L66.1033 54.0989L66.1018 54.097C65.4641 53.2694 64.4918 53.0391 63.1177 53.0391C62.2987 53.0391 61.602 53.2182 61.0374 53.5812Z" fill="#618E81" stroke="white" stroke-width="0.2"/>
</svg>
