<svg width="119" height="81" viewBox="0 0 119 81" fill="none" xmlns="http://www.w3.org/2000/svg">
<path d="M65 59H35.5H34V46H19V3H65L65.5 41L69.5 40.5V33.5H81.5V40.5H88V51.5H81.5V59H69.5V51.5H65V59Z" fill="#EEEEEE"/>
<path d="M50.5 58.5L46.5 74L2 64L15 10.5L19.5 11V45L33.5 58.5H50.5Z" fill="#EEEEEE"/>
<path d="M32.5 29L42 38.5L50 32.5L53.5 27L50 21L47.5 20L42 21H35.5L32.5 23V29Z" fill="#B46D6D"/>
<path d="M33 58L21 47V44.5H34V54.5L33 58Z" fill="#C4C4C4"/>
<path d="M101 69.5H49L50 58.5H65.5V21H71.5L76 9.5H101V69.5Z" fill="#618E81"/>
<path d="M70 40H65.5L66 52H70V58.5H80.5V51.5H88V40H80.5V33H70V40Z" fill="#004D40"/>
<mask id="mask0_1348_7515" style="mask-type:alpha" maskUnits="userSpaceOnUse" x="47" y="0" width="72" height="81">
<path d="M66.7337 59.0651V5.71598L118.177 0L116.748 80.5L47.6804 74.3077L50.5384 58.1124L66.7337 59.0651Z" fill="#C4C4C4"/>
</mask>
<g mask="url(#mask0_1348_7515)">
<path d="M82.1859 34.5791C82.1859 33.2391 81.0955 32.1594 79.7662 32.1594H70.8779C69.5379 32.1594 68.4582 33.2498 68.4582 34.5791V39.3043H63.7329C62.3929 39.3043 61.3132 40.3947 61.3132 41.7241V50.6124C61.3132 51.9523 62.4036 53.0321 63.7329 53.0321H68.4486V57.7574C68.4486 59.0973 69.539 60.1771 70.8683 60.1771H79.7567C81.0966 60.1771 82.1764 59.0867 82.1764 57.7574V53.0321H86.9016C88.2416 53.0321 89.3214 51.9417 89.3214 50.6124V41.7241C89.3214 40.3841 88.231 39.3043 86.9016 39.3043H82.1859V34.5791ZM86.9112 41.6097C86.9722 41.6097 87.0256 41.663 87.0256 41.7241V50.6124C87.0256 50.6734 86.9722 50.7268 86.9112 50.7268H81.0332C80.3988 50.7268 79.8806 51.245 79.8806 51.8794V57.7574C79.8806 57.8184 79.8272 57.8717 79.7662 57.8717H70.8779C70.8168 57.8717 70.7635 57.8184 70.7635 57.7574V51.8794C70.7635 51.245 70.2452 50.7268 69.6108 50.7268H63.7329C63.6719 50.7268 63.6185 50.6734 63.6185 50.6124V41.7241C63.6185 41.663 63.6719 41.6097 63.7329 41.6097H69.6013C70.2357 41.6097 70.754 41.0914 70.754 40.457V34.5791C70.754 34.5181 70.8073 34.4647 70.8683 34.4647H79.7567C79.8177 34.4647 79.8711 34.5181 79.8711 34.5791V40.457C79.8711 41.0914 80.3893 41.6097 81.0237 41.6097H86.9112Z" fill="#303838" stroke="#303838" stroke-width="0.4"/>
<path d="M75.4116 9.06849L75.411 9.06985L70.8239 19.6005H26.5799C25.9454 19.6005 25.4272 20.1187 25.4272 20.7532V70.2249C25.4272 70.8594 25.9454 71.3776 26.5799 71.3776H100.907C101.541 71.3776 102.059 70.8594 102.059 70.2249V20.7436V9.53079C102.059 8.88554 101.54 8.37812 100.907 8.37812H76.4708C76.0093 8.37812 75.5955 8.65461 75.4116 9.06849ZM73.3465 19.6005L77.2306 10.6835H99.754V19.6005H73.3465ZM99.754 69.0627H27.7325V21.8963H71.5836H99.754V69.0627Z" fill="#303838" stroke="#303838" stroke-width="0.4"/>
</g>
<path d="M32.2881 31.02L32.2878 31.0196C30.252 27.9031 30.6899 23.7326 33.3196 21.1003C35.7879 18.6294 39.5586 18.0946 42.5851 19.6875C45.6091 18.0946 49.3798 18.6295 51.853 21.1002L51.8531 21.1003C54.4794 23.7266 54.9187 27.8843 52.9037 30.9934V30.995L52.8871 31.0202C52.5752 31.4905 52.2272 31.9179 51.8505 32.2921L32.2881 31.02ZM32.2881 31.02C32.5973 31.4878 32.9428 31.9153 33.3197 32.2896C33.3197 32.2897 33.3198 32.2897 33.3198 32.2898L41.622 40.5894C41.8895 40.8569 42.239 40.9877 42.5876 40.9877C42.9367 40.9877 43.2858 40.854 43.5529 40.5897L43.5533 40.5894L51.8503 32.2923L32.2881 31.02ZM42.5851 37.6974L35.2459 30.3582L35.2455 30.3579C34.9982 30.113 34.7699 29.8303 34.566 29.522C33.2371 27.4863 33.5247 24.7528 35.2458 23.0291C36.2478 22.0296 37.5772 21.5137 38.9168 21.5137C39.924 21.5137 40.9357 21.8039 41.816 22.4015L41.8161 22.4016C42.2796 22.7151 42.8879 22.7153 43.3492 22.4014C45.3974 21.0079 48.1579 21.2753 49.9193 23.0291C51.6454 24.7528 51.9306 27.4839 50.6039 29.5198C50.3978 29.8352 50.1696 30.1154 49.9221 30.3604L49.9217 30.3607L42.5851 37.6974Z" fill="#303838" stroke="#303838" stroke-width="0.2"/>
<path d="M66.8337 3.16995V3.17031V58.8546C66.8337 59.6076 66.2227 60.2187 65.4697 60.2187H51.5932L48.1963 74.2764C48.0243 75.0027 47.2855 75.45 46.5778 75.2888C46.5777 75.2888 46.5777 75.2888 46.5776 75.2888L1.97713 65.5107C1.97675 65.5106 1.97637 65.5106 1.976 65.5105C1.24532 65.3675 0.75017 64.5813 0.941147 63.8585C0.94124 63.8581 0.941333 63.8578 0.941426 63.8574L14.0593 9.591C14.0593 9.591 14.0593 9.59099 14.0593 9.59098C14.2339 8.86789 14.9593 8.42062 15.6771 8.57888L66.8337 3.16995ZM66.8337 3.16995C66.831 2.41744 66.2229 1.80625 65.4671 1.80625H19.7032C18.9502 1.80625 18.3391 2.41732 18.3391 3.17031V9.16398M66.8337 3.16995L18.3391 9.16398M18.3391 9.16398L15.6772 8.57889L18.3391 9.16398ZM18.3391 45.3899H18.3382L18.34 45.4035C18.3866 45.7423 18.4971 46.1181 18.761 46.3765L18.762 46.3775L32.9018 59.8447L32.9012 59.8453L32.9116 59.853C33.1676 60.0405 33.4773 60.2345 33.8448 60.2212H48.7835L45.8556 72.3398L3.91747 63.1449L16.3972 11.5308L18.3391 11.96V45.3899ZM32.4789 46.7514V55.671L23.1133 46.7514H32.4789ZM64.1031 57.4906H50.5159H35.2045V45.3873C35.2045 44.6343 34.5934 44.0233 33.8404 44.0233H21.0647V10.8608V4.53437H64.1031V57.4906Z" fill="#303838" stroke="#303838" stroke-width="0.2"/>
<path d="M29.1155 11.2609H56.0551C56.8081 11.2609 57.4192 10.6499 57.4192 9.89687C57.4192 9.14388 56.8081 8.53281 56.0551 8.53281H29.1155C28.3625 8.53281 27.7514 9.14388 27.7514 9.89687C27.7514 10.6499 28.3625 11.2609 29.1155 11.2609Z" fill="#303838" stroke="#303838" stroke-width="0.2"/>
</svg>
