<svg width="78" height="73" viewBox="0 0 78 73" fill="none" xmlns="http://www.w3.org/2000/svg">
<path d="M62.0539 19.4577L62.0608 19.3585C62.7824 8.97923 54.356 0.102456 43.7369 0.102456C37.1187 0.102456 31.2216 3.5633 27.9775 8.88557L27.9361 8.9535L27.86 8.93021C20.0601 6.54229 12.0142 11.9447 11.3727 19.9104L11.367 19.9811L11.2988 20.0007C4.74334 21.8802 -0.0788492 27.9487 0.107689 35.1217C0.333436 43.5745 7.37872 50.2025 15.7667 50.2025C21.5655 50.2025 21.6536 50.2024 21.8888 50.202C22.0222 50.2018 22.203 50.2015 23.5013 50.2012L23.6458 50.2011L23.5981 50.3375L21.5195 56.276L21.4228 56.2421L21.5195 56.276C21.1717 57.2692 21.9148 58.2984 22.9539 58.2984C23.5818 58.2984 24.1693 57.9061 24.3882 57.2803L24.4849 57.3141L24.3882 57.2803L26.8426 50.2675L26.8666 50.199L26.9393 50.1989L29.9914 50.197L30.1359 50.1969L30.0881 50.3333L29.7116 51.4093L29.6149 51.3755L29.7116 51.4093C29.4342 52.2016 29.8517 53.0686 30.644 53.3458C31.4327 53.6218 32.3019 53.2092 32.5805 52.4134L33.3329 50.2636L33.3569 50.1951L33.4295 50.195L36.4816 50.1931L36.6261 50.193L36.5784 50.3294L35.6326 53.0314C35.2848 54.0246 36.0279 55.0538 37.0669 55.0538C37.6949 55.0538 38.2824 54.6615 38.5013 54.0357L38.598 54.0695L38.5013 54.0356L39.8228 50.2599L39.8468 50.1913L39.9194 50.1913L42.9715 50.1893L43.116 50.1893L43.0683 50.3256L42.1212 53.0315C41.7736 54.0247 42.5165 55.0539 43.5556 55.0539C44.1835 55.0539 44.771 54.6616 44.9899 54.0358L46.3128 50.2558L46.3368 50.1872L46.4095 50.1872L49.3866 50.1867L49.4114 50.1866C49.4115 50.1866 49.4115 50.1866 49.4115 50.1866H49.4118H49.4119H49.4121H49.4122H49.4122L49.4128 50.1866L49.4137 50.1866H49.4215H49.4613H49.6057L49.558 50.3229L42.3653 70.8761C42.0177 71.8693 42.7607 72.8985 43.7997 72.8985C44.4277 72.8985 45.0151 72.5062 45.2341 71.8804L52.8027 50.2552L52.8268 50.1866H52.8994C58.2184 50.1864 60.2417 50.1891 60.9861 50.1904L61.3263 50.191C61.3293 50.1903 61.3313 50.19 61.3319 50.1899C61.3376 50.1888 61.3427 50.1884 61.3448 50.1882C61.3546 50.1873 61.3716 50.1867 61.3964 50.186M62.0539 19.4577L11.2705 19.9022C11.9175 11.8695 20.0291 6.42566 27.89 8.83224C31.1525 3.47985 37.0825 0 43.7369 0C54.4135 0 62.8888 8.9252 62.163 19.3656C70.0591 20.1472 76.244 26.7204 76.244 34.6872C76.244 43.1471 69.7685 49.9817 61.4857 50.2855C61.4879 50.2704 61.4879 50.2548 61.4847 50.2394C61.4645 50.2157 61.4306 50.1963 61.4228 50.1941C61.4212 50.1937 61.4193 50.1933 61.4174 50.1929C61.4152 50.1925 61.4131 50.1921 61.4121 50.1919C61.4109 50.1918 61.4099 50.1916 61.4089 50.1915C61.4073 50.1913 61.406 50.1912 61.4056 50.1912L61.3992 50.1909L61.3966 50.1908L61.3964 50.186M62.0539 19.4577L62.153 19.4675C69.9986 20.2441 76.1416 26.7751 76.1416 34.6872C76.1416 43.1228 69.6634 49.9283 61.3964 50.186M62.0539 19.4577L61.3963 50.1908L61.3961 50.186C61.3962 50.186 61.3963 50.186 61.3964 50.186M61.3261 47.147L61.3227 47.1471L54.0352 47.147H53.8908L53.9385 47.0107L56.5898 39.4357C56.8671 38.6434 56.4497 37.7764 55.6575 37.4992C54.8647 37.2217 53.998 37.6393 53.721 38.4316L53.721 38.4316L50.6945 47.0786L50.6705 47.1472H50.5978H50.5942H50.5906H50.5869H50.5833H50.5796H50.5759H50.5722H50.5684H50.5647H50.5609H50.5571H50.5532H50.5494H50.5456H50.5417H50.5378H50.5339H50.5299H50.526H50.522H50.518H50.514H50.51H50.5059H50.5019H50.4978H50.4937H50.4896H50.4854H50.4813H50.4771H50.4729H50.4687H50.4645H50.4602H50.456H50.4517H50.4474H50.4431H50.4388H50.4344H50.43H50.4257H50.4213H50.4169H50.4124H50.408H50.4035H50.399H50.3945H50.39H50.3854H50.3809H50.3763H50.3717H50.3671H50.3625H50.3579H50.3532H50.3486H50.3439H50.3392H50.3345H50.3297H50.325H50.3202H50.3154H50.3106H50.3058H50.301H50.2961H50.2913H50.2864H50.2815H50.2766H50.2717H50.2667H50.2618H50.2568H50.2518H50.2468H50.2418H50.2368H50.2318H50.2267H50.2216H50.2165H50.2114H50.2063H50.2012H50.196H50.1909H50.1857H50.1805H50.1753H50.1701H50.1649H50.1596H50.1543H50.1491H50.1438H50.1385H50.1332H50.1278H50.1225H50.1171H50.1118H50.1064H50.101H50.0956H50.0901H50.0847H50.0792H50.0738H50.0683H50.0628H50.0573H50.0518H50.0462H50.0407H50.0351H50.0296H50.024H50.0184H50.0128H50.0072H50.0015H49.9959H49.9902H49.9846H49.9789H49.9732H49.9675H49.9618H49.956H49.9503H49.9445H49.9388H49.933H49.9272H49.9214H49.9156H49.9097H49.9039H49.8981H49.8922H49.8863H49.8804H49.8745H49.8686H49.8627H49.8568H49.8509H49.8449H49.8389H49.833H49.827H49.821H49.815H49.809H49.803H49.7969H49.7909H49.7848H49.7788H49.7727H49.7666H49.7605H49.7544H49.7483H49.7421H49.736H49.7299H49.7237H49.7175H49.7113H49.7052H49.699H49.6928H49.6865H49.6803H49.6741H49.6678H49.6616H49.6553H49.6491H49.6428H49.6365H49.6302H49.6239H49.6176H49.6112H49.6049H49.5986H49.5922H49.5859H49.5795H49.5731H49.5667H49.5603H49.5539H49.5475H49.5411H49.5347H49.5282H49.5218H49.5154H49.5089H49.5024H49.496H49.4895H49.483H49.4765H49.47H49.4635H49.4569H49.4504H49.4439H49.4373H49.4308H49.4242H49.4177H49.4111H49.4045H49.3979H49.3914H49.3848H49.3782H49.3715H49.3649H49.3583H49.3517H49.345H49.3384H49.3317H49.3251H49.3184H49.3118H49.3051H49.2984H49.2917H49.285H49.2783H49.2716H49.2649H49.2582H49.2515H49.2447H49.238H49.2313H49.2245H49.2178H49.211H49.2043H49.1975H49.1907H49.1839H49.1772H49.1704H49.1636H49.1568H49.15H49.1432H49.1364H49.1296H49.1227H49.1159H49.1091H49.1023H49.0954H49.0886H49.0817H49.0749H49.068H49.0612H49.0543H49.0474H49.0406H49.0337H49.0268H49.0199H49.0131H49.0062H48.9993H48.9924H48.9855H48.9786H48.9717H48.9648H48.9578H48.9509H48.944H48.9371H48.9302H48.9232H48.9163H48.9094H48.9024H48.8955H48.8886H48.8816H48.8747H48.8677H48.8608H48.8538H48.8469H48.8399H48.8329H48.826H48.819H48.812H48.8051H48.7981H48.7911H48.7841H48.7772H48.7702H48.7632H48.7562H48.7492H48.7423H48.7353H48.7283H48.7213H48.7143H48.7073H48.7003H48.6933H48.6863H48.6793H48.6723H48.6653H48.6584H48.6514H48.6444H48.6374H48.6304H48.6234H48.6164H48.6093H48.6023H48.5953H48.5883H48.5813H48.5743H48.5673H48.5603H48.5533H48.5463H48.5393H48.5323H48.5253H48.5183H48.5113H48.5043H48.4973H48.4903H48.4833H48.4763H48.4693H48.4623H48.4553H48.4483H48.4413H48.4343H48.4274H48.4204H48.4134H48.4064H48.3994H48.3924H48.3854H48.3784H48.3715H48.3645H48.3575H48.3505H48.3436H48.3366H48.3296H48.3226H48.3157H48.3087H48.3018H48.2948H48.2878H48.2809H48.2739H48.267H48.26H48.2531H48.2461H48.2392H48.2323H48.2253H48.2184H48.2115H48.2045H48.1976H48.1907H48.1838H48.1769H48.1699H48.163H48.1561H48.1492H48.1423H48.1354H48.1285H48.1217H48.1148H48.1079H48.101H48.0941H48.0873H48.0804H48.0736H48.0667H48.0598H48.053H48.0462H48.0393H48.0325H48.0256H48.0188H48.012H48.0052H47.9984H47.9916H47.9848H47.978H47.9712H47.9644H47.9576H47.9508H47.944H47.9373H47.9305H47.9237H47.917H47.9102H47.9035H47.8968H47.89H47.8833H47.8766H47.8699H47.8632H47.8565H47.8498H47.8431H47.8364H47.8297H47.823H47.8164H47.8097H47.8031H47.7964H47.7898H47.7831H47.7765H47.7699H47.7633H47.7567H47.7501H47.7435H47.7369H47.7303H47.7237H47.7172H47.7106H47.704H47.6975H47.691H47.6844H47.6779H47.6714H47.6649H47.6584H47.6519H47.6454H47.6389H47.6324H47.626H47.6195H47.6131H47.6066H47.6002H47.5938H47.5874H47.581H47.5746H47.5682H47.5618H47.5554H47.5491H47.5427H47.5364H47.53H47.5237H47.5174H47.5111H47.5047H47.4985H47.4922H47.4859H47.4796H47.4734H47.4671H47.4609H47.4546H47.4484H47.346V47.0447C47.346 46.4166 46.9555 45.8294 46.3296 45.6104C45.5368 45.3329 44.6703 45.7508 44.3931 46.5428L44.2964 46.5089L44.3931 46.5428L44.2048 47.0807L44.1808 47.1493L44.1081 47.1493L41.0561 47.1509L40.9116 47.151L40.9593 47.0146L43.6121 39.4357C43.8894 38.6434 43.472 37.7764 42.6798 37.4992C41.8869 37.2217 41.0205 37.6393 40.7433 38.4316L37.7149 47.0846L37.6909 47.1532L37.6182 47.1532L34.5662 47.1551L34.4217 47.1552L34.4694 47.0188L34.8523 45.9248C35.1296 45.1325 34.7121 44.2655 33.9199 43.9883C33.1279 43.7111 32.2607 44.1284 31.9834 44.9207L31.2245 47.0885L31.2005 47.157L31.1279 47.1571L28.0758 47.159L27.9313 47.1591L27.979 47.0227L30.6345 39.4359L30.7312 39.4697L30.6345 39.4359C30.9118 38.6436 30.4943 37.7766 29.7021 37.4994L29.7359 37.4027L29.7021 37.4994C28.9095 37.2219 28.0429 37.6395 27.7656 38.4318L24.7343 47.0927L24.7103 47.1613L24.6376 47.1613L16.1395 47.1633L15.836 47.1633L15.8351 47.1633L15.8341 47.1633L15.8338 47.1633L15.8333 47.1633L15.8322 47.1633L15.8311 47.1633L15.7748 47.1633L15.767 47.1633L15.7666 47.1633H15.766H15.7659L15.7645 47.1633C15.7636 47.1633 15.7208 47.1194 15.7188 47.0607C8.99253 47.0347 3.24422 41.57 3.24422 34.6875C3.24422 28.9293 7.42114 23.92 13.176 22.7765M61.3261 47.147L14.6852 19.5115C14.6856 19.5087 14.6861 19.5058 14.6865 19.503C16.836 19.6612 20.2668 20.4344 22.9543 23.4831M61.3261 47.147C67.9336 46.9283 73.102 41.4574 73.1023 34.6877C73.1023 27.8444 67.3499 22.3124 60.3739 22.436L60.3734 22.4361C59.4338 22.4566 58.6845 21.6095 58.8471 20.6597C60.4313 11.4163 53.1267 3.14233 43.7372 3.14233C37.8635 3.14233 32.5949 6.3513 29.9895 11.5181L30.081 11.5642L29.9895 11.5181C29.6266 12.238 28.7645 12.5491 28.0256 12.2272L27.9847 12.3212L28.0256 12.2272C22.1811 9.68192 15.4396 13.3053 14.4827 19.4801L14.4656 19.5907L14.5772 19.5981C16.7043 19.7382 20.1715 20.4813 22.8775 23.5509L22.9543 23.4831M61.3261 47.147L22.9543 23.4831M13.176 22.7765C13.2501 22.7617 13.3214 22.7406 13.391 22.7166C14.4845 22.6644 17.9804 22.7471 20.5205 25.6285M13.176 22.7765L13.156 22.676C13.156 22.676 13.156 22.676 13.156 22.676M13.176 22.7765L13.156 22.676M20.5205 25.6285C21.112 26.2996 22.1372 26.366 22.8101 25.7727M20.5205 25.6285L20.5974 25.5608C21.1515 26.1895 22.112 26.2516 22.7424 25.6959L22.8101 25.7727M20.5205 25.6285L20.5974 25.5608C18.0258 22.6436 14.4893 22.5616 13.3861 22.6143L13.3714 22.615L13.3575 22.6197C13.2907 22.6428 13.2242 22.6624 13.156 22.676M22.8101 25.7727C23.4822 25.1803 23.5468 24.155 22.9543 23.4831M22.8101 25.7727L22.7424 25.6959C23.372 25.1408 23.4325 24.1803 22.8775 23.5509L22.9543 23.4831M22.9543 23.4831L13.156 22.676M24.5649 46.9564L16.1394 46.9583L15.8367 46.9584C15.8388 46.9585 15.8436 46.9588 15.8481 46.9593C15.8781 46.9953 15.8865 47.0303 15.8845 47.0609L27.6689 38.3979L27.5722 38.3641L24.5649 46.9564ZM24.5649 46.9564L24.5409 47.025L24.6376 47.0589L24.6375 46.9564L24.5649 46.9564ZM46.4095 50.2897C48.396 50.2894 49.1135 50.2892 49.3527 50.2891L42.9357 50.3943L42.0245 52.9977C41.6533 54.0581 42.4466 55.1564 43.5556 55.1564C44.2257 55.1564 44.8529 54.7379 45.0866 54.0697L46.4095 50.2897ZM39.9195 50.2937L42.863 50.2919L40.0162 50.3276L39.9195 50.2937ZM15.8121 47.0608C15.8121 47.0608 15.8121 47.0608 15.8121 47.0609C15.8127 47.0808 15.8088 47.1025 15.7967 47.1247C15.7862 47.1022 15.7832 47.0806 15.7844 47.0609C15.7858 47.0406 15.7917 47.0223 15.799 47.007L15.8121 47.0608ZM15.835 46.9584L15.8337 46.9584L15.835 46.9584Z" fill="#618E81" stroke="white" stroke-width="0.204912"/>
<path d="M27.4748 27.5832C27.4748 28.4225 26.7944 29.1029 25.9551 29.1029C25.1157 29.1029 24.4353 28.4225 24.4353 27.5832C24.4353 26.7438 25.1157 26.0634 25.9551 26.0634C26.7944 26.0634 27.4748 26.7438 27.4748 27.5832Z" fill="#618E81" stroke="white" stroke-width="0.204912"/>
<path d="M22.6082 61.6457C22.6082 62.485 21.9277 63.1654 21.0884 63.1654C20.249 63.1654 19.5686 62.485 19.5686 61.6457C19.5686 60.8063 20.249 60.1259 21.0884 60.1259C21.9277 60.1259 22.6082 60.8063 22.6082 61.6457Z" fill="#618E81" stroke="white" stroke-width="0.204912"/>
<path d="M30.7191 56.7785C30.7191 57.6178 30.0387 58.2983 29.1994 58.2983C28.36 58.2983 27.6796 57.6178 27.6796 56.7785C27.6796 55.9391 28.36 55.2587 29.1994 55.2587C30.0387 55.2587 30.7191 55.9391 30.7191 56.7785Z" fill="#618E81" stroke="white" stroke-width="0.204912"/>
<path d="M32.3415 71.38C32.3415 72.2194 31.6611 72.8998 30.8217 72.8998C29.9824 72.8998 29.3019 72.2194 29.3019 71.38C29.3019 70.5407 29.9824 69.8603 30.8217 69.8603C31.6611 69.8603 32.3415 70.5407 32.3415 71.38Z" fill="#618E81" stroke="white" stroke-width="0.204912"/>
<path d="M41.7873 58.5868L41.7873 58.5868C42.5795 58.864 42.9969 59.731 42.7197 60.5233L38.7452 71.8789C38.4666 72.6747 37.5974 73.0873 36.8087 72.8113L36.8087 72.8113C36.0164 72.5341 35.5989 71.667 35.8763 70.8748L35.8763 70.8748L39.8508 59.5191L39.8508 59.5191C40.128 58.7269 40.9945 58.3092 41.7873 58.5868Z" fill="#618E81" stroke="white" stroke-width="0.204912"/>
<path d="M35.2983 58.5866L35.2983 58.5866C36.0906 58.8638 36.5081 59.7309 36.2307 60.5231L36.2307 60.5231L33.9596 67.0121C33.681 67.8079 32.8118 68.2205 32.0231 67.9444L32.0231 67.9444C31.2308 67.6672 30.8133 66.8002 31.0907 66.008L31.0907 66.0079L33.3618 59.519C33.3618 59.519 33.3618 59.519 33.3618 59.519C33.6392 58.7268 34.5062 58.3094 35.2983 58.5866Z" fill="#618E81" stroke="white" stroke-width="0.204912"/>
<path d="M28.2414 60.2116L28.2414 60.2116C29.0336 60.4888 29.4511 61.3559 29.1738 62.1481L29.1738 62.1481L25.7671 71.8815C25.4885 72.6774 24.6193 73.0899 23.8306 72.8139L23.8306 72.8139C23.0383 72.5367 22.6208 71.6697 22.8982 70.8774L22.8982 70.8774L26.3049 61.144C26.3049 61.144 26.3049 61.144 26.3049 61.144C26.5822 60.3518 27.4493 59.9344 28.2414 60.2116Z" fill="#618E81" stroke="white" stroke-width="0.204912"/>
<path d="M12.8751 7.30281C12.8751 10.377 10.3739 12.8782 7.2997 12.8782C4.22554 12.8782 1.72434 10.377 1.72434 7.30281C1.72434 4.22865 4.22554 1.72746 7.2997 1.72746C10.3739 1.72746 12.8751 4.22865 12.8751 7.30281ZM9.8355 7.30281C9.8355 5.90448 8.69803 4.76701 7.2997 4.76701C5.90137 4.76701 4.7639 5.90448 4.7639 7.30281C4.7639 8.70115 5.90137 9.83862 7.2997 9.83862C8.69803 9.83862 9.8355 8.70115 9.8355 7.30281Z" fill="#618E81" stroke="white" stroke-width="0.204912"/>
<path d="M58.5025 60.0229C58.5025 57.3962 60.6398 55.2587 63.2667 55.2587C65.8936 55.2587 68.0309 57.3962 68.0309 60.0229C68.0309 62.65 65.8936 64.7872 63.2667 64.7872C60.6398 64.7872 58.5025 62.65 58.5025 60.0229ZM61.542 60.0229C61.542 60.974 62.3156 61.7476 63.2667 61.7476C64.2178 61.7476 64.9914 60.974 64.9914 60.0229C64.9914 59.0719 64.2178 58.2983 63.2667 58.2983C62.3156 58.2983 61.542 59.0719 61.542 60.0229Z" fill="#618E81" stroke="white" stroke-width="0.204912"/>
<path d="M77.764 8.11393C77.764 11.6353 74.8989 14.5004 71.3775 14.5004C67.8561 14.5004 64.991 11.6353 64.991 8.11393C64.991 4.59252 67.8561 1.72746 71.3775 1.72746C74.8989 1.72746 77.764 4.59252 77.764 8.11393ZM74.7244 8.11393C74.7244 6.26835 73.2231 4.76701 71.3775 4.76701C69.5319 4.76701 68.0306 6.26835 68.0306 8.11393C68.0306 9.95951 69.5319 11.4608 71.3775 11.4608C73.2231 11.4608 74.7244 9.95951 74.7244 8.11393Z" fill="#618E81" stroke="white" stroke-width="0.204912"/>
<path d="M20.0138 0.547568L20.0138 0.547559C20.6073 -0.045896 21.5696 -0.045936 22.1636 0.547587C22.7567 1.14105 22.7567 2.10336 22.1636 2.69699C21.5701 3.29043 20.6078 3.29048 20.0138 2.69699C19.4202 2.10335 19.4202 1.14103 20.0138 0.547568Z" fill="#618E81" stroke="white" stroke-width="0.204912"/>
<path d="M7.03625 55.704L7.03622 55.7041C6.44263 56.2974 6.44259 57.2597 7.03625 57.8535C7.63022 58.4468 8.59252 58.4468 9.18596 57.8535C9.18597 57.8535 9.18599 57.8535 9.186 57.8535M7.03625 55.704L9.25844 55.6316C9.89159 56.2651 9.89159 57.2923 9.25844 57.9259L9.186 57.8535M7.03625 55.704C7.62971 55.1103 8.59202 55.1102 9.186 55.7041M7.03625 55.704L9.186 55.7041M9.186 57.8535C9.77914 57.2598 9.77912 56.2975 9.186 55.7041M9.186 57.8535V55.7041" fill="#618E81" stroke="white" stroke-width="0.204912"/>
<path d="M72.8975 53.5365C72.8975 54.3759 72.217 55.0564 71.3776 55.0564C70.5382 55.0564 69.8577 54.3759 69.8577 53.5365C69.8577 52.697 70.5382 52.0165 71.3776 52.0165C72.217 52.0165 72.8975 52.697 72.8975 53.5365Z" fill="#618E81" stroke="white" stroke-width="0.204912"/>
<path d="M45.3195 34.0677C45.3195 34.9071 44.639 35.5876 43.7995 35.5876C42.9601 35.5876 42.2796 34.9071 42.2796 34.0677C42.2796 33.2283 42.9601 32.5478 43.7995 32.5478C44.639 32.5478 45.3195 33.2283 45.3195 34.0677Z" fill="#618E81" stroke="white" stroke-width="0.204912"/>
<path d="M56.6757 68.138C56.6757 68.9775 55.9952 69.658 55.1557 69.658C54.3163 69.658 53.6358 68.9775 53.6358 68.138C53.6358 67.2986 54.3163 66.6181 55.1557 66.6181C55.9952 66.6181 56.6757 67.2986 56.6757 68.138Z" fill="#618E81" stroke="white" stroke-width="0.204912"/>
</svg>
