<svg width="79" height="73" viewBox="0 0 79 73" fill="none" xmlns="http://www.w3.org/2000/svg">
<path fill-rule="evenodd" clip-rule="evenodd" d="M11.9015 7.68865C11.9015 10.235 9.83733 12.2992 7.29101 12.2992C4.74468 12.2992 2.68048 10.235 2.68048 7.68865C2.68048 5.14233 4.74468 3.07812 7.29101 3.07812C9.83733 3.07812 11.9015 5.14233 11.9015 7.68865ZM77.4735 7.68865C77.4735 10.235 75.4093 12.2992 72.8629 12.2992C70.3166 12.2992 68.2524 10.235 68.2524 7.68865C68.2524 5.14233 70.3166 3.07812 72.8629 3.07812C75.4093 3.07812 77.4735 5.14233 77.4735 7.68865ZM64.6664 63.5272C66.6469 63.5272 68.2524 61.9218 68.2524 59.9413C68.2524 57.9608 66.6469 56.3553 64.6664 56.3553C62.686 56.3553 61.0805 57.9608 61.0805 59.9413C61.0805 61.9218 62.686 63.5272 64.6664 63.5272Z" fill="#C4C4C4"/>
<path d="M2.68073 35.3462C2.16822 24.0761 13.9506 21.0024 13.9506 21.0024L14.4632 16.9041L19.586 10.2445H29.3193L33.4176 5.12168L44.1755 1.02344C42.9802 1.53572 42.7411 2.66274 51.3474 3.07256C59.9537 3.48238 61.0808 14.855 60.5685 20.4901L71.3263 25.1006C73.3755 27.3205 76.9614 33.2971 74.9123 39.4445C72.8632 45.5918 66.2036 47.8117 63.1299 48.1533L11.3895 47.1287C8.82805 47.2995 3.12335 45.0796 2.68073 35.3462Z" fill="#C0D6E3"/>
<path d="M62.6853 19.4577L62.6922 19.3585C63.4137 8.97923 54.9874 0.102456 44.3683 0.102456C37.75 0.102456 31.8529 3.5633 28.6088 8.88557L28.5674 8.9535L28.4913 8.93021C20.6914 6.54229 12.6456 11.9447 12.004 19.9104L11.9983 19.9811L11.9301 20.0007C5.37468 21.8802 0.552498 27.9487 0.739037 35.1217C0.964784 43.5745 8.01007 50.2025 16.3981 50.2025C22.1969 50.2025 22.285 50.2024 22.5201 50.202C22.6536 50.2018 22.8343 50.2015 24.1327 50.2012L24.2771 50.2011L24.2294 50.3375L22.1508 56.276L22.0541 56.2421L22.1508 56.276C21.8031 57.2692 22.5461 58.2984 23.5852 58.2984C24.2132 58.2984 24.8006 57.9061 25.0196 57.2803L25.1163 57.3141L25.0196 57.2803L27.474 50.2675L27.498 50.199L27.5706 50.1989L30.6227 50.197L30.7672 50.1969L30.7195 50.3333L30.343 51.4093L30.2462 51.3755L30.3429 51.4093C30.0656 52.2016 30.4831 53.0686 31.2753 53.3458C32.064 53.6218 32.9333 53.2092 33.2118 52.4134L33.9642 50.2636L33.9882 50.1951L34.0609 50.195L37.1129 50.1931L37.2574 50.193L37.2097 50.3294L36.2639 53.0314C35.9162 54.0246 36.6592 55.0538 37.6983 55.0538C38.3263 55.0538 38.9137 54.6615 39.1326 54.0357L39.2294 54.0695L39.1327 54.0356L40.4541 50.2599L40.4781 50.1913L40.5508 50.1913L43.6028 50.1893L43.7473 50.1893L43.6996 50.3256L42.7525 53.0315C42.4049 54.0247 43.1479 55.0539 44.1869 55.0539C44.8149 55.0539 45.4023 54.6616 45.6213 54.0358L46.9442 50.2558L46.9682 50.1872L47.0409 50.1872L50.0179 50.1867L50.0428 50.1866C50.0428 50.1866 50.0429 50.1866 50.0429 50.1866H50.0432H50.0433H50.0435H50.0435H50.0436L50.0442 50.1866L50.045 50.1866H50.0529H50.0926H50.237L50.1893 50.3229L42.9967 70.8761C42.6491 71.8693 43.392 72.8985 44.431 72.8985C45.059 72.8985 45.6465 72.5062 45.8654 71.8804L53.4341 50.2552L53.4581 50.1866H53.5308C58.8498 50.1864 60.873 50.1891 61.6174 50.1904L61.9576 50.191C61.9606 50.1903 61.9627 50.19 61.9632 50.1899C61.9689 50.1888 61.9741 50.1884 61.9762 50.1882C61.986 50.1873 62.0029 50.1867 62.0278 50.186M62.6853 19.4577L11.9019 19.9022C12.5488 11.8695 20.6605 6.42566 28.5213 8.83224C31.7838 3.47985 37.7139 0 44.3683 0C55.0448 0 63.5202 8.9252 62.7944 19.3656C70.6904 20.1472 76.8754 26.7204 76.8754 34.6872C76.8754 43.1471 70.3999 49.9817 62.1171 50.2855C62.1192 50.2704 62.1193 50.2548 62.1161 50.2394C62.0959 50.2157 62.0619 50.1963 62.0542 50.1941C62.0526 50.1937 62.0506 50.1933 62.0488 50.1929C62.0465 50.1925 62.0445 50.1921 62.0434 50.1919C62.0423 50.1918 62.0412 50.1916 62.0403 50.1915C62.0386 50.1913 62.0374 50.1912 62.037 50.1912L62.0306 50.1909L62.0279 50.1908L62.0278 50.186M62.6853 19.4577L62.7843 19.4675C70.6299 20.2441 76.7729 26.7751 76.7729 34.6872C76.7729 43.1228 70.2947 49.9283 62.0278 50.186M62.6853 19.4577L62.0276 50.1908L62.0275 50.186C62.0276 50.186 62.0277 50.186 62.0278 50.186M61.9575 47.147L61.9541 47.1471L54.6665 47.147H54.5221L54.5698 47.0107L57.2212 39.4357C57.4984 38.6434 57.0811 37.7764 56.2888 37.4992C55.4961 37.2217 54.6294 37.6393 54.3523 38.4316L54.3523 38.4316L51.3259 47.0786L51.3019 47.1472H51.2292H51.2256H51.2219H51.2183H51.2146H51.2109H51.2072H51.2035H51.1998H51.196H51.1922H51.1884H51.1846H51.1808H51.1769H51.173H51.1691H51.1652H51.1613H51.1573H51.1534H51.1494H51.1454H51.1413H51.1373H51.1332H51.1291H51.125H51.1209H51.1168H51.1126H51.1085H51.1043H51.1001H51.0958H51.0916H51.0873H51.0831H51.0788H51.0744H51.0701H51.0658H51.0614H51.057H51.0526H51.0482H51.0438H51.0393H51.0348H51.0304H51.0259H51.0213H51.0168H51.0122H51.0077H51.0031H50.9985H50.9939H50.9892H50.9846H50.9799H50.9752H50.9705H50.9658H50.9611H50.9563H50.9516H50.9468H50.942H50.9372H50.9323H50.9275H50.9226H50.9178H50.9129H50.908H50.903H50.8981H50.8931H50.8882H50.8832H50.8782H50.8732H50.8681H50.8631H50.858H50.853H50.8479H50.8428H50.8377H50.8325H50.8274H50.8222H50.8171H50.8119H50.8067H50.8014H50.7962H50.791H50.7857H50.7804H50.7751H50.7698H50.7645H50.7592H50.7538H50.7485H50.7431H50.7377H50.7323H50.7269H50.7215H50.716H50.7106H50.7051H50.6996H50.6941H50.6886H50.6831H50.6776H50.672H50.6665H50.6609H50.6553H50.6497H50.6441H50.6385H50.6329H50.6272H50.6216H50.6159H50.6102H50.6045H50.5988H50.5931H50.5874H50.5816H50.5759H50.5701H50.5643H50.5585H50.5527H50.5469H50.5411H50.5353H50.5294H50.5235H50.5177H50.5118H50.5059H50.5H50.4941H50.4881H50.4822H50.4763H50.4703H50.4643H50.4583H50.4523H50.4463H50.4403H50.4343H50.4283H50.4222H50.4162H50.4101H50.404H50.3979H50.3918H50.3857H50.3796H50.3735H50.3673H50.3612H50.355H50.3489H50.3427H50.3365H50.3303H50.3241H50.3179H50.3117H50.3054H50.2992H50.2929H50.2867H50.2804H50.2741H50.2678H50.2615H50.2552H50.2489H50.2426H50.2363H50.2299H50.2236H50.2172H50.2108H50.2045H50.1981H50.1917H50.1853H50.1789H50.1725H50.166H50.1596H50.1531H50.1467H50.1402H50.1338H50.1273H50.1208H50.1143H50.1078H50.1013H50.0948H50.0883H50.0818H50.0752H50.0687H50.0621H50.0556H50.049H50.0425H50.0359H50.0293H50.0227H50.0161H50.0095H50.0029H49.9963H49.9897H49.983H49.9764H49.9697H49.9631H49.9564H49.9498H49.9431H49.9364H49.9297H49.9231H49.9164H49.9097H49.903H49.8962H49.8895H49.8828H49.8761H49.8694H49.8626H49.8559H49.8491H49.8424H49.8356H49.8288H49.8221H49.8153H49.8085H49.8017H49.7949H49.7881H49.7813H49.7745H49.7677H49.7609H49.7541H49.7473H49.7404H49.7336H49.7268H49.7199H49.7131H49.7062H49.6994H49.6925H49.6857H49.6788H49.6719H49.665H49.6582H49.6513H49.6444H49.6375H49.6306H49.6237H49.6168H49.6099H49.603H49.5961H49.5892H49.5823H49.5754H49.5684H49.5615H49.5546H49.5477H49.5407H49.5338H49.5268H49.5199H49.513H49.506H49.4991H49.4921H49.4852H49.4782H49.4712H49.4643H49.4573H49.4504H49.4434H49.4364H49.4294H49.4225H49.4155H49.4085H49.4015H49.3946H49.3876H49.3806H49.3736H49.3666H49.3596H49.3526H49.3457H49.3387H49.3317H49.3247H49.3177H49.3107H49.3037H49.2967H49.2897H49.2827H49.2757H49.2687H49.2617H49.2547H49.2477H49.2407H49.2337H49.2267H49.2197H49.2127H49.2057H49.1987H49.1917H49.1847H49.1777H49.1707H49.1637H49.1567H49.1497H49.1427H49.1357H49.1287H49.1217H49.1147H49.1077H49.1007H49.0937H49.0867H49.0797H49.0727H49.0657H49.0587H49.0517H49.0447H49.0377H49.0307H49.0238H49.0168H49.0098H49.0028H48.9958H48.9889H48.9819H48.9749H48.9679H48.961H48.954H48.947H48.9401H48.9331H48.9261H48.9192H48.9122H48.9053H48.8983H48.8914H48.8844H48.8775H48.8705H48.8636H48.8567H48.8497H48.8428H48.8359H48.829H48.822H48.8151H48.8082H48.8013H48.7944H48.7875H48.7806H48.7737H48.7668H48.7599H48.753H48.7461H48.7392H48.7324H48.7255H48.7186H48.7118H48.7049H48.698H48.6912H48.6843H48.6775H48.6707H48.6638H48.657H48.6502H48.6433H48.6365H48.6297H48.6229H48.6161H48.6093H48.6025H48.5957H48.5889H48.5822H48.5754H48.5686H48.5619H48.5551H48.5483H48.5416H48.5349H48.5281H48.5214H48.5147H48.5079H48.5012H48.4945H48.4878H48.4811H48.4744H48.4677H48.4611H48.4544H48.4477H48.4411H48.4344H48.4278H48.4211H48.4145H48.4079H48.4012H48.3946H48.388H48.3814H48.3748H48.3682H48.3616H48.3551H48.3485H48.3419H48.3354H48.3288H48.3223H48.3158H48.3092H48.3027H48.2962H48.2897H48.2832H48.2767H48.2703H48.2638H48.2573H48.2509H48.2444H48.238H48.2316H48.2251H48.2187H48.2123H48.2059H48.1995H48.1931H48.1868H48.1804H48.174H48.1677H48.1614H48.155H48.1487H48.1424H48.1361H48.1298H48.1235H48.1172H48.111H48.1047H48.0985H48.0922H48.086H48.0798H47.9773V47.0447C47.9773 46.4166 47.5868 45.8294 46.961 45.6104C46.1681 45.3329 45.3017 45.7508 45.0245 46.5428L44.9278 46.5089L45.0245 46.5428L44.8361 47.0807L44.8121 47.1493L44.7395 47.1493L41.6874 47.1509L41.5429 47.151L41.5907 47.0146L44.2435 39.4357C44.5207 38.6434 44.1034 37.7764 43.3111 37.4992C42.5182 37.2217 41.6518 37.6393 41.3746 38.4316L38.3462 47.0846L38.3222 47.1532L38.2496 47.1532L35.1975 47.1551L35.053 47.1552L35.1008 47.0188L35.4836 45.9248C35.761 45.1325 35.3435 44.2655 34.5512 43.9883C33.7593 43.7111 32.8921 44.1284 32.6147 44.9207L31.8558 47.0885L31.8318 47.157L31.7592 47.1571L28.7071 47.159L28.5626 47.1591L28.6104 47.0227L31.2658 39.4359L31.3625 39.4697L31.2658 39.4359C31.5432 38.6436 31.1257 37.7766 30.3334 37.4994L30.3673 37.4027L30.3334 37.4994C29.5409 37.2219 28.6743 37.6395 28.3969 38.4318L25.3656 47.0927L25.3416 47.1613L25.2689 47.1613L16.7708 47.1633L16.4673 47.1633L16.4665 47.1633L16.4654 47.1633L16.4651 47.1633L16.4646 47.1633L16.4635 47.1633L16.4624 47.1633L16.4062 47.1633L16.3984 47.1633L16.398 47.1633H16.3974H16.3973L16.3959 47.1633C16.395 47.1633 16.3521 47.1194 16.3502 47.0607C9.62387 47.0347 3.87557 41.57 3.87557 34.6875C3.87557 28.9293 8.05249 23.92 13.8074 22.7765M61.9575 47.147L15.3165 19.5115C15.317 19.5087 15.3174 19.5058 15.3179 19.503C17.4674 19.6612 20.8982 20.4344 23.5857 23.4831M61.9575 47.147C68.565 46.9283 73.7334 41.4574 73.7337 34.6877C73.7337 27.8444 67.9812 22.3124 61.0052 22.436L61.0048 22.4361C60.0652 22.4566 59.3159 21.6095 59.4785 20.6597C61.0626 11.4163 53.758 3.14233 44.3686 3.14233C38.4949 3.14233 33.2262 6.3513 30.6208 11.5181L30.7123 11.5642L30.6208 11.5181C30.2579 12.238 29.3959 12.5491 28.657 12.2272L28.6161 12.3212L28.657 12.2272C22.8124 9.68192 16.071 13.3053 15.114 19.4801L15.0969 19.5907L15.2086 19.5981C17.3357 19.7382 20.8029 20.4813 23.5088 23.5509L23.5857 23.4831M61.9575 47.147L23.5857 23.4831M13.8074 22.7765C13.8815 22.7617 13.9527 22.7406 14.0223 22.7166C15.1158 22.6644 18.6118 22.7471 21.1519 25.6285M13.8074 22.7765L13.7874 22.676C13.7874 22.676 13.7874 22.676 13.7873 22.676M13.8074 22.7765L13.7873 22.676M21.1519 25.6285C21.7433 26.2996 22.7686 26.366 23.4415 25.7727M21.1519 25.6285L21.2287 25.5608C21.7828 26.1895 22.7433 26.2516 23.3737 25.6959L23.4415 25.7727M21.1519 25.6285L21.2287 25.5608C18.6571 22.6436 15.1206 22.5616 14.0174 22.6143L14.0028 22.615L13.9889 22.6197C13.9221 22.6428 13.8555 22.6624 13.7873 22.676M23.4415 25.7727C24.1136 25.1803 24.1781 24.155 23.5857 23.4831M23.4415 25.7727L23.3737 25.6959C24.0034 25.1408 24.0638 24.1803 23.5088 23.5509L23.5857 23.4831M23.5857 23.4831L13.7873 22.676M25.1962 46.9564L16.7708 46.9583L16.468 46.9584C16.4701 46.9585 16.475 46.9588 16.4795 46.9593C16.5094 46.9953 16.5179 47.0303 16.5159 47.0609L28.3002 38.3979L28.2035 38.3641L25.1962 46.9564ZM25.1962 46.9564L25.1722 47.025L25.2689 47.0589L25.2689 46.9564L25.1962 46.9564ZM47.0409 50.2897C49.0274 50.2894 49.7448 50.2892 49.9841 50.2891L43.567 50.3943L42.6558 52.9977C42.2847 54.0581 43.0779 55.1564 44.1869 55.1564C44.857 55.1564 45.4842 54.7379 45.718 54.0697L47.0409 50.2897ZM40.5508 50.2937L43.4943 50.2919L40.6475 50.3276L40.5508 50.2937ZM16.4434 47.0608C16.4434 47.0608 16.4434 47.0608 16.4434 47.0609C16.4441 47.0808 16.4401 47.1025 16.428 47.1247C16.4176 47.1022 16.4145 47.0806 16.4158 47.0609C16.4171 47.0406 16.423 47.0223 16.4303 47.007L16.4434 47.0608ZM16.4663 46.9584L16.465 46.9584L16.4663 46.9584Z" fill="#303838" stroke="#C0D6E3" stroke-width="0.204912"/>
<path d="M28.1062 27.5832C28.1062 28.4225 27.4258 29.1029 26.5864 29.1029C25.7471 29.1029 25.0666 28.4225 25.0666 27.5832C25.0666 26.7438 25.7471 26.0634 26.5864 26.0634C27.4258 26.0634 28.1062 26.7438 28.1062 27.5832Z" fill="#303838" stroke="white" stroke-width="0.204912"/>
<path d="M23.2395 61.6457C23.2395 62.485 22.5591 63.1654 21.7198 63.1654C20.8804 63.1654 20.2 62.485 20.2 61.6457C20.2 60.8063 20.8804 60.1259 21.7198 60.1259C22.5591 60.1259 23.2395 60.8063 23.2395 61.6457Z" fill="#303838" stroke="white" stroke-width="0.204912"/>
<path d="M31.3504 56.7785C31.3504 57.6178 30.67 58.2983 29.8307 58.2983C28.9913 58.2983 28.3109 57.6178 28.3109 56.7785C28.3109 55.9391 28.9913 55.2587 29.8307 55.2587C30.67 55.2587 31.3504 55.9391 31.3504 56.7785Z" fill="#303838" stroke="white" stroke-width="0.204912"/>
<path d="M32.9729 71.38C32.9729 72.2194 32.2925 72.8998 31.4531 72.8998C30.6138 72.8998 29.9333 72.2194 29.9333 71.38C29.9333 70.5407 30.6138 69.8603 31.4531 69.8603C32.2925 69.8603 32.9729 70.5407 32.9729 71.38Z" fill="#303838" stroke="white" stroke-width="0.204912"/>
<path d="M42.4186 58.5868L42.4186 58.5868C43.2109 58.864 43.6282 59.731 43.351 60.5233L39.3765 71.8789C39.098 72.6747 38.2287 73.0873 37.44 72.8113L37.44 72.8113C36.6478 72.5341 36.2303 71.667 36.5077 70.8748L36.5077 70.8748L40.4821 59.5191L40.4821 59.5191C40.7593 58.7269 41.6259 58.3092 42.4186 58.5868Z" fill="#303838" stroke="white" stroke-width="0.204912"/>
<path d="M35.9296 58.5866L35.9296 58.5866C36.7219 58.8638 37.1394 59.7309 36.862 60.5231L36.862 60.5231L34.5909 67.0121C34.3123 67.8079 33.4431 68.2205 32.6544 67.9444L32.6544 67.9444C31.8621 67.6672 31.4447 66.8002 31.722 66.008L31.722 66.0079L33.9931 59.519C33.9931 59.519 33.9931 59.519 33.9931 59.519C34.2705 58.7268 35.1375 58.3094 35.9296 58.5866Z" fill="#303838" stroke="white" stroke-width="0.204912"/>
<path d="M28.8728 60.2116L28.8728 60.2116C29.665 60.4888 30.0825 61.3559 29.8051 62.1481L29.8051 62.1481L26.3984 71.8815C26.1199 72.6774 25.2506 73.0899 24.4619 72.8139L24.4619 72.8139C23.6697 72.5367 23.2522 71.6697 23.5296 70.8774L23.5296 70.8774L26.9363 61.144C26.9363 61.144 26.9363 61.144 26.9363 61.144C27.2136 60.3518 28.0807 59.9344 28.8728 60.2116Z" fill="#303838" stroke="white" stroke-width="0.204912"/>
<path d="M13.5064 7.30281C13.5064 10.377 11.0052 12.8782 7.93105 12.8782C4.85689 12.8782 2.35569 10.377 2.35569 7.30281C2.35569 4.22865 4.85689 1.72746 7.93105 1.72746C11.0052 1.72746 13.5064 4.22865 13.5064 7.30281ZM10.4669 7.30281C10.4669 5.90448 9.32938 4.76701 7.93105 4.76701C6.53271 4.76701 5.39524 5.90448 5.39524 7.30281C5.39524 8.70115 6.53271 9.83862 7.93105 9.83862C9.32938 9.83862 10.4669 8.70115 10.4669 7.30281Z" fill="#303838" stroke="white" stroke-width="0.204912"/>
<path d="M59.1338 60.0229C59.1338 57.3962 61.2712 55.2587 63.8981 55.2587C66.525 55.2587 68.6623 57.3962 68.6623 60.0229C68.6623 62.65 66.525 64.7872 63.8981 64.7872C61.2712 64.7872 59.1338 62.65 59.1338 60.0229ZM62.1734 60.0229C62.1734 60.974 62.947 61.7476 63.8981 61.7476C64.8492 61.7476 65.6228 60.974 65.6228 60.0229C65.6228 59.0719 64.8492 58.2983 63.8981 58.2983C62.947 58.2983 62.1734 59.0719 62.1734 60.0229Z" fill="#303838" stroke="white" stroke-width="0.204912"/>
<path d="M78.3953 8.11393C78.3953 11.6353 75.5302 14.5004 72.0088 14.5004C68.4874 14.5004 65.6224 11.6353 65.6224 8.11393C65.6224 4.59252 68.4874 1.72746 72.0088 1.72746C75.5302 1.72746 78.3953 4.59252 78.3953 8.11393ZM75.3557 8.11393C75.3557 6.26835 73.8544 4.76701 72.0088 4.76701C70.1632 4.76701 68.6619 6.26835 68.6619 8.11393C68.6619 9.95951 70.1632 11.4608 72.0088 11.4608C73.8544 11.4608 75.3557 9.95951 75.3557 8.11393Z" fill="#303838" stroke="white" stroke-width="0.204912"/>
<path d="M20.6452 0.547568L20.6452 0.547559C21.2387 -0.045896 22.201 -0.045936 22.795 0.547587C23.3881 1.14105 23.3881 2.10336 22.795 2.69699C22.2015 3.29043 21.2392 3.29048 20.6452 2.69699C20.0516 2.10335 20.0516 1.14103 20.6452 0.547568Z" fill="#303838" stroke="white" stroke-width="0.204912"/>
<path d="M7.66757 55.704L7.66753 55.7041C7.07394 56.2974 7.0739 57.2597 7.66756 57.8535C8.26153 58.4468 9.22383 58.4468 9.81728 57.8535C9.81729 57.8535 9.8173 57.8535 9.81731 57.8535M7.66757 55.704L9.88975 55.6316C10.5229 56.2651 10.5229 57.2923 9.88975 57.9259L9.81731 57.8535M7.66757 55.704C8.26102 55.1103 9.22334 55.1102 9.81731 55.7041M7.66757 55.704L9.81731 55.7041M9.81731 57.8535C10.4105 57.2598 10.4104 56.2975 9.81731 55.7041M9.81731 57.8535V55.7041" fill="#303838" stroke="white" stroke-width="0.204912"/>
<path d="M73.5289 53.5365C73.5289 54.3759 72.8484 55.0564 72.009 55.0564C71.1695 55.0564 70.4891 54.3759 70.4891 53.5365C70.4891 52.697 71.1695 52.0165 72.009 52.0165C72.8484 52.0165 73.5289 52.697 73.5289 53.5365Z" fill="#303838" stroke="white" stroke-width="0.204912"/>
<path d="M45.9508 34.0677C45.9508 34.9071 45.2703 35.5876 44.4309 35.5876C43.5914 35.5876 42.9109 34.9071 42.9109 34.0677C42.9109 33.2283 43.5914 32.5478 44.4309 32.5478C45.2703 32.5478 45.9508 33.2283 45.9508 34.0677Z" fill="#303838" stroke="white" stroke-width="0.204912"/>
<path d="M57.307 68.138C57.307 68.9775 56.6265 69.658 55.7871 69.658C54.9476 69.658 54.2671 68.9775 54.2671 68.138C54.2671 67.2986 54.9476 66.6181 55.7871 66.6181C56.6265 66.6181 57.307 67.2986 57.307 68.138Z" fill="#303838" stroke="white" stroke-width="0.204912"/>
</svg>
