<svg width="77" height="78" viewBox="0 0 77 78" fill="none" xmlns="http://www.w3.org/2000/svg">
<rect x="2" y="13" width="74" height="62" fill="white"/>
<path fill-rule="evenodd" clip-rule="evenodd" d="M61.5 37C63.9853 37 66 34.9853 66 32.5C66 30.0147 63.9853 28 61.5 28C59.0147 28 57 30.0147 57 32.5C57 34.9853 59.0147 37 61.5 37ZM31.5 41C33.9853 41 36 38.9853 36 36.5C36 34.0147 33.9853 32 31.5 32C29.0147 32 27 34.0147 27 36.5C27 38.9853 29.0147 41 31.5 41ZM16.5 47C18.9853 47 21 44.9853 21 42.5C21 40.0147 18.9853 38 16.5 38C14.0147 38 12 40.0147 12 42.5C12 44.9853 14.0147 47 16.5 47ZM51 40.5C51 42.9853 48.9853 45 46.5 45C44.0147 45 42 42.9853 42 40.5C42 38.0147 44.0147 36 46.5 36C48.9853 36 51 38.0147 51 40.5Z" fill="white"/>
<path d="M76.2088 5.47601C76.2088 2.8924 74.1064 0.79 71.5228 0.79H5.47601C2.8924 0.79 0.79 2.8924 0.79 5.47601L0.79117 72.3178C0.79117 74.9014 2.89357 77.0038 5.47718 77.0038H71.524C74.1076 77.0038 76.21 74.9014 76.21 72.3178L76.2088 5.47601ZM3.0004 5.47601C3.0004 4.11165 4.11165 3.0004 5.47601 3.0004H71.5228C72.8872 3.0004 73.9984 4.11165 73.9984 5.47601V12.2097H3.0004V5.47601ZM73.9996 72.3178C73.9996 73.6821 72.8884 74.7934 71.524 74.7934H5.47718C4.11282 74.7934 3.00157 73.6821 3.00157 72.3178V14.4201H73.9996V72.3178Z" fill="#618E81" stroke="#618E81" stroke-width="0.42"/>
<path d="M9.25964 4.04C7.25534 4.04 5.62502 5.67032 5.62502 7.67461C5.62502 9.67891 7.25534 11.3092 9.25964 11.3092C11.2639 11.3092 12.8943 9.67891 12.8943 7.67461C12.8943 5.67032 11.2639 4.04 9.25964 4.04ZM9.25964 9.09882C8.47459 9.09882 7.83543 8.45966 7.83543 7.67461C7.83543 6.88957 8.47459 6.2504 9.25964 6.2504C10.0447 6.2504 10.6838 6.88957 10.6838 7.67461C10.6838 8.45966 10.0447 9.09882 9.25964 9.09882Z" fill="#618E81" stroke="#618E81" stroke-width="0.42"/>
<path d="M17.7571 4.04C15.7528 4.04 14.1225 5.67032 14.1225 7.67461C14.1225 9.67891 15.7528 11.3092 17.7571 11.3092C19.7614 11.3092 21.3917 9.67891 21.3917 7.67461C21.3917 5.67032 19.7614 4.04 17.7571 4.04ZM17.7571 9.09882C16.972 9.09882 16.3329 8.45966 16.3329 7.67461C16.3329 6.88957 16.972 6.2504 17.7571 6.2504C18.5421 6.2504 19.1813 6.88957 19.1813 7.67461C19.1813 8.45966 18.5421 9.09882 17.7571 9.09882Z" fill="#618E81" stroke="#618E81" stroke-width="0.42"/>
<path d="M26.2545 4.04C24.2502 4.04 22.6199 5.67032 22.6199 7.67461C22.6199 9.67891 24.2502 11.3092 26.2545 11.3092C28.2599 11.3092 29.8903 9.67896 29.8903 7.67461C29.8903 5.67027 28.2599 4.04 26.2545 4.04ZM26.2545 9.09882C25.4695 9.09882 24.8303 8.45966 24.8303 7.67461C24.8303 6.88957 25.4695 6.2504 26.2545 6.2504C27.0408 6.2504 27.6799 6.88966 27.6799 7.67461C27.6799 8.45956 27.0408 9.09882 26.2545 9.09882Z" fill="#618E81" stroke="#618E81" stroke-width="0.42"/>
<path d="M7.19183 69.8094H7.28086H7.37038H7.46038H7.55087H7.64184H7.73329H7.82522H7.91762H8.0105H8.10386H8.19768H8.29197H8.38673H8.48195H8.57763H8.67377H8.77037H8.86742H8.96493H9.06289H9.1613H9.26015H9.35945H9.45919H9.55938H9.66H9.76105H9.86255H9.96447H10.0668H10.1696H10.2728H10.3764H10.4805H10.585H10.6899H10.7952H10.9009H11.007H11.1135H11.2205H11.3278H11.4356H11.5437H11.6523H11.7612H11.8706H11.9803H12.0904H12.2009H12.3118H12.4231H12.5348H12.6468H12.7592H12.872H12.9852H13.0987H13.2126H13.3269H13.4415H13.5565H13.6719H13.7876H13.9037H14.0201H14.1369H14.254H14.3715H14.4893H14.6075H14.726H14.8448H14.964H15.0835H15.2034H15.3236H15.4441H15.5649H15.6861H15.8076H15.9294H16.0515H16.1739H16.2967H16.4198H16.5431H16.6668H16.7908H16.9151H17.0397H17.1646H17.2898H17.4152H17.541H17.6671H17.7934H17.9201H18.047H18.1742H18.3017H18.4295H18.5575H18.6858H18.8144H18.9433H19.0724H19.2018H19.3314H19.4613H19.5915H19.7219H19.8526H19.9836H20.1148H20.2462H20.3779H20.5098H20.642H20.7744H20.907H21.0399H21.173H21.3064H21.4399H21.5737H21.7078H21.842H21.9765H22.1112H22.2461H22.3812H22.5166H22.6521H22.7879H22.9238H23.06H23.1964H23.3329H23.4697H23.6067H23.7438H23.8812H24.0187H24.1564H24.2943H24.4324H24.5707H24.7091H24.8478H24.9866H25.1255H25.2647H25.404H25.5435H25.6831H25.8229H25.9629H26.103H26.2433H26.3837H26.5243H26.665H26.8059H26.9469H27.0881H27.2294H27.3709H27.5124H27.6542H27.796H27.938H28.0801H28.2223H28.3647H28.5072H28.6498H28.7925H28.9353H29.0783H29.2213H29.3645H29.5078H29.6511H29.7946H29.9382H30.0819H30.2257H30.3695H30.5135H30.6576H30.8017H30.9459H31.0902H31.2346H31.3791H31.5236H31.6683H31.813H31.9577H32.1026H32.2475H32.3925H32.5375H32.6826H32.8277H32.9729H33.1182H33.2635H33.4089H33.5543H33.6998H33.8453H33.9908H34.1364H34.282H34.4277H34.5733H34.7191H34.8648H35.0106H35.1564H35.3022H35.4481H35.5939H35.7398H35.8857H36.0316H36.1775H36.3234H36.4694H36.6153H36.7612H36.9072H37.0531H37.199H37.3449H37.4908H37.6367H37.7826H37.9285H38.0743H38.2202H38.366H38.5118H38.6575H38.8033H38.949H39.0946H39.2403H39.3859H39.5314H39.6769H39.8224H39.9678H40.1132H40.2586H40.4038H40.5491H40.6942H40.8394H40.9844H41.1294H41.2743H41.4192H41.564H41.7087H41.8534H41.998H42.1425H42.2869H42.4312H42.5755H42.7197H42.8638H43.0078H43.1517H43.2955H43.4392H43.5828H43.7263H43.8698H44.0131H44.1563H44.2994H44.4424H44.5853H44.728H44.8707H45.0132H45.1556H45.2979H45.44H45.5821H45.724H45.8657H46.0074H46.1489H46.2902H46.4314H46.5725H46.7135H46.8543H46.9949H47.1354H47.2757H47.4159H47.5559H47.6958H47.8355H47.9751H48.1144H48.2536H48.3927H48.5316H48.6702H48.8088H48.9471H49.0853H49.2233H49.361H49.4987H49.6361H49.7733H49.9103H50.0472H50.1838H50.3203H50.4565H50.5926H50.7284H50.864H50.9994H51.1347H51.2696H51.4044H51.539H51.6733H51.8074H51.9413H52.075H52.2084H52.3416H52.4746H52.6074H52.7399H52.8721H53.0041H53.1359H53.2675H53.3987H53.5298H53.6606H53.7911H53.9214H54.0514H54.1811H54.3106H54.4398H54.5688H54.6975H54.8259H54.9541H55.0819H55.2095H55.3369H55.4639H55.5906H55.7171H55.8433H55.9692H56.0948H56.2201H56.3451H56.4698H56.5942H56.7183H56.8421H56.9656H57.0888H57.2117H57.3342H57.4565H57.5784H57.7H57.8213H57.9423H58.0629H58.1832H58.3032H58.4228H58.5422H58.6611H58.7798H58.8981H59.016H59.1336H59.2509H59.3678H59.4844H59.6006H59.7165H59.832H59.9471H60.0619H60.1763H60.2903H60.404H60.5173H60.6303H60.7428H60.855H60.9668H61.0783H61.1893H61.3H61.4102H61.5201H61.6296H61.7387H61.8474H61.9557H62.0636H62.1711H62.2782H62.3849H62.4912H62.5971H62.7026H62.8076H62.9123H63.0165H63.1203H63.2236H63.3266H63.4291H63.5312H63.6329H63.7341H63.8349H63.9352H64.0352H64.1346H64.2337H64.3322H64.4304H64.5281H64.6253H64.7221H64.8184H64.9142H65.0096H65.1046H65.1991H65.2931H65.3866H65.4797H65.5723H65.6644H65.756H65.8472H65.9378H66.028H66.1177H66.207H66.2957H66.3839H66.4717H66.5589H66.6457H66.7319H66.8176H66.9029H66.9876H67.0718H67.1555H67.2387H67.3214H67.4036H67.4852H67.5663H67.6469H67.727H67.8065H67.8855H67.964H68.0419H68.1194H68.1962H68.2725H68.3483H68.4236H68.4983H68.5724H68.646H68.719H68.7915H68.8634H68.9348H69.0056H69.0758H69.1455H69.2146H69.2831H69.3511H69.4184H69.4852H69.5515H69.6171H69.6822H69.7466H69.8105C70.4207 69.8094 70.9157 69.3144 70.9157 68.7041C70.9157 68.0939 70.4207 67.5989 69.8105 67.5989H66.9211V43.7702C66.9211 43.16 66.4261 42.665 65.8159 42.665H57.4549C56.8447 42.665 56.3497 43.16 56.3497 43.7702V67.5989H51.4975V50.9481C51.4975 50.3379 51.0025 49.8429 50.3923 49.8429H42.0325C41.4222 49.8429 40.9272 50.3379 40.9272 50.9481V67.599H36.0751V47.8079C36.0751 47.1977 35.5801 46.7027 34.9699 46.7027H26.6089C25.9987 46.7027 25.5037 47.1977 25.5037 47.8079V67.599H20.6515V53.0847C20.6515 52.4745 20.1565 51.9795 19.5463 51.9795H11.1864C10.5762 51.9795 10.0812 52.4745 10.0812 53.0847V67.599H7.19183C6.58163 67.599 6.08663 68.094 6.08663 68.7042C6.08663 69.3144 6.58163 69.8094 7.19183 69.8094ZM58.5601 44.8754H64.7107V67.5989H58.5601V44.8754ZM43.1377 52.0534H49.2871V67.599H43.1377V52.0534ZM27.7141 48.9131H33.8647V67.599H27.7141V48.9131ZM12.2916 54.1899H18.4411V67.599H12.2916V54.1899Z" fill="#618E81" stroke="#618E81" stroke-width="0.42"/>
<path d="M8.92279 21.4848H19.7293C20.3395 21.4848 20.8345 20.9898 20.8345 20.3796C20.8345 19.7694 20.3395 19.2744 19.7293 19.2744H8.92279C8.31259 19.2744 7.81759 19.7694 7.81759 20.3796C7.81759 20.9898 8.31259 21.4848 8.92279 21.4848Z" fill="#618E81" stroke="#618E81" stroke-width="0.42"/>
<path d="M23.3136 21.4848H26.9492C27.5594 21.4848 28.0544 20.9898 28.0544 20.3796C28.0544 19.7694 27.5594 19.2744 26.9492 19.2744H23.3136C22.7034 19.2744 22.2084 19.7694 22.2084 20.3796C22.2084 20.9898 22.7034 21.4848 23.3136 21.4848Z" fill="#618E81" stroke="#618E81" stroke-width="0.42"/>
<path d="M23.3136 27.227H26.9492C27.5594 27.227 28.0544 26.732 28.0544 26.1218C28.0544 25.5116 27.5594 25.0166 26.9492 25.0166H23.3136C22.7034 25.0166 22.2084 25.5116 22.2084 26.1218C22.2084 26.732 22.7034 27.227 23.3136 27.227Z" fill="#618E81" stroke="#618E81" stroke-width="0.42"/>
<path d="M8.92279 27.227H19.7293C20.3395 27.227 20.8345 26.732 20.8345 26.1218C20.8345 25.5116 20.3395 25.0166 19.7293 25.0166H8.92279C8.31259 25.0166 7.81759 25.5116 7.81759 26.1218C7.81759 26.732 8.31259 27.227 8.92279 27.227Z" fill="#618E81" stroke="#618E81" stroke-width="0.42"/>
<path d="M49.6852 43.7863L49.6851 43.7863C48.7314 44.7389 47.479 45.215 46.2287 45.215C44.9772 45.215 43.7248 44.7389 42.7721 43.7862C41.8329 42.847 41.3657 41.619 41.352 40.3882L35.7011 39.1309C35.4707 39.6168 35.1611 40.0765 34.757 40.4805C32.8518 42.388 29.7473 42.3863 27.8438 40.4804C27.6078 40.2444 27.4109 39.9881 27.2386 39.7241L21.2076 41.9569C21.3959 43.4081 20.9435 44.9294 19.8288 46.0441C17.92 47.9529 14.8211 47.9483 12.9169 46.0441C11.0113 44.1409 11.0122 41.0332 12.9169 39.131L49.6852 43.7863ZM49.6852 43.7863C50.9575 42.514 51.3589 40.7171 50.9349 39.0957L57.4826 35.6043C57.5472 35.6889 57.6206 35.7825 57.7002 35.8622L57.7003 35.8623C58.6529 36.8149 59.9053 37.2923 61.1569 37.2923C62.4073 37.2923 63.6597 36.8149 64.6122 35.8623C66.5185 33.9561 66.5185 30.8555 64.6122 28.9492C62.7061 27.043 59.6146 27.035 57.7003 28.9492C56.4267 30.2228 56.0262 32.0237 56.4533 33.6477L49.9079 37.138C49.8419 37.0516 49.767 36.9561 49.6852 36.8743L49.5367 37.0228L49.6852 36.8743C47.7777 34.9681 44.6771 34.9705 42.7722 36.8743L42.7721 36.8743C42.3669 37.2795 42.0564 37.7406 41.8258 38.2283M49.6852 43.7863L41.8258 38.2283M34.7571 33.5687C32.852 31.6612 29.7489 31.6612 27.8438 33.5687C26.7295 34.6831 26.2772 36.2032 26.4651 37.6536L20.4336 39.8866C20.2614 39.6228 20.0647 39.3669 19.8288 39.131C17.925 37.2272 14.8232 37.2247 12.9169 39.1309L34.6085 33.7171M34.7571 33.5687L34.6085 33.7171M34.7571 33.5687C34.7571 33.5687 34.757 33.5686 34.757 33.5686L34.6085 33.7171M34.7571 33.5687C35.6976 34.5092 36.1644 35.739 36.1768 36.9714M34.6085 33.7171C35.55 34.6586 35.9959 35.9036 35.9656 37.1395M36.1768 36.9714L36.0112 36.9345L35.9656 37.1395M36.1768 36.9714L41.8258 38.2283M36.1768 36.9714C36.1774 37.0292 36.1769 37.0869 36.1755 37.1447L35.9656 37.1395M35.9656 37.1395L41.8258 38.2283M41.8258 38.2283C41.8009 38.2808 41.777 38.3337 41.754 38.3869L41.9467 38.4703L41.9923 38.2653L41.8258 38.2283ZM29.2583 34.983L29.4068 35.1315C28.3791 36.1591 28.3672 37.8778 29.4068 38.9177C30.4508 39.9617 32.1501 39.9617 33.1941 38.9177C33.1941 38.9177 33.1941 38.9177 33.1942 38.9177M29.2583 34.983L33.3426 39.0662L33.1942 38.9177M29.2583 34.983L29.4068 35.1315C30.4493 34.089 32.1502 34.0875 33.1942 35.1315C34.2745 36.2119 34.1847 37.9269 33.1942 38.9177M29.2583 34.983L33.1942 38.9177M18.2659 44.4812L18.2659 44.4813C17.222 45.5263 15.5238 45.5253 14.4797 44.4812C13.4394 43.4409 13.4378 41.7358 14.4797 40.6938C15.5223 39.6513 17.222 39.6499 18.2659 40.6938C19.2603 41.6882 19.3425 43.4046 18.2659 44.4812ZM48.1224 38.4372L48.1224 38.4372C49.0619 39.3764 49.2358 41.11 48.1224 42.2234L48.1223 42.2235C47.0784 43.2684 45.3791 43.2675 44.335 42.2234L44.1865 42.3719L44.335 42.2234C43.2559 41.1445 43.3398 39.4326 44.335 38.4372C45.3775 37.3947 47.0784 37.3933 48.1224 38.4372ZM59.2632 30.5121C60.3137 29.4615 62.0066 29.4693 63.0494 30.5121C64.0934 31.5561 64.0934 33.2555 63.0494 34.2995C62.4112 34.9377 61.7073 35.1646 61.0511 35.1224C60.3896 35.0799 59.7593 34.7624 59.2822 34.2812C58.8051 33.7999 58.4912 33.1649 58.4497 32.5013C58.4085 31.8429 58.6341 31.1412 59.2632 30.5121Z" fill="#618E81" stroke="#618E81" stroke-width="0.42"/>
</svg>
