<svg width="98" height="74" viewBox="0 0 98 74" fill="none" xmlns="http://www.w3.org/2000/svg">
<rect x="2" y="21" width="71" height="50" rx="3" fill="#EEEEEE"/>
<rect x="2" y="8" width="72" height="13" rx="2" fill="#C4C4C4"/>
<path fill-rule="evenodd" clip-rule="evenodd" d="M15 2H20V12H15V2ZM35 2H40V12H35V2ZM60 2H55V12H60V2Z" fill="#DEBD7C"/>
<circle cx="73.5" cy="47.5" r="23.5" fill="#618E81"/>
<circle cx="73.5" cy="47.5" r="16.5" fill="#EEEEEE"/>
<rect x="37" y="42" width="10" height="10" fill="#618E81"/>
<rect x="37" y="28" width="10" height="10" fill="#C0E3C0"/>
<rect x="37" y="56" width="10" height="10" fill="#004D40"/>
<rect x="23" y="42" width="10" height="10" fill="#C0E3C0"/>
<rect x="23" y="28" width="10" height="10" fill="#004D40"/>
<rect x="23" y="56" width="10" height="10" fill="#618E81"/>
<rect x="9" y="42" width="10" height="10" fill="#C0E3C0"/>
<rect x="9" y="28" width="10" height="10" fill="#004D40"/>
<rect x="9" y="56" width="10" height="10" fill="#C0E3C0"/>
<mask id="path-15-outside-1_1348_7566" maskUnits="userSpaceOnUse" x="0" y="0" width="98" height="74" fill="black">
<rect fill="white" width="98" height="74"/>
<path d="M74.5701 23.1344V11.595C74.5701 8.67486 72.1939 6.29748 69.2726 6.29748H60.0165V3.59249C60.0165 2.16334 58.8532 1 57.424 1H56.1074C54.6783 1 53.5149 2.16334 53.5149 3.59249V6.29748H40.5216V3.59249C40.5216 2.16334 39.3582 1 37.9291 1H36.6124C35.1833 1 34.0199 2.16334 34.0199 3.59249V6.29748H21.0253V3.59249C21.0253 2.16334 19.862 1 18.4329 1H17.1162C15.6871 1 14.5237 2.16334 14.5237 3.59249V6.29748H6.29748C3.37614 6.29748 1 8.67362 1 11.595V67.7038C1 70.6239 3.37614 73 6.29748 73H69.2726C70.9577 73 72.5166 72.2001 73.5093 70.8711C73.539 70.8711 73.5675 70.8724 73.5971 70.8724C86.7648 70.8724 97.4772 60.1599 97.4772 46.9923C97.4784 34.151 87.289 23.6463 74.5701 23.1344ZM55.4769 3.59373C55.4769 3.25251 55.7662 2.96322 56.1074 2.96322H57.424C57.7653 2.96322 58.0545 3.25251 58.0545 3.59373V10.9645C58.0545 11.3057 57.7653 11.595 57.424 11.595H56.1074C55.7662 11.595 55.4769 11.3057 55.4769 10.9645V3.59373ZM35.9819 3.59373C35.9819 3.25251 36.2712 2.96322 36.6124 2.96322H37.9291C38.2703 2.96322 38.5596 3.25251 38.5596 3.59373V10.9645C38.5596 11.3057 38.2703 11.595 37.9291 11.595H36.6124C36.2712 11.595 35.9819 11.3057 35.9819 10.9645V3.59373ZM16.4857 3.59373C16.4857 3.25251 16.775 2.96322 17.1162 2.96322H18.4329C18.7741 2.96322 19.0634 3.25251 19.0634 3.59373V10.9645C19.0634 11.3057 18.7741 11.595 18.4329 11.595H17.1162C16.775 11.595 16.4857 11.3057 16.4857 10.9645V3.59373ZM6.29872 8.25947H14.525V10.9645C14.525 12.3936 15.6883 13.5569 17.1174 13.5569H18.4341C19.8632 13.5569 21.0266 12.3936 21.0266 10.9645V8.25947H34.0212V10.9645C34.0212 12.3936 35.1845 13.5569 36.6137 13.5569H37.9303C39.3594 13.5569 40.5228 12.3936 40.5228 10.9645V8.25947H53.5174V10.9645C53.5174 12.3936 54.6807 13.5569 56.1099 13.5569H57.4265C58.8557 13.5569 60.019 12.3936 60.019 10.9645V8.25947H69.2751C71.1147 8.25947 72.6106 9.75537 72.6106 11.595V20.2131H2.96322V11.595C2.96322 9.75537 4.45913 8.25947 6.29872 8.25947ZM69.2726 71.038H6.29872C4.46036 71.038 2.96322 69.5421 2.96322 67.7025V22.1751H72.6081V23.1357C59.8991 23.6562 49.7183 34.1572 49.7183 46.9935C49.7183 59.1907 58.9101 69.2788 70.7302 70.7005C70.2839 70.9181 69.7881 71.038 69.2726 71.038ZM73.5984 68.9116C61.5124 68.9116 51.6803 59.0794 51.6803 46.9935C51.6803 34.9076 61.5124 25.0754 73.5984 25.0754C85.6843 25.0754 95.5164 34.9076 95.5164 46.9935C95.5164 59.0794 85.6843 68.9116 73.5984 68.9116ZM88.7713 55.713C90.2536 53.144 91.1017 50.1658 91.1017 46.9935C91.1017 43.8212 90.2523 40.843 88.7713 38.274C88.7663 38.2641 88.7626 38.253 88.7564 38.2418C88.749 38.2295 88.7391 38.2196 88.7317 38.2072C87.2024 35.5838 85.0105 33.3907 82.3871 31.8614C82.3747 31.8527 82.3636 31.8428 82.3512 31.8354C82.3401 31.8292 82.329 31.8268 82.3179 31.8206C79.7489 30.3395 76.7719 29.4902 73.5996 29.4902C70.4273 29.4902 67.4491 30.3383 64.8801 31.8206C64.8689 31.8268 64.8578 31.8292 64.8479 31.8354C64.8343 31.8428 64.8244 31.8527 64.8121 31.8614C62.1874 33.3907 59.9955 35.5838 58.4662 38.2085C58.4588 38.2208 58.4489 38.2307 58.4415 38.2431C58.4353 38.253 58.4328 38.2641 58.4279 38.274C56.9456 40.843 56.0963 43.8212 56.0963 46.9947C56.0963 50.1683 56.9456 53.1465 58.4279 55.7155C58.4328 55.7254 58.4366 55.7365 58.4415 55.7464C58.4526 55.7662 58.4662 55.7835 58.4786 55.802C60.0079 58.4168 62.1949 60.6025 64.8121 62.1281C64.8244 62.1355 64.8343 62.1467 64.8479 62.1541C64.8628 62.1627 64.8788 62.1689 64.8949 62.1763C67.4602 63.6537 70.4335 64.4981 73.6008 64.4981C76.767 64.4981 79.7402 63.6524 82.3055 62.1763C82.3216 62.1689 82.3364 62.1627 82.3525 62.1528C82.3661 62.1454 82.376 62.1343 82.3884 62.1269C85.0043 60.6013 87.1913 58.4168 88.7206 55.8033C88.733 55.7847 88.7466 55.7662 88.7589 55.7464C88.7626 55.734 88.7663 55.7229 88.7713 55.713ZM82.2004 59.9288L81.7467 59.1437C81.476 58.6739 80.8764 58.5145 80.4066 58.7852C79.9368 59.0559 79.7761 59.6555 80.048 60.1253L80.5018 60.9116C78.6968 61.8104 76.6953 62.3679 74.5787 62.5002V61.5903C74.5787 61.0488 74.1399 60.61 73.5984 60.61C73.0569 60.61 72.618 61.0488 72.618 61.5903V62.5002C70.5015 62.3679 68.4999 61.8104 66.6962 60.9116L67.1499 60.1253C67.4206 59.6555 67.2599 59.0559 66.7914 58.7852C66.3228 58.5145 65.722 58.6752 65.4512 59.1437L64.9975 59.9288C63.2828 58.784 61.8067 57.3091 60.6631 55.5943L61.4481 55.1406C61.9167 54.8699 62.0787 54.2703 61.8067 53.8005C61.5359 53.3319 60.9363 53.1712 60.4665 53.442L59.6803 53.8957C58.7815 52.0907 58.2239 50.0892 58.0916 47.9726H59.0015C59.543 47.9726 59.9819 47.5338 59.9819 46.9923C59.9819 46.4508 59.543 46.0119 59.0015 46.0119H58.0916C58.2239 43.8954 58.7815 41.8938 59.6803 40.0889L60.4665 40.5426C60.6211 40.6316 60.7892 40.6736 60.9561 40.6736C61.2948 40.6736 61.6249 40.4981 61.8067 40.1828C62.0774 39.713 61.9167 39.1134 61.4481 38.8427L60.6631 38.389C61.8079 36.6742 63.2828 35.1981 64.9975 34.0546L65.4512 34.8396C65.633 35.1548 65.9631 35.3304 66.3018 35.3304C66.4687 35.3304 66.6368 35.2884 66.7914 35.1993C67.2612 34.9286 67.4219 34.329 67.1499 33.8592L66.6962 33.0729C68.5012 32.1742 70.5027 31.6166 72.618 31.4843V32.3942C72.618 32.9357 73.0569 33.3746 73.5984 33.3746C74.1399 33.3746 74.5787 32.9357 74.5787 32.3942V31.4843C76.6953 31.6166 78.6968 32.1742 80.5018 33.0729L80.048 33.8605C79.7773 34.3302 79.938 34.9298 80.4066 35.2006C80.5611 35.2896 80.7293 35.3316 80.8962 35.3316C81.2349 35.3316 81.565 35.1561 81.7467 34.8408L82.2004 34.0558C83.9152 35.2006 85.3913 36.6755 86.5348 38.3902L85.7498 38.8439C85.2812 39.1147 85.1193 39.7143 85.3913 40.1841C85.573 40.4981 85.9031 40.6749 86.2418 40.6749C86.4087 40.6749 86.5769 40.6328 86.7314 40.5438L87.5177 40.0901C88.4165 41.8951 88.974 43.8966 89.1063 46.0131H88.1964C87.6549 46.0131 87.216 46.452 87.216 46.9935C87.216 47.535 87.6549 47.9739 88.1964 47.9739H89.1063C88.974 50.0904 88.4165 52.0919 87.5177 53.8969L86.7314 53.4432C86.2616 53.1725 85.662 53.3332 85.3913 53.8017C85.1205 54.2715 85.2812 54.8711 85.7498 55.1419L86.5348 55.5956C85.3913 57.3091 83.9152 58.7852 82.2004 59.9288ZM74.58 44.9104V36.6458C74.58 36.1043 74.1411 35.6654 73.5996 35.6654C73.0581 35.6654 72.6192 36.1043 72.6192 36.6458V44.9104C72.1371 45.1391 71.7464 45.5285 71.5177 46.0119H67.1833C66.6418 46.0119 66.2029 46.4508 66.2029 46.9923C66.2029 47.5338 66.6418 47.9726 67.1833 47.9726H71.5177C71.8873 48.754 72.6798 49.2967 73.5996 49.2967C74.8705 49.2967 75.904 48.2632 75.904 46.9923C75.9028 46.0737 75.3601 45.28 74.58 44.9104ZM19.1153 27.3873H10.1238C9.58229 27.3873 9.14341 27.8261 9.14341 28.3676V37.3591C9.14341 37.9006 9.58229 38.3395 10.1238 38.3395H19.1153C19.6568 38.3395 20.0957 37.9006 20.0957 37.3591V28.3676C20.0957 27.8261 19.6568 27.3873 19.1153 27.3873ZM18.1337 36.3788H11.1042V29.3493H18.1337V36.3788ZM19.1153 41.3338H10.1238C9.58229 41.3338 9.14341 41.7727 9.14341 42.3142V51.3057C9.14341 51.8472 9.58229 52.286 10.1238 52.286H19.1153C19.6568 52.286 20.0957 51.8472 20.0957 51.3057V42.3142C20.0957 41.7727 19.6568 41.3338 19.1153 41.3338ZM18.1337 50.3241H11.1042V43.2945H18.1337V50.3241ZM19.1153 55.2791H10.1238C9.58229 55.2791 9.14341 55.718 9.14341 56.2595V65.251C9.14341 65.7925 9.58229 66.2313 10.1238 66.2313H19.1153C19.6568 66.2313 20.0957 65.7925 20.0957 65.251V56.2595C20.0957 55.718 19.6568 55.2791 19.1153 55.2791ZM18.1337 64.2706H11.1042V57.2411H18.1337V64.2706ZM32.7849 27.3873H23.7934C23.2519 27.3873 22.813 27.8261 22.813 28.3676V37.3591C22.813 37.9006 23.2519 38.3395 23.7934 38.3395H32.7849C33.3264 38.3395 33.7653 37.9006 33.7653 37.3591V28.3676C33.7665 27.8261 33.3276 27.3873 32.7849 27.3873ZM31.8045 36.3788H24.775V29.3493H31.8045V36.3788ZM32.7849 41.3338H23.7934C23.2519 41.3338 22.813 41.7727 22.813 42.3142V51.3057C22.813 51.8472 23.2519 52.286 23.7934 52.286H32.7849C33.3264 52.286 33.7653 51.8472 33.7653 51.3057V42.3142C33.7665 41.7727 33.3276 41.3338 32.7849 41.3338ZM31.8045 50.3241H24.775V43.2945H31.8045V50.3241ZM32.7849 55.2791H23.7934C23.2519 55.2791 22.813 55.718 22.813 56.2595V65.251C22.813 65.7925 23.2519 66.2313 23.7934 66.2313H32.7849C33.3264 66.2313 33.7653 65.7925 33.7653 65.251V56.2595C33.7665 55.718 33.3276 55.2791 32.7849 55.2791ZM31.8045 64.2706H24.775V57.2411H31.8045V64.2706ZM46.4557 27.3873H37.4642C36.9227 27.3873 36.4838 27.8261 36.4838 28.3676V37.3591C36.4838 37.9006 36.9227 38.3395 37.4642 38.3395H46.4557C46.9972 38.3395 47.4361 37.9006 47.4361 37.3591V28.3676C47.4373 27.8261 46.9972 27.3873 46.4557 27.3873ZM45.4753 36.3788H38.4458V29.3493H45.4753V36.3788ZM46.4557 41.3338H37.4642C36.9227 41.3338 36.4838 41.7727 36.4838 42.3142V51.3057C36.4838 51.8472 36.9227 52.286 37.4642 52.286H46.4557C46.9972 52.286 47.4361 51.8472 47.4361 51.3057V42.3142C47.4373 41.7727 46.9972 41.3338 46.4557 41.3338ZM45.4753 50.3241H38.4458V43.2945H45.4753V50.3241ZM46.4557 55.2791H37.4642C36.9227 55.2791 36.4838 55.718 36.4838 56.2595V65.251C36.4838 65.7925 36.9227 66.2313 37.4642 66.2313H46.4557C46.9972 66.2313 47.4361 65.7925 47.4361 65.251V56.2595C47.4373 55.718 46.9972 55.2791 46.4557 55.2791ZM45.4753 64.2706H38.4458V57.2411H45.4753V64.2706Z"/>
</mask>
<path d="M74.5701 23.1344V11.595C74.5701 8.67486 72.1939 6.29748 69.2726 6.29748H60.0165V3.59249C60.0165 2.16334 58.8532 1 57.424 1H56.1074C54.6783 1 53.5149 2.16334 53.5149 3.59249V6.29748H40.5216V3.59249C40.5216 2.16334 39.3582 1 37.9291 1H36.6124C35.1833 1 34.0199 2.16334 34.0199 3.59249V6.29748H21.0253V3.59249C21.0253 2.16334 19.862 1 18.4329 1H17.1162C15.6871 1 14.5237 2.16334 14.5237 3.59249V6.29748H6.29748C3.37614 6.29748 1 8.67362 1 11.595V67.7038C1 70.6239 3.37614 73 6.29748 73H69.2726C70.9577 73 72.5166 72.2001 73.5093 70.8711C73.539 70.8711 73.5675 70.8724 73.5971 70.8724C86.7648 70.8724 97.4772 60.1599 97.4772 46.9923C97.4784 34.151 87.289 23.6463 74.5701 23.1344ZM55.4769 3.59373C55.4769 3.25251 55.7662 2.96322 56.1074 2.96322H57.424C57.7653 2.96322 58.0545 3.25251 58.0545 3.59373V10.9645C58.0545 11.3057 57.7653 11.595 57.424 11.595H56.1074C55.7662 11.595 55.4769 11.3057 55.4769 10.9645V3.59373ZM35.9819 3.59373C35.9819 3.25251 36.2712 2.96322 36.6124 2.96322H37.9291C38.2703 2.96322 38.5596 3.25251 38.5596 3.59373V10.9645C38.5596 11.3057 38.2703 11.595 37.9291 11.595H36.6124C36.2712 11.595 35.9819 11.3057 35.9819 10.9645V3.59373ZM16.4857 3.59373C16.4857 3.25251 16.775 2.96322 17.1162 2.96322H18.4329C18.7741 2.96322 19.0634 3.25251 19.0634 3.59373V10.9645C19.0634 11.3057 18.7741 11.595 18.4329 11.595H17.1162C16.775 11.595 16.4857 11.3057 16.4857 10.9645V3.59373ZM6.29872 8.25947H14.525V10.9645C14.525 12.3936 15.6883 13.5569 17.1174 13.5569H18.4341C19.8632 13.5569 21.0266 12.3936 21.0266 10.9645V8.25947H34.0212V10.9645C34.0212 12.3936 35.1845 13.5569 36.6137 13.5569H37.9303C39.3594 13.5569 40.5228 12.3936 40.5228 10.9645V8.25947H53.5174V10.9645C53.5174 12.3936 54.6807 13.5569 56.1099 13.5569H57.4265C58.8557 13.5569 60.019 12.3936 60.019 10.9645V8.25947H69.2751C71.1147 8.25947 72.6106 9.75537 72.6106 11.595V20.2131H2.96322V11.595C2.96322 9.75537 4.45913 8.25947 6.29872 8.25947ZM69.2726 71.038H6.29872C4.46036 71.038 2.96322 69.5421 2.96322 67.7025V22.1751H72.6081V23.1357C59.8991 23.6562 49.7183 34.1572 49.7183 46.9935C49.7183 59.1907 58.9101 69.2788 70.7302 70.7005C70.2839 70.9181 69.7881 71.038 69.2726 71.038ZM73.5984 68.9116C61.5124 68.9116 51.6803 59.0794 51.6803 46.9935C51.6803 34.9076 61.5124 25.0754 73.5984 25.0754C85.6843 25.0754 95.5164 34.9076 95.5164 46.9935C95.5164 59.0794 85.6843 68.9116 73.5984 68.9116ZM88.7713 55.713C90.2536 53.144 91.1017 50.1658 91.1017 46.9935C91.1017 43.8212 90.2523 40.843 88.7713 38.274C88.7663 38.2641 88.7626 38.253 88.7564 38.2418C88.749 38.2295 88.7391 38.2196 88.7317 38.2072C87.2024 35.5838 85.0105 33.3907 82.3871 31.8614C82.3747 31.8527 82.3636 31.8428 82.3512 31.8354C82.3401 31.8292 82.329 31.8268 82.3179 31.8206C79.7489 30.3395 76.7719 29.4902 73.5996 29.4902C70.4273 29.4902 67.4491 30.3383 64.8801 31.8206C64.8689 31.8268 64.8578 31.8292 64.8479 31.8354C64.8343 31.8428 64.8244 31.8527 64.8121 31.8614C62.1874 33.3907 59.9955 35.5838 58.4662 38.2085C58.4588 38.2208 58.4489 38.2307 58.4415 38.2431C58.4353 38.253 58.4328 38.2641 58.4279 38.274C56.9456 40.843 56.0963 43.8212 56.0963 46.9947C56.0963 50.1683 56.9456 53.1465 58.4279 55.7155C58.4328 55.7254 58.4366 55.7365 58.4415 55.7464C58.4526 55.7662 58.4662 55.7835 58.4786 55.802C60.0079 58.4168 62.1949 60.6025 64.8121 62.1281C64.8244 62.1355 64.8343 62.1467 64.8479 62.1541C64.8628 62.1627 64.8788 62.1689 64.8949 62.1763C67.4602 63.6537 70.4335 64.4981 73.6008 64.4981C76.767 64.4981 79.7402 63.6524 82.3055 62.1763C82.3216 62.1689 82.3364 62.1627 82.3525 62.1528C82.3661 62.1454 82.376 62.1343 82.3884 62.1269C85.0043 60.6013 87.1913 58.4168 88.7206 55.8033C88.733 55.7847 88.7466 55.7662 88.7589 55.7464C88.7626 55.734 88.7663 55.7229 88.7713 55.713ZM82.2004 59.9288L81.7467 59.1437C81.476 58.6739 80.8764 58.5145 80.4066 58.7852C79.9368 59.0559 79.7761 59.6555 80.048 60.1253L80.5018 60.9116C78.6968 61.8104 76.6953 62.3679 74.5787 62.5002V61.5903C74.5787 61.0488 74.1399 60.61 73.5984 60.61C73.0569 60.61 72.618 61.0488 72.618 61.5903V62.5002C70.5015 62.3679 68.4999 61.8104 66.6962 60.9116L67.1499 60.1253C67.4206 59.6555 67.2599 59.0559 66.7914 58.7852C66.3228 58.5145 65.722 58.6752 65.4512 59.1437L64.9975 59.9288C63.2828 58.784 61.8067 57.3091 60.6631 55.5943L61.4481 55.1406C61.9167 54.8699 62.0787 54.2703 61.8067 53.8005C61.5359 53.3319 60.9363 53.1712 60.4665 53.442L59.6803 53.8957C58.7815 52.0907 58.2239 50.0892 58.0916 47.9726H59.0015C59.543 47.9726 59.9819 47.5338 59.9819 46.9923C59.9819 46.4508 59.543 46.0119 59.0015 46.0119H58.0916C58.2239 43.8954 58.7815 41.8938 59.6803 40.0889L60.4665 40.5426C60.6211 40.6316 60.7892 40.6736 60.9561 40.6736C61.2948 40.6736 61.6249 40.4981 61.8067 40.1828C62.0774 39.713 61.9167 39.1134 61.4481 38.8427L60.6631 38.389C61.8079 36.6742 63.2828 35.1981 64.9975 34.0546L65.4512 34.8396C65.633 35.1548 65.9631 35.3304 66.3018 35.3304C66.4687 35.3304 66.6368 35.2884 66.7914 35.1993C67.2612 34.9286 67.4219 34.329 67.1499 33.8592L66.6962 33.0729C68.5012 32.1742 70.5027 31.6166 72.618 31.4843V32.3942C72.618 32.9357 73.0569 33.3746 73.5984 33.3746C74.1399 33.3746 74.5787 32.9357 74.5787 32.3942V31.4843C76.6953 31.6166 78.6968 32.1742 80.5018 33.0729L80.048 33.8605C79.7773 34.3302 79.938 34.9298 80.4066 35.2006C80.5611 35.2896 80.7293 35.3316 80.8962 35.3316C81.2349 35.3316 81.565 35.1561 81.7467 34.8408L82.2004 34.0558C83.9152 35.2006 85.3913 36.6755 86.5348 38.3902L85.7498 38.8439C85.2812 39.1147 85.1193 39.7143 85.3913 40.1841C85.573 40.4981 85.9031 40.6749 86.2418 40.6749C86.4087 40.6749 86.5769 40.6328 86.7314 40.5438L87.5177 40.0901C88.4165 41.8951 88.974 43.8966 89.1063 46.0131H88.1964C87.6549 46.0131 87.216 46.452 87.216 46.9935C87.216 47.535 87.6549 47.9739 88.1964 47.9739H89.1063C88.974 50.0904 88.4165 52.0919 87.5177 53.8969L86.7314 53.4432C86.2616 53.1725 85.662 53.3332 85.3913 53.8017C85.1205 54.2715 85.2812 54.8711 85.7498 55.1419L86.5348 55.5956C85.3913 57.3091 83.9152 58.7852 82.2004 59.9288ZM74.58 44.9104V36.6458C74.58 36.1043 74.1411 35.6654 73.5996 35.6654C73.0581 35.6654 72.6192 36.1043 72.6192 36.6458V44.9104C72.1371 45.1391 71.7464 45.5285 71.5177 46.0119H67.1833C66.6418 46.0119 66.2029 46.4508 66.2029 46.9923C66.2029 47.5338 66.6418 47.9726 67.1833 47.9726H71.5177C71.8873 48.754 72.6798 49.2967 73.5996 49.2967C74.8705 49.2967 75.904 48.2632 75.904 46.9923C75.9028 46.0737 75.3601 45.28 74.58 44.9104ZM19.1153 27.3873H10.1238C9.58229 27.3873 9.14341 27.8261 9.14341 28.3676V37.3591C9.14341 37.9006 9.58229 38.3395 10.1238 38.3395H19.1153C19.6568 38.3395 20.0957 37.9006 20.0957 37.3591V28.3676C20.0957 27.8261 19.6568 27.3873 19.1153 27.3873ZM18.1337 36.3788H11.1042V29.3493H18.1337V36.3788ZM19.1153 41.3338H10.1238C9.58229 41.3338 9.14341 41.7727 9.14341 42.3142V51.3057C9.14341 51.8472 9.58229 52.286 10.1238 52.286H19.1153C19.6568 52.286 20.0957 51.8472 20.0957 51.3057V42.3142C20.0957 41.7727 19.6568 41.3338 19.1153 41.3338ZM18.1337 50.3241H11.1042V43.2945H18.1337V50.3241ZM19.1153 55.2791H10.1238C9.58229 55.2791 9.14341 55.718 9.14341 56.2595V65.251C9.14341 65.7925 9.58229 66.2313 10.1238 66.2313H19.1153C19.6568 66.2313 20.0957 65.7925 20.0957 65.251V56.2595C20.0957 55.718 19.6568 55.2791 19.1153 55.2791ZM18.1337 64.2706H11.1042V57.2411H18.1337V64.2706ZM32.7849 27.3873H23.7934C23.2519 27.3873 22.813 27.8261 22.813 28.3676V37.3591C22.813 37.9006 23.2519 38.3395 23.7934 38.3395H32.7849C33.3264 38.3395 33.7653 37.9006 33.7653 37.3591V28.3676C33.7665 27.8261 33.3276 27.3873 32.7849 27.3873ZM31.8045 36.3788H24.775V29.3493H31.8045V36.3788ZM32.7849 41.3338H23.7934C23.2519 41.3338 22.813 41.7727 22.813 42.3142V51.3057C22.813 51.8472 23.2519 52.286 23.7934 52.286H32.7849C33.3264 52.286 33.7653 51.8472 33.7653 51.3057V42.3142C33.7665 41.7727 33.3276 41.3338 32.7849 41.3338ZM31.8045 50.3241H24.775V43.2945H31.8045V50.3241ZM32.7849 55.2791H23.7934C23.2519 55.2791 22.813 55.718 22.813 56.2595V65.251C22.813 65.7925 23.2519 66.2313 23.7934 66.2313H32.7849C33.3264 66.2313 33.7653 65.7925 33.7653 65.251V56.2595C33.7665 55.718 33.3276 55.2791 32.7849 55.2791ZM31.8045 64.2706H24.775V57.2411H31.8045V64.2706ZM46.4557 27.3873H37.4642C36.9227 27.3873 36.4838 27.8261 36.4838 28.3676V37.3591C36.4838 37.9006 36.9227 38.3395 37.4642 38.3395H46.4557C46.9972 38.3395 47.4361 37.9006 47.4361 37.3591V28.3676C47.4373 27.8261 46.9972 27.3873 46.4557 27.3873ZM45.4753 36.3788H38.4458V29.3493H45.4753V36.3788ZM46.4557 41.3338H37.4642C36.9227 41.3338 36.4838 41.7727 36.4838 42.3142V51.3057C36.4838 51.8472 36.9227 52.286 37.4642 52.286H46.4557C46.9972 52.286 47.4361 51.8472 47.4361 51.3057V42.3142C47.4373 41.7727 46.9972 41.3338 46.4557 41.3338ZM45.4753 50.3241H38.4458V43.2945H45.4753V50.3241ZM46.4557 55.2791H37.4642C36.9227 55.2791 36.4838 55.718 36.4838 56.2595V65.251C36.4838 65.7925 36.9227 66.2313 37.4642 66.2313H46.4557C46.9972 66.2313 47.4361 65.7925 47.4361 65.251V56.2595C47.4373 55.718 46.9972 55.2791 46.4557 55.2791ZM45.4753 64.2706H38.4458V57.2411H45.4753V64.2706Z" fill="#303838"/>
<path d="M74.5701 23.1344V11.595C74.5701 8.67486 72.1939 6.29748 69.2726 6.29748H60.0165V3.59249C60.0165 2.16334 58.8532 1 57.424 1H56.1074C54.6783 1 53.5149 2.16334 53.5149 3.59249V6.29748H40.5216V3.59249C40.5216 2.16334 39.3582 1 37.9291 1H36.6124C35.1833 1 34.0199 2.16334 34.0199 3.59249V6.29748H21.0253V3.59249C21.0253 2.16334 19.862 1 18.4329 1H17.1162C15.6871 1 14.5237 2.16334 14.5237 3.59249V6.29748H6.29748C3.37614 6.29748 1 8.67362 1 11.595V67.7038C1 70.6239 3.37614 73 6.29748 73H69.2726C70.9577 73 72.5166 72.2001 73.5093 70.8711C73.539 70.8711 73.5675 70.8724 73.5971 70.8724C86.7648 70.8724 97.4772 60.1599 97.4772 46.9923C97.4784 34.151 87.289 23.6463 74.5701 23.1344ZM55.4769 3.59373C55.4769 3.25251 55.7662 2.96322 56.1074 2.96322H57.424C57.7653 2.96322 58.0545 3.25251 58.0545 3.59373V10.9645C58.0545 11.3057 57.7653 11.595 57.424 11.595H56.1074C55.7662 11.595 55.4769 11.3057 55.4769 10.9645V3.59373ZM35.9819 3.59373C35.9819 3.25251 36.2712 2.96322 36.6124 2.96322H37.9291C38.2703 2.96322 38.5596 3.25251 38.5596 3.59373V10.9645C38.5596 11.3057 38.2703 11.595 37.9291 11.595H36.6124C36.2712 11.595 35.9819 11.3057 35.9819 10.9645V3.59373ZM16.4857 3.59373C16.4857 3.25251 16.775 2.96322 17.1162 2.96322H18.4329C18.7741 2.96322 19.0634 3.25251 19.0634 3.59373V10.9645C19.0634 11.3057 18.7741 11.595 18.4329 11.595H17.1162C16.775 11.595 16.4857 11.3057 16.4857 10.9645V3.59373ZM6.29872 8.25947H14.525V10.9645C14.525 12.3936 15.6883 13.5569 17.1174 13.5569H18.4341C19.8632 13.5569 21.0266 12.3936 21.0266 10.9645V8.25947H34.0212V10.9645C34.0212 12.3936 35.1845 13.5569 36.6137 13.5569H37.9303C39.3594 13.5569 40.5228 12.3936 40.5228 10.9645V8.25947H53.5174V10.9645C53.5174 12.3936 54.6807 13.5569 56.1099 13.5569H57.4265C58.8557 13.5569 60.019 12.3936 60.019 10.9645V8.25947H69.2751C71.1147 8.25947 72.6106 9.75537 72.6106 11.595V20.2131H2.96322V11.595C2.96322 9.75537 4.45913 8.25947 6.29872 8.25947ZM69.2726 71.038H6.29872C4.46036 71.038 2.96322 69.5421 2.96322 67.7025V22.1751H72.6081V23.1357C59.8991 23.6562 49.7183 34.1572 49.7183 46.9935C49.7183 59.1907 58.9101 69.2788 70.7302 70.7005C70.2839 70.9181 69.7881 71.038 69.2726 71.038ZM73.5984 68.9116C61.5124 68.9116 51.6803 59.0794 51.6803 46.9935C51.6803 34.9076 61.5124 25.0754 73.5984 25.0754C85.6843 25.0754 95.5164 34.9076 95.5164 46.9935C95.5164 59.0794 85.6843 68.9116 73.5984 68.9116ZM88.7713 55.713C90.2536 53.144 91.1017 50.1658 91.1017 46.9935C91.1017 43.8212 90.2523 40.843 88.7713 38.274C88.7663 38.2641 88.7626 38.253 88.7564 38.2418C88.749 38.2295 88.7391 38.2196 88.7317 38.2072C87.2024 35.5838 85.0105 33.3907 82.3871 31.8614C82.3747 31.8527 82.3636 31.8428 82.3512 31.8354C82.3401 31.8292 82.329 31.8268 82.3179 31.8206C79.7489 30.3395 76.7719 29.4902 73.5996 29.4902C70.4273 29.4902 67.4491 30.3383 64.8801 31.8206C64.8689 31.8268 64.8578 31.8292 64.8479 31.8354C64.8343 31.8428 64.8244 31.8527 64.8121 31.8614C62.1874 33.3907 59.9955 35.5838 58.4662 38.2085C58.4588 38.2208 58.4489 38.2307 58.4415 38.2431C58.4353 38.253 58.4328 38.2641 58.4279 38.274C56.9456 40.843 56.0963 43.8212 56.0963 46.9947C56.0963 50.1683 56.9456 53.1465 58.4279 55.7155C58.4328 55.7254 58.4366 55.7365 58.4415 55.7464C58.4526 55.7662 58.4662 55.7835 58.4786 55.802C60.0079 58.4168 62.1949 60.6025 64.8121 62.1281C64.8244 62.1355 64.8343 62.1467 64.8479 62.1541C64.8628 62.1627 64.8788 62.1689 64.8949 62.1763C67.4602 63.6537 70.4335 64.4981 73.6008 64.4981C76.767 64.4981 79.7402 63.6524 82.3055 62.1763C82.3216 62.1689 82.3364 62.1627 82.3525 62.1528C82.3661 62.1454 82.376 62.1343 82.3884 62.1269C85.0043 60.6013 87.1913 58.4168 88.7206 55.8033C88.733 55.7847 88.7466 55.7662 88.7589 55.7464C88.7626 55.734 88.7663 55.7229 88.7713 55.713ZM82.2004 59.9288L81.7467 59.1437C81.476 58.6739 80.8764 58.5145 80.4066 58.7852C79.9368 59.0559 79.7761 59.6555 80.048 60.1253L80.5018 60.9116C78.6968 61.8104 76.6953 62.3679 74.5787 62.5002V61.5903C74.5787 61.0488 74.1399 60.61 73.5984 60.61C73.0569 60.61 72.618 61.0488 72.618 61.5903V62.5002C70.5015 62.3679 68.4999 61.8104 66.6962 60.9116L67.1499 60.1253C67.4206 59.6555 67.2599 59.0559 66.7914 58.7852C66.3228 58.5145 65.722 58.6752 65.4512 59.1437L64.9975 59.9288C63.2828 58.784 61.8067 57.3091 60.6631 55.5943L61.4481 55.1406C61.9167 54.8699 62.0787 54.2703 61.8067 53.8005C61.5359 53.3319 60.9363 53.1712 60.4665 53.442L59.6803 53.8957C58.7815 52.0907 58.2239 50.0892 58.0916 47.9726H59.0015C59.543 47.9726 59.9819 47.5338 59.9819 46.9923C59.9819 46.4508 59.543 46.0119 59.0015 46.0119H58.0916C58.2239 43.8954 58.7815 41.8938 59.6803 40.0889L60.4665 40.5426C60.6211 40.6316 60.7892 40.6736 60.9561 40.6736C61.2948 40.6736 61.6249 40.4981 61.8067 40.1828C62.0774 39.713 61.9167 39.1134 61.4481 38.8427L60.6631 38.389C61.8079 36.6742 63.2828 35.1981 64.9975 34.0546L65.4512 34.8396C65.633 35.1548 65.9631 35.3304 66.3018 35.3304C66.4687 35.3304 66.6368 35.2884 66.7914 35.1993C67.2612 34.9286 67.4219 34.329 67.1499 33.8592L66.6962 33.0729C68.5012 32.1742 70.5027 31.6166 72.618 31.4843V32.3942C72.618 32.9357 73.0569 33.3746 73.5984 33.3746C74.1399 33.3746 74.5787 32.9357 74.5787 32.3942V31.4843C76.6953 31.6166 78.6968 32.1742 80.5018 33.0729L80.048 33.8605C79.7773 34.3302 79.938 34.9298 80.4066 35.2006C80.5611 35.2896 80.7293 35.3316 80.8962 35.3316C81.2349 35.3316 81.565 35.1561 81.7467 34.8408L82.2004 34.0558C83.9152 35.2006 85.3913 36.6755 86.5348 38.3902L85.7498 38.8439C85.2812 39.1147 85.1193 39.7143 85.3913 40.1841C85.573 40.4981 85.9031 40.6749 86.2418 40.6749C86.4087 40.6749 86.5769 40.6328 86.7314 40.5438L87.5177 40.0901C88.4165 41.8951 88.974 43.8966 89.1063 46.0131H88.1964C87.6549 46.0131 87.216 46.452 87.216 46.9935C87.216 47.535 87.6549 47.9739 88.1964 47.9739H89.1063C88.974 50.0904 88.4165 52.0919 87.5177 53.8969L86.7314 53.4432C86.2616 53.1725 85.662 53.3332 85.3913 53.8017C85.1205 54.2715 85.2812 54.8711 85.7498 55.1419L86.5348 55.5956C85.3913 57.3091 83.9152 58.7852 82.2004 59.9288ZM74.58 44.9104V36.6458C74.58 36.1043 74.1411 35.6654 73.5996 35.6654C73.0581 35.6654 72.6192 36.1043 72.6192 36.6458V44.9104C72.1371 45.1391 71.7464 45.5285 71.5177 46.0119H67.1833C66.6418 46.0119 66.2029 46.4508 66.2029 46.9923C66.2029 47.5338 66.6418 47.9726 67.1833 47.9726H71.5177C71.8873 48.754 72.6798 49.2967 73.5996 49.2967C74.8705 49.2967 75.904 48.2632 75.904 46.9923C75.9028 46.0737 75.3601 45.28 74.58 44.9104ZM19.1153 27.3873H10.1238C9.58229 27.3873 9.14341 27.8261 9.14341 28.3676V37.3591C9.14341 37.9006 9.58229 38.3395 10.1238 38.3395H19.1153C19.6568 38.3395 20.0957 37.9006 20.0957 37.3591V28.3676C20.0957 27.8261 19.6568 27.3873 19.1153 27.3873ZM18.1337 36.3788H11.1042V29.3493H18.1337V36.3788ZM19.1153 41.3338H10.1238C9.58229 41.3338 9.14341 41.7727 9.14341 42.3142V51.3057C9.14341 51.8472 9.58229 52.286 10.1238 52.286H19.1153C19.6568 52.286 20.0957 51.8472 20.0957 51.3057V42.3142C20.0957 41.7727 19.6568 41.3338 19.1153 41.3338ZM18.1337 50.3241H11.1042V43.2945H18.1337V50.3241ZM19.1153 55.2791H10.1238C9.58229 55.2791 9.14341 55.718 9.14341 56.2595V65.251C9.14341 65.7925 9.58229 66.2313 10.1238 66.2313H19.1153C19.6568 66.2313 20.0957 65.7925 20.0957 65.251V56.2595C20.0957 55.718 19.6568 55.2791 19.1153 55.2791ZM18.1337 64.2706H11.1042V57.2411H18.1337V64.2706ZM32.7849 27.3873H23.7934C23.2519 27.3873 22.813 27.8261 22.813 28.3676V37.3591C22.813 37.9006 23.2519 38.3395 23.7934 38.3395H32.7849C33.3264 38.3395 33.7653 37.9006 33.7653 37.3591V28.3676C33.7665 27.8261 33.3276 27.3873 32.7849 27.3873ZM31.8045 36.3788H24.775V29.3493H31.8045V36.3788ZM32.7849 41.3338H23.7934C23.2519 41.3338 22.813 41.7727 22.813 42.3142V51.3057C22.813 51.8472 23.2519 52.286 23.7934 52.286H32.7849C33.3264 52.286 33.7653 51.8472 33.7653 51.3057V42.3142C33.7665 41.7727 33.3276 41.3338 32.7849 41.3338ZM31.8045 50.3241H24.775V43.2945H31.8045V50.3241ZM32.7849 55.2791H23.7934C23.2519 55.2791 22.813 55.718 22.813 56.2595V65.251C22.813 65.7925 23.2519 66.2313 23.7934 66.2313H32.7849C33.3264 66.2313 33.7653 65.7925 33.7653 65.251V56.2595C33.7665 55.718 33.3276 55.2791 32.7849 55.2791ZM31.8045 64.2706H24.775V57.2411H31.8045V64.2706ZM46.4557 27.3873H37.4642C36.9227 27.3873 36.4838 27.8261 36.4838 28.3676V37.3591C36.4838 37.9006 36.9227 38.3395 37.4642 38.3395H46.4557C46.9972 38.3395 47.4361 37.9006 47.4361 37.3591V28.3676C47.4373 27.8261 46.9972 27.3873 46.4557 27.3873ZM45.4753 36.3788H38.4458V29.3493H45.4753V36.3788ZM46.4557 41.3338H37.4642C36.9227 41.3338 36.4838 41.7727 36.4838 42.3142V51.3057C36.4838 51.8472 36.9227 52.286 37.4642 52.286H46.4557C46.9972 52.286 47.4361 51.8472 47.4361 51.3057V42.3142C47.4373 41.7727 46.9972 41.3338 46.4557 41.3338ZM45.4753 50.3241H38.4458V43.2945H45.4753V50.3241ZM46.4557 55.2791H37.4642C36.9227 55.2791 36.4838 55.718 36.4838 56.2595V65.251C36.4838 65.7925 36.9227 66.2313 37.4642 66.2313H46.4557C46.9972 66.2313 47.4361 65.7925 47.4361 65.251V56.2595C47.4373 55.718 46.9972 55.2791 46.4557 55.2791ZM45.4753 64.2706H38.4458V57.2411H45.4753V64.2706Z" stroke="#303838" stroke-width="0.6" mask="url(#path-15-outside-1_1348_7566)"/>
</svg>
